solid OpenSCAD_Model
  facet normal -1 0 0
    outer loop
      vertex 0 -11 0
      vertex 0 -11 55
      vertex 0 24 0
    endloop
  endfacet
  facet normal -1 0 0
    outer loop
      vertex 0 24 0
      vertex 0 -11 55
      vertex 0 24 55
    endloop
  endfacet
  facet normal 0 -1 0
    outer loop
      vertex 0 -11 55
      vertex 0 -11 0
      vertex 5 -11 0
    endloop
  endfacet
  facet normal 0 -1 0
    outer loop
      vertex 5 -11 55
      vertex 0 -11 55
      vertex 5 -11 0
    endloop
  endfacet
  facet normal 0 0 -1
    outer loop
      vertex 0 -11 0
      vertex 0 24 0
      vertex 5 -11 0
    endloop
  endfacet
  facet normal 0 0 -1
    outer loop
      vertex 5 0 0
      vertex 0 24 0
      vertex 25 24 0
    endloop
  endfacet
  facet normal 0 0 -1
    outer loop
      vertex 5 -11 0
      vertex 0 24 0
      vertex 5 0 0
    endloop
  endfacet
  facet normal 0 0 -1
    outer loop
      vertex 5 0 0
      vertex 25 24 0
      vertex 25 0 0
    endloop
  endfacet
  facet normal 0 1 0
    outer loop
      vertex 25 24 7.5
      vertex 25 24 0
      vertex 5 24 7.5
    endloop
  endfacet
  facet normal 0 1 0
    outer loop
      vertex 25 24 47.5
      vertex 0 24 55
      vertex 25 24 55
    endloop
  endfacet
  facet normal 0 1 0
    outer loop
      vertex 5 24 47.5
      vertex 0 24 55
      vertex 25 24 47.5
    endloop
  endfacet
  facet normal 0 1 0
    outer loop
      vertex 0 24 0
      vertex 0 24 55
      vertex 5 24 7.5
    endloop
  endfacet
  facet normal 0 1 0
    outer loop
      vertex 0 24 0
      vertex 5 24 7.5
      vertex 25 24 0
    endloop
  endfacet
  facet normal 0 1 0
    outer loop
      vertex 5 24 7.5
      vertex 0 24 55
      vertex 5 24 47.5
    endloop
  endfacet
  facet normal 0 0 1
    outer loop
      vertex 0 24 55
      vertex 0 -11 55
      vertex 5 -11 55
    endloop
  endfacet
  facet normal 0 0 1
    outer loop
      vertex 25 0 55
      vertex 0 24 55
      vertex 5 0 55
    endloop
  endfacet
  facet normal 0 0 1
    outer loop
      vertex 5 0 55
      vertex 0 24 55
      vertex 5 -11 55
    endloop
  endfacet
  facet normal 0 0 1
    outer loop
      vertex 25 24 55
      vertex 0 24 55
      vertex 25 0 55
    endloop
  endfacet
  facet normal 1 0 0
    outer loop
      vertex 5 -11 55
      vertex 5 -11 0
      vertex 5 0 0
    endloop
  endfacet
  facet normal 1 0 0
    outer loop
      vertex 5 0 47.5
      vertex 5 -11 55
      vertex 5 0 7.5
    endloop
  endfacet
  facet normal 1 0 0
    outer loop
      vertex 5 0 7.5
      vertex 5 -11 55
      vertex 5 0 0
    endloop
  endfacet
  facet normal 1 0 0
    outer loop
      vertex 5 0 55
      vertex 5 -11 55
      vertex 5 0 47.5
    endloop
  endfacet
  facet normal 0 -1 0
    outer loop
      vertex 5 0 7.5
      vertex 5 0 0
      vertex 25 0 0
    endloop
  endfacet
  facet normal 0 -1 0
    outer loop
      vertex 25 0 7.5
      vertex 5 0 7.5
      vertex 25 0 0
    endloop
  endfacet
  facet normal 1 0 0
    outer loop
      vertex 25 0 7.5
      vertex 25 0 0
      vertex 25 24 0
    endloop
  endfacet
  facet normal 1 0 0
    outer loop
      vertex 25 24 7.5
      vertex 25 0 7.5
      vertex 25 24 0
    endloop
  endfacet
  facet normal 0 0 1
    outer loop
      vertex 25 0 7.5
      vertex 25 24 7.5
      vertex 5 24 7.5
    endloop
  endfacet
  facet normal 0 0 1
    outer loop
      vertex 5 0 7.5
      vertex 25 0 7.5
      vertex 5 24 7.5
    endloop
  endfacet
  facet normal 1 0 0
    outer loop
      vertex 5 24 7.5
      vertex 5 24 47.5
      vertex 5 0 47.5
    endloop
  endfacet
  facet normal 1 0 0
    outer loop
      vertex 5 0 7.5
      vertex 5 24 7.5
      vertex 5 0 47.5
    endloop
  endfacet
  facet normal 0 0 -1
    outer loop
      vertex 25 24 47.5
      vertex 25 0 47.5
      vertex 5 24 47.5
    endloop
  endfacet
  facet normal 0 0 -1
    outer loop
      vertex 5 24 47.5
      vertex 25 0 47.5
      vertex 5 0 47.5
    endloop
  endfacet
  facet normal 1 0 0
    outer loop
      vertex 25 0 55
      vertex 25 0 47.5
      vertex 25 24 47.5
    endloop
  endfacet
  facet normal 1 0 0
    outer loop
      vertex 25 24 55
      vertex 25 0 55
      vertex 25 24 47.5
    endloop
  endfacet
  facet normal 0 -1 0
    outer loop
      vertex 5 0 55
      vertex 5 0 47.5
      vertex 25 0 47.5
    endloop
  endfacet
  facet normal 0 -1 0
    outer loop
      vertex 25 0 55
      vertex 5 0 55
      vertex 25 0 47.5
    endloop
  endfacet
endsolid OpenSCAD_Model
