  0
SECTION
  2
BLOCKS
  0
ENDSEC
  0
SECTION
  2
ENTITIES
  0
LINE
  8
0
 10
-40
 20
-56.4
 11
41
 21
-56.4
  0
LINE
  8
0
 10
41
 20
-56.4
 11
41
 21
56.4
  0
LINE
  8
0
 10
41
 20
56.4
 11
-40
 21
56.4
  0
LINE
  8
0
 10
-40
 20
56.4
 11
-40
 21
-56.4
  0
LINE
  8
0
 10
-34.5
 20
-53.4
 11
-34.497
 21
-53.3058
  0
LINE
  8
0
 10
-34.497
 20
-53.3058
 11
-34.4882
 21
-53.212
  0
LINE
  8
0
 10
-34.4882
 20
-53.212
 11
-34.4734
 21
-53.1189
  0
LINE
  8
0
 10
-34.4734
 20
-53.1189
 11
-34.4529
 21
-53.027
  0
LINE
  8
0
 10
-34.4529
 20
-53.027
 11
-34.4266
 21
-52.9365
  0
LINE
  8
0
 10
-34.4266
 20
-52.9365
 11
-34.3947
 21
-52.8478
  0
LINE
  8
0
 10
-34.3947
 20
-52.8478
 11
-34.3572
 21
-52.7613
  0
LINE
  8
0
 10
-34.3572
 20
-52.7613
 11
-34.3145
 21
-52.6774
  0
LINE
  8
0
 10
-34.3145
 20
-52.6774
 11
-34.2665
 21
-52.5963
  0
LINE
  8
0
 10
-34.2665
 20
-52.5963
 11
-34.2135
 21
-52.5183
  0
LINE
  8
0
 10
-34.2135
 20
-52.5183
 11
-34.1558
 21
-52.4439
  0
LINE
  8
0
 10
-34.1558
 20
-52.4439
 11
-34.0935
 21
-52.3732
  0
LINE
  8
0
 10
-34.0935
 20
-52.3732
 11
-34.0268
 21
-52.3065
  0
LINE
  8
0
 10
-34.0268
 20
-52.3065
 11
-33.9561
 21
-52.2442
  0
LINE
  8
0
 10
-33.9561
 20
-52.2442
 11
-33.8817
 21
-52.1865
  0
LINE
  8
0
 10
-33.8817
 20
-52.1865
 11
-33.8037
 21
-52.1335
  0
LINE
  8
0
 10
-33.8037
 20
-52.1335
 11
-33.7226
 21
-52.0855
  0
LINE
  8
0
 10
-33.7226
 20
-52.0855
 11
-33.6387
 21
-52.0428
  0
LINE
  8
0
 10
-33.6387
 20
-52.0428
 11
-33.5522
 21
-52.0053
  0
LINE
  8
0
 10
-33.5522
 20
-52.0053
 11
-33.4635
 21
-51.9734
  0
LINE
  8
0
 10
-33.4635
 20
-51.9734
 11
-33.373
 21
-51.9471
  0
LINE
  8
0
 10
-33.373
 20
-51.9471
 11
-33.2811
 21
-51.9266
  0
LINE
  8
0
 10
-33.2811
 20
-51.9266
 11
-33.188
 21
-51.9118
  0
LINE
  8
0
 10
-33.188
 20
-51.9118
 11
-33.0942
 21
-51.903
  0
LINE
  8
0
 10
-33.0942
 20
-51.903
 11
-33
 21
-51.9
  0
LINE
  8
0
 10
-33
 20
-51.9
 11
-32.9058
 21
-51.903
  0
LINE
  8
0
 10
-32.9058
 20
-51.903
 11
-32.812
 21
-51.9118
  0
LINE
  8
0
 10
-32.812
 20
-51.9118
 11
-32.7189
 21
-51.9266
  0
LINE
  8
0
 10
-32.7189
 20
-51.9266
 11
-32.627
 21
-51.9471
  0
LINE
  8
0
 10
-32.627
 20
-51.9471
 11
-32.5365
 21
-51.9734
  0
LINE
  8
0
 10
-32.5365
 20
-51.9734
 11
-32.4478
 21
-52.0053
  0
LINE
  8
0
 10
-32.4478
 20
-52.0053
 11
-32.3613
 21
-52.0428
  0
LINE
  8
0
 10
-32.3613
 20
-52.0428
 11
-32.2774
 21
-52.0855
  0
LINE
  8
0
 10
-32.2774
 20
-52.0855
 11
-32.1963
 21
-52.1335
  0
LINE
  8
0
 10
-32.1963
 20
-52.1335
 11
-32.1183
 21
-52.1865
  0
LINE
  8
0
 10
-32.1183
 20
-52.1865
 11
-32.0439
 21
-52.2442
  0
LINE
  8
0
 10
-32.0439
 20
-52.2442
 11
-31.9732
 21
-52.3065
  0
LINE
  8
0
 10
-31.9732
 20
-52.3065
 11
-31.9065
 21
-52.3732
  0
LINE
  8
0
 10
-31.9065
 20
-52.3732
 11
-31.8442
 21
-52.4439
  0
LINE
  8
0
 10
-31.8442
 20
-52.4439
 11
-31.7865
 21
-52.5183
  0
LINE
  8
0
 10
-31.7865
 20
-52.5183
 11
-31.7335
 21
-52.5963
  0
LINE
  8
0
 10
-31.7335
 20
-52.5963
 11
-31.6855
 21
-52.6774
  0
LINE
  8
0
 10
-31.6855
 20
-52.6774
 11
-31.6428
 21
-52.7613
  0
LINE
  8
0
 10
-31.6428
 20
-52.7613
 11
-31.6053
 21
-52.8478
  0
LINE
  8
0
 10
-31.6053
 20
-52.8478
 11
-31.5734
 21
-52.9365
  0
LINE
  8
0
 10
-31.5734
 20
-52.9365
 11
-31.5471
 21
-53.027
  0
LINE
  8
0
 10
-31.5471
 20
-53.027
 11
-31.5266
 21
-53.1189
  0
LINE
  8
0
 10
-31.5266
 20
-53.1189
 11
-31.5118
 21
-53.212
  0
LINE
  8
0
 10
-31.5118
 20
-53.212
 11
-31.503
 21
-53.3058
  0
LINE
  8
0
 10
-31.503
 20
-53.3058
 11
-31.5
 21
-53.4
  0
LINE
  8
0
 10
-31.5
 20
-53.4
 11
-31.503
 21
-53.4942
  0
LINE
  8
0
 10
-31.503
 20
-53.4942
 11
-31.5118
 21
-53.588
  0
LINE
  8
0
 10
-31.5118
 20
-53.588
 11
-31.5266
 21
-53.6811
  0
LINE
  8
0
 10
-31.5266
 20
-53.6811
 11
-31.5471
 21
-53.773
  0
LINE
  8
0
 10
-31.5471
 20
-53.773
 11
-31.5734
 21
-53.8635
  0
LINE
  8
0
 10
-31.5734
 20
-53.8635
 11
-31.6053
 21
-53.9522
  0
LINE
  8
0
 10
-31.6053
 20
-53.9522
 11
-31.6428
 21
-54.0387
  0
LINE
  8
0
 10
-31.6428
 20
-54.0387
 11
-31.6855
 21
-54.1226
  0
LINE
  8
0
 10
-31.6855
 20
-54.1226
 11
-31.7335
 21
-54.2037
  0
LINE
  8
0
 10
-31.7335
 20
-54.2037
 11
-31.7865
 21
-54.2817
  0
LINE
  8
0
 10
-31.7865
 20
-54.2817
 11
-31.8442
 21
-54.3561
  0
LINE
  8
0
 10
-31.8442
 20
-54.3561
 11
-31.9065
 21
-54.4268
  0
LINE
  8
0
 10
-31.9065
 20
-54.4268
 11
-31.9732
 21
-54.4935
  0
LINE
  8
0
 10
-31.9732
 20
-54.4935
 11
-32.0439
 21
-54.5558
  0
LINE
  8
0
 10
-32.0439
 20
-54.5558
 11
-32.1183
 21
-54.6135
  0
LINE
  8
0
 10
-32.1183
 20
-54.6135
 11
-32.1963
 21
-54.6665
  0
LINE
  8
0
 10
-32.1963
 20
-54.6665
 11
-32.2774
 21
-54.7145
  0
LINE
  8
0
 10
-32.2774
 20
-54.7145
 11
-32.3613
 21
-54.7572
  0
LINE
  8
0
 10
-32.3613
 20
-54.7572
 11
-32.4478
 21
-54.7947
  0
LINE
  8
0
 10
-32.4478
 20
-54.7947
 11
-32.5365
 21
-54.8266
  0
LINE
  8
0
 10
-32.5365
 20
-54.8266
 11
-32.627
 21
-54.8529
  0
LINE
  8
0
 10
-32.627
 20
-54.8529
 11
-32.7189
 21
-54.8734
  0
LINE
  8
0
 10
-32.7189
 20
-54.8734
 11
-32.812
 21
-54.8882
  0
LINE
  8
0
 10
-32.812
 20
-54.8882
 11
-32.9058
 21
-54.897
  0
LINE
  8
0
 10
-32.9058
 20
-54.897
 11
-33
 21
-54.9
  0
LINE
  8
0
 10
-33
 20
-54.9
 11
-33.0942
 21
-54.897
  0
LINE
  8
0
 10
-33.0942
 20
-54.897
 11
-33.188
 21
-54.8882
  0
LINE
  8
0
 10
-33.188
 20
-54.8882
 11
-33.2811
 21
-54.8734
  0
LINE
  8
0
 10
-33.2811
 20
-54.8734
 11
-33.373
 21
-54.8529
  0
LINE
  8
0
 10
-33.373
 20
-54.8529
 11
-33.4635
 21
-54.8266
  0
LINE
  8
0
 10
-33.4635
 20
-54.8266
 11
-33.5522
 21
-54.7947
  0
LINE
  8
0
 10
-33.5522
 20
-54.7947
 11
-33.6387
 21
-54.7572
  0
LINE
  8
0
 10
-33.6387
 20
-54.7572
 11
-33.7226
 21
-54.7145
  0
LINE
  8
0
 10
-33.7226
 20
-54.7145
 11
-33.8037
 21
-54.6665
  0
LINE
  8
0
 10
-33.8037
 20
-54.6665
 11
-33.8817
 21
-54.6135
  0
LINE
  8
0
 10
-33.8817
 20
-54.6135
 11
-33.9561
 21
-54.5558
  0
LINE
  8
0
 10
-33.9561
 20
-54.5558
 11
-34.0268
 21
-54.4935
  0
LINE
  8
0
 10
-34.0268
 20
-54.4935
 11
-34.0935
 21
-54.4268
  0
LINE
  8
0
 10
-34.0935
 20
-54.4268
 11
-34.1558
 21
-54.3561
  0
LINE
  8
0
 10
-34.1558
 20
-54.3561
 11
-34.2135
 21
-54.2817
  0
LINE
  8
0
 10
-34.2135
 20
-54.2817
 11
-34.2665
 21
-54.2037
  0
LINE
  8
0
 10
-34.2665
 20
-54.2037
 11
-34.3145
 21
-54.1226
  0
LINE
  8
0
 10
-34.3145
 20
-54.1226
 11
-34.3572
 21
-54.0387
  0
LINE
  8
0
 10
-34.3572
 20
-54.0387
 11
-34.3947
 21
-53.9522
  0
LINE
  8
0
 10
-34.3947
 20
-53.9522
 11
-34.4266
 21
-53.8635
  0
LINE
  8
0
 10
-34.4266
 20
-53.8635
 11
-34.4529
 21
-53.773
  0
LINE
  8
0
 10
-34.4529
 20
-53.773
 11
-34.4734
 21
-53.6811
  0
LINE
  8
0
 10
-34.4734
 20
-53.6811
 11
-34.4882
 21
-53.588
  0
LINE
  8
0
 10
-34.4882
 20
-53.588
 11
-34.497
 21
-53.4942
  0
LINE
  8
0
 10
-34.497
 20
-53.4942
 11
-34.5
 21
-53.4
  0
LINE
  8
0
 10
-34.5
 20
53.4
 11
-34.497
 21
53.4942
  0
LINE
  8
0
 10
-34.497
 20
53.4942
 11
-34.4882
 21
53.588
  0
LINE
  8
0
 10
-34.4882
 20
53.588
 11
-34.4734
 21
53.6811
  0
LINE
  8
0
 10
-34.4734
 20
53.6811
 11
-34.4529
 21
53.773
  0
LINE
  8
0
 10
-34.4529
 20
53.773
 11
-34.4266
 21
53.8635
  0
LINE
  8
0
 10
-34.4266
 20
53.8635
 11
-34.3947
 21
53.9522
  0
LINE
  8
0
 10
-34.3947
 20
53.9522
 11
-34.3572
 21
54.0387
  0
LINE
  8
0
 10
-34.3572
 20
54.0387
 11
-34.3145
 21
54.1226
  0
LINE
  8
0
 10
-34.3145
 20
54.1226
 11
-34.2665
 21
54.2037
  0
LINE
  8
0
 10
-34.2665
 20
54.2037
 11
-34.2135
 21
54.2817
  0
LINE
  8
0
 10
-34.2135
 20
54.2817
 11
-34.1558
 21
54.3561
  0
LINE
  8
0
 10
-34.1558
 20
54.3561
 11
-34.0935
 21
54.4268
  0
LINE
  8
0
 10
-34.0935
 20
54.4268
 11
-34.0268
 21
54.4935
  0
LINE
  8
0
 10
-34.0268
 20
54.4935
 11
-33.9561
 21
54.5558
  0
LINE
  8
0
 10
-33.9561
 20
54.5558
 11
-33.8817
 21
54.6135
  0
LINE
  8
0
 10
-33.8817
 20
54.6135
 11
-33.8037
 21
54.6665
  0
LINE
  8
0
 10
-33.8037
 20
54.6665
 11
-33.7226
 21
54.7145
  0
LINE
  8
0
 10
-33.7226
 20
54.7145
 11
-33.6387
 21
54.7572
  0
LINE
  8
0
 10
-33.6387
 20
54.7572
 11
-33.5522
 21
54.7947
  0
LINE
  8
0
 10
-33.5522
 20
54.7947
 11
-33.4635
 21
54.8266
  0
LINE
  8
0
 10
-33.4635
 20
54.8266
 11
-33.373
 21
54.8529
  0
LINE
  8
0
 10
-33.373
 20
54.8529
 11
-33.2811
 21
54.8734
  0
LINE
  8
0
 10
-33.2811
 20
54.8734
 11
-33.188
 21
54.8882
  0
LINE
  8
0
 10
-33.188
 20
54.8882
 11
-33.0942
 21
54.897
  0
LINE
  8
0
 10
-33.0942
 20
54.897
 11
-33
 21
54.9
  0
LINE
  8
0
 10
-33
 20
54.9
 11
-32.9058
 21
54.897
  0
LINE
  8
0
 10
-32.9058
 20
54.897
 11
-32.812
 21
54.8882
  0
LINE
  8
0
 10
-32.812
 20
54.8882
 11
-32.7189
 21
54.8734
  0
LINE
  8
0
 10
-32.7189
 20
54.8734
 11
-32.627
 21
54.8529
  0
LINE
  8
0
 10
-32.627
 20
54.8529
 11
-32.5365
 21
54.8266
  0
LINE
  8
0
 10
-32.5365
 20
54.8266
 11
-32.4478
 21
54.7947
  0
LINE
  8
0
 10
-32.4478
 20
54.7947
 11
-32.3613
 21
54.7572
  0
LINE
  8
0
 10
-32.3613
 20
54.7572
 11
-32.2774
 21
54.7145
  0
LINE
  8
0
 10
-32.2774
 20
54.7145
 11
-32.1963
 21
54.6665
  0
LINE
  8
0
 10
-32.1963
 20
54.6665
 11
-32.1183
 21
54.6135
  0
LINE
  8
0
 10
-32.1183
 20
54.6135
 11
-32.0439
 21
54.5558
  0
LINE
  8
0
 10
-32.0439
 20
54.5558
 11
-31.9732
 21
54.4935
  0
LINE
  8
0
 10
-31.9732
 20
54.4935
 11
-31.9065
 21
54.4268
  0
LINE
  8
0
 10
-31.9065
 20
54.4268
 11
-31.8442
 21
54.3561
  0
LINE
  8
0
 10
-31.8442
 20
54.3561
 11
-31.7865
 21
54.2817
  0
LINE
  8
0
 10
-31.7865
 20
54.2817
 11
-31.7335
 21
54.2037
  0
LINE
  8
0
 10
-31.7335
 20
54.2037
 11
-31.6855
 21
54.1226
  0
LINE
  8
0
 10
-31.6855
 20
54.1226
 11
-31.6428
 21
54.0387
  0
LINE
  8
0
 10
-31.6428
 20
54.0387
 11
-31.6053
 21
53.9522
  0
LINE
  8
0
 10
-31.6053
 20
53.9522
 11
-31.5734
 21
53.8635
  0
LINE
  8
0
 10
-31.5734
 20
53.8635
 11
-31.5471
 21
53.773
  0
LINE
  8
0
 10
-31.5471
 20
53.773
 11
-31.5266
 21
53.6811
  0
LINE
  8
0
 10
-31.5266
 20
53.6811
 11
-31.5118
 21
53.588
  0
LINE
  8
0
 10
-31.5118
 20
53.588
 11
-31.503
 21
53.4942
  0
LINE
  8
0
 10
-31.503
 20
53.4942
 11
-31.5
 21
53.4
  0
LINE
  8
0
 10
-31.5
 20
53.4
 11
-31.503
 21
53.3058
  0
LINE
  8
0
 10
-31.503
 20
53.3058
 11
-31.5118
 21
53.212
  0
LINE
  8
0
 10
-31.5118
 20
53.212
 11
-31.5266
 21
53.1189
  0
LINE
  8
0
 10
-31.5266
 20
53.1189
 11
-31.5471
 21
53.027
  0
LINE
  8
0
 10
-31.5471
 20
53.027
 11
-31.5734
 21
52.9365
  0
LINE
  8
0
 10
-31.5734
 20
52.9365
 11
-31.6053
 21
52.8478
  0
LINE
  8
0
 10
-31.6053
 20
52.8478
 11
-31.6428
 21
52.7613
  0
LINE
  8
0
 10
-31.6428
 20
52.7613
 11
-31.6855
 21
52.6774
  0
LINE
  8
0
 10
-31.6855
 20
52.6774
 11
-31.7335
 21
52.5963
  0
LINE
  8
0
 10
-31.7335
 20
52.5963
 11
-31.7865
 21
52.5183
  0
LINE
  8
0
 10
-31.7865
 20
52.5183
 11
-31.8442
 21
52.4439
  0
LINE
  8
0
 10
-31.8442
 20
52.4439
 11
-31.9065
 21
52.3732
  0
LINE
  8
0
 10
-31.9065
 20
52.3732
 11
-31.9732
 21
52.3065
  0
LINE
  8
0
 10
-31.9732
 20
52.3065
 11
-32.0439
 21
52.2442
  0
LINE
  8
0
 10
-32.0439
 20
52.2442
 11
-32.1183
 21
52.1865
  0
LINE
  8
0
 10
-32.1183
 20
52.1865
 11
-32.1963
 21
52.1335
  0
LINE
  8
0
 10
-32.1963
 20
52.1335
 11
-32.2774
 21
52.0855
  0
LINE
  8
0
 10
-32.2774
 20
52.0855
 11
-32.3613
 21
52.0428
  0
LINE
  8
0
 10
-32.3613
 20
52.0428
 11
-32.4478
 21
52.0053
  0
LINE
  8
0
 10
-32.4478
 20
52.0053
 11
-32.5365
 21
51.9734
  0
LINE
  8
0
 10
-32.5365
 20
51.9734
 11
-32.627
 21
51.9471
  0
LINE
  8
0
 10
-32.627
 20
51.9471
 11
-32.7189
 21
51.9266
  0
LINE
  8
0
 10
-32.7189
 20
51.9266
 11
-32.812
 21
51.9118
  0
LINE
  8
0
 10
-32.812
 20
51.9118
 11
-32.9058
 21
51.903
  0
LINE
  8
0
 10
-32.9058
 20
51.903
 11
-33
 21
51.9
  0
LINE
  8
0
 10
-33
 20
51.9
 11
-33.0942
 21
51.903
  0
LINE
  8
0
 10
-33.0942
 20
51.903
 11
-33.188
 21
51.9118
  0
LINE
  8
0
 10
-33.188
 20
51.9118
 11
-33.2811
 21
51.9266
  0
LINE
  8
0
 10
-33.2811
 20
51.9266
 11
-33.373
 21
51.9471
  0
LINE
  8
0
 10
-33.373
 20
51.9471
 11
-33.4635
 21
51.9734
  0
LINE
  8
0
 10
-33.4635
 20
51.9734
 11
-33.5522
 21
52.0053
  0
LINE
  8
0
 10
-33.5522
 20
52.0053
 11
-33.6387
 21
52.0428
  0
LINE
  8
0
 10
-33.6387
 20
52.0428
 11
-33.7226
 21
52.0855
  0
LINE
  8
0
 10
-33.7226
 20
52.0855
 11
-33.8037
 21
52.1335
  0
LINE
  8
0
 10
-33.8037
 20
52.1335
 11
-33.8817
 21
52.1865
  0
LINE
  8
0
 10
-33.8817
 20
52.1865
 11
-33.9561
 21
52.2442
  0
LINE
  8
0
 10
-33.9561
 20
52.2442
 11
-34.0268
 21
52.3065
  0
LINE
  8
0
 10
-34.0268
 20
52.3065
 11
-34.0935
 21
52.3732
  0
LINE
  8
0
 10
-34.0935
 20
52.3732
 11
-34.1558
 21
52.4439
  0
LINE
  8
0
 10
-34.1558
 20
52.4439
 11
-34.2135
 21
52.5183
  0
LINE
  8
0
 10
-34.2135
 20
52.5183
 11
-34.2665
 21
52.5963
  0
LINE
  8
0
 10
-34.2665
 20
52.5963
 11
-34.3145
 21
52.6774
  0
LINE
  8
0
 10
-34.3145
 20
52.6774
 11
-34.3572
 21
52.7613
  0
LINE
  8
0
 10
-34.3572
 20
52.7613
 11
-34.3947
 21
52.8478
  0
LINE
  8
0
 10
-34.3947
 20
52.8478
 11
-34.4266
 21
52.9365
  0
LINE
  8
0
 10
-34.4266
 20
52.9365
 11
-34.4529
 21
53.027
  0
LINE
  8
0
 10
-34.4529
 20
53.027
 11
-34.4734
 21
53.1189
  0
LINE
  8
0
 10
-34.4734
 20
53.1189
 11
-34.4882
 21
53.212
  0
LINE
  8
0
 10
-34.4882
 20
53.212
 11
-34.497
 21
53.3058
  0
LINE
  8
0
 10
-34.497
 20
53.3058
 11
-34.5
 21
53.4
  0
LINE
  8
0
 10
-14.5
 20
-53.4
 11
-14.497
 21
-53.3058
  0
LINE
  8
0
 10
-14.497
 20
-53.3058
 11
-14.4882
 21
-53.212
  0
LINE
  8
0
 10
-14.4882
 20
-53.212
 11
-14.4734
 21
-53.1189
  0
LINE
  8
0
 10
-14.4734
 20
-53.1189
 11
-14.4529
 21
-53.027
  0
LINE
  8
0
 10
-14.4529
 20
-53.027
 11
-14.4266
 21
-52.9365
  0
LINE
  8
0
 10
-14.4266
 20
-52.9365
 11
-14.3947
 21
-52.8478
  0
LINE
  8
0
 10
-14.3947
 20
-52.8478
 11
-14.3572
 21
-52.7613
  0
LINE
  8
0
 10
-14.3572
 20
-52.7613
 11
-14.3145
 21
-52.6774
  0
LINE
  8
0
 10
-14.3145
 20
-52.6774
 11
-14.2665
 21
-52.5963
  0
LINE
  8
0
 10
-14.2665
 20
-52.5963
 11
-14.2135
 21
-52.5183
  0
LINE
  8
0
 10
-14.2135
 20
-52.5183
 11
-14.1558
 21
-52.4439
  0
LINE
  8
0
 10
-14.1558
 20
-52.4439
 11
-14.0935
 21
-52.3732
  0
LINE
  8
0
 10
-14.0935
 20
-52.3732
 11
-14.0268
 21
-52.3065
  0
LINE
  8
0
 10
-14.0268
 20
-52.3065
 11
-13.9561
 21
-52.2442
  0
LINE
  8
0
 10
-13.9561
 20
-52.2442
 11
-13.8817
 21
-52.1865
  0
LINE
  8
0
 10
-13.8817
 20
-52.1865
 11
-13.8037
 21
-52.1335
  0
LINE
  8
0
 10
-13.8037
 20
-52.1335
 11
-13.7226
 21
-52.0855
  0
LINE
  8
0
 10
-13.7226
 20
-52.0855
 11
-13.6387
 21
-52.0428
  0
LINE
  8
0
 10
-13.6387
 20
-52.0428
 11
-13.5522
 21
-52.0053
  0
LINE
  8
0
 10
-13.5522
 20
-52.0053
 11
-13.4635
 21
-51.9734
  0
LINE
  8
0
 10
-13.4635
 20
-51.9734
 11
-13.373
 21
-51.9471
  0
LINE
  8
0
 10
-13.373
 20
-51.9471
 11
-13.2811
 21
-51.9266
  0
LINE
  8
0
 10
-13.2811
 20
-51.9266
 11
-13.188
 21
-51.9118
  0
LINE
  8
0
 10
-13.188
 20
-51.9118
 11
-13.0942
 21
-51.903
  0
LINE
  8
0
 10
-13.0942
 20
-51.903
 11
-13
 21
-51.9
  0
LINE
  8
0
 10
-13
 20
-51.9
 11
-12.9058
 21
-51.903
  0
LINE
  8
0
 10
-12.9058
 20
-51.903
 11
-12.812
 21
-51.9118
  0
LINE
  8
0
 10
-12.812
 20
-51.9118
 11
-12.7189
 21
-51.9266
  0
LINE
  8
0
 10
-12.7189
 20
-51.9266
 11
-12.627
 21
-51.9471
  0
LINE
  8
0
 10
-12.627
 20
-51.9471
 11
-12.5365
 21
-51.9734
  0
LINE
  8
0
 10
-12.5365
 20
-51.9734
 11
-12.4478
 21
-52.0053
  0
LINE
  8
0
 10
-12.4478
 20
-52.0053
 11
-12.3613
 21
-52.0428
  0
LINE
  8
0
 10
-12.3613
 20
-52.0428
 11
-12.2774
 21
-52.0855
  0
LINE
  8
0
 10
-12.2774
 20
-52.0855
 11
-12.1963
 21
-52.1335
  0
LINE
  8
0
 10
-12.1963
 20
-52.1335
 11
-12.1183
 21
-52.1865
  0
LINE
  8
0
 10
-12.1183
 20
-52.1865
 11
-12.0439
 21
-52.2442
  0
LINE
  8
0
 10
-12.0439
 20
-52.2442
 11
-11.9732
 21
-52.3065
  0
LINE
  8
0
 10
-11.9732
 20
-52.3065
 11
-11.9065
 21
-52.3732
  0
LINE
  8
0
 10
-11.9065
 20
-52.3732
 11
-11.8442
 21
-52.4439
  0
LINE
  8
0
 10
-11.8442
 20
-52.4439
 11
-11.7865
 21
-52.5183
  0
LINE
  8
0
 10
-11.7865
 20
-52.5183
 11
-11.7335
 21
-52.5963
  0
LINE
  8
0
 10
-11.7335
 20
-52.5963
 11
-11.6855
 21
-52.6774
  0
LINE
  8
0
 10
-11.6855
 20
-52.6774
 11
-11.6428
 21
-52.7613
  0
LINE
  8
0
 10
-11.6428
 20
-52.7613
 11
-11.6053
 21
-52.8478
  0
LINE
  8
0
 10
-11.6053
 20
-52.8478
 11
-11.5734
 21
-52.9365
  0
LINE
  8
0
 10
-11.5734
 20
-52.9365
 11
-11.5471
 21
-53.027
  0
LINE
  8
0
 10
-11.5471
 20
-53.027
 11
-11.5266
 21
-53.1189
  0
LINE
  8
0
 10
-11.5266
 20
-53.1189
 11
-11.5118
 21
-53.212
  0
LINE
  8
0
 10
-11.5118
 20
-53.212
 11
-11.503
 21
-53.3058
  0
LINE
  8
0
 10
-11.503
 20
-53.3058
 11
-11.5
 21
-53.4
  0
LINE
  8
0
 10
-11.5
 20
-53.4
 11
-11.503
 21
-53.4942
  0
LINE
  8
0
 10
-11.503
 20
-53.4942
 11
-11.5118
 21
-53.588
  0
LINE
  8
0
 10
-11.5118
 20
-53.588
 11
-11.5266
 21
-53.6811
  0
LINE
  8
0
 10
-11.5266
 20
-53.6811
 11
-11.5471
 21
-53.773
  0
LINE
  8
0
 10
-11.5471
 20
-53.773
 11
-11.5734
 21
-53.8635
  0
LINE
  8
0
 10
-11.5734
 20
-53.8635
 11
-11.6053
 21
-53.9522
  0
LINE
  8
0
 10
-11.6053
 20
-53.9522
 11
-11.6428
 21
-54.0387
  0
LINE
  8
0
 10
-11.6428
 20
-54.0387
 11
-11.6855
 21
-54.1226
  0
LINE
  8
0
 10
-11.6855
 20
-54.1226
 11
-11.7335
 21
-54.2037
  0
LINE
  8
0
 10
-11.7335
 20
-54.2037
 11
-11.7865
 21
-54.2817
  0
LINE
  8
0
 10
-11.7865
 20
-54.2817
 11
-11.8442
 21
-54.3561
  0
LINE
  8
0
 10
-11.8442
 20
-54.3561
 11
-11.9065
 21
-54.4268
  0
LINE
  8
0
 10
-11.9065
 20
-54.4268
 11
-11.9732
 21
-54.4935
  0
LINE
  8
0
 10
-11.9732
 20
-54.4935
 11
-12.0439
 21
-54.5558
  0
LINE
  8
0
 10
-12.0439
 20
-54.5558
 11
-12.1183
 21
-54.6135
  0
LINE
  8
0
 10
-12.1183
 20
-54.6135
 11
-12.1963
 21
-54.6665
  0
LINE
  8
0
 10
-12.1963
 20
-54.6665
 11
-12.2774
 21
-54.7145
  0
LINE
  8
0
 10
-12.2774
 20
-54.7145
 11
-12.3613
 21
-54.7572
  0
LINE
  8
0
 10
-12.3613
 20
-54.7572
 11
-12.4478
 21
-54.7947
  0
LINE
  8
0
 10
-12.4478
 20
-54.7947
 11
-12.5365
 21
-54.8266
  0
LINE
  8
0
 10
-12.5365
 20
-54.8266
 11
-12.627
 21
-54.8529
  0
LINE
  8
0
 10
-12.627
 20
-54.8529
 11
-12.7189
 21
-54.8734
  0
LINE
  8
0
 10
-12.7189
 20
-54.8734
 11
-12.812
 21
-54.8882
  0
LINE
  8
0
 10
-12.812
 20
-54.8882
 11
-12.9058
 21
-54.897
  0
LINE
  8
0
 10
-12.9058
 20
-54.897
 11
-13
 21
-54.9
  0
LINE
  8
0
 10
-13
 20
-54.9
 11
-13.0942
 21
-54.897
  0
LINE
  8
0
 10
-13.0942
 20
-54.897
 11
-13.188
 21
-54.8882
  0
LINE
  8
0
 10
-13.188
 20
-54.8882
 11
-13.2811
 21
-54.8734
  0
LINE
  8
0
 10
-13.2811
 20
-54.8734
 11
-13.373
 21
-54.8529
  0
LINE
  8
0
 10
-13.373
 20
-54.8529
 11
-13.4635
 21
-54.8266
  0
LINE
  8
0
 10
-13.4635
 20
-54.8266
 11
-13.5522
 21
-54.7947
  0
LINE
  8
0
 10
-13.5522
 20
-54.7947
 11
-13.6387
 21
-54.7572
  0
LINE
  8
0
 10
-13.6387
 20
-54.7572
 11
-13.7226
 21
-54.7145
  0
LINE
  8
0
 10
-13.7226
 20
-54.7145
 11
-13.8037
 21
-54.6665
  0
LINE
  8
0
 10
-13.8037
 20
-54.6665
 11
-13.8817
 21
-54.6135
  0
LINE
  8
0
 10
-13.8817
 20
-54.6135
 11
-13.9561
 21
-54.5558
  0
LINE
  8
0
 10
-13.9561
 20
-54.5558
 11
-14.0268
 21
-54.4935
  0
LINE
  8
0
 10
-14.0268
 20
-54.4935
 11
-14.0935
 21
-54.4268
  0
LINE
  8
0
 10
-14.0935
 20
-54.4268
 11
-14.1558
 21
-54.3561
  0
LINE
  8
0
 10
-14.1558
 20
-54.3561
 11
-14.2135
 21
-54.2817
  0
LINE
  8
0
 10
-14.2135
 20
-54.2817
 11
-14.2665
 21
-54.2037
  0
LINE
  8
0
 10
-14.2665
 20
-54.2037
 11
-14.3145
 21
-54.1226
  0
LINE
  8
0
 10
-14.3145
 20
-54.1226
 11
-14.3572
 21
-54.0387
  0
LINE
  8
0
 10
-14.3572
 20
-54.0387
 11
-14.3947
 21
-53.9522
  0
LINE
  8
0
 10
-14.3947
 20
-53.9522
 11
-14.4266
 21
-53.8635
  0
LINE
  8
0
 10
-14.4266
 20
-53.8635
 11
-14.4529
 21
-53.773
  0
LINE
  8
0
 10
-14.4529
 20
-53.773
 11
-14.4734
 21
-53.6811
  0
LINE
  8
0
 10
-14.4734
 20
-53.6811
 11
-14.4882
 21
-53.588
  0
LINE
  8
0
 10
-14.4882
 20
-53.588
 11
-14.497
 21
-53.4942
  0
LINE
  8
0
 10
-14.497
 20
-53.4942
 11
-14.5
 21
-53.4
  0
LINE
  8
0
 10
-14.5
 20
53.4
 11
-14.497
 21
53.4942
  0
LINE
  8
0
 10
-14.497
 20
53.4942
 11
-14.4882
 21
53.588
  0
LINE
  8
0
 10
-14.4882
 20
53.588
 11
-14.4734
 21
53.6811
  0
LINE
  8
0
 10
-14.4734
 20
53.6811
 11
-14.4529
 21
53.773
  0
LINE
  8
0
 10
-14.4529
 20
53.773
 11
-14.4266
 21
53.8635
  0
LINE
  8
0
 10
-14.4266
 20
53.8635
 11
-14.3947
 21
53.9522
  0
LINE
  8
0
 10
-14.3947
 20
53.9522
 11
-14.3572
 21
54.0387
  0
LINE
  8
0
 10
-14.3572
 20
54.0387
 11
-14.3145
 21
54.1226
  0
LINE
  8
0
 10
-14.3145
 20
54.1226
 11
-14.2665
 21
54.2037
  0
LINE
  8
0
 10
-14.2665
 20
54.2037
 11
-14.2135
 21
54.2817
  0
LINE
  8
0
 10
-14.2135
 20
54.2817
 11
-14.1558
 21
54.3561
  0
LINE
  8
0
 10
-14.1558
 20
54.3561
 11
-14.0935
 21
54.4268
  0
LINE
  8
0
 10
-14.0935
 20
54.4268
 11
-14.0268
 21
54.4935
  0
LINE
  8
0
 10
-14.0268
 20
54.4935
 11
-13.9561
 21
54.5558
  0
LINE
  8
0
 10
-13.9561
 20
54.5558
 11
-13.8817
 21
54.6135
  0
LINE
  8
0
 10
-13.8817
 20
54.6135
 11
-13.8037
 21
54.6665
  0
LINE
  8
0
 10
-13.8037
 20
54.6665
 11
-13.7226
 21
54.7145
  0
LINE
  8
0
 10
-13.7226
 20
54.7145
 11
-13.6387
 21
54.7572
  0
LINE
  8
0
 10
-13.6387
 20
54.7572
 11
-13.5522
 21
54.7947
  0
LINE
  8
0
 10
-13.5522
 20
54.7947
 11
-13.4635
 21
54.8266
  0
LINE
  8
0
 10
-13.4635
 20
54.8266
 11
-13.373
 21
54.8529
  0
LINE
  8
0
 10
-13.373
 20
54.8529
 11
-13.2811
 21
54.8734
  0
LINE
  8
0
 10
-13.2811
 20
54.8734
 11
-13.188
 21
54.8882
  0
LINE
  8
0
 10
-13.188
 20
54.8882
 11
-13.0942
 21
54.897
  0
LINE
  8
0
 10
-13.0942
 20
54.897
 11
-13
 21
54.9
  0
LINE
  8
0
 10
-13
 20
54.9
 11
-12.9058
 21
54.897
  0
LINE
  8
0
 10
-12.9058
 20
54.897
 11
-12.812
 21
54.8882
  0
LINE
  8
0
 10
-12.812
 20
54.8882
 11
-12.7189
 21
54.8734
  0
LINE
  8
0
 10
-12.7189
 20
54.8734
 11
-12.627
 21
54.8529
  0
LINE
  8
0
 10
-12.627
 20
54.8529
 11
-12.5365
 21
54.8266
  0
LINE
  8
0
 10
-12.5365
 20
54.8266
 11
-12.4478
 21
54.7947
  0
LINE
  8
0
 10
-12.4478
 20
54.7947
 11
-12.3613
 21
54.7572
  0
LINE
  8
0
 10
-12.3613
 20
54.7572
 11
-12.2774
 21
54.7145
  0
LINE
  8
0
 10
-12.2774
 20
54.7145
 11
-12.1963
 21
54.6665
  0
LINE
  8
0
 10
-12.1963
 20
54.6665
 11
-12.1183
 21
54.6135
  0
LINE
  8
0
 10
-12.1183
 20
54.6135
 11
-12.0439
 21
54.5558
  0
LINE
  8
0
 10
-12.0439
 20
54.5558
 11
-11.9732
 21
54.4935
  0
LINE
  8
0
 10
-11.9732
 20
54.4935
 11
-11.9065
 21
54.4268
  0
LINE
  8
0
 10
-11.9065
 20
54.4268
 11
-11.8442
 21
54.3561
  0
LINE
  8
0
 10
-11.8442
 20
54.3561
 11
-11.7865
 21
54.2817
  0
LINE
  8
0
 10
-11.7865
 20
54.2817
 11
-11.7335
 21
54.2037
  0
LINE
  8
0
 10
-11.7335
 20
54.2037
 11
-11.6855
 21
54.1226
  0
LINE
  8
0
 10
-11.6855
 20
54.1226
 11
-11.6428
 21
54.0387
  0
LINE
  8
0
 10
-11.6428
 20
54.0387
 11
-11.6053
 21
53.9522
  0
LINE
  8
0
 10
-11.6053
 20
53.9522
 11
-11.5734
 21
53.8635
  0
LINE
  8
0
 10
-11.5734
 20
53.8635
 11
-11.5471
 21
53.773
  0
LINE
  8
0
 10
-11.5471
 20
53.773
 11
-11.5266
 21
53.6811
  0
LINE
  8
0
 10
-11.5266
 20
53.6811
 11
-11.5118
 21
53.588
  0
LINE
  8
0
 10
-11.5118
 20
53.588
 11
-11.503
 21
53.4942
  0
LINE
  8
0
 10
-11.503
 20
53.4942
 11
-11.5
 21
53.4
  0
LINE
  8
0
 10
-11.5
 20
53.4
 11
-11.503
 21
53.3058
  0
LINE
  8
0
 10
-11.503
 20
53.3058
 11
-11.5118
 21
53.212
  0
LINE
  8
0
 10
-11.5118
 20
53.212
 11
-11.5266
 21
53.1189
  0
LINE
  8
0
 10
-11.5266
 20
53.1189
 11
-11.5471
 21
53.027
  0
LINE
  8
0
 10
-11.5471
 20
53.027
 11
-11.5734
 21
52.9365
  0
LINE
  8
0
 10
-11.5734
 20
52.9365
 11
-11.6053
 21
52.8478
  0
LINE
  8
0
 10
-11.6053
 20
52.8478
 11
-11.6428
 21
52.7613
  0
LINE
  8
0
 10
-11.6428
 20
52.7613
 11
-11.6855
 21
52.6774
  0
LINE
  8
0
 10
-11.6855
 20
52.6774
 11
-11.7335
 21
52.5963
  0
LINE
  8
0
 10
-11.7335
 20
52.5963
 11
-11.7865
 21
52.5183
  0
LINE
  8
0
 10
-11.7865
 20
52.5183
 11
-11.8442
 21
52.4439
  0
LINE
  8
0
 10
-11.8442
 20
52.4439
 11
-11.9065
 21
52.3732
  0
LINE
  8
0
 10
-11.9065
 20
52.3732
 11
-11.9732
 21
52.3065
  0
LINE
  8
0
 10
-11.9732
 20
52.3065
 11
-12.0439
 21
52.2442
  0
LINE
  8
0
 10
-12.0439
 20
52.2442
 11
-12.1183
 21
52.1865
  0
LINE
  8
0
 10
-12.1183
 20
52.1865
 11
-12.1963
 21
52.1335
  0
LINE
  8
0
 10
-12.1963
 20
52.1335
 11
-12.2774
 21
52.0855
  0
LINE
  8
0
 10
-12.2774
 20
52.0855
 11
-12.3613
 21
52.0428
  0
LINE
  8
0
 10
-12.3613
 20
52.0428
 11
-12.4478
 21
52.0053
  0
LINE
  8
0
 10
-12.4478
 20
52.0053
 11
-12.5365
 21
51.9734
  0
LINE
  8
0
 10
-12.5365
 20
51.9734
 11
-12.627
 21
51.9471
  0
LINE
  8
0
 10
-12.627
 20
51.9471
 11
-12.7189
 21
51.9266
  0
LINE
  8
0
 10
-12.7189
 20
51.9266
 11
-12.812
 21
51.9118
  0
LINE
  8
0
 10
-12.812
 20
51.9118
 11
-12.9058
 21
51.903
  0
LINE
  8
0
 10
-12.9058
 20
51.903
 11
-13
 21
51.9
  0
LINE
  8
0
 10
-13
 20
51.9
 11
-13.0942
 21
51.903
  0
LINE
  8
0
 10
-13.0942
 20
51.903
 11
-13.188
 21
51.9118
  0
LINE
  8
0
 10
-13.188
 20
51.9118
 11
-13.2811
 21
51.9266
  0
LINE
  8
0
 10
-13.2811
 20
51.9266
 11
-13.373
 21
51.9471
  0
LINE
  8
0
 10
-13.373
 20
51.9471
 11
-13.4635
 21
51.9734
  0
LINE
  8
0
 10
-13.4635
 20
51.9734
 11
-13.5522
 21
52.0053
  0
LINE
  8
0
 10
-13.5522
 20
52.0053
 11
-13.6387
 21
52.0428
  0
LINE
  8
0
 10
-13.6387
 20
52.0428
 11
-13.7226
 21
52.0855
  0
LINE
  8
0
 10
-13.7226
 20
52.0855
 11
-13.8037
 21
52.1335
  0
LINE
  8
0
 10
-13.8037
 20
52.1335
 11
-13.8817
 21
52.1865
  0
LINE
  8
0
 10
-13.8817
 20
52.1865
 11
-13.9561
 21
52.2442
  0
LINE
  8
0
 10
-13.9561
 20
52.2442
 11
-14.0268
 21
52.3065
  0
LINE
  8
0
 10
-14.0268
 20
52.3065
 11
-14.0935
 21
52.3732
  0
LINE
  8
0
 10
-14.0935
 20
52.3732
 11
-14.1558
 21
52.4439
  0
LINE
  8
0
 10
-14.1558
 20
52.4439
 11
-14.2135
 21
52.5183
  0
LINE
  8
0
 10
-14.2135
 20
52.5183
 11
-14.2665
 21
52.5963
  0
LINE
  8
0
 10
-14.2665
 20
52.5963
 11
-14.3145
 21
52.6774
  0
LINE
  8
0
 10
-14.3145
 20
52.6774
 11
-14.3572
 21
52.7613
  0
LINE
  8
0
 10
-14.3572
 20
52.7613
 11
-14.3947
 21
52.8478
  0
LINE
  8
0
 10
-14.3947
 20
52.8478
 11
-14.4266
 21
52.9365
  0
LINE
  8
0
 10
-14.4266
 20
52.9365
 11
-14.4529
 21
53.027
  0
LINE
  8
0
 10
-14.4529
 20
53.027
 11
-14.4734
 21
53.1189
  0
LINE
  8
0
 10
-14.4734
 20
53.1189
 11
-14.4882
 21
53.212
  0
LINE
  8
0
 10
-14.4882
 20
53.212
 11
-14.497
 21
53.3058
  0
LINE
  8
0
 10
-14.497
 20
53.3058
 11
-14.5
 21
53.4
  0
LINE
  8
0
 10
11.5
 20
-53.4
 11
11.503
 21
-53.3058
  0
LINE
  8
0
 10
11.503
 20
-53.3058
 11
11.5118
 21
-53.212
  0
LINE
  8
0
 10
11.5118
 20
-53.212
 11
11.5266
 21
-53.1189
  0
LINE
  8
0
 10
11.5266
 20
-53.1189
 11
11.5471
 21
-53.027
  0
LINE
  8
0
 10
11.5471
 20
-53.027
 11
11.5734
 21
-52.9365
  0
LINE
  8
0
 10
11.5734
 20
-52.9365
 11
11.6053
 21
-52.8478
  0
LINE
  8
0
 10
11.6053
 20
-52.8478
 11
11.6428
 21
-52.7613
  0
LINE
  8
0
 10
11.6428
 20
-52.7613
 11
11.6855
 21
-52.6774
  0
LINE
  8
0
 10
11.6855
 20
-52.6774
 11
11.7335
 21
-52.5963
  0
LINE
  8
0
 10
11.7335
 20
-52.5963
 11
11.7865
 21
-52.5183
  0
LINE
  8
0
 10
11.7865
 20
-52.5183
 11
11.8442
 21
-52.4439
  0
LINE
  8
0
 10
11.8442
 20
-52.4439
 11
11.9065
 21
-52.3732
  0
LINE
  8
0
 10
11.9065
 20
-52.3732
 11
11.9732
 21
-52.3065
  0
LINE
  8
0
 10
11.9732
 20
-52.3065
 11
12.0439
 21
-52.2442
  0
LINE
  8
0
 10
12.0439
 20
-52.2442
 11
12.1183
 21
-52.1865
  0
LINE
  8
0
 10
12.1183
 20
-52.1865
 11
12.1963
 21
-52.1335
  0
LINE
  8
0
 10
12.1963
 20
-52.1335
 11
12.2774
 21
-52.0855
  0
LINE
  8
0
 10
12.2774
 20
-52.0855
 11
12.3613
 21
-52.0428
  0
LINE
  8
0
 10
12.3613
 20
-52.0428
 11
12.4478
 21
-52.0053
  0
LINE
  8
0
 10
12.4478
 20
-52.0053
 11
12.5365
 21
-51.9734
  0
LINE
  8
0
 10
12.5365
 20
-51.9734
 11
12.627
 21
-51.9471
  0
LINE
  8
0
 10
12.627
 20
-51.9471
 11
12.7189
 21
-51.9266
  0
LINE
  8
0
 10
12.7189
 20
-51.9266
 11
12.812
 21
-51.9118
  0
LINE
  8
0
 10
12.812
 20
-51.9118
 11
12.9058
 21
-51.903
  0
LINE
  8
0
 10
12.9058
 20
-51.903
 11
13
 21
-51.9
  0
LINE
  8
0
 10
13
 20
-51.9
 11
13.0942
 21
-51.903
  0
LINE
  8
0
 10
13.0942
 20
-51.903
 11
13.188
 21
-51.9118
  0
LINE
  8
0
 10
13.188
 20
-51.9118
 11
13.2811
 21
-51.9266
  0
LINE
  8
0
 10
13.2811
 20
-51.9266
 11
13.373
 21
-51.9471
  0
LINE
  8
0
 10
13.373
 20
-51.9471
 11
13.4635
 21
-51.9734
  0
LINE
  8
0
 10
13.4635
 20
-51.9734
 11
13.5522
 21
-52.0053
  0
LINE
  8
0
 10
13.5522
 20
-52.0053
 11
13.6387
 21
-52.0428
  0
LINE
  8
0
 10
13.6387
 20
-52.0428
 11
13.7226
 21
-52.0855
  0
LINE
  8
0
 10
13.7226
 20
-52.0855
 11
13.8037
 21
-52.1335
  0
LINE
  8
0
 10
13.8037
 20
-52.1335
 11
13.8817
 21
-52.1865
  0
LINE
  8
0
 10
13.8817
 20
-52.1865
 11
13.9561
 21
-52.2442
  0
LINE
  8
0
 10
13.9561
 20
-52.2442
 11
14.0268
 21
-52.3065
  0
LINE
  8
0
 10
14.0268
 20
-52.3065
 11
14.0935
 21
-52.3732
  0
LINE
  8
0
 10
14.0935
 20
-52.3732
 11
14.1558
 21
-52.4439
  0
LINE
  8
0
 10
14.1558
 20
-52.4439
 11
14.2135
 21
-52.5183
  0
LINE
  8
0
 10
14.2135
 20
-52.5183
 11
14.2665
 21
-52.5963
  0
LINE
  8
0
 10
14.2665
 20
-52.5963
 11
14.3145
 21
-52.6774
  0
LINE
  8
0
 10
14.3145
 20
-52.6774
 11
14.3572
 21
-52.7613
  0
LINE
  8
0
 10
14.3572
 20
-52.7613
 11
14.3947
 21
-52.8478
  0
LINE
  8
0
 10
14.3947
 20
-52.8478
 11
14.4266
 21
-52.9365
  0
LINE
  8
0
 10
14.4266
 20
-52.9365
 11
14.4529
 21
-53.027
  0
LINE
  8
0
 10
14.4529
 20
-53.027
 11
14.4734
 21
-53.1189
  0
LINE
  8
0
 10
14.4734
 20
-53.1189
 11
14.4882
 21
-53.212
  0
LINE
  8
0
 10
14.4882
 20
-53.212
 11
14.497
 21
-53.3058
  0
LINE
  8
0
 10
14.497
 20
-53.3058
 11
14.5
 21
-53.4
  0
LINE
  8
0
 10
14.5
 20
-53.4
 11
14.497
 21
-53.4942
  0
LINE
  8
0
 10
14.497
 20
-53.4942
 11
14.4882
 21
-53.588
  0
LINE
  8
0
 10
14.4882
 20
-53.588
 11
14.4734
 21
-53.6811
  0
LINE
  8
0
 10
14.4734
 20
-53.6811
 11
14.4529
 21
-53.773
  0
LINE
  8
0
 10
14.4529
 20
-53.773
 11
14.4266
 21
-53.8635
  0
LINE
  8
0
 10
14.4266
 20
-53.8635
 11
14.3947
 21
-53.9522
  0
LINE
  8
0
 10
14.3947
 20
-53.9522
 11
14.3572
 21
-54.0387
  0
LINE
  8
0
 10
14.3572
 20
-54.0387
 11
14.3145
 21
-54.1226
  0
LINE
  8
0
 10
14.3145
 20
-54.1226
 11
14.2665
 21
-54.2037
  0
LINE
  8
0
 10
14.2665
 20
-54.2037
 11
14.2135
 21
-54.2817
  0
LINE
  8
0
 10
14.2135
 20
-54.2817
 11
14.1558
 21
-54.3561
  0
LINE
  8
0
 10
14.1558
 20
-54.3561
 11
14.0935
 21
-54.4268
  0
LINE
  8
0
 10
14.0935
 20
-54.4268
 11
14.0268
 21
-54.4935
  0
LINE
  8
0
 10
14.0268
 20
-54.4935
 11
13.9561
 21
-54.5558
  0
LINE
  8
0
 10
13.9561
 20
-54.5558
 11
13.8817
 21
-54.6135
  0
LINE
  8
0
 10
13.8817
 20
-54.6135
 11
13.8037
 21
-54.6665
  0
LINE
  8
0
 10
13.8037
 20
-54.6665
 11
13.7226
 21
-54.7145
  0
LINE
  8
0
 10
13.7226
 20
-54.7145
 11
13.6387
 21
-54.7572
  0
LINE
  8
0
 10
13.6387
 20
-54.7572
 11
13.5522
 21
-54.7947
  0
LINE
  8
0
 10
13.5522
 20
-54.7947
 11
13.4635
 21
-54.8266
  0
LINE
  8
0
 10
13.4635
 20
-54.8266
 11
13.373
 21
-54.8529
  0
LINE
  8
0
 10
13.373
 20
-54.8529
 11
13.2811
 21
-54.8734
  0
LINE
  8
0
 10
13.2811
 20
-54.8734
 11
13.188
 21
-54.8882
  0
LINE
  8
0
 10
13.188
 20
-54.8882
 11
13.0942
 21
-54.897
  0
LINE
  8
0
 10
13.0942
 20
-54.897
 11
13
 21
-54.9
  0
LINE
  8
0
 10
13
 20
-54.9
 11
12.9058
 21
-54.897
  0
LINE
  8
0
 10
12.9058
 20
-54.897
 11
12.812
 21
-54.8882
  0
LINE
  8
0
 10
12.812
 20
-54.8882
 11
12.7189
 21
-54.8734
  0
LINE
  8
0
 10
12.7189
 20
-54.8734
 11
12.627
 21
-54.8529
  0
LINE
  8
0
 10
12.627
 20
-54.8529
 11
12.5365
 21
-54.8266
  0
LINE
  8
0
 10
12.5365
 20
-54.8266
 11
12.4478
 21
-54.7947
  0
LINE
  8
0
 10
12.4478
 20
-54.7947
 11
12.3613
 21
-54.7572
  0
LINE
  8
0
 10
12.3613
 20
-54.7572
 11
12.2774
 21
-54.7145
  0
LINE
  8
0
 10
12.2774
 20
-54.7145
 11
12.1963
 21
-54.6665
  0
LINE
  8
0
 10
12.1963
 20
-54.6665
 11
12.1183
 21
-54.6135
  0
LINE
  8
0
 10
12.1183
 20
-54.6135
 11
12.0439
 21
-54.5558
  0
LINE
  8
0
 10
12.0439
 20
-54.5558
 11
11.9732
 21
-54.4935
  0
LINE
  8
0
 10
11.9732
 20
-54.4935
 11
11.9065
 21
-54.4268
  0
LINE
  8
0
 10
11.9065
 20
-54.4268
 11
11.8442
 21
-54.3561
  0
LINE
  8
0
 10
11.8442
 20
-54.3561
 11
11.7865
 21
-54.2817
  0
LINE
  8
0
 10
11.7865
 20
-54.2817
 11
11.7335
 21
-54.2037
  0
LINE
  8
0
 10
11.7335
 20
-54.2037
 11
11.6855
 21
-54.1226
  0
LINE
  8
0
 10
11.6855
 20
-54.1226
 11
11.6428
 21
-54.0387
  0
LINE
  8
0
 10
11.6428
 20
-54.0387
 11
11.6053
 21
-53.9522
  0
LINE
  8
0
 10
11.6053
 20
-53.9522
 11
11.5734
 21
-53.8635
  0
LINE
  8
0
 10
11.5734
 20
-53.8635
 11
11.5471
 21
-53.773
  0
LINE
  8
0
 10
11.5471
 20
-53.773
 11
11.5266
 21
-53.6811
  0
LINE
  8
0
 10
11.5266
 20
-53.6811
 11
11.5118
 21
-53.588
  0
LINE
  8
0
 10
11.5118
 20
-53.588
 11
11.503
 21
-53.4942
  0
LINE
  8
0
 10
11.503
 20
-53.4942
 11
11.5
 21
-53.4
  0
LINE
  8
0
 10
11.5
 20
53.4
 11
11.503
 21
53.4942
  0
LINE
  8
0
 10
11.503
 20
53.4942
 11
11.5118
 21
53.588
  0
LINE
  8
0
 10
11.5118
 20
53.588
 11
11.5266
 21
53.6811
  0
LINE
  8
0
 10
11.5266
 20
53.6811
 11
11.5471
 21
53.773
  0
LINE
  8
0
 10
11.5471
 20
53.773
 11
11.5734
 21
53.8635
  0
LINE
  8
0
 10
11.5734
 20
53.8635
 11
11.6053
 21
53.9522
  0
LINE
  8
0
 10
11.6053
 20
53.9522
 11
11.6428
 21
54.0387
  0
LINE
  8
0
 10
11.6428
 20
54.0387
 11
11.6855
 21
54.1226
  0
LINE
  8
0
 10
11.6855
 20
54.1226
 11
11.7335
 21
54.2037
  0
LINE
  8
0
 10
11.7335
 20
54.2037
 11
11.7865
 21
54.2817
  0
LINE
  8
0
 10
11.7865
 20
54.2817
 11
11.8442
 21
54.3561
  0
LINE
  8
0
 10
11.8442
 20
54.3561
 11
11.9065
 21
54.4268
  0
LINE
  8
0
 10
11.9065
 20
54.4268
 11
11.9732
 21
54.4935
  0
LINE
  8
0
 10
11.9732
 20
54.4935
 11
12.0439
 21
54.5558
  0
LINE
  8
0
 10
12.0439
 20
54.5558
 11
12.1183
 21
54.6135
  0
LINE
  8
0
 10
12.1183
 20
54.6135
 11
12.1963
 21
54.6665
  0
LINE
  8
0
 10
12.1963
 20
54.6665
 11
12.2774
 21
54.7145
  0
LINE
  8
0
 10
12.2774
 20
54.7145
 11
12.3613
 21
54.7572
  0
LINE
  8
0
 10
12.3613
 20
54.7572
 11
12.4478
 21
54.7947
  0
LINE
  8
0
 10
12.4478
 20
54.7947
 11
12.5365
 21
54.8266
  0
LINE
  8
0
 10
12.5365
 20
54.8266
 11
12.627
 21
54.8529
  0
LINE
  8
0
 10
12.627
 20
54.8529
 11
12.7189
 21
54.8734
  0
LINE
  8
0
 10
12.7189
 20
54.8734
 11
12.812
 21
54.8882
  0
LINE
  8
0
 10
12.812
 20
54.8882
 11
12.9058
 21
54.897
  0
LINE
  8
0
 10
12.9058
 20
54.897
 11
13
 21
54.9
  0
LINE
  8
0
 10
13
 20
54.9
 11
13.0942
 21
54.897
  0
LINE
  8
0
 10
13.0942
 20
54.897
 11
13.188
 21
54.8882
  0
LINE
  8
0
 10
13.188
 20
54.8882
 11
13.2811
 21
54.8734
  0
LINE
  8
0
 10
13.2811
 20
54.8734
 11
13.373
 21
54.8529
  0
LINE
  8
0
 10
13.373
 20
54.8529
 11
13.4635
 21
54.8266
  0
LINE
  8
0
 10
13.4635
 20
54.8266
 11
13.5522
 21
54.7947
  0
LINE
  8
0
 10
13.5522
 20
54.7947
 11
13.6387
 21
54.7572
  0
LINE
  8
0
 10
13.6387
 20
54.7572
 11
13.7226
 21
54.7145
  0
LINE
  8
0
 10
13.7226
 20
54.7145
 11
13.8037
 21
54.6665
  0
LINE
  8
0
 10
13.8037
 20
54.6665
 11
13.8817
 21
54.6135
  0
LINE
  8
0
 10
13.8817
 20
54.6135
 11
13.9561
 21
54.5558
  0
LINE
  8
0
 10
13.9561
 20
54.5558
 11
14.0268
 21
54.4935
  0
LINE
  8
0
 10
14.0268
 20
54.4935
 11
14.0935
 21
54.4268
  0
LINE
  8
0
 10
14.0935
 20
54.4268
 11
14.1558
 21
54.3561
  0
LINE
  8
0
 10
14.1558
 20
54.3561
 11
14.2135
 21
54.2817
  0
LINE
  8
0
 10
14.2135
 20
54.2817
 11
14.2665
 21
54.2037
  0
LINE
  8
0
 10
14.2665
 20
54.2037
 11
14.3145
 21
54.1226
  0
LINE
  8
0
 10
14.3145
 20
54.1226
 11
14.3572
 21
54.0387
  0
LINE
  8
0
 10
14.3572
 20
54.0387
 11
14.3947
 21
53.9522
  0
LINE
  8
0
 10
14.3947
 20
53.9522
 11
14.4266
 21
53.8635
  0
LINE
  8
0
 10
14.4266
 20
53.8635
 11
14.4529
 21
53.773
  0
LINE
  8
0
 10
14.4529
 20
53.773
 11
14.4734
 21
53.6811
  0
LINE
  8
0
 10
14.4734
 20
53.6811
 11
14.4882
 21
53.588
  0
LINE
  8
0
 10
14.4882
 20
53.588
 11
14.497
 21
53.4942
  0
LINE
  8
0
 10
14.497
 20
53.4942
 11
14.5
 21
53.4
  0
LINE
  8
0
 10
14.5
 20
53.4
 11
14.497
 21
53.3058
  0
LINE
  8
0
 10
14.497
 20
53.3058
 11
14.4882
 21
53.212
  0
LINE
  8
0
 10
14.4882
 20
53.212
 11
14.4734
 21
53.1189
  0
LINE
  8
0
 10
14.4734
 20
53.1189
 11
14.4529
 21
53.027
  0
LINE
  8
0
 10
14.4529
 20
53.027
 11
14.4266
 21
52.9365
  0
LINE
  8
0
 10
14.4266
 20
52.9365
 11
14.3947
 21
52.8478
  0
LINE
  8
0
 10
14.3947
 20
52.8478
 11
14.3572
 21
52.7613
  0
LINE
  8
0
 10
14.3572
 20
52.7613
 11
14.3145
 21
52.6774
  0
LINE
  8
0
 10
14.3145
 20
52.6774
 11
14.2665
 21
52.5963
  0
LINE
  8
0
 10
14.2665
 20
52.5963
 11
14.2135
 21
52.5183
  0
LINE
  8
0
 10
14.2135
 20
52.5183
 11
14.1558
 21
52.4439
  0
LINE
  8
0
 10
14.1558
 20
52.4439
 11
14.0935
 21
52.3732
  0
LINE
  8
0
 10
14.0935
 20
52.3732
 11
14.0268
 21
52.3065
  0
LINE
  8
0
 10
14.0268
 20
52.3065
 11
13.9561
 21
52.2442
  0
LINE
  8
0
 10
13.9561
 20
52.2442
 11
13.8817
 21
52.1865
  0
LINE
  8
0
 10
13.8817
 20
52.1865
 11
13.8037
 21
52.1335
  0
LINE
  8
0
 10
13.8037
 20
52.1335
 11
13.7226
 21
52.0855
  0
LINE
  8
0
 10
13.7226
 20
52.0855
 11
13.6387
 21
52.0428
  0
LINE
  8
0
 10
13.6387
 20
52.0428
 11
13.5522
 21
52.0053
  0
LINE
  8
0
 10
13.5522
 20
52.0053
 11
13.4635
 21
51.9734
  0
LINE
  8
0
 10
13.4635
 20
51.9734
 11
13.373
 21
51.9471
  0
LINE
  8
0
 10
13.373
 20
51.9471
 11
13.2811
 21
51.9266
  0
LINE
  8
0
 10
13.2811
 20
51.9266
 11
13.188
 21
51.9118
  0
LINE
  8
0
 10
13.188
 20
51.9118
 11
13.0942
 21
51.903
  0
LINE
  8
0
 10
13.0942
 20
51.903
 11
13
 21
51.9
  0
LINE
  8
0
 10
13
 20
51.9
 11
12.9058
 21
51.903
  0
LINE
  8
0
 10
12.9058
 20
51.903
 11
12.812
 21
51.9118
  0
LINE
  8
0
 10
12.812
 20
51.9118
 11
12.7189
 21
51.9266
  0
LINE
  8
0
 10
12.7189
 20
51.9266
 11
12.627
 21
51.9471
  0
LINE
  8
0
 10
12.627
 20
51.9471
 11
12.5365
 21
51.9734
  0
LINE
  8
0
 10
12.5365
 20
51.9734
 11
12.4478
 21
52.0053
  0
LINE
  8
0
 10
12.4478
 20
52.0053
 11
12.3613
 21
52.0428
  0
LINE
  8
0
 10
12.3613
 20
52.0428
 11
12.2774
 21
52.0855
  0
LINE
  8
0
 10
12.2774
 20
52.0855
 11
12.1963
 21
52.1335
  0
LINE
  8
0
 10
12.1963
 20
52.1335
 11
12.1183
 21
52.1865
  0
LINE
  8
0
 10
12.1183
 20
52.1865
 11
12.0439
 21
52.2442
  0
LINE
  8
0
 10
12.0439
 20
52.2442
 11
11.9732
 21
52.3065
  0
LINE
  8
0
 10
11.9732
 20
52.3065
 11
11.9065
 21
52.3732
  0
LINE
  8
0
 10
11.9065
 20
52.3732
 11
11.8442
 21
52.4439
  0
LINE
  8
0
 10
11.8442
 20
52.4439
 11
11.7865
 21
52.5183
  0
LINE
  8
0
 10
11.7865
 20
52.5183
 11
11.7335
 21
52.5963
  0
LINE
  8
0
 10
11.7335
 20
52.5963
 11
11.6855
 21
52.6774
  0
LINE
  8
0
 10
11.6855
 20
52.6774
 11
11.6428
 21
52.7613
  0
LINE
  8
0
 10
11.6428
 20
52.7613
 11
11.6053
 21
52.8478
  0
LINE
  8
0
 10
11.6053
 20
52.8478
 11
11.5734
 21
52.9365
  0
LINE
  8
0
 10
11.5734
 20
52.9365
 11
11.5471
 21
53.027
  0
LINE
  8
0
 10
11.5471
 20
53.027
 11
11.5266
 21
53.1189
  0
LINE
  8
0
 10
11.5266
 20
53.1189
 11
11.5118
 21
53.212
  0
LINE
  8
0
 10
11.5118
 20
53.212
 11
11.503
 21
53.3058
  0
LINE
  8
0
 10
11.503
 20
53.3058
 11
11.5
 21
53.4
  0
LINE
  8
0
 10
31.5
 20
-53.4
 11
31.503
 21
-53.3058
  0
LINE
  8
0
 10
31.503
 20
-53.3058
 11
31.5118
 21
-53.212
  0
LINE
  8
0
 10
31.5118
 20
-53.212
 11
31.5266
 21
-53.1189
  0
LINE
  8
0
 10
31.5266
 20
-53.1189
 11
31.5471
 21
-53.027
  0
LINE
  8
0
 10
31.5471
 20
-53.027
 11
31.5734
 21
-52.9365
  0
LINE
  8
0
 10
31.5734
 20
-52.9365
 11
31.6053
 21
-52.8478
  0
LINE
  8
0
 10
31.6053
 20
-52.8478
 11
31.6428
 21
-52.7613
  0
LINE
  8
0
 10
31.6428
 20
-52.7613
 11
31.6855
 21
-52.6774
  0
LINE
  8
0
 10
31.6855
 20
-52.6774
 11
31.7335
 21
-52.5963
  0
LINE
  8
0
 10
31.7335
 20
-52.5963
 11
31.7865
 21
-52.5183
  0
LINE
  8
0
 10
31.7865
 20
-52.5183
 11
31.8442
 21
-52.4439
  0
LINE
  8
0
 10
31.8442
 20
-52.4439
 11
31.9065
 21
-52.3732
  0
LINE
  8
0
 10
31.9065
 20
-52.3732
 11
31.9732
 21
-52.3065
  0
LINE
  8
0
 10
31.9732
 20
-52.3065
 11
32.0439
 21
-52.2442
  0
LINE
  8
0
 10
32.0439
 20
-52.2442
 11
32.1183
 21
-52.1865
  0
LINE
  8
0
 10
32.1183
 20
-52.1865
 11
32.1963
 21
-52.1335
  0
LINE
  8
0
 10
32.1963
 20
-52.1335
 11
32.2774
 21
-52.0855
  0
LINE
  8
0
 10
32.2774
 20
-52.0855
 11
32.3613
 21
-52.0428
  0
LINE
  8
0
 10
32.3613
 20
-52.0428
 11
32.4478
 21
-52.0053
  0
LINE
  8
0
 10
32.4478
 20
-52.0053
 11
32.5365
 21
-51.9734
  0
LINE
  8
0
 10
32.5365
 20
-51.9734
 11
32.627
 21
-51.9471
  0
LINE
  8
0
 10
32.627
 20
-51.9471
 11
32.7189
 21
-51.9266
  0
LINE
  8
0
 10
32.7189
 20
-51.9266
 11
32.812
 21
-51.9118
  0
LINE
  8
0
 10
32.812
 20
-51.9118
 11
32.9058
 21
-51.903
  0
LINE
  8
0
 10
32.9058
 20
-51.903
 11
33
 21
-51.9
  0
LINE
  8
0
 10
33
 20
-51.9
 11
33.0942
 21
-51.903
  0
LINE
  8
0
 10
33.0942
 20
-51.903
 11
33.188
 21
-51.9118
  0
LINE
  8
0
 10
33.188
 20
-51.9118
 11
33.2811
 21
-51.9266
  0
LINE
  8
0
 10
33.2811
 20
-51.9266
 11
33.373
 21
-51.9471
  0
LINE
  8
0
 10
33.373
 20
-51.9471
 11
33.4635
 21
-51.9734
  0
LINE
  8
0
 10
33.4635
 20
-51.9734
 11
33.5522
 21
-52.0053
  0
LINE
  8
0
 10
33.5522
 20
-52.0053
 11
33.6387
 21
-52.0428
  0
LINE
  8
0
 10
33.6387
 20
-52.0428
 11
33.7226
 21
-52.0855
  0
LINE
  8
0
 10
33.7226
 20
-52.0855
 11
33.8037
 21
-52.1335
  0
LINE
  8
0
 10
33.8037
 20
-52.1335
 11
33.8817
 21
-52.1865
  0
LINE
  8
0
 10
33.8817
 20
-52.1865
 11
33.9561
 21
-52.2442
  0
LINE
  8
0
 10
33.9561
 20
-52.2442
 11
34.0268
 21
-52.3065
  0
LINE
  8
0
 10
34.0268
 20
-52.3065
 11
34.0935
 21
-52.3732
  0
LINE
  8
0
 10
34.0935
 20
-52.3732
 11
34.1558
 21
-52.4439
  0
LINE
  8
0
 10
34.1558
 20
-52.4439
 11
34.2135
 21
-52.5183
  0
LINE
  8
0
 10
34.2135
 20
-52.5183
 11
34.2665
 21
-52.5963
  0
LINE
  8
0
 10
34.2665
 20
-52.5963
 11
34.3145
 21
-52.6774
  0
LINE
  8
0
 10
34.3145
 20
-52.6774
 11
34.3572
 21
-52.7613
  0
LINE
  8
0
 10
34.3572
 20
-52.7613
 11
34.3947
 21
-52.8478
  0
LINE
  8
0
 10
34.3947
 20
-52.8478
 11
34.4266
 21
-52.9365
  0
LINE
  8
0
 10
34.4266
 20
-52.9365
 11
34.4529
 21
-53.027
  0
LINE
  8
0
 10
34.4529
 20
-53.027
 11
34.4734
 21
-53.1189
  0
LINE
  8
0
 10
34.4734
 20
-53.1189
 11
34.4882
 21
-53.212
  0
LINE
  8
0
 10
34.4882
 20
-53.212
 11
34.497
 21
-53.3058
  0
LINE
  8
0
 10
34.497
 20
-53.3058
 11
34.5
 21
-53.4
  0
LINE
  8
0
 10
34.5
 20
-53.4
 11
34.497
 21
-53.4942
  0
LINE
  8
0
 10
34.497
 20
-53.4942
 11
34.4882
 21
-53.588
  0
LINE
  8
0
 10
34.4882
 20
-53.588
 11
34.4734
 21
-53.6811
  0
LINE
  8
0
 10
34.4734
 20
-53.6811
 11
34.4529
 21
-53.773
  0
LINE
  8
0
 10
34.4529
 20
-53.773
 11
34.4266
 21
-53.8635
  0
LINE
  8
0
 10
34.4266
 20
-53.8635
 11
34.3947
 21
-53.9522
  0
LINE
  8
0
 10
34.3947
 20
-53.9522
 11
34.3572
 21
-54.0387
  0
LINE
  8
0
 10
34.3572
 20
-54.0387
 11
34.3145
 21
-54.1226
  0
LINE
  8
0
 10
34.3145
 20
-54.1226
 11
34.2665
 21
-54.2037
  0
LINE
  8
0
 10
34.2665
 20
-54.2037
 11
34.2135
 21
-54.2817
  0
LINE
  8
0
 10
34.2135
 20
-54.2817
 11
34.1558
 21
-54.3561
  0
LINE
  8
0
 10
34.1558
 20
-54.3561
 11
34.0935
 21
-54.4268
  0
LINE
  8
0
 10
34.0935
 20
-54.4268
 11
34.0268
 21
-54.4935
  0
LINE
  8
0
 10
34.0268
 20
-54.4935
 11
33.9561
 21
-54.5558
  0
LINE
  8
0
 10
33.9561
 20
-54.5558
 11
33.8817
 21
-54.6135
  0
LINE
  8
0
 10
33.8817
 20
-54.6135
 11
33.8037
 21
-54.6665
  0
LINE
  8
0
 10
33.8037
 20
-54.6665
 11
33.7226
 21
-54.7145
  0
LINE
  8
0
 10
33.7226
 20
-54.7145
 11
33.6387
 21
-54.7572
  0
LINE
  8
0
 10
33.6387
 20
-54.7572
 11
33.5522
 21
-54.7947
  0
LINE
  8
0
 10
33.5522
 20
-54.7947
 11
33.4635
 21
-54.8266
  0
LINE
  8
0
 10
33.4635
 20
-54.8266
 11
33.373
 21
-54.8529
  0
LINE
  8
0
 10
33.373
 20
-54.8529
 11
33.2811
 21
-54.8734
  0
LINE
  8
0
 10
33.2811
 20
-54.8734
 11
33.188
 21
-54.8882
  0
LINE
  8
0
 10
33.188
 20
-54.8882
 11
33.0942
 21
-54.897
  0
LINE
  8
0
 10
33.0942
 20
-54.897
 11
33
 21
-54.9
  0
LINE
  8
0
 10
33
 20
-54.9
 11
32.9058
 21
-54.897
  0
LINE
  8
0
 10
32.9058
 20
-54.897
 11
32.812
 21
-54.8882
  0
LINE
  8
0
 10
32.812
 20
-54.8882
 11
32.7189
 21
-54.8734
  0
LINE
  8
0
 10
32.7189
 20
-54.8734
 11
32.627
 21
-54.8529
  0
LINE
  8
0
 10
32.627
 20
-54.8529
 11
32.5365
 21
-54.8266
  0
LINE
  8
0
 10
32.5365
 20
-54.8266
 11
32.4478
 21
-54.7947
  0
LINE
  8
0
 10
32.4478
 20
-54.7947
 11
32.3613
 21
-54.7572
  0
LINE
  8
0
 10
32.3613
 20
-54.7572
 11
32.2774
 21
-54.7145
  0
LINE
  8
0
 10
32.2774
 20
-54.7145
 11
32.1963
 21
-54.6665
  0
LINE
  8
0
 10
32.1963
 20
-54.6665
 11
32.1183
 21
-54.6135
  0
LINE
  8
0
 10
32.1183
 20
-54.6135
 11
32.0439
 21
-54.5558
  0
LINE
  8
0
 10
32.0439
 20
-54.5558
 11
31.9732
 21
-54.4935
  0
LINE
  8
0
 10
31.9732
 20
-54.4935
 11
31.9065
 21
-54.4268
  0
LINE
  8
0
 10
31.9065
 20
-54.4268
 11
31.8442
 21
-54.3561
  0
LINE
  8
0
 10
31.8442
 20
-54.3561
 11
31.7865
 21
-54.2817
  0
LINE
  8
0
 10
31.7865
 20
-54.2817
 11
31.7335
 21
-54.2037
  0
LINE
  8
0
 10
31.7335
 20
-54.2037
 11
31.6855
 21
-54.1226
  0
LINE
  8
0
 10
31.6855
 20
-54.1226
 11
31.6428
 21
-54.0387
  0
LINE
  8
0
 10
31.6428
 20
-54.0387
 11
31.6053
 21
-53.9522
  0
LINE
  8
0
 10
31.6053
 20
-53.9522
 11
31.5734
 21
-53.8635
  0
LINE
  8
0
 10
31.5734
 20
-53.8635
 11
31.5471
 21
-53.773
  0
LINE
  8
0
 10
31.5471
 20
-53.773
 11
31.5266
 21
-53.6811
  0
LINE
  8
0
 10
31.5266
 20
-53.6811
 11
31.5118
 21
-53.588
  0
LINE
  8
0
 10
31.5118
 20
-53.588
 11
31.503
 21
-53.4942
  0
LINE
  8
0
 10
31.503
 20
-53.4942
 11
31.5
 21
-53.4
  0
LINE
  8
0
 10
31.5
 20
53.4
 11
31.503
 21
53.4942
  0
LINE
  8
0
 10
31.503
 20
53.4942
 11
31.5118
 21
53.588
  0
LINE
  8
0
 10
31.5118
 20
53.588
 11
31.5266
 21
53.6811
  0
LINE
  8
0
 10
31.5266
 20
53.6811
 11
31.5471
 21
53.773
  0
LINE
  8
0
 10
31.5471
 20
53.773
 11
31.5734
 21
53.8635
  0
LINE
  8
0
 10
31.5734
 20
53.8635
 11
31.6053
 21
53.9522
  0
LINE
  8
0
 10
31.6053
 20
53.9522
 11
31.6428
 21
54.0387
  0
LINE
  8
0
 10
31.6428
 20
54.0387
 11
31.6855
 21
54.1226
  0
LINE
  8
0
 10
31.6855
 20
54.1226
 11
31.7335
 21
54.2037
  0
LINE
  8
0
 10
31.7335
 20
54.2037
 11
31.7865
 21
54.2817
  0
LINE
  8
0
 10
31.7865
 20
54.2817
 11
31.8442
 21
54.3561
  0
LINE
  8
0
 10
31.8442
 20
54.3561
 11
31.9065
 21
54.4268
  0
LINE
  8
0
 10
31.9065
 20
54.4268
 11
31.9732
 21
54.4935
  0
LINE
  8
0
 10
31.9732
 20
54.4935
 11
32.0439
 21
54.5558
  0
LINE
  8
0
 10
32.0439
 20
54.5558
 11
32.1183
 21
54.6135
  0
LINE
  8
0
 10
32.1183
 20
54.6135
 11
32.1963
 21
54.6665
  0
LINE
  8
0
 10
32.1963
 20
54.6665
 11
32.2774
 21
54.7145
  0
LINE
  8
0
 10
32.2774
 20
54.7145
 11
32.3613
 21
54.7572
  0
LINE
  8
0
 10
32.3613
 20
54.7572
 11
32.4478
 21
54.7947
  0
LINE
  8
0
 10
32.4478
 20
54.7947
 11
32.5365
 21
54.8266
  0
LINE
  8
0
 10
32.5365
 20
54.8266
 11
32.627
 21
54.8529
  0
LINE
  8
0
 10
32.627
 20
54.8529
 11
32.7189
 21
54.8734
  0
LINE
  8
0
 10
32.7189
 20
54.8734
 11
32.812
 21
54.8882
  0
LINE
  8
0
 10
32.812
 20
54.8882
 11
32.9058
 21
54.897
  0
LINE
  8
0
 10
32.9058
 20
54.897
 11
33
 21
54.9
  0
LINE
  8
0
 10
33
 20
54.9
 11
33.0942
 21
54.897
  0
LINE
  8
0
 10
33.0942
 20
54.897
 11
33.188
 21
54.8882
  0
LINE
  8
0
 10
33.188
 20
54.8882
 11
33.2811
 21
54.8734
  0
LINE
  8
0
 10
33.2811
 20
54.8734
 11
33.373
 21
54.8529
  0
LINE
  8
0
 10
33.373
 20
54.8529
 11
33.4635
 21
54.8266
  0
LINE
  8
0
 10
33.4635
 20
54.8266
 11
33.5522
 21
54.7947
  0
LINE
  8
0
 10
33.5522
 20
54.7947
 11
33.6387
 21
54.7572
  0
LINE
  8
0
 10
33.6387
 20
54.7572
 11
33.7226
 21
54.7145
  0
LINE
  8
0
 10
33.7226
 20
54.7145
 11
33.8037
 21
54.6665
  0
LINE
  8
0
 10
33.8037
 20
54.6665
 11
33.8817
 21
54.6135
  0
LINE
  8
0
 10
33.8817
 20
54.6135
 11
33.9561
 21
54.5558
  0
LINE
  8
0
 10
33.9561
 20
54.5558
 11
34.0268
 21
54.4935
  0
LINE
  8
0
 10
34.0268
 20
54.4935
 11
34.0935
 21
54.4268
  0
LINE
  8
0
 10
34.0935
 20
54.4268
 11
34.1558
 21
54.3561
  0
LINE
  8
0
 10
34.1558
 20
54.3561
 11
34.2135
 21
54.2817
  0
LINE
  8
0
 10
34.2135
 20
54.2817
 11
34.2665
 21
54.2037
  0
LINE
  8
0
 10
34.2665
 20
54.2037
 11
34.3145
 21
54.1226
  0
LINE
  8
0
 10
34.3145
 20
54.1226
 11
34.3572
 21
54.0387
  0
LINE
  8
0
 10
34.3572
 20
54.0387
 11
34.3947
 21
53.9522
  0
LINE
  8
0
 10
34.3947
 20
53.9522
 11
34.4266
 21
53.8635
  0
LINE
  8
0
 10
34.4266
 20
53.8635
 11
34.4529
 21
53.773
  0
LINE
  8
0
 10
34.4529
 20
53.773
 11
34.4734
 21
53.6811
  0
LINE
  8
0
 10
34.4734
 20
53.6811
 11
34.4882
 21
53.588
  0
LINE
  8
0
 10
34.4882
 20
53.588
 11
34.497
 21
53.4942
  0
LINE
  8
0
 10
34.497
 20
53.4942
 11
34.5
 21
53.4
  0
LINE
  8
0
 10
34.5
 20
53.4
 11
34.497
 21
53.3058
  0
LINE
  8
0
 10
34.497
 20
53.3058
 11
34.4882
 21
53.212
  0
LINE
  8
0
 10
34.4882
 20
53.212
 11
34.4734
 21
53.1189
  0
LINE
  8
0
 10
34.4734
 20
53.1189
 11
34.4529
 21
53.027
  0
LINE
  8
0
 10
34.4529
 20
53.027
 11
34.4266
 21
52.9365
  0
LINE
  8
0
 10
34.4266
 20
52.9365
 11
34.3947
 21
52.8478
  0
LINE
  8
0
 10
34.3947
 20
52.8478
 11
34.3572
 21
52.7613
  0
LINE
  8
0
 10
34.3572
 20
52.7613
 11
34.3145
 21
52.6774
  0
LINE
  8
0
 10
34.3145
 20
52.6774
 11
34.2665
 21
52.5963
  0
LINE
  8
0
 10
34.2665
 20
52.5963
 11
34.2135
 21
52.5183
  0
LINE
  8
0
 10
34.2135
 20
52.5183
 11
34.1558
 21
52.4439
  0
LINE
  8
0
 10
34.1558
 20
52.4439
 11
34.0935
 21
52.3732
  0
LINE
  8
0
 10
34.0935
 20
52.3732
 11
34.0268
 21
52.3065
  0
LINE
  8
0
 10
34.0268
 20
52.3065
 11
33.9561
 21
52.2442
  0
LINE
  8
0
 10
33.9561
 20
52.2442
 11
33.8817
 21
52.1865
  0
LINE
  8
0
 10
33.8817
 20
52.1865
 11
33.8037
 21
52.1335
  0
LINE
  8
0
 10
33.8037
 20
52.1335
 11
33.7226
 21
52.0855
  0
LINE
  8
0
 10
33.7226
 20
52.0855
 11
33.6387
 21
52.0428
  0
LINE
  8
0
 10
33.6387
 20
52.0428
 11
33.5522
 21
52.0053
  0
LINE
  8
0
 10
33.5522
 20
52.0053
 11
33.4635
 21
51.9734
  0
LINE
  8
0
 10
33.4635
 20
51.9734
 11
33.373
 21
51.9471
  0
LINE
  8
0
 10
33.373
 20
51.9471
 11
33.2811
 21
51.9266
  0
LINE
  8
0
 10
33.2811
 20
51.9266
 11
33.188
 21
51.9118
  0
LINE
  8
0
 10
33.188
 20
51.9118
 11
33.0942
 21
51.903
  0
LINE
  8
0
 10
33.0942
 20
51.903
 11
33
 21
51.9
  0
LINE
  8
0
 10
33
 20
51.9
 11
32.9058
 21
51.903
  0
LINE
  8
0
 10
32.9058
 20
51.903
 11
32.812
 21
51.9118
  0
LINE
  8
0
 10
32.812
 20
51.9118
 11
32.7189
 21
51.9266
  0
LINE
  8
0
 10
32.7189
 20
51.9266
 11
32.627
 21
51.9471
  0
LINE
  8
0
 10
32.627
 20
51.9471
 11
32.5365
 21
51.9734
  0
LINE
  8
0
 10
32.5365
 20
51.9734
 11
32.4478
 21
52.0053
  0
LINE
  8
0
 10
32.4478
 20
52.0053
 11
32.3613
 21
52.0428
  0
LINE
  8
0
 10
32.3613
 20
52.0428
 11
32.2774
 21
52.0855
  0
LINE
  8
0
 10
32.2774
 20
52.0855
 11
32.1963
 21
52.1335
  0
LINE
  8
0
 10
32.1963
 20
52.1335
 11
32.1183
 21
52.1865
  0
LINE
  8
0
 10
32.1183
 20
52.1865
 11
32.0439
 21
52.2442
  0
LINE
  8
0
 10
32.0439
 20
52.2442
 11
31.9732
 21
52.3065
  0
LINE
  8
0
 10
31.9732
 20
52.3065
 11
31.9065
 21
52.3732
  0
LINE
  8
0
 10
31.9065
 20
52.3732
 11
31.8442
 21
52.4439
  0
LINE
  8
0
 10
31.8442
 20
52.4439
 11
31.7865
 21
52.5183
  0
LINE
  8
0
 10
31.7865
 20
52.5183
 11
31.7335
 21
52.5963
  0
LINE
  8
0
 10
31.7335
 20
52.5963
 11
31.6855
 21
52.6774
  0
LINE
  8
0
 10
31.6855
 20
52.6774
 11
31.6428
 21
52.7613
  0
LINE
  8
0
 10
31.6428
 20
52.7613
 11
31.6053
 21
52.8478
  0
LINE
  8
0
 10
31.6053
 20
52.8478
 11
31.5734
 21
52.9365
  0
LINE
  8
0
 10
31.5734
 20
52.9365
 11
31.5471
 21
53.027
  0
LINE
  8
0
 10
31.5471
 20
53.027
 11
31.5266
 21
53.1189
  0
LINE
  8
0
 10
31.5266
 20
53.1189
 11
31.5118
 21
53.212
  0
LINE
  8
0
 10
31.5118
 20
53.212
 11
31.503
 21
53.3058
  0
LINE
  8
0
 10
31.503
 20
53.3058
 11
31.5
 21
53.4
  0
ENDSEC
  0
SECTION
  2
OBJECTS
  0
DICTIONARY
  0
ENDSEC
  0
EOF
