999
dxfrw 0.5.10
0
SECTION
2
HEADER
9
$ACADVER
1
AC1021
9
$HANDSEED
5
20000
9
$DWGCODEPAGE
3
ANSI_1252
9
$INSBASE
10
0
20
0
30
0
9
$EXTMIN
10
-43.125
20
-11.25
30
0
9
$EXTMAX
10
231.25
20
163.125
30
0
9
$LIMMIN
10
0
20
0
9
$LIMMAX
10
420
20
297
9
$ORTHOMODE
70
0
9
$LTSCALE
40
1
9
$TEXTSTYLE
7
STANDARD
9
$CLAYER
8
0
9
$DIMASZ
40
2.5
9
$DIMLFAC
40
1
9
$DIMSCALE
40
1
9
$DIMEXO
40
0.625
9
$DIMEXE
40
1.25
9
$DIMTXT
40
2.5
9
$DIMTSZ
40
0
9
$DIMAUNIT
70
0
9
$DIMADEC
70
0
9
$DIMLUNIT
70
2
9
$DIMSTYLE
2
STANDARD
9
$DIMGAP
40
0.625
9
$DIMTIH
70
0
9
$LUNITS
70
2
9
$LUPREC
70
4
9
$AUNITS
70
0
9
$AUPREC
70
2
9
$SPLINESEGS
70
8
9
$GRIDMODE
70
1
9
$SNAPSTYLE
70
0
9
$PINSBASE
10
0
20
0
30
0
9
$PLIMMIN
10
0
20
0
9
$PLIMMAX
10
210
20
297
9
$INSUNITS
70
0
9
$PSVPSCALE
40
1
0
ENDSEC
0
SECTION
2
CLASSES
0
ENDSEC
0
SECTION
2
TABLES
0
TABLE
2
VPORT
5
8
330
0
100
AcDbSymbolTable
70
1
0
VPORT
5
31
330
2
100
AcDbSymbolTableRecord
100
AcDbViewportTableRecord
2
*ACTIVE
70
0
10
0
20
0
11
1
21
1
12
107.976039262
22
112.475040898
13
0
23
0
14
10
24
10
15
10
25
10
16
0
26
0
36
1
17
0
27
0
37
0
40
187.001981041
41
2.11715481172
42
50
43
0
44
0
50
0
51
0
71
0
72
100
73
1
74
3
75
0
76
1
77
0
78
0
281
0
65
1
110
0
120
0
130
0
111
1
121
0
131
0
112
0
122
1
132
0
79
0
146
0
348
10020
60
7
61
5
292
1
282
1
141
0
142
0
63
250
421
3358443
0
ENDTAB
0
TABLE
2
LTYPE
5
5
330
0
100
AcDbSymbolTable
70
4
0
LTYPE
5
14
330
5
100
AcDbSymbolTableRecord
100
AcDbLinetypeTableRecord
2
ByBlock
70
0
3

72
65
73
0
40
0
0
LTYPE
5
15
330
5
100
AcDbSymbolTableRecord
100
AcDbLinetypeTableRecord
2
ByLayer
70
0
3

72
65
73
0
40
0
0
LTYPE
5
16
330
5
100
AcDbSymbolTableRecord
100
AcDbLinetypeTableRecord
2
Continuous
70
0
3
Solid line
72
65
73
0
40
0
0
LTYPE
5
32
330
5
100
AcDbSymbolTableRecord
100
AcDbLinetypeTableRecord
2
DOT
70
0
3
Dot . . . . . . . . . . . . . . . . . . . . . .
72
65
73
2
40
6.35
49
0
74
0
49
-6.35
74
0
0
LTYPE
5
33
330
5
100
AcDbSymbolTableRecord
100
AcDbLinetypeTableRecord
2
DOT2
70
0
3
Dot (.5x) .....................................
72
65
73
2
40
3.175
49
0
74
0
49
-3.175
74
0
0
LTYPE
5
34
330
5
100
AcDbSymbolTableRecord
100
AcDbLinetypeTableRecord
2
DOTX2
70
0
3
Dot (2x) .  .  .  .  .  .  .  .  .  .  .  .  .
72
65
73
2
40
12.7
49
0
74
0
49
-12.7
74
0
0
LTYPE
5
35
330
5
100
AcDbSymbolTableRecord
100
AcDbLinetypeTableRecord
2
DASHED
70
0
3
Dot . . . . . . . . . . . . . . . . . . . . . .
72
65
73
2
40
19.05
49
12.7
74
0
49
-6.35
74
0
0
LTYPE
5
36
330
5
100
AcDbSymbolTableRecord
100
AcDbLinetypeTableRecord
2
DASHED2
70
0
3
Dashed (.5x) _ _ _ _ _ _ _ _ _ _ _ _ _ _ _ _ _
72
65
73
2
40
9.525
49
6.35
74
0
49
-3.175
74
0
0
LTYPE
5
37
330
5
100
AcDbSymbolTableRecord
100
AcDbLinetypeTableRecord
2
DASHEDX2
70
0
3
Dashed (2x) ____  ____  ____  ____  ____  ___
72
65
73
2
40
38.1
49
25.4
74
0
49
-12.7
74
0
0
LTYPE
5
38
330
5
100
AcDbSymbolTableRecord
100
AcDbLinetypeTableRecord
2
DASHDOT
70
0
3
Dash dot __ . __ . __ . __ . __ . __ . __ . __
72
65
73
4
40
25.4
49
12.7
74
0
49
-6.35
74
0
49
0
74
0
49
-6.35
74
0
0
LTYPE
5
39
330
5
100
AcDbSymbolTableRecord
100
AcDbLinetypeTableRecord
2
DASHDOT2
70
0
3
Dash dot (.5x) _._._._._._._._._._._._._._._.
72
65
73
4
40
12.7
49
6.35
74
0
49
-3.175
74
0
49
0
74
0
49
-3.175
74
0
0
LTYPE
5
3A
330
5
100
AcDbSymbolTableRecord
100
AcDbLinetypeTableRecord
2
DASHDOTX2
70
0
3
Dash dot (2x) ____  .  ____  .  ____  .  ___
72
65
73
4
40
50.8
49
25.4
74
0
49
-12.7
74
0
49
0
74
0
49
-12.7
74
0
0
LTYPE
5
3B
330
5
100
AcDbSymbolTableRecord
100
AcDbLinetypeTableRecord
2
DIVIDE
70
0
3
Divide ____ . . ____ . . ____ . . ____ . . ____
72
65
73
6
40
31.75
49
12.7
74
0
49
-6.35
74
0
49
0
74
0
49
-6.35
74
0
49
0
74
0
49
-6.35
74
0
0
LTYPE
5
3C
330
5
100
AcDbSymbolTableRecord
100
AcDbLinetypeTableRecord
2
DIVIDE2
70
0
3
Divide (.5x) __..__..__..__..__..__..__..__.._
72
65
73
6
40
15.875
49
6.35
74
0
49
-3.175
74
0
49
0
74
0
49
-3.175
74
0
49
0
74
0
49
-3.175
74
0
0
LTYPE
5
3D
330
5
100
AcDbSymbolTableRecord
100
AcDbLinetypeTableRecord
2
DIVIDEX2
70
0
3
Divide (2x) ________  .  .  ________  .  .  _
72
65
73
6
40
63.5
49
25.4
74
0
49
-12.7
74
0
49
0
74
0
49
-12.7
74
0
49
0
74
0
49
-12.7
74
0
0
LTYPE
5
3E
330
5
100
AcDbSymbolTableRecord
100
AcDbLinetypeTableRecord
2
BORDER
70
0
3
Border __ __ . __ __ . __ __ . __ __ . __ __ .
72
65
73
6
40
44.45
49
12.7
74
0
49
-6.35
74
0
49
12.7
74
0
49
-6.35
74
0
49
0
74
0
49
-6.35
74
0
0
LTYPE
5
3F
330
5
100
AcDbSymbolTableRecord
100
AcDbLinetypeTableRecord
2
BORDER2
70
0
3
Border (.5x) __.__.__.__.__.__.__.__.__.__.__.
72
65
73
6
40
22.225
49
6.35
74
0
49
-3.175
74
0
49
6.35
74
0
49
-3.175
74
0
49
0
74
0
49
-3.175
74
0
0
LTYPE
5
40
330
5
100
AcDbSymbolTableRecord
100
AcDbLinetypeTableRecord
2
BORDERX2
70
0
3
Border (2x) ____  ____  .  ____  ____  .  ___
72
65
73
6
40
88.9
49
25.4
74
0
49
-12.7
74
0
49
25.4
74
0
49
-12.7
74
0
49
0
74
0
49
-12.7
74
0
0
LTYPE
5
41
330
5
100
AcDbSymbolTableRecord
100
AcDbLinetypeTableRecord
2
CENTER
70
0
3
Center ____ _ ____ _ ____ _ ____ _ ____ _ ____
72
65
73
4
40
50.8
49
31.75
74
0
49
-6.35
74
0
49
6.35
74
0
49
-6.35
74
0
0
LTYPE
5
42
330
5
100
AcDbSymbolTableRecord
100
AcDbLinetypeTableRecord
2
CENTER2
70
0
3
Center (.5x) ___ _ ___ _ ___ _ ___ _ ___ _ ___
72
65
73
4
40
28.575
49
19.05
74
0
49
-3.175
74
0
49
3.175
74
0
49
-3.175
74
0
0
LTYPE
5
43
330
5
100
AcDbSymbolTableRecord
100
AcDbLinetypeTableRecord
2
CENTERX2
70
0
3
Center (2x) ________  __  ________  __  _____
72
65
73
4
40
101.6
49
63.5
74
0
49
-12.7
74
0
49
12.7
74
0
49
-12.7
74
0
0
ENDTAB
0
TABLE
2
LAYER
5
2
330
0
100
AcDbSymbolTable
70
1
0
LAYER
5
10
330
2
100
AcDbSymbolTableRecord
100
AcDbLayerTableRecord
2
0
70
0
62
7
6
CONTINUOUS
370
0
390
F
0
ENDTAB
0
TABLE
2
STYLE
5
3
330
0
100
AcDbSymbolTable
70
3
0
STYLE
5
44
330
2
100
AcDbSymbolTableRecord
100
AcDbTextStyleTableRecord
2
Standard
70
0
40
0
41
1
50
0
71
0
42
1
3
txt
4

0
ENDTAB
0
TABLE
2
VIEW
5
6
330
0
100
AcDbSymbolTable
70
0
0
ENDTAB
0
TABLE
2
UCS
5
7
330
0
100
AcDbSymbolTable
70
0
0
ENDTAB
0
TABLE
2
APPID
5
9
330
0
100
AcDbSymbolTable
70
1
0
APPID
5
12
330
9
100
AcDbSymbolTableRecord
100
AcDbRegAppTableRecord
2
ACAD
70
0
0
ENDTAB
0
TABLE
2
DIMSTYLE
5
A
330
0
100
AcDbSymbolTable
70
1
100
AcDbDimStyleTable
71
1
0
DIMSTYLE
105
45
330
A
100
AcDbSymbolTableRecord
100
AcDbDimStyleTableRecord
2
Standard
70
0
40
1
41
2.5
42
0.625
43
0.38
44
1.25
45
0
46
0
47
0
48
0
140
2.5
141
0.09
142
0
143
25.4
144
1
145
0
146
1
147
0.625
148
0
71
0
72
0
73
0
74
1
75
0
76
0
77
0
78
0
79
0
170
0
171
2
172
0
173
0
174
0
175
0
176
0
177
0
178
0
179
0
271
4
272
4
273
2
274
2
275
0
276
0
277
2
278
46
279
0
280
0
281
0
282
0
283
1
284
0
285
0
286
0
288
0
289
3
340
Standard
341

371
-2
372
-2
0
ENDTAB
0
TABLE
2
BLOCK_RECORD
5
1
330
0
100
AcDbSymbolTable
70
2
0
BLOCK_RECORD
5
1F
330
1
100
AcDbSymbolTableRecord
100
AcDbBlockTableRecord
2
*Model_Space
70
0
280
1
281
0
0
BLOCK_RECORD
5
1E
330
1
100
AcDbSymbolTableRecord
100
AcDbBlockTableRecord
2
*Paper_Space
70
0
280
1
281
0
0
BLOCK_RECORD
5
46
330
1
100
AcDbSymbolTableRecord
100
AcDbBlockTableRecord
2
*D10
70
0
280
1
281
0
0
BLOCK_RECORD
5
49
330
1
100
AcDbSymbolTableRecord
100
AcDbBlockTableRecord
2
*D6
70
0
280
1
281
0
0
BLOCK_RECORD
5
4C
330
1
100
AcDbSymbolTableRecord
100
AcDbBlockTableRecord
2
*D7
70
0
280
1
281
0
0
BLOCK_RECORD
5
4F
330
1
100
AcDbSymbolTableRecord
100
AcDbBlockTableRecord
2
*D11
70
0
280
1
281
0
0
BLOCK_RECORD
5
52
330
1
100
AcDbSymbolTableRecord
100
AcDbBlockTableRecord
2
*D18
70
0
280
1
281
0
0
BLOCK_RECORD
5
55
330
1
100
AcDbSymbolTableRecord
100
AcDbBlockTableRecord
2
*D22
70
0
280
1
281
0
0
BLOCK_RECORD
5
58
330
1
100
AcDbSymbolTableRecord
100
AcDbBlockTableRecord
2
*D24
70
0
280
1
281
0
0
BLOCK_RECORD
5
5B
330
1
100
AcDbSymbolTableRecord
100
AcDbBlockTableRecord
2
*D15
70
0
280
1
281
0
0
BLOCK_RECORD
5
5E
330
1
100
AcDbSymbolTableRecord
100
AcDbBlockTableRecord
2
*D5
70
0
280
1
281
0
0
BLOCK_RECORD
5
61
330
1
100
AcDbSymbolTableRecord
100
AcDbBlockTableRecord
2
*D9
70
0
280
1
281
0
0
BLOCK_RECORD
5
64
330
1
100
AcDbSymbolTableRecord
100
AcDbBlockTableRecord
2
*D13
70
0
280
1
281
0
0
BLOCK_RECORD
5
67
330
1
100
AcDbSymbolTableRecord
100
AcDbBlockTableRecord
2
*D2
70
0
280
1
281
0
0
BLOCK_RECORD
5
6A
330
1
100
AcDbSymbolTableRecord
100
AcDbBlockTableRecord
2
*D12
70
0
280
1
281
0
0
BLOCK_RECORD
5
6D
330
1
100
AcDbSymbolTableRecord
100
AcDbBlockTableRecord
2
*D17
70
0
280
1
281
0
0
BLOCK_RECORD
5
70
330
1
100
AcDbSymbolTableRecord
100
AcDbBlockTableRecord
2
*D4
70
0
280
1
281
0
0
BLOCK_RECORD
5
73
330
1
100
AcDbSymbolTableRecord
100
AcDbBlockTableRecord
2
*D8
70
0
280
1
281
0
0
BLOCK_RECORD
5
76
330
1
100
AcDbSymbolTableRecord
100
AcDbBlockTableRecord
2
*D3
70
0
280
1
281
0
0
BLOCK_RECORD
5
79
330
1
100
AcDbSymbolTableRecord
100
AcDbBlockTableRecord
2
*D23
70
0
280
1
281
0
0
BLOCK_RECORD
5
7C
330
1
100
AcDbSymbolTableRecord
100
AcDbBlockTableRecord
2
*D25
70
0
280
1
281
0
0
BLOCK_RECORD
5
7F
330
1
100
AcDbSymbolTableRecord
100
AcDbBlockTableRecord
2
*D14
70
0
280
1
281
0
0
BLOCK_RECORD
5
82
330
1
100
AcDbSymbolTableRecord
100
AcDbBlockTableRecord
2
*D16
70
0
280
1
281
0
0
BLOCK_RECORD
5
85
330
1
100
AcDbSymbolTableRecord
100
AcDbBlockTableRecord
2
*D19
70
0
280
1
281
0
0
BLOCK_RECORD
5
88
330
1
100
AcDbSymbolTableRecord
100
AcDbBlockTableRecord
2
*D21
70
0
280
1
281
0
0
BLOCK_RECORD
5
8B
330
1
100
AcDbSymbolTableRecord
100
AcDbBlockTableRecord
2
*D1
70
0
280
1
281
0
0
BLOCK_RECORD
5
8E
330
1
100
AcDbSymbolTableRecord
100
AcDbBlockTableRecord
2
*D20
70
0
280
1
281
0
0
ENDTAB
0
ENDSEC
0
SECTION
2
BLOCKS
0
BLOCK
5
20
330
1F
100
AcDbEntity
8
0
100
AcDbBlockBegin
2
*Model_Space
70
0
10
0
20
0
30
0
3
*Model_Space
1

0
ENDBLK
5
21
330
1F
100
AcDbEntity
8
0
100
AcDbBlockEnd
0
BLOCK
5
1C
330
1B
100
AcDbEntity
8
0
100
AcDbBlockBegin
2
*Paper_Space
70
0
10
0
20
0
30
0
3
*Paper_Space
1

0
ENDBLK
5
1D
330
1F
100
AcDbEntity
8
0
100
AcDbBlockEnd
0
BLOCK
5
47
330
46
100
AcDbEntity
8
0
100
AcDbBlockBegin
2
*D10
70
1
10
0
20
0
3
*D10
1

0
LINE
5
91
100
AcDbEntity
8
0
6
CONTINUOUS
62
7
370
0
100
AcDbLine
10
140.625
20
80
11
161.25
21
80
0
LINE
5
92
100
AcDbEntity
8
0
6
CONTINUOUS
62
7
370
0
100
AcDbLine
10
140.625
20
-1.53080849893e-16
11
161.25
21
-5.20474889638e-15
0
LINE
5
93
100
AcDbEntity
8
0
6
CONTINUOUS
62
7
370
0
100
AcDbLine
10
160
20
80
11
160
21
-4.89858719659e-15
0
SOLID
5
94
100
AcDbEntity
8
0
6
CONTINUOUS
62
7
370
0
100
AcDbTrace
10
160
20
80
30
0
11
160.416284658
21
77.5
31
0
12
159.583715342
22
77.5
32
0
13
159.583715342
23
77.5
33
0
0
SOLID
5
95
100
AcDbEntity
8
0
6
CONTINUOUS
62
7
370
0
100
AcDbTrace
10
160
20
-4.89858719659e-15
30
0
11
159.583715342
21
2.5
31
0
12
160.416284658
22
2.5
32
0
13
160.416284658
23
2.5
33
0
0
MTEXT
5
96
100
AcDbEntity
8
0
6
CONTINUOUS
62
7
370
0
100
AcDbMText
10
158.125
20
40
30
0
40
2.5
41
3.05555555556
71
5
72
1
1
80
7
standard
210
0
220
0
230
1
50
90
73
2
44
1
0
ENDBLK
5
48
330
46
100
AcDbEntity
8
0
100
AcDbBlockEnd
0
BLOCK
5
4A
330
49
100
AcDbEntity
8
0
100
AcDbBlockBegin
2
*D6
70
1
10
0
20
0
3
*D6
1

0
LINE
5
97
100
AcDbEntity
8
0
6
CONTINUOUS
62
7
370
0
100
AcDbLine
10
134.375
20
10
11
129.75
21
10
0
LINE
5
98
100
AcDbEntity
8
0
6
CONTINUOUS
62
7
370
0
100
AcDbLine
10
134.375
20
6
11
129.75
21
6
0
LINE
5
99
100
AcDbEntity
8
0
6
CONTINUOUS
62
7
370
0
100
AcDbLine
10
131
20
15
11
131
21
1
0
SOLID
5
9A
100
AcDbEntity
8
0
6
CONTINUOUS
62
7
370
0
100
AcDbTrace
10
131
20
10
30
0
11
130.583715342
21
12.5
31
0
12
131.416284658
22
12.5
32
0
13
131.416284658
23
12.5
33
0
0
SOLID
5
9B
100
AcDbEntity
8
0
6
CONTINUOUS
62
7
370
0
100
AcDbTrace
10
131
20
6
30
0
11
131.416284658
21
3.5
31
0
12
130.583715342
22
3.5
32
0
13
130.583715342
23
3.5
33
0
0
MTEXT
5
9C
100
AcDbEntity
8
0
6
CONTINUOUS
62
7
370
0
100
AcDbMText
10
129.125
20
8
30
0
40
2.5
41
1.38888888889
71
5
72
1
1
4
7
standard
210
0
220
0
230
1
50
90
73
2
44
1
0
ENDBLK
5
4B
330
49
100
AcDbEntity
8
0
100
AcDbBlockEnd
0
BLOCK
5
4D
330
4C
100
AcDbEntity
8
0
100
AcDbBlockBegin
2
*D7
70
1
10
0
20
0
3
*D7
1

0
LINE
5
9D
100
AcDbEntity
8
0
6
CONTINUOUS
62
7
370
0
100
AcDbLine
10
3.82702124734e-17
20
140.625
11
1.30118722409e-15
21
161.25
0
LINE
5
9E
100
AcDbEntity
8
0
6
CONTINUOUS
62
7
370
0
100
AcDbLine
10
200
20
140.625
11
200
21
161.25
0
LINE
5
9F
100
AcDbEntity
8
0
6
CONTINUOUS
62
7
370
0
100
AcDbLine
10
1.22464679915e-15
20
160
11
200
21
160
0
SOLID
5
A0
100
AcDbEntity
8
0
6
CONTINUOUS
62
7
370
0
100
AcDbTrace
10
1.22464679915e-15
20
160
30
0
11
2.5
21
160.416284658
31
0
12
2.5
22
159.583715342
32
0
13
2.5
23
159.583715342
33
0
0
SOLID
5
A1
100
AcDbEntity
8
0
6
CONTINUOUS
62
7
370
0
100
AcDbTrace
10
200
20
160
30
0
11
197.5
21
159.583715342
31
0
12
197.5
22
160.416284658
32
0
13
197.5
23
160.416284658
33
0
0
MTEXT
5
A2
100
AcDbEntity
8
0
6
CONTINUOUS
62
7
370
0
100
AcDbMText
10
100
20
161.875
30
0
40
2.5
41
5
71
5
72
1
1
200
7
standard
210
0
220
0
230
1
50
0
73
2
44
1
0
ENDBLK
5
4E
330
4C
100
AcDbEntity
8
0
100
AcDbBlockEnd
0
BLOCK
5
50
330
4F
100
AcDbEntity
8
0
100
AcDbBlockBegin
2
*D11
70
1
10
0
20
0
3
*D11
1

0
LINE
5
A3
100
AcDbEntity
8
0
6
CONTINUOUS
62
7
370
0
100
AcDbLine
10
60
20
-0.625
11
60
21
-11.25
0
LINE
5
A4
100
AcDbEntity
8
0
6
CONTINUOUS
62
7
370
0
100
AcDbLine
10
140
20
-0.625
11
140
21
-11.25
0
LINE
5
A5
100
AcDbEntity
8
0
6
CONTINUOUS
62
7
370
0
100
AcDbLine
10
60
20
-10
11
140
21
-10
0
SOLID
5
A6
100
AcDbEntity
8
0
6
CONTINUOUS
62
7
370
0
100
AcDbTrace
10
60
20
-10
30
0
11
62.5
21
-9.58371534223
31
0
12
62.5
22
-10.4162846578
32
0
13
62.5
23
-10.4162846578
33
0
0
SOLID
5
A7
100
AcDbEntity
8
0
6
CONTINUOUS
62
7
370
0
100
AcDbTrace
10
140
20
-10
30
0
11
137.5
21
-10.4162846578
31
0
12
137.5
22
-9.58371534223
32
0
13
137.5
23
-9.58371534223
33
0
0
MTEXT
5
A8
100
AcDbEntity
8
0
6
CONTINUOUS
62
7
370
0
100
AcDbMText
10
100
20
-8.125
30
0
40
2.5
41
3.05555555556
71
5
72
1
1
80
7
standard
210
0
220
0
230
1
50
0
73
2
44
1
0
ENDBLK
5
51
330
4F
100
AcDbEntity
8
0
100
AcDbBlockEnd
0
BLOCK
5
53
330
52
100
AcDbEntity
8
0
100
AcDbBlockBegin
2
*D18
70
1
10
0
20
0
3
*D18
1

0
LINE
5
A9
100
AcDbEntity
8
0
6
CONTINUOUS
62
7
370
0
100
AcDbLine
10
64.375
20
8
11
52.75
21
8
0
LINE
5
AA
100
AcDbEntity
8
0
6
CONTINUOUS
62
7
370
0
100
AcDbLine
10
64.375
20
7.65404249467e-17
11
52.75
21
1.50019232896e-15
0
LINE
5
AB
100
AcDbEntity
8
0
6
CONTINUOUS
62
7
370
0
100
AcDbLine
10
54
20
8
11
54
21
1.34711147906e-15
0
SOLID
5
AC
100
AcDbEntity
8
0
6
CONTINUOUS
62
7
370
0
100
AcDbTrace
10
54
20
8
30
0
11
54.4162846578
21
5.5
31
0
12
53.5837153422
22
5.5
32
0
13
53.5837153422
23
5.5
33
0
0
SOLID
5
AD
100
AcDbEntity
8
0
6
CONTINUOUS
62
7
370
0
100
AcDbTrace
10
54
20
1.34711147906e-15
30
0
11
53.5837153422
21
2.5
31
0
12
54.4162846578
22
2.5
32
0
13
54.4162846578
23
2.5
33
0
0
MTEXT
5
AE
100
AcDbEntity
8
0
6
CONTINUOUS
62
7
370
0
100
AcDbMText
10
52.125
20
4
30
0
40
2.5
41
1.11111111111
71
5
72
1
1
8
7
standard
210
0
220
0
230
1
50
90
73
2
44
1
0
ENDBLK
5
54
330
52
100
AcDbEntity
8
0
100
AcDbBlockEnd
0
BLOCK
5
56
330
55
100
AcDbEntity
8
0
100
AcDbBlockBegin
2
*D22
70
1
10
0
20
0
3
*D22
1

0
LINE
5
AF
100
AcDbEntity
8
0
6
CONTINUOUS
62
7
370
0
100
AcDbLine
10
99.375
20
122
11
78.75
21
122
0
LINE
5
B0
100
AcDbEntity
8
0
6
CONTINUOUS
62
7
370
0
100
AcDbLine
10
99.375
20
102
11
78.75
21
102
0
LINE
5
B1
100
AcDbEntity
8
0
6
CONTINUOUS
62
7
370
0
100
AcDbLine
10
80
20
122
11
80
21
102
0
SOLID
5
B2
100
AcDbEntity
8
0
6
CONTINUOUS
62
7
370
0
100
AcDbTrace
10
80
20
122
30
0
11
80.4162846578
21
119.5
31
0
12
79.5837153422
22
119.5
32
0
13
79.5837153422
23
119.5
33
0
0
SOLID
5
B3
100
AcDbEntity
8
0
6
CONTINUOUS
62
7
370
0
100
AcDbTrace
10
80
20
102
30
0
11
79.5837153422
21
104.5
31
0
12
80.4162846578
22
104.5
32
0
13
80.4162846578
23
104.5
33
0
0
MTEXT
5
B4
100
AcDbEntity
8
0
6
CONTINUOUS
62
7
370
0
100
AcDbMText
10
78.125
20
112
30
0
40
2.5
41
3.05555555556
71
5
72
1
1
20
7
standard
210
0
220
0
230
1
50
90
73
2
44
1
0
ENDBLK
5
57
330
55
100
AcDbEntity
8
0
100
AcDbBlockEnd
0
BLOCK
5
59
330
58
100
AcDbEntity
8
0
100
AcDbBlockBegin
2
*D24
70
1
10
0
20
0
3
*D24
1

0
LINE
5
B5
100
AcDbEntity
8
0
6
CONTINUOUS
62
7
370
0
100
AcDbLine
10
100
20
111.375
11
100
21
93.75
0
LINE
5
B6
100
AcDbEntity
8
0
6
CONTINUOUS
62
7
370
0
100
AcDbLine
10
-1.1481063742e-16
20
111.375
11
-3.35247061267e-15
21
93.75
0
LINE
5
B7
100
AcDbEntity
8
0
6
CONTINUOUS
62
7
370
0
100
AcDbLine
10
100
20
95
11
-3.12284933783e-15
21
95
0
SOLID
5
B8
100
AcDbEntity
8
0
6
CONTINUOUS
62
7
370
0
100
AcDbTrace
10
100
20
95
30
0
11
97.5
21
94.5837153422
31
0
12
97.5
22
95.4162846578
32
0
13
97.5
23
95.4162846578
33
0
0
SOLID
5
B9
100
AcDbEntity
8
0
6
CONTINUOUS
62
7
370
0
100
AcDbTrace
10
-3.12284933783e-15
20
95
30
0
11
2.5
21
95.4162846578
31
0
12
2.5
22
94.5837153422
32
0
13
2.5
23
94.5837153422
33
0
0
MTEXT
5
BA
100
AcDbEntity
8
0
6
CONTINUOUS
62
7
370
0
100
AcDbMText
10
50
20
96.875
30
0
40
2.5
41
4.44444444444
71
5
72
1
1
100
7
standard
210
0
220
0
230
1
50
360
73
2
44
1
0
ENDBLK
5
5A
330
58
100
AcDbEntity
8
0
100
AcDbBlockEnd
0
BLOCK
5
5C
330
5B
100
AcDbEntity
8
0
100
AcDbBlockBegin
2
*D15
70
1
10
0
20
0
3
*D15
1

0
LINE
5
BB
100
AcDbEntity
8
0
6
CONTINUOUS
62
7
370
0
100
AcDbLine
10
8.625
20
85
11
15.25
21
85
0
LINE
5
BC
100
AcDbEntity
8
0
6
CONTINUOUS
62
7
370
0
100
AcDbLine
10
8.625
20
80
11
15.25
21
80
0
LINE
5
BD
100
AcDbEntity
8
0
6
CONTINUOUS
62
7
370
0
100
AcDbLine
10
14
20
90
11
14
21
75
0
SOLID
5
BE
100
AcDbEntity
8
0
6
CONTINUOUS
62
7
370
0
100
AcDbTrace
10
14
20
85
30
0
11
13.5837153422
21
87.5
31
0
12
14.4162846578
22
87.5
32
0
13
14.4162846578
23
87.5
33
0
0
SOLID
5
BF
100
AcDbEntity
8
0
6
CONTINUOUS
62
7
370
0
100
AcDbTrace
10
14
20
80
30
0
11
14.4162846578
21
77.5
31
0
12
13.5837153422
22
77.5
32
0
13
13.5837153422
23
77.5
33
0
0
MTEXT
5
C0
100
AcDbEntity
8
0
6
CONTINUOUS
62
7
370
0
100
AcDbMText
10
12.125
20
82.5
30
0
40
2.5
41
1.11111111111
71
5
72
1
1
5
7
standard
210
0
220
0
230
1
50
90
73
2
44
1
0
ENDBLK
5
5D
330
5B
100
AcDbEntity
8
0
100
AcDbBlockEnd
0
BLOCK
5
5F
330
5E
100
AcDbEntity
8
0
100
AcDbBlockBegin
2
*D5
70
1
10
0
20
0
3
*D5
1

0
LINE
5
C1
100
AcDbEntity
8
0
6
CONTINUOUS
62
7
370
0
100
AcDbLine
10
65.625
20
10
11
70.25
21
10
0
LINE
5
C2
100
AcDbEntity
8
0
6
CONTINUOUS
62
7
370
0
100
AcDbLine
10
65.625
20
6
11
70.25
21
6
0
LINE
5
C3
100
AcDbEntity
8
0
6
CONTINUOUS
62
7
370
0
100
AcDbLine
10
69
20
15
11
69
21
1
0
SOLID
5
C4
100
AcDbEntity
8
0
6
CONTINUOUS
62
7
370
0
100
AcDbTrace
10
69
20
10
30
0
11
68.5837153422
21
12.5
31
0
12
69.4162846578
22
12.5
32
0
13
69.4162846578
23
12.5
33
0
0
SOLID
5
C5
100
AcDbEntity
8
0
6
CONTINUOUS
62
7
370
0
100
AcDbTrace
10
69
20
6
30
0
11
69.4162846578
21
3.5
31
0
12
68.5837153422
22
3.5
32
0
13
68.5837153422
23
3.5
33
0
0
MTEXT
5
C6
100
AcDbEntity
8
0
6
CONTINUOUS
62
7
370
0
100
AcDbMText
10
67.125
20
8
30
0
40
2.5
41
1.38888888889
71
5
72
1
1
4
7
standard
210
0
220
0
230
1
50
90
73
2
44
1
0
ENDBLK
5
60
330
5E
100
AcDbEntity
8
0
100
AcDbBlockEnd
0
BLOCK
5
62
330
61
100
AcDbEntity
8
0
100
AcDbBlockBegin
2
*D9
70
1
10
0
20
0
3
*D9
1

0
LINE
5
C7
100
AcDbEntity
8
0
6
CONTINUOUS
62
7
370
0
100
AcDbLine
10
140
20
79.375
11
140
21
68.75
0
LINE
5
C8
100
AcDbEntity
8
0
6
CONTINUOUS
62
7
370
0
100
AcDbLine
10
200
20
79.375
11
200
21
68.75
0
LINE
5
C9
100
AcDbEntity
8
0
6
CONTINUOUS
62
7
370
0
100
AcDbLine
10
140
20
70
11
200
21
70
0
SOLID
5
CA
100
AcDbEntity
8
0
6
CONTINUOUS
62
7
370
0
100
AcDbTrace
10
140
20
70
30
0
11
142.5
21
70.4162846578
31
0
12
142.5
22
69.5837153422
32
0
13
142.5
23
69.5837153422
33
0
0
SOLID
5
CB
100
AcDbEntity
8
0
6
CONTINUOUS
62
7
370
0
100
AcDbTrace
10
200
20
70
30
0
11
197.5
21
69.5837153422
31
0
12
197.5
22
70.4162846578
32
0
13
197.5
23
70.4162846578
33
0
0
MTEXT
5
CC
100
AcDbEntity
8
0
6
CONTINUOUS
62
7
370
0
100
AcDbMText
10
170
20
71.875
30
0
40
2.5
41
3.05555555556
71
5
72
1
1
60
7
standard
210
0
220
0
230
1
50
0
73
2
44
1
0
ENDBLK
5
63
330
61
100
AcDbEntity
8
0
100
AcDbBlockEnd
0
BLOCK
5
65
330
64
100
AcDbEntity
8
0
100
AcDbBlockBegin
2
*D13
70
1
10
0
20
0
3
*D13
1

0
LINE
5
CD
100
AcDbEntity
8
0
6
CONTINUOUS
62
7
370
0
100
AcDbLine
10
8.625
20
132
11
17.25
21
132
0
LINE
5
CE
100
AcDbEntity
8
0
6
CONTINUOUS
62
7
370
0
100
AcDbLine
10
8.625
20
140
11
17.25
21
140
0
LINE
5
CF
100
AcDbEntity
8
0
6
CONTINUOUS
62
7
370
0
100
AcDbLine
10
16
20
132
11
16
21
140
0
SOLID
5
D0
100
AcDbEntity
8
0
6
CONTINUOUS
62
7
370
0
100
AcDbTrace
10
16
20
132
30
0
11
15.5837153422
21
134.5
31
0
12
16.4162846578
22
134.5
32
0
13
16.4162846578
23
134.5
33
0
0
SOLID
5
D1
100
AcDbEntity
8
0
6
CONTINUOUS
62
7
370
0
100
AcDbTrace
10
16
20
140
30
0
11
16.4162846578
21
137.5
31
0
12
15.5837153422
22
137.5
32
0
13
15.5837153422
23
137.5
33
0
0
MTEXT
5
D2
100
AcDbEntity
8
0
6
CONTINUOUS
62
7
370
0
100
AcDbMText
10
14.125
20
136
30
0
40
2.5
41
1.11111111111
71
5
72
1
1
8
7
standard
210
0
220
0
230
1
50
90
73
2
44
1
0
ENDBLK
5
66
330
64
100
AcDbEntity
8
0
100
AcDbBlockEnd
0
BLOCK
5
68
330
67
100
AcDbEntity
8
0
100
AcDbBlockBegin
2
*D2
70
1
10
0
20
0
3
*D2
1

0
LINE
5
D3
100
AcDbEntity
8
0
6
CONTINUOUS
62
7
370
0
100
AcDbLine
10
7.375
20
87
11
2.75
21
87
0
LINE
5
D4
100
AcDbEntity
8
0
6
CONTINUOUS
62
7
370
0
100
AcDbLine
10
7.375
20
83
11
2.75
21
83
0
LINE
5
D5
100
AcDbEntity
8
0
6
CONTINUOUS
62
7
370
0
100
AcDbLine
10
4
20
92
11
4
21
78
0
SOLID
5
D6
100
AcDbEntity
8
0
6
CONTINUOUS
62
7
370
0
100
AcDbTrace
10
4
20
87
30
0
11
3.58371534223
21
89.5
31
0
12
4.41628465777
22
89.5
32
0
13
4.41628465777
23
89.5
33
0
0
SOLID
5
D7
100
AcDbEntity
8
0
6
CONTINUOUS
62
7
370
0
100
AcDbTrace
10
4
20
83
30
0
11
4.41628465777
21
80.5
31
0
12
3.58371534223
22
80.5
32
0
13
3.58371534223
23
80.5
33
0
0
MTEXT
5
D8
100
AcDbEntity
8
0
6
CONTINUOUS
62
7
370
0
100
AcDbMText
10
2.125
20
85
30
0
40
2.5
41
1.38888888889
71
5
72
1
1
4
7
standard
210
0
220
0
230
1
50
90
73
2
44
1
0
ENDBLK
5
69
330
67
100
AcDbEntity
8
0
100
AcDbBlockEnd
0
BLOCK
5
6B
330
6A
100
AcDbEntity
8
0
100
AcDbBlockBegin
2
*D12
70
1
10
0
20
0
3
*D12
1

0
LINE
5
D9
100
AcDbEntity
8
0
6
CONTINUOUS
62
7
370
0
100
AcDbLine
10
100.625
20
112
11
131.25
21
112
0
LINE
5
DA
100
AcDbEntity
8
0
6
CONTINUOUS
62
7
370
0
100
AcDbLine
10
100.625
20
140
11
131.25
21
140
0
LINE
5
DB
100
AcDbEntity
8
0
6
CONTINUOUS
62
7
370
0
100
AcDbLine
10
130
20
112
11
130
21
140
0
SOLID
5
DC
100
AcDbEntity
8
0
6
CONTINUOUS
62
7
370
0
100
AcDbTrace
10
130
20
112
30
0
11
129.583715342
21
114.5
31
0
12
130.416284658
22
114.5
32
0
13
130.416284658
23
114.5
33
0
0
SOLID
5
DD
100
AcDbEntity
8
0
6
CONTINUOUS
62
7
370
0
100
AcDbTrace
10
130
20
140
30
0
11
130.416284658
21
137.5
31
0
12
129.583715342
22
137.5
32
0
13
129.583715342
23
137.5
33
0
0
MTEXT
5
DE
100
AcDbEntity
8
0
6
CONTINUOUS
62
7
370
0
100
AcDbMText
10
128.125
20
126
30
0
40
2.5
41
3.05555555556
71
5
72
1
1
28
7
standard
210
0
220
0
230
1
50
90
73
2
44
1
0
ENDBLK
5
6C
330
6A
100
AcDbEntity
8
0
100
AcDbBlockEnd
0
BLOCK
5
6E
330
6D
100
AcDbEntity
8
0
100
AcDbBlockBegin
2
*D17
70
1
10
0
20
0
3
*D17
1

0
LINE
5
DF
100
AcDbEntity
8
0
6
CONTINUOUS
62
7
370
0
100
AcDbLine
10
65
20
8.625
11
65
21
13.25
0
LINE
5
E0
100
AcDbEntity
8
0
6
CONTINUOUS
62
7
370
0
100
AcDbLine
10
60
20
8.625
11
60
21
13.25
0
LINE
5
E1
100
AcDbEntity
8
0
6
CONTINUOUS
62
7
370
0
100
AcDbLine
10
70
20
12
11
55
21
12
0
SOLID
5
E2
100
AcDbEntity
8
0
6
CONTINUOUS
62
7
370
0
100
AcDbTrace
10
65
20
12
30
0
11
67.5
21
12.4162846578
31
0
12
67.5
22
11.5837153422
32
0
13
67.5
23
11.5837153422
33
0
0
SOLID
5
E3
100
AcDbEntity
8
0
6
CONTINUOUS
62
7
370
0
100
AcDbTrace
10
60
20
12
30
0
11
57.5
21
11.5837153422
31
0
12
57.5
22
12.4162846578
32
0
13
57.5
23
12.4162846578
33
0
0
MTEXT
5
E4
100
AcDbEntity
8
0
6
CONTINUOUS
62
7
370
0
100
AcDbMText
10
62.5
20
13.875
30
0
40
2.5
41
1.11111111111
71
5
72
1
1
5
7
standard
210
0
220
0
230
1
50
360
73
2
44
1
0
ENDBLK
5
6F
330
6D
100
AcDbEntity
8
0
100
AcDbBlockEnd
0
BLOCK
5
71
330
70
100
AcDbEntity
8
0
100
AcDbBlockBegin
2
*D4
70
1
10
0
20
0
3
*D4
1

0
LINE
5
E5
100
AcDbEntity
8
0
6
CONTINUOUS
62
7
370
0
100
AcDbLine
10
192.625
20
87
11
198.25
21
87
0
LINE
5
E6
100
AcDbEntity
8
0
6
CONTINUOUS
62
7
370
0
100
AcDbLine
10
192.625
20
83
11
198.25
21
83
0
LINE
5
E7
100
AcDbEntity
8
0
6
CONTINUOUS
62
7
370
0
100
AcDbLine
10
197
20
92
11
197
21
78
0
SOLID
5
E8
100
AcDbEntity
8
0
6
CONTINUOUS
62
7
370
0
100
AcDbTrace
10
197
20
87
30
0
11
196.583715342
21
89.5
31
0
12
197.416284658
22
89.5
32
0
13
197.416284658
23
89.5
33
0
0
SOLID
5
E9
100
AcDbEntity
8
0
6
CONTINUOUS
62
7
370
0
100
AcDbTrace
10
197
20
83
30
0
11
197.416284658
21
80.5
31
0
12
196.583715342
22
80.5
32
0
13
196.583715342
23
80.5
33
0
0
MTEXT
5
EA
100
AcDbEntity
8
0
6
CONTINUOUS
62
7
370
0
100
AcDbMText
10
195.125
20
85
30
0
40
2.5
41
1.38888888889
71
5
72
1
1
4
7
standard
210
0
220
0
230
1
50
90
73
2
44
1
0
ENDBLK
5
72
330
70
100
AcDbEntity
8
0
100
AcDbBlockEnd
0
BLOCK
5
74
330
73
100
AcDbEntity
8
0
100
AcDbBlockBegin
2
*D8
70
1
10
0
20
0
3
*D8
1

0
LINE
5
EB
100
AcDbEntity
8
0
6
CONTINUOUS
62
7
370
0
100
AcDbLine
10
200.625
20
80
11
231.25
21
80
0
LINE
5
EC
100
AcDbEntity
8
0
6
CONTINUOUS
62
7
370
0
100
AcDbLine
10
200.625
20
140
11
231.25
21
140
0
LINE
5
ED
100
AcDbEntity
8
0
6
CONTINUOUS
62
7
370
0
100
AcDbLine
10
230
20
80
11
230
21
140
0
SOLID
5
EE
100
AcDbEntity
8
0
6
CONTINUOUS
62
7
370
0
100
AcDbTrace
10
230
20
80
30
0
11
229.583715342
21
82.5
31
0
12
230.416284658
22
82.5
32
0
13
230.416284658
23
82.5
33
0
0
SOLID
5
EF
100
AcDbEntity
8
0
6
CONTINUOUS
62
7
370
0
100
AcDbTrace
10
230
20
140
30
0
11
230.416284658
21
137.5
31
0
12
229.583715342
22
137.5
32
0
13
229.583715342
23
137.5
33
0
0
MTEXT
5
F0
100
AcDbEntity
8
0
6
CONTINUOUS
62
7
370
0
100
AcDbMText
10
228.125
20
110
30
0
40
2.5
41
3.05555555556
71
5
72
1
1
60
7
standard
210
0
220
0
230
1
50
90
73
2
44
1
0
ENDBLK
5
75
330
73
100
AcDbEntity
8
0
100
AcDbBlockEnd
0
BLOCK
5
77
330
76
100
AcDbEntity
8
0
100
AcDbBlockBegin
2
*D3
70
1
10
0
20
0
3
*D3
1

0
LINE
5
F1
100
AcDbEntity
8
0
6
CONTINUOUS
62
7
370
0
100
AcDbLine
10
192.625
20
134
11
199.25
21
134
0
LINE
5
F2
100
AcDbEntity
8
0
6
CONTINUOUS
62
7
370
0
100
AcDbLine
10
192.625
20
130
11
199.25
21
130
0
LINE
5
F3
100
AcDbEntity
8
0
6
CONTINUOUS
62
7
370
0
100
AcDbLine
10
198
20
139
11
198
21
125
0
SOLID
5
F4
100
AcDbEntity
8
0
6
CONTINUOUS
62
7
370
0
100
AcDbTrace
10
198
20
134
30
0
11
197.583715342
21
136.5
31
0
12
198.416284658
22
136.5
32
0
13
198.416284658
23
136.5
33
0
0
SOLID
5
F5
100
AcDbEntity
8
0
6
CONTINUOUS
62
7
370
0
100
AcDbTrace
10
198
20
130
30
0
11
198.416284658
21
127.5
31
0
12
197.583715342
22
127.5
32
0
13
197.583715342
23
127.5
33
0
0
MTEXT
5
F6
100
AcDbEntity
8
0
6
CONTINUOUS
62
7
370
0
100
AcDbMText
10
196.125
20
132
30
0
40
2.5
41
1.38888888889
71
5
72
1
1
4
7
standard
210
0
220
0
230
1
50
90
73
2
44
1
0
ENDBLK
5
78
330
76
100
AcDbEntity
8
0
100
AcDbBlockEnd
0
BLOCK
5
7A
330
79
100
AcDbEntity
8
0
100
AcDbBlockBegin
2
*D23
70
1
10
0
20
0
3
*D23
1

0
LINE
5
F7
100
AcDbEntity
8
0
6
CONTINUOUS
62
7
370
0
100
AcDbLine
10
98.5
20
125.125
11
98.5
21
129.25
0
LINE
5
F8
100
AcDbEntity
8
0
6
CONTINUOUS
62
7
370
0
100
AcDbLine
10
101.5
20
125.125
11
101.5
21
129.25
0
LINE
5
F9
100
AcDbEntity
8
0
6
CONTINUOUS
62
7
370
0
100
AcDbLine
10
93.5
20
128
11
106.5
21
128
0
SOLID
5
FA
100
AcDbEntity
8
0
6
CONTINUOUS
62
7
370
0
100
AcDbTrace
10
98.5
20
128
30
0
11
96
21
127.583715342
31
0
12
96
22
128.416284658
32
0
13
96
23
128.416284658
33
0
0
SOLID
5
FB
100
AcDbEntity
8
0
6
CONTINUOUS
62
7
370
0
100
AcDbTrace
10
101.5
20
128
30
0
11
104
21
128.416284658
31
0
12
104
22
127.583715342
32
0
13
104
23
127.583715342
33
0
0
MTEXT
5
FC
100
AcDbEntity
8
0
6
CONTINUOUS
62
7
370
0
100
AcDbMText
10
100
20
129.875
30
0
40
2.5
41
1.11111111111
71
5
72
1
1
3
7
standard
210
0
220
0
230
1
50
0
73
2
44
1
0
ENDBLK
5
7B
330
79
100
AcDbEntity
8
0
100
AcDbBlockEnd
0
BLOCK
5
7D
330
7C
100
AcDbEntity
8
0
100
AcDbBlockBegin
2
*D25
70
1
10
0
20
0
3
*D25
1

0
LINE
5
FD
100
AcDbEntity
8
0
6
CONTINUOUS
62
7
370
0
100
AcDbLine
10
110.9
20
105.075
11
110.9
21
93.75
0
LINE
5
FE
100
AcDbEntity
8
0
6
CONTINUOUS
62
7
370
0
100
AcDbLine
10
100
20
105.075
11
100
21
93.75
0
LINE
5
FF
100
AcDbEntity
8
0
6
CONTINUOUS
62
7
370
0
100
AcDbLine
10
110.9
20
95
11
100
21
95
0
SOLID
5
100
100
AcDbEntity
8
0
6
CONTINUOUS
62
7
370
0
100
AcDbTrace
10
110.9
20
95
30
0
11
108.4
21
94.5837153422
31
0
12
108.4
22
95.4162846578
32
0
13
108.4
23
95.4162846578
33
0
0
SOLID
5
101
100
AcDbEntity
8
0
6
CONTINUOUS
62
7
370
0
100
AcDbTrace
10
100
20
95
30
0
11
102.5
21
95.4162846578
31
0
12
102.5
22
94.5837153422
32
0
13
102.5
23
94.5837153422
33
0
0
MTEXT
5
102
100
AcDbEntity
8
0
6
CONTINUOUS
62
7
370
0
100
AcDbMText
10
105.45
20
96.875
30
0
40
2.5
41
5.27777777778
71
5
72
1
1
10.9
7
standard
210
0
220
0
230
1
50
360
73
2
44
1
0
ENDBLK
5
7E
330
7C
100
AcDbEntity
8
0
100
AcDbBlockEnd
0
BLOCK
5
80
330
7F
100
AcDbEntity
8
0
100
AcDbBlockBegin
2
*D14
70
1
10
0
20
0
3
*D14
1

0
LINE
5
103
100
AcDbEntity
8
0
6
CONTINUOUS
62
7
370
0
100
AcDbLine
10
-0.625
20
140
11
-41.25
21
140
0
LINE
5
104
100
AcDbEntity
8
0
6
CONTINUOUS
62
7
370
0
100
AcDbLine
10
-0.625
20
7.65404249467e-17
11
-41.25
21
5.05166804648e-15
0
LINE
5
105
100
AcDbEntity
8
0
6
CONTINUOUS
62
7
370
0
100
AcDbLine
10
-40
20
140
11
-40
21
4.89858719659e-15
0
SOLID
5
106
100
AcDbEntity
8
0
6
CONTINUOUS
62
7
370
0
100
AcDbTrace
10
-40
20
140
30
0
11
-39.5837153422
21
137.5
31
0
12
-40.4162846578
22
137.5
32
0
13
-40.4162846578
23
137.5
33
0
0
SOLID
5
107
100
AcDbEntity
8
0
6
CONTINUOUS
62
7
370
0
100
AcDbTrace
10
-40
20
4.89858719659e-15
30
0
11
-40.4162846578
21
2.5
31
0
12
-39.5837153422
22
2.5
32
0
13
-39.5837153422
23
2.5
33
0
0
MTEXT
5
108
100
AcDbEntity
8
0
6
CONTINUOUS
62
7
370
0
100
AcDbMText
10
-41.875
20
70
30
0
40
2.5
41
4.72222222222
71
5
72
1
1
140
7
standard
210
0
220
0
230
1
50
90
73
2
44
1
0
ENDBLK
5
81
330
7F
100
AcDbEntity
8
0
100
AcDbBlockEnd
0
BLOCK
5
83
330
82
100
AcDbEntity
8
0
100
AcDbBlockBegin
2
*D16
70
1
10
0
20
0
3
*D16
1

0
LINE
5
109
100
AcDbEntity
8
0
6
CONTINUOUS
62
7
370
0
100
AcDbLine
10
191.375
20
85
11
183.75
21
85
0
LINE
5
10A
100
AcDbEntity
8
0
6
CONTINUOUS
62
7
370
0
100
AcDbLine
10
191.375
20
80
11
183.75
21
80
0
LINE
5
10B
100
AcDbEntity
8
0
6
CONTINUOUS
62
7
370
0
100
AcDbLine
10
185
20
90
11
185
21
75
0
SOLID
5
10C
100
AcDbEntity
8
0
6
CONTINUOUS
62
7
370
0
100
AcDbTrace
10
185
20
85
30
0
11
184.583715342
21
87.5
31
0
12
185.416284658
22
87.5
32
0
13
185.416284658
23
87.5
33
0
0
SOLID
5
10D
100
AcDbEntity
8
0
6
CONTINUOUS
62
7
370
0
100
AcDbTrace
10
185
20
80
30
0
11
185.416284658
21
77.5
31
0
12
184.583715342
22
77.5
32
0
13
184.583715342
23
77.5
33
0
0
MTEXT
5
10E
100
AcDbEntity
8
0
6
CONTINUOUS
62
7
370
0
100
AcDbMText
10
183.125
20
82.5
30
0
40
2.5
41
1.11111111111
71
5
72
1
1
5
7
standard
210
0
220
0
230
1
50
90
73
2
44
1
0
ENDBLK
5
84
330
82
100
AcDbEntity
8
0
100
AcDbBlockEnd
0
BLOCK
5
86
330
85
100
AcDbEntity
8
0
100
AcDbBlockBegin
2
*D19
70
1
10
0
20
0
3
*D19
1

0
LINE
5
10F
100
AcDbEntity
8
0
6
CONTINUOUS
62
7
370
0
100
AcDbLine
10
8
20
131.375
11
8
21
118.75
0
LINE
5
110
100
AcDbEntity
8
0
6
CONTINUOUS
62
7
370
0
100
AcDbLine
10
-1.1481063742e-16
20
131.375
11
-2.43398551331e-15
21
118.75
0
LINE
5
111
100
AcDbEntity
8
0
6
CONTINUOUS
62
7
370
0
100
AcDbLine
10
8
20
120
11
-2.20436423847e-15
21
120
0
SOLID
5
112
100
AcDbEntity
8
0
6
CONTINUOUS
62
7
370
0
100
AcDbTrace
10
8
20
120
30
0
11
5.5
21
119.583715342
31
0
12
5.5
22
120.416284658
32
0
13
5.5
23
120.416284658
33
0
0
SOLID
5
113
100
AcDbEntity
8
0
6
CONTINUOUS
62
7
370
0
100
AcDbTrace
10
-2.20436423847e-15
20
120
30
0
11
2.5
21
120.416284658
31
0
12
2.5
22
119.583715342
32
0
13
2.5
23
119.583715342
33
0
0
MTEXT
5
114
100
AcDbEntity
8
0
6
CONTINUOUS
62
7
370
0
100
AcDbMText
10
4
20
121.875
30
0
40
2.5
41
1.11111111111
71
5
72
1
1
8
7
standard
210
0
220
0
230
1
50
360
73
2
44
1
0
ENDBLK
5
87
330
85
100
AcDbEntity
8
0
100
AcDbBlockEnd
0
BLOCK
5
89
330
88
100
AcDbEntity
8
0
100
AcDbBlockBegin
2
*D21
70
1
10
0
20
0
3
*D21
1

0
LINE
5
115
100
AcDbEntity
8
0
6
CONTINUOUS
62
7
370
0
100
AcDbLine
10
111.525
20
105.7
11
121.25
21
105.7
0
LINE
5
116
100
AcDbEntity
8
0
6
CONTINUOUS
62
7
370
0
100
AcDbLine
10
111.525
20
140
11
121.25
21
140
0
LINE
5
117
100
AcDbEntity
8
0
6
CONTINUOUS
62
7
370
0
100
AcDbLine
10
120
20
105.7
11
120
21
140
0
SOLID
5
118
100
AcDbEntity
8
0
6
CONTINUOUS
62
7
370
0
100
AcDbTrace
10
120
20
105.7
30
0
11
119.583715342
21
108.2
31
0
12
120.416284658
22
108.2
32
0
13
120.416284658
23
108.2
33
0
0
SOLID
5
119
100
AcDbEntity
8
0
6
CONTINUOUS
62
7
370
0
100
AcDbTrace
10
120
20
140
30
0
11
120.416284658
21
137.5
31
0
12
119.583715342
22
137.5
32
0
13
119.583715342
23
137.5
33
0
0
MTEXT
5
11A
100
AcDbEntity
8
0
6
CONTINUOUS
62
7
370
0
100
AcDbMText
10
118.125
20
122.85
30
0
40
2.5
41
6.11111111111
71
5
72
1
1
34.3
7
standard
210
0
220
0
230
1
50
90
73
2
44
1
0
ENDBLK
5
8A
330
88
100
AcDbEntity
8
0
100
AcDbBlockEnd
0
BLOCK
5
8C
330
8B
100
AcDbEntity
8
0
100
AcDbBlockBegin
2
*D1
70
1
10
0
20
0
3
*D1
1

0
LINE
5
11B
100
AcDbEntity
8
0
6
CONTINUOUS
62
7
370
0
100
AcDbLine
10
7.375
20
134
11
1.75
21
134
0
LINE
5
11C
100
AcDbEntity
8
0
6
CONTINUOUS
62
7
370
0
100
AcDbLine
10
7.375
20
130
11
1.75
21
130
0
LINE
5
11D
100
AcDbEntity
8
0
6
CONTINUOUS
62
7
370
0
100
AcDbLine
10
3
20
139
11
3
21
125
0
SOLID
5
11E
100
AcDbEntity
8
0
6
CONTINUOUS
62
7
370
0
100
AcDbTrace
10
3
20
134
30
0
11
2.58371534223
21
136.5
31
0
12
3.41628465777
22
136.5
32
0
13
3.41628465777
23
136.5
33
0
0
SOLID
5
11F
100
AcDbEntity
8
0
6
CONTINUOUS
62
7
370
0
100
AcDbTrace
10
3
20
130
30
0
11
3.41628465777
21
127.5
31
0
12
2.58371534223
22
127.5
32
0
13
2.58371534223
23
127.5
33
0
0
MTEXT
5
120
100
AcDbEntity
8
0
6
CONTINUOUS
62
7
370
0
100
AcDbMText
10
1.125
20
132
30
0
40
2.5
41
1.38888888889
71
5
72
1
1
4
7
standard
210
0
220
0
230
1
50
90
73
2
44
1
0
ENDBLK
5
8D
330
8B
100
AcDbEntity
8
0
100
AcDbBlockEnd
0
BLOCK
5
8F
330
8E
100
AcDbEntity
8
0
100
AcDbBlockBegin
2
*D20
70
1
10
0
20
0
3
*D20
1

0
LINE
5
121
100
AcDbEntity
8
0
6
CONTINUOUS
62
7
370
0
100
AcDbLine
10
99.375
20
124.5
11
78.75
21
124.5
0
LINE
5
122
100
AcDbEntity
8
0
6
CONTINUOUS
62
7
370
0
100
AcDbLine
10
99.375
20
140
11
78.75
21
140
0
LINE
5
123
100
AcDbEntity
8
0
6
CONTINUOUS
62
7
370
0
100
AcDbLine
10
80
20
124.5
11
80
21
140
0
SOLID
5
124
100
AcDbEntity
8
0
6
CONTINUOUS
62
7
370
0
100
AcDbTrace
10
80
20
124.5
30
0
11
79.5837153422
21
127
31
0
12
80.4162846578
22
127
32
0
13
80.4162846578
23
127
33
0
0
SOLID
5
125
100
AcDbEntity
8
0
6
CONTINUOUS
62
7
370
0
100
AcDbTrace
10
80
20
140
30
0
11
80.4162846578
21
137.5
31
0
12
79.5837153422
22
137.5
32
0
13
79.5837153422
23
137.5
33
0
0
MTEXT
5
126
100
AcDbEntity
8
0
6
CONTINUOUS
62
7
370
0
100
AcDbMText
10
78.125
20
132.25
30
0
40
2.5
41
5.27777777778
71
5
72
1
1
15.5
7
standard
210
0
220
0
230
1
50
90
73
2
44
1
0
ENDBLK
5
90
330
8E
100
AcDbEntity
8
0
100
AcDbBlockEnd
0
ENDSEC
0
SECTION
2
ENTITIES
0
LINE
5
127
100
AcDbEntity
8
0
6
ByLayer
62
256
370
-1
100
AcDbLine
10
0
20
140
11
0
21
80
0
LINE
5
128
100
AcDbEntity
8
0
6
ByLayer
62
256
370
-1
100
AcDbLine
10
0
20
80
11
60
21
80
0
LINE
5
129
100
AcDbEntity
8
0
6
ByLayer
62
256
370
-1
100
AcDbLine
10
60
20
80
11
60
21
0
0
LINE
5
12A
100
AcDbEntity
8
0
6
ByLayer
62
256
370
-1
100
AcDbLine
10
60
20
0
11
140
21
0
0
LINE
5
12B
100
AcDbEntity
8
0
6
ByLayer
62
256
370
-1
100
AcDbLine
10
140
20
0
11
140
21
80
0
LINE
5
12C
100
AcDbEntity
8
0
6
ByLayer
62
256
370
-1
100
AcDbLine
10
140
20
80
11
200
21
80
0
LINE
5
12D
100
AcDbEntity
8
0
6
ByLayer
62
256
370
-1
100
AcDbLine
10
200
20
80
11
200
21
140
0
LINE
5
12E
100
AcDbEntity
8
0
6
ByLayer
62
256
370
-1
100
AcDbLine
10
200
20
140
11
0
21
140
0
CIRCLE
5
12F
100
AcDbEntity
8
0
6
ByLayer
62
256
370
-1
100
AcDbCircle
10
8
20
132
40
2
0
CIRCLE
5
130
100
AcDbEntity
8
0
6
ByLayer
62
256
370
-1
100
AcDbCircle
10
192
20
132
40
2
0
CIRCLE
5
131
100
AcDbEntity
8
0
6
ByLayer
62
256
370
-1
100
AcDbCircle
10
8
20
85
40
2
0
CIRCLE
5
132
100
AcDbEntity
8
0
6
ByLayer
62
256
370
-1
100
AcDbCircle
10
192
20
85
40
2
0
CIRCLE
5
133
100
AcDbEntity
8
0
6
ByLayer
62
256
370
-1
100
AcDbCircle
10
65
20
8
40
2
0
CIRCLE
5
134
100
AcDbEntity
8
0
6
ByLayer
62
256
370
-1
100
AcDbCircle
10
135
20
8
40
2
0
DIMENSION
5
135
100
AcDbEntity
8
0
6
ByLayer
62
256
370
-1
100
AcDbDimension
2
*D1
10
3
20
130
30
0
11
1.125
21
132
31
0
70
33
71
5
3
Standard
53
0
210
0
220
0
230
1
100
AcDbAlignedDimension
13
8
23
134
33
0
14
8
24
130
34
0
0
DIMENSION
5
136
100
AcDbEntity
8
0
6
ByLayer
62
256
370
-1
100
AcDbDimension
2
*D2
10
4
20
83
30
0
11
2.125
21
85
31
0
70
33
71
5
3
Standard
53
0
210
0
220
0
230
1
100
AcDbAlignedDimension
13
8
23
87
33
0
14
8
24
83
34
0
0
DIMENSION
5
137
100
AcDbEntity
8
0
6
ByLayer
62
256
370
-1
100
AcDbDimension
2
*D3
10
198
20
130
30
0
11
196.125
21
132
31
0
70
33
71
5
3
Standard
53
0
210
0
220
0
230
1
100
AcDbAlignedDimension
13
192
23
134
33
0
14
192
24
130
34
0
0
DIMENSION
5
138
100
AcDbEntity
8
0
6
ByLayer
62
256
370
-1
100
AcDbDimension
2
*D4
10
197
20
83
30
0
11
195.125
21
85
31
0
70
33
71
5
3
Standard
53
0
210
0
220
0
230
1
100
AcDbAlignedDimension
13
192
23
87
33
0
14
192
24
83
34
0
0
DIMENSION
5
139
100
AcDbEntity
8
0
6
ByLayer
62
256
370
-1
100
AcDbDimension
2
*D5
10
69
20
6
30
0
11
67.125
21
8
31
0
70
33
71
5
3
Standard
53
0
210
0
220
0
230
1
100
AcDbAlignedDimension
13
65
23
10
33
0
14
65
24
6
34
0
0
DIMENSION
5
13A
100
AcDbEntity
8
0
6
ByLayer
62
256
370
-1
100
AcDbDimension
2
*D6
10
131
20
6
30
0
11
129.125
21
8
31
0
70
33
71
5
3
Standard
53
0
210
0
220
0
230
1
100
AcDbAlignedDimension
13
135
23
10
33
0
14
135
24
6
34
0
0
DIMENSION
5
13B
100
AcDbEntity
8
0
6
ByLayer
62
256
370
-1
100
AcDbDimension
2
*D7
10
200
20
160
30
0
11
100
21
161.875
31
0
70
33
71
5
3
Standard
53
0
210
0
220
0
230
1
100
AcDbAlignedDimension
13
0
23
140
33
0
14
200
24
140
34
0
0
DIMENSION
5
13C
100
AcDbEntity
8
0
6
ByLayer
62
256
370
-1
100
AcDbDimension
2
*D8
10
230
20
140
30
0
11
228.125
21
110
31
0
70
33
71
5
3
Standard
53
0
210
0
220
0
230
1
100
AcDbAlignedDimension
13
200
23
80
33
0
14
200
24
140
34
0
0
DIMENSION
5
13D
100
AcDbEntity
8
0
6
ByLayer
62
256
370
-1
100
AcDbDimension
2
*D9
10
200
20
70
30
0
11
170
21
71.875
31
0
70
33
71
5
3
Standard
53
0
210
0
220
0
230
1
100
AcDbAlignedDimension
13
140
23
80
33
0
14
200
24
80
34
0
0
DIMENSION
5
13E
100
AcDbEntity
8
0
6
ByLayer
62
256
370
-1
100
AcDbDimension
2
*D10
10
160
20
-4.89858719659e-15
30
0
11
158.125
21
40
31
0
70
33
71
5
3
Standard
53
0
210
0
220
0
230
1
100
AcDbAlignedDimension
13
140
23
80
33
0
14
140
24
0
34
0
0
DIMENSION
5
13F
100
AcDbEntity
8
0
6
ByLayer
62
256
370
-1
100
AcDbDimension
2
*D11
10
140
20
-10
30
0
11
100
21
-8.125
31
0
70
33
71
5
3
Standard
53
0
210
0
220
0
230
1
100
AcDbAlignedDimension
13
60
23
0
33
0
14
140
24
0
34
0
0
DIMENSION
5
140
100
AcDbEntity
8
0
6
ByLayer
62
256
370
-1
100
AcDbDimension
2
*D12
10
130
20
140
30
0
11
128.125
21
126
31
0
70
33
71
5
3
Standard
53
0
210
0
220
0
230
1
100
AcDbAlignedDimension
13
100
23
112
33
0
14
100
24
140
34
0
0
DIMENSION
5
141
100
AcDbEntity
8
0
6
ByLayer
62
256
370
-1
100
AcDbDimension
2
*D13
10
16
20
140
30
0
11
14.125
21
136
31
0
70
33
71
5
3
Standard
53
0
210
0
220
0
230
1
100
AcDbAlignedDimension
13
8
23
132
33
0
14
8
24
140
34
0
0
DIMENSION
5
142
100
AcDbEntity
8
0
6
ByLayer
62
256
370
-1
100
AcDbDimension
2
*D14
10
-40
20
9.79717439318e-15
30
0
11
-41.875
21
70
31
0
70
33
71
5
3
Standard
53
0
210
0
220
0
230
1
100
AcDbAlignedDimension
13
0
23
140
33
0
14
0
24
0
34
0
0
DIMENSION
5
143
100
AcDbEntity
8
0
6
ByLayer
62
256
370
-1
100
AcDbDimension
2
*D15
10
14
20
80
30
0
11
12.125
21
82.5
31
0
70
33
71
5
3
Standard
53
0
210
0
220
0
230
1
100
AcDbAlignedDimension
13
8
23
85
33
0
14
8
24
80
34
0
0
DIMENSION
5
144
100
AcDbEntity
8
0
6
ByLayer
62
256
370
-1
100
AcDbDimension
2
*D16
10
185
20
80
30
0
11
183.125
21
82.5
31
0
70
33
71
5
3
Standard
53
0
210
0
220
0
230
1
100
AcDbAlignedDimension
13
192
23
85
33
0
14
192
24
80
34
0
0
DIMENSION
5
145
100
AcDbEntity
8
0
6
ByLayer
62
256
370
-1
100
AcDbDimension
2
*D17
10
60
20
12
30
0
11
62.5
21
13.875
31
0
70
33
71
5
3
Standard
53
0
210
0
220
0
230
1
100
AcDbAlignedDimension
13
65
23
8
33
0
14
60
24
8
34
0
0
DIMENSION
5
146
100
AcDbEntity
8
0
6
ByLayer
62
256
370
-1
100
AcDbDimension
2
*D18
10
54
20
2.96876990196e-17
30
0
11
52.125
21
4
31
0
70
33
71
5
3
Standard
53
0
210
0
220
0
230
1
100
AcDbAlignedDimension
13
65
23
8
33
0
14
65
24
0
34
0
0
DIMENSION
5
147
100
AcDbEntity
8
0
6
ByLayer
62
256
370
-1
100
AcDbDimension
2
*D19
10
-4.2800739907e-16
20
120
30
0
11
4
21
121.875
31
0
70
33
71
5
72
0
3
Standard
53
0
210
0
220
0
230
1
100
AcDbAlignedDimension
13
8
23
132
33
0
14
0
24
132
34
0
0
DIMENSION
5
148
100
AcDbEntity
8
0
6
ByLayer
62
256
370
-1
100
AcDbDimension
2
*D20
10
80
20
140
30
0
11
78.125
21
132.25
31
0
70
33
71
5
3
Standard
53
0
210
0
220
0
230
1
100
AcDbAlignedDimension
13
100
23
124.5
33
0
14
100
24
140
34
0
0
CIRCLE
5
149
100
AcDbEntity
8
0
6
ByLayer
62
256
370
-1
100
AcDbCircle
10
110.9
20
105.7
40
1.5
0
CIRCLE
5
14A
100
AcDbEntity
8
0
6
ByLayer
62
256
370
-1
100
AcDbCircle
10
89.1
20
105.7
40
1.5
0
DIMENSION
5
14B
100
AcDbEntity
8
0
6
ByLayer
62
256
370
-1
100
AcDbDimension
2
*D21
10
120
20
140
30
0
11
118.125
21
122.85
31
0
70
33
71
5
72
0
3
Standard
53
0
210
0
220
0
230
1
100
AcDbAlignedDimension
13
110.9
23
105.7
33
0
14
110.9
24
140
34
0
0
CIRCLE
5
14C
100
AcDbEntity
8
0
6
ByLayer
62
256
370
-1
100
AcDbCircle
10
100
20
124.5
40
1.5
0
CIRCLE
5
14D
100
AcDbEntity
8
0
6
ByLayer
62
256
370
-1
100
AcDbCircle
10
100
20
111.9
40
10.1
0
DIMENSION
5
14E
100
AcDbEntity
8
0
6
ByLayer
62
256
370
-1
100
AcDbDimension
2
*D22
10
80
20
102
30
0
11
78.125
21
112
31
0
70
33
71
5
3
Standard
53
0
210
0
220
0
230
1
100
AcDbAlignedDimension
13
100
23
122
33
0
14
100
24
102
34
0
0
DIMENSION
5
14F
100
AcDbEntity
8
0
6
ByLayer
62
256
370
-1
100
AcDbDimension
2
*D23
10
101.5
20
128
30
0
11
100
21
129.875
31
0
70
33
71
5
3
Standard
53
0
210
0
220
0
230
1
100
AcDbAlignedDimension
13
98.5
23
124.5
33
0
14
101.5
24
124.5
34
0
0
DIMENSION
5
150
100
AcDbEntity
8
0
6
ByLayer
62
256
370
-1
100
AcDbDimension
2
*D24
10
-3.12284933783e-15
20
95
30
0
11
50
21
96.875
31
0
70
33
71
5
3
Standard
53
0
210
0
220
0
230
1
100
AcDbAlignedDimension
13
100
23
112
33
0
14
0
24
112
34
0
0
DIMENSION
5
151
100
AcDbEntity
8
0
6
ByLayer
62
256
370
-1
100
AcDbDimension
2
*D25
10
100
20
95
30
0
11
105.45
21
96.875
31
0
70
33
71
5
72
0
3
Standard
53
0
210
0
220
0
230
1
100
AcDbAlignedDimension
13
110.9
23
105.7
33
0
14
100
24
105.7
34
0
0
ENDSEC
0
SECTION
2
OBJECTS
0
DICTIONARY
5
C
330
0
100
AcDbDictionary
281
1
3
ACAD_GROUP
350
D
0
DICTIONARY
5
D
330
C
100
AcDbDictionary
281
1
0
ENDSEC
0
EOF
