999
dxfrw 0.5.10
0
SECTION
2
HEADER
9
$ACADVER
1
AC1021
9
$HANDSEED
5
20000
9
$DWGCODEPAGE
3
ANSI_1252
9
$INSBASE
10
0
20
0
30
0
9
$EXTMIN
10
-13.125
20
-11.25
30
0
9
$EXTMAX
10
211.25
20
163.125
30
0
9
$LIMMIN
10
0
20
0
9
$LIMMAX
10
420
20
297
9
$ORTHOMODE
70
0
9
$LTSCALE
40
1
9
$TEXTSTYLE
7
STANDARD
9
$CLAYER
8
0
9
$DIMASZ
40
2.5
9
$DIMLFAC
40
1
9
$DIMSCALE
40
1
9
$DIMEXO
40
0.625
9
$DIMEXE
40
1.25
9
$DIMTXT
40
2.5
9
$DIMTSZ
40
0
9
$DIMAUNIT
70
0
9
$DIMADEC
70
0
9
$DIMLUNIT
70
2
9
$DIMSTYLE
2
STANDARD
9
$DIMGAP
40
0.625
9
$DIMTIH
70
0
9
$LUNITS
70
2
9
$LUPREC
70
4
9
$AUNITS
70
0
9
$AUPREC
70
2
9
$SPLINESEGS
70
8
9
$GRIDMODE
70
1
9
$SNAPSTYLE
70
0
9
$PINSBASE
10
0
20
0
30
0
9
$PLIMMIN
10
0
20
0
9
$PLIMMAX
10
210
20
297
9
$INSUNITS
70
0
9
$PSVPSCALE
40
1
0
ENDSEC
0
SECTION
2
CLASSES
0
ENDSEC
0
SECTION
2
TABLES
0
TABLE
2
VPORT
5
8
330
0
100
AcDbSymbolTable
70
1
0
VPORT
5
31
330
2
100
AcDbSymbolTableRecord
100
AcDbViewportTableRecord
2
*ACTIVE
70
0
10
0
20
0
11
1
21
1
12
170.109015429
22
83.47770659
13
0
23
0
14
10
24
10
15
10
25
10
16
0
26
0
36
1
17
0
27
0
37
0
40
177.34375
41
2.11715481172
42
50
43
0
44
0
50
0
51
0
71
0
72
100
73
1
74
3
75
0
76
1
77
0
78
0
281
0
65
1
110
0
120
0
130
0
111
1
121
0
131
0
112
0
122
1
132
0
79
0
146
0
348
10020
60
7
61
5
292
1
282
1
141
0
142
0
63
250
421
3358443
0
ENDTAB
0
TABLE
2
LTYPE
5
5
330
0
100
AcDbSymbolTable
70
4
0
LTYPE
5
14
330
5
100
AcDbSymbolTableRecord
100
AcDbLinetypeTableRecord
2
ByBlock
70
0
3

72
65
73
0
40
0
0
LTYPE
5
15
330
5
100
AcDbSymbolTableRecord
100
AcDbLinetypeTableRecord
2
ByLayer
70
0
3

72
65
73
0
40
0
0
LTYPE
5
16
330
5
100
AcDbSymbolTableRecord
100
AcDbLinetypeTableRecord
2
Continuous
70
0
3
Solid line
72
65
73
0
40
0
0
LTYPE
5
32
330
5
100
AcDbSymbolTableRecord
100
AcDbLinetypeTableRecord
2
DOT
70
0
3
Dot . . . . . . . . . . . . . . . . . . . . . .
72
65
73
2
40
6.35
49
0
74
0
49
-6.35
74
0
0
LTYPE
5
33
330
5
100
AcDbSymbolTableRecord
100
AcDbLinetypeTableRecord
2
DOT2
70
0
3
Dot (.5x) .....................................
72
65
73
2
40
3.175
49
0
74
0
49
-3.175
74
0
0
LTYPE
5
34
330
5
100
AcDbSymbolTableRecord
100
AcDbLinetypeTableRecord
2
DOTX2
70
0
3
Dot (2x) .  .  .  .  .  .  .  .  .  .  .  .  .
72
65
73
2
40
12.7
49
0
74
0
49
-12.7
74
0
0
LTYPE
5
35
330
5
100
AcDbSymbolTableRecord
100
AcDbLinetypeTableRecord
2
DASHED
70
0
3
Dot . . . . . . . . . . . . . . . . . . . . . .
72
65
73
2
40
19.05
49
12.7
74
0
49
-6.35
74
0
0
LTYPE
5
36
330
5
100
AcDbSymbolTableRecord
100
AcDbLinetypeTableRecord
2
DASHED2
70
0
3
Dashed (.5x) _ _ _ _ _ _ _ _ _ _ _ _ _ _ _ _ _
72
65
73
2
40
9.525
49
6.35
74
0
49
-3.175
74
0
0
LTYPE
5
37
330
5
100
AcDbSymbolTableRecord
100
AcDbLinetypeTableRecord
2
DASHEDX2
70
0
3
Dashed (2x) ____  ____  ____  ____  ____  ___
72
65
73
2
40
38.1
49
25.4
74
0
49
-12.7
74
0
0
LTYPE
5
38
330
5
100
AcDbSymbolTableRecord
100
AcDbLinetypeTableRecord
2
DASHDOT
70
0
3
Dash dot __ . __ . __ . __ . __ . __ . __ . __
72
65
73
4
40
25.4
49
12.7
74
0
49
-6.35
74
0
49
0
74
0
49
-6.35
74
0
0
LTYPE
5
39
330
5
100
AcDbSymbolTableRecord
100
AcDbLinetypeTableRecord
2
DASHDOT2
70
0
3
Dash dot (.5x) _._._._._._._._._._._._._._._.
72
65
73
4
40
12.7
49
6.35
74
0
49
-3.175
74
0
49
0
74
0
49
-3.175
74
0
0
LTYPE
5
3A
330
5
100
AcDbSymbolTableRecord
100
AcDbLinetypeTableRecord
2
DASHDOTX2
70
0
3
Dash dot (2x) ____  .  ____  .  ____  .  ___
72
65
73
4
40
50.8
49
25.4
74
0
49
-12.7
74
0
49
0
74
0
49
-12.7
74
0
0
LTYPE
5
3B
330
5
100
AcDbSymbolTableRecord
100
AcDbLinetypeTableRecord
2
DIVIDE
70
0
3
Divide ____ . . ____ . . ____ . . ____ . . ____
72
65
73
6
40
31.75
49
12.7
74
0
49
-6.35
74
0
49
0
74
0
49
-6.35
74
0
49
0
74
0
49
-6.35
74
0
0
LTYPE
5
3C
330
5
100
AcDbSymbolTableRecord
100
AcDbLinetypeTableRecord
2
DIVIDE2
70
0
3
Divide (.5x) __..__..__..__..__..__..__..__.._
72
65
73
6
40
15.875
49
6.35
74
0
49
-3.175
74
0
49
0
74
0
49
-3.175
74
0
49
0
74
0
49
-3.175
74
0
0
LTYPE
5
3D
330
5
100
AcDbSymbolTableRecord
100
AcDbLinetypeTableRecord
2
DIVIDEX2
70
0
3
Divide (2x) ________  .  .  ________  .  .  _
72
65
73
6
40
63.5
49
25.4
74
0
49
-12.7
74
0
49
0
74
0
49
-12.7
74
0
49
0
74
0
49
-12.7
74
0
0
LTYPE
5
3E
330
5
100
AcDbSymbolTableRecord
100
AcDbLinetypeTableRecord
2
BORDER
70
0
3
Border __ __ . __ __ . __ __ . __ __ . __ __ .
72
65
73
6
40
44.45
49
12.7
74
0
49
-6.35
74
0
49
12.7
74
0
49
-6.35
74
0
49
0
74
0
49
-6.35
74
0
0
LTYPE
5
3F
330
5
100
AcDbSymbolTableRecord
100
AcDbLinetypeTableRecord
2
BORDER2
70
0
3
Border (.5x) __.__.__.__.__.__.__.__.__.__.__.
72
65
73
6
40
22.225
49
6.35
74
0
49
-3.175
74
0
49
6.35
74
0
49
-3.175
74
0
49
0
74
0
49
-3.175
74
0
0
LTYPE
5
40
330
5
100
AcDbSymbolTableRecord
100
AcDbLinetypeTableRecord
2
BORDERX2
70
0
3
Border (2x) ____  ____  .  ____  ____  .  ___
72
65
73
6
40
88.9
49
25.4
74
0
49
-12.7
74
0
49
25.4
74
0
49
-12.7
74
0
49
0
74
0
49
-12.7
74
0
0
LTYPE
5
41
330
5
100
AcDbSymbolTableRecord
100
AcDbLinetypeTableRecord
2
CENTER
70
0
3
Center ____ _ ____ _ ____ _ ____ _ ____ _ ____
72
65
73
4
40
50.8
49
31.75
74
0
49
-6.35
74
0
49
6.35
74
0
49
-6.35
74
0
0
LTYPE
5
42
330
5
100
AcDbSymbolTableRecord
100
AcDbLinetypeTableRecord
2
CENTER2
70
0
3
Center (.5x) ___ _ ___ _ ___ _ ___ _ ___ _ ___
72
65
73
4
40
28.575
49
19.05
74
0
49
-3.175
74
0
49
3.175
74
0
49
-3.175
74
0
0
LTYPE
5
43
330
5
100
AcDbSymbolTableRecord
100
AcDbLinetypeTableRecord
2
CENTERX2
70
0
3
Center (2x) ________  __  ________  __  _____
72
65
73
4
40
101.6
49
63.5
74
0
49
-12.7
74
0
49
12.7
74
0
49
-12.7
74
0
0
ENDTAB
0
TABLE
2
LAYER
5
2
330
0
100
AcDbSymbolTable
70
1
0
LAYER
5
10
330
2
100
AcDbSymbolTableRecord
100
AcDbLayerTableRecord
2
0
70
0
62
7
6
CONTINUOUS
370
0
390
F
0
ENDTAB
0
TABLE
2
STYLE
5
3
330
0
100
AcDbSymbolTable
70
3
0
STYLE
5
44
330
2
100
AcDbSymbolTableRecord
100
AcDbTextStyleTableRecord
2
Standard
70
0
40
0
41
1
50
0
71
0
42
1
3
txt
4

0
ENDTAB
0
TABLE
2
VIEW
5
6
330
0
100
AcDbSymbolTable
70
0
0
ENDTAB
0
TABLE
2
UCS
5
7
330
0
100
AcDbSymbolTable
70
0
0
ENDTAB
0
TABLE
2
APPID
5
9
330
0
100
AcDbSymbolTable
70
1
0
APPID
5
12
330
9
100
AcDbSymbolTableRecord
100
AcDbRegAppTableRecord
2
ACAD
70
0
0
ENDTAB
0
TABLE
2
DIMSTYLE
5
A
330
0
100
AcDbSymbolTable
70
1
100
AcDbDimStyleTable
71
1
0
DIMSTYLE
105
45
330
A
100
AcDbSymbolTableRecord
100
AcDbDimStyleTableRecord
2
Standard
70
0
40
1
41
2.5
42
0.625
43
0.38
44
1.25
45
0
46
0
47
0
48
0
140
2.5
141
0.09
142
0
143
25.4
144
1
145
0
146
1
147
0.625
148
0
71
0
72
0
73
0
74
1
75
0
76
0
77
0
78
0
79
0
170
0
171
2
172
0
173
0
174
0
175
0
176
0
177
0
178
0
179
0
271
4
272
4
273
2
274
2
275
0
276
0
277
2
278
46
279
0
280
0
281
0
282
0
283
1
284
0
285
0
286
0
288
0
289
3
340
Standard
341

371
-2
372
-2
0
ENDTAB
0
TABLE
2
BLOCK_RECORD
5
1
330
0
100
AcDbSymbolTable
70
2
0
BLOCK_RECORD
5
1F
330
1
100
AcDbSymbolTableRecord
100
AcDbBlockTableRecord
2
*Model_Space
70
0
280
1
281
0
0
BLOCK_RECORD
5
1E
330
1
100
AcDbSymbolTableRecord
100
AcDbBlockTableRecord
2
*Paper_Space
70
0
280
1
281
0
0
BLOCK_RECORD
5
46
330
1
100
AcDbSymbolTableRecord
100
AcDbBlockTableRecord
2
*D12
70
0
280
1
281
0
0
BLOCK_RECORD
5
49
330
1
100
AcDbSymbolTableRecord
100
AcDbBlockTableRecord
2
*D21
70
0
280
1
281
0
0
BLOCK_RECORD
5
4C
330
1
100
AcDbSymbolTableRecord
100
AcDbBlockTableRecord
2
*D3
70
0
280
1
281
0
0
BLOCK_RECORD
5
4F
330
1
100
AcDbSymbolTableRecord
100
AcDbBlockTableRecord
2
*D1
70
0
280
1
281
0
0
BLOCK_RECORD
5
52
330
1
100
AcDbSymbolTableRecord
100
AcDbBlockTableRecord
2
*D8
70
0
280
1
281
0
0
BLOCK_RECORD
5
55
330
1
100
AcDbSymbolTableRecord
100
AcDbBlockTableRecord
2
*D2
70
0
280
1
281
0
0
BLOCK_RECORD
5
58
330
1
100
AcDbSymbolTableRecord
100
AcDbBlockTableRecord
2
*D15
70
0
280
1
281
0
0
BLOCK_RECORD
5
5B
330
1
100
AcDbSymbolTableRecord
100
AcDbBlockTableRecord
2
*D11
70
0
280
1
281
0
0
BLOCK_RECORD
5
5E
330
1
100
AcDbSymbolTableRecord
100
AcDbBlockTableRecord
2
*D13
70
0
280
1
281
0
0
BLOCK_RECORD
5
61
330
1
100
AcDbSymbolTableRecord
100
AcDbBlockTableRecord
2
*D19
70
0
280
1
281
0
0
BLOCK_RECORD
5
64
330
1
100
AcDbSymbolTableRecord
100
AcDbBlockTableRecord
2
*D20
70
0
280
1
281
0
0
BLOCK_RECORD
5
67
330
1
100
AcDbSymbolTableRecord
100
AcDbBlockTableRecord
2
*D14
70
0
280
1
281
0
0
BLOCK_RECORD
5
6A
330
1
100
AcDbSymbolTableRecord
100
AcDbBlockTableRecord
2
*D16
70
0
280
1
281
0
0
BLOCK_RECORD
5
6D
330
1
100
AcDbSymbolTableRecord
100
AcDbBlockTableRecord
2
*D17
70
0
280
1
281
0
0
BLOCK_RECORD
5
70
330
1
100
AcDbSymbolTableRecord
100
AcDbBlockTableRecord
2
*D18
70
0
280
1
281
0
0
BLOCK_RECORD
5
73
330
1
100
AcDbSymbolTableRecord
100
AcDbBlockTableRecord
2
*D5
70
0
280
1
281
0
0
BLOCK_RECORD
5
76
330
1
100
AcDbSymbolTableRecord
100
AcDbBlockTableRecord
2
*D10
70
0
280
1
281
0
0
BLOCK_RECORD
5
79
330
1
100
AcDbSymbolTableRecord
100
AcDbBlockTableRecord
2
*D7
70
0
280
1
281
0
0
BLOCK_RECORD
5
7C
330
1
100
AcDbSymbolTableRecord
100
AcDbBlockTableRecord
2
*D9
70
0
280
1
281
0
0
BLOCK_RECORD
5
7F
330
1
100
AcDbSymbolTableRecord
100
AcDbBlockTableRecord
2
*D6
70
0
280
1
281
0
0
BLOCK_RECORD
5
82
330
1
100
AcDbSymbolTableRecord
100
AcDbBlockTableRecord
2
*D4
70
0
280
1
281
0
0
ENDTAB
0
ENDSEC
0
SECTION
2
BLOCKS
0
BLOCK
5
20
330
1F
100
AcDbEntity
8
0
100
AcDbBlockBegin
2
*Model_Space
70
0
10
0
20
0
30
0
3
*Model_Space
1

0
ENDBLK
5
21
330
1F
100
AcDbEntity
8
0
100
AcDbBlockEnd
0
BLOCK
5
1C
330
1B
100
AcDbEntity
8
0
100
AcDbBlockBegin
2
*Paper_Space
70
0
10
0
20
0
30
0
3
*Paper_Space
1

0
ENDBLK
5
1D
330
1F
100
AcDbEntity
8
0
100
AcDbBlockEnd
0
BLOCK
5
47
330
46
100
AcDbEntity
8
0
100
AcDbBlockBegin
2
*D12
70
1
10
0
20
0
3
*D12
1

0
LINE
5
85
100
AcDbEntity
8
0
6
CONTINUOUS
62
7
370
0
100
AcDbLine
10
65
20
8.625
11
65
21
13.25
0
LINE
5
86
100
AcDbEntity
8
0
6
CONTINUOUS
62
7
370
0
100
AcDbLine
10
60
20
8.625
11
60
21
13.25
0
LINE
5
87
100
AcDbEntity
8
0
6
CONTINUOUS
62
7
370
0
100
AcDbLine
10
70
20
12
11
55
21
12
0
SOLID
5
88
100
AcDbEntity
8
0
6
CONTINUOUS
62
7
370
0
100
AcDbTrace
10
65
20
12
30
0
11
67.5
21
12.4162846578
31
0
12
67.5
22
11.5837153422
32
0
13
67.5
23
11.5837153422
33
0
0
SOLID
5
89
100
AcDbEntity
8
0
6
CONTINUOUS
62
7
370
0
100
AcDbTrace
10
60
20
12
30
0
11
57.5
21
11.5837153422
31
0
12
57.5
22
12.4162846578
32
0
13
57.5
23
12.4162846578
33
0
0
MTEXT
5
8A
100
AcDbEntity
8
0
6
CONTINUOUS
62
7
370
0
100
AcDbMText
10
62.5
20
13.875
30
0
40
2.5
41
1.11111111111
71
5
72
1
1
5
7
standard
210
0
220
0
230
1
50
360
73
2
44
1
0
ENDBLK
5
48
330
46
100
AcDbEntity
8
0
100
AcDbBlockEnd
0
BLOCK
5
4A
330
49
100
AcDbEntity
8
0
100
AcDbBlockBegin
2
*D21
70
1
10
0
20
0
3
*D21
1

0
LINE
5
8B
100
AcDbEntity
8
0
6
CONTINUOUS
62
7
370
0
100
AcDbLine
10
161.9
20
111.375
11
161.9
21
98.75
0
LINE
5
8C
100
AcDbEntity
8
0
6
CONTINUOUS
62
7
370
0
100
AcDbLine
10
200
20
111.375
11
200
21
98.75
0
LINE
5
8D
100
AcDbEntity
8
0
6
CONTINUOUS
62
7
370
0
100
AcDbLine
10
161.9
20
100
11
200
21
100
0
SOLID
5
8E
100
AcDbEntity
8
0
6
CONTINUOUS
62
7
370
0
100
AcDbTrace
10
161.9
20
100
30
0
11
164.4
21
100.416284658
31
0
12
164.4
22
99.5837153422
32
0
13
164.4
23
99.5837153422
33
0
0
SOLID
5
8F
100
AcDbEntity
8
0
6
CONTINUOUS
62
7
370
0
100
AcDbTrace
10
200
20
100
30
0
11
197.5
21
99.5837153422
31
0
12
197.5
22
100.416284658
32
0
13
197.5
23
100.416284658
33
0
0
MTEXT
5
90
100
AcDbEntity
8
0
6
CONTINUOUS
62
7
370
0
100
AcDbMText
10
180.95
20
101.875
30
0
40
2.5
41
5.27777777778
71
5
72
1
1
38.1
7
standard
210
0
220
0
230
1
50
360
73
2
44
1
0
ENDBLK
5
4B
330
49
100
AcDbEntity
8
0
100
AcDbBlockEnd
0
BLOCK
5
4D
330
4C
100
AcDbEntity
8
0
100
AcDbBlockBegin
2
*D3
70
1
10
0
20
0
3
*D3
1

0
LINE
5
91
100
AcDbEntity
8
0
6
CONTINUOUS
62
7
370
0
100
AcDbLine
10
140
20
79.375
11
140
21
68.75
0
LINE
5
92
100
AcDbEntity
8
0
6
CONTINUOUS
62
7
370
0
100
AcDbLine
10
200
20
79.375
11
200
21
68.75
0
LINE
5
93
100
AcDbEntity
8
0
6
CONTINUOUS
62
7
370
0
100
AcDbLine
10
140
20
70
11
200
21
70
0
SOLID
5
94
100
AcDbEntity
8
0
6
CONTINUOUS
62
7
370
0
100
AcDbTrace
10
140
20
70
30
0
11
142.5
21
70.4162846578
31
0
12
142.5
22
69.5837153422
32
0
13
142.5
23
69.5837153422
33
0
0
SOLID
5
95
100
AcDbEntity
8
0
6
CONTINUOUS
62
7
370
0
100
AcDbTrace
10
200
20
70
30
0
11
197.5
21
69.5837153422
31
0
12
197.5
22
70.4162846578
32
0
13
197.5
23
70.4162846578
33
0
0
MTEXT
5
96
100
AcDbEntity
8
0
6
CONTINUOUS
62
7
370
0
100
AcDbMText
10
170
20
71.875
30
0
40
2.5
41
3.05555555556
71
5
72
1
1
60
7
standard
210
0
220
0
230
1
50
0
73
2
44
1
0
ENDBLK
5
4E
330
4C
100
AcDbEntity
8
0
100
AcDbBlockEnd
0
BLOCK
5
50
330
4F
100
AcDbEntity
8
0
100
AcDbBlockBegin
2
*D1
70
1
10
0
20
0
3
*D1
1

0
LINE
5
97
100
AcDbEntity
8
0
6
CONTINUOUS
62
7
370
0
100
AcDbLine
10
3.82702124734e-17
20
140.625
11
6.8886382452e-16
21
151.25
0
LINE
5
98
100
AcDbEntity
8
0
6
CONTINUOUS
62
7
370
0
100
AcDbLine
10
200
20
140.625
11
200
21
151.25
0
LINE
5
99
100
AcDbEntity
8
0
6
CONTINUOUS
62
7
370
0
100
AcDbLine
10
6.12323399574e-16
20
150
11
200
21
150
0
SOLID
5
9A
100
AcDbEntity
8
0
6
CONTINUOUS
62
7
370
0
100
AcDbTrace
10
6.12323399574e-16
20
150
30
0
11
2.5
21
150.416284658
31
0
12
2.5
22
149.583715342
32
0
13
2.5
23
149.583715342
33
0
0
SOLID
5
9B
100
AcDbEntity
8
0
6
CONTINUOUS
62
7
370
0
100
AcDbTrace
10
200
20
150
30
0
11
197.5
21
149.583715342
31
0
12
197.5
22
150.416284658
32
0
13
197.5
23
150.416284658
33
0
0
MTEXT
5
9C
100
AcDbEntity
8
0
6
CONTINUOUS
62
7
370
0
100
AcDbMText
10
100
20
151.875
30
0
40
2.5
41
5
71
5
72
1
1
200
7
standard
210
0
220
0
230
1
50
0
73
2
44
1
0
ENDBLK
5
51
330
4F
100
AcDbEntity
8
0
100
AcDbBlockEnd
0
BLOCK
5
53
330
52
100
AcDbEntity
8
0
100
AcDbBlockBegin
2
*D8
70
1
10
0
20
0
3
*D8
1

0
LINE
5
9D
100
AcDbEntity
8
0
6
CONTINUOUS
62
7
370
0
100
AcDbLine
10
8.625
20
85
11
15.25
21
85
0
LINE
5
9E
100
AcDbEntity
8
0
6
CONTINUOUS
62
7
370
0
100
AcDbLine
10
8.625
20
80
11
15.25
21
80
0
LINE
5
9F
100
AcDbEntity
8
0
6
CONTINUOUS
62
7
370
0
100
AcDbLine
10
14
20
90
11
14
21
75
0
SOLID
5
A0
100
AcDbEntity
8
0
6
CONTINUOUS
62
7
370
0
100
AcDbTrace
10
14
20
85
30
0
11
13.5837153422
21
87.5
31
0
12
14.4162846578
22
87.5
32
0
13
14.4162846578
23
87.5
33
0
0
SOLID
5
A1
100
AcDbEntity
8
0
6
CONTINUOUS
62
7
370
0
100
AcDbTrace
10
14
20
80
30
0
11
14.4162846578
21
77.5
31
0
12
13.5837153422
22
77.5
32
0
13
13.5837153422
23
77.5
33
0
0
MTEXT
5
A2
100
AcDbEntity
8
0
6
CONTINUOUS
62
7
370
0
100
AcDbMText
10
12.125
20
82.5
30
0
40
2.5
41
1.11111111111
71
5
72
1
1
5
7
standard
210
0
220
0
230
1
50
90
73
2
44
1
0
ENDBLK
5
54
330
52
100
AcDbEntity
8
0
100
AcDbBlockEnd
0
BLOCK
5
56
330
55
100
AcDbEntity
8
0
100
AcDbBlockBegin
2
*D2
70
1
10
0
20
0
3
*D2
1

0
LINE
5
A3
100
AcDbEntity
8
0
6
CONTINUOUS
62
7
370
0
100
AcDbLine
10
200.625
20
140
11
211.25
21
140
0
LINE
5
A4
100
AcDbEntity
8
0
6
CONTINUOUS
62
7
370
0
100
AcDbLine
10
200.625
20
80
11
211.25
21
80
0
LINE
5
A5
100
AcDbEntity
8
0
6
CONTINUOUS
62
7
370
0
100
AcDbLine
10
210
20
140
11
210
21
80
0
SOLID
5
A6
100
AcDbEntity
8
0
6
CONTINUOUS
62
7
370
0
100
AcDbTrace
10
210
20
140
30
0
11
210.416284658
21
137.5
31
0
12
209.583715342
22
137.5
32
0
13
209.583715342
23
137.5
33
0
0
SOLID
5
A7
100
AcDbEntity
8
0
6
CONTINUOUS
62
7
370
0
100
AcDbTrace
10
210
20
80
30
0
11
209.583715342
21
82.5
31
0
12
210.416284658
22
82.5
32
0
13
210.416284658
23
82.5
33
0
0
MTEXT
5
A8
100
AcDbEntity
8
0
6
CONTINUOUS
62
7
370
0
100
AcDbMText
10
208.125
20
110
30
0
40
2.5
41
3.05555555556
71
5
72
1
1
60
7
standard
210
0
220
0
230
1
50
90
73
2
44
1
0
ENDBLK
5
57
330
55
100
AcDbEntity
8
0
100
AcDbBlockEnd
0
BLOCK
5
59
330
58
100
AcDbEntity
8
0
100
AcDbBlockBegin
2
*D15
70
1
10
0
20
0
3
*D15
1

0
LINE
5
A9
100
AcDbEntity
8
0
6
CONTINUOUS
62
7
370
0
100
AcDbLine
10
38.1
20
125.125
11
38.1
21
161.25
0
LINE
5
AA
100
AcDbEntity
8
0
6
CONTINUOUS
62
7
370
0
100
AcDbLine
10
2.32559241783e-16
20
125.125
11
1.04659388757e-14
21
161.25
0
LINE
5
AB
100
AcDbEntity
8
0
6
CONTINUOUS
62
7
370
0
100
AcDbLine
10
38.1
20
160
11
1.01118426946e-14
21
160
0
SOLID
5
AC
100
AcDbEntity
8
0
6
CONTINUOUS
62
7
370
0
100
AcDbTrace
10
38.1
20
160
30
0
11
35.6
21
159.583715342
31
0
12
35.6
22
160.416284658
32
0
13
35.6
23
160.416284658
33
0
0
SOLID
5
AD
100
AcDbEntity
8
0
6
CONTINUOUS
62
7
370
0
100
AcDbTrace
10
1.01118426946e-14
20
160
30
0
11
2.5
21
160.416284658
31
0
12
2.5
22
159.583715342
32
0
13
2.5
23
159.583715342
33
0
0
MTEXT
5
AE
100
AcDbEntity
8
0
6
CONTINUOUS
62
7
370
0
100
AcDbMText
10
19.05
20
161.875
30
0
40
2.5
41
5.27777777778
71
5
72
1
1
38.1
7
standard
210
0
220
0
230
1
50
360
73
2
44
1
0
ENDBLK
5
5A
330
58
100
AcDbEntity
8
0
100
AcDbBlockEnd
0
BLOCK
5
5C
330
5B
100
AcDbEntity
8
0
100
AcDbBlockBegin
2
*D11
70
1
10
0
20
0
3
*D11
1

0
LINE
5
AF
100
AcDbEntity
8
0
6
CONTINUOUS
62
7
370
0
100
AcDbLine
10
8.625
20
132
11
13.25
21
132
0
LINE
5
B0
100
AcDbEntity
8
0
6
CONTINUOUS
62
7
370
0
100
AcDbLine
10
8.625
20
140
11
13.25
21
140
0
LINE
5
B1
100
AcDbEntity
8
0
6
CONTINUOUS
62
7
370
0
100
AcDbLine
10
12
20
132
11
12
21
140
0
SOLID
5
B2
100
AcDbEntity
8
0
6
CONTINUOUS
62
7
370
0
100
AcDbTrace
10
12
20
132
30
0
11
11.5837153422
21
134.5
31
0
12
12.4162846578
22
134.5
32
0
13
12.4162846578
23
134.5
33
0
0
SOLID
5
B3
100
AcDbEntity
8
0
6
CONTINUOUS
62
7
370
0
100
AcDbTrace
10
12
20
140
30
0
11
12.4162846578
21
137.5
31
0
12
11.5837153422
22
137.5
32
0
13
11.5837153422
23
137.5
33
0
0
MTEXT
5
B4
100
AcDbEntity
8
0
6
CONTINUOUS
62
7
370
0
100
AcDbMText
10
10.125
20
136
30
0
40
2.5
41
1.11111111111
71
5
72
1
1
8
7
standard
210
0
220
0
230
1
50
90
73
2
44
1
0
ENDBLK
5
5D
330
5B
100
AcDbEntity
8
0
100
AcDbBlockEnd
0
BLOCK
5
5F
330
5E
100
AcDbEntity
8
0
100
AcDbBlockBegin
2
*D13
70
1
10
0
20
0
3
*D13
1

0
LINE
5
B5
100
AcDbEntity
8
0
6
CONTINUOUS
62
7
370
0
100
AcDbLine
10
65.625
20
8
11
71.25
21
8
0
LINE
5
B6
100
AcDbEntity
8
0
6
CONTINUOUS
62
7
370
0
100
AcDbLine
10
65.625
20
-1.53080849893e-16
11
71.25
21
-1.53080849893e-15
0
LINE
5
B7
100
AcDbEntity
8
0
6
CONTINUOUS
62
7
370
0
100
AcDbLine
10
70
20
8
11
70
21
-1.22464679915e-15
0
SOLID
5
B8
100
AcDbEntity
8
0
6
CONTINUOUS
62
7
370
0
100
AcDbTrace
10
70
20
8
30
0
11
70.4162846578
21
5.5
31
0
12
69.5837153422
22
5.5
32
0
13
69.5837153422
23
5.5
33
0
0
SOLID
5
B9
100
AcDbEntity
8
0
6
CONTINUOUS
62
7
370
0
100
AcDbTrace
10
70
20
-1.22464679915e-15
30
0
11
69.5837153422
21
2.5
31
0
12
70.4162846578
22
2.5
32
0
13
70.4162846578
23
2.5
33
0
0
MTEXT
5
BA
100
AcDbEntity
8
0
6
CONTINUOUS
62
7
370
0
100
AcDbMText
10
68.125
20
4
30
0
40
2.5
41
1.11111111111
71
5
72
1
1
8
7
standard
210
0
220
0
230
1
50
90
73
2
44
1
0
ENDBLK
5
60
330
5E
100
AcDbEntity
8
0
100
AcDbBlockEnd
0
BLOCK
5
62
330
61
100
AcDbEntity
8
0
100
AcDbBlockBegin
2
*D19
70
1
10
0
20
0
3
*D19
1

0
LINE
5
BB
100
AcDbEntity
8
0
6
CONTINUOUS
62
7
370
0
100
AcDbLine
10
27.825
20
105.7
11
41.25
21
105.7
0
LINE
5
BC
100
AcDbEntity
8
0
6
CONTINUOUS
62
7
370
0
100
AcDbLine
10
27.825
20
80
11
41.25
21
80
0
LINE
5
BD
100
AcDbEntity
8
0
6
CONTINUOUS
62
7
370
0
100
AcDbLine
10
40
20
105.7
11
40
21
80
0
SOLID
5
BE
100
AcDbEntity
8
0
6
CONTINUOUS
62
7
370
0
100
AcDbTrace
10
40
20
105.7
30
0
11
40.4162846578
21
103.2
31
0
12
39.5837153422
22
103.2
32
0
13
39.5837153422
23
103.2
33
0
0
SOLID
5
BF
100
AcDbEntity
8
0
6
CONTINUOUS
62
7
370
0
100
AcDbTrace
10
40
20
80
30
0
11
39.5837153422
21
82.5
31
0
12
40.4162846578
22
82.5
32
0
13
40.4162846578
23
82.5
33
0
0
MTEXT
5
C0
100
AcDbEntity
8
0
6
CONTINUOUS
62
7
370
0
100
AcDbMText
10
38.125
20
92.85
30
0
40
2.5
41
5.83333333333
71
5
72
1
1
25.7
7
standard
210
0
220
0
230
1
50
90
73
2
44
1
0
ENDBLK
5
63
330
61
100
AcDbEntity
8
0
100
AcDbBlockEnd
0
BLOCK
5
65
330
64
100
AcDbEntity
8
0
100
AcDbBlockBegin
2
*D20
70
1
10
0
20
0
3
*D20
1

0
LINE
5
C1
100
AcDbEntity
8
0
6
CONTINUOUS
62
7
370
0
100
AcDbLine
10
162.525
20
112
11
181.25
21
112
0
LINE
5
C2
100
AcDbEntity
8
0
6
CONTINUOUS
62
7
370
0
100
AcDbLine
10
162.525
20
140
11
181.25
21
140
0
LINE
5
C3
100
AcDbEntity
8
0
6
CONTINUOUS
62
7
370
0
100
AcDbLine
10
180
20
112
11
180
21
140
0
SOLID
5
C4
100
AcDbEntity
8
0
6
CONTINUOUS
62
7
370
0
100
AcDbTrace
10
180
20
112
30
0
11
179.583715342
21
114.5
31
0
12
180.416284658
22
114.5
32
0
13
180.416284658
23
114.5
33
0
0
SOLID
5
C5
100
AcDbEntity
8
0
6
CONTINUOUS
62
7
370
0
100
AcDbTrace
10
180
20
140
30
0
11
180.416284658
21
137.5
31
0
12
179.583715342
22
137.5
32
0
13
179.583715342
23
137.5
33
0
0
MTEXT
5
C6
100
AcDbEntity
8
0
6
CONTINUOUS
62
7
370
0
100
AcDbMText
10
178.125
20
126
30
0
40
2.5
41
3.05555555556
71
5
72
1
1
28
7
standard
210
0
220
0
230
1
50
90
73
2
44
1
0
ENDBLK
5
66
330
64
100
AcDbEntity
8
0
100
AcDbBlockEnd
0
BLOCK
5
68
330
67
100
AcDbEntity
8
0
100
AcDbBlockBegin
2
*D14
70
1
10
0
20
0
3
*D14
1

0
LINE
5
C7
100
AcDbEntity
8
0
6
CONTINUOUS
62
7
370
0
100
AcDbLine
10
38.725
20
124.5
11
50.25
21
124.5
0
LINE
5
C8
100
AcDbEntity
8
0
6
CONTINUOUS
62
7
370
0
100
AcDbLine
10
38.725
20
140
11
50.25
21
140
0
LINE
5
C9
100
AcDbEntity
8
0
6
CONTINUOUS
62
7
370
0
100
AcDbLine
10
49
20
124.5
11
49
21
140
0
SOLID
5
CA
100
AcDbEntity
8
0
6
CONTINUOUS
62
7
370
0
100
AcDbTrace
10
49
20
124.5
30
0
11
48.5837153422
21
127
31
0
12
49.4162846578
22
127
32
0
13
49.4162846578
23
127
33
0
0
SOLID
5
CB
100
AcDbEntity
8
0
6
CONTINUOUS
62
7
370
0
100
AcDbTrace
10
49
20
140
30
0
11
49.4162846578
21
137.5
31
0
12
48.5837153422
22
137.5
32
0
13
48.5837153422
23
137.5
33
0
0
MTEXT
5
CC
100
AcDbEntity
8
0
6
CONTINUOUS
62
7
370
0
100
AcDbMText
10
47.125
20
132.25
30
0
40
2.5
41
5.27777777778
71
5
72
1
1
15.5
7
standard
210
0
220
0
230
1
50
90
73
2
44
1
0
ENDBLK
5
69
330
67
100
AcDbEntity
8
0
100
AcDbBlockEnd
0
BLOCK
5
6B
330
6A
100
AcDbEntity
8
0
100
AcDbBlockBegin
2
*D16
70
1
10
0
20
0
3
*D16
1

0
LINE
5
CD
100
AcDbEntity
8
0
6
CONTINUOUS
62
7
370
0
100
AcDbLine
10
37.475
20
112
11
18.75
21
112
0
LINE
5
CE
100
AcDbEntity
8
0
6
CONTINUOUS
62
7
370
0
100
AcDbLine
10
37.475
20
140
11
18.75
21
140
0
LINE
5
CF
100
AcDbEntity
8
0
6
CONTINUOUS
62
7
370
0
100
AcDbLine
10
20
20
112
11
20
21
140
0
SOLID
5
D0
100
AcDbEntity
8
0
6
CONTINUOUS
62
7
370
0
100
AcDbTrace
10
20
20
112
30
0
11
19.5837153422
21
114.5
31
0
12
20.4162846578
22
114.5
32
0
13
20.4162846578
23
114.5
33
0
0
SOLID
5
D1
100
AcDbEntity
8
0
6
CONTINUOUS
62
7
370
0
100
AcDbTrace
10
20
20
140
30
0
11
20.4162846578
21
137.5
31
0
12
19.5837153422
22
137.5
32
0
13
19.5837153422
23
137.5
33
0
0
MTEXT
5
D2
100
AcDbEntity
8
0
6
CONTINUOUS
62
7
370
0
100
AcDbMText
10
18.125
20
126
30
0
40
2.5
41
3.05555555556
71
5
72
1
1
28
7
standard
210
0
220
0
230
1
50
90
73
2
44
1
0
ENDBLK
5
6C
330
6A
100
AcDbEntity
8
0
100
AcDbBlockEnd
0
BLOCK
5
6E
330
6D
100
AcDbEntity
8
0
100
AcDbBlockBegin
2
*D17
70
1
10
0
20
0
3
*D17
1

0
LINE
5
D3
100
AcDbEntity
8
0
6
CONTINUOUS
62
7
370
0
100
AcDbLine
10
49.625
20
107.2
11
56.25
21
107.2
0
LINE
5
D4
100
AcDbEntity
8
0
6
CONTINUOUS
62
7
370
0
100
AcDbLine
10
49.625
20
104.2
11
56.25
21
104.2
0
LINE
5
D5
100
AcDbEntity
8
0
6
CONTINUOUS
62
7
370
0
100
AcDbLine
10
55
20
112.2
11
55
21
99.2
0
SOLID
5
D6
100
AcDbEntity
8
0
6
CONTINUOUS
62
7
370
0
100
AcDbTrace
10
55
20
107.2
30
0
11
54.5837153422
21
109.7
31
0
12
55.4162846578
22
109.7
32
0
13
55.4162846578
23
109.7
33
0
0
SOLID
5
D7
100
AcDbEntity
8
0
6
CONTINUOUS
62
7
370
0
100
AcDbTrace
10
55
20
104.2
30
0
11
55.4162846578
21
101.7
31
0
12
54.5837153422
22
101.7
32
0
13
54.5837153422
23
101.7
33
0
0
MTEXT
5
D8
100
AcDbEntity
8
0
6
CONTINUOUS
62
7
370
0
100
AcDbMText
10
53.125
20
105.7
30
0
40
2.5
41
1.11111111111
71
5
72
1
1
3
7
standard
210
0
220
0
230
1
50
90
73
2
44
1
0
ENDBLK
5
6F
330
6D
100
AcDbEntity
8
0
100
AcDbBlockEnd
0
BLOCK
5
71
330
70
100
AcDbEntity
8
0
100
AcDbBlockBegin
2
*D18
70
1
10
0
20
0
3
*D18
1

0
LINE
5
D9
100
AcDbEntity
8
0
6
CONTINUOUS
62
7
370
0
100
AcDbLine
10
27.2
20
105.075
11
27.2
21
98.75
0
LINE
5
DA
100
AcDbEntity
8
0
6
CONTINUOUS
62
7
370
0
100
AcDbLine
10
-3.15439105732e-17
20
105.075
11
-1.19342756126e-15
21
98.75
0
LINE
5
DB
100
AcDbEntity
8
0
6
CONTINUOUS
62
7
370
0
100
AcDbLine
10
27.2
20
100
11
-9.63806286424e-16
21
100
0
SOLID
5
DC
100
AcDbEntity
8
0
6
CONTINUOUS
62
7
370
0
100
AcDbTrace
10
27.2
20
100
30
0
11
24.7
21
99.5837153422
31
0
12
24.7
22
100.416284658
32
0
13
24.7
23
100.416284658
33
0
0
SOLID
5
DD
100
AcDbEntity
8
0
6
CONTINUOUS
62
7
370
0
100
AcDbTrace
10
-9.63806286424e-16
20
100
30
0
11
2.5
21
100.416284658
31
0
12
2.5
22
99.5837153422
32
0
13
2.5
23
99.5837153422
33
0
0
MTEXT
5
DE
100
AcDbEntity
8
0
6
CONTINUOUS
62
7
370
0
100
AcDbMText
10
13.6
20
101.875
30
0
40
2.5
41
5.83333333333
71
5
72
1
1
27.2
7
standard
210
0
220
0
230
1
50
360
73
2
44
1
0
ENDBLK
5
72
330
70
100
AcDbEntity
8
0
100
AcDbBlockEnd
0
BLOCK
5
74
330
73
100
AcDbEntity
8
0
100
AcDbBlockBegin
2
*D5
70
1
10
0
20
0
3
*D5
1

0
LINE
5
DF
100
AcDbEntity
8
0
6
CONTINUOUS
62
7
370
0
100
AcDbLine
10
60
20
-0.625
11
60
21
-11.25
0
LINE
5
E0
100
AcDbEntity
8
0
6
CONTINUOUS
62
7
370
0
100
AcDbLine
10
140
20
-0.625
11
140
21
-11.25
0
LINE
5
E1
100
AcDbEntity
8
0
6
CONTINUOUS
62
7
370
0
100
AcDbLine
10
60
20
-10
11
140
21
-10
0
SOLID
5
E2
100
AcDbEntity
8
0
6
CONTINUOUS
62
7
370
0
100
AcDbTrace
10
60
20
-10
30
0
11
62.5
21
-9.58371534223
31
0
12
62.5
22
-10.4162846578
32
0
13
62.5
23
-10.4162846578
33
0
0
SOLID
5
E3
100
AcDbEntity
8
0
6
CONTINUOUS
62
7
370
0
100
AcDbTrace
10
140
20
-10
30
0
11
137.5
21
-10.4162846578
31
0
12
137.5
22
-9.58371534223
32
0
13
137.5
23
-9.58371534223
33
0
0
MTEXT
5
E4
100
AcDbEntity
8
0
6
CONTINUOUS
62
7
370
0
100
AcDbMText
10
100
20
-8.125
30
0
40
2.5
41
3.05555555556
71
5
72
1
1
80
7
standard
210
0
220
0
230
1
50
0
73
2
44
1
0
ENDBLK
5
75
330
73
100
AcDbEntity
8
0
100
AcDbBlockEnd
0
BLOCK
5
77
330
76
100
AcDbEntity
8
0
100
AcDbBlockBegin
2
*D10
70
1
10
0
20
0
3
*D10
1

0
LINE
5
E5
100
AcDbEntity
8
0
6
CONTINUOUS
62
7
370
0
100
AcDbLine
10
8
20
131.375
11
8
21
126.75
0
LINE
5
E6
100
AcDbEntity
8
0
6
CONTINUOUS
62
7
370
0
100
AcDbLine
10
-1.1481063742e-16
20
131.375
11
-9.64409354329e-16
21
126.75
0
LINE
5
E7
100
AcDbEntity
8
0
6
CONTINUOUS
62
7
370
0
100
AcDbLine
10
8
20
128
11
-7.34788079488e-16
21
128
0
SOLID
5
E8
100
AcDbEntity
8
0
6
CONTINUOUS
62
7
370
0
100
AcDbTrace
10
8
20
128
30
0
11
5.5
21
127.583715342
31
0
12
5.5
22
128.416284658
32
0
13
5.5
23
128.416284658
33
0
0
SOLID
5
E9
100
AcDbEntity
8
0
6
CONTINUOUS
62
7
370
0
100
AcDbTrace
10
-7.34788079488e-16
20
128
30
0
11
2.5
21
128.416284658
31
0
12
2.5
22
127.583715342
32
0
13
2.5
23
127.583715342
33
0
0
MTEXT
5
EA
100
AcDbEntity
8
0
6
CONTINUOUS
62
7
370
0
100
AcDbMText
10
4
20
129.875
30
0
40
2.5
41
1.11111111111
71
5
72
1
1
8
7
standard
210
0
220
0
230
1
50
360
73
2
44
1
0
ENDBLK
5
78
330
76
100
AcDbEntity
8
0
100
AcDbBlockEnd
0
BLOCK
5
7A
330
79
100
AcDbEntity
8
0
100
AcDbBlockBegin
2
*D7
70
1
10
0
20
0
3
*D7
1

0
LINE
5
EB
100
AcDbEntity
8
0
6
CONTINUOUS
62
7
370
0
100
AcDbLine
10
6
20
85.625
11
6
21
90.25
0
LINE
5
EC
100
AcDbEntity
8
0
6
CONTINUOUS
62
7
370
0
100
AcDbLine
10
10
20
85.625
11
10
21
90.25
0
LINE
5
ED
100
AcDbEntity
8
0
6
CONTINUOUS
62
7
370
0
100
AcDbLine
10
1
20
89
11
15
21
89
0
SOLID
5
EE
100
AcDbEntity
8
0
6
CONTINUOUS
62
7
370
0
100
AcDbTrace
10
6
20
89
30
0
11
3.5
21
88.5837153422
31
0
12
3.5
22
89.4162846578
32
0
13
3.5
23
89.4162846578
33
0
0
SOLID
5
EF
100
AcDbEntity
8
0
6
CONTINUOUS
62
7
370
0
100
AcDbTrace
10
10
20
89
30
0
11
12.5
21
89.4162846578
31
0
12
12.5
22
88.5837153422
32
0
13
12.5
23
88.5837153422
33
0
0
MTEXT
5
F0
100
AcDbEntity
8
0
6
CONTINUOUS
62
7
370
0
100
AcDbMText
10
8
20
90.875
30
0
40
2.5
41
1.38888888889
71
5
72
1
1
4
7
standard
210
0
220
0
230
1
50
0
73
2
44
1
0
ENDBLK
5
7B
330
79
100
AcDbEntity
8
0
100
AcDbBlockEnd
0
BLOCK
5
7D
330
7C
100
AcDbEntity
8
0
100
AcDbBlockBegin
2
*D9
70
1
10
0
20
0
3
*D9
1

0
LINE
5
F1
100
AcDbEntity
8
0
6
CONTINUOUS
62
7
370
0
100
AcDbLine
10
8
20
84.375
11
8
21
80.75
0
LINE
5
F2
100
AcDbEntity
8
0
6
CONTINUOUS
62
7
370
0
100
AcDbLine
10
-1.1481063742e-16
20
84.375
11
-7.80712334456e-16
21
80.75
0
LINE
5
F3
100
AcDbEntity
8
0
6
CONTINUOUS
62
7
370
0
100
AcDbLine
10
8
20
82
11
-5.51091059616e-16
21
82
0
SOLID
5
F4
100
AcDbEntity
8
0
6
CONTINUOUS
62
7
370
0
100
AcDbTrace
10
8
20
82
30
0
11
5.5
21
81.5837153422
31
0
12
5.5
22
82.4162846578
32
0
13
5.5
23
82.4162846578
33
0
0
SOLID
5
F5
100
AcDbEntity
8
0
6
CONTINUOUS
62
7
370
0
100
AcDbTrace
10
-5.51091059616e-16
20
82
30
0
11
2.5
21
82.4162846578
31
0
12
2.5
22
81.5837153422
32
0
13
2.5
23
81.5837153422
33
0
0
MTEXT
5
F6
100
AcDbEntity
8
0
6
CONTINUOUS
62
7
370
0
100
AcDbMText
10
4
20
83.875
30
0
40
2.5
41
1.11111111111
71
5
72
1
1
8
7
standard
210
0
220
0
230
1
50
360
73
2
44
1
0
ENDBLK
5
7E
330
7C
100
AcDbEntity
8
0
100
AcDbBlockEnd
0
BLOCK
5
80
330
7F
100
AcDbEntity
8
0
100
AcDbBlockBegin
2
*D6
70
1
10
0
20
0
3
*D6
1

0
LINE
5
F7
100
AcDbEntity
8
0
6
CONTINUOUS
62
7
370
0
100
AcDbLine
10
-0.625
20
140
11
-11.25
21
140
0
LINE
5
F8
100
AcDbEntity
8
0
6
CONTINUOUS
62
7
370
0
100
AcDbLine
10
-0.625
20
7.65404249467e-17
11
-11.25
21
1.37772764904e-15
0
LINE
5
F9
100
AcDbEntity
8
0
6
CONTINUOUS
62
7
370
0
100
AcDbLine
10
-10
20
140
11
-10
21
1.22464679915e-15
0
SOLID
5
FA
100
AcDbEntity
8
0
6
CONTINUOUS
62
7
370
0
100
AcDbTrace
10
-10
20
140
30
0
11
-9.58371534223
21
137.5
31
0
12
-10.4162846578
22
137.5
32
0
13
-10.4162846578
23
137.5
33
0
0
SOLID
5
FB
100
AcDbEntity
8
0
6
CONTINUOUS
62
7
370
0
100
AcDbTrace
10
-10
20
1.22464679915e-15
30
0
11
-10.4162846578
21
2.5
31
0
12
-9.58371534223
22
2.5
32
0
13
-9.58371534223
23
2.5
33
0
0
MTEXT
5
FC
100
AcDbEntity
8
0
6
CONTINUOUS
62
7
370
0
100
AcDbMText
10
-11.875
20
70
30
0
40
2.5
41
4.72222222222
71
5
72
1
1
140
7
standard
210
0
220
0
230
1
50
90
73
2
44
1
0
ENDBLK
5
81
330
7F
100
AcDbEntity
8
0
100
AcDbBlockEnd
0
BLOCK
5
83
330
82
100
AcDbEntity
8
0
100
AcDbBlockBegin
2
*D4
70
1
10
0
20
0
3
*D4
1

0
LINE
5
FD
100
AcDbEntity
8
0
6
CONTINUOUS
62
7
370
0
100
AcDbLine
10
140.625
20
80
11
151.25
21
80
0
LINE
5
FE
100
AcDbEntity
8
0
6
CONTINUOUS
62
7
370
0
100
AcDbLine
10
140.625
20
-1.53080849893e-16
11
151.25
21
-2.75545529808e-15
0
LINE
5
FF
100
AcDbEntity
8
0
6
CONTINUOUS
62
7
370
0
100
AcDbLine
10
150
20
80
11
150
21
-2.44929359829e-15
0
SOLID
5
100
100
AcDbEntity
8
0
6
CONTINUOUS
62
7
370
0
100
AcDbTrace
10
150
20
80
30
0
11
150.416284658
21
77.5
31
0
12
149.583715342
22
77.5
32
0
13
149.583715342
23
77.5
33
0
0
SOLID
5
101
100
AcDbEntity
8
0
6
CONTINUOUS
62
7
370
0
100
AcDbTrace
10
150
20
-2.44929359829e-15
30
0
11
149.583715342
21
2.5
31
0
12
150.416284658
22
2.5
32
0
13
150.416284658
23
2.5
33
0
0
MTEXT
5
102
100
AcDbEntity
8
0
6
CONTINUOUS
62
7
370
0
100
AcDbMText
10
148.125
20
40
30
0
40
2.5
41
3.05555555556
71
5
72
1
1
80
7
standard
210
0
220
0
230
1
50
90
73
2
44
1
0
ENDBLK
5
84
330
82
100
AcDbEntity
8
0
100
AcDbBlockEnd
0
ENDSEC
0
SECTION
2
ENTITIES
0
LINE
5
103
100
AcDbEntity
8
0
6
ByLayer
62
256
370
-1
100
AcDbLine
10
0
20
140
11
0
21
80
0
LINE
5
104
100
AcDbEntity
8
0
6
ByLayer
62
256
370
-1
100
AcDbLine
10
0
20
80
11
60
21
80
0
LINE
5
105
100
AcDbEntity
8
0
6
ByLayer
62
256
370
-1
100
AcDbLine
10
60
20
80
11
60
21
0
0
LINE
5
106
100
AcDbEntity
8
0
6
ByLayer
62
256
370
-1
100
AcDbLine
10
60
20
0
11
140
21
0
0
LINE
5
107
100
AcDbEntity
8
0
6
ByLayer
62
256
370
-1
100
AcDbLine
10
140
20
0
11
140
21
80
0
LINE
5
108
100
AcDbEntity
8
0
6
ByLayer
62
256
370
-1
100
AcDbLine
10
140
20
80
11
200
21
80
0
LINE
5
109
100
AcDbEntity
8
0
6
ByLayer
62
256
370
-1
100
AcDbLine
10
200
20
80
11
200
21
140
0
LINE
5
10A
100
AcDbEntity
8
0
6
ByLayer
62
256
370
-1
100
AcDbLine
10
200
20
140
11
0
21
140
0
CIRCLE
5
10B
100
AcDbEntity
8
0
6
ByLayer
62
256
370
-1
100
AcDbCircle
10
8
20
132
40
2
0
CIRCLE
5
10C
100
AcDbEntity
8
0
6
ByLayer
62
256
370
-1
100
AcDbCircle
10
192
20
132
40
2
0
CIRCLE
5
10D
100
AcDbEntity
8
0
6
ByLayer
62
256
370
-1
100
AcDbCircle
10
8
20
85
40
2
0
CIRCLE
5
10E
100
AcDbEntity
8
0
6
ByLayer
62
256
370
-1
100
AcDbCircle
10
192
20
85
40
2
0
CIRCLE
5
10F
100
AcDbEntity
8
0
6
ByLayer
62
256
370
-1
100
AcDbCircle
10
65
20
8
40
2
0
CIRCLE
5
110
100
AcDbEntity
8
0
6
ByLayer
62
256
370
-1
100
AcDbCircle
10
135
20
8
40
2
0
CIRCLE
5
111
100
AcDbEntity
8
0
6
ByLayer
62
256
370
-1
100
AcDbCircle
10
38.1
20
124.5
40
1.5
0
CIRCLE
5
112
100
AcDbEntity
8
0
6
ByLayer
62
256
370
-1
100
AcDbCircle
10
27.2
20
105.7
40
1.5
0
CIRCLE
5
113
100
AcDbEntity
8
0
6
ByLayer
62
256
370
-1
100
AcDbCircle
10
49
20
105.7
40
1.5
0
CIRCLE
5
114
100
AcDbEntity
8
0
6
ByLayer
62
256
370
-1
100
AcDbCircle
10
38.1
20
112
40
10
0
CIRCLE
5
115
100
AcDbEntity
8
0
6
ByLayer
62
256
370
-1
100
AcDbCircle
10
161.9
20
112
40
10
0
CIRCLE
5
116
100
AcDbEntity
8
0
6
ByLayer
62
256
370
-1
100
AcDbCircle
10
161.9
20
124.5
40
1.5
0
CIRCLE
5
117
100
AcDbEntity
8
0
6
ByLayer
62
256
370
-1
100
AcDbCircle
10
151
20
105.7
40
1.5
0
CIRCLE
5
118
100
AcDbEntity
8
0
6
ByLayer
62
256
370
-1
100
AcDbCircle
10
172.8
20
105.7
40
1.5
0
DIMENSION
5
119
100
AcDbEntity
8
0
6
ByLayer
62
256
370
-1
100
AcDbDimension
2
*D1
10
200
20
150
30
0
11
100
21
151.875
31
0
70
33
71
5
3
Standard
53
0
210
0
220
0
230
1
100
AcDbAlignedDimension
13
0
23
140
33
0
14
200
24
140
34
0
0
DIMENSION
5
11A
100
AcDbEntity
8
0
6
ByLayer
62
256
370
-1
100
AcDbDimension
2
*D2
10
210
20
80
30
0
11
208.125
21
110
31
0
70
33
71
5
3
Standard
53
0
210
0
220
0
230
1
100
AcDbAlignedDimension
13
200
23
140
33
0
14
200
24
80
34
0
0
DIMENSION
5
11B
100
AcDbEntity
8
0
6
ByLayer
62
256
370
-1
100
AcDbDimension
2
*D3
10
200
20
70
30
0
11
170
21
71.875
31
0
70
33
71
5
3
Standard
53
0
210
0
220
0
230
1
100
AcDbAlignedDimension
13
140
23
80
33
0
14
200
24
80
34
0
0
DIMENSION
5
11C
100
AcDbEntity
8
0
6
ByLayer
62
256
370
-1
100
AcDbDimension
2
*D4
10
150
20
-2.44929359829e-15
30
0
11
148.125
21
40
31
0
70
33
71
5
3
Standard
53
0
210
0
220
0
230
1
100
AcDbAlignedDimension
13
140
23
80
33
0
14
140
24
0
34
0
0
DIMENSION
5
11D
100
AcDbEntity
8
0
6
ByLayer
62
256
370
-1
100
AcDbDimension
2
*D5
10
140
20
-10
30
0
11
100
21
-8.125
31
0
70
33
71
5
3
Standard
53
0
210
0
220
0
230
1
100
AcDbAlignedDimension
13
60
23
0
33
0
14
140
24
0
34
0
0
DIMENSION
5
11E
100
AcDbEntity
8
0
6
ByLayer
62
256
370
-1
100
AcDbDimension
2
*D6
10
-10
20
2.44929359829e-15
30
0
11
-11.875
21
70
31
0
70
33
71
5
3
Standard
53
0
210
0
220
0
230
1
100
AcDbAlignedDimension
13
0
23
140
33
0
14
0
24
0
34
0
0
DIMENSION
5
11F
100
AcDbEntity
8
0
6
ByLayer
62
256
370
-1
100
AcDbDimension
2
*D7
10
10
20
89
30
0
11
8
21
90.875
31
0
70
33
71
5
3
Standard
53
0
210
0
220
0
230
1
100
AcDbAlignedDimension
13
6
23
85
33
0
14
10
24
85
34
0
0
DIMENSION
5
120
100
AcDbEntity
8
0
6
ByLayer
62
256
370
-1
100
AcDbDimension
2
*D8
10
14
20
80
30
0
11
12.125
21
82.5
31
0
70
33
71
5
3
Standard
53
0
210
0
220
0
230
1
100
AcDbAlignedDimension
13
8
23
85
33
0
14
8
24
80
34
0
0
DIMENSION
5
121
100
AcDbEntity
8
0
6
ByLayer
62
256
370
-1
100
AcDbDimension
2
*D9
10
-5.51091059616e-16
20
82
30
0
11
4
21
83.875
31
0
70
33
71
5
3
Standard
53
0
210
0
220
0
230
1
100
AcDbAlignedDimension
13
8
23
85
33
0
14
0
24
85
34
0
0
DIMENSION
5
122
100
AcDbEntity
8
0
6
ByLayer
62
256
370
-1
100
AcDbDimension
2
*D10
10
-7.34788079488e-16
20
128
30
0
11
4
21
129.875
31
0
70
33
71
5
3
Standard
53
0
210
0
220
0
230
1
100
AcDbAlignedDimension
13
8
23
132
33
0
14
0
24
132
34
0
0
DIMENSION
5
123
100
AcDbEntity
8
0
6
ByLayer
62
256
370
-1
100
AcDbDimension
2
*D11
10
12
20
140
30
0
11
10.125
21
136
31
0
70
33
71
5
3
Standard
53
0
210
0
220
0
230
1
100
AcDbAlignedDimension
13
8
23
132
33
0
14
8
24
140
34
0
0
DIMENSION
5
124
100
AcDbEntity
8
0
6
ByLayer
62
256
370
-1
100
AcDbDimension
2
*D12
10
60
20
12
30
0
11
62.5
21
13.875
31
0
70
33
71
5
3
Standard
53
0
210
0
220
0
230
1
100
AcDbAlignedDimension
13
65
23
8
33
0
14
60
24
8
34
0
0
DIMENSION
5
125
100
AcDbEntity
8
0
6
ByLayer
62
256
370
-1
100
AcDbDimension
2
*D13
10
70
20
-1.22464679915e-15
30
0
11
68.125
21
4
31
0
70
33
71
5
3
Standard
53
0
210
0
220
0
230
1
100
AcDbAlignedDimension
13
65
23
8
33
0
14
65
24
0
34
0
0
DIMENSION
5
126
100
AcDbEntity
8
0
6
ByLayer
62
256
370
-1
100
AcDbDimension
2
*D14
10
49
20
140
30
0
11
47.125
21
132.25
31
0
70
33
71
5
3
Standard
53
0
210
0
220
0
230
1
100
AcDbAlignedDimension
13
38.1
23
124.5
33
0
14
38.1
24
140
34
0
0
DIMENSION
5
127
100
AcDbEntity
8
0
6
ByLayer
62
256
370
-1
100
AcDbDimension
2
*D15
10
6.57675535669e-15
20
160
30
0
11
19.05
21
161.875
31
0
70
33
71
5
3
Standard
53
0
210
0
220
0
230
1
100
AcDbAlignedDimension
13
38.1
23
124.5
33
0
14
5.55111512313e-17
24
124.5
34
0
0
DIMENSION
5
128
100
AcDbEntity
8
0
6
ByLayer
62
256
370
-1
100
AcDbDimension
2
*D16
10
20
20
140
30
0
11
18.125
21
126
31
0
70
33
71
5
3
Standard
53
0
210
0
220
0
230
1
100
AcDbAlignedDimension
13
38.1
23
112
33
0
14
38.1
24
140
34
0
0
DIMENSION
5
129
100
AcDbEntity
8
0
6
ByLayer
62
256
370
-1
100
AcDbDimension
2
*D17
10
55
20
104.2
30
0
11
53.125
21
105.7
31
0
70
33
71
5
3
Standard
53
0
210
0
220
0
230
1
100
AcDbAlignedDimension
13
49
23
107.2
33
0
14
49
24
104.2
34
0
0
DIMENSION
5
12A
100
AcDbEntity
8
0
6
ByLayer
62
256
370
-1
100
AcDbDimension
2
*D18
10
-9.63806286424e-16
20
100
30
0
11
13.6
21
101.875
31
0
70
33
71
5
3
Standard
53
0
210
0
220
0
230
1
100
AcDbAlignedDimension
13
27.2
23
105.7
33
0
14
8.32667268469e-17
24
105.7
34
0
0
DIMENSION
5
12B
100
AcDbEntity
8
0
6
ByLayer
62
256
370
-1
100
AcDbDimension
2
*D19
10
40
20
80
30
0
11
38.125
21
92.85
31
0
70
33
71
5
3
Standard
53
0
210
0
220
0
230
1
100
AcDbAlignedDimension
13
27.2
23
105.7
33
0
14
27.2
24
80
34
0
0
DIMENSION
5
12C
100
AcDbEntity
8
0
6
ByLayer
62
256
370
-1
100
AcDbDimension
2
*D20
10
180
20
140
30
0
11
178.125
21
126
31
0
70
33
71
5
3
Standard
53
0
210
0
220
0
230
1
100
AcDbAlignedDimension
13
161.9
23
112
33
0
14
161.9
24
140
34
0
0
DIMENSION
5
12D
100
AcDbEntity
8
0
6
ByLayer
62
256
370
-1
100
AcDbDimension
2
*D21
10
200
20
100
30
0
11
180.95
21
101.875
31
0
70
33
71
5
3
Standard
53
0
210
0
220
0
230
1
100
AcDbAlignedDimension
13
161.9
23
112
33
0
14
200
24
112
34
0
0
ENDSEC
0
SECTION
2
OBJECTS
0
DICTIONARY
5
C
330
0
100
AcDbDictionary
281
1
3
ACAD_GROUP
350
D
0
DICTIONARY
5
D
330
C
100
AcDbDictionary
281
1
0
ENDSEC
0
EOF
