  0
SECTION
  2
BLOCKS
  0
ENDSEC
  0
SECTION
  2
ENTITIES
  0
LINE
  8
0
 10
747
 20
300
 11
583
 21
300
  0
LINE
  8
0
 10
583
 20
300
 11
583
 21
0
  0
LINE
  8
0
 10
583
 20
0
 11
747
 21
0
  0
LINE
  8
0
 10
747
 20
0
 11
747
 21
300
  0
LINE
  8
0
 10
726.906
 20
278.503
 11
726.812
 21
278.512
  0
LINE
  8
0
 10
726.812
 20
278.512
 11
726.719
 21
278.527
  0
LINE
  8
0
 10
726.719
 20
278.527
 11
726.627
 21
278.547
  0
LINE
  8
0
 10
726.627
 20
278.547
 11
726.536
 21
278.573
  0
LINE
  8
0
 10
726.536
 20
278.573
 11
726.448
 21
278.605
  0
LINE
  8
0
 10
726.448
 20
278.605
 11
726.361
 21
278.643
  0
LINE
  8
0
 10
726.361
 20
278.643
 11
726.277
 21
278.686
  0
LINE
  8
0
 10
726.277
 20
278.686
 11
726.196
 21
278.734
  0
LINE
  8
0
 10
726.196
 20
278.734
 11
726.118
 21
278.786
  0
LINE
  8
0
 10
726.118
 20
278.786
 11
726.044
 21
278.844
  0
LINE
  8
0
 10
726.044
 20
278.844
 11
725.973
 21
278.907
  0
LINE
  8
0
 10
725.973
 20
278.907
 11
725.907
 21
278.973
  0
LINE
  8
0
 10
725.907
 20
278.973
 11
725.844
 21
279.044
  0
LINE
  8
0
 10
725.844
 20
279.044
 11
725.786
 21
279.118
  0
LINE
  8
0
 10
725.786
 20
279.118
 11
725.734
 21
279.196
  0
LINE
  8
0
 10
725.734
 20
279.196
 11
725.686
 21
279.277
  0
LINE
  8
0
 10
725.686
 20
279.277
 11
725.643
 21
279.361
  0
LINE
  8
0
 10
725.643
 20
279.361
 11
725.605
 21
279.448
  0
LINE
  8
0
 10
725.605
 20
279.448
 11
725.573
 21
279.536
  0
LINE
  8
0
 10
725.573
 20
279.536
 11
725.547
 21
279.627
  0
LINE
  8
0
 10
725.547
 20
279.627
 11
725.527
 21
279.719
  0
LINE
  8
0
 10
725.527
 20
279.719
 11
725.512
 21
279.812
  0
LINE
  8
0
 10
725.512
 20
279.812
 11
725.503
 21
279.906
  0
LINE
  8
0
 10
725.503
 20
279.906
 11
725.5
 21
280
  0
LINE
  8
0
 10
725.5
 20
280
 11
725.503
 21
280.094
  0
LINE
  8
0
 10
725.503
 20
280.094
 11
725.512
 21
280.188
  0
LINE
  8
0
 10
725.512
 20
280.188
 11
725.527
 21
280.281
  0
LINE
  8
0
 10
725.527
 20
280.281
 11
725.547
 21
280.373
  0
LINE
  8
0
 10
725.547
 20
280.373
 11
725.573
 21
280.464
  0
LINE
  8
0
 10
725.573
 20
280.464
 11
725.605
 21
280.552
  0
LINE
  8
0
 10
725.605
 20
280.552
 11
725.643
 21
280.639
  0
LINE
  8
0
 10
725.643
 20
280.639
 11
725.686
 21
280.723
  0
LINE
  8
0
 10
725.686
 20
280.723
 11
725.734
 21
280.804
  0
LINE
  8
0
 10
725.734
 20
280.804
 11
725.786
 21
280.882
  0
LINE
  8
0
 10
725.786
 20
280.882
 11
725.844
 21
280.956
  0
LINE
  8
0
 10
725.844
 20
280.956
 11
725.907
 21
281.027
  0
LINE
  8
0
 10
725.907
 20
281.027
 11
725.973
 21
281.093
  0
LINE
  8
0
 10
725.973
 20
281.093
 11
726.044
 21
281.156
  0
LINE
  8
0
 10
726.044
 20
281.156
 11
726.118
 21
281.214
  0
LINE
  8
0
 10
726.118
 20
281.214
 11
726.196
 21
281.266
  0
LINE
  8
0
 10
726.196
 20
281.266
 11
726.277
 21
281.314
  0
LINE
  8
0
 10
726.277
 20
281.314
 11
726.361
 21
281.357
  0
LINE
  8
0
 10
726.361
 20
281.357
 11
726.448
 21
281.395
  0
LINE
  8
0
 10
726.448
 20
281.395
 11
726.536
 21
281.427
  0
LINE
  8
0
 10
726.536
 20
281.427
 11
726.627
 21
281.453
  0
LINE
  8
0
 10
726.627
 20
281.453
 11
726.719
 21
281.473
  0
LINE
  8
0
 10
726.719
 20
281.473
 11
726.812
 21
281.488
  0
LINE
  8
0
 10
726.812
 20
281.488
 11
726.906
 21
281.497
  0
LINE
  8
0
 10
726.906
 20
281.497
 11
727
 21
281.5
  0
LINE
  8
0
 10
727
 20
281.5
 11
727.094
 21
281.497
  0
LINE
  8
0
 10
727.094
 20
281.497
 11
727.188
 21
281.488
  0
LINE
  8
0
 10
727.188
 20
281.488
 11
727.281
 21
281.473
  0
LINE
  8
0
 10
727.281
 20
281.473
 11
727.373
 21
281.453
  0
LINE
  8
0
 10
727.373
 20
281.453
 11
727.464
 21
281.427
  0
LINE
  8
0
 10
727.464
 20
281.427
 11
727.552
 21
281.395
  0
LINE
  8
0
 10
727.552
 20
281.395
 11
727.639
 21
281.357
  0
LINE
  8
0
 10
727.639
 20
281.357
 11
727.723
 21
281.314
  0
LINE
  8
0
 10
727.723
 20
281.314
 11
727.804
 21
281.266
  0
LINE
  8
0
 10
727.804
 20
281.266
 11
727.882
 21
281.214
  0
LINE
  8
0
 10
727.882
 20
281.214
 11
727.956
 21
281.156
  0
LINE
  8
0
 10
727.956
 20
281.156
 11
728.027
 21
281.093
  0
LINE
  8
0
 10
728.027
 20
281.093
 11
728.093
 21
281.027
  0
LINE
  8
0
 10
728.093
 20
281.027
 11
728.156
 21
280.956
  0
LINE
  8
0
 10
728.156
 20
280.956
 11
728.214
 21
280.882
  0
LINE
  8
0
 10
728.214
 20
280.882
 11
728.266
 21
280.804
  0
LINE
  8
0
 10
728.266
 20
280.804
 11
728.314
 21
280.723
  0
LINE
  8
0
 10
728.314
 20
280.723
 11
728.357
 21
280.639
  0
LINE
  8
0
 10
728.357
 20
280.639
 11
728.395
 21
280.552
  0
LINE
  8
0
 10
728.395
 20
280.552
 11
728.427
 21
280.464
  0
LINE
  8
0
 10
728.427
 20
280.464
 11
728.453
 21
280.373
  0
LINE
  8
0
 10
728.453
 20
280.373
 11
728.473
 21
280.281
  0
LINE
  8
0
 10
728.473
 20
280.281
 11
728.488
 21
280.188
  0
LINE
  8
0
 10
728.488
 20
280.188
 11
728.497
 21
280.094
  0
LINE
  8
0
 10
728.497
 20
280.094
 11
728.5
 21
280
  0
LINE
  8
0
 10
728.5
 20
280
 11
728.497
 21
279.906
  0
LINE
  8
0
 10
728.497
 20
279.906
 11
728.488
 21
279.812
  0
LINE
  8
0
 10
728.488
 20
279.812
 11
728.473
 21
279.719
  0
LINE
  8
0
 10
728.473
 20
279.719
 11
728.453
 21
279.627
  0
LINE
  8
0
 10
728.453
 20
279.627
 11
728.427
 21
279.536
  0
LINE
  8
0
 10
728.427
 20
279.536
 11
728.395
 21
279.448
  0
LINE
  8
0
 10
728.395
 20
279.448
 11
728.357
 21
279.361
  0
LINE
  8
0
 10
728.357
 20
279.361
 11
728.314
 21
279.277
  0
LINE
  8
0
 10
728.314
 20
279.277
 11
728.266
 21
279.196
  0
LINE
  8
0
 10
728.266
 20
279.196
 11
728.214
 21
279.118
  0
LINE
  8
0
 10
728.214
 20
279.118
 11
728.156
 21
279.044
  0
LINE
  8
0
 10
728.156
 20
279.044
 11
728.093
 21
278.973
  0
LINE
  8
0
 10
728.093
 20
278.973
 11
728.027
 21
278.907
  0
LINE
  8
0
 10
728.027
 20
278.907
 11
727.956
 21
278.844
  0
LINE
  8
0
 10
727.956
 20
278.844
 11
727.882
 21
278.786
  0
LINE
  8
0
 10
727.882
 20
278.786
 11
727.804
 21
278.734
  0
LINE
  8
0
 10
727.804
 20
278.734
 11
727.723
 21
278.686
  0
LINE
  8
0
 10
727.723
 20
278.686
 11
727.639
 21
278.643
  0
LINE
  8
0
 10
727.639
 20
278.643
 11
727.552
 21
278.605
  0
LINE
  8
0
 10
727.552
 20
278.605
 11
727.464
 21
278.573
  0
LINE
  8
0
 10
727.464
 20
278.573
 11
727.373
 21
278.547
  0
LINE
  8
0
 10
727.373
 20
278.547
 11
727.281
 21
278.527
  0
LINE
  8
0
 10
727.281
 20
278.527
 11
727.188
 21
278.512
  0
LINE
  8
0
 10
727.188
 20
278.512
 11
727.094
 21
278.503
  0
LINE
  8
0
 10
727.094
 20
278.503
 11
727
 21
278.5
  0
LINE
  8
0
 10
727
 20
278.5
 11
726.906
 21
278.503
  0
LINE
  8
0
 10
736.906
 20
278.503
 11
736.812
 21
278.512
  0
LINE
  8
0
 10
736.812
 20
278.512
 11
736.719
 21
278.527
  0
LINE
  8
0
 10
736.719
 20
278.527
 11
736.627
 21
278.547
  0
LINE
  8
0
 10
736.627
 20
278.547
 11
736.536
 21
278.573
  0
LINE
  8
0
 10
736.536
 20
278.573
 11
736.448
 21
278.605
  0
LINE
  8
0
 10
736.448
 20
278.605
 11
736.361
 21
278.643
  0
LINE
  8
0
 10
736.361
 20
278.643
 11
736.277
 21
278.686
  0
LINE
  8
0
 10
736.277
 20
278.686
 11
736.196
 21
278.734
  0
LINE
  8
0
 10
736.196
 20
278.734
 11
736.118
 21
278.786
  0
LINE
  8
0
 10
736.118
 20
278.786
 11
736.044
 21
278.844
  0
LINE
  8
0
 10
736.044
 20
278.844
 11
735.973
 21
278.907
  0
LINE
  8
0
 10
735.973
 20
278.907
 11
735.907
 21
278.973
  0
LINE
  8
0
 10
735.907
 20
278.973
 11
735.844
 21
279.044
  0
LINE
  8
0
 10
735.844
 20
279.044
 11
735.786
 21
279.118
  0
LINE
  8
0
 10
735.786
 20
279.118
 11
735.734
 21
279.196
  0
LINE
  8
0
 10
735.734
 20
279.196
 11
735.686
 21
279.277
  0
LINE
  8
0
 10
735.686
 20
279.277
 11
735.643
 21
279.361
  0
LINE
  8
0
 10
735.643
 20
279.361
 11
735.605
 21
279.448
  0
LINE
  8
0
 10
735.605
 20
279.448
 11
735.573
 21
279.536
  0
LINE
  8
0
 10
735.573
 20
279.536
 11
735.547
 21
279.627
  0
LINE
  8
0
 10
735.547
 20
279.627
 11
735.527
 21
279.719
  0
LINE
  8
0
 10
735.527
 20
279.719
 11
735.512
 21
279.812
  0
LINE
  8
0
 10
735.512
 20
279.812
 11
735.503
 21
279.906
  0
LINE
  8
0
 10
735.503
 20
279.906
 11
735.5
 21
280
  0
LINE
  8
0
 10
735.5
 20
280
 11
735.503
 21
280.094
  0
LINE
  8
0
 10
735.503
 20
280.094
 11
735.512
 21
280.188
  0
LINE
  8
0
 10
735.512
 20
280.188
 11
735.527
 21
280.281
  0
LINE
  8
0
 10
735.527
 20
280.281
 11
735.547
 21
280.373
  0
LINE
  8
0
 10
735.547
 20
280.373
 11
735.573
 21
280.464
  0
LINE
  8
0
 10
735.573
 20
280.464
 11
735.605
 21
280.552
  0
LINE
  8
0
 10
735.605
 20
280.552
 11
735.643
 21
280.639
  0
LINE
  8
0
 10
735.643
 20
280.639
 11
735.686
 21
280.723
  0
LINE
  8
0
 10
735.686
 20
280.723
 11
735.734
 21
280.804
  0
LINE
  8
0
 10
735.734
 20
280.804
 11
735.786
 21
280.882
  0
LINE
  8
0
 10
735.786
 20
280.882
 11
735.844
 21
280.956
  0
LINE
  8
0
 10
735.844
 20
280.956
 11
735.907
 21
281.027
  0
LINE
  8
0
 10
735.907
 20
281.027
 11
735.973
 21
281.093
  0
LINE
  8
0
 10
735.973
 20
281.093
 11
736.044
 21
281.156
  0
LINE
  8
0
 10
736.044
 20
281.156
 11
736.118
 21
281.214
  0
LINE
  8
0
 10
736.118
 20
281.214
 11
736.196
 21
281.266
  0
LINE
  8
0
 10
736.196
 20
281.266
 11
736.277
 21
281.314
  0
LINE
  8
0
 10
736.277
 20
281.314
 11
736.361
 21
281.357
  0
LINE
  8
0
 10
736.361
 20
281.357
 11
736.448
 21
281.395
  0
LINE
  8
0
 10
736.448
 20
281.395
 11
736.536
 21
281.427
  0
LINE
  8
0
 10
736.536
 20
281.427
 11
736.627
 21
281.453
  0
LINE
  8
0
 10
736.627
 20
281.453
 11
736.719
 21
281.473
  0
LINE
  8
0
 10
736.719
 20
281.473
 11
736.812
 21
281.488
  0
LINE
  8
0
 10
736.812
 20
281.488
 11
736.906
 21
281.497
  0
LINE
  8
0
 10
736.906
 20
281.497
 11
737
 21
281.5
  0
LINE
  8
0
 10
737
 20
281.5
 11
737.094
 21
281.497
  0
LINE
  8
0
 10
737.094
 20
281.497
 11
737.188
 21
281.488
  0
LINE
  8
0
 10
737.188
 20
281.488
 11
737.281
 21
281.473
  0
LINE
  8
0
 10
737.281
 20
281.473
 11
737.373
 21
281.453
  0
LINE
  8
0
 10
737.373
 20
281.453
 11
737.464
 21
281.427
  0
LINE
  8
0
 10
737.464
 20
281.427
 11
737.552
 21
281.395
  0
LINE
  8
0
 10
737.552
 20
281.395
 11
737.639
 21
281.357
  0
LINE
  8
0
 10
737.639
 20
281.357
 11
737.723
 21
281.314
  0
LINE
  8
0
 10
737.723
 20
281.314
 11
737.804
 21
281.266
  0
LINE
  8
0
 10
737.804
 20
281.266
 11
737.882
 21
281.214
  0
LINE
  8
0
 10
737.882
 20
281.214
 11
737.956
 21
281.156
  0
LINE
  8
0
 10
737.956
 20
281.156
 11
738.027
 21
281.093
  0
LINE
  8
0
 10
738.027
 20
281.093
 11
738.093
 21
281.027
  0
LINE
  8
0
 10
738.093
 20
281.027
 11
738.156
 21
280.956
  0
LINE
  8
0
 10
738.156
 20
280.956
 11
738.214
 21
280.882
  0
LINE
  8
0
 10
738.214
 20
280.882
 11
738.266
 21
280.804
  0
LINE
  8
0
 10
738.266
 20
280.804
 11
738.314
 21
280.723
  0
LINE
  8
0
 10
738.314
 20
280.723
 11
738.357
 21
280.639
  0
LINE
  8
0
 10
738.357
 20
280.639
 11
738.395
 21
280.552
  0
LINE
  8
0
 10
738.395
 20
280.552
 11
738.427
 21
280.464
  0
LINE
  8
0
 10
738.427
 20
280.464
 11
738.453
 21
280.373
  0
LINE
  8
0
 10
738.453
 20
280.373
 11
738.473
 21
280.281
  0
LINE
  8
0
 10
738.473
 20
280.281
 11
738.488
 21
280.188
  0
LINE
  8
0
 10
738.488
 20
280.188
 11
738.497
 21
280.094
  0
LINE
  8
0
 10
738.497
 20
280.094
 11
738.5
 21
280
  0
LINE
  8
0
 10
738.5
 20
280
 11
738.497
 21
279.906
  0
LINE
  8
0
 10
738.497
 20
279.906
 11
738.488
 21
279.812
  0
LINE
  8
0
 10
738.488
 20
279.812
 11
738.473
 21
279.719
  0
LINE
  8
0
 10
738.473
 20
279.719
 11
738.453
 21
279.627
  0
LINE
  8
0
 10
738.453
 20
279.627
 11
738.427
 21
279.536
  0
LINE
  8
0
 10
738.427
 20
279.536
 11
738.395
 21
279.448
  0
LINE
  8
0
 10
738.395
 20
279.448
 11
738.357
 21
279.361
  0
LINE
  8
0
 10
738.357
 20
279.361
 11
738.314
 21
279.277
  0
LINE
  8
0
 10
738.314
 20
279.277
 11
738.266
 21
279.196
  0
LINE
  8
0
 10
738.266
 20
279.196
 11
738.214
 21
279.118
  0
LINE
  8
0
 10
738.214
 20
279.118
 11
738.156
 21
279.044
  0
LINE
  8
0
 10
738.156
 20
279.044
 11
738.093
 21
278.973
  0
LINE
  8
0
 10
738.093
 20
278.973
 11
738.027
 21
278.907
  0
LINE
  8
0
 10
738.027
 20
278.907
 11
737.956
 21
278.844
  0
LINE
  8
0
 10
737.956
 20
278.844
 11
737.882
 21
278.786
  0
LINE
  8
0
 10
737.882
 20
278.786
 11
737.804
 21
278.734
  0
LINE
  8
0
 10
737.804
 20
278.734
 11
737.723
 21
278.686
  0
LINE
  8
0
 10
737.723
 20
278.686
 11
737.639
 21
278.643
  0
LINE
  8
0
 10
737.639
 20
278.643
 11
737.552
 21
278.605
  0
LINE
  8
0
 10
737.552
 20
278.605
 11
737.464
 21
278.573
  0
LINE
  8
0
 10
737.464
 20
278.573
 11
737.373
 21
278.547
  0
LINE
  8
0
 10
737.373
 20
278.547
 11
737.281
 21
278.527
  0
LINE
  8
0
 10
737.281
 20
278.527
 11
737.188
 21
278.512
  0
LINE
  8
0
 10
737.188
 20
278.512
 11
737.094
 21
278.503
  0
LINE
  8
0
 10
737.094
 20
278.503
 11
737
 21
278.5
  0
LINE
  8
0
 10
737
 20
278.5
 11
736.906
 21
278.503
  0
LINE
  8
0
 10
593.874
 20
258.004
 11
593.749
 21
258.016
  0
LINE
  8
0
 10
593.749
 20
258.016
 11
593.625
 21
258.035
  0
LINE
  8
0
 10
593.625
 20
258.035
 11
593.503
 21
258.063
  0
LINE
  8
0
 10
593.503
 20
258.063
 11
593.382
 21
258.098
  0
LINE
  8
0
 10
593.382
 20
258.098
 11
593.264
 21
258.14
  0
LINE
  8
0
 10
593.264
 20
258.14
 11
593.148
 21
258.19
  0
LINE
  8
0
 10
593.148
 20
258.19
 11
593.036
 21
258.247
  0
LINE
  8
0
 10
593.036
 20
258.247
 11
592.928
 21
258.311
  0
LINE
  8
0
 10
592.928
 20
258.311
 11
592.824
 21
258.382
  0
LINE
  8
0
 10
592.824
 20
258.382
 11
592.725
 21
258.459
  0
LINE
  8
0
 10
592.725
 20
258.459
 11
592.631
 21
258.542
  0
LINE
  8
0
 10
592.631
 20
258.542
 11
592.542
 21
258.631
  0
LINE
  8
0
 10
592.542
 20
258.631
 11
592.459
 21
258.725
  0
LINE
  8
0
 10
592.459
 20
258.725
 11
592.382
 21
258.824
  0
LINE
  8
0
 10
592.382
 20
258.824
 11
592.311
 21
258.928
  0
LINE
  8
0
 10
592.311
 20
258.928
 11
592.247
 21
259.036
  0
LINE
  8
0
 10
592.247
 20
259.036
 11
592.19
 21
259.148
  0
LINE
  8
0
 10
592.19
 20
259.148
 11
592.14
 21
259.264
  0
LINE
  8
0
 10
592.14
 20
259.264
 11
592.098
 21
259.382
  0
LINE
  8
0
 10
592.098
 20
259.382
 11
592.063
 21
259.503
  0
LINE
  8
0
 10
592.063
 20
259.503
 11
592.035
 21
259.625
  0
LINE
  8
0
 10
592.035
 20
259.625
 11
592.016
 21
259.749
  0
LINE
  8
0
 10
592.016
 20
259.749
 11
592.004
 21
259.874
  0
LINE
  8
0
 10
592.004
 20
259.874
 11
592
 21
260
  0
LINE
  8
0
 10
592
 20
260
 11
592.004
 21
260.126
  0
LINE
  8
0
 10
592.004
 20
260.126
 11
592.016
 21
260.251
  0
LINE
  8
0
 10
592.016
 20
260.251
 11
592.035
 21
260.375
  0
LINE
  8
0
 10
592.035
 20
260.375
 11
592.063
 21
260.497
  0
LINE
  8
0
 10
592.063
 20
260.497
 11
592.098
 21
260.618
  0
LINE
  8
0
 10
592.098
 20
260.618
 11
592.14
 21
260.736
  0
LINE
  8
0
 10
592.14
 20
260.736
 11
592.19
 21
260.852
  0
LINE
  8
0
 10
592.19
 20
260.852
 11
592.247
 21
260.964
  0
LINE
  8
0
 10
592.247
 20
260.964
 11
592.311
 21
261.072
  0
LINE
  8
0
 10
592.311
 20
261.072
 11
592.382
 21
261.176
  0
LINE
  8
0
 10
592.382
 20
261.176
 11
592.459
 21
261.275
  0
LINE
  8
0
 10
592.459
 20
261.275
 11
592.542
 21
261.369
  0
LINE
  8
0
 10
592.542
 20
261.369
 11
592.631
 21
261.458
  0
LINE
  8
0
 10
592.631
 20
261.458
 11
592.725
 21
261.541
  0
LINE
  8
0
 10
592.725
 20
261.541
 11
592.824
 21
261.618
  0
LINE
  8
0
 10
592.824
 20
261.618
 11
592.928
 21
261.689
  0
LINE
  8
0
 10
592.928
 20
261.689
 11
593.036
 21
261.753
  0
LINE
  8
0
 10
593.036
 20
261.753
 11
593.148
 21
261.81
  0
LINE
  8
0
 10
593.148
 20
261.81
 11
593.264
 21
261.86
  0
LINE
  8
0
 10
593.264
 20
261.86
 11
593.382
 21
261.902
  0
LINE
  8
0
 10
593.382
 20
261.902
 11
593.503
 21
261.937
  0
LINE
  8
0
 10
593.503
 20
261.937
 11
593.625
 21
261.965
  0
LINE
  8
0
 10
593.625
 20
261.965
 11
593.749
 21
261.984
  0
LINE
  8
0
 10
593.749
 20
261.984
 11
593.874
 21
261.996
  0
LINE
  8
0
 10
593.874
 20
261.996
 11
594
 21
262
  0
LINE
  8
0
 10
594
 20
262
 11
594.126
 21
261.996
  0
LINE
  8
0
 10
594.126
 20
261.996
 11
594.251
 21
261.984
  0
LINE
  8
0
 10
594.251
 20
261.984
 11
594.375
 21
261.965
  0
LINE
  8
0
 10
594.375
 20
261.965
 11
594.497
 21
261.937
  0
LINE
  8
0
 10
594.497
 20
261.937
 11
594.618
 21
261.902
  0
LINE
  8
0
 10
594.618
 20
261.902
 11
594.736
 21
261.86
  0
LINE
  8
0
 10
594.736
 20
261.86
 11
594.852
 21
261.81
  0
LINE
  8
0
 10
594.852
 20
261.81
 11
594.964
 21
261.753
  0
LINE
  8
0
 10
594.964
 20
261.753
 11
595.072
 21
261.689
  0
LINE
  8
0
 10
595.072
 20
261.689
 11
595.176
 21
261.618
  0
LINE
  8
0
 10
595.176
 20
261.618
 11
595.275
 21
261.541
  0
LINE
  8
0
 10
595.275
 20
261.541
 11
595.369
 21
261.458
  0
LINE
  8
0
 10
595.369
 20
261.458
 11
595.458
 21
261.369
  0
LINE
  8
0
 10
595.458
 20
261.369
 11
595.541
 21
261.275
  0
LINE
  8
0
 10
595.541
 20
261.275
 11
595.618
 21
261.176
  0
LINE
  8
0
 10
595.618
 20
261.176
 11
595.689
 21
261.072
  0
LINE
  8
0
 10
595.689
 20
261.072
 11
595.753
 21
260.964
  0
LINE
  8
0
 10
595.753
 20
260.964
 11
595.81
 21
260.852
  0
LINE
  8
0
 10
595.81
 20
260.852
 11
595.86
 21
260.736
  0
LINE
  8
0
 10
595.86
 20
260.736
 11
595.902
 21
260.618
  0
LINE
  8
0
 10
595.902
 20
260.618
 11
595.937
 21
260.497
  0
LINE
  8
0
 10
595.937
 20
260.497
 11
595.965
 21
260.375
  0
LINE
  8
0
 10
595.965
 20
260.375
 11
595.984
 21
260.251
  0
LINE
  8
0
 10
595.984
 20
260.251
 11
595.996
 21
260.126
  0
LINE
  8
0
 10
595.996
 20
260.126
 11
596
 21
260
  0
LINE
  8
0
 10
596
 20
260
 11
595.996
 21
259.874
  0
LINE
  8
0
 10
595.996
 20
259.874
 11
595.984
 21
259.749
  0
LINE
  8
0
 10
595.984
 20
259.749
 11
595.965
 21
259.625
  0
LINE
  8
0
 10
595.965
 20
259.625
 11
595.937
 21
259.503
  0
LINE
  8
0
 10
595.937
 20
259.503
 11
595.902
 21
259.382
  0
LINE
  8
0
 10
595.902
 20
259.382
 11
595.86
 21
259.264
  0
LINE
  8
0
 10
595.86
 20
259.264
 11
595.81
 21
259.148
  0
LINE
  8
0
 10
595.81
 20
259.148
 11
595.753
 21
259.036
  0
LINE
  8
0
 10
595.753
 20
259.036
 11
595.689
 21
258.928
  0
LINE
  8
0
 10
595.689
 20
258.928
 11
595.618
 21
258.824
  0
LINE
  8
0
 10
595.618
 20
258.824
 11
595.541
 21
258.725
  0
LINE
  8
0
 10
595.541
 20
258.725
 11
595.458
 21
258.631
  0
LINE
  8
0
 10
595.458
 20
258.631
 11
595.369
 21
258.542
  0
LINE
  8
0
 10
595.369
 20
258.542
 11
595.275
 21
258.459
  0
LINE
  8
0
 10
595.275
 20
258.459
 11
595.176
 21
258.382
  0
LINE
  8
0
 10
595.176
 20
258.382
 11
595.072
 21
258.311
  0
LINE
  8
0
 10
595.072
 20
258.311
 11
594.964
 21
258.247
  0
LINE
  8
0
 10
594.964
 20
258.247
 11
594.852
 21
258.19
  0
LINE
  8
0
 10
594.852
 20
258.19
 11
594.736
 21
258.14
  0
LINE
  8
0
 10
594.736
 20
258.14
 11
594.618
 21
258.098
  0
LINE
  8
0
 10
594.618
 20
258.098
 11
594.497
 21
258.063
  0
LINE
  8
0
 10
594.497
 20
258.063
 11
594.375
 21
258.035
  0
LINE
  8
0
 10
594.375
 20
258.035
 11
594.251
 21
258.016
  0
LINE
  8
0
 10
594.251
 20
258.016
 11
594.126
 21
258.004
  0
LINE
  8
0
 10
594.126
 20
258.004
 11
594
 21
258
  0
LINE
  8
0
 10
594
 20
258
 11
593.874
 21
258.004
  0
LINE
  8
0
 10
736.874
 20
258.004
 11
736.749
 21
258.016
  0
LINE
  8
0
 10
736.749
 20
258.016
 11
736.625
 21
258.035
  0
LINE
  8
0
 10
736.625
 20
258.035
 11
736.503
 21
258.063
  0
LINE
  8
0
 10
736.503
 20
258.063
 11
736.382
 21
258.098
  0
LINE
  8
0
 10
736.382
 20
258.098
 11
736.264
 21
258.14
  0
LINE
  8
0
 10
736.264
 20
258.14
 11
736.148
 21
258.19
  0
LINE
  8
0
 10
736.148
 20
258.19
 11
736.036
 21
258.247
  0
LINE
  8
0
 10
736.036
 20
258.247
 11
735.928
 21
258.311
  0
LINE
  8
0
 10
735.928
 20
258.311
 11
735.824
 21
258.382
  0
LINE
  8
0
 10
735.824
 20
258.382
 11
735.725
 21
258.459
  0
LINE
  8
0
 10
735.725
 20
258.459
 11
735.631
 21
258.542
  0
LINE
  8
0
 10
735.631
 20
258.542
 11
735.542
 21
258.631
  0
LINE
  8
0
 10
735.542
 20
258.631
 11
735.459
 21
258.725
  0
LINE
  8
0
 10
735.459
 20
258.725
 11
735.382
 21
258.824
  0
LINE
  8
0
 10
735.382
 20
258.824
 11
735.311
 21
258.928
  0
LINE
  8
0
 10
735.311
 20
258.928
 11
735.247
 21
259.036
  0
LINE
  8
0
 10
735.247
 20
259.036
 11
735.19
 21
259.148
  0
LINE
  8
0
 10
735.19
 20
259.148
 11
735.14
 21
259.264
  0
LINE
  8
0
 10
735.14
 20
259.264
 11
735.098
 21
259.382
  0
LINE
  8
0
 10
735.098
 20
259.382
 11
735.063
 21
259.503
  0
LINE
  8
0
 10
735.063
 20
259.503
 11
735.035
 21
259.625
  0
LINE
  8
0
 10
735.035
 20
259.625
 11
735.016
 21
259.749
  0
LINE
  8
0
 10
735.016
 20
259.749
 11
735.004
 21
259.874
  0
LINE
  8
0
 10
735.004
 20
259.874
 11
735
 21
260
  0
LINE
  8
0
 10
735
 20
260
 11
735.004
 21
260.126
  0
LINE
  8
0
 10
735.004
 20
260.126
 11
735.016
 21
260.251
  0
LINE
  8
0
 10
735.016
 20
260.251
 11
735.035
 21
260.375
  0
LINE
  8
0
 10
735.035
 20
260.375
 11
735.063
 21
260.497
  0
LINE
  8
0
 10
735.063
 20
260.497
 11
735.098
 21
260.618
  0
LINE
  8
0
 10
735.098
 20
260.618
 11
735.14
 21
260.736
  0
LINE
  8
0
 10
735.14
 20
260.736
 11
735.19
 21
260.852
  0
LINE
  8
0
 10
735.19
 20
260.852
 11
735.247
 21
260.964
  0
LINE
  8
0
 10
735.247
 20
260.964
 11
735.311
 21
261.072
  0
LINE
  8
0
 10
735.311
 20
261.072
 11
735.382
 21
261.176
  0
LINE
  8
0
 10
735.382
 20
261.176
 11
735.459
 21
261.275
  0
LINE
  8
0
 10
735.459
 20
261.275
 11
735.542
 21
261.369
  0
LINE
  8
0
 10
735.542
 20
261.369
 11
735.631
 21
261.458
  0
LINE
  8
0
 10
735.631
 20
261.458
 11
735.725
 21
261.541
  0
LINE
  8
0
 10
735.725
 20
261.541
 11
735.824
 21
261.618
  0
LINE
  8
0
 10
735.824
 20
261.618
 11
735.928
 21
261.689
  0
LINE
  8
0
 10
735.928
 20
261.689
 11
736.036
 21
261.753
  0
LINE
  8
0
 10
736.036
 20
261.753
 11
736.148
 21
261.81
  0
LINE
  8
0
 10
736.148
 20
261.81
 11
736.264
 21
261.86
  0
LINE
  8
0
 10
736.264
 20
261.86
 11
736.382
 21
261.902
  0
LINE
  8
0
 10
736.382
 20
261.902
 11
736.503
 21
261.937
  0
LINE
  8
0
 10
736.503
 20
261.937
 11
736.625
 21
261.965
  0
LINE
  8
0
 10
736.625
 20
261.965
 11
736.749
 21
261.984
  0
LINE
  8
0
 10
736.749
 20
261.984
 11
736.874
 21
261.996
  0
LINE
  8
0
 10
736.874
 20
261.996
 11
737
 21
262
  0
LINE
  8
0
 10
737
 20
262
 11
737.126
 21
261.996
  0
LINE
  8
0
 10
737.126
 20
261.996
 11
737.251
 21
261.984
  0
LINE
  8
0
 10
737.251
 20
261.984
 11
737.375
 21
261.965
  0
LINE
  8
0
 10
737.375
 20
261.965
 11
737.497
 21
261.937
  0
LINE
  8
0
 10
737.497
 20
261.937
 11
737.618
 21
261.902
  0
LINE
  8
0
 10
737.618
 20
261.902
 11
737.736
 21
261.86
  0
LINE
  8
0
 10
737.736
 20
261.86
 11
737.852
 21
261.81
  0
LINE
  8
0
 10
737.852
 20
261.81
 11
737.964
 21
261.753
  0
LINE
  8
0
 10
737.964
 20
261.753
 11
738.072
 21
261.689
  0
LINE
  8
0
 10
738.072
 20
261.689
 11
738.176
 21
261.618
  0
LINE
  8
0
 10
738.176
 20
261.618
 11
738.275
 21
261.541
  0
LINE
  8
0
 10
738.275
 20
261.541
 11
738.369
 21
261.458
  0
LINE
  8
0
 10
738.369
 20
261.458
 11
738.458
 21
261.369
  0
LINE
  8
0
 10
738.458
 20
261.369
 11
738.541
 21
261.275
  0
LINE
  8
0
 10
738.541
 20
261.275
 11
738.618
 21
261.176
  0
LINE
  8
0
 10
738.618
 20
261.176
 11
738.689
 21
261.072
  0
LINE
  8
0
 10
738.689
 20
261.072
 11
738.753
 21
260.964
  0
LINE
  8
0
 10
738.753
 20
260.964
 11
738.81
 21
260.852
  0
LINE
  8
0
 10
738.81
 20
260.852
 11
738.86
 21
260.736
  0
LINE
  8
0
 10
738.86
 20
260.736
 11
738.902
 21
260.618
  0
LINE
  8
0
 10
738.902
 20
260.618
 11
738.937
 21
260.497
  0
LINE
  8
0
 10
738.937
 20
260.497
 11
738.965
 21
260.375
  0
LINE
  8
0
 10
738.965
 20
260.375
 11
738.984
 21
260.251
  0
LINE
  8
0
 10
738.984
 20
260.251
 11
738.996
 21
260.126
  0
LINE
  8
0
 10
738.996
 20
260.126
 11
739
 21
260
  0
LINE
  8
0
 10
739
 20
260
 11
738.996
 21
259.874
  0
LINE
  8
0
 10
738.996
 20
259.874
 11
738.984
 21
259.749
  0
LINE
  8
0
 10
738.984
 20
259.749
 11
738.965
 21
259.625
  0
LINE
  8
0
 10
738.965
 20
259.625
 11
738.937
 21
259.503
  0
LINE
  8
0
 10
738.937
 20
259.503
 11
738.902
 21
259.382
  0
LINE
  8
0
 10
738.902
 20
259.382
 11
738.86
 21
259.264
  0
LINE
  8
0
 10
738.86
 20
259.264
 11
738.81
 21
259.148
  0
LINE
  8
0
 10
738.81
 20
259.148
 11
738.753
 21
259.036
  0
LINE
  8
0
 10
738.753
 20
259.036
 11
738.689
 21
258.928
  0
LINE
  8
0
 10
738.689
 20
258.928
 11
738.618
 21
258.824
  0
LINE
  8
0
 10
738.618
 20
258.824
 11
738.541
 21
258.725
  0
LINE
  8
0
 10
738.541
 20
258.725
 11
738.458
 21
258.631
  0
LINE
  8
0
 10
738.458
 20
258.631
 11
738.369
 21
258.542
  0
LINE
  8
0
 10
738.369
 20
258.542
 11
738.275
 21
258.459
  0
LINE
  8
0
 10
738.275
 20
258.459
 11
738.176
 21
258.382
  0
LINE
  8
0
 10
738.176
 20
258.382
 11
738.072
 21
258.311
  0
LINE
  8
0
 10
738.072
 20
258.311
 11
737.964
 21
258.247
  0
LINE
  8
0
 10
737.964
 20
258.247
 11
737.852
 21
258.19
  0
LINE
  8
0
 10
737.852
 20
258.19
 11
737.736
 21
258.14
  0
LINE
  8
0
 10
737.736
 20
258.14
 11
737.618
 21
258.098
  0
LINE
  8
0
 10
737.618
 20
258.098
 11
737.497
 21
258.063
  0
LINE
  8
0
 10
737.497
 20
258.063
 11
737.375
 21
258.035
  0
LINE
  8
0
 10
737.375
 20
258.035
 11
737.251
 21
258.016
  0
LINE
  8
0
 10
737.251
 20
258.016
 11
737.126
 21
258.004
  0
LINE
  8
0
 10
737.126
 20
258.004
 11
737
 21
258
  0
LINE
  8
0
 10
737
 20
258
 11
736.874
 21
258.004
  0
LINE
  8
0
 10
602.5
 20
100
 11
602.5
 21
140
  0
LINE
  8
0
 10
602.5
 20
140
 11
727.5
 21
140
  0
LINE
  8
0
 10
727.5
 20
140
 11
727.5
 21
100
  0
LINE
  8
0
 10
727.5
 20
100
 11
602.5
 21
100
  0
LINE
  8
0
 10
736.874
 20
38.0039
 11
736.749
 21
38.0158
  0
LINE
  8
0
 10
736.749
 20
38.0158
 11
736.625
 21
38.0354
  0
LINE
  8
0
 10
736.625
 20
38.0354
 11
736.503
 21
38.0628
  0
LINE
  8
0
 10
736.503
 20
38.0628
 11
736.382
 21
38.0979
  0
LINE
  8
0
 10
736.382
 20
38.0979
 11
736.264
 21
38.1404
  0
LINE
  8
0
 10
736.264
 20
38.1404
 11
736.148
 21
38.1903
  0
LINE
  8
0
 10
736.148
 20
38.1903
 11
736.036
 21
38.2474
  0
LINE
  8
0
 10
736.036
 20
38.2474
 11
735.928
 21
38.3113
  0
LINE
  8
0
 10
735.928
 20
38.3113
 11
735.824
 21
38.382
  0
LINE
  8
0
 10
735.824
 20
38.382
 11
735.725
 21
38.459
  0
LINE
  8
0
 10
735.725
 20
38.459
 11
735.631
 21
38.5421
  0
LINE
  8
0
 10
735.631
 20
38.5421
 11
735.542
 21
38.6309
  0
LINE
  8
0
 10
735.542
 20
38.6309
 11
735.459
 21
38.7251
  0
LINE
  8
0
 10
735.459
 20
38.7251
 11
735.382
 21
38.8244
  0
LINE
  8
0
 10
735.382
 20
38.8244
 11
735.311
 21
38.9283
  0
LINE
  8
0
 10
735.311
 20
38.9283
 11
735.247
 21
39.0365
  0
LINE
  8
0
 10
735.247
 20
39.0365
 11
735.19
 21
39.1484
  0
LINE
  8
0
 10
735.19
 20
39.1484
 11
735.14
 21
39.2637
  0
LINE
  8
0
 10
735.14
 20
39.2637
 11
735.098
 21
39.382
  0
LINE
  8
0
 10
735.098
 20
39.382
 11
735.063
 21
39.5026
  0
LINE
  8
0
 10
735.063
 20
39.5026
 11
735.035
 21
39.6252
  0
LINE
  8
0
 10
735.035
 20
39.6252
 11
735.016
 21
39.7493
  0
LINE
  8
0
 10
735.016
 20
39.7493
 11
735.004
 21
39.8744
  0
LINE
  8
0
 10
735.004
 20
39.8744
 11
735
 21
40
  0
LINE
  8
0
 10
735
 20
40
 11
735.004
 21
40.1256
  0
LINE
  8
0
 10
735.004
 20
40.1256
 11
735.016
 21
40.2507
  0
LINE
  8
0
 10
735.016
 20
40.2507
 11
735.035
 21
40.3748
  0
LINE
  8
0
 10
735.035
 20
40.3748
 11
735.063
 21
40.4974
  0
LINE
  8
0
 10
735.063
 20
40.4974
 11
735.098
 21
40.618
  0
LINE
  8
0
 10
735.098
 20
40.618
 11
735.14
 21
40.7363
  0
LINE
  8
0
 10
735.14
 20
40.7363
 11
735.19
 21
40.8515
  0
LINE
  8
0
 10
735.19
 20
40.8515
 11
735.247
 21
40.9635
  0
LINE
  8
0
 10
735.247
 20
40.9635
 11
735.311
 21
41.0717
  0
LINE
  8
0
 10
735.311
 20
41.0717
 11
735.382
 21
41.1756
  0
LINE
  8
0
 10
735.382
 20
41.1756
 11
735.459
 21
41.2748
  0
LINE
  8
0
 10
735.459
 20
41.2748
 11
735.542
 21
41.3691
  0
LINE
  8
0
 10
735.542
 20
41.3691
 11
735.631
 21
41.4579
  0
LINE
  8
0
 10
735.631
 20
41.4579
 11
735.725
 21
41.541
  0
LINE
  8
0
 10
735.725
 20
41.541
 11
735.824
 21
41.618
  0
LINE
  8
0
 10
735.824
 20
41.618
 11
735.928
 21
41.6886
  0
LINE
  8
0
 10
735.928
 20
41.6886
 11
736.036
 21
41.7526
  0
LINE
  8
0
 10
736.036
 20
41.7526
 11
736.148
 21
41.8096
  0
LINE
  8
0
 10
736.148
 20
41.8096
 11
736.264
 21
41.8595
  0
LINE
  8
0
 10
736.264
 20
41.8595
 11
736.382
 21
41.9021
  0
LINE
  8
0
 10
736.382
 20
41.9021
 11
736.503
 21
41.9372
  0
LINE
  8
0
 10
736.503
 20
41.9372
 11
736.625
 21
41.9646
  0
LINE
  8
0
 10
736.625
 20
41.9646
 11
736.749
 21
41.9842
  0
LINE
  8
0
 10
736.749
 20
41.9842
 11
736.874
 21
41.996
  0
LINE
  8
0
 10
736.874
 20
41.996
 11
737
 21
42
  0
LINE
  8
0
 10
737
 20
42
 11
737.126
 21
41.996
  0
LINE
  8
0
 10
737.126
 20
41.996
 11
737.251
 21
41.9842
  0
LINE
  8
0
 10
737.251
 20
41.9842
 11
737.375
 21
41.9646
  0
LINE
  8
0
 10
737.375
 20
41.9646
 11
737.497
 21
41.9372
  0
LINE
  8
0
 10
737.497
 20
41.9372
 11
737.618
 21
41.9021
  0
LINE
  8
0
 10
737.618
 20
41.9021
 11
737.736
 21
41.8595
  0
LINE
  8
0
 10
737.736
 20
41.8595
 11
737.852
 21
41.8096
  0
LINE
  8
0
 10
737.852
 20
41.8096
 11
737.964
 21
41.7526
  0
LINE
  8
0
 10
737.964
 20
41.7526
 11
738.072
 21
41.6886
  0
LINE
  8
0
 10
738.072
 20
41.6886
 11
738.176
 21
41.618
  0
LINE
  8
0
 10
738.176
 20
41.618
 11
738.275
 21
41.541
  0
LINE
  8
0
 10
738.275
 20
41.541
 11
738.369
 21
41.4579
  0
LINE
  8
0
 10
738.369
 20
41.4579
 11
738.458
 21
41.3691
  0
LINE
  8
0
 10
738.458
 20
41.3691
 11
738.541
 21
41.2748
  0
LINE
  8
0
 10
738.541
 20
41.2748
 11
738.618
 21
41.1756
  0
LINE
  8
0
 10
738.618
 20
41.1756
 11
738.689
 21
41.0717
  0
LINE
  8
0
 10
738.689
 20
41.0717
 11
738.753
 21
40.9635
  0
LINE
  8
0
 10
738.753
 20
40.9635
 11
738.81
 21
40.8515
  0
LINE
  8
0
 10
738.81
 20
40.8515
 11
738.86
 21
40.7363
  0
LINE
  8
0
 10
738.86
 20
40.7363
 11
738.902
 21
40.618
  0
LINE
  8
0
 10
738.902
 20
40.618
 11
738.937
 21
40.4974
  0
LINE
  8
0
 10
738.937
 20
40.4974
 11
738.965
 21
40.3748
  0
LINE
  8
0
 10
738.965
 20
40.3748
 11
738.984
 21
40.2507
  0
LINE
  8
0
 10
738.984
 20
40.2507
 11
738.996
 21
40.1256
  0
LINE
  8
0
 10
738.996
 20
40.1256
 11
739
 21
40
  0
LINE
  8
0
 10
739
 20
40
 11
738.996
 21
39.8744
  0
LINE
  8
0
 10
738.996
 20
39.8744
 11
738.984
 21
39.7493
  0
LINE
  8
0
 10
738.984
 20
39.7493
 11
738.965
 21
39.6252
  0
LINE
  8
0
 10
738.965
 20
39.6252
 11
738.937
 21
39.5026
  0
LINE
  8
0
 10
738.937
 20
39.5026
 11
738.902
 21
39.382
  0
LINE
  8
0
 10
738.902
 20
39.382
 11
738.86
 21
39.2637
  0
LINE
  8
0
 10
738.86
 20
39.2637
 11
738.81
 21
39.1484
  0
LINE
  8
0
 10
738.81
 20
39.1484
 11
738.753
 21
39.0365
  0
LINE
  8
0
 10
738.753
 20
39.0365
 11
738.689
 21
38.9283
  0
LINE
  8
0
 10
738.689
 20
38.9283
 11
738.618
 21
38.8244
  0
LINE
  8
0
 10
738.618
 20
38.8244
 11
738.541
 21
38.7251
  0
LINE
  8
0
 10
738.541
 20
38.7251
 11
738.458
 21
38.6309
  0
LINE
  8
0
 10
738.458
 20
38.6309
 11
738.369
 21
38.5421
  0
LINE
  8
0
 10
738.369
 20
38.5421
 11
738.275
 21
38.459
  0
LINE
  8
0
 10
738.275
 20
38.459
 11
738.176
 21
38.382
  0
LINE
  8
0
 10
738.176
 20
38.382
 11
738.072
 21
38.3113
  0
LINE
  8
0
 10
738.072
 20
38.3113
 11
737.964
 21
38.2474
  0
LINE
  8
0
 10
737.964
 20
38.2474
 11
737.852
 21
38.1903
  0
LINE
  8
0
 10
737.852
 20
38.1903
 11
737.736
 21
38.1404
  0
LINE
  8
0
 10
737.736
 20
38.1404
 11
737.618
 21
38.0979
  0
LINE
  8
0
 10
737.618
 20
38.0979
 11
737.497
 21
38.0628
  0
LINE
  8
0
 10
737.497
 20
38.0628
 11
737.375
 21
38.0354
  0
LINE
  8
0
 10
737.375
 20
38.0354
 11
737.251
 21
38.0158
  0
LINE
  8
0
 10
737.251
 20
38.0158
 11
737.126
 21
38.0039
  0
LINE
  8
0
 10
737.126
 20
38.0039
 11
737
 21
38
  0
LINE
  8
0
 10
737
 20
38
 11
736.874
 21
38.0039
  0
LINE
  8
0
 10
593.874
 20
38.0039
 11
593.749
 21
38.0158
  0
LINE
  8
0
 10
593.749
 20
38.0158
 11
593.625
 21
38.0354
  0
LINE
  8
0
 10
593.625
 20
38.0354
 11
593.503
 21
38.0628
  0
LINE
  8
0
 10
593.503
 20
38.0628
 11
593.382
 21
38.0979
  0
LINE
  8
0
 10
593.382
 20
38.0979
 11
593.264
 21
38.1404
  0
LINE
  8
0
 10
593.264
 20
38.1404
 11
593.148
 21
38.1903
  0
LINE
  8
0
 10
593.148
 20
38.1903
 11
593.036
 21
38.2474
  0
LINE
  8
0
 10
593.036
 20
38.2474
 11
592.928
 21
38.3113
  0
LINE
  8
0
 10
592.928
 20
38.3113
 11
592.824
 21
38.382
  0
LINE
  8
0
 10
592.824
 20
38.382
 11
592.725
 21
38.459
  0
LINE
  8
0
 10
592.725
 20
38.459
 11
592.631
 21
38.5421
  0
LINE
  8
0
 10
592.631
 20
38.5421
 11
592.542
 21
38.6309
  0
LINE
  8
0
 10
592.542
 20
38.6309
 11
592.459
 21
38.7251
  0
LINE
  8
0
 10
592.459
 20
38.7251
 11
592.382
 21
38.8244
  0
LINE
  8
0
 10
592.382
 20
38.8244
 11
592.311
 21
38.9283
  0
LINE
  8
0
 10
592.311
 20
38.9283
 11
592.247
 21
39.0365
  0
LINE
  8
0
 10
592.247
 20
39.0365
 11
592.19
 21
39.1484
  0
LINE
  8
0
 10
592.19
 20
39.1484
 11
592.14
 21
39.2637
  0
LINE
  8
0
 10
592.14
 20
39.2637
 11
592.098
 21
39.382
  0
LINE
  8
0
 10
592.098
 20
39.382
 11
592.063
 21
39.5026
  0
LINE
  8
0
 10
592.063
 20
39.5026
 11
592.035
 21
39.6252
  0
LINE
  8
0
 10
592.035
 20
39.6252
 11
592.016
 21
39.7493
  0
LINE
  8
0
 10
592.016
 20
39.7493
 11
592.004
 21
39.8744
  0
LINE
  8
0
 10
592.004
 20
39.8744
 11
592
 21
40
  0
LINE
  8
0
 10
592
 20
40
 11
592.004
 21
40.1256
  0
LINE
  8
0
 10
592.004
 20
40.1256
 11
592.016
 21
40.2507
  0
LINE
  8
0
 10
592.016
 20
40.2507
 11
592.035
 21
40.3748
  0
LINE
  8
0
 10
592.035
 20
40.3748
 11
592.063
 21
40.4974
  0
LINE
  8
0
 10
592.063
 20
40.4974
 11
592.098
 21
40.618
  0
LINE
  8
0
 10
592.098
 20
40.618
 11
592.14
 21
40.7363
  0
LINE
  8
0
 10
592.14
 20
40.7363
 11
592.19
 21
40.8515
  0
LINE
  8
0
 10
592.19
 20
40.8515
 11
592.247
 21
40.9635
  0
LINE
  8
0
 10
592.247
 20
40.9635
 11
592.311
 21
41.0717
  0
LINE
  8
0
 10
592.311
 20
41.0717
 11
592.382
 21
41.1756
  0
LINE
  8
0
 10
592.382
 20
41.1756
 11
592.459
 21
41.2748
  0
LINE
  8
0
 10
592.459
 20
41.2748
 11
592.542
 21
41.3691
  0
LINE
  8
0
 10
592.542
 20
41.3691
 11
592.631
 21
41.4579
  0
LINE
  8
0
 10
592.631
 20
41.4579
 11
592.725
 21
41.541
  0
LINE
  8
0
 10
592.725
 20
41.541
 11
592.824
 21
41.618
  0
LINE
  8
0
 10
592.824
 20
41.618
 11
592.928
 21
41.6886
  0
LINE
  8
0
 10
592.928
 20
41.6886
 11
593.036
 21
41.7526
  0
LINE
  8
0
 10
593.036
 20
41.7526
 11
593.148
 21
41.8096
  0
LINE
  8
0
 10
593.148
 20
41.8096
 11
593.264
 21
41.8595
  0
LINE
  8
0
 10
593.264
 20
41.8595
 11
593.382
 21
41.9021
  0
LINE
  8
0
 10
593.382
 20
41.9021
 11
593.503
 21
41.9372
  0
LINE
  8
0
 10
593.503
 20
41.9372
 11
593.625
 21
41.9646
  0
LINE
  8
0
 10
593.625
 20
41.9646
 11
593.749
 21
41.9842
  0
LINE
  8
0
 10
593.749
 20
41.9842
 11
593.874
 21
41.996
  0
LINE
  8
0
 10
593.874
 20
41.996
 11
594
 21
42
  0
LINE
  8
0
 10
594
 20
42
 11
594.126
 21
41.996
  0
LINE
  8
0
 10
594.126
 20
41.996
 11
594.251
 21
41.9842
  0
LINE
  8
0
 10
594.251
 20
41.9842
 11
594.375
 21
41.9646
  0
LINE
  8
0
 10
594.375
 20
41.9646
 11
594.497
 21
41.9372
  0
LINE
  8
0
 10
594.497
 20
41.9372
 11
594.618
 21
41.9021
  0
LINE
  8
0
 10
594.618
 20
41.9021
 11
594.736
 21
41.8595
  0
LINE
  8
0
 10
594.736
 20
41.8595
 11
594.852
 21
41.8096
  0
LINE
  8
0
 10
594.852
 20
41.8096
 11
594.964
 21
41.7526
  0
LINE
  8
0
 10
594.964
 20
41.7526
 11
595.072
 21
41.6886
  0
LINE
  8
0
 10
595.072
 20
41.6886
 11
595.176
 21
41.618
  0
LINE
  8
0
 10
595.176
 20
41.618
 11
595.275
 21
41.541
  0
LINE
  8
0
 10
595.275
 20
41.541
 11
595.369
 21
41.4579
  0
LINE
  8
0
 10
595.369
 20
41.4579
 11
595.458
 21
41.3691
  0
LINE
  8
0
 10
595.458
 20
41.3691
 11
595.541
 21
41.2748
  0
LINE
  8
0
 10
595.541
 20
41.2748
 11
595.618
 21
41.1756
  0
LINE
  8
0
 10
595.618
 20
41.1756
 11
595.689
 21
41.0717
  0
LINE
  8
0
 10
595.689
 20
41.0717
 11
595.753
 21
40.9635
  0
LINE
  8
0
 10
595.753
 20
40.9635
 11
595.81
 21
40.8515
  0
LINE
  8
0
 10
595.81
 20
40.8515
 11
595.86
 21
40.7363
  0
LINE
  8
0
 10
595.86
 20
40.7363
 11
595.902
 21
40.618
  0
LINE
  8
0
 10
595.902
 20
40.618
 11
595.937
 21
40.4974
  0
LINE
  8
0
 10
595.937
 20
40.4974
 11
595.965
 21
40.3748
  0
LINE
  8
0
 10
595.965
 20
40.3748
 11
595.984
 21
40.2507
  0
LINE
  8
0
 10
595.984
 20
40.2507
 11
595.996
 21
40.1256
  0
LINE
  8
0
 10
595.996
 20
40.1256
 11
596
 21
40
  0
LINE
  8
0
 10
596
 20
40
 11
595.996
 21
39.8744
  0
LINE
  8
0
 10
595.996
 20
39.8744
 11
595.984
 21
39.7493
  0
LINE
  8
0
 10
595.984
 20
39.7493
 11
595.965
 21
39.6252
  0
LINE
  8
0
 10
595.965
 20
39.6252
 11
595.937
 21
39.5026
  0
LINE
  8
0
 10
595.937
 20
39.5026
 11
595.902
 21
39.382
  0
LINE
  8
0
 10
595.902
 20
39.382
 11
595.86
 21
39.2637
  0
LINE
  8
0
 10
595.86
 20
39.2637
 11
595.81
 21
39.1484
  0
LINE
  8
0
 10
595.81
 20
39.1484
 11
595.753
 21
39.0365
  0
LINE
  8
0
 10
595.753
 20
39.0365
 11
595.689
 21
38.9283
  0
LINE
  8
0
 10
595.689
 20
38.9283
 11
595.618
 21
38.8244
  0
LINE
  8
0
 10
595.618
 20
38.8244
 11
595.541
 21
38.7251
  0
LINE
  8
0
 10
595.541
 20
38.7251
 11
595.458
 21
38.6309
  0
LINE
  8
0
 10
595.458
 20
38.6309
 11
595.369
 21
38.5421
  0
LINE
  8
0
 10
595.369
 20
38.5421
 11
595.275
 21
38.459
  0
LINE
  8
0
 10
595.275
 20
38.459
 11
595.176
 21
38.382
  0
LINE
  8
0
 10
595.176
 20
38.382
 11
595.072
 21
38.3113
  0
LINE
  8
0
 10
595.072
 20
38.3113
 11
594.964
 21
38.2474
  0
LINE
  8
0
 10
594.964
 20
38.2474
 11
594.852
 21
38.1903
  0
LINE
  8
0
 10
594.852
 20
38.1903
 11
594.736
 21
38.1404
  0
LINE
  8
0
 10
594.736
 20
38.1404
 11
594.618
 21
38.0979
  0
LINE
  8
0
 10
594.618
 20
38.0979
 11
594.497
 21
38.0628
  0
LINE
  8
0
 10
594.497
 20
38.0628
 11
594.375
 21
38.0354
  0
LINE
  8
0
 10
594.375
 20
38.0354
 11
594.251
 21
38.0158
  0
LINE
  8
0
 10
594.251
 20
38.0158
 11
594.126
 21
38.0039
  0
LINE
  8
0
 10
594.126
 20
38.0039
 11
594
 21
38
  0
LINE
  8
0
 10
594
 20
38
 11
593.874
 21
38.0039
  0
LINE
  8
0
 10
726.906
 20
18.503
 11
726.812
 21
18.5118
  0
LINE
  8
0
 10
726.812
 20
18.5118
 11
726.719
 21
18.5266
  0
LINE
  8
0
 10
726.719
 20
18.5266
 11
726.627
 21
18.5471
  0
LINE
  8
0
 10
726.627
 20
18.5471
 11
726.536
 21
18.5734
  0
LINE
  8
0
 10
726.536
 20
18.5734
 11
726.448
 21
18.6053
  0
LINE
  8
0
 10
726.448
 20
18.6053
 11
726.361
 21
18.6428
  0
LINE
  8
0
 10
726.361
 20
18.6428
 11
726.277
 21
18.6855
  0
LINE
  8
0
 10
726.277
 20
18.6855
 11
726.196
 21
18.7335
  0
LINE
  8
0
 10
726.196
 20
18.7335
 11
726.118
 21
18.7865
  0
LINE
  8
0
 10
726.118
 20
18.7865
 11
726.044
 21
18.8442
  0
LINE
  8
0
 10
726.044
 20
18.8442
 11
725.973
 21
18.9065
  0
LINE
  8
0
 10
725.973
 20
18.9065
 11
725.907
 21
18.9732
  0
LINE
  8
0
 10
725.907
 20
18.9732
 11
725.844
 21
19.0439
  0
LINE
  8
0
 10
725.844
 20
19.0439
 11
725.786
 21
19.1183
  0
LINE
  8
0
 10
725.786
 20
19.1183
 11
725.734
 21
19.1963
  0
LINE
  8
0
 10
725.734
 20
19.1963
 11
725.686
 21
19.2774
  0
LINE
  8
0
 10
725.686
 20
19.2774
 11
725.643
 21
19.3613
  0
LINE
  8
0
 10
725.643
 20
19.3613
 11
725.605
 21
19.4478
  0
LINE
  8
0
 10
725.605
 20
19.4478
 11
725.573
 21
19.5365
  0
LINE
  8
0
 10
725.573
 20
19.5365
 11
725.547
 21
19.627
  0
LINE
  8
0
 10
725.547
 20
19.627
 11
725.527
 21
19.7189
  0
LINE
  8
0
 10
725.527
 20
19.7189
 11
725.512
 21
19.812
  0
LINE
  8
0
 10
725.512
 20
19.812
 11
725.503
 21
19.9058
  0
LINE
  8
0
 10
725.503
 20
19.9058
 11
725.5
 21
20
  0
LINE
  8
0
 10
725.5
 20
20
 11
725.503
 21
20.0942
  0
LINE
  8
0
 10
725.503
 20
20.0942
 11
725.512
 21
20.188
  0
LINE
  8
0
 10
725.512
 20
20.188
 11
725.527
 21
20.2811
  0
LINE
  8
0
 10
725.527
 20
20.2811
 11
725.547
 21
20.373
  0
LINE
  8
0
 10
725.547
 20
20.373
 11
725.573
 21
20.4635
  0
LINE
  8
0
 10
725.573
 20
20.4635
 11
725.605
 21
20.5522
  0
LINE
  8
0
 10
725.605
 20
20.5522
 11
725.643
 21
20.6387
  0
LINE
  8
0
 10
725.643
 20
20.6387
 11
725.686
 21
20.7226
  0
LINE
  8
0
 10
725.686
 20
20.7226
 11
725.734
 21
20.8037
  0
LINE
  8
0
 10
725.734
 20
20.8037
 11
725.786
 21
20.8817
  0
LINE
  8
0
 10
725.786
 20
20.8817
 11
725.844
 21
20.9561
  0
LINE
  8
0
 10
725.844
 20
20.9561
 11
725.907
 21
21.0268
  0
LINE
  8
0
 10
725.907
 20
21.0268
 11
725.973
 21
21.0934
  0
LINE
  8
0
 10
725.973
 20
21.0934
 11
726.044
 21
21.1558
  0
LINE
  8
0
 10
726.044
 20
21.1558
 11
726.118
 21
21.2135
  0
LINE
  8
0
 10
726.118
 20
21.2135
 11
726.196
 21
21.2665
  0
LINE
  8
0
 10
726.196
 20
21.2665
 11
726.277
 21
21.3145
  0
LINE
  8
0
 10
726.277
 20
21.3145
 11
726.361
 21
21.3572
  0
LINE
  8
0
 10
726.361
 20
21.3572
 11
726.448
 21
21.3947
  0
LINE
  8
0
 10
726.448
 20
21.3947
 11
726.536
 21
21.4266
  0
LINE
  8
0
 10
726.536
 20
21.4266
 11
726.627
 21
21.4529
  0
LINE
  8
0
 10
726.627
 20
21.4529
 11
726.719
 21
21.4734
  0
LINE
  8
0
 10
726.719
 20
21.4734
 11
726.812
 21
21.4882
  0
LINE
  8
0
 10
726.812
 20
21.4882
 11
726.906
 21
21.497
  0
LINE
  8
0
 10
726.906
 20
21.497
 11
727
 21
21.5
  0
LINE
  8
0
 10
727
 20
21.5
 11
727.094
 21
21.497
  0
LINE
  8
0
 10
727.094
 20
21.497
 11
727.188
 21
21.4882
  0
LINE
  8
0
 10
727.188
 20
21.4882
 11
727.281
 21
21.4734
  0
LINE
  8
0
 10
727.281
 20
21.4734
 11
727.373
 21
21.4529
  0
LINE
  8
0
 10
727.373
 20
21.4529
 11
727.464
 21
21.4266
  0
LINE
  8
0
 10
727.464
 20
21.4266
 11
727.552
 21
21.3947
  0
LINE
  8
0
 10
727.552
 20
21.3947
 11
727.639
 21
21.3572
  0
LINE
  8
0
 10
727.639
 20
21.3572
 11
727.723
 21
21.3145
  0
LINE
  8
0
 10
727.723
 20
21.3145
 11
727.804
 21
21.2665
  0
LINE
  8
0
 10
727.804
 20
21.2665
 11
727.882
 21
21.2135
  0
LINE
  8
0
 10
727.882
 20
21.2135
 11
727.956
 21
21.1558
  0
LINE
  8
0
 10
727.956
 20
21.1558
 11
728.027
 21
21.0934
  0
LINE
  8
0
 10
728.027
 20
21.0934
 11
728.093
 21
21.0268
  0
LINE
  8
0
 10
728.093
 20
21.0268
 11
728.156
 21
20.9561
  0
LINE
  8
0
 10
728.156
 20
20.9561
 11
728.214
 21
20.8817
  0
LINE
  8
0
 10
728.214
 20
20.8817
 11
728.266
 21
20.8037
  0
LINE
  8
0
 10
728.266
 20
20.8037
 11
728.314
 21
20.7226
  0
LINE
  8
0
 10
728.314
 20
20.7226
 11
728.357
 21
20.6387
  0
LINE
  8
0
 10
728.357
 20
20.6387
 11
728.395
 21
20.5522
  0
LINE
  8
0
 10
728.395
 20
20.5522
 11
728.427
 21
20.4635
  0
LINE
  8
0
 10
728.427
 20
20.4635
 11
728.453
 21
20.373
  0
LINE
  8
0
 10
728.453
 20
20.373
 11
728.473
 21
20.2811
  0
LINE
  8
0
 10
728.473
 20
20.2811
 11
728.488
 21
20.188
  0
LINE
  8
0
 10
728.488
 20
20.188
 11
728.497
 21
20.0942
  0
LINE
  8
0
 10
728.497
 20
20.0942
 11
728.5
 21
20
  0
LINE
  8
0
 10
728.5
 20
20
 11
728.497
 21
19.9058
  0
LINE
  8
0
 10
728.497
 20
19.9058
 11
728.488
 21
19.812
  0
LINE
  8
0
 10
728.488
 20
19.812
 11
728.473
 21
19.7189
  0
LINE
  8
0
 10
728.473
 20
19.7189
 11
728.453
 21
19.627
  0
LINE
  8
0
 10
728.453
 20
19.627
 11
728.427
 21
19.5365
  0
LINE
  8
0
 10
728.427
 20
19.5365
 11
728.395
 21
19.4478
  0
LINE
  8
0
 10
728.395
 20
19.4478
 11
728.357
 21
19.3613
  0
LINE
  8
0
 10
728.357
 20
19.3613
 11
728.314
 21
19.2774
  0
LINE
  8
0
 10
728.314
 20
19.2774
 11
728.266
 21
19.1963
  0
LINE
  8
0
 10
728.266
 20
19.1963
 11
728.214
 21
19.1183
  0
LINE
  8
0
 10
728.214
 20
19.1183
 11
728.156
 21
19.0439
  0
LINE
  8
0
 10
728.156
 20
19.0439
 11
728.093
 21
18.9732
  0
LINE
  8
0
 10
728.093
 20
18.9732
 11
728.027
 21
18.9065
  0
LINE
  8
0
 10
728.027
 20
18.9065
 11
727.956
 21
18.8442
  0
LINE
  8
0
 10
727.956
 20
18.8442
 11
727.882
 21
18.7865
  0
LINE
  8
0
 10
727.882
 20
18.7865
 11
727.804
 21
18.7335
  0
LINE
  8
0
 10
727.804
 20
18.7335
 11
727.723
 21
18.6855
  0
LINE
  8
0
 10
727.723
 20
18.6855
 11
727.639
 21
18.6428
  0
LINE
  8
0
 10
727.639
 20
18.6428
 11
727.552
 21
18.6053
  0
LINE
  8
0
 10
727.552
 20
18.6053
 11
727.464
 21
18.5734
  0
LINE
  8
0
 10
727.464
 20
18.5734
 11
727.373
 21
18.5471
  0
LINE
  8
0
 10
727.373
 20
18.5471
 11
727.281
 21
18.5266
  0
LINE
  8
0
 10
727.281
 20
18.5266
 11
727.188
 21
18.5118
  0
LINE
  8
0
 10
727.188
 20
18.5118
 11
727.094
 21
18.503
  0
LINE
  8
0
 10
727.094
 20
18.503
 11
727
 21
18.5
  0
LINE
  8
0
 10
727
 20
18.5
 11
726.906
 21
18.503
  0
LINE
  8
0
 10
736.906
 20
18.503
 11
736.812
 21
18.5118
  0
LINE
  8
0
 10
736.812
 20
18.5118
 11
736.719
 21
18.5266
  0
LINE
  8
0
 10
736.719
 20
18.5266
 11
736.627
 21
18.5471
  0
LINE
  8
0
 10
736.627
 20
18.5471
 11
736.536
 21
18.5734
  0
LINE
  8
0
 10
736.536
 20
18.5734
 11
736.448
 21
18.6053
  0
LINE
  8
0
 10
736.448
 20
18.6053
 11
736.361
 21
18.6428
  0
LINE
  8
0
 10
736.361
 20
18.6428
 11
736.277
 21
18.6855
  0
LINE
  8
0
 10
736.277
 20
18.6855
 11
736.196
 21
18.7335
  0
LINE
  8
0
 10
736.196
 20
18.7335
 11
736.118
 21
18.7865
  0
LINE
  8
0
 10
736.118
 20
18.7865
 11
736.044
 21
18.8442
  0
LINE
  8
0
 10
736.044
 20
18.8442
 11
735.973
 21
18.9065
  0
LINE
  8
0
 10
735.973
 20
18.9065
 11
735.907
 21
18.9732
  0
LINE
  8
0
 10
735.907
 20
18.9732
 11
735.844
 21
19.0439
  0
LINE
  8
0
 10
735.844
 20
19.0439
 11
735.786
 21
19.1183
  0
LINE
  8
0
 10
735.786
 20
19.1183
 11
735.734
 21
19.1963
  0
LINE
  8
0
 10
735.734
 20
19.1963
 11
735.686
 21
19.2774
  0
LINE
  8
0
 10
735.686
 20
19.2774
 11
735.643
 21
19.3613
  0
LINE
  8
0
 10
735.643
 20
19.3613
 11
735.605
 21
19.4478
  0
LINE
  8
0
 10
735.605
 20
19.4478
 11
735.573
 21
19.5365
  0
LINE
  8
0
 10
735.573
 20
19.5365
 11
735.547
 21
19.627
  0
LINE
  8
0
 10
735.547
 20
19.627
 11
735.527
 21
19.7189
  0
LINE
  8
0
 10
735.527
 20
19.7189
 11
735.512
 21
19.812
  0
LINE
  8
0
 10
735.512
 20
19.812
 11
735.503
 21
19.9058
  0
LINE
  8
0
 10
735.503
 20
19.9058
 11
735.5
 21
20
  0
LINE
  8
0
 10
735.5
 20
20
 11
735.503
 21
20.0942
  0
LINE
  8
0
 10
735.503
 20
20.0942
 11
735.512
 21
20.188
  0
LINE
  8
0
 10
735.512
 20
20.188
 11
735.527
 21
20.2811
  0
LINE
  8
0
 10
735.527
 20
20.2811
 11
735.547
 21
20.373
  0
LINE
  8
0
 10
735.547
 20
20.373
 11
735.573
 21
20.4635
  0
LINE
  8
0
 10
735.573
 20
20.4635
 11
735.605
 21
20.5522
  0
LINE
  8
0
 10
735.605
 20
20.5522
 11
735.643
 21
20.6387
  0
LINE
  8
0
 10
735.643
 20
20.6387
 11
735.686
 21
20.7226
  0
LINE
  8
0
 10
735.686
 20
20.7226
 11
735.734
 21
20.8037
  0
LINE
  8
0
 10
735.734
 20
20.8037
 11
735.786
 21
20.8817
  0
LINE
  8
0
 10
735.786
 20
20.8817
 11
735.844
 21
20.9561
  0
LINE
  8
0
 10
735.844
 20
20.9561
 11
735.907
 21
21.0268
  0
LINE
  8
0
 10
735.907
 20
21.0268
 11
735.973
 21
21.0934
  0
LINE
  8
0
 10
735.973
 20
21.0934
 11
736.044
 21
21.1558
  0
LINE
  8
0
 10
736.044
 20
21.1558
 11
736.118
 21
21.2135
  0
LINE
  8
0
 10
736.118
 20
21.2135
 11
736.196
 21
21.2665
  0
LINE
  8
0
 10
736.196
 20
21.2665
 11
736.277
 21
21.3145
  0
LINE
  8
0
 10
736.277
 20
21.3145
 11
736.361
 21
21.3572
  0
LINE
  8
0
 10
736.361
 20
21.3572
 11
736.448
 21
21.3947
  0
LINE
  8
0
 10
736.448
 20
21.3947
 11
736.536
 21
21.4266
  0
LINE
  8
0
 10
736.536
 20
21.4266
 11
736.627
 21
21.4529
  0
LINE
  8
0
 10
736.627
 20
21.4529
 11
736.719
 21
21.4734
  0
LINE
  8
0
 10
736.719
 20
21.4734
 11
736.812
 21
21.4882
  0
LINE
  8
0
 10
736.812
 20
21.4882
 11
736.906
 21
21.497
  0
LINE
  8
0
 10
736.906
 20
21.497
 11
737
 21
21.5
  0
LINE
  8
0
 10
737
 20
21.5
 11
737.094
 21
21.497
  0
LINE
  8
0
 10
737.094
 20
21.497
 11
737.188
 21
21.4882
  0
LINE
  8
0
 10
737.188
 20
21.4882
 11
737.281
 21
21.4734
  0
LINE
  8
0
 10
737.281
 20
21.4734
 11
737.373
 21
21.4529
  0
LINE
  8
0
 10
737.373
 20
21.4529
 11
737.464
 21
21.4266
  0
LINE
  8
0
 10
737.464
 20
21.4266
 11
737.552
 21
21.3947
  0
LINE
  8
0
 10
737.552
 20
21.3947
 11
737.639
 21
21.3572
  0
LINE
  8
0
 10
737.639
 20
21.3572
 11
737.723
 21
21.3145
  0
LINE
  8
0
 10
737.723
 20
21.3145
 11
737.804
 21
21.2665
  0
LINE
  8
0
 10
737.804
 20
21.2665
 11
737.882
 21
21.2135
  0
LINE
  8
0
 10
737.882
 20
21.2135
 11
737.956
 21
21.1558
  0
LINE
  8
0
 10
737.956
 20
21.1558
 11
738.027
 21
21.0934
  0
LINE
  8
0
 10
738.027
 20
21.0934
 11
738.093
 21
21.0268
  0
LINE
  8
0
 10
738.093
 20
21.0268
 11
738.156
 21
20.9561
  0
LINE
  8
0
 10
738.156
 20
20.9561
 11
738.214
 21
20.8817
  0
LINE
  8
0
 10
738.214
 20
20.8817
 11
738.266
 21
20.8037
  0
LINE
  8
0
 10
738.266
 20
20.8037
 11
738.314
 21
20.7226
  0
LINE
  8
0
 10
738.314
 20
20.7226
 11
738.357
 21
20.6387
  0
LINE
  8
0
 10
738.357
 20
20.6387
 11
738.395
 21
20.5522
  0
LINE
  8
0
 10
738.395
 20
20.5522
 11
738.427
 21
20.4635
  0
LINE
  8
0
 10
738.427
 20
20.4635
 11
738.453
 21
20.373
  0
LINE
  8
0
 10
738.453
 20
20.373
 11
738.473
 21
20.2811
  0
LINE
  8
0
 10
738.473
 20
20.2811
 11
738.488
 21
20.188
  0
LINE
  8
0
 10
738.488
 20
20.188
 11
738.497
 21
20.0942
  0
LINE
  8
0
 10
738.497
 20
20.0942
 11
738.5
 21
20
  0
LINE
  8
0
 10
738.5
 20
20
 11
738.497
 21
19.9058
  0
LINE
  8
0
 10
738.497
 20
19.9058
 11
738.488
 21
19.812
  0
LINE
  8
0
 10
738.488
 20
19.812
 11
738.473
 21
19.7189
  0
LINE
  8
0
 10
738.473
 20
19.7189
 11
738.453
 21
19.627
  0
LINE
  8
0
 10
738.453
 20
19.627
 11
738.427
 21
19.5365
  0
LINE
  8
0
 10
738.427
 20
19.5365
 11
738.395
 21
19.4478
  0
LINE
  8
0
 10
738.395
 20
19.4478
 11
738.357
 21
19.3613
  0
LINE
  8
0
 10
738.357
 20
19.3613
 11
738.314
 21
19.2774
  0
LINE
  8
0
 10
738.314
 20
19.2774
 11
738.266
 21
19.1963
  0
LINE
  8
0
 10
738.266
 20
19.1963
 11
738.214
 21
19.1183
  0
LINE
  8
0
 10
738.214
 20
19.1183
 11
738.156
 21
19.0439
  0
LINE
  8
0
 10
738.156
 20
19.0439
 11
738.093
 21
18.9732
  0
LINE
  8
0
 10
738.093
 20
18.9732
 11
738.027
 21
18.9065
  0
LINE
  8
0
 10
738.027
 20
18.9065
 11
737.956
 21
18.8442
  0
LINE
  8
0
 10
737.956
 20
18.8442
 11
737.882
 21
18.7865
  0
LINE
  8
0
 10
737.882
 20
18.7865
 11
737.804
 21
18.7335
  0
LINE
  8
0
 10
737.804
 20
18.7335
 11
737.723
 21
18.6855
  0
LINE
  8
0
 10
737.723
 20
18.6855
 11
737.639
 21
18.6428
  0
LINE
  8
0
 10
737.639
 20
18.6428
 11
737.552
 21
18.6053
  0
LINE
  8
0
 10
737.552
 20
18.6053
 11
737.464
 21
18.5734
  0
LINE
  8
0
 10
737.464
 20
18.5734
 11
737.373
 21
18.5471
  0
LINE
  8
0
 10
737.373
 20
18.5471
 11
737.281
 21
18.5266
  0
LINE
  8
0
 10
737.281
 20
18.5266
 11
737.188
 21
18.5118
  0
LINE
  8
0
 10
737.188
 20
18.5118
 11
737.094
 21
18.503
  0
LINE
  8
0
 10
737.094
 20
18.503
 11
737
 21
18.5
  0
LINE
  8
0
 10
737
 20
18.5
 11
736.906
 21
18.503
  0
LINE
  8
0
 10
567
 20
300
 11
403
 21
300
  0
LINE
  8
0
 10
403
 20
300
 11
403
 21
0
  0
LINE
  8
0
 10
403
 20
0
 11
567
 21
0
  0
LINE
  8
0
 10
567
 20
0
 11
567
 21
300
  0
LINE
  8
0
 10
546.906
 20
278.503
 11
546.812
 21
278.512
  0
LINE
  8
0
 10
546.812
 20
278.512
 11
546.719
 21
278.527
  0
LINE
  8
0
 10
546.719
 20
278.527
 11
546.627
 21
278.547
  0
LINE
  8
0
 10
546.627
 20
278.547
 11
546.536
 21
278.573
  0
LINE
  8
0
 10
546.536
 20
278.573
 11
546.448
 21
278.605
  0
LINE
  8
0
 10
546.448
 20
278.605
 11
546.361
 21
278.643
  0
LINE
  8
0
 10
546.361
 20
278.643
 11
546.277
 21
278.686
  0
LINE
  8
0
 10
546.277
 20
278.686
 11
546.196
 21
278.734
  0
LINE
  8
0
 10
546.196
 20
278.734
 11
546.118
 21
278.786
  0
LINE
  8
0
 10
546.118
 20
278.786
 11
546.044
 21
278.844
  0
LINE
  8
0
 10
546.044
 20
278.844
 11
545.973
 21
278.907
  0
LINE
  8
0
 10
545.973
 20
278.907
 11
545.907
 21
278.973
  0
LINE
  8
0
 10
545.907
 20
278.973
 11
545.844
 21
279.044
  0
LINE
  8
0
 10
545.844
 20
279.044
 11
545.786
 21
279.118
  0
LINE
  8
0
 10
545.786
 20
279.118
 11
545.734
 21
279.196
  0
LINE
  8
0
 10
545.734
 20
279.196
 11
545.686
 21
279.277
  0
LINE
  8
0
 10
545.686
 20
279.277
 11
545.643
 21
279.361
  0
LINE
  8
0
 10
545.643
 20
279.361
 11
545.605
 21
279.448
  0
LINE
  8
0
 10
545.605
 20
279.448
 11
545.573
 21
279.536
  0
LINE
  8
0
 10
545.573
 20
279.536
 11
545.547
 21
279.627
  0
LINE
  8
0
 10
545.547
 20
279.627
 11
545.527
 21
279.719
  0
LINE
  8
0
 10
545.527
 20
279.719
 11
545.512
 21
279.812
  0
LINE
  8
0
 10
545.512
 20
279.812
 11
545.503
 21
279.906
  0
LINE
  8
0
 10
545.503
 20
279.906
 11
545.5
 21
280
  0
LINE
  8
0
 10
545.5
 20
280
 11
545.503
 21
280.094
  0
LINE
  8
0
 10
545.503
 20
280.094
 11
545.512
 21
280.188
  0
LINE
  8
0
 10
545.512
 20
280.188
 11
545.527
 21
280.281
  0
LINE
  8
0
 10
545.527
 20
280.281
 11
545.547
 21
280.373
  0
LINE
  8
0
 10
545.547
 20
280.373
 11
545.573
 21
280.464
  0
LINE
  8
0
 10
545.573
 20
280.464
 11
545.605
 21
280.552
  0
LINE
  8
0
 10
545.605
 20
280.552
 11
545.643
 21
280.639
  0
LINE
  8
0
 10
545.643
 20
280.639
 11
545.686
 21
280.723
  0
LINE
  8
0
 10
545.686
 20
280.723
 11
545.734
 21
280.804
  0
LINE
  8
0
 10
545.734
 20
280.804
 11
545.786
 21
280.882
  0
LINE
  8
0
 10
545.786
 20
280.882
 11
545.844
 21
280.956
  0
LINE
  8
0
 10
545.844
 20
280.956
 11
545.907
 21
281.027
  0
LINE
  8
0
 10
545.907
 20
281.027
 11
545.973
 21
281.093
  0
LINE
  8
0
 10
545.973
 20
281.093
 11
546.044
 21
281.156
  0
LINE
  8
0
 10
546.044
 20
281.156
 11
546.118
 21
281.214
  0
LINE
  8
0
 10
546.118
 20
281.214
 11
546.196
 21
281.266
  0
LINE
  8
0
 10
546.196
 20
281.266
 11
546.277
 21
281.314
  0
LINE
  8
0
 10
546.277
 20
281.314
 11
546.361
 21
281.357
  0
LINE
  8
0
 10
546.361
 20
281.357
 11
546.448
 21
281.395
  0
LINE
  8
0
 10
546.448
 20
281.395
 11
546.536
 21
281.427
  0
LINE
  8
0
 10
546.536
 20
281.427
 11
546.627
 21
281.453
  0
LINE
  8
0
 10
546.627
 20
281.453
 11
546.719
 21
281.473
  0
LINE
  8
0
 10
546.719
 20
281.473
 11
546.812
 21
281.488
  0
LINE
  8
0
 10
546.812
 20
281.488
 11
546.906
 21
281.497
  0
LINE
  8
0
 10
546.906
 20
281.497
 11
547
 21
281.5
  0
LINE
  8
0
 10
547
 20
281.5
 11
547.094
 21
281.497
  0
LINE
  8
0
 10
547.094
 20
281.497
 11
547.188
 21
281.488
  0
LINE
  8
0
 10
547.188
 20
281.488
 11
547.281
 21
281.473
  0
LINE
  8
0
 10
547.281
 20
281.473
 11
547.373
 21
281.453
  0
LINE
  8
0
 10
547.373
 20
281.453
 11
547.464
 21
281.427
  0
LINE
  8
0
 10
547.464
 20
281.427
 11
547.552
 21
281.395
  0
LINE
  8
0
 10
547.552
 20
281.395
 11
547.639
 21
281.357
  0
LINE
  8
0
 10
547.639
 20
281.357
 11
547.723
 21
281.314
  0
LINE
  8
0
 10
547.723
 20
281.314
 11
547.804
 21
281.266
  0
LINE
  8
0
 10
547.804
 20
281.266
 11
547.882
 21
281.214
  0
LINE
  8
0
 10
547.882
 20
281.214
 11
547.956
 21
281.156
  0
LINE
  8
0
 10
547.956
 20
281.156
 11
548.027
 21
281.093
  0
LINE
  8
0
 10
548.027
 20
281.093
 11
548.093
 21
281.027
  0
LINE
  8
0
 10
548.093
 20
281.027
 11
548.156
 21
280.956
  0
LINE
  8
0
 10
548.156
 20
280.956
 11
548.214
 21
280.882
  0
LINE
  8
0
 10
548.214
 20
280.882
 11
548.266
 21
280.804
  0
LINE
  8
0
 10
548.266
 20
280.804
 11
548.314
 21
280.723
  0
LINE
  8
0
 10
548.314
 20
280.723
 11
548.357
 21
280.639
  0
LINE
  8
0
 10
548.357
 20
280.639
 11
548.395
 21
280.552
  0
LINE
  8
0
 10
548.395
 20
280.552
 11
548.427
 21
280.464
  0
LINE
  8
0
 10
548.427
 20
280.464
 11
548.453
 21
280.373
  0
LINE
  8
0
 10
548.453
 20
280.373
 11
548.473
 21
280.281
  0
LINE
  8
0
 10
548.473
 20
280.281
 11
548.488
 21
280.188
  0
LINE
  8
0
 10
548.488
 20
280.188
 11
548.497
 21
280.094
  0
LINE
  8
0
 10
548.497
 20
280.094
 11
548.5
 21
280
  0
LINE
  8
0
 10
548.5
 20
280
 11
548.497
 21
279.906
  0
LINE
  8
0
 10
548.497
 20
279.906
 11
548.488
 21
279.812
  0
LINE
  8
0
 10
548.488
 20
279.812
 11
548.473
 21
279.719
  0
LINE
  8
0
 10
548.473
 20
279.719
 11
548.453
 21
279.627
  0
LINE
  8
0
 10
548.453
 20
279.627
 11
548.427
 21
279.536
  0
LINE
  8
0
 10
548.427
 20
279.536
 11
548.395
 21
279.448
  0
LINE
  8
0
 10
548.395
 20
279.448
 11
548.357
 21
279.361
  0
LINE
  8
0
 10
548.357
 20
279.361
 11
548.314
 21
279.277
  0
LINE
  8
0
 10
548.314
 20
279.277
 11
548.266
 21
279.196
  0
LINE
  8
0
 10
548.266
 20
279.196
 11
548.214
 21
279.118
  0
LINE
  8
0
 10
548.214
 20
279.118
 11
548.156
 21
279.044
  0
LINE
  8
0
 10
548.156
 20
279.044
 11
548.093
 21
278.973
  0
LINE
  8
0
 10
548.093
 20
278.973
 11
548.027
 21
278.907
  0
LINE
  8
0
 10
548.027
 20
278.907
 11
547.956
 21
278.844
  0
LINE
  8
0
 10
547.956
 20
278.844
 11
547.882
 21
278.786
  0
LINE
  8
0
 10
547.882
 20
278.786
 11
547.804
 21
278.734
  0
LINE
  8
0
 10
547.804
 20
278.734
 11
547.723
 21
278.686
  0
LINE
  8
0
 10
547.723
 20
278.686
 11
547.639
 21
278.643
  0
LINE
  8
0
 10
547.639
 20
278.643
 11
547.552
 21
278.605
  0
LINE
  8
0
 10
547.552
 20
278.605
 11
547.464
 21
278.573
  0
LINE
  8
0
 10
547.464
 20
278.573
 11
547.373
 21
278.547
  0
LINE
  8
0
 10
547.373
 20
278.547
 11
547.281
 21
278.527
  0
LINE
  8
0
 10
547.281
 20
278.527
 11
547.188
 21
278.512
  0
LINE
  8
0
 10
547.188
 20
278.512
 11
547.094
 21
278.503
  0
LINE
  8
0
 10
547.094
 20
278.503
 11
547
 21
278.5
  0
LINE
  8
0
 10
547
 20
278.5
 11
546.906
 21
278.503
  0
LINE
  8
0
 10
556.906
 20
278.503
 11
556.812
 21
278.512
  0
LINE
  8
0
 10
556.812
 20
278.512
 11
556.719
 21
278.527
  0
LINE
  8
0
 10
556.719
 20
278.527
 11
556.627
 21
278.547
  0
LINE
  8
0
 10
556.627
 20
278.547
 11
556.536
 21
278.573
  0
LINE
  8
0
 10
556.536
 20
278.573
 11
556.448
 21
278.605
  0
LINE
  8
0
 10
556.448
 20
278.605
 11
556.361
 21
278.643
  0
LINE
  8
0
 10
556.361
 20
278.643
 11
556.277
 21
278.686
  0
LINE
  8
0
 10
556.277
 20
278.686
 11
556.196
 21
278.734
  0
LINE
  8
0
 10
556.196
 20
278.734
 11
556.118
 21
278.786
  0
LINE
  8
0
 10
556.118
 20
278.786
 11
556.044
 21
278.844
  0
LINE
  8
0
 10
556.044
 20
278.844
 11
555.973
 21
278.907
  0
LINE
  8
0
 10
555.973
 20
278.907
 11
555.907
 21
278.973
  0
LINE
  8
0
 10
555.907
 20
278.973
 11
555.844
 21
279.044
  0
LINE
  8
0
 10
555.844
 20
279.044
 11
555.786
 21
279.118
  0
LINE
  8
0
 10
555.786
 20
279.118
 11
555.734
 21
279.196
  0
LINE
  8
0
 10
555.734
 20
279.196
 11
555.686
 21
279.277
  0
LINE
  8
0
 10
555.686
 20
279.277
 11
555.643
 21
279.361
  0
LINE
  8
0
 10
555.643
 20
279.361
 11
555.605
 21
279.448
  0
LINE
  8
0
 10
555.605
 20
279.448
 11
555.573
 21
279.536
  0
LINE
  8
0
 10
555.573
 20
279.536
 11
555.547
 21
279.627
  0
LINE
  8
0
 10
555.547
 20
279.627
 11
555.527
 21
279.719
  0
LINE
  8
0
 10
555.527
 20
279.719
 11
555.512
 21
279.812
  0
LINE
  8
0
 10
555.512
 20
279.812
 11
555.503
 21
279.906
  0
LINE
  8
0
 10
555.503
 20
279.906
 11
555.5
 21
280
  0
LINE
  8
0
 10
555.5
 20
280
 11
555.503
 21
280.094
  0
LINE
  8
0
 10
555.503
 20
280.094
 11
555.512
 21
280.188
  0
LINE
  8
0
 10
555.512
 20
280.188
 11
555.527
 21
280.281
  0
LINE
  8
0
 10
555.527
 20
280.281
 11
555.547
 21
280.373
  0
LINE
  8
0
 10
555.547
 20
280.373
 11
555.573
 21
280.464
  0
LINE
  8
0
 10
555.573
 20
280.464
 11
555.605
 21
280.552
  0
LINE
  8
0
 10
555.605
 20
280.552
 11
555.643
 21
280.639
  0
LINE
  8
0
 10
555.643
 20
280.639
 11
555.686
 21
280.723
  0
LINE
  8
0
 10
555.686
 20
280.723
 11
555.734
 21
280.804
  0
LINE
  8
0
 10
555.734
 20
280.804
 11
555.786
 21
280.882
  0
LINE
  8
0
 10
555.786
 20
280.882
 11
555.844
 21
280.956
  0
LINE
  8
0
 10
555.844
 20
280.956
 11
555.907
 21
281.027
  0
LINE
  8
0
 10
555.907
 20
281.027
 11
555.973
 21
281.093
  0
LINE
  8
0
 10
555.973
 20
281.093
 11
556.044
 21
281.156
  0
LINE
  8
0
 10
556.044
 20
281.156
 11
556.118
 21
281.214
  0
LINE
  8
0
 10
556.118
 20
281.214
 11
556.196
 21
281.266
  0
LINE
  8
0
 10
556.196
 20
281.266
 11
556.277
 21
281.314
  0
LINE
  8
0
 10
556.277
 20
281.314
 11
556.361
 21
281.357
  0
LINE
  8
0
 10
556.361
 20
281.357
 11
556.448
 21
281.395
  0
LINE
  8
0
 10
556.448
 20
281.395
 11
556.536
 21
281.427
  0
LINE
  8
0
 10
556.536
 20
281.427
 11
556.627
 21
281.453
  0
LINE
  8
0
 10
556.627
 20
281.453
 11
556.719
 21
281.473
  0
LINE
  8
0
 10
556.719
 20
281.473
 11
556.812
 21
281.488
  0
LINE
  8
0
 10
556.812
 20
281.488
 11
556.906
 21
281.497
  0
LINE
  8
0
 10
556.906
 20
281.497
 11
557
 21
281.5
  0
LINE
  8
0
 10
557
 20
281.5
 11
557.094
 21
281.497
  0
LINE
  8
0
 10
557.094
 20
281.497
 11
557.188
 21
281.488
  0
LINE
  8
0
 10
557.188
 20
281.488
 11
557.281
 21
281.473
  0
LINE
  8
0
 10
557.281
 20
281.473
 11
557.373
 21
281.453
  0
LINE
  8
0
 10
557.373
 20
281.453
 11
557.464
 21
281.427
  0
LINE
  8
0
 10
557.464
 20
281.427
 11
557.552
 21
281.395
  0
LINE
  8
0
 10
557.552
 20
281.395
 11
557.639
 21
281.357
  0
LINE
  8
0
 10
557.639
 20
281.357
 11
557.723
 21
281.314
  0
LINE
  8
0
 10
557.723
 20
281.314
 11
557.804
 21
281.266
  0
LINE
  8
0
 10
557.804
 20
281.266
 11
557.882
 21
281.214
  0
LINE
  8
0
 10
557.882
 20
281.214
 11
557.956
 21
281.156
  0
LINE
  8
0
 10
557.956
 20
281.156
 11
558.027
 21
281.093
  0
LINE
  8
0
 10
558.027
 20
281.093
 11
558.093
 21
281.027
  0
LINE
  8
0
 10
558.093
 20
281.027
 11
558.156
 21
280.956
  0
LINE
  8
0
 10
558.156
 20
280.956
 11
558.214
 21
280.882
  0
LINE
  8
0
 10
558.214
 20
280.882
 11
558.266
 21
280.804
  0
LINE
  8
0
 10
558.266
 20
280.804
 11
558.314
 21
280.723
  0
LINE
  8
0
 10
558.314
 20
280.723
 11
558.357
 21
280.639
  0
LINE
  8
0
 10
558.357
 20
280.639
 11
558.395
 21
280.552
  0
LINE
  8
0
 10
558.395
 20
280.552
 11
558.427
 21
280.464
  0
LINE
  8
0
 10
558.427
 20
280.464
 11
558.453
 21
280.373
  0
LINE
  8
0
 10
558.453
 20
280.373
 11
558.473
 21
280.281
  0
LINE
  8
0
 10
558.473
 20
280.281
 11
558.488
 21
280.188
  0
LINE
  8
0
 10
558.488
 20
280.188
 11
558.497
 21
280.094
  0
LINE
  8
0
 10
558.497
 20
280.094
 11
558.5
 21
280
  0
LINE
  8
0
 10
558.5
 20
280
 11
558.497
 21
279.906
  0
LINE
  8
0
 10
558.497
 20
279.906
 11
558.488
 21
279.812
  0
LINE
  8
0
 10
558.488
 20
279.812
 11
558.473
 21
279.719
  0
LINE
  8
0
 10
558.473
 20
279.719
 11
558.453
 21
279.627
  0
LINE
  8
0
 10
558.453
 20
279.627
 11
558.427
 21
279.536
  0
LINE
  8
0
 10
558.427
 20
279.536
 11
558.395
 21
279.448
  0
LINE
  8
0
 10
558.395
 20
279.448
 11
558.357
 21
279.361
  0
LINE
  8
0
 10
558.357
 20
279.361
 11
558.314
 21
279.277
  0
LINE
  8
0
 10
558.314
 20
279.277
 11
558.266
 21
279.196
  0
LINE
  8
0
 10
558.266
 20
279.196
 11
558.214
 21
279.118
  0
LINE
  8
0
 10
558.214
 20
279.118
 11
558.156
 21
279.044
  0
LINE
  8
0
 10
558.156
 20
279.044
 11
558.093
 21
278.973
  0
LINE
  8
0
 10
558.093
 20
278.973
 11
558.027
 21
278.907
  0
LINE
  8
0
 10
558.027
 20
278.907
 11
557.956
 21
278.844
  0
LINE
  8
0
 10
557.956
 20
278.844
 11
557.882
 21
278.786
  0
LINE
  8
0
 10
557.882
 20
278.786
 11
557.804
 21
278.734
  0
LINE
  8
0
 10
557.804
 20
278.734
 11
557.723
 21
278.686
  0
LINE
  8
0
 10
557.723
 20
278.686
 11
557.639
 21
278.643
  0
LINE
  8
0
 10
557.639
 20
278.643
 11
557.552
 21
278.605
  0
LINE
  8
0
 10
557.552
 20
278.605
 11
557.464
 21
278.573
  0
LINE
  8
0
 10
557.464
 20
278.573
 11
557.373
 21
278.547
  0
LINE
  8
0
 10
557.373
 20
278.547
 11
557.281
 21
278.527
  0
LINE
  8
0
 10
557.281
 20
278.527
 11
557.188
 21
278.512
  0
LINE
  8
0
 10
557.188
 20
278.512
 11
557.094
 21
278.503
  0
LINE
  8
0
 10
557.094
 20
278.503
 11
557
 21
278.5
  0
LINE
  8
0
 10
557
 20
278.5
 11
556.906
 21
278.503
  0
LINE
  8
0
 10
556.874
 20
258.004
 11
556.749
 21
258.016
  0
LINE
  8
0
 10
556.749
 20
258.016
 11
556.625
 21
258.035
  0
LINE
  8
0
 10
556.625
 20
258.035
 11
556.503
 21
258.063
  0
LINE
  8
0
 10
556.503
 20
258.063
 11
556.382
 21
258.098
  0
LINE
  8
0
 10
556.382
 20
258.098
 11
556.264
 21
258.14
  0
LINE
  8
0
 10
556.264
 20
258.14
 11
556.148
 21
258.19
  0
LINE
  8
0
 10
556.148
 20
258.19
 11
556.036
 21
258.247
  0
LINE
  8
0
 10
556.036
 20
258.247
 11
555.928
 21
258.311
  0
LINE
  8
0
 10
555.928
 20
258.311
 11
555.824
 21
258.382
  0
LINE
  8
0
 10
555.824
 20
258.382
 11
555.725
 21
258.459
  0
LINE
  8
0
 10
555.725
 20
258.459
 11
555.631
 21
258.542
  0
LINE
  8
0
 10
555.631
 20
258.542
 11
555.542
 21
258.631
  0
LINE
  8
0
 10
555.542
 20
258.631
 11
555.459
 21
258.725
  0
LINE
  8
0
 10
555.459
 20
258.725
 11
555.382
 21
258.824
  0
LINE
  8
0
 10
555.382
 20
258.824
 11
555.311
 21
258.928
  0
LINE
  8
0
 10
555.311
 20
258.928
 11
555.247
 21
259.036
  0
LINE
  8
0
 10
555.247
 20
259.036
 11
555.19
 21
259.148
  0
LINE
  8
0
 10
555.19
 20
259.148
 11
555.14
 21
259.264
  0
LINE
  8
0
 10
555.14
 20
259.264
 11
555.098
 21
259.382
  0
LINE
  8
0
 10
555.098
 20
259.382
 11
555.063
 21
259.503
  0
LINE
  8
0
 10
555.063
 20
259.503
 11
555.035
 21
259.625
  0
LINE
  8
0
 10
555.035
 20
259.625
 11
555.016
 21
259.749
  0
LINE
  8
0
 10
555.016
 20
259.749
 11
555.004
 21
259.874
  0
LINE
  8
0
 10
555.004
 20
259.874
 11
555
 21
260
  0
LINE
  8
0
 10
555
 20
260
 11
555.004
 21
260.126
  0
LINE
  8
0
 10
555.004
 20
260.126
 11
555.016
 21
260.251
  0
LINE
  8
0
 10
555.016
 20
260.251
 11
555.035
 21
260.375
  0
LINE
  8
0
 10
555.035
 20
260.375
 11
555.063
 21
260.497
  0
LINE
  8
0
 10
555.063
 20
260.497
 11
555.098
 21
260.618
  0
LINE
  8
0
 10
555.098
 20
260.618
 11
555.14
 21
260.736
  0
LINE
  8
0
 10
555.14
 20
260.736
 11
555.19
 21
260.852
  0
LINE
  8
0
 10
555.19
 20
260.852
 11
555.247
 21
260.964
  0
LINE
  8
0
 10
555.247
 20
260.964
 11
555.311
 21
261.072
  0
LINE
  8
0
 10
555.311
 20
261.072
 11
555.382
 21
261.176
  0
LINE
  8
0
 10
555.382
 20
261.176
 11
555.459
 21
261.275
  0
LINE
  8
0
 10
555.459
 20
261.275
 11
555.542
 21
261.369
  0
LINE
  8
0
 10
555.542
 20
261.369
 11
555.631
 21
261.458
  0
LINE
  8
0
 10
555.631
 20
261.458
 11
555.725
 21
261.541
  0
LINE
  8
0
 10
555.725
 20
261.541
 11
555.824
 21
261.618
  0
LINE
  8
0
 10
555.824
 20
261.618
 11
555.928
 21
261.689
  0
LINE
  8
0
 10
555.928
 20
261.689
 11
556.036
 21
261.753
  0
LINE
  8
0
 10
556.036
 20
261.753
 11
556.148
 21
261.81
  0
LINE
  8
0
 10
556.148
 20
261.81
 11
556.264
 21
261.86
  0
LINE
  8
0
 10
556.264
 20
261.86
 11
556.382
 21
261.902
  0
LINE
  8
0
 10
556.382
 20
261.902
 11
556.503
 21
261.937
  0
LINE
  8
0
 10
556.503
 20
261.937
 11
556.625
 21
261.965
  0
LINE
  8
0
 10
556.625
 20
261.965
 11
556.749
 21
261.984
  0
LINE
  8
0
 10
556.749
 20
261.984
 11
556.874
 21
261.996
  0
LINE
  8
0
 10
556.874
 20
261.996
 11
557
 21
262
  0
LINE
  8
0
 10
557
 20
262
 11
557.126
 21
261.996
  0
LINE
  8
0
 10
557.126
 20
261.996
 11
557.251
 21
261.984
  0
LINE
  8
0
 10
557.251
 20
261.984
 11
557.375
 21
261.965
  0
LINE
  8
0
 10
557.375
 20
261.965
 11
557.497
 21
261.937
  0
LINE
  8
0
 10
557.497
 20
261.937
 11
557.618
 21
261.902
  0
LINE
  8
0
 10
557.618
 20
261.902
 11
557.736
 21
261.86
  0
LINE
  8
0
 10
557.736
 20
261.86
 11
557.852
 21
261.81
  0
LINE
  8
0
 10
557.852
 20
261.81
 11
557.964
 21
261.753
  0
LINE
  8
0
 10
557.964
 20
261.753
 11
558.072
 21
261.689
  0
LINE
  8
0
 10
558.072
 20
261.689
 11
558.176
 21
261.618
  0
LINE
  8
0
 10
558.176
 20
261.618
 11
558.275
 21
261.541
  0
LINE
  8
0
 10
558.275
 20
261.541
 11
558.369
 21
261.458
  0
LINE
  8
0
 10
558.369
 20
261.458
 11
558.458
 21
261.369
  0
LINE
  8
0
 10
558.458
 20
261.369
 11
558.541
 21
261.275
  0
LINE
  8
0
 10
558.541
 20
261.275
 11
558.618
 21
261.176
  0
LINE
  8
0
 10
558.618
 20
261.176
 11
558.689
 21
261.072
  0
LINE
  8
0
 10
558.689
 20
261.072
 11
558.753
 21
260.964
  0
LINE
  8
0
 10
558.753
 20
260.964
 11
558.81
 21
260.852
  0
LINE
  8
0
 10
558.81
 20
260.852
 11
558.86
 21
260.736
  0
LINE
  8
0
 10
558.86
 20
260.736
 11
558.902
 21
260.618
  0
LINE
  8
0
 10
558.902
 20
260.618
 11
558.937
 21
260.497
  0
LINE
  8
0
 10
558.937
 20
260.497
 11
558.965
 21
260.375
  0
LINE
  8
0
 10
558.965
 20
260.375
 11
558.984
 21
260.251
  0
LINE
  8
0
 10
558.984
 20
260.251
 11
558.996
 21
260.126
  0
LINE
  8
0
 10
558.996
 20
260.126
 11
559
 21
260
  0
LINE
  8
0
 10
559
 20
260
 11
558.996
 21
259.874
  0
LINE
  8
0
 10
558.996
 20
259.874
 11
558.984
 21
259.749
  0
LINE
  8
0
 10
558.984
 20
259.749
 11
558.965
 21
259.625
  0
LINE
  8
0
 10
558.965
 20
259.625
 11
558.937
 21
259.503
  0
LINE
  8
0
 10
558.937
 20
259.503
 11
558.902
 21
259.382
  0
LINE
  8
0
 10
558.902
 20
259.382
 11
558.86
 21
259.264
  0
LINE
  8
0
 10
558.86
 20
259.264
 11
558.81
 21
259.148
  0
LINE
  8
0
 10
558.81
 20
259.148
 11
558.753
 21
259.036
  0
LINE
  8
0
 10
558.753
 20
259.036
 11
558.689
 21
258.928
  0
LINE
  8
0
 10
558.689
 20
258.928
 11
558.618
 21
258.824
  0
LINE
  8
0
 10
558.618
 20
258.824
 11
558.541
 21
258.725
  0
LINE
  8
0
 10
558.541
 20
258.725
 11
558.458
 21
258.631
  0
LINE
  8
0
 10
558.458
 20
258.631
 11
558.369
 21
258.542
  0
LINE
  8
0
 10
558.369
 20
258.542
 11
558.275
 21
258.459
  0
LINE
  8
0
 10
558.275
 20
258.459
 11
558.176
 21
258.382
  0
LINE
  8
0
 10
558.176
 20
258.382
 11
558.072
 21
258.311
  0
LINE
  8
0
 10
558.072
 20
258.311
 11
557.964
 21
258.247
  0
LINE
  8
0
 10
557.964
 20
258.247
 11
557.852
 21
258.19
  0
LINE
  8
0
 10
557.852
 20
258.19
 11
557.736
 21
258.14
  0
LINE
  8
0
 10
557.736
 20
258.14
 11
557.618
 21
258.098
  0
LINE
  8
0
 10
557.618
 20
258.098
 11
557.497
 21
258.063
  0
LINE
  8
0
 10
557.497
 20
258.063
 11
557.375
 21
258.035
  0
LINE
  8
0
 10
557.375
 20
258.035
 11
557.251
 21
258.016
  0
LINE
  8
0
 10
557.251
 20
258.016
 11
557.126
 21
258.004
  0
LINE
  8
0
 10
557.126
 20
258.004
 11
557
 21
258
  0
LINE
  8
0
 10
557
 20
258
 11
556.874
 21
258.004
  0
LINE
  8
0
 10
413.874
 20
258.004
 11
413.749
 21
258.016
  0
LINE
  8
0
 10
413.749
 20
258.016
 11
413.625
 21
258.035
  0
LINE
  8
0
 10
413.625
 20
258.035
 11
413.503
 21
258.063
  0
LINE
  8
0
 10
413.503
 20
258.063
 11
413.382
 21
258.098
  0
LINE
  8
0
 10
413.382
 20
258.098
 11
413.264
 21
258.14
  0
LINE
  8
0
 10
413.264
 20
258.14
 11
413.148
 21
258.19
  0
LINE
  8
0
 10
413.148
 20
258.19
 11
413.036
 21
258.247
  0
LINE
  8
0
 10
413.036
 20
258.247
 11
412.928
 21
258.311
  0
LINE
  8
0
 10
412.928
 20
258.311
 11
412.824
 21
258.382
  0
LINE
  8
0
 10
412.824
 20
258.382
 11
412.725
 21
258.459
  0
LINE
  8
0
 10
412.725
 20
258.459
 11
412.631
 21
258.542
  0
LINE
  8
0
 10
412.631
 20
258.542
 11
412.542
 21
258.631
  0
LINE
  8
0
 10
412.542
 20
258.631
 11
412.459
 21
258.725
  0
LINE
  8
0
 10
412.459
 20
258.725
 11
412.382
 21
258.824
  0
LINE
  8
0
 10
412.382
 20
258.824
 11
412.311
 21
258.928
  0
LINE
  8
0
 10
412.311
 20
258.928
 11
412.247
 21
259.036
  0
LINE
  8
0
 10
412.247
 20
259.036
 11
412.19
 21
259.148
  0
LINE
  8
0
 10
412.19
 20
259.148
 11
412.14
 21
259.264
  0
LINE
  8
0
 10
412.14
 20
259.264
 11
412.098
 21
259.382
  0
LINE
  8
0
 10
412.098
 20
259.382
 11
412.063
 21
259.503
  0
LINE
  8
0
 10
412.063
 20
259.503
 11
412.035
 21
259.625
  0
LINE
  8
0
 10
412.035
 20
259.625
 11
412.016
 21
259.749
  0
LINE
  8
0
 10
412.016
 20
259.749
 11
412.004
 21
259.874
  0
LINE
  8
0
 10
412.004
 20
259.874
 11
412
 21
260
  0
LINE
  8
0
 10
412
 20
260
 11
412.004
 21
260.126
  0
LINE
  8
0
 10
412.004
 20
260.126
 11
412.016
 21
260.251
  0
LINE
  8
0
 10
412.016
 20
260.251
 11
412.035
 21
260.375
  0
LINE
  8
0
 10
412.035
 20
260.375
 11
412.063
 21
260.497
  0
LINE
  8
0
 10
412.063
 20
260.497
 11
412.098
 21
260.618
  0
LINE
  8
0
 10
412.098
 20
260.618
 11
412.14
 21
260.736
  0
LINE
  8
0
 10
412.14
 20
260.736
 11
412.19
 21
260.852
  0
LINE
  8
0
 10
412.19
 20
260.852
 11
412.247
 21
260.964
  0
LINE
  8
0
 10
412.247
 20
260.964
 11
412.311
 21
261.072
  0
LINE
  8
0
 10
412.311
 20
261.072
 11
412.382
 21
261.176
  0
LINE
  8
0
 10
412.382
 20
261.176
 11
412.459
 21
261.275
  0
LINE
  8
0
 10
412.459
 20
261.275
 11
412.542
 21
261.369
  0
LINE
  8
0
 10
412.542
 20
261.369
 11
412.631
 21
261.458
  0
LINE
  8
0
 10
412.631
 20
261.458
 11
412.725
 21
261.541
  0
LINE
  8
0
 10
412.725
 20
261.541
 11
412.824
 21
261.618
  0
LINE
  8
0
 10
412.824
 20
261.618
 11
412.928
 21
261.689
  0
LINE
  8
0
 10
412.928
 20
261.689
 11
413.036
 21
261.753
  0
LINE
  8
0
 10
413.036
 20
261.753
 11
413.148
 21
261.81
  0
LINE
  8
0
 10
413.148
 20
261.81
 11
413.264
 21
261.86
  0
LINE
  8
0
 10
413.264
 20
261.86
 11
413.382
 21
261.902
  0
LINE
  8
0
 10
413.382
 20
261.902
 11
413.503
 21
261.937
  0
LINE
  8
0
 10
413.503
 20
261.937
 11
413.625
 21
261.965
  0
LINE
  8
0
 10
413.625
 20
261.965
 11
413.749
 21
261.984
  0
LINE
  8
0
 10
413.749
 20
261.984
 11
413.874
 21
261.996
  0
LINE
  8
0
 10
413.874
 20
261.996
 11
414
 21
262
  0
LINE
  8
0
 10
414
 20
262
 11
414.126
 21
261.996
  0
LINE
  8
0
 10
414.126
 20
261.996
 11
414.251
 21
261.984
  0
LINE
  8
0
 10
414.251
 20
261.984
 11
414.375
 21
261.965
  0
LINE
  8
0
 10
414.375
 20
261.965
 11
414.497
 21
261.937
  0
LINE
  8
0
 10
414.497
 20
261.937
 11
414.618
 21
261.902
  0
LINE
  8
0
 10
414.618
 20
261.902
 11
414.736
 21
261.86
  0
LINE
  8
0
 10
414.736
 20
261.86
 11
414.852
 21
261.81
  0
LINE
  8
0
 10
414.852
 20
261.81
 11
414.964
 21
261.753
  0
LINE
  8
0
 10
414.964
 20
261.753
 11
415.072
 21
261.689
  0
LINE
  8
0
 10
415.072
 20
261.689
 11
415.176
 21
261.618
  0
LINE
  8
0
 10
415.176
 20
261.618
 11
415.275
 21
261.541
  0
LINE
  8
0
 10
415.275
 20
261.541
 11
415.369
 21
261.458
  0
LINE
  8
0
 10
415.369
 20
261.458
 11
415.458
 21
261.369
  0
LINE
  8
0
 10
415.458
 20
261.369
 11
415.541
 21
261.275
  0
LINE
  8
0
 10
415.541
 20
261.275
 11
415.618
 21
261.176
  0
LINE
  8
0
 10
415.618
 20
261.176
 11
415.689
 21
261.072
  0
LINE
  8
0
 10
415.689
 20
261.072
 11
415.753
 21
260.964
  0
LINE
  8
0
 10
415.753
 20
260.964
 11
415.81
 21
260.852
  0
LINE
  8
0
 10
415.81
 20
260.852
 11
415.86
 21
260.736
  0
LINE
  8
0
 10
415.86
 20
260.736
 11
415.902
 21
260.618
  0
LINE
  8
0
 10
415.902
 20
260.618
 11
415.937
 21
260.497
  0
LINE
  8
0
 10
415.937
 20
260.497
 11
415.965
 21
260.375
  0
LINE
  8
0
 10
415.965
 20
260.375
 11
415.984
 21
260.251
  0
LINE
  8
0
 10
415.984
 20
260.251
 11
415.996
 21
260.126
  0
LINE
  8
0
 10
415.996
 20
260.126
 11
416
 21
260
  0
LINE
  8
0
 10
416
 20
260
 11
415.996
 21
259.874
  0
LINE
  8
0
 10
415.996
 20
259.874
 11
415.984
 21
259.749
  0
LINE
  8
0
 10
415.984
 20
259.749
 11
415.965
 21
259.625
  0
LINE
  8
0
 10
415.965
 20
259.625
 11
415.937
 21
259.503
  0
LINE
  8
0
 10
415.937
 20
259.503
 11
415.902
 21
259.382
  0
LINE
  8
0
 10
415.902
 20
259.382
 11
415.86
 21
259.264
  0
LINE
  8
0
 10
415.86
 20
259.264
 11
415.81
 21
259.148
  0
LINE
  8
0
 10
415.81
 20
259.148
 11
415.753
 21
259.036
  0
LINE
  8
0
 10
415.753
 20
259.036
 11
415.689
 21
258.928
  0
LINE
  8
0
 10
415.689
 20
258.928
 11
415.618
 21
258.824
  0
LINE
  8
0
 10
415.618
 20
258.824
 11
415.541
 21
258.725
  0
LINE
  8
0
 10
415.541
 20
258.725
 11
415.458
 21
258.631
  0
LINE
  8
0
 10
415.458
 20
258.631
 11
415.369
 21
258.542
  0
LINE
  8
0
 10
415.369
 20
258.542
 11
415.275
 21
258.459
  0
LINE
  8
0
 10
415.275
 20
258.459
 11
415.176
 21
258.382
  0
LINE
  8
0
 10
415.176
 20
258.382
 11
415.072
 21
258.311
  0
LINE
  8
0
 10
415.072
 20
258.311
 11
414.964
 21
258.247
  0
LINE
  8
0
 10
414.964
 20
258.247
 11
414.852
 21
258.19
  0
LINE
  8
0
 10
414.852
 20
258.19
 11
414.736
 21
258.14
  0
LINE
  8
0
 10
414.736
 20
258.14
 11
414.618
 21
258.098
  0
LINE
  8
0
 10
414.618
 20
258.098
 11
414.497
 21
258.063
  0
LINE
  8
0
 10
414.497
 20
258.063
 11
414.375
 21
258.035
  0
LINE
  8
0
 10
414.375
 20
258.035
 11
414.251
 21
258.016
  0
LINE
  8
0
 10
414.251
 20
258.016
 11
414.126
 21
258.004
  0
LINE
  8
0
 10
414.126
 20
258.004
 11
414
 21
258
  0
LINE
  8
0
 10
414
 20
258
 11
413.874
 21
258.004
  0
LINE
  8
0
 10
422.5
 20
100
 11
422.5
 21
140
  0
LINE
  8
0
 10
422.5
 20
140
 11
547.5
 21
140
  0
LINE
  8
0
 10
547.5
 20
140
 11
547.5
 21
100
  0
LINE
  8
0
 10
547.5
 20
100
 11
422.5
 21
100
  0
LINE
  8
0
 10
413.874
 20
38.0039
 11
413.749
 21
38.0158
  0
LINE
  8
0
 10
413.749
 20
38.0158
 11
413.625
 21
38.0354
  0
LINE
  8
0
 10
413.625
 20
38.0354
 11
413.503
 21
38.0628
  0
LINE
  8
0
 10
413.503
 20
38.0628
 11
413.382
 21
38.0979
  0
LINE
  8
0
 10
413.382
 20
38.0979
 11
413.264
 21
38.1404
  0
LINE
  8
0
 10
413.264
 20
38.1404
 11
413.148
 21
38.1903
  0
LINE
  8
0
 10
413.148
 20
38.1903
 11
413.036
 21
38.2474
  0
LINE
  8
0
 10
413.036
 20
38.2474
 11
412.928
 21
38.3113
  0
LINE
  8
0
 10
412.928
 20
38.3113
 11
412.824
 21
38.382
  0
LINE
  8
0
 10
412.824
 20
38.382
 11
412.725
 21
38.459
  0
LINE
  8
0
 10
412.725
 20
38.459
 11
412.631
 21
38.5421
  0
LINE
  8
0
 10
412.631
 20
38.5421
 11
412.542
 21
38.6309
  0
LINE
  8
0
 10
412.542
 20
38.6309
 11
412.459
 21
38.7251
  0
LINE
  8
0
 10
412.459
 20
38.7251
 11
412.382
 21
38.8244
  0
LINE
  8
0
 10
412.382
 20
38.8244
 11
412.311
 21
38.9283
  0
LINE
  8
0
 10
412.311
 20
38.9283
 11
412.247
 21
39.0365
  0
LINE
  8
0
 10
412.247
 20
39.0365
 11
412.19
 21
39.1484
  0
LINE
  8
0
 10
412.19
 20
39.1484
 11
412.14
 21
39.2637
  0
LINE
  8
0
 10
412.14
 20
39.2637
 11
412.098
 21
39.382
  0
LINE
  8
0
 10
412.098
 20
39.382
 11
412.063
 21
39.5026
  0
LINE
  8
0
 10
412.063
 20
39.5026
 11
412.035
 21
39.6252
  0
LINE
  8
0
 10
412.035
 20
39.6252
 11
412.016
 21
39.7493
  0
LINE
  8
0
 10
412.016
 20
39.7493
 11
412.004
 21
39.8744
  0
LINE
  8
0
 10
412.004
 20
39.8744
 11
412
 21
40
  0
LINE
  8
0
 10
412
 20
40
 11
412.004
 21
40.1256
  0
LINE
  8
0
 10
412.004
 20
40.1256
 11
412.016
 21
40.2507
  0
LINE
  8
0
 10
412.016
 20
40.2507
 11
412.035
 21
40.3748
  0
LINE
  8
0
 10
412.035
 20
40.3748
 11
412.063
 21
40.4974
  0
LINE
  8
0
 10
412.063
 20
40.4974
 11
412.098
 21
40.618
  0
LINE
  8
0
 10
412.098
 20
40.618
 11
412.14
 21
40.7363
  0
LINE
  8
0
 10
412.14
 20
40.7363
 11
412.19
 21
40.8515
  0
LINE
  8
0
 10
412.19
 20
40.8515
 11
412.247
 21
40.9635
  0
LINE
  8
0
 10
412.247
 20
40.9635
 11
412.311
 21
41.0717
  0
LINE
  8
0
 10
412.311
 20
41.0717
 11
412.382
 21
41.1756
  0
LINE
  8
0
 10
412.382
 20
41.1756
 11
412.459
 21
41.2748
  0
LINE
  8
0
 10
412.459
 20
41.2748
 11
412.542
 21
41.3691
  0
LINE
  8
0
 10
412.542
 20
41.3691
 11
412.631
 21
41.4579
  0
LINE
  8
0
 10
412.631
 20
41.4579
 11
412.725
 21
41.541
  0
LINE
  8
0
 10
412.725
 20
41.541
 11
412.824
 21
41.618
  0
LINE
  8
0
 10
412.824
 20
41.618
 11
412.928
 21
41.6886
  0
LINE
  8
0
 10
412.928
 20
41.6886
 11
413.036
 21
41.7526
  0
LINE
  8
0
 10
413.036
 20
41.7526
 11
413.148
 21
41.8096
  0
LINE
  8
0
 10
413.148
 20
41.8096
 11
413.264
 21
41.8595
  0
LINE
  8
0
 10
413.264
 20
41.8595
 11
413.382
 21
41.9021
  0
LINE
  8
0
 10
413.382
 20
41.9021
 11
413.503
 21
41.9372
  0
LINE
  8
0
 10
413.503
 20
41.9372
 11
413.625
 21
41.9646
  0
LINE
  8
0
 10
413.625
 20
41.9646
 11
413.749
 21
41.9842
  0
LINE
  8
0
 10
413.749
 20
41.9842
 11
413.874
 21
41.996
  0
LINE
  8
0
 10
413.874
 20
41.996
 11
414
 21
42
  0
LINE
  8
0
 10
414
 20
42
 11
414.126
 21
41.996
  0
LINE
  8
0
 10
414.126
 20
41.996
 11
414.251
 21
41.9842
  0
LINE
  8
0
 10
414.251
 20
41.9842
 11
414.375
 21
41.9646
  0
LINE
  8
0
 10
414.375
 20
41.9646
 11
414.497
 21
41.9372
  0
LINE
  8
0
 10
414.497
 20
41.9372
 11
414.618
 21
41.9021
  0
LINE
  8
0
 10
414.618
 20
41.9021
 11
414.736
 21
41.8595
  0
LINE
  8
0
 10
414.736
 20
41.8595
 11
414.852
 21
41.8096
  0
LINE
  8
0
 10
414.852
 20
41.8096
 11
414.964
 21
41.7526
  0
LINE
  8
0
 10
414.964
 20
41.7526
 11
415.072
 21
41.6886
  0
LINE
  8
0
 10
415.072
 20
41.6886
 11
415.176
 21
41.618
  0
LINE
  8
0
 10
415.176
 20
41.618
 11
415.275
 21
41.541
  0
LINE
  8
0
 10
415.275
 20
41.541
 11
415.369
 21
41.4579
  0
LINE
  8
0
 10
415.369
 20
41.4579
 11
415.458
 21
41.3691
  0
LINE
  8
0
 10
415.458
 20
41.3691
 11
415.541
 21
41.2748
  0
LINE
  8
0
 10
415.541
 20
41.2748
 11
415.618
 21
41.1756
  0
LINE
  8
0
 10
415.618
 20
41.1756
 11
415.689
 21
41.0717
  0
LINE
  8
0
 10
415.689
 20
41.0717
 11
415.753
 21
40.9635
  0
LINE
  8
0
 10
415.753
 20
40.9635
 11
415.81
 21
40.8515
  0
LINE
  8
0
 10
415.81
 20
40.8515
 11
415.86
 21
40.7363
  0
LINE
  8
0
 10
415.86
 20
40.7363
 11
415.902
 21
40.618
  0
LINE
  8
0
 10
415.902
 20
40.618
 11
415.937
 21
40.4974
  0
LINE
  8
0
 10
415.937
 20
40.4974
 11
415.965
 21
40.3748
  0
LINE
  8
0
 10
415.965
 20
40.3748
 11
415.984
 21
40.2507
  0
LINE
  8
0
 10
415.984
 20
40.2507
 11
415.996
 21
40.1256
  0
LINE
  8
0
 10
415.996
 20
40.1256
 11
416
 21
40
  0
LINE
  8
0
 10
416
 20
40
 11
415.996
 21
39.8744
  0
LINE
  8
0
 10
415.996
 20
39.8744
 11
415.984
 21
39.7493
  0
LINE
  8
0
 10
415.984
 20
39.7493
 11
415.965
 21
39.6252
  0
LINE
  8
0
 10
415.965
 20
39.6252
 11
415.937
 21
39.5026
  0
LINE
  8
0
 10
415.937
 20
39.5026
 11
415.902
 21
39.382
  0
LINE
  8
0
 10
415.902
 20
39.382
 11
415.86
 21
39.2637
  0
LINE
  8
0
 10
415.86
 20
39.2637
 11
415.81
 21
39.1484
  0
LINE
  8
0
 10
415.81
 20
39.1484
 11
415.753
 21
39.0365
  0
LINE
  8
0
 10
415.753
 20
39.0365
 11
415.689
 21
38.9283
  0
LINE
  8
0
 10
415.689
 20
38.9283
 11
415.618
 21
38.8244
  0
LINE
  8
0
 10
415.618
 20
38.8244
 11
415.541
 21
38.7251
  0
LINE
  8
0
 10
415.541
 20
38.7251
 11
415.458
 21
38.6309
  0
LINE
  8
0
 10
415.458
 20
38.6309
 11
415.369
 21
38.5421
  0
LINE
  8
0
 10
415.369
 20
38.5421
 11
415.275
 21
38.459
  0
LINE
  8
0
 10
415.275
 20
38.459
 11
415.176
 21
38.382
  0
LINE
  8
0
 10
415.176
 20
38.382
 11
415.072
 21
38.3113
  0
LINE
  8
0
 10
415.072
 20
38.3113
 11
414.964
 21
38.2474
  0
LINE
  8
0
 10
414.964
 20
38.2474
 11
414.852
 21
38.1903
  0
LINE
  8
0
 10
414.852
 20
38.1903
 11
414.736
 21
38.1404
  0
LINE
  8
0
 10
414.736
 20
38.1404
 11
414.618
 21
38.0979
  0
LINE
  8
0
 10
414.618
 20
38.0979
 11
414.497
 21
38.0628
  0
LINE
  8
0
 10
414.497
 20
38.0628
 11
414.375
 21
38.0354
  0
LINE
  8
0
 10
414.375
 20
38.0354
 11
414.251
 21
38.0158
  0
LINE
  8
0
 10
414.251
 20
38.0158
 11
414.126
 21
38.0039
  0
LINE
  8
0
 10
414.126
 20
38.0039
 11
414
 21
38
  0
LINE
  8
0
 10
414
 20
38
 11
413.874
 21
38.0039
  0
LINE
  8
0
 10
556.874
 20
38.0039
 11
556.749
 21
38.0158
  0
LINE
  8
0
 10
556.749
 20
38.0158
 11
556.625
 21
38.0354
  0
LINE
  8
0
 10
556.625
 20
38.0354
 11
556.503
 21
38.0628
  0
LINE
  8
0
 10
556.503
 20
38.0628
 11
556.382
 21
38.0979
  0
LINE
  8
0
 10
556.382
 20
38.0979
 11
556.264
 21
38.1404
  0
LINE
  8
0
 10
556.264
 20
38.1404
 11
556.148
 21
38.1903
  0
LINE
  8
0
 10
556.148
 20
38.1903
 11
556.036
 21
38.2474
  0
LINE
  8
0
 10
556.036
 20
38.2474
 11
555.928
 21
38.3113
  0
LINE
  8
0
 10
555.928
 20
38.3113
 11
555.824
 21
38.382
  0
LINE
  8
0
 10
555.824
 20
38.382
 11
555.725
 21
38.459
  0
LINE
  8
0
 10
555.725
 20
38.459
 11
555.631
 21
38.5421
  0
LINE
  8
0
 10
555.631
 20
38.5421
 11
555.542
 21
38.6309
  0
LINE
  8
0
 10
555.542
 20
38.6309
 11
555.459
 21
38.7251
  0
LINE
  8
0
 10
555.459
 20
38.7251
 11
555.382
 21
38.8244
  0
LINE
  8
0
 10
555.382
 20
38.8244
 11
555.311
 21
38.9283
  0
LINE
  8
0
 10
555.311
 20
38.9283
 11
555.247
 21
39.0365
  0
LINE
  8
0
 10
555.247
 20
39.0365
 11
555.19
 21
39.1484
  0
LINE
  8
0
 10
555.19
 20
39.1484
 11
555.14
 21
39.2637
  0
LINE
  8
0
 10
555.14
 20
39.2637
 11
555.098
 21
39.382
  0
LINE
  8
0
 10
555.098
 20
39.382
 11
555.063
 21
39.5026
  0
LINE
  8
0
 10
555.063
 20
39.5026
 11
555.035
 21
39.6252
  0
LINE
  8
0
 10
555.035
 20
39.6252
 11
555.016
 21
39.7493
  0
LINE
  8
0
 10
555.016
 20
39.7493
 11
555.004
 21
39.8744
  0
LINE
  8
0
 10
555.004
 20
39.8744
 11
555
 21
40
  0
LINE
  8
0
 10
555
 20
40
 11
555.004
 21
40.1256
  0
LINE
  8
0
 10
555.004
 20
40.1256
 11
555.016
 21
40.2507
  0
LINE
  8
0
 10
555.016
 20
40.2507
 11
555.035
 21
40.3748
  0
LINE
  8
0
 10
555.035
 20
40.3748
 11
555.063
 21
40.4974
  0
LINE
  8
0
 10
555.063
 20
40.4974
 11
555.098
 21
40.618
  0
LINE
  8
0
 10
555.098
 20
40.618
 11
555.14
 21
40.7363
  0
LINE
  8
0
 10
555.14
 20
40.7363
 11
555.19
 21
40.8515
  0
LINE
  8
0
 10
555.19
 20
40.8515
 11
555.247
 21
40.9635
  0
LINE
  8
0
 10
555.247
 20
40.9635
 11
555.311
 21
41.0717
  0
LINE
  8
0
 10
555.311
 20
41.0717
 11
555.382
 21
41.1756
  0
LINE
  8
0
 10
555.382
 20
41.1756
 11
555.459
 21
41.2748
  0
LINE
  8
0
 10
555.459
 20
41.2748
 11
555.542
 21
41.3691
  0
LINE
  8
0
 10
555.542
 20
41.3691
 11
555.631
 21
41.4579
  0
LINE
  8
0
 10
555.631
 20
41.4579
 11
555.725
 21
41.541
  0
LINE
  8
0
 10
555.725
 20
41.541
 11
555.824
 21
41.618
  0
LINE
  8
0
 10
555.824
 20
41.618
 11
555.928
 21
41.6886
  0
LINE
  8
0
 10
555.928
 20
41.6886
 11
556.036
 21
41.7526
  0
LINE
  8
0
 10
556.036
 20
41.7526
 11
556.148
 21
41.8096
  0
LINE
  8
0
 10
556.148
 20
41.8096
 11
556.264
 21
41.8595
  0
LINE
  8
0
 10
556.264
 20
41.8595
 11
556.382
 21
41.9021
  0
LINE
  8
0
 10
556.382
 20
41.9021
 11
556.503
 21
41.9372
  0
LINE
  8
0
 10
556.503
 20
41.9372
 11
556.625
 21
41.9646
  0
LINE
  8
0
 10
556.625
 20
41.9646
 11
556.749
 21
41.9842
  0
LINE
  8
0
 10
556.749
 20
41.9842
 11
556.874
 21
41.996
  0
LINE
  8
0
 10
556.874
 20
41.996
 11
557
 21
42
  0
LINE
  8
0
 10
557
 20
42
 11
557.126
 21
41.996
  0
LINE
  8
0
 10
557.126
 20
41.996
 11
557.251
 21
41.9842
  0
LINE
  8
0
 10
557.251
 20
41.9842
 11
557.375
 21
41.9646
  0
LINE
  8
0
 10
557.375
 20
41.9646
 11
557.497
 21
41.9372
  0
LINE
  8
0
 10
557.497
 20
41.9372
 11
557.618
 21
41.9021
  0
LINE
  8
0
 10
557.618
 20
41.9021
 11
557.736
 21
41.8595
  0
LINE
  8
0
 10
557.736
 20
41.8595
 11
557.852
 21
41.8096
  0
LINE
  8
0
 10
557.852
 20
41.8096
 11
557.964
 21
41.7526
  0
LINE
  8
0
 10
557.964
 20
41.7526
 11
558.072
 21
41.6886
  0
LINE
  8
0
 10
558.072
 20
41.6886
 11
558.176
 21
41.618
  0
LINE
  8
0
 10
558.176
 20
41.618
 11
558.275
 21
41.541
  0
LINE
  8
0
 10
558.275
 20
41.541
 11
558.369
 21
41.4579
  0
LINE
  8
0
 10
558.369
 20
41.4579
 11
558.458
 21
41.3691
  0
LINE
  8
0
 10
558.458
 20
41.3691
 11
558.541
 21
41.2748
  0
LINE
  8
0
 10
558.541
 20
41.2748
 11
558.618
 21
41.1756
  0
LINE
  8
0
 10
558.618
 20
41.1756
 11
558.689
 21
41.0717
  0
LINE
  8
0
 10
558.689
 20
41.0717
 11
558.753
 21
40.9635
  0
LINE
  8
0
 10
558.753
 20
40.9635
 11
558.81
 21
40.8515
  0
LINE
  8
0
 10
558.81
 20
40.8515
 11
558.86
 21
40.7363
  0
LINE
  8
0
 10
558.86
 20
40.7363
 11
558.902
 21
40.618
  0
LINE
  8
0
 10
558.902
 20
40.618
 11
558.937
 21
40.4974
  0
LINE
  8
0
 10
558.937
 20
40.4974
 11
558.965
 21
40.3748
  0
LINE
  8
0
 10
558.965
 20
40.3748
 11
558.984
 21
40.2507
  0
LINE
  8
0
 10
558.984
 20
40.2507
 11
558.996
 21
40.1256
  0
LINE
  8
0
 10
558.996
 20
40.1256
 11
559
 21
40
  0
LINE
  8
0
 10
559
 20
40
 11
558.996
 21
39.8744
  0
LINE
  8
0
 10
558.996
 20
39.8744
 11
558.984
 21
39.7493
  0
LINE
  8
0
 10
558.984
 20
39.7493
 11
558.965
 21
39.6252
  0
LINE
  8
0
 10
558.965
 20
39.6252
 11
558.937
 21
39.5026
  0
LINE
  8
0
 10
558.937
 20
39.5026
 11
558.902
 21
39.382
  0
LINE
  8
0
 10
558.902
 20
39.382
 11
558.86
 21
39.2637
  0
LINE
  8
0
 10
558.86
 20
39.2637
 11
558.81
 21
39.1484
  0
LINE
  8
0
 10
558.81
 20
39.1484
 11
558.753
 21
39.0365
  0
LINE
  8
0
 10
558.753
 20
39.0365
 11
558.689
 21
38.9283
  0
LINE
  8
0
 10
558.689
 20
38.9283
 11
558.618
 21
38.8244
  0
LINE
  8
0
 10
558.618
 20
38.8244
 11
558.541
 21
38.7251
  0
LINE
  8
0
 10
558.541
 20
38.7251
 11
558.458
 21
38.6309
  0
LINE
  8
0
 10
558.458
 20
38.6309
 11
558.369
 21
38.5421
  0
LINE
  8
0
 10
558.369
 20
38.5421
 11
558.275
 21
38.459
  0
LINE
  8
0
 10
558.275
 20
38.459
 11
558.176
 21
38.382
  0
LINE
  8
0
 10
558.176
 20
38.382
 11
558.072
 21
38.3113
  0
LINE
  8
0
 10
558.072
 20
38.3113
 11
557.964
 21
38.2474
  0
LINE
  8
0
 10
557.964
 20
38.2474
 11
557.852
 21
38.1903
  0
LINE
  8
0
 10
557.852
 20
38.1903
 11
557.736
 21
38.1404
  0
LINE
  8
0
 10
557.736
 20
38.1404
 11
557.618
 21
38.0979
  0
LINE
  8
0
 10
557.618
 20
38.0979
 11
557.497
 21
38.0628
  0
LINE
  8
0
 10
557.497
 20
38.0628
 11
557.375
 21
38.0354
  0
LINE
  8
0
 10
557.375
 20
38.0354
 11
557.251
 21
38.0158
  0
LINE
  8
0
 10
557.251
 20
38.0158
 11
557.126
 21
38.0039
  0
LINE
  8
0
 10
557.126
 20
38.0039
 11
557
 21
38
  0
LINE
  8
0
 10
557
 20
38
 11
556.874
 21
38.0039
  0
LINE
  8
0
 10
546.906
 20
18.503
 11
546.812
 21
18.5118
  0
LINE
  8
0
 10
546.812
 20
18.5118
 11
546.719
 21
18.5266
  0
LINE
  8
0
 10
546.719
 20
18.5266
 11
546.627
 21
18.5471
  0
LINE
  8
0
 10
546.627
 20
18.5471
 11
546.536
 21
18.5734
  0
LINE
  8
0
 10
546.536
 20
18.5734
 11
546.448
 21
18.6053
  0
LINE
  8
0
 10
546.448
 20
18.6053
 11
546.361
 21
18.6428
  0
LINE
  8
0
 10
546.361
 20
18.6428
 11
546.277
 21
18.6855
  0
LINE
  8
0
 10
546.277
 20
18.6855
 11
546.196
 21
18.7335
  0
LINE
  8
0
 10
546.196
 20
18.7335
 11
546.118
 21
18.7865
  0
LINE
  8
0
 10
546.118
 20
18.7865
 11
546.044
 21
18.8442
  0
LINE
  8
0
 10
546.044
 20
18.8442
 11
545.973
 21
18.9065
  0
LINE
  8
0
 10
545.973
 20
18.9065
 11
545.907
 21
18.9732
  0
LINE
  8
0
 10
545.907
 20
18.9732
 11
545.844
 21
19.0439
  0
LINE
  8
0
 10
545.844
 20
19.0439
 11
545.786
 21
19.1183
  0
LINE
  8
0
 10
545.786
 20
19.1183
 11
545.734
 21
19.1963
  0
LINE
  8
0
 10
545.734
 20
19.1963
 11
545.686
 21
19.2774
  0
LINE
  8
0
 10
545.686
 20
19.2774
 11
545.643
 21
19.3613
  0
LINE
  8
0
 10
545.643
 20
19.3613
 11
545.605
 21
19.4478
  0
LINE
  8
0
 10
545.605
 20
19.4478
 11
545.573
 21
19.5365
  0
LINE
  8
0
 10
545.573
 20
19.5365
 11
545.547
 21
19.627
  0
LINE
  8
0
 10
545.547
 20
19.627
 11
545.527
 21
19.7189
  0
LINE
  8
0
 10
545.527
 20
19.7189
 11
545.512
 21
19.812
  0
LINE
  8
0
 10
545.512
 20
19.812
 11
545.503
 21
19.9058
  0
LINE
  8
0
 10
545.503
 20
19.9058
 11
545.5
 21
20
  0
LINE
  8
0
 10
545.5
 20
20
 11
545.503
 21
20.0942
  0
LINE
  8
0
 10
545.503
 20
20.0942
 11
545.512
 21
20.188
  0
LINE
  8
0
 10
545.512
 20
20.188
 11
545.527
 21
20.2811
  0
LINE
  8
0
 10
545.527
 20
20.2811
 11
545.547
 21
20.373
  0
LINE
  8
0
 10
545.547
 20
20.373
 11
545.573
 21
20.4635
  0
LINE
  8
0
 10
545.573
 20
20.4635
 11
545.605
 21
20.5522
  0
LINE
  8
0
 10
545.605
 20
20.5522
 11
545.643
 21
20.6387
  0
LINE
  8
0
 10
545.643
 20
20.6387
 11
545.686
 21
20.7226
  0
LINE
  8
0
 10
545.686
 20
20.7226
 11
545.734
 21
20.8037
  0
LINE
  8
0
 10
545.734
 20
20.8037
 11
545.786
 21
20.8817
  0
LINE
  8
0
 10
545.786
 20
20.8817
 11
545.844
 21
20.9561
  0
LINE
  8
0
 10
545.844
 20
20.9561
 11
545.907
 21
21.0268
  0
LINE
  8
0
 10
545.907
 20
21.0268
 11
545.973
 21
21.0934
  0
LINE
  8
0
 10
545.973
 20
21.0934
 11
546.044
 21
21.1558
  0
LINE
  8
0
 10
546.044
 20
21.1558
 11
546.118
 21
21.2135
  0
LINE
  8
0
 10
546.118
 20
21.2135
 11
546.196
 21
21.2665
  0
LINE
  8
0
 10
546.196
 20
21.2665
 11
546.277
 21
21.3145
  0
LINE
  8
0
 10
546.277
 20
21.3145
 11
546.361
 21
21.3572
  0
LINE
  8
0
 10
546.361
 20
21.3572
 11
546.448
 21
21.3947
  0
LINE
  8
0
 10
546.448
 20
21.3947
 11
546.536
 21
21.4266
  0
LINE
  8
0
 10
546.536
 20
21.4266
 11
546.627
 21
21.4529
  0
LINE
  8
0
 10
546.627
 20
21.4529
 11
546.719
 21
21.4734
  0
LINE
  8
0
 10
546.719
 20
21.4734
 11
546.812
 21
21.4882
  0
LINE
  8
0
 10
546.812
 20
21.4882
 11
546.906
 21
21.497
  0
LINE
  8
0
 10
546.906
 20
21.497
 11
547
 21
21.5
  0
LINE
  8
0
 10
547
 20
21.5
 11
547.094
 21
21.497
  0
LINE
  8
0
 10
547.094
 20
21.497
 11
547.188
 21
21.4882
  0
LINE
  8
0
 10
547.188
 20
21.4882
 11
547.281
 21
21.4734
  0
LINE
  8
0
 10
547.281
 20
21.4734
 11
547.373
 21
21.4529
  0
LINE
  8
0
 10
547.373
 20
21.4529
 11
547.464
 21
21.4266
  0
LINE
  8
0
 10
547.464
 20
21.4266
 11
547.552
 21
21.3947
  0
LINE
  8
0
 10
547.552
 20
21.3947
 11
547.639
 21
21.3572
  0
LINE
  8
0
 10
547.639
 20
21.3572
 11
547.723
 21
21.3145
  0
LINE
  8
0
 10
547.723
 20
21.3145
 11
547.804
 21
21.2665
  0
LINE
  8
0
 10
547.804
 20
21.2665
 11
547.882
 21
21.2135
  0
LINE
  8
0
 10
547.882
 20
21.2135
 11
547.956
 21
21.1558
  0
LINE
  8
0
 10
547.956
 20
21.1558
 11
548.027
 21
21.0934
  0
LINE
  8
0
 10
548.027
 20
21.0934
 11
548.093
 21
21.0268
  0
LINE
  8
0
 10
548.093
 20
21.0268
 11
548.156
 21
20.9561
  0
LINE
  8
0
 10
548.156
 20
20.9561
 11
548.214
 21
20.8817
  0
LINE
  8
0
 10
548.214
 20
20.8817
 11
548.266
 21
20.8037
  0
LINE
  8
0
 10
548.266
 20
20.8037
 11
548.314
 21
20.7226
  0
LINE
  8
0
 10
548.314
 20
20.7226
 11
548.357
 21
20.6387
  0
LINE
  8
0
 10
548.357
 20
20.6387
 11
548.395
 21
20.5522
  0
LINE
  8
0
 10
548.395
 20
20.5522
 11
548.427
 21
20.4635
  0
LINE
  8
0
 10
548.427
 20
20.4635
 11
548.453
 21
20.373
  0
LINE
  8
0
 10
548.453
 20
20.373
 11
548.473
 21
20.2811
  0
LINE
  8
0
 10
548.473
 20
20.2811
 11
548.488
 21
20.188
  0
LINE
  8
0
 10
548.488
 20
20.188
 11
548.497
 21
20.0942
  0
LINE
  8
0
 10
548.497
 20
20.0942
 11
548.5
 21
20
  0
LINE
  8
0
 10
548.5
 20
20
 11
548.497
 21
19.9058
  0
LINE
  8
0
 10
548.497
 20
19.9058
 11
548.488
 21
19.812
  0
LINE
  8
0
 10
548.488
 20
19.812
 11
548.473
 21
19.7189
  0
LINE
  8
0
 10
548.473
 20
19.7189
 11
548.453
 21
19.627
  0
LINE
  8
0
 10
548.453
 20
19.627
 11
548.427
 21
19.5365
  0
LINE
  8
0
 10
548.427
 20
19.5365
 11
548.395
 21
19.4478
  0
LINE
  8
0
 10
548.395
 20
19.4478
 11
548.357
 21
19.3613
  0
LINE
  8
0
 10
548.357
 20
19.3613
 11
548.314
 21
19.2774
  0
LINE
  8
0
 10
548.314
 20
19.2774
 11
548.266
 21
19.1963
  0
LINE
  8
0
 10
548.266
 20
19.1963
 11
548.214
 21
19.1183
  0
LINE
  8
0
 10
548.214
 20
19.1183
 11
548.156
 21
19.0439
  0
LINE
  8
0
 10
548.156
 20
19.0439
 11
548.093
 21
18.9732
  0
LINE
  8
0
 10
548.093
 20
18.9732
 11
548.027
 21
18.9065
  0
LINE
  8
0
 10
548.027
 20
18.9065
 11
547.956
 21
18.8442
  0
LINE
  8
0
 10
547.956
 20
18.8442
 11
547.882
 21
18.7865
  0
LINE
  8
0
 10
547.882
 20
18.7865
 11
547.804
 21
18.7335
  0
LINE
  8
0
 10
547.804
 20
18.7335
 11
547.723
 21
18.6855
  0
LINE
  8
0
 10
547.723
 20
18.6855
 11
547.639
 21
18.6428
  0
LINE
  8
0
 10
547.639
 20
18.6428
 11
547.552
 21
18.6053
  0
LINE
  8
0
 10
547.552
 20
18.6053
 11
547.464
 21
18.5734
  0
LINE
  8
0
 10
547.464
 20
18.5734
 11
547.373
 21
18.5471
  0
LINE
  8
0
 10
547.373
 20
18.5471
 11
547.281
 21
18.5266
  0
LINE
  8
0
 10
547.281
 20
18.5266
 11
547.188
 21
18.5118
  0
LINE
  8
0
 10
547.188
 20
18.5118
 11
547.094
 21
18.503
  0
LINE
  8
0
 10
547.094
 20
18.503
 11
547
 21
18.5
  0
LINE
  8
0
 10
547
 20
18.5
 11
546.906
 21
18.503
  0
LINE
  8
0
 10
556.906
 20
18.503
 11
556.812
 21
18.5118
  0
LINE
  8
0
 10
556.812
 20
18.5118
 11
556.719
 21
18.5266
  0
LINE
  8
0
 10
556.719
 20
18.5266
 11
556.627
 21
18.5471
  0
LINE
  8
0
 10
556.627
 20
18.5471
 11
556.536
 21
18.5734
  0
LINE
  8
0
 10
556.536
 20
18.5734
 11
556.448
 21
18.6053
  0
LINE
  8
0
 10
556.448
 20
18.6053
 11
556.361
 21
18.6428
  0
LINE
  8
0
 10
556.361
 20
18.6428
 11
556.277
 21
18.6855
  0
LINE
  8
0
 10
556.277
 20
18.6855
 11
556.196
 21
18.7335
  0
LINE
  8
0
 10
556.196
 20
18.7335
 11
556.118
 21
18.7865
  0
LINE
  8
0
 10
556.118
 20
18.7865
 11
556.044
 21
18.8442
  0
LINE
  8
0
 10
556.044
 20
18.8442
 11
555.973
 21
18.9065
  0
LINE
  8
0
 10
555.973
 20
18.9065
 11
555.907
 21
18.9732
  0
LINE
  8
0
 10
555.907
 20
18.9732
 11
555.844
 21
19.0439
  0
LINE
  8
0
 10
555.844
 20
19.0439
 11
555.786
 21
19.1183
  0
LINE
  8
0
 10
555.786
 20
19.1183
 11
555.734
 21
19.1963
  0
LINE
  8
0
 10
555.734
 20
19.1963
 11
555.686
 21
19.2774
  0
LINE
  8
0
 10
555.686
 20
19.2774
 11
555.643
 21
19.3613
  0
LINE
  8
0
 10
555.643
 20
19.3613
 11
555.605
 21
19.4478
  0
LINE
  8
0
 10
555.605
 20
19.4478
 11
555.573
 21
19.5365
  0
LINE
  8
0
 10
555.573
 20
19.5365
 11
555.547
 21
19.627
  0
LINE
  8
0
 10
555.547
 20
19.627
 11
555.527
 21
19.7189
  0
LINE
  8
0
 10
555.527
 20
19.7189
 11
555.512
 21
19.812
  0
LINE
  8
0
 10
555.512
 20
19.812
 11
555.503
 21
19.9058
  0
LINE
  8
0
 10
555.503
 20
19.9058
 11
555.5
 21
20
  0
LINE
  8
0
 10
555.5
 20
20
 11
555.503
 21
20.0942
  0
LINE
  8
0
 10
555.503
 20
20.0942
 11
555.512
 21
20.188
  0
LINE
  8
0
 10
555.512
 20
20.188
 11
555.527
 21
20.2811
  0
LINE
  8
0
 10
555.527
 20
20.2811
 11
555.547
 21
20.373
  0
LINE
  8
0
 10
555.547
 20
20.373
 11
555.573
 21
20.4635
  0
LINE
  8
0
 10
555.573
 20
20.4635
 11
555.605
 21
20.5522
  0
LINE
  8
0
 10
555.605
 20
20.5522
 11
555.643
 21
20.6387
  0
LINE
  8
0
 10
555.643
 20
20.6387
 11
555.686
 21
20.7226
  0
LINE
  8
0
 10
555.686
 20
20.7226
 11
555.734
 21
20.8037
  0
LINE
  8
0
 10
555.734
 20
20.8037
 11
555.786
 21
20.8817
  0
LINE
  8
0
 10
555.786
 20
20.8817
 11
555.844
 21
20.9561
  0
LINE
  8
0
 10
555.844
 20
20.9561
 11
555.907
 21
21.0268
  0
LINE
  8
0
 10
555.907
 20
21.0268
 11
555.973
 21
21.0934
  0
LINE
  8
0
 10
555.973
 20
21.0934
 11
556.044
 21
21.1558
  0
LINE
  8
0
 10
556.044
 20
21.1558
 11
556.118
 21
21.2135
  0
LINE
  8
0
 10
556.118
 20
21.2135
 11
556.196
 21
21.2665
  0
LINE
  8
0
 10
556.196
 20
21.2665
 11
556.277
 21
21.3145
  0
LINE
  8
0
 10
556.277
 20
21.3145
 11
556.361
 21
21.3572
  0
LINE
  8
0
 10
556.361
 20
21.3572
 11
556.448
 21
21.3947
  0
LINE
  8
0
 10
556.448
 20
21.3947
 11
556.536
 21
21.4266
  0
LINE
  8
0
 10
556.536
 20
21.4266
 11
556.627
 21
21.4529
  0
LINE
  8
0
 10
556.627
 20
21.4529
 11
556.719
 21
21.4734
  0
LINE
  8
0
 10
556.719
 20
21.4734
 11
556.812
 21
21.4882
  0
LINE
  8
0
 10
556.812
 20
21.4882
 11
556.906
 21
21.497
  0
LINE
  8
0
 10
556.906
 20
21.497
 11
557
 21
21.5
  0
LINE
  8
0
 10
557
 20
21.5
 11
557.094
 21
21.497
  0
LINE
  8
0
 10
557.094
 20
21.497
 11
557.188
 21
21.4882
  0
LINE
  8
0
 10
557.188
 20
21.4882
 11
557.281
 21
21.4734
  0
LINE
  8
0
 10
557.281
 20
21.4734
 11
557.373
 21
21.4529
  0
LINE
  8
0
 10
557.373
 20
21.4529
 11
557.464
 21
21.4266
  0
LINE
  8
0
 10
557.464
 20
21.4266
 11
557.552
 21
21.3947
  0
LINE
  8
0
 10
557.552
 20
21.3947
 11
557.639
 21
21.3572
  0
LINE
  8
0
 10
557.639
 20
21.3572
 11
557.723
 21
21.3145
  0
LINE
  8
0
 10
557.723
 20
21.3145
 11
557.804
 21
21.2665
  0
LINE
  8
0
 10
557.804
 20
21.2665
 11
557.882
 21
21.2135
  0
LINE
  8
0
 10
557.882
 20
21.2135
 11
557.956
 21
21.1558
  0
LINE
  8
0
 10
557.956
 20
21.1558
 11
558.027
 21
21.0934
  0
LINE
  8
0
 10
558.027
 20
21.0934
 11
558.093
 21
21.0268
  0
LINE
  8
0
 10
558.093
 20
21.0268
 11
558.156
 21
20.9561
  0
LINE
  8
0
 10
558.156
 20
20.9561
 11
558.214
 21
20.8817
  0
LINE
  8
0
 10
558.214
 20
20.8817
 11
558.266
 21
20.8037
  0
LINE
  8
0
 10
558.266
 20
20.8037
 11
558.314
 21
20.7226
  0
LINE
  8
0
 10
558.314
 20
20.7226
 11
558.357
 21
20.6387
  0
LINE
  8
0
 10
558.357
 20
20.6387
 11
558.395
 21
20.5522
  0
LINE
  8
0
 10
558.395
 20
20.5522
 11
558.427
 21
20.4635
  0
LINE
  8
0
 10
558.427
 20
20.4635
 11
558.453
 21
20.373
  0
LINE
  8
0
 10
558.453
 20
20.373
 11
558.473
 21
20.2811
  0
LINE
  8
0
 10
558.473
 20
20.2811
 11
558.488
 21
20.188
  0
LINE
  8
0
 10
558.488
 20
20.188
 11
558.497
 21
20.0942
  0
LINE
  8
0
 10
558.497
 20
20.0942
 11
558.5
 21
20
  0
LINE
  8
0
 10
558.5
 20
20
 11
558.497
 21
19.9058
  0
LINE
  8
0
 10
558.497
 20
19.9058
 11
558.488
 21
19.812
  0
LINE
  8
0
 10
558.488
 20
19.812
 11
558.473
 21
19.7189
  0
LINE
  8
0
 10
558.473
 20
19.7189
 11
558.453
 21
19.627
  0
LINE
  8
0
 10
558.453
 20
19.627
 11
558.427
 21
19.5365
  0
LINE
  8
0
 10
558.427
 20
19.5365
 11
558.395
 21
19.4478
  0
LINE
  8
0
 10
558.395
 20
19.4478
 11
558.357
 21
19.3613
  0
LINE
  8
0
 10
558.357
 20
19.3613
 11
558.314
 21
19.2774
  0
LINE
  8
0
 10
558.314
 20
19.2774
 11
558.266
 21
19.1963
  0
LINE
  8
0
 10
558.266
 20
19.1963
 11
558.214
 21
19.1183
  0
LINE
  8
0
 10
558.214
 20
19.1183
 11
558.156
 21
19.0439
  0
LINE
  8
0
 10
558.156
 20
19.0439
 11
558.093
 21
18.9732
  0
LINE
  8
0
 10
558.093
 20
18.9732
 11
558.027
 21
18.9065
  0
LINE
  8
0
 10
558.027
 20
18.9065
 11
557.956
 21
18.8442
  0
LINE
  8
0
 10
557.956
 20
18.8442
 11
557.882
 21
18.7865
  0
LINE
  8
0
 10
557.882
 20
18.7865
 11
557.804
 21
18.7335
  0
LINE
  8
0
 10
557.804
 20
18.7335
 11
557.723
 21
18.6855
  0
LINE
  8
0
 10
557.723
 20
18.6855
 11
557.639
 21
18.6428
  0
LINE
  8
0
 10
557.639
 20
18.6428
 11
557.552
 21
18.6053
  0
LINE
  8
0
 10
557.552
 20
18.6053
 11
557.464
 21
18.5734
  0
LINE
  8
0
 10
557.464
 20
18.5734
 11
557.373
 21
18.5471
  0
LINE
  8
0
 10
557.373
 20
18.5471
 11
557.281
 21
18.5266
  0
LINE
  8
0
 10
557.281
 20
18.5266
 11
557.188
 21
18.5118
  0
LINE
  8
0
 10
557.188
 20
18.5118
 11
557.094
 21
18.503
  0
LINE
  8
0
 10
557.094
 20
18.503
 11
557
 21
18.5
  0
LINE
  8
0
 10
557
 20
18.5
 11
556.906
 21
18.503
  0
ENDSEC
  0
SECTION
  2
OBJECTS
  0
DICTIONARY
  0
ENDSEC
  0
EOF
