  0
SECTION
  2
BLOCKS
  0
ENDSEC
  0
SECTION
  2
ENTITIES
  0
LINE
  8
0
 10
625
 20
395
 11
325
 21
395
  0
LINE
  8
0
 10
325
 20
395
 11
325
 21
315
  0
LINE
  8
0
 10
325
 20
315
 11
625
 21
315
  0
LINE
  8
0
 10
625
 20
315
 11
625
 21
395
  0
LINE
  8
0
 10
604.906
 20
383.503
 11
604.812
 21
383.512
  0
LINE
  8
0
 10
604.812
 20
383.512
 11
604.719
 21
383.527
  0
LINE
  8
0
 10
604.719
 20
383.527
 11
604.627
 21
383.547
  0
LINE
  8
0
 10
604.627
 20
383.547
 11
604.536
 21
383.573
  0
LINE
  8
0
 10
604.536
 20
383.573
 11
604.448
 21
383.605
  0
LINE
  8
0
 10
604.448
 20
383.605
 11
604.361
 21
383.643
  0
LINE
  8
0
 10
604.361
 20
383.643
 11
604.277
 21
383.686
  0
LINE
  8
0
 10
604.277
 20
383.686
 11
604.196
 21
383.734
  0
LINE
  8
0
 10
604.196
 20
383.734
 11
604.118
 21
383.786
  0
LINE
  8
0
 10
604.118
 20
383.786
 11
604.044
 21
383.844
  0
LINE
  8
0
 10
604.044
 20
383.844
 11
603.973
 21
383.907
  0
LINE
  8
0
 10
603.973
 20
383.907
 11
603.907
 21
383.973
  0
LINE
  8
0
 10
603.907
 20
383.973
 11
603.844
 21
384.044
  0
LINE
  8
0
 10
603.844
 20
384.044
 11
603.786
 21
384.118
  0
LINE
  8
0
 10
603.786
 20
384.118
 11
603.734
 21
384.196
  0
LINE
  8
0
 10
603.734
 20
384.196
 11
603.686
 21
384.277
  0
LINE
  8
0
 10
603.686
 20
384.277
 11
603.643
 21
384.361
  0
LINE
  8
0
 10
603.643
 20
384.361
 11
603.605
 21
384.448
  0
LINE
  8
0
 10
603.605
 20
384.448
 11
603.573
 21
384.536
  0
LINE
  8
0
 10
603.573
 20
384.536
 11
603.547
 21
384.627
  0
LINE
  8
0
 10
603.547
 20
384.627
 11
603.527
 21
384.719
  0
LINE
  8
0
 10
603.527
 20
384.719
 11
603.512
 21
384.812
  0
LINE
  8
0
 10
603.512
 20
384.812
 11
603.503
 21
384.906
  0
LINE
  8
0
 10
603.503
 20
384.906
 11
603.5
 21
385
  0
LINE
  8
0
 10
603.5
 20
385
 11
603.503
 21
385.094
  0
LINE
  8
0
 10
603.503
 20
385.094
 11
603.512
 21
385.188
  0
LINE
  8
0
 10
603.512
 20
385.188
 11
603.527
 21
385.281
  0
LINE
  8
0
 10
603.527
 20
385.281
 11
603.547
 21
385.373
  0
LINE
  8
0
 10
603.547
 20
385.373
 11
603.573
 21
385.464
  0
LINE
  8
0
 10
603.573
 20
385.464
 11
603.605
 21
385.552
  0
LINE
  8
0
 10
603.605
 20
385.552
 11
603.643
 21
385.639
  0
LINE
  8
0
 10
603.643
 20
385.639
 11
603.686
 21
385.723
  0
LINE
  8
0
 10
603.686
 20
385.723
 11
603.734
 21
385.804
  0
LINE
  8
0
 10
603.734
 20
385.804
 11
603.786
 21
385.882
  0
LINE
  8
0
 10
603.786
 20
385.882
 11
603.844
 21
385.956
  0
LINE
  8
0
 10
603.844
 20
385.956
 11
603.907
 21
386.027
  0
LINE
  8
0
 10
603.907
 20
386.027
 11
603.973
 21
386.093
  0
LINE
  8
0
 10
603.973
 20
386.093
 11
604.044
 21
386.156
  0
LINE
  8
0
 10
604.044
 20
386.156
 11
604.118
 21
386.214
  0
LINE
  8
0
 10
604.118
 20
386.214
 11
604.196
 21
386.266
  0
LINE
  8
0
 10
604.196
 20
386.266
 11
604.277
 21
386.314
  0
LINE
  8
0
 10
604.277
 20
386.314
 11
604.361
 21
386.357
  0
LINE
  8
0
 10
604.361
 20
386.357
 11
604.448
 21
386.395
  0
LINE
  8
0
 10
604.448
 20
386.395
 11
604.536
 21
386.427
  0
LINE
  8
0
 10
604.536
 20
386.427
 11
604.627
 21
386.453
  0
LINE
  8
0
 10
604.627
 20
386.453
 11
604.719
 21
386.473
  0
LINE
  8
0
 10
604.719
 20
386.473
 11
604.812
 21
386.488
  0
LINE
  8
0
 10
604.812
 20
386.488
 11
604.906
 21
386.497
  0
LINE
  8
0
 10
604.906
 20
386.497
 11
605
 21
386.5
  0
LINE
  8
0
 10
605
 20
386.5
 11
605.094
 21
386.497
  0
LINE
  8
0
 10
605.094
 20
386.497
 11
605.188
 21
386.488
  0
LINE
  8
0
 10
605.188
 20
386.488
 11
605.281
 21
386.473
  0
LINE
  8
0
 10
605.281
 20
386.473
 11
605.373
 21
386.453
  0
LINE
  8
0
 10
605.373
 20
386.453
 11
605.464
 21
386.427
  0
LINE
  8
0
 10
605.464
 20
386.427
 11
605.552
 21
386.395
  0
LINE
  8
0
 10
605.552
 20
386.395
 11
605.639
 21
386.357
  0
LINE
  8
0
 10
605.639
 20
386.357
 11
605.723
 21
386.314
  0
LINE
  8
0
 10
605.723
 20
386.314
 11
605.804
 21
386.266
  0
LINE
  8
0
 10
605.804
 20
386.266
 11
605.882
 21
386.214
  0
LINE
  8
0
 10
605.882
 20
386.214
 11
605.956
 21
386.156
  0
LINE
  8
0
 10
605.956
 20
386.156
 11
606.027
 21
386.093
  0
LINE
  8
0
 10
606.027
 20
386.093
 11
606.093
 21
386.027
  0
LINE
  8
0
 10
606.093
 20
386.027
 11
606.156
 21
385.956
  0
LINE
  8
0
 10
606.156
 20
385.956
 11
606.214
 21
385.882
  0
LINE
  8
0
 10
606.214
 20
385.882
 11
606.266
 21
385.804
  0
LINE
  8
0
 10
606.266
 20
385.804
 11
606.314
 21
385.723
  0
LINE
  8
0
 10
606.314
 20
385.723
 11
606.357
 21
385.639
  0
LINE
  8
0
 10
606.357
 20
385.639
 11
606.395
 21
385.552
  0
LINE
  8
0
 10
606.395
 20
385.552
 11
606.427
 21
385.464
  0
LINE
  8
0
 10
606.427
 20
385.464
 11
606.453
 21
385.373
  0
LINE
  8
0
 10
606.453
 20
385.373
 11
606.473
 21
385.281
  0
LINE
  8
0
 10
606.473
 20
385.281
 11
606.488
 21
385.188
  0
LINE
  8
0
 10
606.488
 20
385.188
 11
606.497
 21
385.094
  0
LINE
  8
0
 10
606.497
 20
385.094
 11
606.5
 21
385
  0
LINE
  8
0
 10
606.5
 20
385
 11
606.497
 21
384.906
  0
LINE
  8
0
 10
606.497
 20
384.906
 11
606.488
 21
384.812
  0
LINE
  8
0
 10
606.488
 20
384.812
 11
606.473
 21
384.719
  0
LINE
  8
0
 10
606.473
 20
384.719
 11
606.453
 21
384.627
  0
LINE
  8
0
 10
606.453
 20
384.627
 11
606.427
 21
384.536
  0
LINE
  8
0
 10
606.427
 20
384.536
 11
606.395
 21
384.448
  0
LINE
  8
0
 10
606.395
 20
384.448
 11
606.357
 21
384.361
  0
LINE
  8
0
 10
606.357
 20
384.361
 11
606.314
 21
384.277
  0
LINE
  8
0
 10
606.314
 20
384.277
 11
606.266
 21
384.196
  0
LINE
  8
0
 10
606.266
 20
384.196
 11
606.214
 21
384.118
  0
LINE
  8
0
 10
606.214
 20
384.118
 11
606.156
 21
384.044
  0
LINE
  8
0
 10
606.156
 20
384.044
 11
606.093
 21
383.973
  0
LINE
  8
0
 10
606.093
 20
383.973
 11
606.027
 21
383.907
  0
LINE
  8
0
 10
606.027
 20
383.907
 11
605.956
 21
383.844
  0
LINE
  8
0
 10
605.956
 20
383.844
 11
605.882
 21
383.786
  0
LINE
  8
0
 10
605.882
 20
383.786
 11
605.804
 21
383.734
  0
LINE
  8
0
 10
605.804
 20
383.734
 11
605.723
 21
383.686
  0
LINE
  8
0
 10
605.723
 20
383.686
 11
605.639
 21
383.643
  0
LINE
  8
0
 10
605.639
 20
383.643
 11
605.552
 21
383.605
  0
LINE
  8
0
 10
605.552
 20
383.605
 11
605.464
 21
383.573
  0
LINE
  8
0
 10
605.464
 20
383.573
 11
605.373
 21
383.547
  0
LINE
  8
0
 10
605.373
 20
383.547
 11
605.281
 21
383.527
  0
LINE
  8
0
 10
605.281
 20
383.527
 11
605.188
 21
383.512
  0
LINE
  8
0
 10
605.188
 20
383.512
 11
605.094
 21
383.503
  0
LINE
  8
0
 10
605.094
 20
383.503
 11
605
 21
383.5
  0
LINE
  8
0
 10
605
 20
383.5
 11
604.906
 21
383.503
  0
LINE
  8
0
 10
344.906
 20
383.503
 11
344.812
 21
383.512
  0
LINE
  8
0
 10
344.812
 20
383.512
 11
344.719
 21
383.527
  0
LINE
  8
0
 10
344.719
 20
383.527
 11
344.627
 21
383.547
  0
LINE
  8
0
 10
344.627
 20
383.547
 11
344.536
 21
383.573
  0
LINE
  8
0
 10
344.536
 20
383.573
 11
344.448
 21
383.605
  0
LINE
  8
0
 10
344.448
 20
383.605
 11
344.361
 21
383.643
  0
LINE
  8
0
 10
344.361
 20
383.643
 11
344.277
 21
383.686
  0
LINE
  8
0
 10
344.277
 20
383.686
 11
344.196
 21
383.734
  0
LINE
  8
0
 10
344.196
 20
383.734
 11
344.118
 21
383.786
  0
LINE
  8
0
 10
344.118
 20
383.786
 11
344.044
 21
383.844
  0
LINE
  8
0
 10
344.044
 20
383.844
 11
343.973
 21
383.907
  0
LINE
  8
0
 10
343.973
 20
383.907
 11
343.907
 21
383.973
  0
LINE
  8
0
 10
343.907
 20
383.973
 11
343.844
 21
384.044
  0
LINE
  8
0
 10
343.844
 20
384.044
 11
343.786
 21
384.118
  0
LINE
  8
0
 10
343.786
 20
384.118
 11
343.734
 21
384.196
  0
LINE
  8
0
 10
343.734
 20
384.196
 11
343.686
 21
384.277
  0
LINE
  8
0
 10
343.686
 20
384.277
 11
343.643
 21
384.361
  0
LINE
  8
0
 10
343.643
 20
384.361
 11
343.605
 21
384.448
  0
LINE
  8
0
 10
343.605
 20
384.448
 11
343.573
 21
384.536
  0
LINE
  8
0
 10
343.573
 20
384.536
 11
343.547
 21
384.627
  0
LINE
  8
0
 10
343.547
 20
384.627
 11
343.527
 21
384.719
  0
LINE
  8
0
 10
343.527
 20
384.719
 11
343.512
 21
384.812
  0
LINE
  8
0
 10
343.512
 20
384.812
 11
343.503
 21
384.906
  0
LINE
  8
0
 10
343.503
 20
384.906
 11
343.5
 21
385
  0
LINE
  8
0
 10
343.5
 20
385
 11
343.503
 21
385.094
  0
LINE
  8
0
 10
343.503
 20
385.094
 11
343.512
 21
385.188
  0
LINE
  8
0
 10
343.512
 20
385.188
 11
343.527
 21
385.281
  0
LINE
  8
0
 10
343.527
 20
385.281
 11
343.547
 21
385.373
  0
LINE
  8
0
 10
343.547
 20
385.373
 11
343.573
 21
385.464
  0
LINE
  8
0
 10
343.573
 20
385.464
 11
343.605
 21
385.552
  0
LINE
  8
0
 10
343.605
 20
385.552
 11
343.643
 21
385.639
  0
LINE
  8
0
 10
343.643
 20
385.639
 11
343.686
 21
385.723
  0
LINE
  8
0
 10
343.686
 20
385.723
 11
343.734
 21
385.804
  0
LINE
  8
0
 10
343.734
 20
385.804
 11
343.786
 21
385.882
  0
LINE
  8
0
 10
343.786
 20
385.882
 11
343.844
 21
385.956
  0
LINE
  8
0
 10
343.844
 20
385.956
 11
343.907
 21
386.027
  0
LINE
  8
0
 10
343.907
 20
386.027
 11
343.973
 21
386.093
  0
LINE
  8
0
 10
343.973
 20
386.093
 11
344.044
 21
386.156
  0
LINE
  8
0
 10
344.044
 20
386.156
 11
344.118
 21
386.214
  0
LINE
  8
0
 10
344.118
 20
386.214
 11
344.196
 21
386.266
  0
LINE
  8
0
 10
344.196
 20
386.266
 11
344.277
 21
386.314
  0
LINE
  8
0
 10
344.277
 20
386.314
 11
344.361
 21
386.357
  0
LINE
  8
0
 10
344.361
 20
386.357
 11
344.448
 21
386.395
  0
LINE
  8
0
 10
344.448
 20
386.395
 11
344.536
 21
386.427
  0
LINE
  8
0
 10
344.536
 20
386.427
 11
344.627
 21
386.453
  0
LINE
  8
0
 10
344.627
 20
386.453
 11
344.719
 21
386.473
  0
LINE
  8
0
 10
344.719
 20
386.473
 11
344.812
 21
386.488
  0
LINE
  8
0
 10
344.812
 20
386.488
 11
344.906
 21
386.497
  0
LINE
  8
0
 10
344.906
 20
386.497
 11
345
 21
386.5
  0
LINE
  8
0
 10
345
 20
386.5
 11
345.094
 21
386.497
  0
LINE
  8
0
 10
345.094
 20
386.497
 11
345.188
 21
386.488
  0
LINE
  8
0
 10
345.188
 20
386.488
 11
345.281
 21
386.473
  0
LINE
  8
0
 10
345.281
 20
386.473
 11
345.373
 21
386.453
  0
LINE
  8
0
 10
345.373
 20
386.453
 11
345.464
 21
386.427
  0
LINE
  8
0
 10
345.464
 20
386.427
 11
345.552
 21
386.395
  0
LINE
  8
0
 10
345.552
 20
386.395
 11
345.639
 21
386.357
  0
LINE
  8
0
 10
345.639
 20
386.357
 11
345.723
 21
386.314
  0
LINE
  8
0
 10
345.723
 20
386.314
 11
345.804
 21
386.266
  0
LINE
  8
0
 10
345.804
 20
386.266
 11
345.882
 21
386.214
  0
LINE
  8
0
 10
345.882
 20
386.214
 11
345.956
 21
386.156
  0
LINE
  8
0
 10
345.956
 20
386.156
 11
346.027
 21
386.093
  0
LINE
  8
0
 10
346.027
 20
386.093
 11
346.093
 21
386.027
  0
LINE
  8
0
 10
346.093
 20
386.027
 11
346.156
 21
385.956
  0
LINE
  8
0
 10
346.156
 20
385.956
 11
346.214
 21
385.882
  0
LINE
  8
0
 10
346.214
 20
385.882
 11
346.266
 21
385.804
  0
LINE
  8
0
 10
346.266
 20
385.804
 11
346.314
 21
385.723
  0
LINE
  8
0
 10
346.314
 20
385.723
 11
346.357
 21
385.639
  0
LINE
  8
0
 10
346.357
 20
385.639
 11
346.395
 21
385.552
  0
LINE
  8
0
 10
346.395
 20
385.552
 11
346.427
 21
385.464
  0
LINE
  8
0
 10
346.427
 20
385.464
 11
346.453
 21
385.373
  0
LINE
  8
0
 10
346.453
 20
385.373
 11
346.473
 21
385.281
  0
LINE
  8
0
 10
346.473
 20
385.281
 11
346.488
 21
385.188
  0
LINE
  8
0
 10
346.488
 20
385.188
 11
346.497
 21
385.094
  0
LINE
  8
0
 10
346.497
 20
385.094
 11
346.5
 21
385
  0
LINE
  8
0
 10
346.5
 20
385
 11
346.497
 21
384.906
  0
LINE
  8
0
 10
346.497
 20
384.906
 11
346.488
 21
384.812
  0
LINE
  8
0
 10
346.488
 20
384.812
 11
346.473
 21
384.719
  0
LINE
  8
0
 10
346.473
 20
384.719
 11
346.453
 21
384.627
  0
LINE
  8
0
 10
346.453
 20
384.627
 11
346.427
 21
384.536
  0
LINE
  8
0
 10
346.427
 20
384.536
 11
346.395
 21
384.448
  0
LINE
  8
0
 10
346.395
 20
384.448
 11
346.357
 21
384.361
  0
LINE
  8
0
 10
346.357
 20
384.361
 11
346.314
 21
384.277
  0
LINE
  8
0
 10
346.314
 20
384.277
 11
346.266
 21
384.196
  0
LINE
  8
0
 10
346.266
 20
384.196
 11
346.214
 21
384.118
  0
LINE
  8
0
 10
346.214
 20
384.118
 11
346.156
 21
384.044
  0
LINE
  8
0
 10
346.156
 20
384.044
 11
346.093
 21
383.973
  0
LINE
  8
0
 10
346.093
 20
383.973
 11
346.027
 21
383.907
  0
LINE
  8
0
 10
346.027
 20
383.907
 11
345.956
 21
383.844
  0
LINE
  8
0
 10
345.956
 20
383.844
 11
345.882
 21
383.786
  0
LINE
  8
0
 10
345.882
 20
383.786
 11
345.804
 21
383.734
  0
LINE
  8
0
 10
345.804
 20
383.734
 11
345.723
 21
383.686
  0
LINE
  8
0
 10
345.723
 20
383.686
 11
345.639
 21
383.643
  0
LINE
  8
0
 10
345.639
 20
383.643
 11
345.552
 21
383.605
  0
LINE
  8
0
 10
345.552
 20
383.605
 11
345.464
 21
383.573
  0
LINE
  8
0
 10
345.464
 20
383.573
 11
345.373
 21
383.547
  0
LINE
  8
0
 10
345.373
 20
383.547
 11
345.281
 21
383.527
  0
LINE
  8
0
 10
345.281
 20
383.527
 11
345.188
 21
383.512
  0
LINE
  8
0
 10
345.188
 20
383.512
 11
345.094
 21
383.503
  0
LINE
  8
0
 10
345.094
 20
383.503
 11
345
 21
383.5
  0
LINE
  8
0
 10
345
 20
383.5
 11
344.906
 21
383.503
  0
LINE
  8
0
 10
344.906
 20
373.503
 11
344.812
 21
373.512
  0
LINE
  8
0
 10
344.812
 20
373.512
 11
344.719
 21
373.527
  0
LINE
  8
0
 10
344.719
 20
373.527
 11
344.627
 21
373.547
  0
LINE
  8
0
 10
344.627
 20
373.547
 11
344.536
 21
373.573
  0
LINE
  8
0
 10
344.536
 20
373.573
 11
344.448
 21
373.605
  0
LINE
  8
0
 10
344.448
 20
373.605
 11
344.361
 21
373.643
  0
LINE
  8
0
 10
344.361
 20
373.643
 11
344.277
 21
373.686
  0
LINE
  8
0
 10
344.277
 20
373.686
 11
344.196
 21
373.734
  0
LINE
  8
0
 10
344.196
 20
373.734
 11
344.118
 21
373.786
  0
LINE
  8
0
 10
344.118
 20
373.786
 11
344.044
 21
373.844
  0
LINE
  8
0
 10
344.044
 20
373.844
 11
343.973
 21
373.907
  0
LINE
  8
0
 10
343.973
 20
373.907
 11
343.907
 21
373.973
  0
LINE
  8
0
 10
343.907
 20
373.973
 11
343.844
 21
374.044
  0
LINE
  8
0
 10
343.844
 20
374.044
 11
343.786
 21
374.118
  0
LINE
  8
0
 10
343.786
 20
374.118
 11
343.734
 21
374.196
  0
LINE
  8
0
 10
343.734
 20
374.196
 11
343.686
 21
374.277
  0
LINE
  8
0
 10
343.686
 20
374.277
 11
343.643
 21
374.361
  0
LINE
  8
0
 10
343.643
 20
374.361
 11
343.605
 21
374.448
  0
LINE
  8
0
 10
343.605
 20
374.448
 11
343.573
 21
374.536
  0
LINE
  8
0
 10
343.573
 20
374.536
 11
343.547
 21
374.627
  0
LINE
  8
0
 10
343.547
 20
374.627
 11
343.527
 21
374.719
  0
LINE
  8
0
 10
343.527
 20
374.719
 11
343.512
 21
374.812
  0
LINE
  8
0
 10
343.512
 20
374.812
 11
343.503
 21
374.906
  0
LINE
  8
0
 10
343.503
 20
374.906
 11
343.5
 21
375
  0
LINE
  8
0
 10
343.5
 20
375
 11
343.503
 21
375.094
  0
LINE
  8
0
 10
343.503
 20
375.094
 11
343.512
 21
375.188
  0
LINE
  8
0
 10
343.512
 20
375.188
 11
343.527
 21
375.281
  0
LINE
  8
0
 10
343.527
 20
375.281
 11
343.547
 21
375.373
  0
LINE
  8
0
 10
343.547
 20
375.373
 11
343.573
 21
375.464
  0
LINE
  8
0
 10
343.573
 20
375.464
 11
343.605
 21
375.552
  0
LINE
  8
0
 10
343.605
 20
375.552
 11
343.643
 21
375.639
  0
LINE
  8
0
 10
343.643
 20
375.639
 11
343.686
 21
375.723
  0
LINE
  8
0
 10
343.686
 20
375.723
 11
343.734
 21
375.804
  0
LINE
  8
0
 10
343.734
 20
375.804
 11
343.786
 21
375.882
  0
LINE
  8
0
 10
343.786
 20
375.882
 11
343.844
 21
375.956
  0
LINE
  8
0
 10
343.844
 20
375.956
 11
343.907
 21
376.027
  0
LINE
  8
0
 10
343.907
 20
376.027
 11
343.973
 21
376.093
  0
LINE
  8
0
 10
343.973
 20
376.093
 11
344.044
 21
376.156
  0
LINE
  8
0
 10
344.044
 20
376.156
 11
344.118
 21
376.214
  0
LINE
  8
0
 10
344.118
 20
376.214
 11
344.196
 21
376.266
  0
LINE
  8
0
 10
344.196
 20
376.266
 11
344.277
 21
376.314
  0
LINE
  8
0
 10
344.277
 20
376.314
 11
344.361
 21
376.357
  0
LINE
  8
0
 10
344.361
 20
376.357
 11
344.448
 21
376.395
  0
LINE
  8
0
 10
344.448
 20
376.395
 11
344.536
 21
376.427
  0
LINE
  8
0
 10
344.536
 20
376.427
 11
344.627
 21
376.453
  0
LINE
  8
0
 10
344.627
 20
376.453
 11
344.719
 21
376.473
  0
LINE
  8
0
 10
344.719
 20
376.473
 11
344.812
 21
376.488
  0
LINE
  8
0
 10
344.812
 20
376.488
 11
344.906
 21
376.497
  0
LINE
  8
0
 10
344.906
 20
376.497
 11
345
 21
376.5
  0
LINE
  8
0
 10
345
 20
376.5
 11
345.094
 21
376.497
  0
LINE
  8
0
 10
345.094
 20
376.497
 11
345.188
 21
376.488
  0
LINE
  8
0
 10
345.188
 20
376.488
 11
345.281
 21
376.473
  0
LINE
  8
0
 10
345.281
 20
376.473
 11
345.373
 21
376.453
  0
LINE
  8
0
 10
345.373
 20
376.453
 11
345.464
 21
376.427
  0
LINE
  8
0
 10
345.464
 20
376.427
 11
345.552
 21
376.395
  0
LINE
  8
0
 10
345.552
 20
376.395
 11
345.639
 21
376.357
  0
LINE
  8
0
 10
345.639
 20
376.357
 11
345.723
 21
376.314
  0
LINE
  8
0
 10
345.723
 20
376.314
 11
345.804
 21
376.266
  0
LINE
  8
0
 10
345.804
 20
376.266
 11
345.882
 21
376.214
  0
LINE
  8
0
 10
345.882
 20
376.214
 11
345.956
 21
376.156
  0
LINE
  8
0
 10
345.956
 20
376.156
 11
346.027
 21
376.093
  0
LINE
  8
0
 10
346.027
 20
376.093
 11
346.093
 21
376.027
  0
LINE
  8
0
 10
346.093
 20
376.027
 11
346.156
 21
375.956
  0
LINE
  8
0
 10
346.156
 20
375.956
 11
346.214
 21
375.882
  0
LINE
  8
0
 10
346.214
 20
375.882
 11
346.266
 21
375.804
  0
LINE
  8
0
 10
346.266
 20
375.804
 11
346.314
 21
375.723
  0
LINE
  8
0
 10
346.314
 20
375.723
 11
346.357
 21
375.639
  0
LINE
  8
0
 10
346.357
 20
375.639
 11
346.395
 21
375.552
  0
LINE
  8
0
 10
346.395
 20
375.552
 11
346.427
 21
375.464
  0
LINE
  8
0
 10
346.427
 20
375.464
 11
346.453
 21
375.373
  0
LINE
  8
0
 10
346.453
 20
375.373
 11
346.473
 21
375.281
  0
LINE
  8
0
 10
346.473
 20
375.281
 11
346.488
 21
375.188
  0
LINE
  8
0
 10
346.488
 20
375.188
 11
346.497
 21
375.094
  0
LINE
  8
0
 10
346.497
 20
375.094
 11
346.5
 21
375
  0
LINE
  8
0
 10
346.5
 20
375
 11
346.497
 21
374.906
  0
LINE
  8
0
 10
346.497
 20
374.906
 11
346.488
 21
374.812
  0
LINE
  8
0
 10
346.488
 20
374.812
 11
346.473
 21
374.719
  0
LINE
  8
0
 10
346.473
 20
374.719
 11
346.453
 21
374.627
  0
LINE
  8
0
 10
346.453
 20
374.627
 11
346.427
 21
374.536
  0
LINE
  8
0
 10
346.427
 20
374.536
 11
346.395
 21
374.448
  0
LINE
  8
0
 10
346.395
 20
374.448
 11
346.357
 21
374.361
  0
LINE
  8
0
 10
346.357
 20
374.361
 11
346.314
 21
374.277
  0
LINE
  8
0
 10
346.314
 20
374.277
 11
346.266
 21
374.196
  0
LINE
  8
0
 10
346.266
 20
374.196
 11
346.214
 21
374.118
  0
LINE
  8
0
 10
346.214
 20
374.118
 11
346.156
 21
374.044
  0
LINE
  8
0
 10
346.156
 20
374.044
 11
346.093
 21
373.973
  0
LINE
  8
0
 10
346.093
 20
373.973
 11
346.027
 21
373.907
  0
LINE
  8
0
 10
346.027
 20
373.907
 11
345.956
 21
373.844
  0
LINE
  8
0
 10
345.956
 20
373.844
 11
345.882
 21
373.786
  0
LINE
  8
0
 10
345.882
 20
373.786
 11
345.804
 21
373.734
  0
LINE
  8
0
 10
345.804
 20
373.734
 11
345.723
 21
373.686
  0
LINE
  8
0
 10
345.723
 20
373.686
 11
345.639
 21
373.643
  0
LINE
  8
0
 10
345.639
 20
373.643
 11
345.552
 21
373.605
  0
LINE
  8
0
 10
345.552
 20
373.605
 11
345.464
 21
373.573
  0
LINE
  8
0
 10
345.464
 20
373.573
 11
345.373
 21
373.547
  0
LINE
  8
0
 10
345.373
 20
373.547
 11
345.281
 21
373.527
  0
LINE
  8
0
 10
345.281
 20
373.527
 11
345.188
 21
373.512
  0
LINE
  8
0
 10
345.188
 20
373.512
 11
345.094
 21
373.503
  0
LINE
  8
0
 10
345.094
 20
373.503
 11
345
 21
373.5
  0
LINE
  8
0
 10
345
 20
373.5
 11
344.906
 21
373.503
  0
LINE
  8
0
 10
604.906
 20
373.503
 11
604.812
 21
373.512
  0
LINE
  8
0
 10
604.812
 20
373.512
 11
604.719
 21
373.527
  0
LINE
  8
0
 10
604.719
 20
373.527
 11
604.627
 21
373.547
  0
LINE
  8
0
 10
604.627
 20
373.547
 11
604.536
 21
373.573
  0
LINE
  8
0
 10
604.536
 20
373.573
 11
604.448
 21
373.605
  0
LINE
  8
0
 10
604.448
 20
373.605
 11
604.361
 21
373.643
  0
LINE
  8
0
 10
604.361
 20
373.643
 11
604.277
 21
373.686
  0
LINE
  8
0
 10
604.277
 20
373.686
 11
604.196
 21
373.734
  0
LINE
  8
0
 10
604.196
 20
373.734
 11
604.118
 21
373.786
  0
LINE
  8
0
 10
604.118
 20
373.786
 11
604.044
 21
373.844
  0
LINE
  8
0
 10
604.044
 20
373.844
 11
603.973
 21
373.907
  0
LINE
  8
0
 10
603.973
 20
373.907
 11
603.907
 21
373.973
  0
LINE
  8
0
 10
603.907
 20
373.973
 11
603.844
 21
374.044
  0
LINE
  8
0
 10
603.844
 20
374.044
 11
603.786
 21
374.118
  0
LINE
  8
0
 10
603.786
 20
374.118
 11
603.734
 21
374.196
  0
LINE
  8
0
 10
603.734
 20
374.196
 11
603.686
 21
374.277
  0
LINE
  8
0
 10
603.686
 20
374.277
 11
603.643
 21
374.361
  0
LINE
  8
0
 10
603.643
 20
374.361
 11
603.605
 21
374.448
  0
LINE
  8
0
 10
603.605
 20
374.448
 11
603.573
 21
374.536
  0
LINE
  8
0
 10
603.573
 20
374.536
 11
603.547
 21
374.627
  0
LINE
  8
0
 10
603.547
 20
374.627
 11
603.527
 21
374.719
  0
LINE
  8
0
 10
603.527
 20
374.719
 11
603.512
 21
374.812
  0
LINE
  8
0
 10
603.512
 20
374.812
 11
603.503
 21
374.906
  0
LINE
  8
0
 10
603.503
 20
374.906
 11
603.5
 21
375
  0
LINE
  8
0
 10
603.5
 20
375
 11
603.503
 21
375.094
  0
LINE
  8
0
 10
603.503
 20
375.094
 11
603.512
 21
375.188
  0
LINE
  8
0
 10
603.512
 20
375.188
 11
603.527
 21
375.281
  0
LINE
  8
0
 10
603.527
 20
375.281
 11
603.547
 21
375.373
  0
LINE
  8
0
 10
603.547
 20
375.373
 11
603.573
 21
375.464
  0
LINE
  8
0
 10
603.573
 20
375.464
 11
603.605
 21
375.552
  0
LINE
  8
0
 10
603.605
 20
375.552
 11
603.643
 21
375.639
  0
LINE
  8
0
 10
603.643
 20
375.639
 11
603.686
 21
375.723
  0
LINE
  8
0
 10
603.686
 20
375.723
 11
603.734
 21
375.804
  0
LINE
  8
0
 10
603.734
 20
375.804
 11
603.786
 21
375.882
  0
LINE
  8
0
 10
603.786
 20
375.882
 11
603.844
 21
375.956
  0
LINE
  8
0
 10
603.844
 20
375.956
 11
603.907
 21
376.027
  0
LINE
  8
0
 10
603.907
 20
376.027
 11
603.973
 21
376.093
  0
LINE
  8
0
 10
603.973
 20
376.093
 11
604.044
 21
376.156
  0
LINE
  8
0
 10
604.044
 20
376.156
 11
604.118
 21
376.214
  0
LINE
  8
0
 10
604.118
 20
376.214
 11
604.196
 21
376.266
  0
LINE
  8
0
 10
604.196
 20
376.266
 11
604.277
 21
376.314
  0
LINE
  8
0
 10
604.277
 20
376.314
 11
604.361
 21
376.357
  0
LINE
  8
0
 10
604.361
 20
376.357
 11
604.448
 21
376.395
  0
LINE
  8
0
 10
604.448
 20
376.395
 11
604.536
 21
376.427
  0
LINE
  8
0
 10
604.536
 20
376.427
 11
604.627
 21
376.453
  0
LINE
  8
0
 10
604.627
 20
376.453
 11
604.719
 21
376.473
  0
LINE
  8
0
 10
604.719
 20
376.473
 11
604.812
 21
376.488
  0
LINE
  8
0
 10
604.812
 20
376.488
 11
604.906
 21
376.497
  0
LINE
  8
0
 10
604.906
 20
376.497
 11
605
 21
376.5
  0
LINE
  8
0
 10
605
 20
376.5
 11
605.094
 21
376.497
  0
LINE
  8
0
 10
605.094
 20
376.497
 11
605.188
 21
376.488
  0
LINE
  8
0
 10
605.188
 20
376.488
 11
605.281
 21
376.473
  0
LINE
  8
0
 10
605.281
 20
376.473
 11
605.373
 21
376.453
  0
LINE
  8
0
 10
605.373
 20
376.453
 11
605.464
 21
376.427
  0
LINE
  8
0
 10
605.464
 20
376.427
 11
605.552
 21
376.395
  0
LINE
  8
0
 10
605.552
 20
376.395
 11
605.639
 21
376.357
  0
LINE
  8
0
 10
605.639
 20
376.357
 11
605.723
 21
376.314
  0
LINE
  8
0
 10
605.723
 20
376.314
 11
605.804
 21
376.266
  0
LINE
  8
0
 10
605.804
 20
376.266
 11
605.882
 21
376.214
  0
LINE
  8
0
 10
605.882
 20
376.214
 11
605.956
 21
376.156
  0
LINE
  8
0
 10
605.956
 20
376.156
 11
606.027
 21
376.093
  0
LINE
  8
0
 10
606.027
 20
376.093
 11
606.093
 21
376.027
  0
LINE
  8
0
 10
606.093
 20
376.027
 11
606.156
 21
375.956
  0
LINE
  8
0
 10
606.156
 20
375.956
 11
606.214
 21
375.882
  0
LINE
  8
0
 10
606.214
 20
375.882
 11
606.266
 21
375.804
  0
LINE
  8
0
 10
606.266
 20
375.804
 11
606.314
 21
375.723
  0
LINE
  8
0
 10
606.314
 20
375.723
 11
606.357
 21
375.639
  0
LINE
  8
0
 10
606.357
 20
375.639
 11
606.395
 21
375.552
  0
LINE
  8
0
 10
606.395
 20
375.552
 11
606.427
 21
375.464
  0
LINE
  8
0
 10
606.427
 20
375.464
 11
606.453
 21
375.373
  0
LINE
  8
0
 10
606.453
 20
375.373
 11
606.473
 21
375.281
  0
LINE
  8
0
 10
606.473
 20
375.281
 11
606.488
 21
375.188
  0
LINE
  8
0
 10
606.488
 20
375.188
 11
606.497
 21
375.094
  0
LINE
  8
0
 10
606.497
 20
375.094
 11
606.5
 21
375
  0
LINE
  8
0
 10
606.5
 20
375
 11
606.497
 21
374.906
  0
LINE
  8
0
 10
606.497
 20
374.906
 11
606.488
 21
374.812
  0
LINE
  8
0
 10
606.488
 20
374.812
 11
606.473
 21
374.719
  0
LINE
  8
0
 10
606.473
 20
374.719
 11
606.453
 21
374.627
  0
LINE
  8
0
 10
606.453
 20
374.627
 11
606.427
 21
374.536
  0
LINE
  8
0
 10
606.427
 20
374.536
 11
606.395
 21
374.448
  0
LINE
  8
0
 10
606.395
 20
374.448
 11
606.357
 21
374.361
  0
LINE
  8
0
 10
606.357
 20
374.361
 11
606.314
 21
374.277
  0
LINE
  8
0
 10
606.314
 20
374.277
 11
606.266
 21
374.196
  0
LINE
  8
0
 10
606.266
 20
374.196
 11
606.214
 21
374.118
  0
LINE
  8
0
 10
606.214
 20
374.118
 11
606.156
 21
374.044
  0
LINE
  8
0
 10
606.156
 20
374.044
 11
606.093
 21
373.973
  0
LINE
  8
0
 10
606.093
 20
373.973
 11
606.027
 21
373.907
  0
LINE
  8
0
 10
606.027
 20
373.907
 11
605.956
 21
373.844
  0
LINE
  8
0
 10
605.956
 20
373.844
 11
605.882
 21
373.786
  0
LINE
  8
0
 10
605.882
 20
373.786
 11
605.804
 21
373.734
  0
LINE
  8
0
 10
605.804
 20
373.734
 11
605.723
 21
373.686
  0
LINE
  8
0
 10
605.723
 20
373.686
 11
605.639
 21
373.643
  0
LINE
  8
0
 10
605.639
 20
373.643
 11
605.552
 21
373.605
  0
LINE
  8
0
 10
605.552
 20
373.605
 11
605.464
 21
373.573
  0
LINE
  8
0
 10
605.464
 20
373.573
 11
605.373
 21
373.547
  0
LINE
  8
0
 10
605.373
 20
373.547
 11
605.281
 21
373.527
  0
LINE
  8
0
 10
605.281
 20
373.527
 11
605.188
 21
373.512
  0
LINE
  8
0
 10
605.188
 20
373.512
 11
605.094
 21
373.503
  0
LINE
  8
0
 10
605.094
 20
373.503
 11
605
 21
373.5
  0
LINE
  8
0
 10
605
 20
373.5
 11
604.906
 21
373.503
  0
LINE
  8
0
 10
665
 20
300
 11
585
 21
300
  0
LINE
  8
0
 10
585
 20
300
 11
585
 21
0
  0
LINE
  8
0
 10
585
 20
0
 11
665
 21
0
  0
LINE
  8
0
 10
665
 20
0
 11
665
 21
300
  0
LINE
  8
0
 10
654.906
 20
278.503
 11
654.812
 21
278.512
  0
LINE
  8
0
 10
654.812
 20
278.512
 11
654.719
 21
278.527
  0
LINE
  8
0
 10
654.719
 20
278.527
 11
654.627
 21
278.547
  0
LINE
  8
0
 10
654.627
 20
278.547
 11
654.536
 21
278.573
  0
LINE
  8
0
 10
654.536
 20
278.573
 11
654.448
 21
278.605
  0
LINE
  8
0
 10
654.448
 20
278.605
 11
654.361
 21
278.643
  0
LINE
  8
0
 10
654.361
 20
278.643
 11
654.277
 21
278.686
  0
LINE
  8
0
 10
654.277
 20
278.686
 11
654.196
 21
278.734
  0
LINE
  8
0
 10
654.196
 20
278.734
 11
654.118
 21
278.786
  0
LINE
  8
0
 10
654.118
 20
278.786
 11
654.044
 21
278.844
  0
LINE
  8
0
 10
654.044
 20
278.844
 11
653.973
 21
278.907
  0
LINE
  8
0
 10
653.973
 20
278.907
 11
653.907
 21
278.973
  0
LINE
  8
0
 10
653.907
 20
278.973
 11
653.844
 21
279.044
  0
LINE
  8
0
 10
653.844
 20
279.044
 11
653.786
 21
279.118
  0
LINE
  8
0
 10
653.786
 20
279.118
 11
653.734
 21
279.196
  0
LINE
  8
0
 10
653.734
 20
279.196
 11
653.686
 21
279.277
  0
LINE
  8
0
 10
653.686
 20
279.277
 11
653.643
 21
279.361
  0
LINE
  8
0
 10
653.643
 20
279.361
 11
653.605
 21
279.448
  0
LINE
  8
0
 10
653.605
 20
279.448
 11
653.573
 21
279.536
  0
LINE
  8
0
 10
653.573
 20
279.536
 11
653.547
 21
279.627
  0
LINE
  8
0
 10
653.547
 20
279.627
 11
653.527
 21
279.719
  0
LINE
  8
0
 10
653.527
 20
279.719
 11
653.512
 21
279.812
  0
LINE
  8
0
 10
653.512
 20
279.812
 11
653.503
 21
279.906
  0
LINE
  8
0
 10
653.503
 20
279.906
 11
653.5
 21
280
  0
LINE
  8
0
 10
653.5
 20
280
 11
653.503
 21
280.094
  0
LINE
  8
0
 10
653.503
 20
280.094
 11
653.512
 21
280.188
  0
LINE
  8
0
 10
653.512
 20
280.188
 11
653.527
 21
280.281
  0
LINE
  8
0
 10
653.527
 20
280.281
 11
653.547
 21
280.373
  0
LINE
  8
0
 10
653.547
 20
280.373
 11
653.573
 21
280.464
  0
LINE
  8
0
 10
653.573
 20
280.464
 11
653.605
 21
280.552
  0
LINE
  8
0
 10
653.605
 20
280.552
 11
653.643
 21
280.639
  0
LINE
  8
0
 10
653.643
 20
280.639
 11
653.686
 21
280.723
  0
LINE
  8
0
 10
653.686
 20
280.723
 11
653.734
 21
280.804
  0
LINE
  8
0
 10
653.734
 20
280.804
 11
653.786
 21
280.882
  0
LINE
  8
0
 10
653.786
 20
280.882
 11
653.844
 21
280.956
  0
LINE
  8
0
 10
653.844
 20
280.956
 11
653.907
 21
281.027
  0
LINE
  8
0
 10
653.907
 20
281.027
 11
653.973
 21
281.093
  0
LINE
  8
0
 10
653.973
 20
281.093
 11
654.044
 21
281.156
  0
LINE
  8
0
 10
654.044
 20
281.156
 11
654.118
 21
281.214
  0
LINE
  8
0
 10
654.118
 20
281.214
 11
654.196
 21
281.266
  0
LINE
  8
0
 10
654.196
 20
281.266
 11
654.277
 21
281.314
  0
LINE
  8
0
 10
654.277
 20
281.314
 11
654.361
 21
281.357
  0
LINE
  8
0
 10
654.361
 20
281.357
 11
654.448
 21
281.395
  0
LINE
  8
0
 10
654.448
 20
281.395
 11
654.536
 21
281.427
  0
LINE
  8
0
 10
654.536
 20
281.427
 11
654.627
 21
281.453
  0
LINE
  8
0
 10
654.627
 20
281.453
 11
654.719
 21
281.473
  0
LINE
  8
0
 10
654.719
 20
281.473
 11
654.812
 21
281.488
  0
LINE
  8
0
 10
654.812
 20
281.488
 11
654.906
 21
281.497
  0
LINE
  8
0
 10
654.906
 20
281.497
 11
655
 21
281.5
  0
LINE
  8
0
 10
655
 20
281.5
 11
655.094
 21
281.497
  0
LINE
  8
0
 10
655.094
 20
281.497
 11
655.188
 21
281.488
  0
LINE
  8
0
 10
655.188
 20
281.488
 11
655.281
 21
281.473
  0
LINE
  8
0
 10
655.281
 20
281.473
 11
655.373
 21
281.453
  0
LINE
  8
0
 10
655.373
 20
281.453
 11
655.464
 21
281.427
  0
LINE
  8
0
 10
655.464
 20
281.427
 11
655.552
 21
281.395
  0
LINE
  8
0
 10
655.552
 20
281.395
 11
655.639
 21
281.357
  0
LINE
  8
0
 10
655.639
 20
281.357
 11
655.723
 21
281.314
  0
LINE
  8
0
 10
655.723
 20
281.314
 11
655.804
 21
281.266
  0
LINE
  8
0
 10
655.804
 20
281.266
 11
655.882
 21
281.214
  0
LINE
  8
0
 10
655.882
 20
281.214
 11
655.956
 21
281.156
  0
LINE
  8
0
 10
655.956
 20
281.156
 11
656.027
 21
281.093
  0
LINE
  8
0
 10
656.027
 20
281.093
 11
656.093
 21
281.027
  0
LINE
  8
0
 10
656.093
 20
281.027
 11
656.156
 21
280.956
  0
LINE
  8
0
 10
656.156
 20
280.956
 11
656.214
 21
280.882
  0
LINE
  8
0
 10
656.214
 20
280.882
 11
656.266
 21
280.804
  0
LINE
  8
0
 10
656.266
 20
280.804
 11
656.314
 21
280.723
  0
LINE
  8
0
 10
656.314
 20
280.723
 11
656.357
 21
280.639
  0
LINE
  8
0
 10
656.357
 20
280.639
 11
656.395
 21
280.552
  0
LINE
  8
0
 10
656.395
 20
280.552
 11
656.427
 21
280.464
  0
LINE
  8
0
 10
656.427
 20
280.464
 11
656.453
 21
280.373
  0
LINE
  8
0
 10
656.453
 20
280.373
 11
656.473
 21
280.281
  0
LINE
  8
0
 10
656.473
 20
280.281
 11
656.488
 21
280.188
  0
LINE
  8
0
 10
656.488
 20
280.188
 11
656.497
 21
280.094
  0
LINE
  8
0
 10
656.497
 20
280.094
 11
656.5
 21
280
  0
LINE
  8
0
 10
656.5
 20
280
 11
656.497
 21
279.906
  0
LINE
  8
0
 10
656.497
 20
279.906
 11
656.488
 21
279.812
  0
LINE
  8
0
 10
656.488
 20
279.812
 11
656.473
 21
279.719
  0
LINE
  8
0
 10
656.473
 20
279.719
 11
656.453
 21
279.627
  0
LINE
  8
0
 10
656.453
 20
279.627
 11
656.427
 21
279.536
  0
LINE
  8
0
 10
656.427
 20
279.536
 11
656.395
 21
279.448
  0
LINE
  8
0
 10
656.395
 20
279.448
 11
656.357
 21
279.361
  0
LINE
  8
0
 10
656.357
 20
279.361
 11
656.314
 21
279.277
  0
LINE
  8
0
 10
656.314
 20
279.277
 11
656.266
 21
279.196
  0
LINE
  8
0
 10
656.266
 20
279.196
 11
656.214
 21
279.118
  0
LINE
  8
0
 10
656.214
 20
279.118
 11
656.156
 21
279.044
  0
LINE
  8
0
 10
656.156
 20
279.044
 11
656.093
 21
278.973
  0
LINE
  8
0
 10
656.093
 20
278.973
 11
656.027
 21
278.907
  0
LINE
  8
0
 10
656.027
 20
278.907
 11
655.956
 21
278.844
  0
LINE
  8
0
 10
655.956
 20
278.844
 11
655.882
 21
278.786
  0
LINE
  8
0
 10
655.882
 20
278.786
 11
655.804
 21
278.734
  0
LINE
  8
0
 10
655.804
 20
278.734
 11
655.723
 21
278.686
  0
LINE
  8
0
 10
655.723
 20
278.686
 11
655.639
 21
278.643
  0
LINE
  8
0
 10
655.639
 20
278.643
 11
655.552
 21
278.605
  0
LINE
  8
0
 10
655.552
 20
278.605
 11
655.464
 21
278.573
  0
LINE
  8
0
 10
655.464
 20
278.573
 11
655.373
 21
278.547
  0
LINE
  8
0
 10
655.373
 20
278.547
 11
655.281
 21
278.527
  0
LINE
  8
0
 10
655.281
 20
278.527
 11
655.188
 21
278.512
  0
LINE
  8
0
 10
655.188
 20
278.512
 11
655.094
 21
278.503
  0
LINE
  8
0
 10
655.094
 20
278.503
 11
655
 21
278.5
  0
LINE
  8
0
 10
655
 20
278.5
 11
654.906
 21
278.503
  0
LINE
  8
0
 10
644.906
 20
278.503
 11
644.812
 21
278.512
  0
LINE
  8
0
 10
644.812
 20
278.512
 11
644.719
 21
278.527
  0
LINE
  8
0
 10
644.719
 20
278.527
 11
644.627
 21
278.547
  0
LINE
  8
0
 10
644.627
 20
278.547
 11
644.536
 21
278.573
  0
LINE
  8
0
 10
644.536
 20
278.573
 11
644.448
 21
278.605
  0
LINE
  8
0
 10
644.448
 20
278.605
 11
644.361
 21
278.643
  0
LINE
  8
0
 10
644.361
 20
278.643
 11
644.277
 21
278.686
  0
LINE
  8
0
 10
644.277
 20
278.686
 11
644.196
 21
278.734
  0
LINE
  8
0
 10
644.196
 20
278.734
 11
644.118
 21
278.786
  0
LINE
  8
0
 10
644.118
 20
278.786
 11
644.044
 21
278.844
  0
LINE
  8
0
 10
644.044
 20
278.844
 11
643.973
 21
278.907
  0
LINE
  8
0
 10
643.973
 20
278.907
 11
643.907
 21
278.973
  0
LINE
  8
0
 10
643.907
 20
278.973
 11
643.844
 21
279.044
  0
LINE
  8
0
 10
643.844
 20
279.044
 11
643.786
 21
279.118
  0
LINE
  8
0
 10
643.786
 20
279.118
 11
643.734
 21
279.196
  0
LINE
  8
0
 10
643.734
 20
279.196
 11
643.686
 21
279.277
  0
LINE
  8
0
 10
643.686
 20
279.277
 11
643.643
 21
279.361
  0
LINE
  8
0
 10
643.643
 20
279.361
 11
643.605
 21
279.448
  0
LINE
  8
0
 10
643.605
 20
279.448
 11
643.573
 21
279.536
  0
LINE
  8
0
 10
643.573
 20
279.536
 11
643.547
 21
279.627
  0
LINE
  8
0
 10
643.547
 20
279.627
 11
643.527
 21
279.719
  0
LINE
  8
0
 10
643.527
 20
279.719
 11
643.512
 21
279.812
  0
LINE
  8
0
 10
643.512
 20
279.812
 11
643.503
 21
279.906
  0
LINE
  8
0
 10
643.503
 20
279.906
 11
643.5
 21
280
  0
LINE
  8
0
 10
643.5
 20
280
 11
643.503
 21
280.094
  0
LINE
  8
0
 10
643.503
 20
280.094
 11
643.512
 21
280.188
  0
LINE
  8
0
 10
643.512
 20
280.188
 11
643.527
 21
280.281
  0
LINE
  8
0
 10
643.527
 20
280.281
 11
643.547
 21
280.373
  0
LINE
  8
0
 10
643.547
 20
280.373
 11
643.573
 21
280.464
  0
LINE
  8
0
 10
643.573
 20
280.464
 11
643.605
 21
280.552
  0
LINE
  8
0
 10
643.605
 20
280.552
 11
643.643
 21
280.639
  0
LINE
  8
0
 10
643.643
 20
280.639
 11
643.686
 21
280.723
  0
LINE
  8
0
 10
643.686
 20
280.723
 11
643.734
 21
280.804
  0
LINE
  8
0
 10
643.734
 20
280.804
 11
643.786
 21
280.882
  0
LINE
  8
0
 10
643.786
 20
280.882
 11
643.844
 21
280.956
  0
LINE
  8
0
 10
643.844
 20
280.956
 11
643.907
 21
281.027
  0
LINE
  8
0
 10
643.907
 20
281.027
 11
643.973
 21
281.093
  0
LINE
  8
0
 10
643.973
 20
281.093
 11
644.044
 21
281.156
  0
LINE
  8
0
 10
644.044
 20
281.156
 11
644.118
 21
281.214
  0
LINE
  8
0
 10
644.118
 20
281.214
 11
644.196
 21
281.266
  0
LINE
  8
0
 10
644.196
 20
281.266
 11
644.277
 21
281.314
  0
LINE
  8
0
 10
644.277
 20
281.314
 11
644.361
 21
281.357
  0
LINE
  8
0
 10
644.361
 20
281.357
 11
644.448
 21
281.395
  0
LINE
  8
0
 10
644.448
 20
281.395
 11
644.536
 21
281.427
  0
LINE
  8
0
 10
644.536
 20
281.427
 11
644.627
 21
281.453
  0
LINE
  8
0
 10
644.627
 20
281.453
 11
644.719
 21
281.473
  0
LINE
  8
0
 10
644.719
 20
281.473
 11
644.812
 21
281.488
  0
LINE
  8
0
 10
644.812
 20
281.488
 11
644.906
 21
281.497
  0
LINE
  8
0
 10
644.906
 20
281.497
 11
645
 21
281.5
  0
LINE
  8
0
 10
645
 20
281.5
 11
645.094
 21
281.497
  0
LINE
  8
0
 10
645.094
 20
281.497
 11
645.188
 21
281.488
  0
LINE
  8
0
 10
645.188
 20
281.488
 11
645.281
 21
281.473
  0
LINE
  8
0
 10
645.281
 20
281.473
 11
645.373
 21
281.453
  0
LINE
  8
0
 10
645.373
 20
281.453
 11
645.464
 21
281.427
  0
LINE
  8
0
 10
645.464
 20
281.427
 11
645.552
 21
281.395
  0
LINE
  8
0
 10
645.552
 20
281.395
 11
645.639
 21
281.357
  0
LINE
  8
0
 10
645.639
 20
281.357
 11
645.723
 21
281.314
  0
LINE
  8
0
 10
645.723
 20
281.314
 11
645.804
 21
281.266
  0
LINE
  8
0
 10
645.804
 20
281.266
 11
645.882
 21
281.214
  0
LINE
  8
0
 10
645.882
 20
281.214
 11
645.956
 21
281.156
  0
LINE
  8
0
 10
645.956
 20
281.156
 11
646.027
 21
281.093
  0
LINE
  8
0
 10
646.027
 20
281.093
 11
646.093
 21
281.027
  0
LINE
  8
0
 10
646.093
 20
281.027
 11
646.156
 21
280.956
  0
LINE
  8
0
 10
646.156
 20
280.956
 11
646.214
 21
280.882
  0
LINE
  8
0
 10
646.214
 20
280.882
 11
646.266
 21
280.804
  0
LINE
  8
0
 10
646.266
 20
280.804
 11
646.314
 21
280.723
  0
LINE
  8
0
 10
646.314
 20
280.723
 11
646.357
 21
280.639
  0
LINE
  8
0
 10
646.357
 20
280.639
 11
646.395
 21
280.552
  0
LINE
  8
0
 10
646.395
 20
280.552
 11
646.427
 21
280.464
  0
LINE
  8
0
 10
646.427
 20
280.464
 11
646.453
 21
280.373
  0
LINE
  8
0
 10
646.453
 20
280.373
 11
646.473
 21
280.281
  0
LINE
  8
0
 10
646.473
 20
280.281
 11
646.488
 21
280.188
  0
LINE
  8
0
 10
646.488
 20
280.188
 11
646.497
 21
280.094
  0
LINE
  8
0
 10
646.497
 20
280.094
 11
646.5
 21
280
  0
LINE
  8
0
 10
646.5
 20
280
 11
646.497
 21
279.906
  0
LINE
  8
0
 10
646.497
 20
279.906
 11
646.488
 21
279.812
  0
LINE
  8
0
 10
646.488
 20
279.812
 11
646.473
 21
279.719
  0
LINE
  8
0
 10
646.473
 20
279.719
 11
646.453
 21
279.627
  0
LINE
  8
0
 10
646.453
 20
279.627
 11
646.427
 21
279.536
  0
LINE
  8
0
 10
646.427
 20
279.536
 11
646.395
 21
279.448
  0
LINE
  8
0
 10
646.395
 20
279.448
 11
646.357
 21
279.361
  0
LINE
  8
0
 10
646.357
 20
279.361
 11
646.314
 21
279.277
  0
LINE
  8
0
 10
646.314
 20
279.277
 11
646.266
 21
279.196
  0
LINE
  8
0
 10
646.266
 20
279.196
 11
646.214
 21
279.118
  0
LINE
  8
0
 10
646.214
 20
279.118
 11
646.156
 21
279.044
  0
LINE
  8
0
 10
646.156
 20
279.044
 11
646.093
 21
278.973
  0
LINE
  8
0
 10
646.093
 20
278.973
 11
646.027
 21
278.907
  0
LINE
  8
0
 10
646.027
 20
278.907
 11
645.956
 21
278.844
  0
LINE
  8
0
 10
645.956
 20
278.844
 11
645.882
 21
278.786
  0
LINE
  8
0
 10
645.882
 20
278.786
 11
645.804
 21
278.734
  0
LINE
  8
0
 10
645.804
 20
278.734
 11
645.723
 21
278.686
  0
LINE
  8
0
 10
645.723
 20
278.686
 11
645.639
 21
278.643
  0
LINE
  8
0
 10
645.639
 20
278.643
 11
645.552
 21
278.605
  0
LINE
  8
0
 10
645.552
 20
278.605
 11
645.464
 21
278.573
  0
LINE
  8
0
 10
645.464
 20
278.573
 11
645.373
 21
278.547
  0
LINE
  8
0
 10
645.373
 20
278.547
 11
645.281
 21
278.527
  0
LINE
  8
0
 10
645.281
 20
278.527
 11
645.188
 21
278.512
  0
LINE
  8
0
 10
645.188
 20
278.512
 11
645.094
 21
278.503
  0
LINE
  8
0
 10
645.094
 20
278.503
 11
645
 21
278.5
  0
LINE
  8
0
 10
645
 20
278.5
 11
644.906
 21
278.503
  0
LINE
  8
0
 10
644.906
 20
18.503
 11
644.812
 21
18.5118
  0
LINE
  8
0
 10
644.812
 20
18.5118
 11
644.719
 21
18.5266
  0
LINE
  8
0
 10
644.719
 20
18.5266
 11
644.627
 21
18.5471
  0
LINE
  8
0
 10
644.627
 20
18.5471
 11
644.536
 21
18.5734
  0
LINE
  8
0
 10
644.536
 20
18.5734
 11
644.448
 21
18.6053
  0
LINE
  8
0
 10
644.448
 20
18.6053
 11
644.361
 21
18.6428
  0
LINE
  8
0
 10
644.361
 20
18.6428
 11
644.277
 21
18.6855
  0
LINE
  8
0
 10
644.277
 20
18.6855
 11
644.196
 21
18.7335
  0
LINE
  8
0
 10
644.196
 20
18.7335
 11
644.118
 21
18.7865
  0
LINE
  8
0
 10
644.118
 20
18.7865
 11
644.044
 21
18.8442
  0
LINE
  8
0
 10
644.044
 20
18.8442
 11
643.973
 21
18.9065
  0
LINE
  8
0
 10
643.973
 20
18.9065
 11
643.907
 21
18.9732
  0
LINE
  8
0
 10
643.907
 20
18.9732
 11
643.844
 21
19.0439
  0
LINE
  8
0
 10
643.844
 20
19.0439
 11
643.786
 21
19.1183
  0
LINE
  8
0
 10
643.786
 20
19.1183
 11
643.734
 21
19.1963
  0
LINE
  8
0
 10
643.734
 20
19.1963
 11
643.686
 21
19.2774
  0
LINE
  8
0
 10
643.686
 20
19.2774
 11
643.643
 21
19.3613
  0
LINE
  8
0
 10
643.643
 20
19.3613
 11
643.605
 21
19.4478
  0
LINE
  8
0
 10
643.605
 20
19.4478
 11
643.573
 21
19.5365
  0
LINE
  8
0
 10
643.573
 20
19.5365
 11
643.547
 21
19.627
  0
LINE
  8
0
 10
643.547
 20
19.627
 11
643.527
 21
19.7189
  0
LINE
  8
0
 10
643.527
 20
19.7189
 11
643.512
 21
19.812
  0
LINE
  8
0
 10
643.512
 20
19.812
 11
643.503
 21
19.9058
  0
LINE
  8
0
 10
643.503
 20
19.9058
 11
643.5
 21
20
  0
LINE
  8
0
 10
643.5
 20
20
 11
643.503
 21
20.0942
  0
LINE
  8
0
 10
643.503
 20
20.0942
 11
643.512
 21
20.188
  0
LINE
  8
0
 10
643.512
 20
20.188
 11
643.527
 21
20.2811
  0
LINE
  8
0
 10
643.527
 20
20.2811
 11
643.547
 21
20.373
  0
LINE
  8
0
 10
643.547
 20
20.373
 11
643.573
 21
20.4635
  0
LINE
  8
0
 10
643.573
 20
20.4635
 11
643.605
 21
20.5522
  0
LINE
  8
0
 10
643.605
 20
20.5522
 11
643.643
 21
20.6387
  0
LINE
  8
0
 10
643.643
 20
20.6387
 11
643.686
 21
20.7226
  0
LINE
  8
0
 10
643.686
 20
20.7226
 11
643.734
 21
20.8037
  0
LINE
  8
0
 10
643.734
 20
20.8037
 11
643.786
 21
20.8817
  0
LINE
  8
0
 10
643.786
 20
20.8817
 11
643.844
 21
20.9561
  0
LINE
  8
0
 10
643.844
 20
20.9561
 11
643.907
 21
21.0268
  0
LINE
  8
0
 10
643.907
 20
21.0268
 11
643.973
 21
21.0934
  0
LINE
  8
0
 10
643.973
 20
21.0934
 11
644.044
 21
21.1558
  0
LINE
  8
0
 10
644.044
 20
21.1558
 11
644.118
 21
21.2135
  0
LINE
  8
0
 10
644.118
 20
21.2135
 11
644.196
 21
21.2665
  0
LINE
  8
0
 10
644.196
 20
21.2665
 11
644.277
 21
21.3145
  0
LINE
  8
0
 10
644.277
 20
21.3145
 11
644.361
 21
21.3572
  0
LINE
  8
0
 10
644.361
 20
21.3572
 11
644.448
 21
21.3947
  0
LINE
  8
0
 10
644.448
 20
21.3947
 11
644.536
 21
21.4266
  0
LINE
  8
0
 10
644.536
 20
21.4266
 11
644.627
 21
21.4529
  0
LINE
  8
0
 10
644.627
 20
21.4529
 11
644.719
 21
21.4734
  0
LINE
  8
0
 10
644.719
 20
21.4734
 11
644.812
 21
21.4882
  0
LINE
  8
0
 10
644.812
 20
21.4882
 11
644.906
 21
21.497
  0
LINE
  8
0
 10
644.906
 20
21.497
 11
645
 21
21.5
  0
LINE
  8
0
 10
645
 20
21.5
 11
645.094
 21
21.497
  0
LINE
  8
0
 10
645.094
 20
21.497
 11
645.188
 21
21.4882
  0
LINE
  8
0
 10
645.188
 20
21.4882
 11
645.281
 21
21.4734
  0
LINE
  8
0
 10
645.281
 20
21.4734
 11
645.373
 21
21.4529
  0
LINE
  8
0
 10
645.373
 20
21.4529
 11
645.464
 21
21.4266
  0
LINE
  8
0
 10
645.464
 20
21.4266
 11
645.552
 21
21.3947
  0
LINE
  8
0
 10
645.552
 20
21.3947
 11
645.639
 21
21.3572
  0
LINE
  8
0
 10
645.639
 20
21.3572
 11
645.723
 21
21.3145
  0
LINE
  8
0
 10
645.723
 20
21.3145
 11
645.804
 21
21.2665
  0
LINE
  8
0
 10
645.804
 20
21.2665
 11
645.882
 21
21.2135
  0
LINE
  8
0
 10
645.882
 20
21.2135
 11
645.956
 21
21.1558
  0
LINE
  8
0
 10
645.956
 20
21.1558
 11
646.027
 21
21.0934
  0
LINE
  8
0
 10
646.027
 20
21.0934
 11
646.093
 21
21.0268
  0
LINE
  8
0
 10
646.093
 20
21.0268
 11
646.156
 21
20.9561
  0
LINE
  8
0
 10
646.156
 20
20.9561
 11
646.214
 21
20.8817
  0
LINE
  8
0
 10
646.214
 20
20.8817
 11
646.266
 21
20.8037
  0
LINE
  8
0
 10
646.266
 20
20.8037
 11
646.314
 21
20.7226
  0
LINE
  8
0
 10
646.314
 20
20.7226
 11
646.357
 21
20.6387
  0
LINE
  8
0
 10
646.357
 20
20.6387
 11
646.395
 21
20.5522
  0
LINE
  8
0
 10
646.395
 20
20.5522
 11
646.427
 21
20.4635
  0
LINE
  8
0
 10
646.427
 20
20.4635
 11
646.453
 21
20.373
  0
LINE
  8
0
 10
646.453
 20
20.373
 11
646.473
 21
20.2811
  0
LINE
  8
0
 10
646.473
 20
20.2811
 11
646.488
 21
20.188
  0
LINE
  8
0
 10
646.488
 20
20.188
 11
646.497
 21
20.0942
  0
LINE
  8
0
 10
646.497
 20
20.0942
 11
646.5
 21
20
  0
LINE
  8
0
 10
646.5
 20
20
 11
646.497
 21
19.9058
  0
LINE
  8
0
 10
646.497
 20
19.9058
 11
646.488
 21
19.812
  0
LINE
  8
0
 10
646.488
 20
19.812
 11
646.473
 21
19.7189
  0
LINE
  8
0
 10
646.473
 20
19.7189
 11
646.453
 21
19.627
  0
LINE
  8
0
 10
646.453
 20
19.627
 11
646.427
 21
19.5365
  0
LINE
  8
0
 10
646.427
 20
19.5365
 11
646.395
 21
19.4478
  0
LINE
  8
0
 10
646.395
 20
19.4478
 11
646.357
 21
19.3613
  0
LINE
  8
0
 10
646.357
 20
19.3613
 11
646.314
 21
19.2774
  0
LINE
  8
0
 10
646.314
 20
19.2774
 11
646.266
 21
19.1963
  0
LINE
  8
0
 10
646.266
 20
19.1963
 11
646.214
 21
19.1183
  0
LINE
  8
0
 10
646.214
 20
19.1183
 11
646.156
 21
19.0439
  0
LINE
  8
0
 10
646.156
 20
19.0439
 11
646.093
 21
18.9732
  0
LINE
  8
0
 10
646.093
 20
18.9732
 11
646.027
 21
18.9065
  0
LINE
  8
0
 10
646.027
 20
18.9065
 11
645.956
 21
18.8442
  0
LINE
  8
0
 10
645.956
 20
18.8442
 11
645.882
 21
18.7865
  0
LINE
  8
0
 10
645.882
 20
18.7865
 11
645.804
 21
18.7335
  0
LINE
  8
0
 10
645.804
 20
18.7335
 11
645.723
 21
18.6855
  0
LINE
  8
0
 10
645.723
 20
18.6855
 11
645.639
 21
18.6428
  0
LINE
  8
0
 10
645.639
 20
18.6428
 11
645.552
 21
18.6053
  0
LINE
  8
0
 10
645.552
 20
18.6053
 11
645.464
 21
18.5734
  0
LINE
  8
0
 10
645.464
 20
18.5734
 11
645.373
 21
18.5471
  0
LINE
  8
0
 10
645.373
 20
18.5471
 11
645.281
 21
18.5266
  0
LINE
  8
0
 10
645.281
 20
18.5266
 11
645.188
 21
18.5118
  0
LINE
  8
0
 10
645.188
 20
18.5118
 11
645.094
 21
18.503
  0
LINE
  8
0
 10
645.094
 20
18.503
 11
645
 21
18.5
  0
LINE
  8
0
 10
645
 20
18.5
 11
644.906
 21
18.503
  0
LINE
  8
0
 10
654.906
 20
18.503
 11
654.812
 21
18.5118
  0
LINE
  8
0
 10
654.812
 20
18.5118
 11
654.719
 21
18.5266
  0
LINE
  8
0
 10
654.719
 20
18.5266
 11
654.627
 21
18.5471
  0
LINE
  8
0
 10
654.627
 20
18.5471
 11
654.536
 21
18.5734
  0
LINE
  8
0
 10
654.536
 20
18.5734
 11
654.448
 21
18.6053
  0
LINE
  8
0
 10
654.448
 20
18.6053
 11
654.361
 21
18.6428
  0
LINE
  8
0
 10
654.361
 20
18.6428
 11
654.277
 21
18.6855
  0
LINE
  8
0
 10
654.277
 20
18.6855
 11
654.196
 21
18.7335
  0
LINE
  8
0
 10
654.196
 20
18.7335
 11
654.118
 21
18.7865
  0
LINE
  8
0
 10
654.118
 20
18.7865
 11
654.044
 21
18.8442
  0
LINE
  8
0
 10
654.044
 20
18.8442
 11
653.973
 21
18.9065
  0
LINE
  8
0
 10
653.973
 20
18.9065
 11
653.907
 21
18.9732
  0
LINE
  8
0
 10
653.907
 20
18.9732
 11
653.844
 21
19.0439
  0
LINE
  8
0
 10
653.844
 20
19.0439
 11
653.786
 21
19.1183
  0
LINE
  8
0
 10
653.786
 20
19.1183
 11
653.734
 21
19.1963
  0
LINE
  8
0
 10
653.734
 20
19.1963
 11
653.686
 21
19.2774
  0
LINE
  8
0
 10
653.686
 20
19.2774
 11
653.643
 21
19.3613
  0
LINE
  8
0
 10
653.643
 20
19.3613
 11
653.605
 21
19.4478
  0
LINE
  8
0
 10
653.605
 20
19.4478
 11
653.573
 21
19.5365
  0
LINE
  8
0
 10
653.573
 20
19.5365
 11
653.547
 21
19.627
  0
LINE
  8
0
 10
653.547
 20
19.627
 11
653.527
 21
19.7189
  0
LINE
  8
0
 10
653.527
 20
19.7189
 11
653.512
 21
19.812
  0
LINE
  8
0
 10
653.512
 20
19.812
 11
653.503
 21
19.9058
  0
LINE
  8
0
 10
653.503
 20
19.9058
 11
653.5
 21
20
  0
LINE
  8
0
 10
653.5
 20
20
 11
653.503
 21
20.0942
  0
LINE
  8
0
 10
653.503
 20
20.0942
 11
653.512
 21
20.188
  0
LINE
  8
0
 10
653.512
 20
20.188
 11
653.527
 21
20.2811
  0
LINE
  8
0
 10
653.527
 20
20.2811
 11
653.547
 21
20.373
  0
LINE
  8
0
 10
653.547
 20
20.373
 11
653.573
 21
20.4635
  0
LINE
  8
0
 10
653.573
 20
20.4635
 11
653.605
 21
20.5522
  0
LINE
  8
0
 10
653.605
 20
20.5522
 11
653.643
 21
20.6387
  0
LINE
  8
0
 10
653.643
 20
20.6387
 11
653.686
 21
20.7226
  0
LINE
  8
0
 10
653.686
 20
20.7226
 11
653.734
 21
20.8037
  0
LINE
  8
0
 10
653.734
 20
20.8037
 11
653.786
 21
20.8817
  0
LINE
  8
0
 10
653.786
 20
20.8817
 11
653.844
 21
20.9561
  0
LINE
  8
0
 10
653.844
 20
20.9561
 11
653.907
 21
21.0268
  0
LINE
  8
0
 10
653.907
 20
21.0268
 11
653.973
 21
21.0934
  0
LINE
  8
0
 10
653.973
 20
21.0934
 11
654.044
 21
21.1558
  0
LINE
  8
0
 10
654.044
 20
21.1558
 11
654.118
 21
21.2135
  0
LINE
  8
0
 10
654.118
 20
21.2135
 11
654.196
 21
21.2665
  0
LINE
  8
0
 10
654.196
 20
21.2665
 11
654.277
 21
21.3145
  0
LINE
  8
0
 10
654.277
 20
21.3145
 11
654.361
 21
21.3572
  0
LINE
  8
0
 10
654.361
 20
21.3572
 11
654.448
 21
21.3947
  0
LINE
  8
0
 10
654.448
 20
21.3947
 11
654.536
 21
21.4266
  0
LINE
  8
0
 10
654.536
 20
21.4266
 11
654.627
 21
21.4529
  0
LINE
  8
0
 10
654.627
 20
21.4529
 11
654.719
 21
21.4734
  0
LINE
  8
0
 10
654.719
 20
21.4734
 11
654.812
 21
21.4882
  0
LINE
  8
0
 10
654.812
 20
21.4882
 11
654.906
 21
21.497
  0
LINE
  8
0
 10
654.906
 20
21.497
 11
655
 21
21.5
  0
LINE
  8
0
 10
655
 20
21.5
 11
655.094
 21
21.497
  0
LINE
  8
0
 10
655.094
 20
21.497
 11
655.188
 21
21.4882
  0
LINE
  8
0
 10
655.188
 20
21.4882
 11
655.281
 21
21.4734
  0
LINE
  8
0
 10
655.281
 20
21.4734
 11
655.373
 21
21.4529
  0
LINE
  8
0
 10
655.373
 20
21.4529
 11
655.464
 21
21.4266
  0
LINE
  8
0
 10
655.464
 20
21.4266
 11
655.552
 21
21.3947
  0
LINE
  8
0
 10
655.552
 20
21.3947
 11
655.639
 21
21.3572
  0
LINE
  8
0
 10
655.639
 20
21.3572
 11
655.723
 21
21.3145
  0
LINE
  8
0
 10
655.723
 20
21.3145
 11
655.804
 21
21.2665
  0
LINE
  8
0
 10
655.804
 20
21.2665
 11
655.882
 21
21.2135
  0
LINE
  8
0
 10
655.882
 20
21.2135
 11
655.956
 21
21.1558
  0
LINE
  8
0
 10
655.956
 20
21.1558
 11
656.027
 21
21.0934
  0
LINE
  8
0
 10
656.027
 20
21.0934
 11
656.093
 21
21.0268
  0
LINE
  8
0
 10
656.093
 20
21.0268
 11
656.156
 21
20.9561
  0
LINE
  8
0
 10
656.156
 20
20.9561
 11
656.214
 21
20.8817
  0
LINE
  8
0
 10
656.214
 20
20.8817
 11
656.266
 21
20.8037
  0
LINE
  8
0
 10
656.266
 20
20.8037
 11
656.314
 21
20.7226
  0
LINE
  8
0
 10
656.314
 20
20.7226
 11
656.357
 21
20.6387
  0
LINE
  8
0
 10
656.357
 20
20.6387
 11
656.395
 21
20.5522
  0
LINE
  8
0
 10
656.395
 20
20.5522
 11
656.427
 21
20.4635
  0
LINE
  8
0
 10
656.427
 20
20.4635
 11
656.453
 21
20.373
  0
LINE
  8
0
 10
656.453
 20
20.373
 11
656.473
 21
20.2811
  0
LINE
  8
0
 10
656.473
 20
20.2811
 11
656.488
 21
20.188
  0
LINE
  8
0
 10
656.488
 20
20.188
 11
656.497
 21
20.0942
  0
LINE
  8
0
 10
656.497
 20
20.0942
 11
656.5
 21
20
  0
LINE
  8
0
 10
656.5
 20
20
 11
656.497
 21
19.9058
  0
LINE
  8
0
 10
656.497
 20
19.9058
 11
656.488
 21
19.812
  0
LINE
  8
0
 10
656.488
 20
19.812
 11
656.473
 21
19.7189
  0
LINE
  8
0
 10
656.473
 20
19.7189
 11
656.453
 21
19.627
  0
LINE
  8
0
 10
656.453
 20
19.627
 11
656.427
 21
19.5365
  0
LINE
  8
0
 10
656.427
 20
19.5365
 11
656.395
 21
19.4478
  0
LINE
  8
0
 10
656.395
 20
19.4478
 11
656.357
 21
19.3613
  0
LINE
  8
0
 10
656.357
 20
19.3613
 11
656.314
 21
19.2774
  0
LINE
  8
0
 10
656.314
 20
19.2774
 11
656.266
 21
19.1963
  0
LINE
  8
0
 10
656.266
 20
19.1963
 11
656.214
 21
19.1183
  0
LINE
  8
0
 10
656.214
 20
19.1183
 11
656.156
 21
19.0439
  0
LINE
  8
0
 10
656.156
 20
19.0439
 11
656.093
 21
18.9732
  0
LINE
  8
0
 10
656.093
 20
18.9732
 11
656.027
 21
18.9065
  0
LINE
  8
0
 10
656.027
 20
18.9065
 11
655.956
 21
18.8442
  0
LINE
  8
0
 10
655.956
 20
18.8442
 11
655.882
 21
18.7865
  0
LINE
  8
0
 10
655.882
 20
18.7865
 11
655.804
 21
18.7335
  0
LINE
  8
0
 10
655.804
 20
18.7335
 11
655.723
 21
18.6855
  0
LINE
  8
0
 10
655.723
 20
18.6855
 11
655.639
 21
18.6428
  0
LINE
  8
0
 10
655.639
 20
18.6428
 11
655.552
 21
18.6053
  0
LINE
  8
0
 10
655.552
 20
18.6053
 11
655.464
 21
18.5734
  0
LINE
  8
0
 10
655.464
 20
18.5734
 11
655.373
 21
18.5471
  0
LINE
  8
0
 10
655.373
 20
18.5471
 11
655.281
 21
18.5266
  0
LINE
  8
0
 10
655.281
 20
18.5266
 11
655.188
 21
18.5118
  0
LINE
  8
0
 10
655.188
 20
18.5118
 11
655.094
 21
18.503
  0
LINE
  8
0
 10
655.094
 20
18.503
 11
655
 21
18.5
  0
LINE
  8
0
 10
655
 20
18.5
 11
654.906
 21
18.503
  0
LINE
  8
0
 10
570
 20
300
 11
300
 21
300
  0
LINE
  8
0
 10
300
 20
300
 11
300
 21
0
  0
LINE
  8
0
 10
300
 20
0
 11
570
 21
0
  0
LINE
  8
0
 10
570
 20
0
 11
570
 21
300
  0
LINE
  8
0
 10
558.874
 20
278.004
 11
558.749
 21
278.016
  0
LINE
  8
0
 10
558.749
 20
278.016
 11
558.625
 21
278.035
  0
LINE
  8
0
 10
558.625
 20
278.035
 11
558.503
 21
278.063
  0
LINE
  8
0
 10
558.503
 20
278.063
 11
558.382
 21
278.098
  0
LINE
  8
0
 10
558.382
 20
278.098
 11
558.264
 21
278.14
  0
LINE
  8
0
 10
558.264
 20
278.14
 11
558.148
 21
278.19
  0
LINE
  8
0
 10
558.148
 20
278.19
 11
558.036
 21
278.247
  0
LINE
  8
0
 10
558.036
 20
278.247
 11
557.928
 21
278.311
  0
LINE
  8
0
 10
557.928
 20
278.311
 11
557.824
 21
278.382
  0
LINE
  8
0
 10
557.824
 20
278.382
 11
557.725
 21
278.459
  0
LINE
  8
0
 10
557.725
 20
278.459
 11
557.631
 21
278.542
  0
LINE
  8
0
 10
557.631
 20
278.542
 11
557.542
 21
278.631
  0
LINE
  8
0
 10
557.542
 20
278.631
 11
557.459
 21
278.725
  0
LINE
  8
0
 10
557.459
 20
278.725
 11
557.382
 21
278.824
  0
LINE
  8
0
 10
557.382
 20
278.824
 11
557.311
 21
278.928
  0
LINE
  8
0
 10
557.311
 20
278.928
 11
557.247
 21
279.036
  0
LINE
  8
0
 10
557.247
 20
279.036
 11
557.19
 21
279.148
  0
LINE
  8
0
 10
557.19
 20
279.148
 11
557.14
 21
279.264
  0
LINE
  8
0
 10
557.14
 20
279.264
 11
557.098
 21
279.382
  0
LINE
  8
0
 10
557.098
 20
279.382
 11
557.063
 21
279.503
  0
LINE
  8
0
 10
557.063
 20
279.503
 11
557.035
 21
279.625
  0
LINE
  8
0
 10
557.035
 20
279.625
 11
557.016
 21
279.749
  0
LINE
  8
0
 10
557.016
 20
279.749
 11
557.004
 21
279.874
  0
LINE
  8
0
 10
557.004
 20
279.874
 11
557
 21
280
  0
LINE
  8
0
 10
557
 20
280
 11
557.004
 21
280.126
  0
LINE
  8
0
 10
557.004
 20
280.126
 11
557.016
 21
280.251
  0
LINE
  8
0
 10
557.016
 20
280.251
 11
557.035
 21
280.375
  0
LINE
  8
0
 10
557.035
 20
280.375
 11
557.063
 21
280.497
  0
LINE
  8
0
 10
557.063
 20
280.497
 11
557.098
 21
280.618
  0
LINE
  8
0
 10
557.098
 20
280.618
 11
557.14
 21
280.736
  0
LINE
  8
0
 10
557.14
 20
280.736
 11
557.19
 21
280.852
  0
LINE
  8
0
 10
557.19
 20
280.852
 11
557.247
 21
280.964
  0
LINE
  8
0
 10
557.247
 20
280.964
 11
557.311
 21
281.072
  0
LINE
  8
0
 10
557.311
 20
281.072
 11
557.382
 21
281.176
  0
LINE
  8
0
 10
557.382
 20
281.176
 11
557.459
 21
281.275
  0
LINE
  8
0
 10
557.459
 20
281.275
 11
557.542
 21
281.369
  0
LINE
  8
0
 10
557.542
 20
281.369
 11
557.631
 21
281.458
  0
LINE
  8
0
 10
557.631
 20
281.458
 11
557.725
 21
281.541
  0
LINE
  8
0
 10
557.725
 20
281.541
 11
557.824
 21
281.618
  0
LINE
  8
0
 10
557.824
 20
281.618
 11
557.928
 21
281.689
  0
LINE
  8
0
 10
557.928
 20
281.689
 11
558.036
 21
281.753
  0
LINE
  8
0
 10
558.036
 20
281.753
 11
558.148
 21
281.81
  0
LINE
  8
0
 10
558.148
 20
281.81
 11
558.264
 21
281.86
  0
LINE
  8
0
 10
558.264
 20
281.86
 11
558.382
 21
281.902
  0
LINE
  8
0
 10
558.382
 20
281.902
 11
558.503
 21
281.937
  0
LINE
  8
0
 10
558.503
 20
281.937
 11
558.625
 21
281.965
  0
LINE
  8
0
 10
558.625
 20
281.965
 11
558.749
 21
281.984
  0
LINE
  8
0
 10
558.749
 20
281.984
 11
558.874
 21
281.996
  0
LINE
  8
0
 10
558.874
 20
281.996
 11
559
 21
282
  0
LINE
  8
0
 10
559
 20
282
 11
559.126
 21
281.996
  0
LINE
  8
0
 10
559.126
 20
281.996
 11
559.251
 21
281.984
  0
LINE
  8
0
 10
559.251
 20
281.984
 11
559.375
 21
281.965
  0
LINE
  8
0
 10
559.375
 20
281.965
 11
559.497
 21
281.937
  0
LINE
  8
0
 10
559.497
 20
281.937
 11
559.618
 21
281.902
  0
LINE
  8
0
 10
559.618
 20
281.902
 11
559.736
 21
281.86
  0
LINE
  8
0
 10
559.736
 20
281.86
 11
559.852
 21
281.81
  0
LINE
  8
0
 10
559.852
 20
281.81
 11
559.964
 21
281.753
  0
LINE
  8
0
 10
559.964
 20
281.753
 11
560.072
 21
281.689
  0
LINE
  8
0
 10
560.072
 20
281.689
 11
560.176
 21
281.618
  0
LINE
  8
0
 10
560.176
 20
281.618
 11
560.275
 21
281.541
  0
LINE
  8
0
 10
560.275
 20
281.541
 11
560.369
 21
281.458
  0
LINE
  8
0
 10
560.369
 20
281.458
 11
560.458
 21
281.369
  0
LINE
  8
0
 10
560.458
 20
281.369
 11
560.541
 21
281.275
  0
LINE
  8
0
 10
560.541
 20
281.275
 11
560.618
 21
281.176
  0
LINE
  8
0
 10
560.618
 20
281.176
 11
560.689
 21
281.072
  0
LINE
  8
0
 10
560.689
 20
281.072
 11
560.753
 21
280.964
  0
LINE
  8
0
 10
560.753
 20
280.964
 11
560.81
 21
280.852
  0
LINE
  8
0
 10
560.81
 20
280.852
 11
560.86
 21
280.736
  0
LINE
  8
0
 10
560.86
 20
280.736
 11
560.902
 21
280.618
  0
LINE
  8
0
 10
560.902
 20
280.618
 11
560.937
 21
280.497
  0
LINE
  8
0
 10
560.937
 20
280.497
 11
560.965
 21
280.375
  0
LINE
  8
0
 10
560.965
 20
280.375
 11
560.984
 21
280.251
  0
LINE
  8
0
 10
560.984
 20
280.251
 11
560.996
 21
280.126
  0
LINE
  8
0
 10
560.996
 20
280.126
 11
561
 21
280
  0
LINE
  8
0
 10
561
 20
280
 11
560.996
 21
279.874
  0
LINE
  8
0
 10
560.996
 20
279.874
 11
560.984
 21
279.749
  0
LINE
  8
0
 10
560.984
 20
279.749
 11
560.965
 21
279.625
  0
LINE
  8
0
 10
560.965
 20
279.625
 11
560.937
 21
279.503
  0
LINE
  8
0
 10
560.937
 20
279.503
 11
560.902
 21
279.382
  0
LINE
  8
0
 10
560.902
 20
279.382
 11
560.86
 21
279.264
  0
LINE
  8
0
 10
560.86
 20
279.264
 11
560.81
 21
279.148
  0
LINE
  8
0
 10
560.81
 20
279.148
 11
560.753
 21
279.036
  0
LINE
  8
0
 10
560.753
 20
279.036
 11
560.689
 21
278.928
  0
LINE
  8
0
 10
560.689
 20
278.928
 11
560.618
 21
278.824
  0
LINE
  8
0
 10
560.618
 20
278.824
 11
560.541
 21
278.725
  0
LINE
  8
0
 10
560.541
 20
278.725
 11
560.458
 21
278.631
  0
LINE
  8
0
 10
560.458
 20
278.631
 11
560.369
 21
278.542
  0
LINE
  8
0
 10
560.369
 20
278.542
 11
560.275
 21
278.459
  0
LINE
  8
0
 10
560.275
 20
278.459
 11
560.176
 21
278.382
  0
LINE
  8
0
 10
560.176
 20
278.382
 11
560.072
 21
278.311
  0
LINE
  8
0
 10
560.072
 20
278.311
 11
559.964
 21
278.247
  0
LINE
  8
0
 10
559.964
 20
278.247
 11
559.852
 21
278.19
  0
LINE
  8
0
 10
559.852
 20
278.19
 11
559.736
 21
278.14
  0
LINE
  8
0
 10
559.736
 20
278.14
 11
559.618
 21
278.098
  0
LINE
  8
0
 10
559.618
 20
278.098
 11
559.497
 21
278.063
  0
LINE
  8
0
 10
559.497
 20
278.063
 11
559.375
 21
278.035
  0
LINE
  8
0
 10
559.375
 20
278.035
 11
559.251
 21
278.016
  0
LINE
  8
0
 10
559.251
 20
278.016
 11
559.126
 21
278.004
  0
LINE
  8
0
 10
559.126
 20
278.004
 11
559
 21
278
  0
LINE
  8
0
 10
559
 20
278
 11
558.874
 21
278.004
  0
LINE
  8
0
 10
310.874
 20
278.004
 11
310.749
 21
278.016
  0
LINE
  8
0
 10
310.749
 20
278.016
 11
310.625
 21
278.035
  0
LINE
  8
0
 10
310.625
 20
278.035
 11
310.503
 21
278.063
  0
LINE
  8
0
 10
310.503
 20
278.063
 11
310.382
 21
278.098
  0
LINE
  8
0
 10
310.382
 20
278.098
 11
310.264
 21
278.14
  0
LINE
  8
0
 10
310.264
 20
278.14
 11
310.148
 21
278.19
  0
LINE
  8
0
 10
310.148
 20
278.19
 11
310.036
 21
278.247
  0
LINE
  8
0
 10
310.036
 20
278.247
 11
309.928
 21
278.311
  0
LINE
  8
0
 10
309.928
 20
278.311
 11
309.824
 21
278.382
  0
LINE
  8
0
 10
309.824
 20
278.382
 11
309.725
 21
278.459
  0
LINE
  8
0
 10
309.725
 20
278.459
 11
309.631
 21
278.542
  0
LINE
  8
0
 10
309.631
 20
278.542
 11
309.542
 21
278.631
  0
LINE
  8
0
 10
309.542
 20
278.631
 11
309.459
 21
278.725
  0
LINE
  8
0
 10
309.459
 20
278.725
 11
309.382
 21
278.824
  0
LINE
  8
0
 10
309.382
 20
278.824
 11
309.311
 21
278.928
  0
LINE
  8
0
 10
309.311
 20
278.928
 11
309.247
 21
279.036
  0
LINE
  8
0
 10
309.247
 20
279.036
 11
309.19
 21
279.148
  0
LINE
  8
0
 10
309.19
 20
279.148
 11
309.14
 21
279.264
  0
LINE
  8
0
 10
309.14
 20
279.264
 11
309.098
 21
279.382
  0
LINE
  8
0
 10
309.098
 20
279.382
 11
309.063
 21
279.503
  0
LINE
  8
0
 10
309.063
 20
279.503
 11
309.035
 21
279.625
  0
LINE
  8
0
 10
309.035
 20
279.625
 11
309.016
 21
279.749
  0
LINE
  8
0
 10
309.016
 20
279.749
 11
309.004
 21
279.874
  0
LINE
  8
0
 10
309.004
 20
279.874
 11
309
 21
280
  0
LINE
  8
0
 10
309
 20
280
 11
309.004
 21
280.126
  0
LINE
  8
0
 10
309.004
 20
280.126
 11
309.016
 21
280.251
  0
LINE
  8
0
 10
309.016
 20
280.251
 11
309.035
 21
280.375
  0
LINE
  8
0
 10
309.035
 20
280.375
 11
309.063
 21
280.497
  0
LINE
  8
0
 10
309.063
 20
280.497
 11
309.098
 21
280.618
  0
LINE
  8
0
 10
309.098
 20
280.618
 11
309.14
 21
280.736
  0
LINE
  8
0
 10
309.14
 20
280.736
 11
309.19
 21
280.852
  0
LINE
  8
0
 10
309.19
 20
280.852
 11
309.247
 21
280.964
  0
LINE
  8
0
 10
309.247
 20
280.964
 11
309.311
 21
281.072
  0
LINE
  8
0
 10
309.311
 20
281.072
 11
309.382
 21
281.176
  0
LINE
  8
0
 10
309.382
 20
281.176
 11
309.459
 21
281.275
  0
LINE
  8
0
 10
309.459
 20
281.275
 11
309.542
 21
281.369
  0
LINE
  8
0
 10
309.542
 20
281.369
 11
309.631
 21
281.458
  0
LINE
  8
0
 10
309.631
 20
281.458
 11
309.725
 21
281.541
  0
LINE
  8
0
 10
309.725
 20
281.541
 11
309.824
 21
281.618
  0
LINE
  8
0
 10
309.824
 20
281.618
 11
309.928
 21
281.689
  0
LINE
  8
0
 10
309.928
 20
281.689
 11
310.036
 21
281.753
  0
LINE
  8
0
 10
310.036
 20
281.753
 11
310.148
 21
281.81
  0
LINE
  8
0
 10
310.148
 20
281.81
 11
310.264
 21
281.86
  0
LINE
  8
0
 10
310.264
 20
281.86
 11
310.382
 21
281.902
  0
LINE
  8
0
 10
310.382
 20
281.902
 11
310.503
 21
281.937
  0
LINE
  8
0
 10
310.503
 20
281.937
 11
310.625
 21
281.965
  0
LINE
  8
0
 10
310.625
 20
281.965
 11
310.749
 21
281.984
  0
LINE
  8
0
 10
310.749
 20
281.984
 11
310.874
 21
281.996
  0
LINE
  8
0
 10
310.874
 20
281.996
 11
311
 21
282
  0
LINE
  8
0
 10
311
 20
282
 11
311.126
 21
281.996
  0
LINE
  8
0
 10
311.126
 20
281.996
 11
311.251
 21
281.984
  0
LINE
  8
0
 10
311.251
 20
281.984
 11
311.375
 21
281.965
  0
LINE
  8
0
 10
311.375
 20
281.965
 11
311.497
 21
281.937
  0
LINE
  8
0
 10
311.497
 20
281.937
 11
311.618
 21
281.902
  0
LINE
  8
0
 10
311.618
 20
281.902
 11
311.736
 21
281.86
  0
LINE
  8
0
 10
311.736
 20
281.86
 11
311.852
 21
281.81
  0
LINE
  8
0
 10
311.852
 20
281.81
 11
311.964
 21
281.753
  0
LINE
  8
0
 10
311.964
 20
281.753
 11
312.072
 21
281.689
  0
LINE
  8
0
 10
312.072
 20
281.689
 11
312.176
 21
281.618
  0
LINE
  8
0
 10
312.176
 20
281.618
 11
312.275
 21
281.541
  0
LINE
  8
0
 10
312.275
 20
281.541
 11
312.369
 21
281.458
  0
LINE
  8
0
 10
312.369
 20
281.458
 11
312.458
 21
281.369
  0
LINE
  8
0
 10
312.458
 20
281.369
 11
312.541
 21
281.275
  0
LINE
  8
0
 10
312.541
 20
281.275
 11
312.618
 21
281.176
  0
LINE
  8
0
 10
312.618
 20
281.176
 11
312.689
 21
281.072
  0
LINE
  8
0
 10
312.689
 20
281.072
 11
312.753
 21
280.964
  0
LINE
  8
0
 10
312.753
 20
280.964
 11
312.81
 21
280.852
  0
LINE
  8
0
 10
312.81
 20
280.852
 11
312.86
 21
280.736
  0
LINE
  8
0
 10
312.86
 20
280.736
 11
312.902
 21
280.618
  0
LINE
  8
0
 10
312.902
 20
280.618
 11
312.937
 21
280.497
  0
LINE
  8
0
 10
312.937
 20
280.497
 11
312.965
 21
280.375
  0
LINE
  8
0
 10
312.965
 20
280.375
 11
312.984
 21
280.251
  0
LINE
  8
0
 10
312.984
 20
280.251
 11
312.996
 21
280.126
  0
LINE
  8
0
 10
312.996
 20
280.126
 11
313
 21
280
  0
LINE
  8
0
 10
313
 20
280
 11
312.996
 21
279.874
  0
LINE
  8
0
 10
312.996
 20
279.874
 11
312.984
 21
279.749
  0
LINE
  8
0
 10
312.984
 20
279.749
 11
312.965
 21
279.625
  0
LINE
  8
0
 10
312.965
 20
279.625
 11
312.937
 21
279.503
  0
LINE
  8
0
 10
312.937
 20
279.503
 11
312.902
 21
279.382
  0
LINE
  8
0
 10
312.902
 20
279.382
 11
312.86
 21
279.264
  0
LINE
  8
0
 10
312.86
 20
279.264
 11
312.81
 21
279.148
  0
LINE
  8
0
 10
312.81
 20
279.148
 11
312.753
 21
279.036
  0
LINE
  8
0
 10
312.753
 20
279.036
 11
312.689
 21
278.928
  0
LINE
  8
0
 10
312.689
 20
278.928
 11
312.618
 21
278.824
  0
LINE
  8
0
 10
312.618
 20
278.824
 11
312.541
 21
278.725
  0
LINE
  8
0
 10
312.541
 20
278.725
 11
312.458
 21
278.631
  0
LINE
  8
0
 10
312.458
 20
278.631
 11
312.369
 21
278.542
  0
LINE
  8
0
 10
312.369
 20
278.542
 11
312.275
 21
278.459
  0
LINE
  8
0
 10
312.275
 20
278.459
 11
312.176
 21
278.382
  0
LINE
  8
0
 10
312.176
 20
278.382
 11
312.072
 21
278.311
  0
LINE
  8
0
 10
312.072
 20
278.311
 11
311.964
 21
278.247
  0
LINE
  8
0
 10
311.964
 20
278.247
 11
311.852
 21
278.19
  0
LINE
  8
0
 10
311.852
 20
278.19
 11
311.736
 21
278.14
  0
LINE
  8
0
 10
311.736
 20
278.14
 11
311.618
 21
278.098
  0
LINE
  8
0
 10
311.618
 20
278.098
 11
311.497
 21
278.063
  0
LINE
  8
0
 10
311.497
 20
278.063
 11
311.375
 21
278.035
  0
LINE
  8
0
 10
311.375
 20
278.035
 11
311.251
 21
278.016
  0
LINE
  8
0
 10
311.251
 20
278.016
 11
311.126
 21
278.004
  0
LINE
  8
0
 10
311.126
 20
278.004
 11
311
 21
278
  0
LINE
  8
0
 10
311
 20
278
 11
310.874
 21
278.004
  0
LINE
  8
0
 10
310.874
 20
18.0039
 11
310.749
 21
18.0158
  0
LINE
  8
0
 10
310.749
 20
18.0158
 11
310.625
 21
18.0354
  0
LINE
  8
0
 10
310.625
 20
18.0354
 11
310.503
 21
18.0628
  0
LINE
  8
0
 10
310.503
 20
18.0628
 11
310.382
 21
18.0979
  0
LINE
  8
0
 10
310.382
 20
18.0979
 11
310.264
 21
18.1404
  0
LINE
  8
0
 10
310.264
 20
18.1404
 11
310.148
 21
18.1903
  0
LINE
  8
0
 10
310.148
 20
18.1903
 11
310.036
 21
18.2474
  0
LINE
  8
0
 10
310.036
 20
18.2474
 11
309.928
 21
18.3113
  0
LINE
  8
0
 10
309.928
 20
18.3113
 11
309.824
 21
18.382
  0
LINE
  8
0
 10
309.824
 20
18.382
 11
309.725
 21
18.459
  0
LINE
  8
0
 10
309.725
 20
18.459
 11
309.631
 21
18.5421
  0
LINE
  8
0
 10
309.631
 20
18.5421
 11
309.542
 21
18.6309
  0
LINE
  8
0
 10
309.542
 20
18.6309
 11
309.459
 21
18.7251
  0
LINE
  8
0
 10
309.459
 20
18.7251
 11
309.382
 21
18.8244
  0
LINE
  8
0
 10
309.382
 20
18.8244
 11
309.311
 21
18.9283
  0
LINE
  8
0
 10
309.311
 20
18.9283
 11
309.247
 21
19.0365
  0
LINE
  8
0
 10
309.247
 20
19.0365
 11
309.19
 21
19.1484
  0
LINE
  8
0
 10
309.19
 20
19.1484
 11
309.14
 21
19.2637
  0
LINE
  8
0
 10
309.14
 20
19.2637
 11
309.098
 21
19.382
  0
LINE
  8
0
 10
309.098
 20
19.382
 11
309.063
 21
19.5026
  0
LINE
  8
0
 10
309.063
 20
19.5026
 11
309.035
 21
19.6252
  0
LINE
  8
0
 10
309.035
 20
19.6252
 11
309.016
 21
19.7493
  0
LINE
  8
0
 10
309.016
 20
19.7493
 11
309.004
 21
19.8744
  0
LINE
  8
0
 10
309.004
 20
19.8744
 11
309
 21
20
  0
LINE
  8
0
 10
309
 20
20
 11
309.004
 21
20.1256
  0
LINE
  8
0
 10
309.004
 20
20.1256
 11
309.016
 21
20.2507
  0
LINE
  8
0
 10
309.016
 20
20.2507
 11
309.035
 21
20.3748
  0
LINE
  8
0
 10
309.035
 20
20.3748
 11
309.063
 21
20.4974
  0
LINE
  8
0
 10
309.063
 20
20.4974
 11
309.098
 21
20.618
  0
LINE
  8
0
 10
309.098
 20
20.618
 11
309.14
 21
20.7362
  0
LINE
  8
0
 10
309.14
 20
20.7362
 11
309.19
 21
20.8515
  0
LINE
  8
0
 10
309.19
 20
20.8515
 11
309.247
 21
20.9635
  0
LINE
  8
0
 10
309.247
 20
20.9635
 11
309.311
 21
21.0717
  0
LINE
  8
0
 10
309.311
 20
21.0717
 11
309.382
 21
21.1756
  0
LINE
  8
0
 10
309.382
 20
21.1756
 11
309.459
 21
21.2748
  0
LINE
  8
0
 10
309.459
 20
21.2748
 11
309.542
 21
21.3691
  0
LINE
  8
0
 10
309.542
 20
21.3691
 11
309.631
 21
21.4579
  0
LINE
  8
0
 10
309.631
 20
21.4579
 11
309.725
 21
21.541
  0
LINE
  8
0
 10
309.725
 20
21.541
 11
309.824
 21
21.618
  0
LINE
  8
0
 10
309.824
 20
21.618
 11
309.928
 21
21.6886
  0
LINE
  8
0
 10
309.928
 20
21.6886
 11
310.036
 21
21.7526
  0
LINE
  8
0
 10
310.036
 20
21.7526
 11
310.148
 21
21.8096
  0
LINE
  8
0
 10
310.148
 20
21.8096
 11
310.264
 21
21.8595
  0
LINE
  8
0
 10
310.264
 20
21.8595
 11
310.382
 21
21.9021
  0
LINE
  8
0
 10
310.382
 20
21.9021
 11
310.503
 21
21.9372
  0
LINE
  8
0
 10
310.503
 20
21.9372
 11
310.625
 21
21.9646
  0
LINE
  8
0
 10
310.625
 20
21.9646
 11
310.749
 21
21.9842
  0
LINE
  8
0
 10
310.749
 20
21.9842
 11
310.874
 21
21.996
  0
LINE
  8
0
 10
310.874
 20
21.996
 11
311
 21
22
  0
LINE
  8
0
 10
311
 20
22
 11
311.126
 21
21.996
  0
LINE
  8
0
 10
311.126
 20
21.996
 11
311.251
 21
21.9842
  0
LINE
  8
0
 10
311.251
 20
21.9842
 11
311.375
 21
21.9646
  0
LINE
  8
0
 10
311.375
 20
21.9646
 11
311.497
 21
21.9372
  0
LINE
  8
0
 10
311.497
 20
21.9372
 11
311.618
 21
21.9021
  0
LINE
  8
0
 10
311.618
 20
21.9021
 11
311.736
 21
21.8595
  0
LINE
  8
0
 10
311.736
 20
21.8595
 11
311.852
 21
21.8096
  0
LINE
  8
0
 10
311.852
 20
21.8096
 11
311.964
 21
21.7526
  0
LINE
  8
0
 10
311.964
 20
21.7526
 11
312.072
 21
21.6886
  0
LINE
  8
0
 10
312.072
 20
21.6886
 11
312.176
 21
21.618
  0
LINE
  8
0
 10
312.176
 20
21.618
 11
312.275
 21
21.541
  0
LINE
  8
0
 10
312.275
 20
21.541
 11
312.369
 21
21.4579
  0
LINE
  8
0
 10
312.369
 20
21.4579
 11
312.458
 21
21.3691
  0
LINE
  8
0
 10
312.458
 20
21.3691
 11
312.541
 21
21.2748
  0
LINE
  8
0
 10
312.541
 20
21.2748
 11
312.618
 21
21.1756
  0
LINE
  8
0
 10
312.618
 20
21.1756
 11
312.689
 21
21.0717
  0
LINE
  8
0
 10
312.689
 20
21.0717
 11
312.753
 21
20.9635
  0
LINE
  8
0
 10
312.753
 20
20.9635
 11
312.81
 21
20.8515
  0
LINE
  8
0
 10
312.81
 20
20.8515
 11
312.86
 21
20.7362
  0
LINE
  8
0
 10
312.86
 20
20.7362
 11
312.902
 21
20.618
  0
LINE
  8
0
 10
312.902
 20
20.618
 11
312.937
 21
20.4974
  0
LINE
  8
0
 10
312.937
 20
20.4974
 11
312.965
 21
20.3748
  0
LINE
  8
0
 10
312.965
 20
20.3748
 11
312.984
 21
20.2507
  0
LINE
  8
0
 10
312.984
 20
20.2507
 11
312.996
 21
20.1256
  0
LINE
  8
0
 10
312.996
 20
20.1256
 11
313
 21
20
  0
LINE
  8
0
 10
313
 20
20
 11
312.996
 21
19.8744
  0
LINE
  8
0
 10
312.996
 20
19.8744
 11
312.984
 21
19.7493
  0
LINE
  8
0
 10
312.984
 20
19.7493
 11
312.965
 21
19.6252
  0
LINE
  8
0
 10
312.965
 20
19.6252
 11
312.937
 21
19.5026
  0
LINE
  8
0
 10
312.937
 20
19.5026
 11
312.902
 21
19.382
  0
LINE
  8
0
 10
312.902
 20
19.382
 11
312.86
 21
19.2637
  0
LINE
  8
0
 10
312.86
 20
19.2637
 11
312.81
 21
19.1484
  0
LINE
  8
0
 10
312.81
 20
19.1484
 11
312.753
 21
19.0365
  0
LINE
  8
0
 10
312.753
 20
19.0365
 11
312.689
 21
18.9283
  0
LINE
  8
0
 10
312.689
 20
18.9283
 11
312.618
 21
18.8244
  0
LINE
  8
0
 10
312.618
 20
18.8244
 11
312.541
 21
18.7251
  0
LINE
  8
0
 10
312.541
 20
18.7251
 11
312.458
 21
18.6309
  0
LINE
  8
0
 10
312.458
 20
18.6309
 11
312.369
 21
18.5421
  0
LINE
  8
0
 10
312.369
 20
18.5421
 11
312.275
 21
18.459
  0
LINE
  8
0
 10
312.275
 20
18.459
 11
312.176
 21
18.382
  0
LINE
  8
0
 10
312.176
 20
18.382
 11
312.072
 21
18.3113
  0
LINE
  8
0
 10
312.072
 20
18.3113
 11
311.964
 21
18.2474
  0
LINE
  8
0
 10
311.964
 20
18.2474
 11
311.852
 21
18.1903
  0
LINE
  8
0
 10
311.852
 20
18.1903
 11
311.736
 21
18.1404
  0
LINE
  8
0
 10
311.736
 20
18.1404
 11
311.618
 21
18.0979
  0
LINE
  8
0
 10
311.618
 20
18.0979
 11
311.497
 21
18.0628
  0
LINE
  8
0
 10
311.497
 20
18.0628
 11
311.375
 21
18.0354
  0
LINE
  8
0
 10
311.375
 20
18.0354
 11
311.251
 21
18.0158
  0
LINE
  8
0
 10
311.251
 20
18.0158
 11
311.126
 21
18.0039
  0
LINE
  8
0
 10
311.126
 20
18.0039
 11
311
 21
18
  0
LINE
  8
0
 10
311
 20
18
 11
310.874
 21
18.0039
  0
LINE
  8
0
 10
558.874
 20
18.0039
 11
558.749
 21
18.0158
  0
LINE
  8
0
 10
558.749
 20
18.0158
 11
558.625
 21
18.0354
  0
LINE
  8
0
 10
558.625
 20
18.0354
 11
558.503
 21
18.0628
  0
LINE
  8
0
 10
558.503
 20
18.0628
 11
558.382
 21
18.0979
  0
LINE
  8
0
 10
558.382
 20
18.0979
 11
558.264
 21
18.1404
  0
LINE
  8
0
 10
558.264
 20
18.1404
 11
558.148
 21
18.1903
  0
LINE
  8
0
 10
558.148
 20
18.1903
 11
558.036
 21
18.2474
  0
LINE
  8
0
 10
558.036
 20
18.2474
 11
557.928
 21
18.3113
  0
LINE
  8
0
 10
557.928
 20
18.3113
 11
557.824
 21
18.382
  0
LINE
  8
0
 10
557.824
 20
18.382
 11
557.725
 21
18.459
  0
LINE
  8
0
 10
557.725
 20
18.459
 11
557.631
 21
18.5421
  0
LINE
  8
0
 10
557.631
 20
18.5421
 11
557.542
 21
18.6309
  0
LINE
  8
0
 10
557.542
 20
18.6309
 11
557.459
 21
18.7251
  0
LINE
  8
0
 10
557.459
 20
18.7251
 11
557.382
 21
18.8244
  0
LINE
  8
0
 10
557.382
 20
18.8244
 11
557.311
 21
18.9283
  0
LINE
  8
0
 10
557.311
 20
18.9283
 11
557.247
 21
19.0365
  0
LINE
  8
0
 10
557.247
 20
19.0365
 11
557.19
 21
19.1484
  0
LINE
  8
0
 10
557.19
 20
19.1484
 11
557.14
 21
19.2637
  0
LINE
  8
0
 10
557.14
 20
19.2637
 11
557.098
 21
19.382
  0
LINE
  8
0
 10
557.098
 20
19.382
 11
557.063
 21
19.5026
  0
LINE
  8
0
 10
557.063
 20
19.5026
 11
557.035
 21
19.6252
  0
LINE
  8
0
 10
557.035
 20
19.6252
 11
557.016
 21
19.7493
  0
LINE
  8
0
 10
557.016
 20
19.7493
 11
557.004
 21
19.8744
  0
LINE
  8
0
 10
557.004
 20
19.8744
 11
557
 21
20
  0
LINE
  8
0
 10
557
 20
20
 11
557.004
 21
20.1256
  0
LINE
  8
0
 10
557.004
 20
20.1256
 11
557.016
 21
20.2507
  0
LINE
  8
0
 10
557.016
 20
20.2507
 11
557.035
 21
20.3748
  0
LINE
  8
0
 10
557.035
 20
20.3748
 11
557.063
 21
20.4974
  0
LINE
  8
0
 10
557.063
 20
20.4974
 11
557.098
 21
20.618
  0
LINE
  8
0
 10
557.098
 20
20.618
 11
557.14
 21
20.7362
  0
LINE
  8
0
 10
557.14
 20
20.7362
 11
557.19
 21
20.8515
  0
LINE
  8
0
 10
557.19
 20
20.8515
 11
557.247
 21
20.9635
  0
LINE
  8
0
 10
557.247
 20
20.9635
 11
557.311
 21
21.0717
  0
LINE
  8
0
 10
557.311
 20
21.0717
 11
557.382
 21
21.1756
  0
LINE
  8
0
 10
557.382
 20
21.1756
 11
557.459
 21
21.2748
  0
LINE
  8
0
 10
557.459
 20
21.2748
 11
557.542
 21
21.3691
  0
LINE
  8
0
 10
557.542
 20
21.3691
 11
557.631
 21
21.4579
  0
LINE
  8
0
 10
557.631
 20
21.4579
 11
557.725
 21
21.541
  0
LINE
  8
0
 10
557.725
 20
21.541
 11
557.824
 21
21.618
  0
LINE
  8
0
 10
557.824
 20
21.618
 11
557.928
 21
21.6886
  0
LINE
  8
0
 10
557.928
 20
21.6886
 11
558.036
 21
21.7526
  0
LINE
  8
0
 10
558.036
 20
21.7526
 11
558.148
 21
21.8096
  0
LINE
  8
0
 10
558.148
 20
21.8096
 11
558.264
 21
21.8595
  0
LINE
  8
0
 10
558.264
 20
21.8595
 11
558.382
 21
21.9021
  0
LINE
  8
0
 10
558.382
 20
21.9021
 11
558.503
 21
21.9372
  0
LINE
  8
0
 10
558.503
 20
21.9372
 11
558.625
 21
21.9646
  0
LINE
  8
0
 10
558.625
 20
21.9646
 11
558.749
 21
21.9842
  0
LINE
  8
0
 10
558.749
 20
21.9842
 11
558.874
 21
21.996
  0
LINE
  8
0
 10
558.874
 20
21.996
 11
559
 21
22
  0
LINE
  8
0
 10
559
 20
22
 11
559.126
 21
21.996
  0
LINE
  8
0
 10
559.126
 20
21.996
 11
559.251
 21
21.9842
  0
LINE
  8
0
 10
559.251
 20
21.9842
 11
559.375
 21
21.9646
  0
LINE
  8
0
 10
559.375
 20
21.9646
 11
559.497
 21
21.9372
  0
LINE
  8
0
 10
559.497
 20
21.9372
 11
559.618
 21
21.9021
  0
LINE
  8
0
 10
559.618
 20
21.9021
 11
559.736
 21
21.8595
  0
LINE
  8
0
 10
559.736
 20
21.8595
 11
559.852
 21
21.8096
  0
LINE
  8
0
 10
559.852
 20
21.8096
 11
559.964
 21
21.7526
  0
LINE
  8
0
 10
559.964
 20
21.7526
 11
560.072
 21
21.6886
  0
LINE
  8
0
 10
560.072
 20
21.6886
 11
560.176
 21
21.618
  0
LINE
  8
0
 10
560.176
 20
21.618
 11
560.275
 21
21.541
  0
LINE
  8
0
 10
560.275
 20
21.541
 11
560.369
 21
21.4579
  0
LINE
  8
0
 10
560.369
 20
21.4579
 11
560.458
 21
21.3691
  0
LINE
  8
0
 10
560.458
 20
21.3691
 11
560.541
 21
21.2748
  0
LINE
  8
0
 10
560.541
 20
21.2748
 11
560.618
 21
21.1756
  0
LINE
  8
0
 10
560.618
 20
21.1756
 11
560.689
 21
21.0717
  0
LINE
  8
0
 10
560.689
 20
21.0717
 11
560.753
 21
20.9635
  0
LINE
  8
0
 10
560.753
 20
20.9635
 11
560.81
 21
20.8515
  0
LINE
  8
0
 10
560.81
 20
20.8515
 11
560.86
 21
20.7362
  0
LINE
  8
0
 10
560.86
 20
20.7362
 11
560.902
 21
20.618
  0
LINE
  8
0
 10
560.902
 20
20.618
 11
560.937
 21
20.4974
  0
LINE
  8
0
 10
560.937
 20
20.4974
 11
560.965
 21
20.3748
  0
LINE
  8
0
 10
560.965
 20
20.3748
 11
560.984
 21
20.2507
  0
LINE
  8
0
 10
560.984
 20
20.2507
 11
560.996
 21
20.1256
  0
LINE
  8
0
 10
560.996
 20
20.1256
 11
561
 21
20
  0
LINE
  8
0
 10
561
 20
20
 11
560.996
 21
19.8744
  0
LINE
  8
0
 10
560.996
 20
19.8744
 11
560.984
 21
19.7493
  0
LINE
  8
0
 10
560.984
 20
19.7493
 11
560.965
 21
19.6252
  0
LINE
  8
0
 10
560.965
 20
19.6252
 11
560.937
 21
19.5026
  0
LINE
  8
0
 10
560.937
 20
19.5026
 11
560.902
 21
19.382
  0
LINE
  8
0
 10
560.902
 20
19.382
 11
560.86
 21
19.2637
  0
LINE
  8
0
 10
560.86
 20
19.2637
 11
560.81
 21
19.1484
  0
LINE
  8
0
 10
560.81
 20
19.1484
 11
560.753
 21
19.0365
  0
LINE
  8
0
 10
560.753
 20
19.0365
 11
560.689
 21
18.9283
  0
LINE
  8
0
 10
560.689
 20
18.9283
 11
560.618
 21
18.8244
  0
LINE
  8
0
 10
560.618
 20
18.8244
 11
560.541
 21
18.7251
  0
LINE
  8
0
 10
560.541
 20
18.7251
 11
560.458
 21
18.6309
  0
LINE
  8
0
 10
560.458
 20
18.6309
 11
560.369
 21
18.5421
  0
LINE
  8
0
 10
560.369
 20
18.5421
 11
560.275
 21
18.459
  0
LINE
  8
0
 10
560.275
 20
18.459
 11
560.176
 21
18.382
  0
LINE
  8
0
 10
560.176
 20
18.382
 11
560.072
 21
18.3113
  0
LINE
  8
0
 10
560.072
 20
18.3113
 11
559.964
 21
18.2474
  0
LINE
  8
0
 10
559.964
 20
18.2474
 11
559.852
 21
18.1903
  0
LINE
  8
0
 10
559.852
 20
18.1903
 11
559.736
 21
18.1404
  0
LINE
  8
0
 10
559.736
 20
18.1404
 11
559.618
 21
18.0979
  0
LINE
  8
0
 10
559.618
 20
18.0979
 11
559.497
 21
18.0628
  0
LINE
  8
0
 10
559.497
 20
18.0628
 11
559.375
 21
18.0354
  0
LINE
  8
0
 10
559.375
 20
18.0354
 11
559.251
 21
18.0158
  0
LINE
  8
0
 10
559.251
 20
18.0158
 11
559.126
 21
18.0039
  0
LINE
  8
0
 10
559.126
 20
18.0039
 11
559
 21
18
  0
LINE
  8
0
 10
559
 20
18
 11
558.874
 21
18.0039
  0
ENDSEC
  0
SECTION
  2
OBJECTS
  0
DICTIONARY
  0
ENDSEC
  0
EOF
