  0
SECTION
  2
BLOCKS
  0
ENDSEC
  0
SECTION
  2
ENTITIES
  0
LINE
  8
0
 10
250
 20
435
 11
0
 21
435
  0
LINE
  8
0
 10
0
 20
435
 11
0
 21
375
  0
LINE
  8
0
 10
0
 20
375
 11
250
 21
375
  0
LINE
  8
0
 10
250
 20
375
 11
250
 21
435
  0
LINE
  8
0
 10
234.906
 20
393.503
 11
234.812
 21
393.512
  0
LINE
  8
0
 10
234.812
 20
393.512
 11
234.719
 21
393.527
  0
LINE
  8
0
 10
234.719
 20
393.527
 11
234.627
 21
393.547
  0
LINE
  8
0
 10
234.627
 20
393.547
 11
234.536
 21
393.573
  0
LINE
  8
0
 10
234.536
 20
393.573
 11
234.448
 21
393.605
  0
LINE
  8
0
 10
234.448
 20
393.605
 11
234.361
 21
393.643
  0
LINE
  8
0
 10
234.361
 20
393.643
 11
234.277
 21
393.686
  0
LINE
  8
0
 10
234.277
 20
393.686
 11
234.196
 21
393.734
  0
LINE
  8
0
 10
234.196
 20
393.734
 11
234.118
 21
393.786
  0
LINE
  8
0
 10
234.118
 20
393.786
 11
234.044
 21
393.844
  0
LINE
  8
0
 10
234.044
 20
393.844
 11
233.973
 21
393.907
  0
LINE
  8
0
 10
233.973
 20
393.907
 11
233.907
 21
393.973
  0
LINE
  8
0
 10
233.907
 20
393.973
 11
233.844
 21
394.044
  0
LINE
  8
0
 10
233.844
 20
394.044
 11
233.786
 21
394.118
  0
LINE
  8
0
 10
233.786
 20
394.118
 11
233.734
 21
394.196
  0
LINE
  8
0
 10
233.734
 20
394.196
 11
233.686
 21
394.277
  0
LINE
  8
0
 10
233.686
 20
394.277
 11
233.643
 21
394.361
  0
LINE
  8
0
 10
233.643
 20
394.361
 11
233.605
 21
394.448
  0
LINE
  8
0
 10
233.605
 20
394.448
 11
233.573
 21
394.536
  0
LINE
  8
0
 10
233.573
 20
394.536
 11
233.547
 21
394.627
  0
LINE
  8
0
 10
233.547
 20
394.627
 11
233.527
 21
394.719
  0
LINE
  8
0
 10
233.527
 20
394.719
 11
233.512
 21
394.812
  0
LINE
  8
0
 10
233.512
 20
394.812
 11
233.503
 21
394.906
  0
LINE
  8
0
 10
233.503
 20
394.906
 11
233.5
 21
395
  0
LINE
  8
0
 10
233.5
 20
395
 11
233.503
 21
395.094
  0
LINE
  8
0
 10
233.503
 20
395.094
 11
233.512
 21
395.188
  0
LINE
  8
0
 10
233.512
 20
395.188
 11
233.527
 21
395.281
  0
LINE
  8
0
 10
233.527
 20
395.281
 11
233.547
 21
395.373
  0
LINE
  8
0
 10
233.547
 20
395.373
 11
233.573
 21
395.464
  0
LINE
  8
0
 10
233.573
 20
395.464
 11
233.605
 21
395.552
  0
LINE
  8
0
 10
233.605
 20
395.552
 11
233.643
 21
395.639
  0
LINE
  8
0
 10
233.643
 20
395.639
 11
233.686
 21
395.723
  0
LINE
  8
0
 10
233.686
 20
395.723
 11
233.734
 21
395.804
  0
LINE
  8
0
 10
233.734
 20
395.804
 11
233.786
 21
395.882
  0
LINE
  8
0
 10
233.786
 20
395.882
 11
233.844
 21
395.956
  0
LINE
  8
0
 10
233.844
 20
395.956
 11
233.907
 21
396.027
  0
LINE
  8
0
 10
233.907
 20
396.027
 11
233.973
 21
396.093
  0
LINE
  8
0
 10
233.973
 20
396.093
 11
234.044
 21
396.156
  0
LINE
  8
0
 10
234.044
 20
396.156
 11
234.118
 21
396.214
  0
LINE
  8
0
 10
234.118
 20
396.214
 11
234.196
 21
396.266
  0
LINE
  8
0
 10
234.196
 20
396.266
 11
234.277
 21
396.314
  0
LINE
  8
0
 10
234.277
 20
396.314
 11
234.361
 21
396.357
  0
LINE
  8
0
 10
234.361
 20
396.357
 11
234.448
 21
396.395
  0
LINE
  8
0
 10
234.448
 20
396.395
 11
234.536
 21
396.427
  0
LINE
  8
0
 10
234.536
 20
396.427
 11
234.627
 21
396.453
  0
LINE
  8
0
 10
234.627
 20
396.453
 11
234.719
 21
396.473
  0
LINE
  8
0
 10
234.719
 20
396.473
 11
234.812
 21
396.488
  0
LINE
  8
0
 10
234.812
 20
396.488
 11
234.906
 21
396.497
  0
LINE
  8
0
 10
234.906
 20
396.497
 11
235
 21
396.5
  0
LINE
  8
0
 10
235
 20
396.5
 11
235.094
 21
396.497
  0
LINE
  8
0
 10
235.094
 20
396.497
 11
235.188
 21
396.488
  0
LINE
  8
0
 10
235.188
 20
396.488
 11
235.281
 21
396.473
  0
LINE
  8
0
 10
235.281
 20
396.473
 11
235.373
 21
396.453
  0
LINE
  8
0
 10
235.373
 20
396.453
 11
235.464
 21
396.427
  0
LINE
  8
0
 10
235.464
 20
396.427
 11
235.552
 21
396.395
  0
LINE
  8
0
 10
235.552
 20
396.395
 11
235.639
 21
396.357
  0
LINE
  8
0
 10
235.639
 20
396.357
 11
235.723
 21
396.314
  0
LINE
  8
0
 10
235.723
 20
396.314
 11
235.804
 21
396.266
  0
LINE
  8
0
 10
235.804
 20
396.266
 11
235.882
 21
396.214
  0
LINE
  8
0
 10
235.882
 20
396.214
 11
235.956
 21
396.156
  0
LINE
  8
0
 10
235.956
 20
396.156
 11
236.027
 21
396.093
  0
LINE
  8
0
 10
236.027
 20
396.093
 11
236.093
 21
396.027
  0
LINE
  8
0
 10
236.093
 20
396.027
 11
236.156
 21
395.956
  0
LINE
  8
0
 10
236.156
 20
395.956
 11
236.214
 21
395.882
  0
LINE
  8
0
 10
236.214
 20
395.882
 11
236.266
 21
395.804
  0
LINE
  8
0
 10
236.266
 20
395.804
 11
236.314
 21
395.723
  0
LINE
  8
0
 10
236.314
 20
395.723
 11
236.357
 21
395.639
  0
LINE
  8
0
 10
236.357
 20
395.639
 11
236.395
 21
395.552
  0
LINE
  8
0
 10
236.395
 20
395.552
 11
236.427
 21
395.464
  0
LINE
  8
0
 10
236.427
 20
395.464
 11
236.453
 21
395.373
  0
LINE
  8
0
 10
236.453
 20
395.373
 11
236.473
 21
395.281
  0
LINE
  8
0
 10
236.473
 20
395.281
 11
236.488
 21
395.188
  0
LINE
  8
0
 10
236.488
 20
395.188
 11
236.497
 21
395.094
  0
LINE
  8
0
 10
236.497
 20
395.094
 11
236.5
 21
395
  0
LINE
  8
0
 10
236.5
 20
395
 11
236.497
 21
394.906
  0
LINE
  8
0
 10
236.497
 20
394.906
 11
236.488
 21
394.812
  0
LINE
  8
0
 10
236.488
 20
394.812
 11
236.473
 21
394.719
  0
LINE
  8
0
 10
236.473
 20
394.719
 11
236.453
 21
394.627
  0
LINE
  8
0
 10
236.453
 20
394.627
 11
236.427
 21
394.536
  0
LINE
  8
0
 10
236.427
 20
394.536
 11
236.395
 21
394.448
  0
LINE
  8
0
 10
236.395
 20
394.448
 11
236.357
 21
394.361
  0
LINE
  8
0
 10
236.357
 20
394.361
 11
236.314
 21
394.277
  0
LINE
  8
0
 10
236.314
 20
394.277
 11
236.266
 21
394.196
  0
LINE
  8
0
 10
236.266
 20
394.196
 11
236.214
 21
394.118
  0
LINE
  8
0
 10
236.214
 20
394.118
 11
236.156
 21
394.044
  0
LINE
  8
0
 10
236.156
 20
394.044
 11
236.093
 21
393.973
  0
LINE
  8
0
 10
236.093
 20
393.973
 11
236.027
 21
393.907
  0
LINE
  8
0
 10
236.027
 20
393.907
 11
235.956
 21
393.844
  0
LINE
  8
0
 10
235.956
 20
393.844
 11
235.882
 21
393.786
  0
LINE
  8
0
 10
235.882
 20
393.786
 11
235.804
 21
393.734
  0
LINE
  8
0
 10
235.804
 20
393.734
 11
235.723
 21
393.686
  0
LINE
  8
0
 10
235.723
 20
393.686
 11
235.639
 21
393.643
  0
LINE
  8
0
 10
235.639
 20
393.643
 11
235.552
 21
393.605
  0
LINE
  8
0
 10
235.552
 20
393.605
 11
235.464
 21
393.573
  0
LINE
  8
0
 10
235.464
 20
393.573
 11
235.373
 21
393.547
  0
LINE
  8
0
 10
235.373
 20
393.547
 11
235.281
 21
393.527
  0
LINE
  8
0
 10
235.281
 20
393.527
 11
235.188
 21
393.512
  0
LINE
  8
0
 10
235.188
 20
393.512
 11
235.094
 21
393.503
  0
LINE
  8
0
 10
235.094
 20
393.503
 11
235
 21
393.5
  0
LINE
  8
0
 10
235
 20
393.5
 11
234.906
 21
393.503
  0
LINE
  8
0
 10
14.9058
 20
393.503
 11
14.812
 21
393.512
  0
LINE
  8
0
 10
14.812
 20
393.512
 11
14.7189
 21
393.527
  0
LINE
  8
0
 10
14.7189
 20
393.527
 11
14.627
 21
393.547
  0
LINE
  8
0
 10
14.627
 20
393.547
 11
14.5365
 21
393.573
  0
LINE
  8
0
 10
14.5365
 20
393.573
 11
14.4478
 21
393.605
  0
LINE
  8
0
 10
14.4478
 20
393.605
 11
14.3613
 21
393.643
  0
LINE
  8
0
 10
14.3613
 20
393.643
 11
14.2774
 21
393.686
  0
LINE
  8
0
 10
14.2774
 20
393.686
 11
14.1963
 21
393.734
  0
LINE
  8
0
 10
14.1963
 20
393.734
 11
14.1183
 21
393.786
  0
LINE
  8
0
 10
14.1183
 20
393.786
 11
14.0439
 21
393.844
  0
LINE
  8
0
 10
14.0439
 20
393.844
 11
13.9732
 21
393.907
  0
LINE
  8
0
 10
13.9732
 20
393.907
 11
13.9065
 21
393.973
  0
LINE
  8
0
 10
13.9065
 20
393.973
 11
13.8442
 21
394.044
  0
LINE
  8
0
 10
13.8442
 20
394.044
 11
13.7865
 21
394.118
  0
LINE
  8
0
 10
13.7865
 20
394.118
 11
13.7335
 21
394.196
  0
LINE
  8
0
 10
13.7335
 20
394.196
 11
13.6855
 21
394.277
  0
LINE
  8
0
 10
13.6855
 20
394.277
 11
13.6427
 21
394.361
  0
LINE
  8
0
 10
13.6427
 20
394.361
 11
13.6053
 21
394.448
  0
LINE
  8
0
 10
13.6053
 20
394.448
 11
13.5734
 21
394.536
  0
LINE
  8
0
 10
13.5734
 20
394.536
 11
13.5471
 21
394.627
  0
LINE
  8
0
 10
13.5471
 20
394.627
 11
13.5266
 21
394.719
  0
LINE
  8
0
 10
13.5266
 20
394.719
 11
13.5118
 21
394.812
  0
LINE
  8
0
 10
13.5118
 20
394.812
 11
13.503
 21
394.906
  0
LINE
  8
0
 10
13.503
 20
394.906
 11
13.5
 21
395
  0
LINE
  8
0
 10
13.5
 20
395
 11
13.503
 21
395.094
  0
LINE
  8
0
 10
13.503
 20
395.094
 11
13.5118
 21
395.188
  0
LINE
  8
0
 10
13.5118
 20
395.188
 11
13.5266
 21
395.281
  0
LINE
  8
0
 10
13.5266
 20
395.281
 11
13.5471
 21
395.373
  0
LINE
  8
0
 10
13.5471
 20
395.373
 11
13.5734
 21
395.464
  0
LINE
  8
0
 10
13.5734
 20
395.464
 11
13.6053
 21
395.552
  0
LINE
  8
0
 10
13.6053
 20
395.552
 11
13.6427
 21
395.639
  0
LINE
  8
0
 10
13.6427
 20
395.639
 11
13.6855
 21
395.723
  0
LINE
  8
0
 10
13.6855
 20
395.723
 11
13.7335
 21
395.804
  0
LINE
  8
0
 10
13.7335
 20
395.804
 11
13.7865
 21
395.882
  0
LINE
  8
0
 10
13.7865
 20
395.882
 11
13.8442
 21
395.956
  0
LINE
  8
0
 10
13.8442
 20
395.956
 11
13.9065
 21
396.027
  0
LINE
  8
0
 10
13.9065
 20
396.027
 11
13.9732
 21
396.093
  0
LINE
  8
0
 10
13.9732
 20
396.093
 11
14.0439
 21
396.156
  0
LINE
  8
0
 10
14.0439
 20
396.156
 11
14.1183
 21
396.214
  0
LINE
  8
0
 10
14.1183
 20
396.214
 11
14.1963
 21
396.266
  0
LINE
  8
0
 10
14.1963
 20
396.266
 11
14.2774
 21
396.314
  0
LINE
  8
0
 10
14.2774
 20
396.314
 11
14.3613
 21
396.357
  0
LINE
  8
0
 10
14.3613
 20
396.357
 11
14.4478
 21
396.395
  0
LINE
  8
0
 10
14.4478
 20
396.395
 11
14.5365
 21
396.427
  0
LINE
  8
0
 10
14.5365
 20
396.427
 11
14.627
 21
396.453
  0
LINE
  8
0
 10
14.627
 20
396.453
 11
14.7189
 21
396.473
  0
LINE
  8
0
 10
14.7189
 20
396.473
 11
14.812
 21
396.488
  0
LINE
  8
0
 10
14.812
 20
396.488
 11
14.9058
 21
396.497
  0
LINE
  8
0
 10
14.9058
 20
396.497
 11
15
 21
396.5
  0
LINE
  8
0
 10
15
 20
396.5
 11
15.0942
 21
396.497
  0
LINE
  8
0
 10
15.0942
 20
396.497
 11
15.188
 21
396.488
  0
LINE
  8
0
 10
15.188
 20
396.488
 11
15.2811
 21
396.473
  0
LINE
  8
0
 10
15.2811
 20
396.473
 11
15.373
 21
396.453
  0
LINE
  8
0
 10
15.373
 20
396.453
 11
15.4635
 21
396.427
  0
LINE
  8
0
 10
15.4635
 20
396.427
 11
15.5522
 21
396.395
  0
LINE
  8
0
 10
15.5522
 20
396.395
 11
15.6387
 21
396.357
  0
LINE
  8
0
 10
15.6387
 20
396.357
 11
15.7226
 21
396.314
  0
LINE
  8
0
 10
15.7226
 20
396.314
 11
15.8037
 21
396.266
  0
LINE
  8
0
 10
15.8037
 20
396.266
 11
15.8817
 21
396.214
  0
LINE
  8
0
 10
15.8817
 20
396.214
 11
15.9561
 21
396.156
  0
LINE
  8
0
 10
15.9561
 20
396.156
 11
16.0268
 21
396.093
  0
LINE
  8
0
 10
16.0268
 20
396.093
 11
16.0934
 21
396.027
  0
LINE
  8
0
 10
16.0934
 20
396.027
 11
16.1558
 21
395.956
  0
LINE
  8
0
 10
16.1558
 20
395.956
 11
16.2135
 21
395.882
  0
LINE
  8
0
 10
16.2135
 20
395.882
 11
16.2665
 21
395.804
  0
LINE
  8
0
 10
16.2665
 20
395.804
 11
16.3145
 21
395.723
  0
LINE
  8
0
 10
16.3145
 20
395.723
 11
16.3572
 21
395.639
  0
LINE
  8
0
 10
16.3572
 20
395.639
 11
16.3947
 21
395.552
  0
LINE
  8
0
 10
16.3947
 20
395.552
 11
16.4266
 21
395.464
  0
LINE
  8
0
 10
16.4266
 20
395.464
 11
16.4529
 21
395.373
  0
LINE
  8
0
 10
16.4529
 20
395.373
 11
16.4734
 21
395.281
  0
LINE
  8
0
 10
16.4734
 20
395.281
 11
16.4882
 21
395.188
  0
LINE
  8
0
 10
16.4882
 20
395.188
 11
16.497
 21
395.094
  0
LINE
  8
0
 10
16.497
 20
395.094
 11
16.5
 21
395
  0
LINE
  8
0
 10
16.5
 20
395
 11
16.497
 21
394.906
  0
LINE
  8
0
 10
16.497
 20
394.906
 11
16.4882
 21
394.812
  0
LINE
  8
0
 10
16.4882
 20
394.812
 11
16.4734
 21
394.719
  0
LINE
  8
0
 10
16.4734
 20
394.719
 11
16.4529
 21
394.627
  0
LINE
  8
0
 10
16.4529
 20
394.627
 11
16.4266
 21
394.536
  0
LINE
  8
0
 10
16.4266
 20
394.536
 11
16.3947
 21
394.448
  0
LINE
  8
0
 10
16.3947
 20
394.448
 11
16.3572
 21
394.361
  0
LINE
  8
0
 10
16.3572
 20
394.361
 11
16.3145
 21
394.277
  0
LINE
  8
0
 10
16.3145
 20
394.277
 11
16.2665
 21
394.196
  0
LINE
  8
0
 10
16.2665
 20
394.196
 11
16.2135
 21
394.118
  0
LINE
  8
0
 10
16.2135
 20
394.118
 11
16.1558
 21
394.044
  0
LINE
  8
0
 10
16.1558
 20
394.044
 11
16.0934
 21
393.973
  0
LINE
  8
0
 10
16.0934
 20
393.973
 11
16.0268
 21
393.907
  0
LINE
  8
0
 10
16.0268
 20
393.907
 11
15.9561
 21
393.844
  0
LINE
  8
0
 10
15.9561
 20
393.844
 11
15.8817
 21
393.786
  0
LINE
  8
0
 10
15.8817
 20
393.786
 11
15.8037
 21
393.734
  0
LINE
  8
0
 10
15.8037
 20
393.734
 11
15.7226
 21
393.686
  0
LINE
  8
0
 10
15.7226
 20
393.686
 11
15.6387
 21
393.643
  0
LINE
  8
0
 10
15.6387
 20
393.643
 11
15.5522
 21
393.605
  0
LINE
  8
0
 10
15.5522
 20
393.605
 11
15.4635
 21
393.573
  0
LINE
  8
0
 10
15.4635
 20
393.573
 11
15.373
 21
393.547
  0
LINE
  8
0
 10
15.373
 20
393.547
 11
15.2811
 21
393.527
  0
LINE
  8
0
 10
15.2811
 20
393.527
 11
15.188
 21
393.512
  0
LINE
  8
0
 10
15.188
 20
393.512
 11
15.0942
 21
393.503
  0
LINE
  8
0
 10
15.0942
 20
393.503
 11
15
 21
393.5
  0
LINE
  8
0
 10
15
 20
393.5
 11
14.9058
 21
393.503
  0
LINE
  8
0
 10
234.906
 20
383.503
 11
234.812
 21
383.512
  0
LINE
  8
0
 10
234.812
 20
383.512
 11
234.719
 21
383.527
  0
LINE
  8
0
 10
234.719
 20
383.527
 11
234.627
 21
383.547
  0
LINE
  8
0
 10
234.627
 20
383.547
 11
234.536
 21
383.573
  0
LINE
  8
0
 10
234.536
 20
383.573
 11
234.448
 21
383.605
  0
LINE
  8
0
 10
234.448
 20
383.605
 11
234.361
 21
383.643
  0
LINE
  8
0
 10
234.361
 20
383.643
 11
234.277
 21
383.686
  0
LINE
  8
0
 10
234.277
 20
383.686
 11
234.196
 21
383.734
  0
LINE
  8
0
 10
234.196
 20
383.734
 11
234.118
 21
383.786
  0
LINE
  8
0
 10
234.118
 20
383.786
 11
234.044
 21
383.844
  0
LINE
  8
0
 10
234.044
 20
383.844
 11
233.973
 21
383.907
  0
LINE
  8
0
 10
233.973
 20
383.907
 11
233.907
 21
383.973
  0
LINE
  8
0
 10
233.907
 20
383.973
 11
233.844
 21
384.044
  0
LINE
  8
0
 10
233.844
 20
384.044
 11
233.786
 21
384.118
  0
LINE
  8
0
 10
233.786
 20
384.118
 11
233.734
 21
384.196
  0
LINE
  8
0
 10
233.734
 20
384.196
 11
233.686
 21
384.277
  0
LINE
  8
0
 10
233.686
 20
384.277
 11
233.643
 21
384.361
  0
LINE
  8
0
 10
233.643
 20
384.361
 11
233.605
 21
384.448
  0
LINE
  8
0
 10
233.605
 20
384.448
 11
233.573
 21
384.536
  0
LINE
  8
0
 10
233.573
 20
384.536
 11
233.547
 21
384.627
  0
LINE
  8
0
 10
233.547
 20
384.627
 11
233.527
 21
384.719
  0
LINE
  8
0
 10
233.527
 20
384.719
 11
233.512
 21
384.812
  0
LINE
  8
0
 10
233.512
 20
384.812
 11
233.503
 21
384.906
  0
LINE
  8
0
 10
233.503
 20
384.906
 11
233.5
 21
385
  0
LINE
  8
0
 10
233.5
 20
385
 11
233.503
 21
385.094
  0
LINE
  8
0
 10
233.503
 20
385.094
 11
233.512
 21
385.188
  0
LINE
  8
0
 10
233.512
 20
385.188
 11
233.527
 21
385.281
  0
LINE
  8
0
 10
233.527
 20
385.281
 11
233.547
 21
385.373
  0
LINE
  8
0
 10
233.547
 20
385.373
 11
233.573
 21
385.464
  0
LINE
  8
0
 10
233.573
 20
385.464
 11
233.605
 21
385.552
  0
LINE
  8
0
 10
233.605
 20
385.552
 11
233.643
 21
385.639
  0
LINE
  8
0
 10
233.643
 20
385.639
 11
233.686
 21
385.723
  0
LINE
  8
0
 10
233.686
 20
385.723
 11
233.734
 21
385.804
  0
LINE
  8
0
 10
233.734
 20
385.804
 11
233.786
 21
385.882
  0
LINE
  8
0
 10
233.786
 20
385.882
 11
233.844
 21
385.956
  0
LINE
  8
0
 10
233.844
 20
385.956
 11
233.907
 21
386.027
  0
LINE
  8
0
 10
233.907
 20
386.027
 11
233.973
 21
386.093
  0
LINE
  8
0
 10
233.973
 20
386.093
 11
234.044
 21
386.156
  0
LINE
  8
0
 10
234.044
 20
386.156
 11
234.118
 21
386.214
  0
LINE
  8
0
 10
234.118
 20
386.214
 11
234.196
 21
386.266
  0
LINE
  8
0
 10
234.196
 20
386.266
 11
234.277
 21
386.314
  0
LINE
  8
0
 10
234.277
 20
386.314
 11
234.361
 21
386.357
  0
LINE
  8
0
 10
234.361
 20
386.357
 11
234.448
 21
386.395
  0
LINE
  8
0
 10
234.448
 20
386.395
 11
234.536
 21
386.427
  0
LINE
  8
0
 10
234.536
 20
386.427
 11
234.627
 21
386.453
  0
LINE
  8
0
 10
234.627
 20
386.453
 11
234.719
 21
386.473
  0
LINE
  8
0
 10
234.719
 20
386.473
 11
234.812
 21
386.488
  0
LINE
  8
0
 10
234.812
 20
386.488
 11
234.906
 21
386.497
  0
LINE
  8
0
 10
234.906
 20
386.497
 11
235
 21
386.5
  0
LINE
  8
0
 10
235
 20
386.5
 11
235.094
 21
386.497
  0
LINE
  8
0
 10
235.094
 20
386.497
 11
235.188
 21
386.488
  0
LINE
  8
0
 10
235.188
 20
386.488
 11
235.281
 21
386.473
  0
LINE
  8
0
 10
235.281
 20
386.473
 11
235.373
 21
386.453
  0
LINE
  8
0
 10
235.373
 20
386.453
 11
235.464
 21
386.427
  0
LINE
  8
0
 10
235.464
 20
386.427
 11
235.552
 21
386.395
  0
LINE
  8
0
 10
235.552
 20
386.395
 11
235.639
 21
386.357
  0
LINE
  8
0
 10
235.639
 20
386.357
 11
235.723
 21
386.314
  0
LINE
  8
0
 10
235.723
 20
386.314
 11
235.804
 21
386.266
  0
LINE
  8
0
 10
235.804
 20
386.266
 11
235.882
 21
386.214
  0
LINE
  8
0
 10
235.882
 20
386.214
 11
235.956
 21
386.156
  0
LINE
  8
0
 10
235.956
 20
386.156
 11
236.027
 21
386.093
  0
LINE
  8
0
 10
236.027
 20
386.093
 11
236.093
 21
386.027
  0
LINE
  8
0
 10
236.093
 20
386.027
 11
236.156
 21
385.956
  0
LINE
  8
0
 10
236.156
 20
385.956
 11
236.214
 21
385.882
  0
LINE
  8
0
 10
236.214
 20
385.882
 11
236.266
 21
385.804
  0
LINE
  8
0
 10
236.266
 20
385.804
 11
236.314
 21
385.723
  0
LINE
  8
0
 10
236.314
 20
385.723
 11
236.357
 21
385.639
  0
LINE
  8
0
 10
236.357
 20
385.639
 11
236.395
 21
385.552
  0
LINE
  8
0
 10
236.395
 20
385.552
 11
236.427
 21
385.464
  0
LINE
  8
0
 10
236.427
 20
385.464
 11
236.453
 21
385.373
  0
LINE
  8
0
 10
236.453
 20
385.373
 11
236.473
 21
385.281
  0
LINE
  8
0
 10
236.473
 20
385.281
 11
236.488
 21
385.188
  0
LINE
  8
0
 10
236.488
 20
385.188
 11
236.497
 21
385.094
  0
LINE
  8
0
 10
236.497
 20
385.094
 11
236.5
 21
385
  0
LINE
  8
0
 10
236.5
 20
385
 11
236.497
 21
384.906
  0
LINE
  8
0
 10
236.497
 20
384.906
 11
236.488
 21
384.812
  0
LINE
  8
0
 10
236.488
 20
384.812
 11
236.473
 21
384.719
  0
LINE
  8
0
 10
236.473
 20
384.719
 11
236.453
 21
384.627
  0
LINE
  8
0
 10
236.453
 20
384.627
 11
236.427
 21
384.536
  0
LINE
  8
0
 10
236.427
 20
384.536
 11
236.395
 21
384.448
  0
LINE
  8
0
 10
236.395
 20
384.448
 11
236.357
 21
384.361
  0
LINE
  8
0
 10
236.357
 20
384.361
 11
236.314
 21
384.277
  0
LINE
  8
0
 10
236.314
 20
384.277
 11
236.266
 21
384.196
  0
LINE
  8
0
 10
236.266
 20
384.196
 11
236.214
 21
384.118
  0
LINE
  8
0
 10
236.214
 20
384.118
 11
236.156
 21
384.044
  0
LINE
  8
0
 10
236.156
 20
384.044
 11
236.093
 21
383.973
  0
LINE
  8
0
 10
236.093
 20
383.973
 11
236.027
 21
383.907
  0
LINE
  8
0
 10
236.027
 20
383.907
 11
235.956
 21
383.844
  0
LINE
  8
0
 10
235.956
 20
383.844
 11
235.882
 21
383.786
  0
LINE
  8
0
 10
235.882
 20
383.786
 11
235.804
 21
383.734
  0
LINE
  8
0
 10
235.804
 20
383.734
 11
235.723
 21
383.686
  0
LINE
  8
0
 10
235.723
 20
383.686
 11
235.639
 21
383.643
  0
LINE
  8
0
 10
235.639
 20
383.643
 11
235.552
 21
383.605
  0
LINE
  8
0
 10
235.552
 20
383.605
 11
235.464
 21
383.573
  0
LINE
  8
0
 10
235.464
 20
383.573
 11
235.373
 21
383.547
  0
LINE
  8
0
 10
235.373
 20
383.547
 11
235.281
 21
383.527
  0
LINE
  8
0
 10
235.281
 20
383.527
 11
235.188
 21
383.512
  0
LINE
  8
0
 10
235.188
 20
383.512
 11
235.094
 21
383.503
  0
LINE
  8
0
 10
235.094
 20
383.503
 11
235
 21
383.5
  0
LINE
  8
0
 10
235
 20
383.5
 11
234.906
 21
383.503
  0
LINE
  8
0
 10
14.9058
 20
383.503
 11
14.812
 21
383.512
  0
LINE
  8
0
 10
14.812
 20
383.512
 11
14.7189
 21
383.527
  0
LINE
  8
0
 10
14.7189
 20
383.527
 11
14.627
 21
383.547
  0
LINE
  8
0
 10
14.627
 20
383.547
 11
14.5365
 21
383.573
  0
LINE
  8
0
 10
14.5365
 20
383.573
 11
14.4478
 21
383.605
  0
LINE
  8
0
 10
14.4478
 20
383.605
 11
14.3613
 21
383.643
  0
LINE
  8
0
 10
14.3613
 20
383.643
 11
14.2774
 21
383.686
  0
LINE
  8
0
 10
14.2774
 20
383.686
 11
14.1963
 21
383.734
  0
LINE
  8
0
 10
14.1963
 20
383.734
 11
14.1183
 21
383.786
  0
LINE
  8
0
 10
14.1183
 20
383.786
 11
14.0439
 21
383.844
  0
LINE
  8
0
 10
14.0439
 20
383.844
 11
13.9732
 21
383.907
  0
LINE
  8
0
 10
13.9732
 20
383.907
 11
13.9065
 21
383.973
  0
LINE
  8
0
 10
13.9065
 20
383.973
 11
13.8442
 21
384.044
  0
LINE
  8
0
 10
13.8442
 20
384.044
 11
13.7865
 21
384.118
  0
LINE
  8
0
 10
13.7865
 20
384.118
 11
13.7335
 21
384.196
  0
LINE
  8
0
 10
13.7335
 20
384.196
 11
13.6855
 21
384.277
  0
LINE
  8
0
 10
13.6855
 20
384.277
 11
13.6427
 21
384.361
  0
LINE
  8
0
 10
13.6427
 20
384.361
 11
13.6053
 21
384.448
  0
LINE
  8
0
 10
13.6053
 20
384.448
 11
13.5734
 21
384.536
  0
LINE
  8
0
 10
13.5734
 20
384.536
 11
13.5471
 21
384.627
  0
LINE
  8
0
 10
13.5471
 20
384.627
 11
13.5266
 21
384.719
  0
LINE
  8
0
 10
13.5266
 20
384.719
 11
13.5118
 21
384.812
  0
LINE
  8
0
 10
13.5118
 20
384.812
 11
13.503
 21
384.906
  0
LINE
  8
0
 10
13.503
 20
384.906
 11
13.5
 21
385
  0
LINE
  8
0
 10
13.5
 20
385
 11
13.503
 21
385.094
  0
LINE
  8
0
 10
13.503
 20
385.094
 11
13.5118
 21
385.188
  0
LINE
  8
0
 10
13.5118
 20
385.188
 11
13.5266
 21
385.281
  0
LINE
  8
0
 10
13.5266
 20
385.281
 11
13.5471
 21
385.373
  0
LINE
  8
0
 10
13.5471
 20
385.373
 11
13.5734
 21
385.464
  0
LINE
  8
0
 10
13.5734
 20
385.464
 11
13.6053
 21
385.552
  0
LINE
  8
0
 10
13.6053
 20
385.552
 11
13.6427
 21
385.639
  0
LINE
  8
0
 10
13.6427
 20
385.639
 11
13.6855
 21
385.723
  0
LINE
  8
0
 10
13.6855
 20
385.723
 11
13.7335
 21
385.804
  0
LINE
  8
0
 10
13.7335
 20
385.804
 11
13.7865
 21
385.882
  0
LINE
  8
0
 10
13.7865
 20
385.882
 11
13.8442
 21
385.956
  0
LINE
  8
0
 10
13.8442
 20
385.956
 11
13.9065
 21
386.027
  0
LINE
  8
0
 10
13.9065
 20
386.027
 11
13.9732
 21
386.093
  0
LINE
  8
0
 10
13.9732
 20
386.093
 11
14.0439
 21
386.156
  0
LINE
  8
0
 10
14.0439
 20
386.156
 11
14.1183
 21
386.214
  0
LINE
  8
0
 10
14.1183
 20
386.214
 11
14.1963
 21
386.266
  0
LINE
  8
0
 10
14.1963
 20
386.266
 11
14.2774
 21
386.314
  0
LINE
  8
0
 10
14.2774
 20
386.314
 11
14.3613
 21
386.357
  0
LINE
  8
0
 10
14.3613
 20
386.357
 11
14.4478
 21
386.395
  0
LINE
  8
0
 10
14.4478
 20
386.395
 11
14.5365
 21
386.427
  0
LINE
  8
0
 10
14.5365
 20
386.427
 11
14.627
 21
386.453
  0
LINE
  8
0
 10
14.627
 20
386.453
 11
14.7189
 21
386.473
  0
LINE
  8
0
 10
14.7189
 20
386.473
 11
14.812
 21
386.488
  0
LINE
  8
0
 10
14.812
 20
386.488
 11
14.9058
 21
386.497
  0
LINE
  8
0
 10
14.9058
 20
386.497
 11
15
 21
386.5
  0
LINE
  8
0
 10
15
 20
386.5
 11
15.0942
 21
386.497
  0
LINE
  8
0
 10
15.0942
 20
386.497
 11
15.188
 21
386.488
  0
LINE
  8
0
 10
15.188
 20
386.488
 11
15.2811
 21
386.473
  0
LINE
  8
0
 10
15.2811
 20
386.473
 11
15.373
 21
386.453
  0
LINE
  8
0
 10
15.373
 20
386.453
 11
15.4635
 21
386.427
  0
LINE
  8
0
 10
15.4635
 20
386.427
 11
15.5522
 21
386.395
  0
LINE
  8
0
 10
15.5522
 20
386.395
 11
15.6387
 21
386.357
  0
LINE
  8
0
 10
15.6387
 20
386.357
 11
15.7226
 21
386.314
  0
LINE
  8
0
 10
15.7226
 20
386.314
 11
15.8037
 21
386.266
  0
LINE
  8
0
 10
15.8037
 20
386.266
 11
15.8817
 21
386.214
  0
LINE
  8
0
 10
15.8817
 20
386.214
 11
15.9561
 21
386.156
  0
LINE
  8
0
 10
15.9561
 20
386.156
 11
16.0268
 21
386.093
  0
LINE
  8
0
 10
16.0268
 20
386.093
 11
16.0934
 21
386.027
  0
LINE
  8
0
 10
16.0934
 20
386.027
 11
16.1558
 21
385.956
  0
LINE
  8
0
 10
16.1558
 20
385.956
 11
16.2135
 21
385.882
  0
LINE
  8
0
 10
16.2135
 20
385.882
 11
16.2665
 21
385.804
  0
LINE
  8
0
 10
16.2665
 20
385.804
 11
16.3145
 21
385.723
  0
LINE
  8
0
 10
16.3145
 20
385.723
 11
16.3572
 21
385.639
  0
LINE
  8
0
 10
16.3572
 20
385.639
 11
16.3947
 21
385.552
  0
LINE
  8
0
 10
16.3947
 20
385.552
 11
16.4266
 21
385.464
  0
LINE
  8
0
 10
16.4266
 20
385.464
 11
16.4529
 21
385.373
  0
LINE
  8
0
 10
16.4529
 20
385.373
 11
16.4734
 21
385.281
  0
LINE
  8
0
 10
16.4734
 20
385.281
 11
16.4882
 21
385.188
  0
LINE
  8
0
 10
16.4882
 20
385.188
 11
16.497
 21
385.094
  0
LINE
  8
0
 10
16.497
 20
385.094
 11
16.5
 21
385
  0
LINE
  8
0
 10
16.5
 20
385
 11
16.497
 21
384.906
  0
LINE
  8
0
 10
16.497
 20
384.906
 11
16.4882
 21
384.812
  0
LINE
  8
0
 10
16.4882
 20
384.812
 11
16.4734
 21
384.719
  0
LINE
  8
0
 10
16.4734
 20
384.719
 11
16.4529
 21
384.627
  0
LINE
  8
0
 10
16.4529
 20
384.627
 11
16.4266
 21
384.536
  0
LINE
  8
0
 10
16.4266
 20
384.536
 11
16.3947
 21
384.448
  0
LINE
  8
0
 10
16.3947
 20
384.448
 11
16.3572
 21
384.361
  0
LINE
  8
0
 10
16.3572
 20
384.361
 11
16.3145
 21
384.277
  0
LINE
  8
0
 10
16.3145
 20
384.277
 11
16.2665
 21
384.196
  0
LINE
  8
0
 10
16.2665
 20
384.196
 11
16.2135
 21
384.118
  0
LINE
  8
0
 10
16.2135
 20
384.118
 11
16.1558
 21
384.044
  0
LINE
  8
0
 10
16.1558
 20
384.044
 11
16.0934
 21
383.973
  0
LINE
  8
0
 10
16.0934
 20
383.973
 11
16.0268
 21
383.907
  0
LINE
  8
0
 10
16.0268
 20
383.907
 11
15.9561
 21
383.844
  0
LINE
  8
0
 10
15.9561
 20
383.844
 11
15.8817
 21
383.786
  0
LINE
  8
0
 10
15.8817
 20
383.786
 11
15.8037
 21
383.734
  0
LINE
  8
0
 10
15.8037
 20
383.734
 11
15.7226
 21
383.686
  0
LINE
  8
0
 10
15.7226
 20
383.686
 11
15.6387
 21
383.643
  0
LINE
  8
0
 10
15.6387
 20
383.643
 11
15.5522
 21
383.605
  0
LINE
  8
0
 10
15.5522
 20
383.605
 11
15.4635
 21
383.573
  0
LINE
  8
0
 10
15.4635
 20
383.573
 11
15.373
 21
383.547
  0
LINE
  8
0
 10
15.373
 20
383.547
 11
15.2811
 21
383.527
  0
LINE
  8
0
 10
15.2811
 20
383.527
 11
15.188
 21
383.512
  0
LINE
  8
0
 10
15.188
 20
383.512
 11
15.0942
 21
383.503
  0
LINE
  8
0
 10
15.0942
 20
383.503
 11
15
 21
383.5
  0
LINE
  8
0
 10
15
 20
383.5
 11
14.9058
 21
383.503
  0
LINE
  8
0
 10
100
 20
340
 11
150
 21
340
  0
LINE
  8
0
 10
150
 20
340
 11
150
 21
320
  0
LINE
  8
0
 10
150
 20
320
 11
250
 21
320
  0
LINE
  8
0
 10
250
 20
320
 11
250
 21
370
  0
LINE
  8
0
 10
250
 20
370
 11
0
 21
370
  0
LINE
  8
0
 10
0
 20
370
 11
0
 21
320
  0
LINE
  8
0
 10
0
 20
320
 11
100
 21
320
  0
LINE
  8
0
 10
100
 20
320
 11
100
 21
340
  0
LINE
  8
0
 10
234.906
 20
358.503
 11
234.812
 21
358.512
  0
LINE
  8
0
 10
234.812
 20
358.512
 11
234.719
 21
358.527
  0
LINE
  8
0
 10
234.719
 20
358.527
 11
234.627
 21
358.547
  0
LINE
  8
0
 10
234.627
 20
358.547
 11
234.536
 21
358.573
  0
LINE
  8
0
 10
234.536
 20
358.573
 11
234.448
 21
358.605
  0
LINE
  8
0
 10
234.448
 20
358.605
 11
234.361
 21
358.643
  0
LINE
  8
0
 10
234.361
 20
358.643
 11
234.277
 21
358.686
  0
LINE
  8
0
 10
234.277
 20
358.686
 11
234.196
 21
358.734
  0
LINE
  8
0
 10
234.196
 20
358.734
 11
234.118
 21
358.786
  0
LINE
  8
0
 10
234.118
 20
358.786
 11
234.044
 21
358.844
  0
LINE
  8
0
 10
234.044
 20
358.844
 11
233.973
 21
358.907
  0
LINE
  8
0
 10
233.973
 20
358.907
 11
233.907
 21
358.973
  0
LINE
  8
0
 10
233.907
 20
358.973
 11
233.844
 21
359.044
  0
LINE
  8
0
 10
233.844
 20
359.044
 11
233.786
 21
359.118
  0
LINE
  8
0
 10
233.786
 20
359.118
 11
233.734
 21
359.196
  0
LINE
  8
0
 10
233.734
 20
359.196
 11
233.686
 21
359.277
  0
LINE
  8
0
 10
233.686
 20
359.277
 11
233.643
 21
359.361
  0
LINE
  8
0
 10
233.643
 20
359.361
 11
233.605
 21
359.448
  0
LINE
  8
0
 10
233.605
 20
359.448
 11
233.573
 21
359.536
  0
LINE
  8
0
 10
233.573
 20
359.536
 11
233.547
 21
359.627
  0
LINE
  8
0
 10
233.547
 20
359.627
 11
233.527
 21
359.719
  0
LINE
  8
0
 10
233.527
 20
359.719
 11
233.512
 21
359.812
  0
LINE
  8
0
 10
233.512
 20
359.812
 11
233.503
 21
359.906
  0
LINE
  8
0
 10
233.503
 20
359.906
 11
233.5
 21
360
  0
LINE
  8
0
 10
233.5
 20
360
 11
233.503
 21
360.094
  0
LINE
  8
0
 10
233.503
 20
360.094
 11
233.512
 21
360.188
  0
LINE
  8
0
 10
233.512
 20
360.188
 11
233.527
 21
360.281
  0
LINE
  8
0
 10
233.527
 20
360.281
 11
233.547
 21
360.373
  0
LINE
  8
0
 10
233.547
 20
360.373
 11
233.573
 21
360.464
  0
LINE
  8
0
 10
233.573
 20
360.464
 11
233.605
 21
360.552
  0
LINE
  8
0
 10
233.605
 20
360.552
 11
233.643
 21
360.639
  0
LINE
  8
0
 10
233.643
 20
360.639
 11
233.686
 21
360.723
  0
LINE
  8
0
 10
233.686
 20
360.723
 11
233.734
 21
360.804
  0
LINE
  8
0
 10
233.734
 20
360.804
 11
233.786
 21
360.882
  0
LINE
  8
0
 10
233.786
 20
360.882
 11
233.844
 21
360.956
  0
LINE
  8
0
 10
233.844
 20
360.956
 11
233.907
 21
361.027
  0
LINE
  8
0
 10
233.907
 20
361.027
 11
233.973
 21
361.093
  0
LINE
  8
0
 10
233.973
 20
361.093
 11
234.044
 21
361.156
  0
LINE
  8
0
 10
234.044
 20
361.156
 11
234.118
 21
361.214
  0
LINE
  8
0
 10
234.118
 20
361.214
 11
234.196
 21
361.266
  0
LINE
  8
0
 10
234.196
 20
361.266
 11
234.277
 21
361.314
  0
LINE
  8
0
 10
234.277
 20
361.314
 11
234.361
 21
361.357
  0
LINE
  8
0
 10
234.361
 20
361.357
 11
234.448
 21
361.395
  0
LINE
  8
0
 10
234.448
 20
361.395
 11
234.536
 21
361.427
  0
LINE
  8
0
 10
234.536
 20
361.427
 11
234.627
 21
361.453
  0
LINE
  8
0
 10
234.627
 20
361.453
 11
234.719
 21
361.473
  0
LINE
  8
0
 10
234.719
 20
361.473
 11
234.812
 21
361.488
  0
LINE
  8
0
 10
234.812
 20
361.488
 11
234.906
 21
361.497
  0
LINE
  8
0
 10
234.906
 20
361.497
 11
235
 21
361.5
  0
LINE
  8
0
 10
235
 20
361.5
 11
235.094
 21
361.497
  0
LINE
  8
0
 10
235.094
 20
361.497
 11
235.188
 21
361.488
  0
LINE
  8
0
 10
235.188
 20
361.488
 11
235.281
 21
361.473
  0
LINE
  8
0
 10
235.281
 20
361.473
 11
235.373
 21
361.453
  0
LINE
  8
0
 10
235.373
 20
361.453
 11
235.464
 21
361.427
  0
LINE
  8
0
 10
235.464
 20
361.427
 11
235.552
 21
361.395
  0
LINE
  8
0
 10
235.552
 20
361.395
 11
235.639
 21
361.357
  0
LINE
  8
0
 10
235.639
 20
361.357
 11
235.723
 21
361.314
  0
LINE
  8
0
 10
235.723
 20
361.314
 11
235.804
 21
361.266
  0
LINE
  8
0
 10
235.804
 20
361.266
 11
235.882
 21
361.214
  0
LINE
  8
0
 10
235.882
 20
361.214
 11
235.956
 21
361.156
  0
LINE
  8
0
 10
235.956
 20
361.156
 11
236.027
 21
361.093
  0
LINE
  8
0
 10
236.027
 20
361.093
 11
236.093
 21
361.027
  0
LINE
  8
0
 10
236.093
 20
361.027
 11
236.156
 21
360.956
  0
LINE
  8
0
 10
236.156
 20
360.956
 11
236.214
 21
360.882
  0
LINE
  8
0
 10
236.214
 20
360.882
 11
236.266
 21
360.804
  0
LINE
  8
0
 10
236.266
 20
360.804
 11
236.314
 21
360.723
  0
LINE
  8
0
 10
236.314
 20
360.723
 11
236.357
 21
360.639
  0
LINE
  8
0
 10
236.357
 20
360.639
 11
236.395
 21
360.552
  0
LINE
  8
0
 10
236.395
 20
360.552
 11
236.427
 21
360.464
  0
LINE
  8
0
 10
236.427
 20
360.464
 11
236.453
 21
360.373
  0
LINE
  8
0
 10
236.453
 20
360.373
 11
236.473
 21
360.281
  0
LINE
  8
0
 10
236.473
 20
360.281
 11
236.488
 21
360.188
  0
LINE
  8
0
 10
236.488
 20
360.188
 11
236.497
 21
360.094
  0
LINE
  8
0
 10
236.497
 20
360.094
 11
236.5
 21
360
  0
LINE
  8
0
 10
236.5
 20
360
 11
236.497
 21
359.906
  0
LINE
  8
0
 10
236.497
 20
359.906
 11
236.488
 21
359.812
  0
LINE
  8
0
 10
236.488
 20
359.812
 11
236.473
 21
359.719
  0
LINE
  8
0
 10
236.473
 20
359.719
 11
236.453
 21
359.627
  0
LINE
  8
0
 10
236.453
 20
359.627
 11
236.427
 21
359.536
  0
LINE
  8
0
 10
236.427
 20
359.536
 11
236.395
 21
359.448
  0
LINE
  8
0
 10
236.395
 20
359.448
 11
236.357
 21
359.361
  0
LINE
  8
0
 10
236.357
 20
359.361
 11
236.314
 21
359.277
  0
LINE
  8
0
 10
236.314
 20
359.277
 11
236.266
 21
359.196
  0
LINE
  8
0
 10
236.266
 20
359.196
 11
236.214
 21
359.118
  0
LINE
  8
0
 10
236.214
 20
359.118
 11
236.156
 21
359.044
  0
LINE
  8
0
 10
236.156
 20
359.044
 11
236.093
 21
358.973
  0
LINE
  8
0
 10
236.093
 20
358.973
 11
236.027
 21
358.907
  0
LINE
  8
0
 10
236.027
 20
358.907
 11
235.956
 21
358.844
  0
LINE
  8
0
 10
235.956
 20
358.844
 11
235.882
 21
358.786
  0
LINE
  8
0
 10
235.882
 20
358.786
 11
235.804
 21
358.734
  0
LINE
  8
0
 10
235.804
 20
358.734
 11
235.723
 21
358.686
  0
LINE
  8
0
 10
235.723
 20
358.686
 11
235.639
 21
358.643
  0
LINE
  8
0
 10
235.639
 20
358.643
 11
235.552
 21
358.605
  0
LINE
  8
0
 10
235.552
 20
358.605
 11
235.464
 21
358.573
  0
LINE
  8
0
 10
235.464
 20
358.573
 11
235.373
 21
358.547
  0
LINE
  8
0
 10
235.373
 20
358.547
 11
235.281
 21
358.527
  0
LINE
  8
0
 10
235.281
 20
358.527
 11
235.188
 21
358.512
  0
LINE
  8
0
 10
235.188
 20
358.512
 11
235.094
 21
358.503
  0
LINE
  8
0
 10
235.094
 20
358.503
 11
235
 21
358.5
  0
LINE
  8
0
 10
235
 20
358.5
 11
234.906
 21
358.503
  0
LINE
  8
0
 10
14.9058
 20
358.503
 11
14.812
 21
358.512
  0
LINE
  8
0
 10
14.812
 20
358.512
 11
14.7189
 21
358.527
  0
LINE
  8
0
 10
14.7189
 20
358.527
 11
14.627
 21
358.547
  0
LINE
  8
0
 10
14.627
 20
358.547
 11
14.5365
 21
358.573
  0
LINE
  8
0
 10
14.5365
 20
358.573
 11
14.4478
 21
358.605
  0
LINE
  8
0
 10
14.4478
 20
358.605
 11
14.3613
 21
358.643
  0
LINE
  8
0
 10
14.3613
 20
358.643
 11
14.2774
 21
358.686
  0
LINE
  8
0
 10
14.2774
 20
358.686
 11
14.1963
 21
358.734
  0
LINE
  8
0
 10
14.1963
 20
358.734
 11
14.1183
 21
358.786
  0
LINE
  8
0
 10
14.1183
 20
358.786
 11
14.0439
 21
358.844
  0
LINE
  8
0
 10
14.0439
 20
358.844
 11
13.9732
 21
358.907
  0
LINE
  8
0
 10
13.9732
 20
358.907
 11
13.9065
 21
358.973
  0
LINE
  8
0
 10
13.9065
 20
358.973
 11
13.8442
 21
359.044
  0
LINE
  8
0
 10
13.8442
 20
359.044
 11
13.7865
 21
359.118
  0
LINE
  8
0
 10
13.7865
 20
359.118
 11
13.7335
 21
359.196
  0
LINE
  8
0
 10
13.7335
 20
359.196
 11
13.6855
 21
359.277
  0
LINE
  8
0
 10
13.6855
 20
359.277
 11
13.6427
 21
359.361
  0
LINE
  8
0
 10
13.6427
 20
359.361
 11
13.6053
 21
359.448
  0
LINE
  8
0
 10
13.6053
 20
359.448
 11
13.5734
 21
359.536
  0
LINE
  8
0
 10
13.5734
 20
359.536
 11
13.5471
 21
359.627
  0
LINE
  8
0
 10
13.5471
 20
359.627
 11
13.5266
 21
359.719
  0
LINE
  8
0
 10
13.5266
 20
359.719
 11
13.5118
 21
359.812
  0
LINE
  8
0
 10
13.5118
 20
359.812
 11
13.503
 21
359.906
  0
LINE
  8
0
 10
13.503
 20
359.906
 11
13.5
 21
360
  0
LINE
  8
0
 10
13.5
 20
360
 11
13.503
 21
360.094
  0
LINE
  8
0
 10
13.503
 20
360.094
 11
13.5118
 21
360.188
  0
LINE
  8
0
 10
13.5118
 20
360.188
 11
13.5266
 21
360.281
  0
LINE
  8
0
 10
13.5266
 20
360.281
 11
13.5471
 21
360.373
  0
LINE
  8
0
 10
13.5471
 20
360.373
 11
13.5734
 21
360.464
  0
LINE
  8
0
 10
13.5734
 20
360.464
 11
13.6053
 21
360.552
  0
LINE
  8
0
 10
13.6053
 20
360.552
 11
13.6427
 21
360.639
  0
LINE
  8
0
 10
13.6427
 20
360.639
 11
13.6855
 21
360.723
  0
LINE
  8
0
 10
13.6855
 20
360.723
 11
13.7335
 21
360.804
  0
LINE
  8
0
 10
13.7335
 20
360.804
 11
13.7865
 21
360.882
  0
LINE
  8
0
 10
13.7865
 20
360.882
 11
13.8442
 21
360.956
  0
LINE
  8
0
 10
13.8442
 20
360.956
 11
13.9065
 21
361.027
  0
LINE
  8
0
 10
13.9065
 20
361.027
 11
13.9732
 21
361.093
  0
LINE
  8
0
 10
13.9732
 20
361.093
 11
14.0439
 21
361.156
  0
LINE
  8
0
 10
14.0439
 20
361.156
 11
14.1183
 21
361.214
  0
LINE
  8
0
 10
14.1183
 20
361.214
 11
14.1963
 21
361.266
  0
LINE
  8
0
 10
14.1963
 20
361.266
 11
14.2774
 21
361.314
  0
LINE
  8
0
 10
14.2774
 20
361.314
 11
14.3613
 21
361.357
  0
LINE
  8
0
 10
14.3613
 20
361.357
 11
14.4478
 21
361.395
  0
LINE
  8
0
 10
14.4478
 20
361.395
 11
14.5365
 21
361.427
  0
LINE
  8
0
 10
14.5365
 20
361.427
 11
14.627
 21
361.453
  0
LINE
  8
0
 10
14.627
 20
361.453
 11
14.7189
 21
361.473
  0
LINE
  8
0
 10
14.7189
 20
361.473
 11
14.812
 21
361.488
  0
LINE
  8
0
 10
14.812
 20
361.488
 11
14.9058
 21
361.497
  0
LINE
  8
0
 10
14.9058
 20
361.497
 11
15
 21
361.5
  0
LINE
  8
0
 10
15
 20
361.5
 11
15.0942
 21
361.497
  0
LINE
  8
0
 10
15.0942
 20
361.497
 11
15.188
 21
361.488
  0
LINE
  8
0
 10
15.188
 20
361.488
 11
15.2811
 21
361.473
  0
LINE
  8
0
 10
15.2811
 20
361.473
 11
15.373
 21
361.453
  0
LINE
  8
0
 10
15.373
 20
361.453
 11
15.4635
 21
361.427
  0
LINE
  8
0
 10
15.4635
 20
361.427
 11
15.5522
 21
361.395
  0
LINE
  8
0
 10
15.5522
 20
361.395
 11
15.6387
 21
361.357
  0
LINE
  8
0
 10
15.6387
 20
361.357
 11
15.7226
 21
361.314
  0
LINE
  8
0
 10
15.7226
 20
361.314
 11
15.8037
 21
361.266
  0
LINE
  8
0
 10
15.8037
 20
361.266
 11
15.8817
 21
361.214
  0
LINE
  8
0
 10
15.8817
 20
361.214
 11
15.9561
 21
361.156
  0
LINE
  8
0
 10
15.9561
 20
361.156
 11
16.0268
 21
361.093
  0
LINE
  8
0
 10
16.0268
 20
361.093
 11
16.0934
 21
361.027
  0
LINE
  8
0
 10
16.0934
 20
361.027
 11
16.1558
 21
360.956
  0
LINE
  8
0
 10
16.1558
 20
360.956
 11
16.2135
 21
360.882
  0
LINE
  8
0
 10
16.2135
 20
360.882
 11
16.2665
 21
360.804
  0
LINE
  8
0
 10
16.2665
 20
360.804
 11
16.3145
 21
360.723
  0
LINE
  8
0
 10
16.3145
 20
360.723
 11
16.3572
 21
360.639
  0
LINE
  8
0
 10
16.3572
 20
360.639
 11
16.3947
 21
360.552
  0
LINE
  8
0
 10
16.3947
 20
360.552
 11
16.4266
 21
360.464
  0
LINE
  8
0
 10
16.4266
 20
360.464
 11
16.4529
 21
360.373
  0
LINE
  8
0
 10
16.4529
 20
360.373
 11
16.4734
 21
360.281
  0
LINE
  8
0
 10
16.4734
 20
360.281
 11
16.4882
 21
360.188
  0
LINE
  8
0
 10
16.4882
 20
360.188
 11
16.497
 21
360.094
  0
LINE
  8
0
 10
16.497
 20
360.094
 11
16.5
 21
360
  0
LINE
  8
0
 10
16.5
 20
360
 11
16.497
 21
359.906
  0
LINE
  8
0
 10
16.497
 20
359.906
 11
16.4882
 21
359.812
  0
LINE
  8
0
 10
16.4882
 20
359.812
 11
16.4734
 21
359.719
  0
LINE
  8
0
 10
16.4734
 20
359.719
 11
16.4529
 21
359.627
  0
LINE
  8
0
 10
16.4529
 20
359.627
 11
16.4266
 21
359.536
  0
LINE
  8
0
 10
16.4266
 20
359.536
 11
16.3947
 21
359.448
  0
LINE
  8
0
 10
16.3947
 20
359.448
 11
16.3572
 21
359.361
  0
LINE
  8
0
 10
16.3572
 20
359.361
 11
16.3145
 21
359.277
  0
LINE
  8
0
 10
16.3145
 20
359.277
 11
16.2665
 21
359.196
  0
LINE
  8
0
 10
16.2665
 20
359.196
 11
16.2135
 21
359.118
  0
LINE
  8
0
 10
16.2135
 20
359.118
 11
16.1558
 21
359.044
  0
LINE
  8
0
 10
16.1558
 20
359.044
 11
16.0934
 21
358.973
  0
LINE
  8
0
 10
16.0934
 20
358.973
 11
16.0268
 21
358.907
  0
LINE
  8
0
 10
16.0268
 20
358.907
 11
15.9561
 21
358.844
  0
LINE
  8
0
 10
15.9561
 20
358.844
 11
15.8817
 21
358.786
  0
LINE
  8
0
 10
15.8817
 20
358.786
 11
15.8037
 21
358.734
  0
LINE
  8
0
 10
15.8037
 20
358.734
 11
15.7226
 21
358.686
  0
LINE
  8
0
 10
15.7226
 20
358.686
 11
15.6387
 21
358.643
  0
LINE
  8
0
 10
15.6387
 20
358.643
 11
15.5522
 21
358.605
  0
LINE
  8
0
 10
15.5522
 20
358.605
 11
15.4635
 21
358.573
  0
LINE
  8
0
 10
15.4635
 20
358.573
 11
15.373
 21
358.547
  0
LINE
  8
0
 10
15.373
 20
358.547
 11
15.2811
 21
358.527
  0
LINE
  8
0
 10
15.2811
 20
358.527
 11
15.188
 21
358.512
  0
LINE
  8
0
 10
15.188
 20
358.512
 11
15.0942
 21
358.503
  0
LINE
  8
0
 10
15.0942
 20
358.503
 11
15
 21
358.5
  0
LINE
  8
0
 10
15
 20
358.5
 11
14.9058
 21
358.503
  0
LINE
  8
0
 10
14.9058
 20
348.503
 11
14.812
 21
348.512
  0
LINE
  8
0
 10
14.812
 20
348.512
 11
14.7189
 21
348.527
  0
LINE
  8
0
 10
14.7189
 20
348.527
 11
14.627
 21
348.547
  0
LINE
  8
0
 10
14.627
 20
348.547
 11
14.5365
 21
348.573
  0
LINE
  8
0
 10
14.5365
 20
348.573
 11
14.4478
 21
348.605
  0
LINE
  8
0
 10
14.4478
 20
348.605
 11
14.3613
 21
348.643
  0
LINE
  8
0
 10
14.3613
 20
348.643
 11
14.2774
 21
348.686
  0
LINE
  8
0
 10
14.2774
 20
348.686
 11
14.1963
 21
348.734
  0
LINE
  8
0
 10
14.1963
 20
348.734
 11
14.1183
 21
348.786
  0
LINE
  8
0
 10
14.1183
 20
348.786
 11
14.0439
 21
348.844
  0
LINE
  8
0
 10
14.0439
 20
348.844
 11
13.9732
 21
348.907
  0
LINE
  8
0
 10
13.9732
 20
348.907
 11
13.9065
 21
348.973
  0
LINE
  8
0
 10
13.9065
 20
348.973
 11
13.8442
 21
349.044
  0
LINE
  8
0
 10
13.8442
 20
349.044
 11
13.7865
 21
349.118
  0
LINE
  8
0
 10
13.7865
 20
349.118
 11
13.7335
 21
349.196
  0
LINE
  8
0
 10
13.7335
 20
349.196
 11
13.6855
 21
349.277
  0
LINE
  8
0
 10
13.6855
 20
349.277
 11
13.6427
 21
349.361
  0
LINE
  8
0
 10
13.6427
 20
349.361
 11
13.6053
 21
349.448
  0
LINE
  8
0
 10
13.6053
 20
349.448
 11
13.5734
 21
349.536
  0
LINE
  8
0
 10
13.5734
 20
349.536
 11
13.5471
 21
349.627
  0
LINE
  8
0
 10
13.5471
 20
349.627
 11
13.5266
 21
349.719
  0
LINE
  8
0
 10
13.5266
 20
349.719
 11
13.5118
 21
349.812
  0
LINE
  8
0
 10
13.5118
 20
349.812
 11
13.503
 21
349.906
  0
LINE
  8
0
 10
13.503
 20
349.906
 11
13.5
 21
350
  0
LINE
  8
0
 10
13.5
 20
350
 11
13.503
 21
350.094
  0
LINE
  8
0
 10
13.503
 20
350.094
 11
13.5118
 21
350.188
  0
LINE
  8
0
 10
13.5118
 20
350.188
 11
13.5266
 21
350.281
  0
LINE
  8
0
 10
13.5266
 20
350.281
 11
13.5471
 21
350.373
  0
LINE
  8
0
 10
13.5471
 20
350.373
 11
13.5734
 21
350.464
  0
LINE
  8
0
 10
13.5734
 20
350.464
 11
13.6053
 21
350.552
  0
LINE
  8
0
 10
13.6053
 20
350.552
 11
13.6427
 21
350.639
  0
LINE
  8
0
 10
13.6427
 20
350.639
 11
13.6855
 21
350.723
  0
LINE
  8
0
 10
13.6855
 20
350.723
 11
13.7335
 21
350.804
  0
LINE
  8
0
 10
13.7335
 20
350.804
 11
13.7865
 21
350.882
  0
LINE
  8
0
 10
13.7865
 20
350.882
 11
13.8442
 21
350.956
  0
LINE
  8
0
 10
13.8442
 20
350.956
 11
13.9065
 21
351.027
  0
LINE
  8
0
 10
13.9065
 20
351.027
 11
13.9732
 21
351.093
  0
LINE
  8
0
 10
13.9732
 20
351.093
 11
14.0439
 21
351.156
  0
LINE
  8
0
 10
14.0439
 20
351.156
 11
14.1183
 21
351.214
  0
LINE
  8
0
 10
14.1183
 20
351.214
 11
14.1963
 21
351.266
  0
LINE
  8
0
 10
14.1963
 20
351.266
 11
14.2774
 21
351.314
  0
LINE
  8
0
 10
14.2774
 20
351.314
 11
14.3613
 21
351.357
  0
LINE
  8
0
 10
14.3613
 20
351.357
 11
14.4478
 21
351.395
  0
LINE
  8
0
 10
14.4478
 20
351.395
 11
14.5365
 21
351.427
  0
LINE
  8
0
 10
14.5365
 20
351.427
 11
14.627
 21
351.453
  0
LINE
  8
0
 10
14.627
 20
351.453
 11
14.7189
 21
351.473
  0
LINE
  8
0
 10
14.7189
 20
351.473
 11
14.812
 21
351.488
  0
LINE
  8
0
 10
14.812
 20
351.488
 11
14.9058
 21
351.497
  0
LINE
  8
0
 10
14.9058
 20
351.497
 11
15
 21
351.5
  0
LINE
  8
0
 10
15
 20
351.5
 11
15.0942
 21
351.497
  0
LINE
  8
0
 10
15.0942
 20
351.497
 11
15.188
 21
351.488
  0
LINE
  8
0
 10
15.188
 20
351.488
 11
15.2811
 21
351.473
  0
LINE
  8
0
 10
15.2811
 20
351.473
 11
15.373
 21
351.453
  0
LINE
  8
0
 10
15.373
 20
351.453
 11
15.4635
 21
351.427
  0
LINE
  8
0
 10
15.4635
 20
351.427
 11
15.5522
 21
351.395
  0
LINE
  8
0
 10
15.5522
 20
351.395
 11
15.6387
 21
351.357
  0
LINE
  8
0
 10
15.6387
 20
351.357
 11
15.7226
 21
351.314
  0
LINE
  8
0
 10
15.7226
 20
351.314
 11
15.8037
 21
351.266
  0
LINE
  8
0
 10
15.8037
 20
351.266
 11
15.8817
 21
351.214
  0
LINE
  8
0
 10
15.8817
 20
351.214
 11
15.9561
 21
351.156
  0
LINE
  8
0
 10
15.9561
 20
351.156
 11
16.0268
 21
351.093
  0
LINE
  8
0
 10
16.0268
 20
351.093
 11
16.0934
 21
351.027
  0
LINE
  8
0
 10
16.0934
 20
351.027
 11
16.1558
 21
350.956
  0
LINE
  8
0
 10
16.1558
 20
350.956
 11
16.2135
 21
350.882
  0
LINE
  8
0
 10
16.2135
 20
350.882
 11
16.2665
 21
350.804
  0
LINE
  8
0
 10
16.2665
 20
350.804
 11
16.3145
 21
350.723
  0
LINE
  8
0
 10
16.3145
 20
350.723
 11
16.3572
 21
350.639
  0
LINE
  8
0
 10
16.3572
 20
350.639
 11
16.3947
 21
350.552
  0
LINE
  8
0
 10
16.3947
 20
350.552
 11
16.4266
 21
350.464
  0
LINE
  8
0
 10
16.4266
 20
350.464
 11
16.4529
 21
350.373
  0
LINE
  8
0
 10
16.4529
 20
350.373
 11
16.4734
 21
350.281
  0
LINE
  8
0
 10
16.4734
 20
350.281
 11
16.4882
 21
350.188
  0
LINE
  8
0
 10
16.4882
 20
350.188
 11
16.497
 21
350.094
  0
LINE
  8
0
 10
16.497
 20
350.094
 11
16.5
 21
350
  0
LINE
  8
0
 10
16.5
 20
350
 11
16.497
 21
349.906
  0
LINE
  8
0
 10
16.497
 20
349.906
 11
16.4882
 21
349.812
  0
LINE
  8
0
 10
16.4882
 20
349.812
 11
16.4734
 21
349.719
  0
LINE
  8
0
 10
16.4734
 20
349.719
 11
16.4529
 21
349.627
  0
LINE
  8
0
 10
16.4529
 20
349.627
 11
16.4266
 21
349.536
  0
LINE
  8
0
 10
16.4266
 20
349.536
 11
16.3947
 21
349.448
  0
LINE
  8
0
 10
16.3947
 20
349.448
 11
16.3572
 21
349.361
  0
LINE
  8
0
 10
16.3572
 20
349.361
 11
16.3145
 21
349.277
  0
LINE
  8
0
 10
16.3145
 20
349.277
 11
16.2665
 21
349.196
  0
LINE
  8
0
 10
16.2665
 20
349.196
 11
16.2135
 21
349.118
  0
LINE
  8
0
 10
16.2135
 20
349.118
 11
16.1558
 21
349.044
  0
LINE
  8
0
 10
16.1558
 20
349.044
 11
16.0934
 21
348.973
  0
LINE
  8
0
 10
16.0934
 20
348.973
 11
16.0268
 21
348.907
  0
LINE
  8
0
 10
16.0268
 20
348.907
 11
15.9561
 21
348.844
  0
LINE
  8
0
 10
15.9561
 20
348.844
 11
15.8817
 21
348.786
  0
LINE
  8
0
 10
15.8817
 20
348.786
 11
15.8037
 21
348.734
  0
LINE
  8
0
 10
15.8037
 20
348.734
 11
15.7226
 21
348.686
  0
LINE
  8
0
 10
15.7226
 20
348.686
 11
15.6387
 21
348.643
  0
LINE
  8
0
 10
15.6387
 20
348.643
 11
15.5522
 21
348.605
  0
LINE
  8
0
 10
15.5522
 20
348.605
 11
15.4635
 21
348.573
  0
LINE
  8
0
 10
15.4635
 20
348.573
 11
15.373
 21
348.547
  0
LINE
  8
0
 10
15.373
 20
348.547
 11
15.2811
 21
348.527
  0
LINE
  8
0
 10
15.2811
 20
348.527
 11
15.188
 21
348.512
  0
LINE
  8
0
 10
15.188
 20
348.512
 11
15.0942
 21
348.503
  0
LINE
  8
0
 10
15.0942
 20
348.503
 11
15
 21
348.5
  0
LINE
  8
0
 10
15
 20
348.5
 11
14.9058
 21
348.503
  0
LINE
  8
0
 10
234.906
 20
348.503
 11
234.812
 21
348.512
  0
LINE
  8
0
 10
234.812
 20
348.512
 11
234.719
 21
348.527
  0
LINE
  8
0
 10
234.719
 20
348.527
 11
234.627
 21
348.547
  0
LINE
  8
0
 10
234.627
 20
348.547
 11
234.536
 21
348.573
  0
LINE
  8
0
 10
234.536
 20
348.573
 11
234.448
 21
348.605
  0
LINE
  8
0
 10
234.448
 20
348.605
 11
234.361
 21
348.643
  0
LINE
  8
0
 10
234.361
 20
348.643
 11
234.277
 21
348.686
  0
LINE
  8
0
 10
234.277
 20
348.686
 11
234.196
 21
348.734
  0
LINE
  8
0
 10
234.196
 20
348.734
 11
234.118
 21
348.786
  0
LINE
  8
0
 10
234.118
 20
348.786
 11
234.044
 21
348.844
  0
LINE
  8
0
 10
234.044
 20
348.844
 11
233.973
 21
348.907
  0
LINE
  8
0
 10
233.973
 20
348.907
 11
233.907
 21
348.973
  0
LINE
  8
0
 10
233.907
 20
348.973
 11
233.844
 21
349.044
  0
LINE
  8
0
 10
233.844
 20
349.044
 11
233.786
 21
349.118
  0
LINE
  8
0
 10
233.786
 20
349.118
 11
233.734
 21
349.196
  0
LINE
  8
0
 10
233.734
 20
349.196
 11
233.686
 21
349.277
  0
LINE
  8
0
 10
233.686
 20
349.277
 11
233.643
 21
349.361
  0
LINE
  8
0
 10
233.643
 20
349.361
 11
233.605
 21
349.448
  0
LINE
  8
0
 10
233.605
 20
349.448
 11
233.573
 21
349.536
  0
LINE
  8
0
 10
233.573
 20
349.536
 11
233.547
 21
349.627
  0
LINE
  8
0
 10
233.547
 20
349.627
 11
233.527
 21
349.719
  0
LINE
  8
0
 10
233.527
 20
349.719
 11
233.512
 21
349.812
  0
LINE
  8
0
 10
233.512
 20
349.812
 11
233.503
 21
349.906
  0
LINE
  8
0
 10
233.503
 20
349.906
 11
233.5
 21
350
  0
LINE
  8
0
 10
233.5
 20
350
 11
233.503
 21
350.094
  0
LINE
  8
0
 10
233.503
 20
350.094
 11
233.512
 21
350.188
  0
LINE
  8
0
 10
233.512
 20
350.188
 11
233.527
 21
350.281
  0
LINE
  8
0
 10
233.527
 20
350.281
 11
233.547
 21
350.373
  0
LINE
  8
0
 10
233.547
 20
350.373
 11
233.573
 21
350.464
  0
LINE
  8
0
 10
233.573
 20
350.464
 11
233.605
 21
350.552
  0
LINE
  8
0
 10
233.605
 20
350.552
 11
233.643
 21
350.639
  0
LINE
  8
0
 10
233.643
 20
350.639
 11
233.686
 21
350.723
  0
LINE
  8
0
 10
233.686
 20
350.723
 11
233.734
 21
350.804
  0
LINE
  8
0
 10
233.734
 20
350.804
 11
233.786
 21
350.882
  0
LINE
  8
0
 10
233.786
 20
350.882
 11
233.844
 21
350.956
  0
LINE
  8
0
 10
233.844
 20
350.956
 11
233.907
 21
351.027
  0
LINE
  8
0
 10
233.907
 20
351.027
 11
233.973
 21
351.093
  0
LINE
  8
0
 10
233.973
 20
351.093
 11
234.044
 21
351.156
  0
LINE
  8
0
 10
234.044
 20
351.156
 11
234.118
 21
351.214
  0
LINE
  8
0
 10
234.118
 20
351.214
 11
234.196
 21
351.266
  0
LINE
  8
0
 10
234.196
 20
351.266
 11
234.277
 21
351.314
  0
LINE
  8
0
 10
234.277
 20
351.314
 11
234.361
 21
351.357
  0
LINE
  8
0
 10
234.361
 20
351.357
 11
234.448
 21
351.395
  0
LINE
  8
0
 10
234.448
 20
351.395
 11
234.536
 21
351.427
  0
LINE
  8
0
 10
234.536
 20
351.427
 11
234.627
 21
351.453
  0
LINE
  8
0
 10
234.627
 20
351.453
 11
234.719
 21
351.473
  0
LINE
  8
0
 10
234.719
 20
351.473
 11
234.812
 21
351.488
  0
LINE
  8
0
 10
234.812
 20
351.488
 11
234.906
 21
351.497
  0
LINE
  8
0
 10
234.906
 20
351.497
 11
235
 21
351.5
  0
LINE
  8
0
 10
235
 20
351.5
 11
235.094
 21
351.497
  0
LINE
  8
0
 10
235.094
 20
351.497
 11
235.188
 21
351.488
  0
LINE
  8
0
 10
235.188
 20
351.488
 11
235.281
 21
351.473
  0
LINE
  8
0
 10
235.281
 20
351.473
 11
235.373
 21
351.453
  0
LINE
  8
0
 10
235.373
 20
351.453
 11
235.464
 21
351.427
  0
LINE
  8
0
 10
235.464
 20
351.427
 11
235.552
 21
351.395
  0
LINE
  8
0
 10
235.552
 20
351.395
 11
235.639
 21
351.357
  0
LINE
  8
0
 10
235.639
 20
351.357
 11
235.723
 21
351.314
  0
LINE
  8
0
 10
235.723
 20
351.314
 11
235.804
 21
351.266
  0
LINE
  8
0
 10
235.804
 20
351.266
 11
235.882
 21
351.214
  0
LINE
  8
0
 10
235.882
 20
351.214
 11
235.956
 21
351.156
  0
LINE
  8
0
 10
235.956
 20
351.156
 11
236.027
 21
351.093
  0
LINE
  8
0
 10
236.027
 20
351.093
 11
236.093
 21
351.027
  0
LINE
  8
0
 10
236.093
 20
351.027
 11
236.156
 21
350.956
  0
LINE
  8
0
 10
236.156
 20
350.956
 11
236.214
 21
350.882
  0
LINE
  8
0
 10
236.214
 20
350.882
 11
236.266
 21
350.804
  0
LINE
  8
0
 10
236.266
 20
350.804
 11
236.314
 21
350.723
  0
LINE
  8
0
 10
236.314
 20
350.723
 11
236.357
 21
350.639
  0
LINE
  8
0
 10
236.357
 20
350.639
 11
236.395
 21
350.552
  0
LINE
  8
0
 10
236.395
 20
350.552
 11
236.427
 21
350.464
  0
LINE
  8
0
 10
236.427
 20
350.464
 11
236.453
 21
350.373
  0
LINE
  8
0
 10
236.453
 20
350.373
 11
236.473
 21
350.281
  0
LINE
  8
0
 10
236.473
 20
350.281
 11
236.488
 21
350.188
  0
LINE
  8
0
 10
236.488
 20
350.188
 11
236.497
 21
350.094
  0
LINE
  8
0
 10
236.497
 20
350.094
 11
236.5
 21
350
  0
LINE
  8
0
 10
236.5
 20
350
 11
236.497
 21
349.906
  0
LINE
  8
0
 10
236.497
 20
349.906
 11
236.488
 21
349.812
  0
LINE
  8
0
 10
236.488
 20
349.812
 11
236.473
 21
349.719
  0
LINE
  8
0
 10
236.473
 20
349.719
 11
236.453
 21
349.627
  0
LINE
  8
0
 10
236.453
 20
349.627
 11
236.427
 21
349.536
  0
LINE
  8
0
 10
236.427
 20
349.536
 11
236.395
 21
349.448
  0
LINE
  8
0
 10
236.395
 20
349.448
 11
236.357
 21
349.361
  0
LINE
  8
0
 10
236.357
 20
349.361
 11
236.314
 21
349.277
  0
LINE
  8
0
 10
236.314
 20
349.277
 11
236.266
 21
349.196
  0
LINE
  8
0
 10
236.266
 20
349.196
 11
236.214
 21
349.118
  0
LINE
  8
0
 10
236.214
 20
349.118
 11
236.156
 21
349.044
  0
LINE
  8
0
 10
236.156
 20
349.044
 11
236.093
 21
348.973
  0
LINE
  8
0
 10
236.093
 20
348.973
 11
236.027
 21
348.907
  0
LINE
  8
0
 10
236.027
 20
348.907
 11
235.956
 21
348.844
  0
LINE
  8
0
 10
235.956
 20
348.844
 11
235.882
 21
348.786
  0
LINE
  8
0
 10
235.882
 20
348.786
 11
235.804
 21
348.734
  0
LINE
  8
0
 10
235.804
 20
348.734
 11
235.723
 21
348.686
  0
LINE
  8
0
 10
235.723
 20
348.686
 11
235.639
 21
348.643
  0
LINE
  8
0
 10
235.639
 20
348.643
 11
235.552
 21
348.605
  0
LINE
  8
0
 10
235.552
 20
348.605
 11
235.464
 21
348.573
  0
LINE
  8
0
 10
235.464
 20
348.573
 11
235.373
 21
348.547
  0
LINE
  8
0
 10
235.373
 20
348.547
 11
235.281
 21
348.527
  0
LINE
  8
0
 10
235.281
 20
348.527
 11
235.188
 21
348.512
  0
LINE
  8
0
 10
235.188
 20
348.512
 11
235.094
 21
348.503
  0
LINE
  8
0
 10
235.094
 20
348.503
 11
235
 21
348.5
  0
LINE
  8
0
 10
235
 20
348.5
 11
234.906
 21
348.503
  0
LINE
  8
0
 10
375
 20
300
 11
295
 21
300
  0
LINE
  8
0
 10
295
 20
300
 11
295
 21
0
  0
LINE
  8
0
 10
295
 20
0
 11
375
 21
0
  0
LINE
  8
0
 10
375
 20
0
 11
375
 21
300
  0
LINE
  8
0
 10
354.906
 20
278.503
 11
354.812
 21
278.512
  0
LINE
  8
0
 10
354.812
 20
278.512
 11
354.719
 21
278.527
  0
LINE
  8
0
 10
354.719
 20
278.527
 11
354.627
 21
278.547
  0
LINE
  8
0
 10
354.627
 20
278.547
 11
354.536
 21
278.573
  0
LINE
  8
0
 10
354.536
 20
278.573
 11
354.448
 21
278.605
  0
LINE
  8
0
 10
354.448
 20
278.605
 11
354.361
 21
278.643
  0
LINE
  8
0
 10
354.361
 20
278.643
 11
354.277
 21
278.686
  0
LINE
  8
0
 10
354.277
 20
278.686
 11
354.196
 21
278.734
  0
LINE
  8
0
 10
354.196
 20
278.734
 11
354.118
 21
278.786
  0
LINE
  8
0
 10
354.118
 20
278.786
 11
354.044
 21
278.844
  0
LINE
  8
0
 10
354.044
 20
278.844
 11
353.973
 21
278.907
  0
LINE
  8
0
 10
353.973
 20
278.907
 11
353.907
 21
278.973
  0
LINE
  8
0
 10
353.907
 20
278.973
 11
353.844
 21
279.044
  0
LINE
  8
0
 10
353.844
 20
279.044
 11
353.786
 21
279.118
  0
LINE
  8
0
 10
353.786
 20
279.118
 11
353.734
 21
279.196
  0
LINE
  8
0
 10
353.734
 20
279.196
 11
353.686
 21
279.277
  0
LINE
  8
0
 10
353.686
 20
279.277
 11
353.643
 21
279.361
  0
LINE
  8
0
 10
353.643
 20
279.361
 11
353.605
 21
279.448
  0
LINE
  8
0
 10
353.605
 20
279.448
 11
353.573
 21
279.536
  0
LINE
  8
0
 10
353.573
 20
279.536
 11
353.547
 21
279.627
  0
LINE
  8
0
 10
353.547
 20
279.627
 11
353.527
 21
279.719
  0
LINE
  8
0
 10
353.527
 20
279.719
 11
353.512
 21
279.812
  0
LINE
  8
0
 10
353.512
 20
279.812
 11
353.503
 21
279.906
  0
LINE
  8
0
 10
353.503
 20
279.906
 11
353.5
 21
280
  0
LINE
  8
0
 10
353.5
 20
280
 11
353.503
 21
280.094
  0
LINE
  8
0
 10
353.503
 20
280.094
 11
353.512
 21
280.188
  0
LINE
  8
0
 10
353.512
 20
280.188
 11
353.527
 21
280.281
  0
LINE
  8
0
 10
353.527
 20
280.281
 11
353.547
 21
280.373
  0
LINE
  8
0
 10
353.547
 20
280.373
 11
353.573
 21
280.464
  0
LINE
  8
0
 10
353.573
 20
280.464
 11
353.605
 21
280.552
  0
LINE
  8
0
 10
353.605
 20
280.552
 11
353.643
 21
280.639
  0
LINE
  8
0
 10
353.643
 20
280.639
 11
353.686
 21
280.723
  0
LINE
  8
0
 10
353.686
 20
280.723
 11
353.734
 21
280.804
  0
LINE
  8
0
 10
353.734
 20
280.804
 11
353.786
 21
280.882
  0
LINE
  8
0
 10
353.786
 20
280.882
 11
353.844
 21
280.956
  0
LINE
  8
0
 10
353.844
 20
280.956
 11
353.907
 21
281.027
  0
LINE
  8
0
 10
353.907
 20
281.027
 11
353.973
 21
281.093
  0
LINE
  8
0
 10
353.973
 20
281.093
 11
354.044
 21
281.156
  0
LINE
  8
0
 10
354.044
 20
281.156
 11
354.118
 21
281.214
  0
LINE
  8
0
 10
354.118
 20
281.214
 11
354.196
 21
281.266
  0
LINE
  8
0
 10
354.196
 20
281.266
 11
354.277
 21
281.314
  0
LINE
  8
0
 10
354.277
 20
281.314
 11
354.361
 21
281.357
  0
LINE
  8
0
 10
354.361
 20
281.357
 11
354.448
 21
281.395
  0
LINE
  8
0
 10
354.448
 20
281.395
 11
354.536
 21
281.427
  0
LINE
  8
0
 10
354.536
 20
281.427
 11
354.627
 21
281.453
  0
LINE
  8
0
 10
354.627
 20
281.453
 11
354.719
 21
281.473
  0
LINE
  8
0
 10
354.719
 20
281.473
 11
354.812
 21
281.488
  0
LINE
  8
0
 10
354.812
 20
281.488
 11
354.906
 21
281.497
  0
LINE
  8
0
 10
354.906
 20
281.497
 11
355
 21
281.5
  0
LINE
  8
0
 10
355
 20
281.5
 11
355.094
 21
281.497
  0
LINE
  8
0
 10
355.094
 20
281.497
 11
355.188
 21
281.488
  0
LINE
  8
0
 10
355.188
 20
281.488
 11
355.281
 21
281.473
  0
LINE
  8
0
 10
355.281
 20
281.473
 11
355.373
 21
281.453
  0
LINE
  8
0
 10
355.373
 20
281.453
 11
355.464
 21
281.427
  0
LINE
  8
0
 10
355.464
 20
281.427
 11
355.552
 21
281.395
  0
LINE
  8
0
 10
355.552
 20
281.395
 11
355.639
 21
281.357
  0
LINE
  8
0
 10
355.639
 20
281.357
 11
355.723
 21
281.314
  0
LINE
  8
0
 10
355.723
 20
281.314
 11
355.804
 21
281.266
  0
LINE
  8
0
 10
355.804
 20
281.266
 11
355.882
 21
281.214
  0
LINE
  8
0
 10
355.882
 20
281.214
 11
355.956
 21
281.156
  0
LINE
  8
0
 10
355.956
 20
281.156
 11
356.027
 21
281.093
  0
LINE
  8
0
 10
356.027
 20
281.093
 11
356.093
 21
281.027
  0
LINE
  8
0
 10
356.093
 20
281.027
 11
356.156
 21
280.956
  0
LINE
  8
0
 10
356.156
 20
280.956
 11
356.214
 21
280.882
  0
LINE
  8
0
 10
356.214
 20
280.882
 11
356.266
 21
280.804
  0
LINE
  8
0
 10
356.266
 20
280.804
 11
356.314
 21
280.723
  0
LINE
  8
0
 10
356.314
 20
280.723
 11
356.357
 21
280.639
  0
LINE
  8
0
 10
356.357
 20
280.639
 11
356.395
 21
280.552
  0
LINE
  8
0
 10
356.395
 20
280.552
 11
356.427
 21
280.464
  0
LINE
  8
0
 10
356.427
 20
280.464
 11
356.453
 21
280.373
  0
LINE
  8
0
 10
356.453
 20
280.373
 11
356.473
 21
280.281
  0
LINE
  8
0
 10
356.473
 20
280.281
 11
356.488
 21
280.188
  0
LINE
  8
0
 10
356.488
 20
280.188
 11
356.497
 21
280.094
  0
LINE
  8
0
 10
356.497
 20
280.094
 11
356.5
 21
280
  0
LINE
  8
0
 10
356.5
 20
280
 11
356.497
 21
279.906
  0
LINE
  8
0
 10
356.497
 20
279.906
 11
356.488
 21
279.812
  0
LINE
  8
0
 10
356.488
 20
279.812
 11
356.473
 21
279.719
  0
LINE
  8
0
 10
356.473
 20
279.719
 11
356.453
 21
279.627
  0
LINE
  8
0
 10
356.453
 20
279.627
 11
356.427
 21
279.536
  0
LINE
  8
0
 10
356.427
 20
279.536
 11
356.395
 21
279.448
  0
LINE
  8
0
 10
356.395
 20
279.448
 11
356.357
 21
279.361
  0
LINE
  8
0
 10
356.357
 20
279.361
 11
356.314
 21
279.277
  0
LINE
  8
0
 10
356.314
 20
279.277
 11
356.266
 21
279.196
  0
LINE
  8
0
 10
356.266
 20
279.196
 11
356.214
 21
279.118
  0
LINE
  8
0
 10
356.214
 20
279.118
 11
356.156
 21
279.044
  0
LINE
  8
0
 10
356.156
 20
279.044
 11
356.093
 21
278.973
  0
LINE
  8
0
 10
356.093
 20
278.973
 11
356.027
 21
278.907
  0
LINE
  8
0
 10
356.027
 20
278.907
 11
355.956
 21
278.844
  0
LINE
  8
0
 10
355.956
 20
278.844
 11
355.882
 21
278.786
  0
LINE
  8
0
 10
355.882
 20
278.786
 11
355.804
 21
278.734
  0
LINE
  8
0
 10
355.804
 20
278.734
 11
355.723
 21
278.686
  0
LINE
  8
0
 10
355.723
 20
278.686
 11
355.639
 21
278.643
  0
LINE
  8
0
 10
355.639
 20
278.643
 11
355.552
 21
278.605
  0
LINE
  8
0
 10
355.552
 20
278.605
 11
355.464
 21
278.573
  0
LINE
  8
0
 10
355.464
 20
278.573
 11
355.373
 21
278.547
  0
LINE
  8
0
 10
355.373
 20
278.547
 11
355.281
 21
278.527
  0
LINE
  8
0
 10
355.281
 20
278.527
 11
355.188
 21
278.512
  0
LINE
  8
0
 10
355.188
 20
278.512
 11
355.094
 21
278.503
  0
LINE
  8
0
 10
355.094
 20
278.503
 11
355
 21
278.5
  0
LINE
  8
0
 10
355
 20
278.5
 11
354.906
 21
278.503
  0
LINE
  8
0
 10
364.906
 20
278.503
 11
364.812
 21
278.512
  0
LINE
  8
0
 10
364.812
 20
278.512
 11
364.719
 21
278.527
  0
LINE
  8
0
 10
364.719
 20
278.527
 11
364.627
 21
278.547
  0
LINE
  8
0
 10
364.627
 20
278.547
 11
364.536
 21
278.573
  0
LINE
  8
0
 10
364.536
 20
278.573
 11
364.448
 21
278.605
  0
LINE
  8
0
 10
364.448
 20
278.605
 11
364.361
 21
278.643
  0
LINE
  8
0
 10
364.361
 20
278.643
 11
364.277
 21
278.686
  0
LINE
  8
0
 10
364.277
 20
278.686
 11
364.196
 21
278.734
  0
LINE
  8
0
 10
364.196
 20
278.734
 11
364.118
 21
278.786
  0
LINE
  8
0
 10
364.118
 20
278.786
 11
364.044
 21
278.844
  0
LINE
  8
0
 10
364.044
 20
278.844
 11
363.973
 21
278.907
  0
LINE
  8
0
 10
363.973
 20
278.907
 11
363.907
 21
278.973
  0
LINE
  8
0
 10
363.907
 20
278.973
 11
363.844
 21
279.044
  0
LINE
  8
0
 10
363.844
 20
279.044
 11
363.786
 21
279.118
  0
LINE
  8
0
 10
363.786
 20
279.118
 11
363.734
 21
279.196
  0
LINE
  8
0
 10
363.734
 20
279.196
 11
363.686
 21
279.277
  0
LINE
  8
0
 10
363.686
 20
279.277
 11
363.643
 21
279.361
  0
LINE
  8
0
 10
363.643
 20
279.361
 11
363.605
 21
279.448
  0
LINE
  8
0
 10
363.605
 20
279.448
 11
363.573
 21
279.536
  0
LINE
  8
0
 10
363.573
 20
279.536
 11
363.547
 21
279.627
  0
LINE
  8
0
 10
363.547
 20
279.627
 11
363.527
 21
279.719
  0
LINE
  8
0
 10
363.527
 20
279.719
 11
363.512
 21
279.812
  0
LINE
  8
0
 10
363.512
 20
279.812
 11
363.503
 21
279.906
  0
LINE
  8
0
 10
363.503
 20
279.906
 11
363.5
 21
280
  0
LINE
  8
0
 10
363.5
 20
280
 11
363.503
 21
280.094
  0
LINE
  8
0
 10
363.503
 20
280.094
 11
363.512
 21
280.188
  0
LINE
  8
0
 10
363.512
 20
280.188
 11
363.527
 21
280.281
  0
LINE
  8
0
 10
363.527
 20
280.281
 11
363.547
 21
280.373
  0
LINE
  8
0
 10
363.547
 20
280.373
 11
363.573
 21
280.464
  0
LINE
  8
0
 10
363.573
 20
280.464
 11
363.605
 21
280.552
  0
LINE
  8
0
 10
363.605
 20
280.552
 11
363.643
 21
280.639
  0
LINE
  8
0
 10
363.643
 20
280.639
 11
363.686
 21
280.723
  0
LINE
  8
0
 10
363.686
 20
280.723
 11
363.734
 21
280.804
  0
LINE
  8
0
 10
363.734
 20
280.804
 11
363.786
 21
280.882
  0
LINE
  8
0
 10
363.786
 20
280.882
 11
363.844
 21
280.956
  0
LINE
  8
0
 10
363.844
 20
280.956
 11
363.907
 21
281.027
  0
LINE
  8
0
 10
363.907
 20
281.027
 11
363.973
 21
281.093
  0
LINE
  8
0
 10
363.973
 20
281.093
 11
364.044
 21
281.156
  0
LINE
  8
0
 10
364.044
 20
281.156
 11
364.118
 21
281.214
  0
LINE
  8
0
 10
364.118
 20
281.214
 11
364.196
 21
281.266
  0
LINE
  8
0
 10
364.196
 20
281.266
 11
364.277
 21
281.314
  0
LINE
  8
0
 10
364.277
 20
281.314
 11
364.361
 21
281.357
  0
LINE
  8
0
 10
364.361
 20
281.357
 11
364.448
 21
281.395
  0
LINE
  8
0
 10
364.448
 20
281.395
 11
364.536
 21
281.427
  0
LINE
  8
0
 10
364.536
 20
281.427
 11
364.627
 21
281.453
  0
LINE
  8
0
 10
364.627
 20
281.453
 11
364.719
 21
281.473
  0
LINE
  8
0
 10
364.719
 20
281.473
 11
364.812
 21
281.488
  0
LINE
  8
0
 10
364.812
 20
281.488
 11
364.906
 21
281.497
  0
LINE
  8
0
 10
364.906
 20
281.497
 11
365
 21
281.5
  0
LINE
  8
0
 10
365
 20
281.5
 11
365.094
 21
281.497
  0
LINE
  8
0
 10
365.094
 20
281.497
 11
365.188
 21
281.488
  0
LINE
  8
0
 10
365.188
 20
281.488
 11
365.281
 21
281.473
  0
LINE
  8
0
 10
365.281
 20
281.473
 11
365.373
 21
281.453
  0
LINE
  8
0
 10
365.373
 20
281.453
 11
365.464
 21
281.427
  0
LINE
  8
0
 10
365.464
 20
281.427
 11
365.552
 21
281.395
  0
LINE
  8
0
 10
365.552
 20
281.395
 11
365.639
 21
281.357
  0
LINE
  8
0
 10
365.639
 20
281.357
 11
365.723
 21
281.314
  0
LINE
  8
0
 10
365.723
 20
281.314
 11
365.804
 21
281.266
  0
LINE
  8
0
 10
365.804
 20
281.266
 11
365.882
 21
281.214
  0
LINE
  8
0
 10
365.882
 20
281.214
 11
365.956
 21
281.156
  0
LINE
  8
0
 10
365.956
 20
281.156
 11
366.027
 21
281.093
  0
LINE
  8
0
 10
366.027
 20
281.093
 11
366.093
 21
281.027
  0
LINE
  8
0
 10
366.093
 20
281.027
 11
366.156
 21
280.956
  0
LINE
  8
0
 10
366.156
 20
280.956
 11
366.214
 21
280.882
  0
LINE
  8
0
 10
366.214
 20
280.882
 11
366.266
 21
280.804
  0
LINE
  8
0
 10
366.266
 20
280.804
 11
366.314
 21
280.723
  0
LINE
  8
0
 10
366.314
 20
280.723
 11
366.357
 21
280.639
  0
LINE
  8
0
 10
366.357
 20
280.639
 11
366.395
 21
280.552
  0
LINE
  8
0
 10
366.395
 20
280.552
 11
366.427
 21
280.464
  0
LINE
  8
0
 10
366.427
 20
280.464
 11
366.453
 21
280.373
  0
LINE
  8
0
 10
366.453
 20
280.373
 11
366.473
 21
280.281
  0
LINE
  8
0
 10
366.473
 20
280.281
 11
366.488
 21
280.188
  0
LINE
  8
0
 10
366.488
 20
280.188
 11
366.497
 21
280.094
  0
LINE
  8
0
 10
366.497
 20
280.094
 11
366.5
 21
280
  0
LINE
  8
0
 10
366.5
 20
280
 11
366.497
 21
279.906
  0
LINE
  8
0
 10
366.497
 20
279.906
 11
366.488
 21
279.812
  0
LINE
  8
0
 10
366.488
 20
279.812
 11
366.473
 21
279.719
  0
LINE
  8
0
 10
366.473
 20
279.719
 11
366.453
 21
279.627
  0
LINE
  8
0
 10
366.453
 20
279.627
 11
366.427
 21
279.536
  0
LINE
  8
0
 10
366.427
 20
279.536
 11
366.395
 21
279.448
  0
LINE
  8
0
 10
366.395
 20
279.448
 11
366.357
 21
279.361
  0
LINE
  8
0
 10
366.357
 20
279.361
 11
366.314
 21
279.277
  0
LINE
  8
0
 10
366.314
 20
279.277
 11
366.266
 21
279.196
  0
LINE
  8
0
 10
366.266
 20
279.196
 11
366.214
 21
279.118
  0
LINE
  8
0
 10
366.214
 20
279.118
 11
366.156
 21
279.044
  0
LINE
  8
0
 10
366.156
 20
279.044
 11
366.093
 21
278.973
  0
LINE
  8
0
 10
366.093
 20
278.973
 11
366.027
 21
278.907
  0
LINE
  8
0
 10
366.027
 20
278.907
 11
365.956
 21
278.844
  0
LINE
  8
0
 10
365.956
 20
278.844
 11
365.882
 21
278.786
  0
LINE
  8
0
 10
365.882
 20
278.786
 11
365.804
 21
278.734
  0
LINE
  8
0
 10
365.804
 20
278.734
 11
365.723
 21
278.686
  0
LINE
  8
0
 10
365.723
 20
278.686
 11
365.639
 21
278.643
  0
LINE
  8
0
 10
365.639
 20
278.643
 11
365.552
 21
278.605
  0
LINE
  8
0
 10
365.552
 20
278.605
 11
365.464
 21
278.573
  0
LINE
  8
0
 10
365.464
 20
278.573
 11
365.373
 21
278.547
  0
LINE
  8
0
 10
365.373
 20
278.547
 11
365.281
 21
278.527
  0
LINE
  8
0
 10
365.281
 20
278.527
 11
365.188
 21
278.512
  0
LINE
  8
0
 10
365.188
 20
278.512
 11
365.094
 21
278.503
  0
LINE
  8
0
 10
365.094
 20
278.503
 11
365
 21
278.5
  0
LINE
  8
0
 10
365
 20
278.5
 11
364.906
 21
278.503
  0
LINE
  8
0
 10
354.906
 20
18.503
 11
354.812
 21
18.5118
  0
LINE
  8
0
 10
354.812
 20
18.5118
 11
354.719
 21
18.5266
  0
LINE
  8
0
 10
354.719
 20
18.5266
 11
354.627
 21
18.5471
  0
LINE
  8
0
 10
354.627
 20
18.5471
 11
354.536
 21
18.5734
  0
LINE
  8
0
 10
354.536
 20
18.5734
 11
354.448
 21
18.6053
  0
LINE
  8
0
 10
354.448
 20
18.6053
 11
354.361
 21
18.6428
  0
LINE
  8
0
 10
354.361
 20
18.6428
 11
354.277
 21
18.6855
  0
LINE
  8
0
 10
354.277
 20
18.6855
 11
354.196
 21
18.7335
  0
LINE
  8
0
 10
354.196
 20
18.7335
 11
354.118
 21
18.7865
  0
LINE
  8
0
 10
354.118
 20
18.7865
 11
354.044
 21
18.8442
  0
LINE
  8
0
 10
354.044
 20
18.8442
 11
353.973
 21
18.9065
  0
LINE
  8
0
 10
353.973
 20
18.9065
 11
353.907
 21
18.9732
  0
LINE
  8
0
 10
353.907
 20
18.9732
 11
353.844
 21
19.0439
  0
LINE
  8
0
 10
353.844
 20
19.0439
 11
353.786
 21
19.1183
  0
LINE
  8
0
 10
353.786
 20
19.1183
 11
353.734
 21
19.1963
  0
LINE
  8
0
 10
353.734
 20
19.1963
 11
353.686
 21
19.2774
  0
LINE
  8
0
 10
353.686
 20
19.2774
 11
353.643
 21
19.3613
  0
LINE
  8
0
 10
353.643
 20
19.3613
 11
353.605
 21
19.4478
  0
LINE
  8
0
 10
353.605
 20
19.4478
 11
353.573
 21
19.5365
  0
LINE
  8
0
 10
353.573
 20
19.5365
 11
353.547
 21
19.627
  0
LINE
  8
0
 10
353.547
 20
19.627
 11
353.527
 21
19.7189
  0
LINE
  8
0
 10
353.527
 20
19.7189
 11
353.512
 21
19.812
  0
LINE
  8
0
 10
353.512
 20
19.812
 11
353.503
 21
19.9058
  0
LINE
  8
0
 10
353.503
 20
19.9058
 11
353.5
 21
20
  0
LINE
  8
0
 10
353.5
 20
20
 11
353.503
 21
20.0942
  0
LINE
  8
0
 10
353.503
 20
20.0942
 11
353.512
 21
20.188
  0
LINE
  8
0
 10
353.512
 20
20.188
 11
353.527
 21
20.2811
  0
LINE
  8
0
 10
353.527
 20
20.2811
 11
353.547
 21
20.373
  0
LINE
  8
0
 10
353.547
 20
20.373
 11
353.573
 21
20.4635
  0
LINE
  8
0
 10
353.573
 20
20.4635
 11
353.605
 21
20.5522
  0
LINE
  8
0
 10
353.605
 20
20.5522
 11
353.643
 21
20.6387
  0
LINE
  8
0
 10
353.643
 20
20.6387
 11
353.686
 21
20.7226
  0
LINE
  8
0
 10
353.686
 20
20.7226
 11
353.734
 21
20.8037
  0
LINE
  8
0
 10
353.734
 20
20.8037
 11
353.786
 21
20.8817
  0
LINE
  8
0
 10
353.786
 20
20.8817
 11
353.844
 21
20.9561
  0
LINE
  8
0
 10
353.844
 20
20.9561
 11
353.907
 21
21.0268
  0
LINE
  8
0
 10
353.907
 20
21.0268
 11
353.973
 21
21.0934
  0
LINE
  8
0
 10
353.973
 20
21.0934
 11
354.044
 21
21.1558
  0
LINE
  8
0
 10
354.044
 20
21.1558
 11
354.118
 21
21.2135
  0
LINE
  8
0
 10
354.118
 20
21.2135
 11
354.196
 21
21.2665
  0
LINE
  8
0
 10
354.196
 20
21.2665
 11
354.277
 21
21.3145
  0
LINE
  8
0
 10
354.277
 20
21.3145
 11
354.361
 21
21.3572
  0
LINE
  8
0
 10
354.361
 20
21.3572
 11
354.448
 21
21.3947
  0
LINE
  8
0
 10
354.448
 20
21.3947
 11
354.536
 21
21.4266
  0
LINE
  8
0
 10
354.536
 20
21.4266
 11
354.627
 21
21.4529
  0
LINE
  8
0
 10
354.627
 20
21.4529
 11
354.719
 21
21.4734
  0
LINE
  8
0
 10
354.719
 20
21.4734
 11
354.812
 21
21.4882
  0
LINE
  8
0
 10
354.812
 20
21.4882
 11
354.906
 21
21.497
  0
LINE
  8
0
 10
354.906
 20
21.497
 11
355
 21
21.5
  0
LINE
  8
0
 10
355
 20
21.5
 11
355.094
 21
21.497
  0
LINE
  8
0
 10
355.094
 20
21.497
 11
355.188
 21
21.4882
  0
LINE
  8
0
 10
355.188
 20
21.4882
 11
355.281
 21
21.4734
  0
LINE
  8
0
 10
355.281
 20
21.4734
 11
355.373
 21
21.4529
  0
LINE
  8
0
 10
355.373
 20
21.4529
 11
355.464
 21
21.4266
  0
LINE
  8
0
 10
355.464
 20
21.4266
 11
355.552
 21
21.3947
  0
LINE
  8
0
 10
355.552
 20
21.3947
 11
355.639
 21
21.3572
  0
LINE
  8
0
 10
355.639
 20
21.3572
 11
355.723
 21
21.3145
  0
LINE
  8
0
 10
355.723
 20
21.3145
 11
355.804
 21
21.2665
  0
LINE
  8
0
 10
355.804
 20
21.2665
 11
355.882
 21
21.2135
  0
LINE
  8
0
 10
355.882
 20
21.2135
 11
355.956
 21
21.1558
  0
LINE
  8
0
 10
355.956
 20
21.1558
 11
356.027
 21
21.0934
  0
LINE
  8
0
 10
356.027
 20
21.0934
 11
356.093
 21
21.0268
  0
LINE
  8
0
 10
356.093
 20
21.0268
 11
356.156
 21
20.9561
  0
LINE
  8
0
 10
356.156
 20
20.9561
 11
356.214
 21
20.8817
  0
LINE
  8
0
 10
356.214
 20
20.8817
 11
356.266
 21
20.8037
  0
LINE
  8
0
 10
356.266
 20
20.8037
 11
356.314
 21
20.7226
  0
LINE
  8
0
 10
356.314
 20
20.7226
 11
356.357
 21
20.6387
  0
LINE
  8
0
 10
356.357
 20
20.6387
 11
356.395
 21
20.5522
  0
LINE
  8
0
 10
356.395
 20
20.5522
 11
356.427
 21
20.4635
  0
LINE
  8
0
 10
356.427
 20
20.4635
 11
356.453
 21
20.373
  0
LINE
  8
0
 10
356.453
 20
20.373
 11
356.473
 21
20.2811
  0
LINE
  8
0
 10
356.473
 20
20.2811
 11
356.488
 21
20.188
  0
LINE
  8
0
 10
356.488
 20
20.188
 11
356.497
 21
20.0942
  0
LINE
  8
0
 10
356.497
 20
20.0942
 11
356.5
 21
20
  0
LINE
  8
0
 10
356.5
 20
20
 11
356.497
 21
19.9058
  0
LINE
  8
0
 10
356.497
 20
19.9058
 11
356.488
 21
19.812
  0
LINE
  8
0
 10
356.488
 20
19.812
 11
356.473
 21
19.7189
  0
LINE
  8
0
 10
356.473
 20
19.7189
 11
356.453
 21
19.627
  0
LINE
  8
0
 10
356.453
 20
19.627
 11
356.427
 21
19.5365
  0
LINE
  8
0
 10
356.427
 20
19.5365
 11
356.395
 21
19.4478
  0
LINE
  8
0
 10
356.395
 20
19.4478
 11
356.357
 21
19.3613
  0
LINE
  8
0
 10
356.357
 20
19.3613
 11
356.314
 21
19.2774
  0
LINE
  8
0
 10
356.314
 20
19.2774
 11
356.266
 21
19.1963
  0
LINE
  8
0
 10
356.266
 20
19.1963
 11
356.214
 21
19.1183
  0
LINE
  8
0
 10
356.214
 20
19.1183
 11
356.156
 21
19.0439
  0
LINE
  8
0
 10
356.156
 20
19.0439
 11
356.093
 21
18.9732
  0
LINE
  8
0
 10
356.093
 20
18.9732
 11
356.027
 21
18.9065
  0
LINE
  8
0
 10
356.027
 20
18.9065
 11
355.956
 21
18.8442
  0
LINE
  8
0
 10
355.956
 20
18.8442
 11
355.882
 21
18.7865
  0
LINE
  8
0
 10
355.882
 20
18.7865
 11
355.804
 21
18.7335
  0
LINE
  8
0
 10
355.804
 20
18.7335
 11
355.723
 21
18.6855
  0
LINE
  8
0
 10
355.723
 20
18.6855
 11
355.639
 21
18.6428
  0
LINE
  8
0
 10
355.639
 20
18.6428
 11
355.552
 21
18.6053
  0
LINE
  8
0
 10
355.552
 20
18.6053
 11
355.464
 21
18.5734
  0
LINE
  8
0
 10
355.464
 20
18.5734
 11
355.373
 21
18.5471
  0
LINE
  8
0
 10
355.373
 20
18.5471
 11
355.281
 21
18.5266
  0
LINE
  8
0
 10
355.281
 20
18.5266
 11
355.188
 21
18.5118
  0
LINE
  8
0
 10
355.188
 20
18.5118
 11
355.094
 21
18.503
  0
LINE
  8
0
 10
355.094
 20
18.503
 11
355
 21
18.5
  0
LINE
  8
0
 10
355
 20
18.5
 11
354.906
 21
18.503
  0
LINE
  8
0
 10
364.906
 20
18.503
 11
364.812
 21
18.5118
  0
LINE
  8
0
 10
364.812
 20
18.5118
 11
364.719
 21
18.5266
  0
LINE
  8
0
 10
364.719
 20
18.5266
 11
364.627
 21
18.5471
  0
LINE
  8
0
 10
364.627
 20
18.5471
 11
364.536
 21
18.5734
  0
LINE
  8
0
 10
364.536
 20
18.5734
 11
364.448
 21
18.6053
  0
LINE
  8
0
 10
364.448
 20
18.6053
 11
364.361
 21
18.6428
  0
LINE
  8
0
 10
364.361
 20
18.6428
 11
364.277
 21
18.6855
  0
LINE
  8
0
 10
364.277
 20
18.6855
 11
364.196
 21
18.7335
  0
LINE
  8
0
 10
364.196
 20
18.7335
 11
364.118
 21
18.7865
  0
LINE
  8
0
 10
364.118
 20
18.7865
 11
364.044
 21
18.8442
  0
LINE
  8
0
 10
364.044
 20
18.8442
 11
363.973
 21
18.9065
  0
LINE
  8
0
 10
363.973
 20
18.9065
 11
363.907
 21
18.9732
  0
LINE
  8
0
 10
363.907
 20
18.9732
 11
363.844
 21
19.0439
  0
LINE
  8
0
 10
363.844
 20
19.0439
 11
363.786
 21
19.1183
  0
LINE
  8
0
 10
363.786
 20
19.1183
 11
363.734
 21
19.1963
  0
LINE
  8
0
 10
363.734
 20
19.1963
 11
363.686
 21
19.2774
  0
LINE
  8
0
 10
363.686
 20
19.2774
 11
363.643
 21
19.3613
  0
LINE
  8
0
 10
363.643
 20
19.3613
 11
363.605
 21
19.4478
  0
LINE
  8
0
 10
363.605
 20
19.4478
 11
363.573
 21
19.5365
  0
LINE
  8
0
 10
363.573
 20
19.5365
 11
363.547
 21
19.627
  0
LINE
  8
0
 10
363.547
 20
19.627
 11
363.527
 21
19.7189
  0
LINE
  8
0
 10
363.527
 20
19.7189
 11
363.512
 21
19.812
  0
LINE
  8
0
 10
363.512
 20
19.812
 11
363.503
 21
19.9058
  0
LINE
  8
0
 10
363.503
 20
19.9058
 11
363.5
 21
20
  0
LINE
  8
0
 10
363.5
 20
20
 11
363.503
 21
20.0942
  0
LINE
  8
0
 10
363.503
 20
20.0942
 11
363.512
 21
20.188
  0
LINE
  8
0
 10
363.512
 20
20.188
 11
363.527
 21
20.2811
  0
LINE
  8
0
 10
363.527
 20
20.2811
 11
363.547
 21
20.373
  0
LINE
  8
0
 10
363.547
 20
20.373
 11
363.573
 21
20.4635
  0
LINE
  8
0
 10
363.573
 20
20.4635
 11
363.605
 21
20.5522
  0
LINE
  8
0
 10
363.605
 20
20.5522
 11
363.643
 21
20.6387
  0
LINE
  8
0
 10
363.643
 20
20.6387
 11
363.686
 21
20.7226
  0
LINE
  8
0
 10
363.686
 20
20.7226
 11
363.734
 21
20.8037
  0
LINE
  8
0
 10
363.734
 20
20.8037
 11
363.786
 21
20.8817
  0
LINE
  8
0
 10
363.786
 20
20.8817
 11
363.844
 21
20.9561
  0
LINE
  8
0
 10
363.844
 20
20.9561
 11
363.907
 21
21.0268
  0
LINE
  8
0
 10
363.907
 20
21.0268
 11
363.973
 21
21.0934
  0
LINE
  8
0
 10
363.973
 20
21.0934
 11
364.044
 21
21.1558
  0
LINE
  8
0
 10
364.044
 20
21.1558
 11
364.118
 21
21.2135
  0
LINE
  8
0
 10
364.118
 20
21.2135
 11
364.196
 21
21.2665
  0
LINE
  8
0
 10
364.196
 20
21.2665
 11
364.277
 21
21.3145
  0
LINE
  8
0
 10
364.277
 20
21.3145
 11
364.361
 21
21.3572
  0
LINE
  8
0
 10
364.361
 20
21.3572
 11
364.448
 21
21.3947
  0
LINE
  8
0
 10
364.448
 20
21.3947
 11
364.536
 21
21.4266
  0
LINE
  8
0
 10
364.536
 20
21.4266
 11
364.627
 21
21.4529
  0
LINE
  8
0
 10
364.627
 20
21.4529
 11
364.719
 21
21.4734
  0
LINE
  8
0
 10
364.719
 20
21.4734
 11
364.812
 21
21.4882
  0
LINE
  8
0
 10
364.812
 20
21.4882
 11
364.906
 21
21.497
  0
LINE
  8
0
 10
364.906
 20
21.497
 11
365
 21
21.5
  0
LINE
  8
0
 10
365
 20
21.5
 11
365.094
 21
21.497
  0
LINE
  8
0
 10
365.094
 20
21.497
 11
365.188
 21
21.4882
  0
LINE
  8
0
 10
365.188
 20
21.4882
 11
365.281
 21
21.4734
  0
LINE
  8
0
 10
365.281
 20
21.4734
 11
365.373
 21
21.4529
  0
LINE
  8
0
 10
365.373
 20
21.4529
 11
365.464
 21
21.4266
  0
LINE
  8
0
 10
365.464
 20
21.4266
 11
365.552
 21
21.3947
  0
LINE
  8
0
 10
365.552
 20
21.3947
 11
365.639
 21
21.3572
  0
LINE
  8
0
 10
365.639
 20
21.3572
 11
365.723
 21
21.3145
  0
LINE
  8
0
 10
365.723
 20
21.3145
 11
365.804
 21
21.2665
  0
LINE
  8
0
 10
365.804
 20
21.2665
 11
365.882
 21
21.2135
  0
LINE
  8
0
 10
365.882
 20
21.2135
 11
365.956
 21
21.1558
  0
LINE
  8
0
 10
365.956
 20
21.1558
 11
366.027
 21
21.0934
  0
LINE
  8
0
 10
366.027
 20
21.0934
 11
366.093
 21
21.0268
  0
LINE
  8
0
 10
366.093
 20
21.0268
 11
366.156
 21
20.9561
  0
LINE
  8
0
 10
366.156
 20
20.9561
 11
366.214
 21
20.8817
  0
LINE
  8
0
 10
366.214
 20
20.8817
 11
366.266
 21
20.8037
  0
LINE
  8
0
 10
366.266
 20
20.8037
 11
366.314
 21
20.7226
  0
LINE
  8
0
 10
366.314
 20
20.7226
 11
366.357
 21
20.6387
  0
LINE
  8
0
 10
366.357
 20
20.6387
 11
366.395
 21
20.5522
  0
LINE
  8
0
 10
366.395
 20
20.5522
 11
366.427
 21
20.4635
  0
LINE
  8
0
 10
366.427
 20
20.4635
 11
366.453
 21
20.373
  0
LINE
  8
0
 10
366.453
 20
20.373
 11
366.473
 21
20.2811
  0
LINE
  8
0
 10
366.473
 20
20.2811
 11
366.488
 21
20.188
  0
LINE
  8
0
 10
366.488
 20
20.188
 11
366.497
 21
20.0942
  0
LINE
  8
0
 10
366.497
 20
20.0942
 11
366.5
 21
20
  0
LINE
  8
0
 10
366.5
 20
20
 11
366.497
 21
19.9058
  0
LINE
  8
0
 10
366.497
 20
19.9058
 11
366.488
 21
19.812
  0
LINE
  8
0
 10
366.488
 20
19.812
 11
366.473
 21
19.7189
  0
LINE
  8
0
 10
366.473
 20
19.7189
 11
366.453
 21
19.627
  0
LINE
  8
0
 10
366.453
 20
19.627
 11
366.427
 21
19.5365
  0
LINE
  8
0
 10
366.427
 20
19.5365
 11
366.395
 21
19.4478
  0
LINE
  8
0
 10
366.395
 20
19.4478
 11
366.357
 21
19.3613
  0
LINE
  8
0
 10
366.357
 20
19.3613
 11
366.314
 21
19.2774
  0
LINE
  8
0
 10
366.314
 20
19.2774
 11
366.266
 21
19.1963
  0
LINE
  8
0
 10
366.266
 20
19.1963
 11
366.214
 21
19.1183
  0
LINE
  8
0
 10
366.214
 20
19.1183
 11
366.156
 21
19.0439
  0
LINE
  8
0
 10
366.156
 20
19.0439
 11
366.093
 21
18.9732
  0
LINE
  8
0
 10
366.093
 20
18.9732
 11
366.027
 21
18.9065
  0
LINE
  8
0
 10
366.027
 20
18.9065
 11
365.956
 21
18.8442
  0
LINE
  8
0
 10
365.956
 20
18.8442
 11
365.882
 21
18.7865
  0
LINE
  8
0
 10
365.882
 20
18.7865
 11
365.804
 21
18.7335
  0
LINE
  8
0
 10
365.804
 20
18.7335
 11
365.723
 21
18.6855
  0
LINE
  8
0
 10
365.723
 20
18.6855
 11
365.639
 21
18.6428
  0
LINE
  8
0
 10
365.639
 20
18.6428
 11
365.552
 21
18.6053
  0
LINE
  8
0
 10
365.552
 20
18.6053
 11
365.464
 21
18.5734
  0
LINE
  8
0
 10
365.464
 20
18.5734
 11
365.373
 21
18.5471
  0
LINE
  8
0
 10
365.373
 20
18.5471
 11
365.281
 21
18.5266
  0
LINE
  8
0
 10
365.281
 20
18.5266
 11
365.188
 21
18.5118
  0
LINE
  8
0
 10
365.188
 20
18.5118
 11
365.094
 21
18.503
  0
LINE
  8
0
 10
365.094
 20
18.503
 11
365
 21
18.5
  0
LINE
  8
0
 10
365
 20
18.5
 11
364.906
 21
18.503
  0
LINE
  8
0
 10
284
 20
300
 11
126
 21
300
  0
LINE
  8
0
 10
126
 20
300
 11
126
 21
0
  0
LINE
  8
0
 10
126
 20
0
 11
284
 21
0
  0
LINE
  8
0
 10
284
 20
0
 11
284
 21
300
  0
LINE
  8
0
 10
160.874
 20
258.004
 11
160.749
 21
258.016
  0
LINE
  8
0
 10
160.749
 20
258.016
 11
160.625
 21
258.035
  0
LINE
  8
0
 10
160.625
 20
258.035
 11
160.503
 21
258.063
  0
LINE
  8
0
 10
160.503
 20
258.063
 11
160.382
 21
258.098
  0
LINE
  8
0
 10
160.382
 20
258.098
 11
160.264
 21
258.14
  0
LINE
  8
0
 10
160.264
 20
258.14
 11
160.148
 21
258.19
  0
LINE
  8
0
 10
160.148
 20
258.19
 11
160.036
 21
258.247
  0
LINE
  8
0
 10
160.036
 20
258.247
 11
159.928
 21
258.311
  0
LINE
  8
0
 10
159.928
 20
258.311
 11
159.824
 21
258.382
  0
LINE
  8
0
 10
159.824
 20
258.382
 11
159.725
 21
258.459
  0
LINE
  8
0
 10
159.725
 20
258.459
 11
159.631
 21
258.542
  0
LINE
  8
0
 10
159.631
 20
258.542
 11
159.542
 21
258.631
  0
LINE
  8
0
 10
159.542
 20
258.631
 11
159.459
 21
258.725
  0
LINE
  8
0
 10
159.459
 20
258.725
 11
159.382
 21
258.824
  0
LINE
  8
0
 10
159.382
 20
258.824
 11
159.311
 21
258.928
  0
LINE
  8
0
 10
159.311
 20
258.928
 11
159.247
 21
259.036
  0
LINE
  8
0
 10
159.247
 20
259.036
 11
159.19
 21
259.148
  0
LINE
  8
0
 10
159.19
 20
259.148
 11
159.14
 21
259.264
  0
LINE
  8
0
 10
159.14
 20
259.264
 11
159.098
 21
259.382
  0
LINE
  8
0
 10
159.098
 20
259.382
 11
159.063
 21
259.503
  0
LINE
  8
0
 10
159.063
 20
259.503
 11
159.035
 21
259.625
  0
LINE
  8
0
 10
159.035
 20
259.625
 11
159.016
 21
259.749
  0
LINE
  8
0
 10
159.016
 20
259.749
 11
159.004
 21
259.874
  0
LINE
  8
0
 10
159.004
 20
259.874
 11
159
 21
260
  0
LINE
  8
0
 10
159
 20
260
 11
159.004
 21
260.126
  0
LINE
  8
0
 10
159.004
 20
260.126
 11
159.016
 21
260.251
  0
LINE
  8
0
 10
159.016
 20
260.251
 11
159.035
 21
260.375
  0
LINE
  8
0
 10
159.035
 20
260.375
 11
159.063
 21
260.497
  0
LINE
  8
0
 10
159.063
 20
260.497
 11
159.098
 21
260.618
  0
LINE
  8
0
 10
159.098
 20
260.618
 11
159.14
 21
260.736
  0
LINE
  8
0
 10
159.14
 20
260.736
 11
159.19
 21
260.852
  0
LINE
  8
0
 10
159.19
 20
260.852
 11
159.247
 21
260.964
  0
LINE
  8
0
 10
159.247
 20
260.964
 11
159.311
 21
261.072
  0
LINE
  8
0
 10
159.311
 20
261.072
 11
159.382
 21
261.176
  0
LINE
  8
0
 10
159.382
 20
261.176
 11
159.459
 21
261.275
  0
LINE
  8
0
 10
159.459
 20
261.275
 11
159.542
 21
261.369
  0
LINE
  8
0
 10
159.542
 20
261.369
 11
159.631
 21
261.458
  0
LINE
  8
0
 10
159.631
 20
261.458
 11
159.725
 21
261.541
  0
LINE
  8
0
 10
159.725
 20
261.541
 11
159.824
 21
261.618
  0
LINE
  8
0
 10
159.824
 20
261.618
 11
159.928
 21
261.689
  0
LINE
  8
0
 10
159.928
 20
261.689
 11
160.036
 21
261.753
  0
LINE
  8
0
 10
160.036
 20
261.753
 11
160.148
 21
261.81
  0
LINE
  8
0
 10
160.148
 20
261.81
 11
160.264
 21
261.86
  0
LINE
  8
0
 10
160.264
 20
261.86
 11
160.382
 21
261.902
  0
LINE
  8
0
 10
160.382
 20
261.902
 11
160.503
 21
261.937
  0
LINE
  8
0
 10
160.503
 20
261.937
 11
160.625
 21
261.965
  0
LINE
  8
0
 10
160.625
 20
261.965
 11
160.749
 21
261.984
  0
LINE
  8
0
 10
160.749
 20
261.984
 11
160.874
 21
261.996
  0
LINE
  8
0
 10
160.874
 20
261.996
 11
161
 21
262
  0
LINE
  8
0
 10
161
 20
262
 11
161.126
 21
261.996
  0
LINE
  8
0
 10
161.126
 20
261.996
 11
161.251
 21
261.984
  0
LINE
  8
0
 10
161.251
 20
261.984
 11
161.375
 21
261.965
  0
LINE
  8
0
 10
161.375
 20
261.965
 11
161.497
 21
261.937
  0
LINE
  8
0
 10
161.497
 20
261.937
 11
161.618
 21
261.902
  0
LINE
  8
0
 10
161.618
 20
261.902
 11
161.736
 21
261.86
  0
LINE
  8
0
 10
161.736
 20
261.86
 11
161.852
 21
261.81
  0
LINE
  8
0
 10
161.852
 20
261.81
 11
161.964
 21
261.753
  0
LINE
  8
0
 10
161.964
 20
261.753
 11
162.072
 21
261.689
  0
LINE
  8
0
 10
162.072
 20
261.689
 11
162.176
 21
261.618
  0
LINE
  8
0
 10
162.176
 20
261.618
 11
162.275
 21
261.541
  0
LINE
  8
0
 10
162.275
 20
261.541
 11
162.369
 21
261.458
  0
LINE
  8
0
 10
162.369
 20
261.458
 11
162.458
 21
261.369
  0
LINE
  8
0
 10
162.458
 20
261.369
 11
162.541
 21
261.275
  0
LINE
  8
0
 10
162.541
 20
261.275
 11
162.618
 21
261.176
  0
LINE
  8
0
 10
162.618
 20
261.176
 11
162.689
 21
261.072
  0
LINE
  8
0
 10
162.689
 20
261.072
 11
162.753
 21
260.964
  0
LINE
  8
0
 10
162.753
 20
260.964
 11
162.81
 21
260.852
  0
LINE
  8
0
 10
162.81
 20
260.852
 11
162.86
 21
260.736
  0
LINE
  8
0
 10
162.86
 20
260.736
 11
162.902
 21
260.618
  0
LINE
  8
0
 10
162.902
 20
260.618
 11
162.937
 21
260.497
  0
LINE
  8
0
 10
162.937
 20
260.497
 11
162.965
 21
260.375
  0
LINE
  8
0
 10
162.965
 20
260.375
 11
162.984
 21
260.251
  0
LINE
  8
0
 10
162.984
 20
260.251
 11
162.996
 21
260.126
  0
LINE
  8
0
 10
162.996
 20
260.126
 11
163
 21
260
  0
LINE
  8
0
 10
163
 20
260
 11
162.996
 21
259.874
  0
LINE
  8
0
 10
162.996
 20
259.874
 11
162.984
 21
259.749
  0
LINE
  8
0
 10
162.984
 20
259.749
 11
162.965
 21
259.625
  0
LINE
  8
0
 10
162.965
 20
259.625
 11
162.937
 21
259.503
  0
LINE
  8
0
 10
162.937
 20
259.503
 11
162.902
 21
259.382
  0
LINE
  8
0
 10
162.902
 20
259.382
 11
162.86
 21
259.264
  0
LINE
  8
0
 10
162.86
 20
259.264
 11
162.81
 21
259.148
  0
LINE
  8
0
 10
162.81
 20
259.148
 11
162.753
 21
259.036
  0
LINE
  8
0
 10
162.753
 20
259.036
 11
162.689
 21
258.928
  0
LINE
  8
0
 10
162.689
 20
258.928
 11
162.618
 21
258.824
  0
LINE
  8
0
 10
162.618
 20
258.824
 11
162.541
 21
258.725
  0
LINE
  8
0
 10
162.541
 20
258.725
 11
162.458
 21
258.631
  0
LINE
  8
0
 10
162.458
 20
258.631
 11
162.369
 21
258.542
  0
LINE
  8
0
 10
162.369
 20
258.542
 11
162.275
 21
258.459
  0
LINE
  8
0
 10
162.275
 20
258.459
 11
162.176
 21
258.382
  0
LINE
  8
0
 10
162.176
 20
258.382
 11
162.072
 21
258.311
  0
LINE
  8
0
 10
162.072
 20
258.311
 11
161.964
 21
258.247
  0
LINE
  8
0
 10
161.964
 20
258.247
 11
161.852
 21
258.19
  0
LINE
  8
0
 10
161.852
 20
258.19
 11
161.736
 21
258.14
  0
LINE
  8
0
 10
161.736
 20
258.14
 11
161.618
 21
258.098
  0
LINE
  8
0
 10
161.618
 20
258.098
 11
161.497
 21
258.063
  0
LINE
  8
0
 10
161.497
 20
258.063
 11
161.375
 21
258.035
  0
LINE
  8
0
 10
161.375
 20
258.035
 11
161.251
 21
258.016
  0
LINE
  8
0
 10
161.251
 20
258.016
 11
161.126
 21
258.004
  0
LINE
  8
0
 10
161.126
 20
258.004
 11
161
 21
258
  0
LINE
  8
0
 10
161
 20
258
 11
160.874
 21
258.004
  0
LINE
  8
0
 10
248.874
 20
258.004
 11
248.749
 21
258.016
  0
LINE
  8
0
 10
248.749
 20
258.016
 11
248.625
 21
258.035
  0
LINE
  8
0
 10
248.625
 20
258.035
 11
248.503
 21
258.063
  0
LINE
  8
0
 10
248.503
 20
258.063
 11
248.382
 21
258.098
  0
LINE
  8
0
 10
248.382
 20
258.098
 11
248.264
 21
258.14
  0
LINE
  8
0
 10
248.264
 20
258.14
 11
248.148
 21
258.19
  0
LINE
  8
0
 10
248.148
 20
258.19
 11
248.036
 21
258.247
  0
LINE
  8
0
 10
248.036
 20
258.247
 11
247.928
 21
258.311
  0
LINE
  8
0
 10
247.928
 20
258.311
 11
247.824
 21
258.382
  0
LINE
  8
0
 10
247.824
 20
258.382
 11
247.725
 21
258.459
  0
LINE
  8
0
 10
247.725
 20
258.459
 11
247.631
 21
258.542
  0
LINE
  8
0
 10
247.631
 20
258.542
 11
247.542
 21
258.631
  0
LINE
  8
0
 10
247.542
 20
258.631
 11
247.459
 21
258.725
  0
LINE
  8
0
 10
247.459
 20
258.725
 11
247.382
 21
258.824
  0
LINE
  8
0
 10
247.382
 20
258.824
 11
247.311
 21
258.928
  0
LINE
  8
0
 10
247.311
 20
258.928
 11
247.247
 21
259.036
  0
LINE
  8
0
 10
247.247
 20
259.036
 11
247.19
 21
259.148
  0
LINE
  8
0
 10
247.19
 20
259.148
 11
247.14
 21
259.264
  0
LINE
  8
0
 10
247.14
 20
259.264
 11
247.098
 21
259.382
  0
LINE
  8
0
 10
247.098
 20
259.382
 11
247.063
 21
259.503
  0
LINE
  8
0
 10
247.063
 20
259.503
 11
247.035
 21
259.625
  0
LINE
  8
0
 10
247.035
 20
259.625
 11
247.016
 21
259.749
  0
LINE
  8
0
 10
247.016
 20
259.749
 11
247.004
 21
259.874
  0
LINE
  8
0
 10
247.004
 20
259.874
 11
247
 21
260
  0
LINE
  8
0
 10
247
 20
260
 11
247.004
 21
260.126
  0
LINE
  8
0
 10
247.004
 20
260.126
 11
247.016
 21
260.251
  0
LINE
  8
0
 10
247.016
 20
260.251
 11
247.035
 21
260.375
  0
LINE
  8
0
 10
247.035
 20
260.375
 11
247.063
 21
260.497
  0
LINE
  8
0
 10
247.063
 20
260.497
 11
247.098
 21
260.618
  0
LINE
  8
0
 10
247.098
 20
260.618
 11
247.14
 21
260.736
  0
LINE
  8
0
 10
247.14
 20
260.736
 11
247.19
 21
260.852
  0
LINE
  8
0
 10
247.19
 20
260.852
 11
247.247
 21
260.964
  0
LINE
  8
0
 10
247.247
 20
260.964
 11
247.311
 21
261.072
  0
LINE
  8
0
 10
247.311
 20
261.072
 11
247.382
 21
261.176
  0
LINE
  8
0
 10
247.382
 20
261.176
 11
247.459
 21
261.275
  0
LINE
  8
0
 10
247.459
 20
261.275
 11
247.542
 21
261.369
  0
LINE
  8
0
 10
247.542
 20
261.369
 11
247.631
 21
261.458
  0
LINE
  8
0
 10
247.631
 20
261.458
 11
247.725
 21
261.541
  0
LINE
  8
0
 10
247.725
 20
261.541
 11
247.824
 21
261.618
  0
LINE
  8
0
 10
247.824
 20
261.618
 11
247.928
 21
261.689
  0
LINE
  8
0
 10
247.928
 20
261.689
 11
248.036
 21
261.753
  0
LINE
  8
0
 10
248.036
 20
261.753
 11
248.148
 21
261.81
  0
LINE
  8
0
 10
248.148
 20
261.81
 11
248.264
 21
261.86
  0
LINE
  8
0
 10
248.264
 20
261.86
 11
248.382
 21
261.902
  0
LINE
  8
0
 10
248.382
 20
261.902
 11
248.503
 21
261.937
  0
LINE
  8
0
 10
248.503
 20
261.937
 11
248.625
 21
261.965
  0
LINE
  8
0
 10
248.625
 20
261.965
 11
248.749
 21
261.984
  0
LINE
  8
0
 10
248.749
 20
261.984
 11
248.874
 21
261.996
  0
LINE
  8
0
 10
248.874
 20
261.996
 11
249
 21
262
  0
LINE
  8
0
 10
249
 20
262
 11
249.126
 21
261.996
  0
LINE
  8
0
 10
249.126
 20
261.996
 11
249.251
 21
261.984
  0
LINE
  8
0
 10
249.251
 20
261.984
 11
249.375
 21
261.965
  0
LINE
  8
0
 10
249.375
 20
261.965
 11
249.497
 21
261.937
  0
LINE
  8
0
 10
249.497
 20
261.937
 11
249.618
 21
261.902
  0
LINE
  8
0
 10
249.618
 20
261.902
 11
249.736
 21
261.86
  0
LINE
  8
0
 10
249.736
 20
261.86
 11
249.852
 21
261.81
  0
LINE
  8
0
 10
249.852
 20
261.81
 11
249.964
 21
261.753
  0
LINE
  8
0
 10
249.964
 20
261.753
 11
250.072
 21
261.689
  0
LINE
  8
0
 10
250.072
 20
261.689
 11
250.176
 21
261.618
  0
LINE
  8
0
 10
250.176
 20
261.618
 11
250.275
 21
261.541
  0
LINE
  8
0
 10
250.275
 20
261.541
 11
250.369
 21
261.458
  0
LINE
  8
0
 10
250.369
 20
261.458
 11
250.458
 21
261.369
  0
LINE
  8
0
 10
250.458
 20
261.369
 11
250.541
 21
261.275
  0
LINE
  8
0
 10
250.541
 20
261.275
 11
250.618
 21
261.176
  0
LINE
  8
0
 10
250.618
 20
261.176
 11
250.689
 21
261.072
  0
LINE
  8
0
 10
250.689
 20
261.072
 11
250.753
 21
260.964
  0
LINE
  8
0
 10
250.753
 20
260.964
 11
250.81
 21
260.852
  0
LINE
  8
0
 10
250.81
 20
260.852
 11
250.86
 21
260.736
  0
LINE
  8
0
 10
250.86
 20
260.736
 11
250.902
 21
260.618
  0
LINE
  8
0
 10
250.902
 20
260.618
 11
250.937
 21
260.497
  0
LINE
  8
0
 10
250.937
 20
260.497
 11
250.965
 21
260.375
  0
LINE
  8
0
 10
250.965
 20
260.375
 11
250.984
 21
260.251
  0
LINE
  8
0
 10
250.984
 20
260.251
 11
250.996
 21
260.126
  0
LINE
  8
0
 10
250.996
 20
260.126
 11
251
 21
260
  0
LINE
  8
0
 10
251
 20
260
 11
250.996
 21
259.874
  0
LINE
  8
0
 10
250.996
 20
259.874
 11
250.984
 21
259.749
  0
LINE
  8
0
 10
250.984
 20
259.749
 11
250.965
 21
259.625
  0
LINE
  8
0
 10
250.965
 20
259.625
 11
250.937
 21
259.503
  0
LINE
  8
0
 10
250.937
 20
259.503
 11
250.902
 21
259.382
  0
LINE
  8
0
 10
250.902
 20
259.382
 11
250.86
 21
259.264
  0
LINE
  8
0
 10
250.86
 20
259.264
 11
250.81
 21
259.148
  0
LINE
  8
0
 10
250.81
 20
259.148
 11
250.753
 21
259.036
  0
LINE
  8
0
 10
250.753
 20
259.036
 11
250.689
 21
258.928
  0
LINE
  8
0
 10
250.689
 20
258.928
 11
250.618
 21
258.824
  0
LINE
  8
0
 10
250.618
 20
258.824
 11
250.541
 21
258.725
  0
LINE
  8
0
 10
250.541
 20
258.725
 11
250.458
 21
258.631
  0
LINE
  8
0
 10
250.458
 20
258.631
 11
250.369
 21
258.542
  0
LINE
  8
0
 10
250.369
 20
258.542
 11
250.275
 21
258.459
  0
LINE
  8
0
 10
250.275
 20
258.459
 11
250.176
 21
258.382
  0
LINE
  8
0
 10
250.176
 20
258.382
 11
250.072
 21
258.311
  0
LINE
  8
0
 10
250.072
 20
258.311
 11
249.964
 21
258.247
  0
LINE
  8
0
 10
249.964
 20
258.247
 11
249.852
 21
258.19
  0
LINE
  8
0
 10
249.852
 20
258.19
 11
249.736
 21
258.14
  0
LINE
  8
0
 10
249.736
 20
258.14
 11
249.618
 21
258.098
  0
LINE
  8
0
 10
249.618
 20
258.098
 11
249.497
 21
258.063
  0
LINE
  8
0
 10
249.497
 20
258.063
 11
249.375
 21
258.035
  0
LINE
  8
0
 10
249.375
 20
258.035
 11
249.251
 21
258.016
  0
LINE
  8
0
 10
249.251
 20
258.016
 11
249.126
 21
258.004
  0
LINE
  8
0
 10
249.126
 20
258.004
 11
249
 21
258
  0
LINE
  8
0
 10
249
 20
258
 11
248.874
 21
258.004
  0
LINE
  8
0
 10
248.874
 20
38.0039
 11
248.749
 21
38.0158
  0
LINE
  8
0
 10
248.749
 20
38.0158
 11
248.625
 21
38.0354
  0
LINE
  8
0
 10
248.625
 20
38.0354
 11
248.503
 21
38.0628
  0
LINE
  8
0
 10
248.503
 20
38.0628
 11
248.382
 21
38.0979
  0
LINE
  8
0
 10
248.382
 20
38.0979
 11
248.264
 21
38.1404
  0
LINE
  8
0
 10
248.264
 20
38.1404
 11
248.148
 21
38.1903
  0
LINE
  8
0
 10
248.148
 20
38.1903
 11
248.036
 21
38.2474
  0
LINE
  8
0
 10
248.036
 20
38.2474
 11
247.928
 21
38.3113
  0
LINE
  8
0
 10
247.928
 20
38.3113
 11
247.824
 21
38.382
  0
LINE
  8
0
 10
247.824
 20
38.382
 11
247.725
 21
38.459
  0
LINE
  8
0
 10
247.725
 20
38.459
 11
247.631
 21
38.5421
  0
LINE
  8
0
 10
247.631
 20
38.5421
 11
247.542
 21
38.6309
  0
LINE
  8
0
 10
247.542
 20
38.6309
 11
247.459
 21
38.7251
  0
LINE
  8
0
 10
247.459
 20
38.7251
 11
247.382
 21
38.8244
  0
LINE
  8
0
 10
247.382
 20
38.8244
 11
247.311
 21
38.9283
  0
LINE
  8
0
 10
247.311
 20
38.9283
 11
247.247
 21
39.0365
  0
LINE
  8
0
 10
247.247
 20
39.0365
 11
247.19
 21
39.1484
  0
LINE
  8
0
 10
247.19
 20
39.1484
 11
247.14
 21
39.2637
  0
LINE
  8
0
 10
247.14
 20
39.2637
 11
247.098
 21
39.382
  0
LINE
  8
0
 10
247.098
 20
39.382
 11
247.063
 21
39.5026
  0
LINE
  8
0
 10
247.063
 20
39.5026
 11
247.035
 21
39.6252
  0
LINE
  8
0
 10
247.035
 20
39.6252
 11
247.016
 21
39.7493
  0
LINE
  8
0
 10
247.016
 20
39.7493
 11
247.004
 21
39.8744
  0
LINE
  8
0
 10
247.004
 20
39.8744
 11
247
 21
40
  0
LINE
  8
0
 10
247
 20
40
 11
247.004
 21
40.1256
  0
LINE
  8
0
 10
247.004
 20
40.1256
 11
247.016
 21
40.2507
  0
LINE
  8
0
 10
247.016
 20
40.2507
 11
247.035
 21
40.3748
  0
LINE
  8
0
 10
247.035
 20
40.3748
 11
247.063
 21
40.4974
  0
LINE
  8
0
 10
247.063
 20
40.4974
 11
247.098
 21
40.618
  0
LINE
  8
0
 10
247.098
 20
40.618
 11
247.14
 21
40.7363
  0
LINE
  8
0
 10
247.14
 20
40.7363
 11
247.19
 21
40.8515
  0
LINE
  8
0
 10
247.19
 20
40.8515
 11
247.247
 21
40.9635
  0
LINE
  8
0
 10
247.247
 20
40.9635
 11
247.311
 21
41.0717
  0
LINE
  8
0
 10
247.311
 20
41.0717
 11
247.382
 21
41.1756
  0
LINE
  8
0
 10
247.382
 20
41.1756
 11
247.459
 21
41.2748
  0
LINE
  8
0
 10
247.459
 20
41.2748
 11
247.542
 21
41.3691
  0
LINE
  8
0
 10
247.542
 20
41.3691
 11
247.631
 21
41.4579
  0
LINE
  8
0
 10
247.631
 20
41.4579
 11
247.725
 21
41.541
  0
LINE
  8
0
 10
247.725
 20
41.541
 11
247.824
 21
41.618
  0
LINE
  8
0
 10
247.824
 20
41.618
 11
247.928
 21
41.6886
  0
LINE
  8
0
 10
247.928
 20
41.6886
 11
248.036
 21
41.7526
  0
LINE
  8
0
 10
248.036
 20
41.7526
 11
248.148
 21
41.8096
  0
LINE
  8
0
 10
248.148
 20
41.8096
 11
248.264
 21
41.8595
  0
LINE
  8
0
 10
248.264
 20
41.8595
 11
248.382
 21
41.9021
  0
LINE
  8
0
 10
248.382
 20
41.9021
 11
248.503
 21
41.9372
  0
LINE
  8
0
 10
248.503
 20
41.9372
 11
248.625
 21
41.9646
  0
LINE
  8
0
 10
248.625
 20
41.9646
 11
248.749
 21
41.9842
  0
LINE
  8
0
 10
248.749
 20
41.9842
 11
248.874
 21
41.996
  0
LINE
  8
0
 10
248.874
 20
41.996
 11
249
 21
42
  0
LINE
  8
0
 10
249
 20
42
 11
249.126
 21
41.996
  0
LINE
  8
0
 10
249.126
 20
41.996
 11
249.251
 21
41.9842
  0
LINE
  8
0
 10
249.251
 20
41.9842
 11
249.375
 21
41.9646
  0
LINE
  8
0
 10
249.375
 20
41.9646
 11
249.497
 21
41.9372
  0
LINE
  8
0
 10
249.497
 20
41.9372
 11
249.618
 21
41.9021
  0
LINE
  8
0
 10
249.618
 20
41.9021
 11
249.736
 21
41.8595
  0
LINE
  8
0
 10
249.736
 20
41.8595
 11
249.852
 21
41.8096
  0
LINE
  8
0
 10
249.852
 20
41.8096
 11
249.964
 21
41.7526
  0
LINE
  8
0
 10
249.964
 20
41.7526
 11
250.072
 21
41.6886
  0
LINE
  8
0
 10
250.072
 20
41.6886
 11
250.176
 21
41.618
  0
LINE
  8
0
 10
250.176
 20
41.618
 11
250.275
 21
41.541
  0
LINE
  8
0
 10
250.275
 20
41.541
 11
250.369
 21
41.4579
  0
LINE
  8
0
 10
250.369
 20
41.4579
 11
250.458
 21
41.3691
  0
LINE
  8
0
 10
250.458
 20
41.3691
 11
250.541
 21
41.2748
  0
LINE
  8
0
 10
250.541
 20
41.2748
 11
250.618
 21
41.1756
  0
LINE
  8
0
 10
250.618
 20
41.1756
 11
250.689
 21
41.0717
  0
LINE
  8
0
 10
250.689
 20
41.0717
 11
250.753
 21
40.9635
  0
LINE
  8
0
 10
250.753
 20
40.9635
 11
250.81
 21
40.8515
  0
LINE
  8
0
 10
250.81
 20
40.8515
 11
250.86
 21
40.7363
  0
LINE
  8
0
 10
250.86
 20
40.7363
 11
250.902
 21
40.618
  0
LINE
  8
0
 10
250.902
 20
40.618
 11
250.937
 21
40.4974
  0
LINE
  8
0
 10
250.937
 20
40.4974
 11
250.965
 21
40.3748
  0
LINE
  8
0
 10
250.965
 20
40.3748
 11
250.984
 21
40.2507
  0
LINE
  8
0
 10
250.984
 20
40.2507
 11
250.996
 21
40.1256
  0
LINE
  8
0
 10
250.996
 20
40.1256
 11
251
 21
40
  0
LINE
  8
0
 10
251
 20
40
 11
250.996
 21
39.8744
  0
LINE
  8
0
 10
250.996
 20
39.8744
 11
250.984
 21
39.7493
  0
LINE
  8
0
 10
250.984
 20
39.7493
 11
250.965
 21
39.6252
  0
LINE
  8
0
 10
250.965
 20
39.6252
 11
250.937
 21
39.5026
  0
LINE
  8
0
 10
250.937
 20
39.5026
 11
250.902
 21
39.382
  0
LINE
  8
0
 10
250.902
 20
39.382
 11
250.86
 21
39.2637
  0
LINE
  8
0
 10
250.86
 20
39.2637
 11
250.81
 21
39.1484
  0
LINE
  8
0
 10
250.81
 20
39.1484
 11
250.753
 21
39.0365
  0
LINE
  8
0
 10
250.753
 20
39.0365
 11
250.689
 21
38.9283
  0
LINE
  8
0
 10
250.689
 20
38.9283
 11
250.618
 21
38.8244
  0
LINE
  8
0
 10
250.618
 20
38.8244
 11
250.541
 21
38.7251
  0
LINE
  8
0
 10
250.541
 20
38.7251
 11
250.458
 21
38.6309
  0
LINE
  8
0
 10
250.458
 20
38.6309
 11
250.369
 21
38.5421
  0
LINE
  8
0
 10
250.369
 20
38.5421
 11
250.275
 21
38.459
  0
LINE
  8
0
 10
250.275
 20
38.459
 11
250.176
 21
38.382
  0
LINE
  8
0
 10
250.176
 20
38.382
 11
250.072
 21
38.3113
  0
LINE
  8
0
 10
250.072
 20
38.3113
 11
249.964
 21
38.2474
  0
LINE
  8
0
 10
249.964
 20
38.2474
 11
249.852
 21
38.1903
  0
LINE
  8
0
 10
249.852
 20
38.1903
 11
249.736
 21
38.1404
  0
LINE
  8
0
 10
249.736
 20
38.1404
 11
249.618
 21
38.0979
  0
LINE
  8
0
 10
249.618
 20
38.0979
 11
249.497
 21
38.0628
  0
LINE
  8
0
 10
249.497
 20
38.0628
 11
249.375
 21
38.0354
  0
LINE
  8
0
 10
249.375
 20
38.0354
 11
249.251
 21
38.0158
  0
LINE
  8
0
 10
249.251
 20
38.0158
 11
249.126
 21
38.0039
  0
LINE
  8
0
 10
249.126
 20
38.0039
 11
249
 21
38
  0
LINE
  8
0
 10
249
 20
38
 11
248.874
 21
38.0039
  0
LINE
  8
0
 10
160.874
 20
38.0039
 11
160.749
 21
38.0158
  0
LINE
  8
0
 10
160.749
 20
38.0158
 11
160.625
 21
38.0354
  0
LINE
  8
0
 10
160.625
 20
38.0354
 11
160.503
 21
38.0628
  0
LINE
  8
0
 10
160.503
 20
38.0628
 11
160.382
 21
38.0979
  0
LINE
  8
0
 10
160.382
 20
38.0979
 11
160.264
 21
38.1404
  0
LINE
  8
0
 10
160.264
 20
38.1404
 11
160.148
 21
38.1903
  0
LINE
  8
0
 10
160.148
 20
38.1903
 11
160.036
 21
38.2474
  0
LINE
  8
0
 10
160.036
 20
38.2474
 11
159.928
 21
38.3113
  0
LINE
  8
0
 10
159.928
 20
38.3113
 11
159.824
 21
38.382
  0
LINE
  8
0
 10
159.824
 20
38.382
 11
159.725
 21
38.459
  0
LINE
  8
0
 10
159.725
 20
38.459
 11
159.631
 21
38.5421
  0
LINE
  8
0
 10
159.631
 20
38.5421
 11
159.542
 21
38.6309
  0
LINE
  8
0
 10
159.542
 20
38.6309
 11
159.459
 21
38.7251
  0
LINE
  8
0
 10
159.459
 20
38.7251
 11
159.382
 21
38.8244
  0
LINE
  8
0
 10
159.382
 20
38.8244
 11
159.311
 21
38.9283
  0
LINE
  8
0
 10
159.311
 20
38.9283
 11
159.247
 21
39.0365
  0
LINE
  8
0
 10
159.247
 20
39.0365
 11
159.19
 21
39.1484
  0
LINE
  8
0
 10
159.19
 20
39.1484
 11
159.14
 21
39.2637
  0
LINE
  8
0
 10
159.14
 20
39.2637
 11
159.098
 21
39.382
  0
LINE
  8
0
 10
159.098
 20
39.382
 11
159.063
 21
39.5026
  0
LINE
  8
0
 10
159.063
 20
39.5026
 11
159.035
 21
39.6252
  0
LINE
  8
0
 10
159.035
 20
39.6252
 11
159.016
 21
39.7493
  0
LINE
  8
0
 10
159.016
 20
39.7493
 11
159.004
 21
39.8744
  0
LINE
  8
0
 10
159.004
 20
39.8744
 11
159
 21
40
  0
LINE
  8
0
 10
159
 20
40
 11
159.004
 21
40.1256
  0
LINE
  8
0
 10
159.004
 20
40.1256
 11
159.016
 21
40.2507
  0
LINE
  8
0
 10
159.016
 20
40.2507
 11
159.035
 21
40.3748
  0
LINE
  8
0
 10
159.035
 20
40.3748
 11
159.063
 21
40.4974
  0
LINE
  8
0
 10
159.063
 20
40.4974
 11
159.098
 21
40.618
  0
LINE
  8
0
 10
159.098
 20
40.618
 11
159.14
 21
40.7363
  0
LINE
  8
0
 10
159.14
 20
40.7363
 11
159.19
 21
40.8515
  0
LINE
  8
0
 10
159.19
 20
40.8515
 11
159.247
 21
40.9635
  0
LINE
  8
0
 10
159.247
 20
40.9635
 11
159.311
 21
41.0717
  0
LINE
  8
0
 10
159.311
 20
41.0717
 11
159.382
 21
41.1756
  0
LINE
  8
0
 10
159.382
 20
41.1756
 11
159.459
 21
41.2748
  0
LINE
  8
0
 10
159.459
 20
41.2748
 11
159.542
 21
41.3691
  0
LINE
  8
0
 10
159.542
 20
41.3691
 11
159.631
 21
41.4579
  0
LINE
  8
0
 10
159.631
 20
41.4579
 11
159.725
 21
41.541
  0
LINE
  8
0
 10
159.725
 20
41.541
 11
159.824
 21
41.618
  0
LINE
  8
0
 10
159.824
 20
41.618
 11
159.928
 21
41.6886
  0
LINE
  8
0
 10
159.928
 20
41.6886
 11
160.036
 21
41.7526
  0
LINE
  8
0
 10
160.036
 20
41.7526
 11
160.148
 21
41.8096
  0
LINE
  8
0
 10
160.148
 20
41.8096
 11
160.264
 21
41.8595
  0
LINE
  8
0
 10
160.264
 20
41.8595
 11
160.382
 21
41.9021
  0
LINE
  8
0
 10
160.382
 20
41.9021
 11
160.503
 21
41.9372
  0
LINE
  8
0
 10
160.503
 20
41.9372
 11
160.625
 21
41.9646
  0
LINE
  8
0
 10
160.625
 20
41.9646
 11
160.749
 21
41.9842
  0
LINE
  8
0
 10
160.749
 20
41.9842
 11
160.874
 21
41.996
  0
LINE
  8
0
 10
160.874
 20
41.996
 11
161
 21
42
  0
LINE
  8
0
 10
161
 20
42
 11
161.126
 21
41.996
  0
LINE
  8
0
 10
161.126
 20
41.996
 11
161.251
 21
41.9842
  0
LINE
  8
0
 10
161.251
 20
41.9842
 11
161.375
 21
41.9646
  0
LINE
  8
0
 10
161.375
 20
41.9646
 11
161.497
 21
41.9372
  0
LINE
  8
0
 10
161.497
 20
41.9372
 11
161.618
 21
41.9021
  0
LINE
  8
0
 10
161.618
 20
41.9021
 11
161.736
 21
41.8595
  0
LINE
  8
0
 10
161.736
 20
41.8595
 11
161.852
 21
41.8096
  0
LINE
  8
0
 10
161.852
 20
41.8096
 11
161.964
 21
41.7526
  0
LINE
  8
0
 10
161.964
 20
41.7526
 11
162.072
 21
41.6886
  0
LINE
  8
0
 10
162.072
 20
41.6886
 11
162.176
 21
41.618
  0
LINE
  8
0
 10
162.176
 20
41.618
 11
162.275
 21
41.541
  0
LINE
  8
0
 10
162.275
 20
41.541
 11
162.369
 21
41.4579
  0
LINE
  8
0
 10
162.369
 20
41.4579
 11
162.458
 21
41.3691
  0
LINE
  8
0
 10
162.458
 20
41.3691
 11
162.541
 21
41.2748
  0
LINE
  8
0
 10
162.541
 20
41.2748
 11
162.618
 21
41.1756
  0
LINE
  8
0
 10
162.618
 20
41.1756
 11
162.689
 21
41.0717
  0
LINE
  8
0
 10
162.689
 20
41.0717
 11
162.753
 21
40.9635
  0
LINE
  8
0
 10
162.753
 20
40.9635
 11
162.81
 21
40.8515
  0
LINE
  8
0
 10
162.81
 20
40.8515
 11
162.86
 21
40.7363
  0
LINE
  8
0
 10
162.86
 20
40.7363
 11
162.902
 21
40.618
  0
LINE
  8
0
 10
162.902
 20
40.618
 11
162.937
 21
40.4974
  0
LINE
  8
0
 10
162.937
 20
40.4974
 11
162.965
 21
40.3748
  0
LINE
  8
0
 10
162.965
 20
40.3748
 11
162.984
 21
40.2507
  0
LINE
  8
0
 10
162.984
 20
40.2507
 11
162.996
 21
40.1256
  0
LINE
  8
0
 10
162.996
 20
40.1256
 11
163
 21
40
  0
LINE
  8
0
 10
163
 20
40
 11
162.996
 21
39.8744
  0
LINE
  8
0
 10
162.996
 20
39.8744
 11
162.984
 21
39.7493
  0
LINE
  8
0
 10
162.984
 20
39.7493
 11
162.965
 21
39.6252
  0
LINE
  8
0
 10
162.965
 20
39.6252
 11
162.937
 21
39.5026
  0
LINE
  8
0
 10
162.937
 20
39.5026
 11
162.902
 21
39.382
  0
LINE
  8
0
 10
162.902
 20
39.382
 11
162.86
 21
39.2637
  0
LINE
  8
0
 10
162.86
 20
39.2637
 11
162.81
 21
39.1484
  0
LINE
  8
0
 10
162.81
 20
39.1484
 11
162.753
 21
39.0365
  0
LINE
  8
0
 10
162.753
 20
39.0365
 11
162.689
 21
38.9283
  0
LINE
  8
0
 10
162.689
 20
38.9283
 11
162.618
 21
38.8244
  0
LINE
  8
0
 10
162.618
 20
38.8244
 11
162.541
 21
38.7251
  0
LINE
  8
0
 10
162.541
 20
38.7251
 11
162.458
 21
38.6309
  0
LINE
  8
0
 10
162.458
 20
38.6309
 11
162.369
 21
38.5421
  0
LINE
  8
0
 10
162.369
 20
38.5421
 11
162.275
 21
38.459
  0
LINE
  8
0
 10
162.275
 20
38.459
 11
162.176
 21
38.382
  0
LINE
  8
0
 10
162.176
 20
38.382
 11
162.072
 21
38.3113
  0
LINE
  8
0
 10
162.072
 20
38.3113
 11
161.964
 21
38.2474
  0
LINE
  8
0
 10
161.964
 20
38.2474
 11
161.852
 21
38.1903
  0
LINE
  8
0
 10
161.852
 20
38.1903
 11
161.736
 21
38.1404
  0
LINE
  8
0
 10
161.736
 20
38.1404
 11
161.618
 21
38.0979
  0
LINE
  8
0
 10
161.618
 20
38.0979
 11
161.497
 21
38.0628
  0
LINE
  8
0
 10
161.497
 20
38.0628
 11
161.375
 21
38.0354
  0
LINE
  8
0
 10
161.375
 20
38.0354
 11
161.251
 21
38.0158
  0
LINE
  8
0
 10
161.251
 20
38.0158
 11
161.126
 21
38.0039
  0
LINE
  8
0
 10
161.126
 20
38.0039
 11
161
 21
38
  0
LINE
  8
0
 10
161
 20
38
 11
160.874
 21
38.0039
  0
LINE
  8
0
 10
115
 20
300
 11
55
 21
300
  0
LINE
  8
0
 10
55
 20
300
 11
55
 21
50
  0
LINE
  8
0
 10
55
 20
50
 11
115
 21
50
  0
LINE
  8
0
 10
115
 20
50
 11
115
 21
300
  0
LINE
  8
0
 10
74.9058
 20
283.503
 11
74.812
 21
283.512
  0
LINE
  8
0
 10
74.812
 20
283.512
 11
74.7189
 21
283.527
  0
LINE
  8
0
 10
74.7189
 20
283.527
 11
74.627
 21
283.547
  0
LINE
  8
0
 10
74.627
 20
283.547
 11
74.5365
 21
283.573
  0
LINE
  8
0
 10
74.5365
 20
283.573
 11
74.4478
 21
283.605
  0
LINE
  8
0
 10
74.4478
 20
283.605
 11
74.3613
 21
283.643
  0
LINE
  8
0
 10
74.3613
 20
283.643
 11
74.2774
 21
283.686
  0
LINE
  8
0
 10
74.2774
 20
283.686
 11
74.1963
 21
283.734
  0
LINE
  8
0
 10
74.1963
 20
283.734
 11
74.1183
 21
283.786
  0
LINE
  8
0
 10
74.1183
 20
283.786
 11
74.0439
 21
283.844
  0
LINE
  8
0
 10
74.0439
 20
283.844
 11
73.9732
 21
283.907
  0
LINE
  8
0
 10
73.9732
 20
283.907
 11
73.9065
 21
283.973
  0
LINE
  8
0
 10
73.9065
 20
283.973
 11
73.8442
 21
284.044
  0
LINE
  8
0
 10
73.8442
 20
284.044
 11
73.7865
 21
284.118
  0
LINE
  8
0
 10
73.7865
 20
284.118
 11
73.7335
 21
284.196
  0
LINE
  8
0
 10
73.7335
 20
284.196
 11
73.6855
 21
284.277
  0
LINE
  8
0
 10
73.6855
 20
284.277
 11
73.6428
 21
284.361
  0
LINE
  8
0
 10
73.6428
 20
284.361
 11
73.6053
 21
284.448
  0
LINE
  8
0
 10
73.6053
 20
284.448
 11
73.5734
 21
284.536
  0
LINE
  8
0
 10
73.5734
 20
284.536
 11
73.5471
 21
284.627
  0
LINE
  8
0
 10
73.5471
 20
284.627
 11
73.5266
 21
284.719
  0
LINE
  8
0
 10
73.5266
 20
284.719
 11
73.5118
 21
284.812
  0
LINE
  8
0
 10
73.5118
 20
284.812
 11
73.503
 21
284.906
  0
LINE
  8
0
 10
73.503
 20
284.906
 11
73.5
 21
285
  0
LINE
  8
0
 10
73.5
 20
285
 11
73.503
 21
285.094
  0
LINE
  8
0
 10
73.503
 20
285.094
 11
73.5118
 21
285.188
  0
LINE
  8
0
 10
73.5118
 20
285.188
 11
73.5266
 21
285.281
  0
LINE
  8
0
 10
73.5266
 20
285.281
 11
73.5471
 21
285.373
  0
LINE
  8
0
 10
73.5471
 20
285.373
 11
73.5734
 21
285.464
  0
LINE
  8
0
 10
73.5734
 20
285.464
 11
73.6053
 21
285.552
  0
LINE
  8
0
 10
73.6053
 20
285.552
 11
73.6428
 21
285.639
  0
LINE
  8
0
 10
73.6428
 20
285.639
 11
73.6855
 21
285.723
  0
LINE
  8
0
 10
73.6855
 20
285.723
 11
73.7335
 21
285.804
  0
LINE
  8
0
 10
73.7335
 20
285.804
 11
73.7865
 21
285.882
  0
LINE
  8
0
 10
73.7865
 20
285.882
 11
73.8442
 21
285.956
  0
LINE
  8
0
 10
73.8442
 20
285.956
 11
73.9065
 21
286.027
  0
LINE
  8
0
 10
73.9065
 20
286.027
 11
73.9732
 21
286.093
  0
LINE
  8
0
 10
73.9732
 20
286.093
 11
74.0439
 21
286.156
  0
LINE
  8
0
 10
74.0439
 20
286.156
 11
74.1183
 21
286.214
  0
LINE
  8
0
 10
74.1183
 20
286.214
 11
74.1963
 21
286.266
  0
LINE
  8
0
 10
74.1963
 20
286.266
 11
74.2774
 21
286.314
  0
LINE
  8
0
 10
74.2774
 20
286.314
 11
74.3613
 21
286.357
  0
LINE
  8
0
 10
74.3613
 20
286.357
 11
74.4478
 21
286.395
  0
LINE
  8
0
 10
74.4478
 20
286.395
 11
74.5365
 21
286.427
  0
LINE
  8
0
 10
74.5365
 20
286.427
 11
74.627
 21
286.453
  0
LINE
  8
0
 10
74.627
 20
286.453
 11
74.7189
 21
286.473
  0
LINE
  8
0
 10
74.7189
 20
286.473
 11
74.812
 21
286.488
  0
LINE
  8
0
 10
74.812
 20
286.488
 11
74.9058
 21
286.497
  0
LINE
  8
0
 10
74.9058
 20
286.497
 11
75
 21
286.5
  0
LINE
  8
0
 10
75
 20
286.5
 11
75.0942
 21
286.497
  0
LINE
  8
0
 10
75.0942
 20
286.497
 11
75.188
 21
286.488
  0
LINE
  8
0
 10
75.188
 20
286.488
 11
75.2811
 21
286.473
  0
LINE
  8
0
 10
75.2811
 20
286.473
 11
75.373
 21
286.453
  0
LINE
  8
0
 10
75.373
 20
286.453
 11
75.4635
 21
286.427
  0
LINE
  8
0
 10
75.4635
 20
286.427
 11
75.5522
 21
286.395
  0
LINE
  8
0
 10
75.5522
 20
286.395
 11
75.6387
 21
286.357
  0
LINE
  8
0
 10
75.6387
 20
286.357
 11
75.7226
 21
286.314
  0
LINE
  8
0
 10
75.7226
 20
286.314
 11
75.8037
 21
286.266
  0
LINE
  8
0
 10
75.8037
 20
286.266
 11
75.8817
 21
286.214
  0
LINE
  8
0
 10
75.8817
 20
286.214
 11
75.9561
 21
286.156
  0
LINE
  8
0
 10
75.9561
 20
286.156
 11
76.0268
 21
286.093
  0
LINE
  8
0
 10
76.0268
 20
286.093
 11
76.0934
 21
286.027
  0
LINE
  8
0
 10
76.0934
 20
286.027
 11
76.1558
 21
285.956
  0
LINE
  8
0
 10
76.1558
 20
285.956
 11
76.2135
 21
285.882
  0
LINE
  8
0
 10
76.2135
 20
285.882
 11
76.2665
 21
285.804
  0
LINE
  8
0
 10
76.2665
 20
285.804
 11
76.3145
 21
285.723
  0
LINE
  8
0
 10
76.3145
 20
285.723
 11
76.3572
 21
285.639
  0
LINE
  8
0
 10
76.3572
 20
285.639
 11
76.3947
 21
285.552
  0
LINE
  8
0
 10
76.3947
 20
285.552
 11
76.4266
 21
285.464
  0
LINE
  8
0
 10
76.4266
 20
285.464
 11
76.4529
 21
285.373
  0
LINE
  8
0
 10
76.4529
 20
285.373
 11
76.4734
 21
285.281
  0
LINE
  8
0
 10
76.4734
 20
285.281
 11
76.4882
 21
285.188
  0
LINE
  8
0
 10
76.4882
 20
285.188
 11
76.497
 21
285.094
  0
LINE
  8
0
 10
76.497
 20
285.094
 11
76.5
 21
285
  0
LINE
  8
0
 10
76.5
 20
285
 11
76.497
 21
284.906
  0
LINE
  8
0
 10
76.497
 20
284.906
 11
76.4882
 21
284.812
  0
LINE
  8
0
 10
76.4882
 20
284.812
 11
76.4734
 21
284.719
  0
LINE
  8
0
 10
76.4734
 20
284.719
 11
76.4529
 21
284.627
  0
LINE
  8
0
 10
76.4529
 20
284.627
 11
76.4266
 21
284.536
  0
LINE
  8
0
 10
76.4266
 20
284.536
 11
76.3947
 21
284.448
  0
LINE
  8
0
 10
76.3947
 20
284.448
 11
76.3572
 21
284.361
  0
LINE
  8
0
 10
76.3572
 20
284.361
 11
76.3145
 21
284.277
  0
LINE
  8
0
 10
76.3145
 20
284.277
 11
76.2665
 21
284.196
  0
LINE
  8
0
 10
76.2665
 20
284.196
 11
76.2135
 21
284.118
  0
LINE
  8
0
 10
76.2135
 20
284.118
 11
76.1558
 21
284.044
  0
LINE
  8
0
 10
76.1558
 20
284.044
 11
76.0934
 21
283.973
  0
LINE
  8
0
 10
76.0934
 20
283.973
 11
76.0268
 21
283.907
  0
LINE
  8
0
 10
76.0268
 20
283.907
 11
75.9561
 21
283.844
  0
LINE
  8
0
 10
75.9561
 20
283.844
 11
75.8817
 21
283.786
  0
LINE
  8
0
 10
75.8817
 20
283.786
 11
75.8037
 21
283.734
  0
LINE
  8
0
 10
75.8037
 20
283.734
 11
75.7226
 21
283.686
  0
LINE
  8
0
 10
75.7226
 20
283.686
 11
75.6387
 21
283.643
  0
LINE
  8
0
 10
75.6387
 20
283.643
 11
75.5522
 21
283.605
  0
LINE
  8
0
 10
75.5522
 20
283.605
 11
75.4635
 21
283.573
  0
LINE
  8
0
 10
75.4635
 20
283.573
 11
75.373
 21
283.547
  0
LINE
  8
0
 10
75.373
 20
283.547
 11
75.2811
 21
283.527
  0
LINE
  8
0
 10
75.2811
 20
283.527
 11
75.188
 21
283.512
  0
LINE
  8
0
 10
75.188
 20
283.512
 11
75.0942
 21
283.503
  0
LINE
  8
0
 10
75.0942
 20
283.503
 11
75
 21
283.5
  0
LINE
  8
0
 10
75
 20
283.5
 11
74.9058
 21
283.503
  0
LINE
  8
0
 10
64.9058
 20
283.503
 11
64.812
 21
283.512
  0
LINE
  8
0
 10
64.812
 20
283.512
 11
64.7189
 21
283.527
  0
LINE
  8
0
 10
64.7189
 20
283.527
 11
64.627
 21
283.547
  0
LINE
  8
0
 10
64.627
 20
283.547
 11
64.5365
 21
283.573
  0
LINE
  8
0
 10
64.5365
 20
283.573
 11
64.4478
 21
283.605
  0
LINE
  8
0
 10
64.4478
 20
283.605
 11
64.3613
 21
283.643
  0
LINE
  8
0
 10
64.3613
 20
283.643
 11
64.2774
 21
283.686
  0
LINE
  8
0
 10
64.2774
 20
283.686
 11
64.1963
 21
283.734
  0
LINE
  8
0
 10
64.1963
 20
283.734
 11
64.1183
 21
283.786
  0
LINE
  8
0
 10
64.1183
 20
283.786
 11
64.0439
 21
283.844
  0
LINE
  8
0
 10
64.0439
 20
283.844
 11
63.9732
 21
283.907
  0
LINE
  8
0
 10
63.9732
 20
283.907
 11
63.9065
 21
283.973
  0
LINE
  8
0
 10
63.9065
 20
283.973
 11
63.8442
 21
284.044
  0
LINE
  8
0
 10
63.8442
 20
284.044
 11
63.7865
 21
284.118
  0
LINE
  8
0
 10
63.7865
 20
284.118
 11
63.7335
 21
284.196
  0
LINE
  8
0
 10
63.7335
 20
284.196
 11
63.6855
 21
284.277
  0
LINE
  8
0
 10
63.6855
 20
284.277
 11
63.6428
 21
284.361
  0
LINE
  8
0
 10
63.6428
 20
284.361
 11
63.6053
 21
284.448
  0
LINE
  8
0
 10
63.6053
 20
284.448
 11
63.5734
 21
284.536
  0
LINE
  8
0
 10
63.5734
 20
284.536
 11
63.5471
 21
284.627
  0
LINE
  8
0
 10
63.5471
 20
284.627
 11
63.5266
 21
284.719
  0
LINE
  8
0
 10
63.5266
 20
284.719
 11
63.5118
 21
284.812
  0
LINE
  8
0
 10
63.5118
 20
284.812
 11
63.503
 21
284.906
  0
LINE
  8
0
 10
63.503
 20
284.906
 11
63.5
 21
285
  0
LINE
  8
0
 10
63.5
 20
285
 11
63.503
 21
285.094
  0
LINE
  8
0
 10
63.503
 20
285.094
 11
63.5118
 21
285.188
  0
LINE
  8
0
 10
63.5118
 20
285.188
 11
63.5266
 21
285.281
  0
LINE
  8
0
 10
63.5266
 20
285.281
 11
63.5471
 21
285.373
  0
LINE
  8
0
 10
63.5471
 20
285.373
 11
63.5734
 21
285.464
  0
LINE
  8
0
 10
63.5734
 20
285.464
 11
63.6053
 21
285.552
  0
LINE
  8
0
 10
63.6053
 20
285.552
 11
63.6428
 21
285.639
  0
LINE
  8
0
 10
63.6428
 20
285.639
 11
63.6855
 21
285.723
  0
LINE
  8
0
 10
63.6855
 20
285.723
 11
63.7335
 21
285.804
  0
LINE
  8
0
 10
63.7335
 20
285.804
 11
63.7865
 21
285.882
  0
LINE
  8
0
 10
63.7865
 20
285.882
 11
63.8442
 21
285.956
  0
LINE
  8
0
 10
63.8442
 20
285.956
 11
63.9065
 21
286.027
  0
LINE
  8
0
 10
63.9065
 20
286.027
 11
63.9732
 21
286.093
  0
LINE
  8
0
 10
63.9732
 20
286.093
 11
64.0439
 21
286.156
  0
LINE
  8
0
 10
64.0439
 20
286.156
 11
64.1183
 21
286.214
  0
LINE
  8
0
 10
64.1183
 20
286.214
 11
64.1963
 21
286.266
  0
LINE
  8
0
 10
64.1963
 20
286.266
 11
64.2774
 21
286.314
  0
LINE
  8
0
 10
64.2774
 20
286.314
 11
64.3613
 21
286.357
  0
LINE
  8
0
 10
64.3613
 20
286.357
 11
64.4478
 21
286.395
  0
LINE
  8
0
 10
64.4478
 20
286.395
 11
64.5365
 21
286.427
  0
LINE
  8
0
 10
64.5365
 20
286.427
 11
64.627
 21
286.453
  0
LINE
  8
0
 10
64.627
 20
286.453
 11
64.7189
 21
286.473
  0
LINE
  8
0
 10
64.7189
 20
286.473
 11
64.812
 21
286.488
  0
LINE
  8
0
 10
64.812
 20
286.488
 11
64.9058
 21
286.497
  0
LINE
  8
0
 10
64.9058
 20
286.497
 11
65
 21
286.5
  0
LINE
  8
0
 10
65
 20
286.5
 11
65.0942
 21
286.497
  0
LINE
  8
0
 10
65.0942
 20
286.497
 11
65.188
 21
286.488
  0
LINE
  8
0
 10
65.188
 20
286.488
 11
65.2811
 21
286.473
  0
LINE
  8
0
 10
65.2811
 20
286.473
 11
65.373
 21
286.453
  0
LINE
  8
0
 10
65.373
 20
286.453
 11
65.4635
 21
286.427
  0
LINE
  8
0
 10
65.4635
 20
286.427
 11
65.5522
 21
286.395
  0
LINE
  8
0
 10
65.5522
 20
286.395
 11
65.6387
 21
286.357
  0
LINE
  8
0
 10
65.6387
 20
286.357
 11
65.7226
 21
286.314
  0
LINE
  8
0
 10
65.7226
 20
286.314
 11
65.8037
 21
286.266
  0
LINE
  8
0
 10
65.8037
 20
286.266
 11
65.8817
 21
286.214
  0
LINE
  8
0
 10
65.8817
 20
286.214
 11
65.9561
 21
286.156
  0
LINE
  8
0
 10
65.9561
 20
286.156
 11
66.0268
 21
286.093
  0
LINE
  8
0
 10
66.0268
 20
286.093
 11
66.0934
 21
286.027
  0
LINE
  8
0
 10
66.0934
 20
286.027
 11
66.1558
 21
285.956
  0
LINE
  8
0
 10
66.1558
 20
285.956
 11
66.2135
 21
285.882
  0
LINE
  8
0
 10
66.2135
 20
285.882
 11
66.2665
 21
285.804
  0
LINE
  8
0
 10
66.2665
 20
285.804
 11
66.3145
 21
285.723
  0
LINE
  8
0
 10
66.3145
 20
285.723
 11
66.3572
 21
285.639
  0
LINE
  8
0
 10
66.3572
 20
285.639
 11
66.3947
 21
285.552
  0
LINE
  8
0
 10
66.3947
 20
285.552
 11
66.4266
 21
285.464
  0
LINE
  8
0
 10
66.4266
 20
285.464
 11
66.4529
 21
285.373
  0
LINE
  8
0
 10
66.4529
 20
285.373
 11
66.4734
 21
285.281
  0
LINE
  8
0
 10
66.4734
 20
285.281
 11
66.4882
 21
285.188
  0
LINE
  8
0
 10
66.4882
 20
285.188
 11
66.497
 21
285.094
  0
LINE
  8
0
 10
66.497
 20
285.094
 11
66.5
 21
285
  0
LINE
  8
0
 10
66.5
 20
285
 11
66.497
 21
284.906
  0
LINE
  8
0
 10
66.497
 20
284.906
 11
66.4882
 21
284.812
  0
LINE
  8
0
 10
66.4882
 20
284.812
 11
66.4734
 21
284.719
  0
LINE
  8
0
 10
66.4734
 20
284.719
 11
66.4529
 21
284.627
  0
LINE
  8
0
 10
66.4529
 20
284.627
 11
66.4266
 21
284.536
  0
LINE
  8
0
 10
66.4266
 20
284.536
 11
66.3947
 21
284.448
  0
LINE
  8
0
 10
66.3947
 20
284.448
 11
66.3572
 21
284.361
  0
LINE
  8
0
 10
66.3572
 20
284.361
 11
66.3145
 21
284.277
  0
LINE
  8
0
 10
66.3145
 20
284.277
 11
66.2665
 21
284.196
  0
LINE
  8
0
 10
66.2665
 20
284.196
 11
66.2135
 21
284.118
  0
LINE
  8
0
 10
66.2135
 20
284.118
 11
66.1558
 21
284.044
  0
LINE
  8
0
 10
66.1558
 20
284.044
 11
66.0934
 21
283.973
  0
LINE
  8
0
 10
66.0934
 20
283.973
 11
66.0268
 21
283.907
  0
LINE
  8
0
 10
66.0268
 20
283.907
 11
65.9561
 21
283.844
  0
LINE
  8
0
 10
65.9561
 20
283.844
 11
65.8817
 21
283.786
  0
LINE
  8
0
 10
65.8817
 20
283.786
 11
65.8037
 21
283.734
  0
LINE
  8
0
 10
65.8037
 20
283.734
 11
65.7226
 21
283.686
  0
LINE
  8
0
 10
65.7226
 20
283.686
 11
65.6387
 21
283.643
  0
LINE
  8
0
 10
65.6387
 20
283.643
 11
65.5522
 21
283.605
  0
LINE
  8
0
 10
65.5522
 20
283.605
 11
65.4635
 21
283.573
  0
LINE
  8
0
 10
65.4635
 20
283.573
 11
65.373
 21
283.547
  0
LINE
  8
0
 10
65.373
 20
283.547
 11
65.2811
 21
283.527
  0
LINE
  8
0
 10
65.2811
 20
283.527
 11
65.188
 21
283.512
  0
LINE
  8
0
 10
65.188
 20
283.512
 11
65.0942
 21
283.503
  0
LINE
  8
0
 10
65.0942
 20
283.503
 11
65
 21
283.5
  0
LINE
  8
0
 10
65
 20
283.5
 11
64.9058
 21
283.503
  0
LINE
  8
0
 10
74.9058
 20
66.497
 11
75
 21
66.5
  0
LINE
  8
0
 10
75
 20
66.5
 11
75.0942
 21
66.497
  0
LINE
  8
0
 10
75.0942
 20
66.497
 11
75.188
 21
66.4882
  0
LINE
  8
0
 10
75.188
 20
66.4882
 11
75.2811
 21
66.4734
  0
LINE
  8
0
 10
75.2811
 20
66.4734
 11
75.373
 21
66.4529
  0
LINE
  8
0
 10
75.373
 20
66.4529
 11
75.4635
 21
66.4266
  0
LINE
  8
0
 10
75.4635
 20
66.4266
 11
75.5522
 21
66.3947
  0
LINE
  8
0
 10
75.5522
 20
66.3947
 11
75.6387
 21
66.3572
  0
LINE
  8
0
 10
75.6387
 20
66.3572
 11
75.7226
 21
66.3145
  0
LINE
  8
0
 10
75.7226
 20
66.3145
 11
75.8037
 21
66.2665
  0
LINE
  8
0
 10
75.8037
 20
66.2665
 11
75.8817
 21
66.2135
  0
LINE
  8
0
 10
75.8817
 20
66.2135
 11
75.9561
 21
66.1558
  0
LINE
  8
0
 10
75.9561
 20
66.1558
 11
76.0268
 21
66.0934
  0
LINE
  8
0
 10
76.0268
 20
66.0934
 11
76.0934
 21
66.0268
  0
LINE
  8
0
 10
76.0934
 20
66.0268
 11
76.1558
 21
65.9561
  0
LINE
  8
0
 10
76.1558
 20
65.9561
 11
76.2135
 21
65.8817
  0
LINE
  8
0
 10
76.2135
 20
65.8817
 11
76.2665
 21
65.8037
  0
LINE
  8
0
 10
76.2665
 20
65.8037
 11
76.3145
 21
65.7226
  0
LINE
  8
0
 10
76.3145
 20
65.7226
 11
76.3572
 21
65.6387
  0
LINE
  8
0
 10
76.3572
 20
65.6387
 11
76.3947
 21
65.5522
  0
LINE
  8
0
 10
76.3947
 20
65.5522
 11
76.4266
 21
65.4635
  0
LINE
  8
0
 10
76.4266
 20
65.4635
 11
76.4529
 21
65.373
  0
LINE
  8
0
 10
76.4529
 20
65.373
 11
76.4734
 21
65.2811
  0
LINE
  8
0
 10
76.4734
 20
65.2811
 11
76.4882
 21
65.188
  0
LINE
  8
0
 10
76.4882
 20
65.188
 11
76.497
 21
65.0942
  0
LINE
  8
0
 10
76.497
 20
65.0942
 11
76.5
 21
65
  0
LINE
  8
0
 10
76.5
 20
65
 11
76.497
 21
64.9058
  0
LINE
  8
0
 10
76.497
 20
64.9058
 11
76.4882
 21
64.812
  0
LINE
  8
0
 10
76.4882
 20
64.812
 11
76.4734
 21
64.7189
  0
LINE
  8
0
 10
76.4734
 20
64.7189
 11
76.4529
 21
64.627
  0
LINE
  8
0
 10
76.4529
 20
64.627
 11
76.4266
 21
64.5365
  0
LINE
  8
0
 10
76.4266
 20
64.5365
 11
76.3947
 21
64.4478
  0
LINE
  8
0
 10
76.3947
 20
64.4478
 11
76.3572
 21
64.3613
  0
LINE
  8
0
 10
76.3572
 20
64.3613
 11
76.3145
 21
64.2774
  0
LINE
  8
0
 10
76.3145
 20
64.2774
 11
76.2665
 21
64.1963
  0
LINE
  8
0
 10
76.2665
 20
64.1963
 11
76.2135
 21
64.1183
  0
LINE
  8
0
 10
76.2135
 20
64.1183
 11
76.1558
 21
64.0439
  0
LINE
  8
0
 10
76.1558
 20
64.0439
 11
76.0934
 21
63.9732
  0
LINE
  8
0
 10
76.0934
 20
63.9732
 11
76.0268
 21
63.9065
  0
LINE
  8
0
 10
76.0268
 20
63.9065
 11
75.9561
 21
63.8442
  0
LINE
  8
0
 10
75.9561
 20
63.8442
 11
75.8817
 21
63.7865
  0
LINE
  8
0
 10
75.8817
 20
63.7865
 11
75.8037
 21
63.7335
  0
LINE
  8
0
 10
75.8037
 20
63.7335
 11
75.7226
 21
63.6855
  0
LINE
  8
0
 10
75.7226
 20
63.6855
 11
75.6387
 21
63.6428
  0
LINE
  8
0
 10
75.6387
 20
63.6428
 11
75.5522
 21
63.6053
  0
LINE
  8
0
 10
75.5522
 20
63.6053
 11
75.4635
 21
63.5734
  0
LINE
  8
0
 10
75.4635
 20
63.5734
 11
75.373
 21
63.5471
  0
LINE
  8
0
 10
75.373
 20
63.5471
 11
75.2811
 21
63.5266
  0
LINE
  8
0
 10
75.2811
 20
63.5266
 11
75.188
 21
63.5118
  0
LINE
  8
0
 10
75.188
 20
63.5118
 11
75.0942
 21
63.503
  0
LINE
  8
0
 10
75.0942
 20
63.503
 11
75
 21
63.5
  0
LINE
  8
0
 10
75
 20
63.5
 11
74.9058
 21
63.503
  0
LINE
  8
0
 10
74.9058
 20
63.503
 11
74.812
 21
63.5118
  0
LINE
  8
0
 10
74.812
 20
63.5118
 11
74.7189
 21
63.5266
  0
LINE
  8
0
 10
74.7189
 20
63.5266
 11
74.627
 21
63.5471
  0
LINE
  8
0
 10
74.627
 20
63.5471
 11
74.5365
 21
63.5734
  0
LINE
  8
0
 10
74.5365
 20
63.5734
 11
74.4478
 21
63.6053
  0
LINE
  8
0
 10
74.4478
 20
63.6053
 11
74.3613
 21
63.6428
  0
LINE
  8
0
 10
74.3613
 20
63.6428
 11
74.2774
 21
63.6855
  0
LINE
  8
0
 10
74.2774
 20
63.6855
 11
74.1963
 21
63.7335
  0
LINE
  8
0
 10
74.1963
 20
63.7335
 11
74.1183
 21
63.7865
  0
LINE
  8
0
 10
74.1183
 20
63.7865
 11
74.0439
 21
63.8442
  0
LINE
  8
0
 10
74.0439
 20
63.8442
 11
73.9732
 21
63.9065
  0
LINE
  8
0
 10
73.9732
 20
63.9065
 11
73.9065
 21
63.9732
  0
LINE
  8
0
 10
73.9065
 20
63.9732
 11
73.8442
 21
64.0439
  0
LINE
  8
0
 10
73.8442
 20
64.0439
 11
73.7865
 21
64.1183
  0
LINE
  8
0
 10
73.7865
 20
64.1183
 11
73.7335
 21
64.1963
  0
LINE
  8
0
 10
73.7335
 20
64.1963
 11
73.6855
 21
64.2774
  0
LINE
  8
0
 10
73.6855
 20
64.2774
 11
73.6428
 21
64.3613
  0
LINE
  8
0
 10
73.6428
 20
64.3613
 11
73.6053
 21
64.4478
  0
LINE
  8
0
 10
73.6053
 20
64.4478
 11
73.5734
 21
64.5365
  0
LINE
  8
0
 10
73.5734
 20
64.5365
 11
73.5471
 21
64.627
  0
LINE
  8
0
 10
73.5471
 20
64.627
 11
73.5266
 21
64.7189
  0
LINE
  8
0
 10
73.5266
 20
64.7189
 11
73.5118
 21
64.812
  0
LINE
  8
0
 10
73.5118
 20
64.812
 11
73.503
 21
64.9058
  0
LINE
  8
0
 10
73.503
 20
64.9058
 11
73.5
 21
65
  0
LINE
  8
0
 10
73.5
 20
65
 11
73.503
 21
65.0942
  0
LINE
  8
0
 10
73.503
 20
65.0942
 11
73.5118
 21
65.188
  0
LINE
  8
0
 10
73.5118
 20
65.188
 11
73.5266
 21
65.2811
  0
LINE
  8
0
 10
73.5266
 20
65.2811
 11
73.5471
 21
65.373
  0
LINE
  8
0
 10
73.5471
 20
65.373
 11
73.5734
 21
65.4635
  0
LINE
  8
0
 10
73.5734
 20
65.4635
 11
73.6053
 21
65.5522
  0
LINE
  8
0
 10
73.6053
 20
65.5522
 11
73.6428
 21
65.6387
  0
LINE
  8
0
 10
73.6428
 20
65.6387
 11
73.6855
 21
65.7226
  0
LINE
  8
0
 10
73.6855
 20
65.7226
 11
73.7335
 21
65.8037
  0
LINE
  8
0
 10
73.7335
 20
65.8037
 11
73.7865
 21
65.8817
  0
LINE
  8
0
 10
73.7865
 20
65.8817
 11
73.8442
 21
65.9561
  0
LINE
  8
0
 10
73.8442
 20
65.9561
 11
73.9065
 21
66.0268
  0
LINE
  8
0
 10
73.9065
 20
66.0268
 11
73.9732
 21
66.0934
  0
LINE
  8
0
 10
73.9732
 20
66.0934
 11
74.0439
 21
66.1558
  0
LINE
  8
0
 10
74.0439
 20
66.1558
 11
74.1183
 21
66.2135
  0
LINE
  8
0
 10
74.1183
 20
66.2135
 11
74.1963
 21
66.2665
  0
LINE
  8
0
 10
74.1963
 20
66.2665
 11
74.2774
 21
66.3145
  0
LINE
  8
0
 10
74.2774
 20
66.3145
 11
74.3613
 21
66.3572
  0
LINE
  8
0
 10
74.3613
 20
66.3572
 11
74.4478
 21
66.3947
  0
LINE
  8
0
 10
74.4478
 20
66.3947
 11
74.5365
 21
66.4266
  0
LINE
  8
0
 10
74.5365
 20
66.4266
 11
74.627
 21
66.4529
  0
LINE
  8
0
 10
74.627
 20
66.4529
 11
74.7189
 21
66.4734
  0
LINE
  8
0
 10
74.7189
 20
66.4734
 11
74.812
 21
66.4882
  0
LINE
  8
0
 10
74.812
 20
66.4882
 11
74.9058
 21
66.497
  0
LINE
  8
0
 10
65.4635
 20
66.4266
 11
65.5522
 21
66.3947
  0
LINE
  8
0
 10
65.5522
 20
66.3947
 11
65.6387
 21
66.3572
  0
LINE
  8
0
 10
65.6387
 20
66.3572
 11
65.7226
 21
66.3145
  0
LINE
  8
0
 10
65.7226
 20
66.3145
 11
65.8037
 21
66.2665
  0
LINE
  8
0
 10
65.8037
 20
66.2665
 11
65.8817
 21
66.2135
  0
LINE
  8
0
 10
65.8817
 20
66.2135
 11
65.9561
 21
66.1558
  0
LINE
  8
0
 10
65.9561
 20
66.1558
 11
66.0268
 21
66.0934
  0
LINE
  8
0
 10
66.0268
 20
66.0934
 11
66.0934
 21
66.0268
  0
LINE
  8
0
 10
66.0934
 20
66.0268
 11
66.1558
 21
65.9561
  0
LINE
  8
0
 10
66.1558
 20
65.9561
 11
66.2135
 21
65.8817
  0
LINE
  8
0
 10
66.2135
 20
65.8817
 11
66.2665
 21
65.8037
  0
LINE
  8
0
 10
66.2665
 20
65.8037
 11
66.3145
 21
65.7226
  0
LINE
  8
0
 10
66.3145
 20
65.7226
 11
66.3572
 21
65.6387
  0
LINE
  8
0
 10
66.3572
 20
65.6387
 11
66.3947
 21
65.5522
  0
LINE
  8
0
 10
66.3947
 20
65.5522
 11
66.4266
 21
65.4635
  0
LINE
  8
0
 10
66.4266
 20
65.4635
 11
66.4529
 21
65.373
  0
LINE
  8
0
 10
66.4529
 20
65.373
 11
66.4734
 21
65.2811
  0
LINE
  8
0
 10
66.4734
 20
65.2811
 11
66.4882
 21
65.188
  0
LINE
  8
0
 10
66.4882
 20
65.188
 11
66.497
 21
65.0942
  0
LINE
  8
0
 10
66.497
 20
65.0942
 11
66.5
 21
65
  0
LINE
  8
0
 10
66.5
 20
65
 11
66.497
 21
64.9058
  0
LINE
  8
0
 10
66.497
 20
64.9058
 11
66.4882
 21
64.812
  0
LINE
  8
0
 10
66.4882
 20
64.812
 11
66.4734
 21
64.7189
  0
LINE
  8
0
 10
66.4734
 20
64.7189
 11
66.4529
 21
64.627
  0
LINE
  8
0
 10
66.4529
 20
64.627
 11
66.4266
 21
64.5365
  0
LINE
  8
0
 10
66.4266
 20
64.5365
 11
66.3947
 21
64.4478
  0
LINE
  8
0
 10
66.3947
 20
64.4478
 11
66.3572
 21
64.3613
  0
LINE
  8
0
 10
66.3572
 20
64.3613
 11
66.3145
 21
64.2774
  0
LINE
  8
0
 10
66.3145
 20
64.2774
 11
66.2665
 21
64.1963
  0
LINE
  8
0
 10
66.2665
 20
64.1963
 11
66.2135
 21
64.1183
  0
LINE
  8
0
 10
66.2135
 20
64.1183
 11
66.1558
 21
64.0439
  0
LINE
  8
0
 10
66.1558
 20
64.0439
 11
66.0934
 21
63.9732
  0
LINE
  8
0
 10
66.0934
 20
63.9732
 11
66.0268
 21
63.9065
  0
LINE
  8
0
 10
66.0268
 20
63.9065
 11
65.9561
 21
63.8442
  0
LINE
  8
0
 10
65.9561
 20
63.8442
 11
65.8817
 21
63.7865
  0
LINE
  8
0
 10
65.8817
 20
63.7865
 11
65.8037
 21
63.7335
  0
LINE
  8
0
 10
65.8037
 20
63.7335
 11
65.7226
 21
63.6855
  0
LINE
  8
0
 10
65.7226
 20
63.6855
 11
65.6387
 21
63.6428
  0
LINE
  8
0
 10
65.6387
 20
63.6428
 11
65.5522
 21
63.6053
  0
LINE
  8
0
 10
65.5522
 20
63.6053
 11
65.4635
 21
63.5734
  0
LINE
  8
0
 10
65.4635
 20
63.5734
 11
65.373
 21
63.5471
  0
LINE
  8
0
 10
65.373
 20
63.5471
 11
65.2811
 21
63.5266
  0
LINE
  8
0
 10
65.2811
 20
63.5266
 11
65.188
 21
63.5118
  0
LINE
  8
0
 10
65.188
 20
63.5118
 11
65.0942
 21
63.503
  0
LINE
  8
0
 10
65.0942
 20
63.503
 11
65
 21
63.5
  0
LINE
  8
0
 10
65
 20
63.5
 11
64.9058
 21
63.503
  0
LINE
  8
0
 10
64.9058
 20
63.503
 11
64.812
 21
63.5118
  0
LINE
  8
0
 10
64.812
 20
63.5118
 11
64.7189
 21
63.5266
  0
LINE
  8
0
 10
64.7189
 20
63.5266
 11
64.627
 21
63.5471
  0
LINE
  8
0
 10
64.627
 20
63.5471
 11
64.5365
 21
63.5734
  0
LINE
  8
0
 10
64.5365
 20
63.5734
 11
64.4478
 21
63.6053
  0
LINE
  8
0
 10
64.4478
 20
63.6053
 11
64.3613
 21
63.6428
  0
LINE
  8
0
 10
64.3613
 20
63.6428
 11
64.2774
 21
63.6855
  0
LINE
  8
0
 10
64.2774
 20
63.6855
 11
64.1963
 21
63.7335
  0
LINE
  8
0
 10
64.1963
 20
63.7335
 11
64.1183
 21
63.7865
  0
LINE
  8
0
 10
64.1183
 20
63.7865
 11
64.0439
 21
63.8442
  0
LINE
  8
0
 10
64.0439
 20
63.8442
 11
63.9732
 21
63.9065
  0
LINE
  8
0
 10
63.9732
 20
63.9065
 11
63.9065
 21
63.9732
  0
LINE
  8
0
 10
63.9065
 20
63.9732
 11
63.8442
 21
64.0439
  0
LINE
  8
0
 10
63.8442
 20
64.0439
 11
63.7865
 21
64.1183
  0
LINE
  8
0
 10
63.7865
 20
64.1183
 11
63.7335
 21
64.1963
  0
LINE
  8
0
 10
63.7335
 20
64.1963
 11
63.6855
 21
64.2774
  0
LINE
  8
0
 10
63.6855
 20
64.2774
 11
63.6428
 21
64.3613
  0
LINE
  8
0
 10
63.6428
 20
64.3613
 11
63.6053
 21
64.4478
  0
LINE
  8
0
 10
63.6053
 20
64.4478
 11
63.5734
 21
64.5365
  0
LINE
  8
0
 10
63.5734
 20
64.5365
 11
63.5471
 21
64.627
  0
LINE
  8
0
 10
63.5471
 20
64.627
 11
63.5266
 21
64.7189
  0
LINE
  8
0
 10
63.5266
 20
64.7189
 11
63.5118
 21
64.812
  0
LINE
  8
0
 10
63.5118
 20
64.812
 11
63.503
 21
64.9058
  0
LINE
  8
0
 10
63.503
 20
64.9058
 11
63.5
 21
65
  0
LINE
  8
0
 10
63.5
 20
65
 11
63.503
 21
65.0942
  0
LINE
  8
0
 10
63.503
 20
65.0942
 11
63.5118
 21
65.188
  0
LINE
  8
0
 10
63.5118
 20
65.188
 11
63.5266
 21
65.2811
  0
LINE
  8
0
 10
63.5266
 20
65.2811
 11
63.5471
 21
65.373
  0
LINE
  8
0
 10
63.5471
 20
65.373
 11
63.5734
 21
65.4635
  0
LINE
  8
0
 10
63.5734
 20
65.4635
 11
63.6053
 21
65.5522
  0
LINE
  8
0
 10
63.6053
 20
65.5522
 11
63.6428
 21
65.6387
  0
LINE
  8
0
 10
63.6428
 20
65.6387
 11
63.6855
 21
65.7226
  0
LINE
  8
0
 10
63.6855
 20
65.7226
 11
63.7335
 21
65.8037
  0
LINE
  8
0
 10
63.7335
 20
65.8037
 11
63.7865
 21
65.8817
  0
LINE
  8
0
 10
63.7865
 20
65.8817
 11
63.8442
 21
65.9561
  0
LINE
  8
0
 10
63.8442
 20
65.9561
 11
63.9065
 21
66.0268
  0
LINE
  8
0
 10
63.9065
 20
66.0268
 11
63.9732
 21
66.0934
  0
LINE
  8
0
 10
63.9732
 20
66.0934
 11
64.0439
 21
66.1558
  0
LINE
  8
0
 10
64.0439
 20
66.1558
 11
64.1183
 21
66.2135
  0
LINE
  8
0
 10
64.1183
 20
66.2135
 11
64.1963
 21
66.2665
  0
LINE
  8
0
 10
64.1963
 20
66.2665
 11
64.2774
 21
66.3145
  0
LINE
  8
0
 10
64.2774
 20
66.3145
 11
64.3613
 21
66.3572
  0
LINE
  8
0
 10
64.3613
 20
66.3572
 11
64.4478
 21
66.3947
  0
LINE
  8
0
 10
64.4478
 20
66.3947
 11
64.5365
 21
66.4266
  0
LINE
  8
0
 10
64.5365
 20
66.4266
 11
64.627
 21
66.4529
  0
LINE
  8
0
 10
64.627
 20
66.4529
 11
64.7189
 21
66.4734
  0
LINE
  8
0
 10
64.7189
 20
66.4734
 11
64.812
 21
66.4882
  0
LINE
  8
0
 10
64.812
 20
66.4882
 11
64.9058
 21
66.497
  0
LINE
  8
0
 10
64.9058
 20
66.497
 11
65
 21
66.5
  0
LINE
  8
0
 10
65
 20
66.5
 11
65.0942
 21
66.497
  0
LINE
  8
0
 10
65.0942
 20
66.497
 11
65.188
 21
66.4882
  0
LINE
  8
0
 10
65.188
 20
66.4882
 11
65.2811
 21
66.4734
  0
LINE
  8
0
 10
65.2811
 20
66.4734
 11
65.373
 21
66.4529
  0
LINE
  8
0
 10
65.373
 20
66.4529
 11
65.4635
 21
66.4266
  0
LINE
  8
0
 10
50
 20
300
 11
0
 21
300
  0
LINE
  8
0
 10
0
 20
300
 11
0
 21
200
  0
LINE
  8
0
 10
0
 20
200
 11
20
 21
200
  0
LINE
  8
0
 10
20
 20
200
 11
20
 21
150
  0
LINE
  8
0
 10
20
 20
150
 11
0
 21
150
  0
LINE
  8
0
 10
0
 20
150
 11
0
 21
50
  0
LINE
  8
0
 10
0
 20
50
 11
50
 21
50
  0
LINE
  8
0
 10
50
 20
50
 11
50
 21
300
  0
LINE
  8
0
 10
39.9058
 20
283.503
 11
39.812
 21
283.512
  0
LINE
  8
0
 10
39.812
 20
283.512
 11
39.7189
 21
283.527
  0
LINE
  8
0
 10
39.7189
 20
283.527
 11
39.627
 21
283.547
  0
LINE
  8
0
 10
39.627
 20
283.547
 11
39.5365
 21
283.573
  0
LINE
  8
0
 10
39.5365
 20
283.573
 11
39.4478
 21
283.605
  0
LINE
  8
0
 10
39.4478
 20
283.605
 11
39.3613
 21
283.643
  0
LINE
  8
0
 10
39.3613
 20
283.643
 11
39.2774
 21
283.686
  0
LINE
  8
0
 10
39.2774
 20
283.686
 11
39.1963
 21
283.734
  0
LINE
  8
0
 10
39.1963
 20
283.734
 11
39.1183
 21
283.786
  0
LINE
  8
0
 10
39.1183
 20
283.786
 11
39.0439
 21
283.844
  0
LINE
  8
0
 10
39.0439
 20
283.844
 11
38.9732
 21
283.907
  0
LINE
  8
0
 10
38.9732
 20
283.907
 11
38.9065
 21
283.973
  0
LINE
  8
0
 10
38.9065
 20
283.973
 11
38.8442
 21
284.044
  0
LINE
  8
0
 10
38.8442
 20
284.044
 11
38.7865
 21
284.118
  0
LINE
  8
0
 10
38.7865
 20
284.118
 11
38.7335
 21
284.196
  0
LINE
  8
0
 10
38.7335
 20
284.196
 11
38.6855
 21
284.277
  0
LINE
  8
0
 10
38.6855
 20
284.277
 11
38.6428
 21
284.361
  0
LINE
  8
0
 10
38.6428
 20
284.361
 11
38.6053
 21
284.448
  0
LINE
  8
0
 10
38.6053
 20
284.448
 11
38.5734
 21
284.536
  0
LINE
  8
0
 10
38.5734
 20
284.536
 11
38.5471
 21
284.627
  0
LINE
  8
0
 10
38.5471
 20
284.627
 11
38.5266
 21
284.719
  0
LINE
  8
0
 10
38.5266
 20
284.719
 11
38.5118
 21
284.812
  0
LINE
  8
0
 10
38.5118
 20
284.812
 11
38.503
 21
284.906
  0
LINE
  8
0
 10
38.503
 20
284.906
 11
38.5
 21
285
  0
LINE
  8
0
 10
38.5
 20
285
 11
38.503
 21
285.094
  0
LINE
  8
0
 10
38.503
 20
285.094
 11
38.5118
 21
285.188
  0
LINE
  8
0
 10
38.5118
 20
285.188
 11
38.5266
 21
285.281
  0
LINE
  8
0
 10
38.5266
 20
285.281
 11
38.5471
 21
285.373
  0
LINE
  8
0
 10
38.5471
 20
285.373
 11
38.5734
 21
285.464
  0
LINE
  8
0
 10
38.5734
 20
285.464
 11
38.6053
 21
285.552
  0
LINE
  8
0
 10
38.6053
 20
285.552
 11
38.6428
 21
285.639
  0
LINE
  8
0
 10
38.6428
 20
285.639
 11
38.6855
 21
285.723
  0
LINE
  8
0
 10
38.6855
 20
285.723
 11
38.7335
 21
285.804
  0
LINE
  8
0
 10
38.7335
 20
285.804
 11
38.7865
 21
285.882
  0
LINE
  8
0
 10
38.7865
 20
285.882
 11
38.8442
 21
285.956
  0
LINE
  8
0
 10
38.8442
 20
285.956
 11
38.9065
 21
286.027
  0
LINE
  8
0
 10
38.9065
 20
286.027
 11
38.9732
 21
286.093
  0
LINE
  8
0
 10
38.9732
 20
286.093
 11
39.0439
 21
286.156
  0
LINE
  8
0
 10
39.0439
 20
286.156
 11
39.1183
 21
286.214
  0
LINE
  8
0
 10
39.1183
 20
286.214
 11
39.1963
 21
286.266
  0
LINE
  8
0
 10
39.1963
 20
286.266
 11
39.2774
 21
286.314
  0
LINE
  8
0
 10
39.2774
 20
286.314
 11
39.3613
 21
286.357
  0
LINE
  8
0
 10
39.3613
 20
286.357
 11
39.4478
 21
286.395
  0
LINE
  8
0
 10
39.4478
 20
286.395
 11
39.5365
 21
286.427
  0
LINE
  8
0
 10
39.5365
 20
286.427
 11
39.627
 21
286.453
  0
LINE
  8
0
 10
39.627
 20
286.453
 11
39.7189
 21
286.473
  0
LINE
  8
0
 10
39.7189
 20
286.473
 11
39.812
 21
286.488
  0
LINE
  8
0
 10
39.812
 20
286.488
 11
39.9058
 21
286.497
  0
LINE
  8
0
 10
39.9058
 20
286.497
 11
40
 21
286.5
  0
LINE
  8
0
 10
40
 20
286.5
 11
40.0942
 21
286.497
  0
LINE
  8
0
 10
40.0942
 20
286.497
 11
40.188
 21
286.488
  0
LINE
  8
0
 10
40.188
 20
286.488
 11
40.2811
 21
286.473
  0
LINE
  8
0
 10
40.2811
 20
286.473
 11
40.373
 21
286.453
  0
LINE
  8
0
 10
40.373
 20
286.453
 11
40.4635
 21
286.427
  0
LINE
  8
0
 10
40.4635
 20
286.427
 11
40.5522
 21
286.395
  0
LINE
  8
0
 10
40.5522
 20
286.395
 11
40.6387
 21
286.357
  0
LINE
  8
0
 10
40.6387
 20
286.357
 11
40.7226
 21
286.314
  0
LINE
  8
0
 10
40.7226
 20
286.314
 11
40.8037
 21
286.266
  0
LINE
  8
0
 10
40.8037
 20
286.266
 11
40.8817
 21
286.214
  0
LINE
  8
0
 10
40.8817
 20
286.214
 11
40.9561
 21
286.156
  0
LINE
  8
0
 10
40.9561
 20
286.156
 11
41.0268
 21
286.093
  0
LINE
  8
0
 10
41.0268
 20
286.093
 11
41.0934
 21
286.027
  0
LINE
  8
0
 10
41.0934
 20
286.027
 11
41.1558
 21
285.956
  0
LINE
  8
0
 10
41.1558
 20
285.956
 11
41.2135
 21
285.882
  0
LINE
  8
0
 10
41.2135
 20
285.882
 11
41.2665
 21
285.804
  0
LINE
  8
0
 10
41.2665
 20
285.804
 11
41.3145
 21
285.723
  0
LINE
  8
0
 10
41.3145
 20
285.723
 11
41.3572
 21
285.639
  0
LINE
  8
0
 10
41.3572
 20
285.639
 11
41.3947
 21
285.552
  0
LINE
  8
0
 10
41.3947
 20
285.552
 11
41.4266
 21
285.464
  0
LINE
  8
0
 10
41.4266
 20
285.464
 11
41.4529
 21
285.373
  0
LINE
  8
0
 10
41.4529
 20
285.373
 11
41.4734
 21
285.281
  0
LINE
  8
0
 10
41.4734
 20
285.281
 11
41.4882
 21
285.188
  0
LINE
  8
0
 10
41.4882
 20
285.188
 11
41.497
 21
285.094
  0
LINE
  8
0
 10
41.497
 20
285.094
 11
41.5
 21
285
  0
LINE
  8
0
 10
41.5
 20
285
 11
41.497
 21
284.906
  0
LINE
  8
0
 10
41.497
 20
284.906
 11
41.4882
 21
284.812
  0
LINE
  8
0
 10
41.4882
 20
284.812
 11
41.4734
 21
284.719
  0
LINE
  8
0
 10
41.4734
 20
284.719
 11
41.4529
 21
284.627
  0
LINE
  8
0
 10
41.4529
 20
284.627
 11
41.4266
 21
284.536
  0
LINE
  8
0
 10
41.4266
 20
284.536
 11
41.3947
 21
284.448
  0
LINE
  8
0
 10
41.3947
 20
284.448
 11
41.3572
 21
284.361
  0
LINE
  8
0
 10
41.3572
 20
284.361
 11
41.3145
 21
284.277
  0
LINE
  8
0
 10
41.3145
 20
284.277
 11
41.2665
 21
284.196
  0
LINE
  8
0
 10
41.2665
 20
284.196
 11
41.2135
 21
284.118
  0
LINE
  8
0
 10
41.2135
 20
284.118
 11
41.1558
 21
284.044
  0
LINE
  8
0
 10
41.1558
 20
284.044
 11
41.0934
 21
283.973
  0
LINE
  8
0
 10
41.0934
 20
283.973
 11
41.0268
 21
283.907
  0
LINE
  8
0
 10
41.0268
 20
283.907
 11
40.9561
 21
283.844
  0
LINE
  8
0
 10
40.9561
 20
283.844
 11
40.8817
 21
283.786
  0
LINE
  8
0
 10
40.8817
 20
283.786
 11
40.8037
 21
283.734
  0
LINE
  8
0
 10
40.8037
 20
283.734
 11
40.7226
 21
283.686
  0
LINE
  8
0
 10
40.7226
 20
283.686
 11
40.6387
 21
283.643
  0
LINE
  8
0
 10
40.6387
 20
283.643
 11
40.5522
 21
283.605
  0
LINE
  8
0
 10
40.5522
 20
283.605
 11
40.4635
 21
283.573
  0
LINE
  8
0
 10
40.4635
 20
283.573
 11
40.373
 21
283.547
  0
LINE
  8
0
 10
40.373
 20
283.547
 11
40.2811
 21
283.527
  0
LINE
  8
0
 10
40.2811
 20
283.527
 11
40.188
 21
283.512
  0
LINE
  8
0
 10
40.188
 20
283.512
 11
40.0942
 21
283.503
  0
LINE
  8
0
 10
40.0942
 20
283.503
 11
40
 21
283.5
  0
LINE
  8
0
 10
40
 20
283.5
 11
39.9058
 21
283.503
  0
LINE
  8
0
 10
29.9058
 20
283.503
 11
29.812
 21
283.512
  0
LINE
  8
0
 10
29.812
 20
283.512
 11
29.7189
 21
283.527
  0
LINE
  8
0
 10
29.7189
 20
283.527
 11
29.627
 21
283.547
  0
LINE
  8
0
 10
29.627
 20
283.547
 11
29.5365
 21
283.573
  0
LINE
  8
0
 10
29.5365
 20
283.573
 11
29.4478
 21
283.605
  0
LINE
  8
0
 10
29.4478
 20
283.605
 11
29.3613
 21
283.643
  0
LINE
  8
0
 10
29.3613
 20
283.643
 11
29.2774
 21
283.686
  0
LINE
  8
0
 10
29.2774
 20
283.686
 11
29.1963
 21
283.734
  0
LINE
  8
0
 10
29.1963
 20
283.734
 11
29.1183
 21
283.786
  0
LINE
  8
0
 10
29.1183
 20
283.786
 11
29.0439
 21
283.844
  0
LINE
  8
0
 10
29.0439
 20
283.844
 11
28.9732
 21
283.907
  0
LINE
  8
0
 10
28.9732
 20
283.907
 11
28.9065
 21
283.973
  0
LINE
  8
0
 10
28.9065
 20
283.973
 11
28.8442
 21
284.044
  0
LINE
  8
0
 10
28.8442
 20
284.044
 11
28.7865
 21
284.118
  0
LINE
  8
0
 10
28.7865
 20
284.118
 11
28.7335
 21
284.196
  0
LINE
  8
0
 10
28.7335
 20
284.196
 11
28.6855
 21
284.277
  0
LINE
  8
0
 10
28.6855
 20
284.277
 11
28.6427
 21
284.361
  0
LINE
  8
0
 10
28.6427
 20
284.361
 11
28.6053
 21
284.448
  0
LINE
  8
0
 10
28.6053
 20
284.448
 11
28.5734
 21
284.536
  0
LINE
  8
0
 10
28.5734
 20
284.536
 11
28.5471
 21
284.627
  0
LINE
  8
0
 10
28.5471
 20
284.627
 11
28.5266
 21
284.719
  0
LINE
  8
0
 10
28.5266
 20
284.719
 11
28.5118
 21
284.812
  0
LINE
  8
0
 10
28.5118
 20
284.812
 11
28.503
 21
284.906
  0
LINE
  8
0
 10
28.503
 20
284.906
 11
28.5
 21
285
  0
LINE
  8
0
 10
28.5
 20
285
 11
28.503
 21
285.094
  0
LINE
  8
0
 10
28.503
 20
285.094
 11
28.5118
 21
285.188
  0
LINE
  8
0
 10
28.5118
 20
285.188
 11
28.5266
 21
285.281
  0
LINE
  8
0
 10
28.5266
 20
285.281
 11
28.5471
 21
285.373
  0
LINE
  8
0
 10
28.5471
 20
285.373
 11
28.5734
 21
285.464
  0
LINE
  8
0
 10
28.5734
 20
285.464
 11
28.6053
 21
285.552
  0
LINE
  8
0
 10
28.6053
 20
285.552
 11
28.6427
 21
285.639
  0
LINE
  8
0
 10
28.6427
 20
285.639
 11
28.6855
 21
285.723
  0
LINE
  8
0
 10
28.6855
 20
285.723
 11
28.7335
 21
285.804
  0
LINE
  8
0
 10
28.7335
 20
285.804
 11
28.7865
 21
285.882
  0
LINE
  8
0
 10
28.7865
 20
285.882
 11
28.8442
 21
285.956
  0
LINE
  8
0
 10
28.8442
 20
285.956
 11
28.9065
 21
286.027
  0
LINE
  8
0
 10
28.9065
 20
286.027
 11
28.9732
 21
286.093
  0
LINE
  8
0
 10
28.9732
 20
286.093
 11
29.0439
 21
286.156
  0
LINE
  8
0
 10
29.0439
 20
286.156
 11
29.1183
 21
286.214
  0
LINE
  8
0
 10
29.1183
 20
286.214
 11
29.1963
 21
286.266
  0
LINE
  8
0
 10
29.1963
 20
286.266
 11
29.2774
 21
286.314
  0
LINE
  8
0
 10
29.2774
 20
286.314
 11
29.3613
 21
286.357
  0
LINE
  8
0
 10
29.3613
 20
286.357
 11
29.4478
 21
286.395
  0
LINE
  8
0
 10
29.4478
 20
286.395
 11
29.5365
 21
286.427
  0
LINE
  8
0
 10
29.5365
 20
286.427
 11
29.627
 21
286.453
  0
LINE
  8
0
 10
29.627
 20
286.453
 11
29.7189
 21
286.473
  0
LINE
  8
0
 10
29.7189
 20
286.473
 11
29.812
 21
286.488
  0
LINE
  8
0
 10
29.812
 20
286.488
 11
29.9058
 21
286.497
  0
LINE
  8
0
 10
29.9058
 20
286.497
 11
30
 21
286.5
  0
LINE
  8
0
 10
30
 20
286.5
 11
30.0942
 21
286.497
  0
LINE
  8
0
 10
30.0942
 20
286.497
 11
30.188
 21
286.488
  0
LINE
  8
0
 10
30.188
 20
286.488
 11
30.2811
 21
286.473
  0
LINE
  8
0
 10
30.2811
 20
286.473
 11
30.373
 21
286.453
  0
LINE
  8
0
 10
30.373
 20
286.453
 11
30.4635
 21
286.427
  0
LINE
  8
0
 10
30.4635
 20
286.427
 11
30.5522
 21
286.395
  0
LINE
  8
0
 10
30.5522
 20
286.395
 11
30.6387
 21
286.357
  0
LINE
  8
0
 10
30.6387
 20
286.357
 11
30.7226
 21
286.314
  0
LINE
  8
0
 10
30.7226
 20
286.314
 11
30.8037
 21
286.266
  0
LINE
  8
0
 10
30.8037
 20
286.266
 11
30.8817
 21
286.214
  0
LINE
  8
0
 10
30.8817
 20
286.214
 11
30.9561
 21
286.156
  0
LINE
  8
0
 10
30.9561
 20
286.156
 11
31.0268
 21
286.093
  0
LINE
  8
0
 10
31.0268
 20
286.093
 11
31.0934
 21
286.027
  0
LINE
  8
0
 10
31.0934
 20
286.027
 11
31.1558
 21
285.956
  0
LINE
  8
0
 10
31.1558
 20
285.956
 11
31.2135
 21
285.882
  0
LINE
  8
0
 10
31.2135
 20
285.882
 11
31.2665
 21
285.804
  0
LINE
  8
0
 10
31.2665
 20
285.804
 11
31.3145
 21
285.723
  0
LINE
  8
0
 10
31.3145
 20
285.723
 11
31.3572
 21
285.639
  0
LINE
  8
0
 10
31.3572
 20
285.639
 11
31.3947
 21
285.552
  0
LINE
  8
0
 10
31.3947
 20
285.552
 11
31.4266
 21
285.464
  0
LINE
  8
0
 10
31.4266
 20
285.464
 11
31.4529
 21
285.373
  0
LINE
  8
0
 10
31.4529
 20
285.373
 11
31.4734
 21
285.281
  0
LINE
  8
0
 10
31.4734
 20
285.281
 11
31.4882
 21
285.188
  0
LINE
  8
0
 10
31.4882
 20
285.188
 11
31.497
 21
285.094
  0
LINE
  8
0
 10
31.497
 20
285.094
 11
31.5
 21
285
  0
LINE
  8
0
 10
31.5
 20
285
 11
31.497
 21
284.906
  0
LINE
  8
0
 10
31.497
 20
284.906
 11
31.4882
 21
284.812
  0
LINE
  8
0
 10
31.4882
 20
284.812
 11
31.4734
 21
284.719
  0
LINE
  8
0
 10
31.4734
 20
284.719
 11
31.4529
 21
284.627
  0
LINE
  8
0
 10
31.4529
 20
284.627
 11
31.4266
 21
284.536
  0
LINE
  8
0
 10
31.4266
 20
284.536
 11
31.3947
 21
284.448
  0
LINE
  8
0
 10
31.3947
 20
284.448
 11
31.3572
 21
284.361
  0
LINE
  8
0
 10
31.3572
 20
284.361
 11
31.3145
 21
284.277
  0
LINE
  8
0
 10
31.3145
 20
284.277
 11
31.2665
 21
284.196
  0
LINE
  8
0
 10
31.2665
 20
284.196
 11
31.2135
 21
284.118
  0
LINE
  8
0
 10
31.2135
 20
284.118
 11
31.1558
 21
284.044
  0
LINE
  8
0
 10
31.1558
 20
284.044
 11
31.0934
 21
283.973
  0
LINE
  8
0
 10
31.0934
 20
283.973
 11
31.0268
 21
283.907
  0
LINE
  8
0
 10
31.0268
 20
283.907
 11
30.9561
 21
283.844
  0
LINE
  8
0
 10
30.9561
 20
283.844
 11
30.8817
 21
283.786
  0
LINE
  8
0
 10
30.8817
 20
283.786
 11
30.8037
 21
283.734
  0
LINE
  8
0
 10
30.8037
 20
283.734
 11
30.7226
 21
283.686
  0
LINE
  8
0
 10
30.7226
 20
283.686
 11
30.6387
 21
283.643
  0
LINE
  8
0
 10
30.6387
 20
283.643
 11
30.5522
 21
283.605
  0
LINE
  8
0
 10
30.5522
 20
283.605
 11
30.4635
 21
283.573
  0
LINE
  8
0
 10
30.4635
 20
283.573
 11
30.373
 21
283.547
  0
LINE
  8
0
 10
30.373
 20
283.547
 11
30.2811
 21
283.527
  0
LINE
  8
0
 10
30.2811
 20
283.527
 11
30.188
 21
283.512
  0
LINE
  8
0
 10
30.188
 20
283.512
 11
30.0942
 21
283.503
  0
LINE
  8
0
 10
30.0942
 20
283.503
 11
30
 21
283.5
  0
LINE
  8
0
 10
30
 20
283.5
 11
29.9058
 21
283.503
  0
LINE
  8
0
 10
39.9058
 20
63.503
 11
39.812
 21
63.5118
  0
LINE
  8
0
 10
39.812
 20
63.5118
 11
39.7189
 21
63.5266
  0
LINE
  8
0
 10
39.7189
 20
63.5266
 11
39.627
 21
63.5471
  0
LINE
  8
0
 10
39.627
 20
63.5471
 11
39.5365
 21
63.5734
  0
LINE
  8
0
 10
39.5365
 20
63.5734
 11
39.4478
 21
63.6053
  0
LINE
  8
0
 10
39.4478
 20
63.6053
 11
39.3613
 21
63.6428
  0
LINE
  8
0
 10
39.3613
 20
63.6428
 11
39.2774
 21
63.6855
  0
LINE
  8
0
 10
39.2774
 20
63.6855
 11
39.1963
 21
63.7335
  0
LINE
  8
0
 10
39.1963
 20
63.7335
 11
39.1183
 21
63.7865
  0
LINE
  8
0
 10
39.1183
 20
63.7865
 11
39.0439
 21
63.8442
  0
LINE
  8
0
 10
39.0439
 20
63.8442
 11
38.9732
 21
63.9065
  0
LINE
  8
0
 10
38.9732
 20
63.9065
 11
38.9065
 21
63.9732
  0
LINE
  8
0
 10
38.9065
 20
63.9732
 11
38.8442
 21
64.0439
  0
LINE
  8
0
 10
38.8442
 20
64.0439
 11
38.7865
 21
64.1183
  0
LINE
  8
0
 10
38.7865
 20
64.1183
 11
38.7335
 21
64.1963
  0
LINE
  8
0
 10
38.7335
 20
64.1963
 11
38.6855
 21
64.2774
  0
LINE
  8
0
 10
38.6855
 20
64.2774
 11
38.6428
 21
64.3613
  0
LINE
  8
0
 10
38.6428
 20
64.3613
 11
38.6053
 21
64.4478
  0
LINE
  8
0
 10
38.6053
 20
64.4478
 11
38.5734
 21
64.5365
  0
LINE
  8
0
 10
38.5734
 20
64.5365
 11
38.5471
 21
64.627
  0
LINE
  8
0
 10
38.5471
 20
64.627
 11
38.5266
 21
64.7189
  0
LINE
  8
0
 10
38.5266
 20
64.7189
 11
38.5118
 21
64.812
  0
LINE
  8
0
 10
38.5118
 20
64.812
 11
38.503
 21
64.9058
  0
LINE
  8
0
 10
38.503
 20
64.9058
 11
38.5
 21
65
  0
LINE
  8
0
 10
38.5
 20
65
 11
38.503
 21
65.0942
  0
LINE
  8
0
 10
38.503
 20
65.0942
 11
38.5118
 21
65.188
  0
LINE
  8
0
 10
38.5118
 20
65.188
 11
38.5266
 21
65.2811
  0
LINE
  8
0
 10
38.5266
 20
65.2811
 11
38.5471
 21
65.373
  0
LINE
  8
0
 10
38.5471
 20
65.373
 11
38.5734
 21
65.4635
  0
LINE
  8
0
 10
38.5734
 20
65.4635
 11
38.6053
 21
65.5522
  0
LINE
  8
0
 10
38.6053
 20
65.5522
 11
38.6428
 21
65.6387
  0
LINE
  8
0
 10
38.6428
 20
65.6387
 11
38.6855
 21
65.7226
  0
LINE
  8
0
 10
38.6855
 20
65.7226
 11
38.7335
 21
65.8037
  0
LINE
  8
0
 10
38.7335
 20
65.8037
 11
38.7865
 21
65.8817
  0
LINE
  8
0
 10
38.7865
 20
65.8817
 11
38.8442
 21
65.9561
  0
LINE
  8
0
 10
38.8442
 20
65.9561
 11
38.9065
 21
66.0268
  0
LINE
  8
0
 10
38.9065
 20
66.0268
 11
38.9732
 21
66.0934
  0
LINE
  8
0
 10
38.9732
 20
66.0934
 11
39.0439
 21
66.1558
  0
LINE
  8
0
 10
39.0439
 20
66.1558
 11
39.1183
 21
66.2135
  0
LINE
  8
0
 10
39.1183
 20
66.2135
 11
39.1963
 21
66.2665
  0
LINE
  8
0
 10
39.1963
 20
66.2665
 11
39.2774
 21
66.3145
  0
LINE
  8
0
 10
39.2774
 20
66.3145
 11
39.3613
 21
66.3572
  0
LINE
  8
0
 10
39.3613
 20
66.3572
 11
39.4478
 21
66.3947
  0
LINE
  8
0
 10
39.4478
 20
66.3947
 11
39.5365
 21
66.4266
  0
LINE
  8
0
 10
39.5365
 20
66.4266
 11
39.627
 21
66.4529
  0
LINE
  8
0
 10
39.627
 20
66.4529
 11
39.7189
 21
66.4734
  0
LINE
  8
0
 10
39.7189
 20
66.4734
 11
39.812
 21
66.4882
  0
LINE
  8
0
 10
39.812
 20
66.4882
 11
39.9058
 21
66.497
  0
LINE
  8
0
 10
39.9058
 20
66.497
 11
40
 21
66.5
  0
LINE
  8
0
 10
40
 20
66.5
 11
40.0942
 21
66.497
  0
LINE
  8
0
 10
40.0942
 20
66.497
 11
40.188
 21
66.4882
  0
LINE
  8
0
 10
40.188
 20
66.4882
 11
40.2811
 21
66.4734
  0
LINE
  8
0
 10
40.2811
 20
66.4734
 11
40.373
 21
66.4529
  0
LINE
  8
0
 10
40.373
 20
66.4529
 11
40.4635
 21
66.4266
  0
LINE
  8
0
 10
40.4635
 20
66.4266
 11
40.5522
 21
66.3947
  0
LINE
  8
0
 10
40.5522
 20
66.3947
 11
40.6387
 21
66.3572
  0
LINE
  8
0
 10
40.6387
 20
66.3572
 11
40.7226
 21
66.3145
  0
LINE
  8
0
 10
40.7226
 20
66.3145
 11
40.8037
 21
66.2665
  0
LINE
  8
0
 10
40.8037
 20
66.2665
 11
40.8817
 21
66.2135
  0
LINE
  8
0
 10
40.8817
 20
66.2135
 11
40.9561
 21
66.1558
  0
LINE
  8
0
 10
40.9561
 20
66.1558
 11
41.0268
 21
66.0934
  0
LINE
  8
0
 10
41.0268
 20
66.0934
 11
41.0934
 21
66.0268
  0
LINE
  8
0
 10
41.0934
 20
66.0268
 11
41.1558
 21
65.9561
  0
LINE
  8
0
 10
41.1558
 20
65.9561
 11
41.2135
 21
65.8817
  0
LINE
  8
0
 10
41.2135
 20
65.8817
 11
41.2665
 21
65.8037
  0
LINE
  8
0
 10
41.2665
 20
65.8037
 11
41.3145
 21
65.7226
  0
LINE
  8
0
 10
41.3145
 20
65.7226
 11
41.3572
 21
65.6387
  0
LINE
  8
0
 10
41.3572
 20
65.6387
 11
41.3947
 21
65.5522
  0
LINE
  8
0
 10
41.3947
 20
65.5522
 11
41.4266
 21
65.4635
  0
LINE
  8
0
 10
41.4266
 20
65.4635
 11
41.4529
 21
65.373
  0
LINE
  8
0
 10
41.4529
 20
65.373
 11
41.4734
 21
65.2811
  0
LINE
  8
0
 10
41.4734
 20
65.2811
 11
41.4882
 21
65.188
  0
LINE
  8
0
 10
41.4882
 20
65.188
 11
41.497
 21
65.0942
  0
LINE
  8
0
 10
41.497
 20
65.0942
 11
41.5
 21
65
  0
LINE
  8
0
 10
41.5
 20
65
 11
41.497
 21
64.9058
  0
LINE
  8
0
 10
41.497
 20
64.9058
 11
41.4882
 21
64.812
  0
LINE
  8
0
 10
41.4882
 20
64.812
 11
41.4734
 21
64.7189
  0
LINE
  8
0
 10
41.4734
 20
64.7189
 11
41.4529
 21
64.627
  0
LINE
  8
0
 10
41.4529
 20
64.627
 11
41.4266
 21
64.5365
  0
LINE
  8
0
 10
41.4266
 20
64.5365
 11
41.3947
 21
64.4478
  0
LINE
  8
0
 10
41.3947
 20
64.4478
 11
41.3572
 21
64.3613
  0
LINE
  8
0
 10
41.3572
 20
64.3613
 11
41.3145
 21
64.2774
  0
LINE
  8
0
 10
41.3145
 20
64.2774
 11
41.2665
 21
64.1963
  0
LINE
  8
0
 10
41.2665
 20
64.1963
 11
41.2135
 21
64.1183
  0
LINE
  8
0
 10
41.2135
 20
64.1183
 11
41.1558
 21
64.0439
  0
LINE
  8
0
 10
41.1558
 20
64.0439
 11
41.0934
 21
63.9732
  0
LINE
  8
0
 10
41.0934
 20
63.9732
 11
41.0268
 21
63.9065
  0
LINE
  8
0
 10
41.0268
 20
63.9065
 11
40.9561
 21
63.8442
  0
LINE
  8
0
 10
40.9561
 20
63.8442
 11
40.8817
 21
63.7865
  0
LINE
  8
0
 10
40.8817
 20
63.7865
 11
40.8037
 21
63.7335
  0
LINE
  8
0
 10
40.8037
 20
63.7335
 11
40.7226
 21
63.6855
  0
LINE
  8
0
 10
40.7226
 20
63.6855
 11
40.6387
 21
63.6428
  0
LINE
  8
0
 10
40.6387
 20
63.6428
 11
40.5522
 21
63.6053
  0
LINE
  8
0
 10
40.5522
 20
63.6053
 11
40.4635
 21
63.5734
  0
LINE
  8
0
 10
40.4635
 20
63.5734
 11
40.373
 21
63.5471
  0
LINE
  8
0
 10
40.373
 20
63.5471
 11
40.2811
 21
63.5266
  0
LINE
  8
0
 10
40.2811
 20
63.5266
 11
40.188
 21
63.5118
  0
LINE
  8
0
 10
40.188
 20
63.5118
 11
40.0942
 21
63.503
  0
LINE
  8
0
 10
40.0942
 20
63.503
 11
40
 21
63.5
  0
LINE
  8
0
 10
40
 20
63.5
 11
39.9058
 21
63.503
  0
LINE
  8
0
 10
29.9058
 20
63.503
 11
29.812
 21
63.5118
  0
LINE
  8
0
 10
29.812
 20
63.5118
 11
29.7189
 21
63.5266
  0
LINE
  8
0
 10
29.7189
 20
63.5266
 11
29.627
 21
63.5471
  0
LINE
  8
0
 10
29.627
 20
63.5471
 11
29.5365
 21
63.5734
  0
LINE
  8
0
 10
29.5365
 20
63.5734
 11
29.4478
 21
63.6053
  0
LINE
  8
0
 10
29.4478
 20
63.6053
 11
29.3613
 21
63.6428
  0
LINE
  8
0
 10
29.3613
 20
63.6428
 11
29.2774
 21
63.6855
  0
LINE
  8
0
 10
29.2774
 20
63.6855
 11
29.1963
 21
63.7335
  0
LINE
  8
0
 10
29.1963
 20
63.7335
 11
29.1183
 21
63.7865
  0
LINE
  8
0
 10
29.1183
 20
63.7865
 11
29.0439
 21
63.8442
  0
LINE
  8
0
 10
29.0439
 20
63.8442
 11
28.9732
 21
63.9065
  0
LINE
  8
0
 10
28.9732
 20
63.9065
 11
28.9065
 21
63.9732
  0
LINE
  8
0
 10
28.9065
 20
63.9732
 11
28.8442
 21
64.0439
  0
LINE
  8
0
 10
28.8442
 20
64.0439
 11
28.7865
 21
64.1183
  0
LINE
  8
0
 10
28.7865
 20
64.1183
 11
28.7335
 21
64.1963
  0
LINE
  8
0
 10
28.7335
 20
64.1963
 11
28.6855
 21
64.2774
  0
LINE
  8
0
 10
28.6855
 20
64.2774
 11
28.6427
 21
64.3613
  0
LINE
  8
0
 10
28.6427
 20
64.3613
 11
28.6053
 21
64.4478
  0
LINE
  8
0
 10
28.6053
 20
64.4478
 11
28.5734
 21
64.5365
  0
LINE
  8
0
 10
28.5734
 20
64.5365
 11
28.5471
 21
64.627
  0
LINE
  8
0
 10
28.5471
 20
64.627
 11
28.5266
 21
64.7189
  0
LINE
  8
0
 10
28.5266
 20
64.7189
 11
28.5118
 21
64.812
  0
LINE
  8
0
 10
28.5118
 20
64.812
 11
28.503
 21
64.9058
  0
LINE
  8
0
 10
28.503
 20
64.9058
 11
28.5
 21
65
  0
LINE
  8
0
 10
28.5
 20
65
 11
28.503
 21
65.0942
  0
LINE
  8
0
 10
28.503
 20
65.0942
 11
28.5118
 21
65.188
  0
LINE
  8
0
 10
28.5118
 20
65.188
 11
28.5266
 21
65.2811
  0
LINE
  8
0
 10
28.5266
 20
65.2811
 11
28.5471
 21
65.373
  0
LINE
  8
0
 10
28.5471
 20
65.373
 11
28.5734
 21
65.4635
  0
LINE
  8
0
 10
28.5734
 20
65.4635
 11
28.6053
 21
65.5522
  0
LINE
  8
0
 10
28.6053
 20
65.5522
 11
28.6427
 21
65.6387
  0
LINE
  8
0
 10
28.6427
 20
65.6387
 11
28.6855
 21
65.7226
  0
LINE
  8
0
 10
28.6855
 20
65.7226
 11
28.7335
 21
65.8037
  0
LINE
  8
0
 10
28.7335
 20
65.8037
 11
28.7865
 21
65.8817
  0
LINE
  8
0
 10
28.7865
 20
65.8817
 11
28.8442
 21
65.9561
  0
LINE
  8
0
 10
28.8442
 20
65.9561
 11
28.9065
 21
66.0268
  0
LINE
  8
0
 10
28.9065
 20
66.0268
 11
28.9732
 21
66.0934
  0
LINE
  8
0
 10
28.9732
 20
66.0934
 11
29.0439
 21
66.1558
  0
LINE
  8
0
 10
29.0439
 20
66.1558
 11
29.1183
 21
66.2135
  0
LINE
  8
0
 10
29.1183
 20
66.2135
 11
29.1963
 21
66.2665
  0
LINE
  8
0
 10
29.1963
 20
66.2665
 11
29.2774
 21
66.3145
  0
LINE
  8
0
 10
29.2774
 20
66.3145
 11
29.3613
 21
66.3572
  0
LINE
  8
0
 10
29.3613
 20
66.3572
 11
29.4478
 21
66.3947
  0
LINE
  8
0
 10
29.4478
 20
66.3947
 11
29.5365
 21
66.4266
  0
LINE
  8
0
 10
29.5365
 20
66.4266
 11
29.627
 21
66.4529
  0
LINE
  8
0
 10
29.627
 20
66.4529
 11
29.7189
 21
66.4734
  0
LINE
  8
0
 10
29.7189
 20
66.4734
 11
29.812
 21
66.4882
  0
LINE
  8
0
 10
29.812
 20
66.4882
 11
29.9058
 21
66.497
  0
LINE
  8
0
 10
29.9058
 20
66.497
 11
30
 21
66.5
  0
LINE
  8
0
 10
30
 20
66.5
 11
30.0942
 21
66.497
  0
LINE
  8
0
 10
30.0942
 20
66.497
 11
30.188
 21
66.4882
  0
LINE
  8
0
 10
30.188
 20
66.4882
 11
30.2811
 21
66.4734
  0
LINE
  8
0
 10
30.2811
 20
66.4734
 11
30.373
 21
66.4529
  0
LINE
  8
0
 10
30.373
 20
66.4529
 11
30.4635
 21
66.4266
  0
LINE
  8
0
 10
30.4635
 20
66.4266
 11
30.5522
 21
66.3947
  0
LINE
  8
0
 10
30.5522
 20
66.3947
 11
30.6387
 21
66.3572
  0
LINE
  8
0
 10
30.6387
 20
66.3572
 11
30.7226
 21
66.3145
  0
LINE
  8
0
 10
30.7226
 20
66.3145
 11
30.8037
 21
66.2665
  0
LINE
  8
0
 10
30.8037
 20
66.2665
 11
30.8817
 21
66.2135
  0
LINE
  8
0
 10
30.8817
 20
66.2135
 11
30.9561
 21
66.1558
  0
LINE
  8
0
 10
30.9561
 20
66.1558
 11
31.0268
 21
66.0934
  0
LINE
  8
0
 10
31.0268
 20
66.0934
 11
31.0934
 21
66.0268
  0
LINE
  8
0
 10
31.0934
 20
66.0268
 11
31.1558
 21
65.9561
  0
LINE
  8
0
 10
31.1558
 20
65.9561
 11
31.2135
 21
65.8817
  0
LINE
  8
0
 10
31.2135
 20
65.8817
 11
31.2665
 21
65.8037
  0
LINE
  8
0
 10
31.2665
 20
65.8037
 11
31.3145
 21
65.7226
  0
LINE
  8
0
 10
31.3145
 20
65.7226
 11
31.3572
 21
65.6387
  0
LINE
  8
0
 10
31.3572
 20
65.6387
 11
31.3947
 21
65.5522
  0
LINE
  8
0
 10
31.3947
 20
65.5522
 11
31.4266
 21
65.4635
  0
LINE
  8
0
 10
31.4266
 20
65.4635
 11
31.4529
 21
65.373
  0
LINE
  8
0
 10
31.4529
 20
65.373
 11
31.4734
 21
65.2811
  0
LINE
  8
0
 10
31.4734
 20
65.2811
 11
31.4882
 21
65.188
  0
LINE
  8
0
 10
31.4882
 20
65.188
 11
31.497
 21
65.0942
  0
LINE
  8
0
 10
31.497
 20
65.0942
 11
31.5
 21
65
  0
LINE
  8
0
 10
31.5
 20
65
 11
31.497
 21
64.9058
  0
LINE
  8
0
 10
31.497
 20
64.9058
 11
31.4882
 21
64.812
  0
LINE
  8
0
 10
31.4882
 20
64.812
 11
31.4734
 21
64.7189
  0
LINE
  8
0
 10
31.4734
 20
64.7189
 11
31.4529
 21
64.627
  0
LINE
  8
0
 10
31.4529
 20
64.627
 11
31.4266
 21
64.5365
  0
LINE
  8
0
 10
31.4266
 20
64.5365
 11
31.3947
 21
64.4478
  0
LINE
  8
0
 10
31.3947
 20
64.4478
 11
31.3572
 21
64.3613
  0
LINE
  8
0
 10
31.3572
 20
64.3613
 11
31.3145
 21
64.2774
  0
LINE
  8
0
 10
31.3145
 20
64.2774
 11
31.2665
 21
64.1963
  0
LINE
  8
0
 10
31.2665
 20
64.1963
 11
31.2135
 21
64.1183
  0
LINE
  8
0
 10
31.2135
 20
64.1183
 11
31.1558
 21
64.0439
  0
LINE
  8
0
 10
31.1558
 20
64.0439
 11
31.0934
 21
63.9732
  0
LINE
  8
0
 10
31.0934
 20
63.9732
 11
31.0268
 21
63.9065
  0
LINE
  8
0
 10
31.0268
 20
63.9065
 11
30.9561
 21
63.8442
  0
LINE
  8
0
 10
30.9561
 20
63.8442
 11
30.8817
 21
63.7865
  0
LINE
  8
0
 10
30.8817
 20
63.7865
 11
30.8037
 21
63.7335
  0
LINE
  8
0
 10
30.8037
 20
63.7335
 11
30.7226
 21
63.6855
  0
LINE
  8
0
 10
30.7226
 20
63.6855
 11
30.6387
 21
63.6428
  0
LINE
  8
0
 10
30.6387
 20
63.6428
 11
30.5522
 21
63.6053
  0
LINE
  8
0
 10
30.5522
 20
63.6053
 11
30.4635
 21
63.5734
  0
LINE
  8
0
 10
30.4635
 20
63.5734
 11
30.373
 21
63.5471
  0
LINE
  8
0
 10
30.373
 20
63.5471
 11
30.2811
 21
63.5266
  0
LINE
  8
0
 10
30.2811
 20
63.5266
 11
30.188
 21
63.5118
  0
LINE
  8
0
 10
30.188
 20
63.5118
 11
30.0942
 21
63.503
  0
LINE
  8
0
 10
30.0942
 20
63.503
 11
30
 21
63.5
  0
LINE
  8
0
 10
30
 20
63.5
 11
29.9058
 21
63.503
  0
ENDSEC
  0
SECTION
  2
OBJECTS
  0
DICTIONARY
  0
ENDSEC
  0
EOF
