<?xml version="1.0"?>
<svg xmlns="http://www.w3.org/2000/svg" xmlns:lc="http://www.librecad.org" xmlns:xlink="http://www.w3.org/1999/xlink" width="365mm" height="395mm" viewBox="0 0 365 395">
    <g lc:layername="0" lc:is_locked="false" lc:is_construction="false" fill="none" stroke="black" stroke-width="1">
        <line x1="325" y1="0" x2="25" y2="0"/>
        <line x1="25" y1="0" x2="25" y2="80"/>
        <line x1="25" y1="80" x2="325" y2="80"/>
        <line x1="325" y1="80" x2="325" y2="0"/>
        <line x1="304.906" y1="11.497" x2="304.812" y2="11.488"/>
        <line x1="304.812" y1="11.488" x2="304.719" y2="11.473"/>
        <line x1="304.719" y1="11.473" x2="304.627" y2="11.453"/>
        <line x1="304.627" y1="11.453" x2="304.536" y2="11.427"/>
        <line x1="304.536" y1="11.427" x2="304.448" y2="11.395"/>
        <line x1="304.448" y1="11.395" x2="304.361" y2="11.357"/>
        <line x1="304.361" y1="11.357" x2="304.277" y2="11.314"/>
        <line x1="304.277" y1="11.314" x2="304.196" y2="11.266"/>
        <line x1="304.196" y1="11.266" x2="304.118" y2="11.214"/>
        <line x1="304.118" y1="11.214" x2="304.044" y2="11.156"/>
        <line x1="304.044" y1="11.156" x2="303.973" y2="11.093"/>
        <line x1="303.973" y1="11.093" x2="303.907" y2="11.027"/>
        <line x1="303.907" y1="11.027" x2="303.844" y2="10.956"/>
        <line x1="303.844" y1="10.956" x2="303.786" y2="10.882"/>
        <line x1="303.786" y1="10.882" x2="303.734" y2="10.804"/>
        <line x1="303.734" y1="10.804" x2="303.686" y2="10.723"/>
        <line x1="303.686" y1="10.723" x2="303.643" y2="10.639"/>
        <line x1="303.643" y1="10.639" x2="303.605" y2="10.552"/>
        <line x1="303.605" y1="10.552" x2="303.573" y2="10.464"/>
        <line x1="303.573" y1="10.464" x2="303.547" y2="10.373"/>
        <line x1="303.547" y1="10.373" x2="303.527" y2="10.281"/>
        <line x1="303.527" y1="10.281" x2="303.512" y2="10.188"/>
        <line x1="303.512" y1="10.188" x2="303.503" y2="10.094"/>
        <line x1="303.503" y1="10.094" x2="303.5" y2="10"/>
        <line x1="303.5" y1="10" x2="303.503" y2="9.906"/>
        <line x1="303.503" y1="9.906" x2="303.512" y2="9.812"/>
        <line x1="303.512" y1="9.812" x2="303.527" y2="9.719"/>
        <line x1="303.527" y1="9.719" x2="303.547" y2="9.627"/>
        <line x1="303.547" y1="9.627" x2="303.573" y2="9.536"/>
        <line x1="303.573" y1="9.536" x2="303.605" y2="9.448"/>
        <line x1="303.605" y1="9.448" x2="303.643" y2="9.361"/>
        <line x1="303.643" y1="9.361" x2="303.686" y2="9.277"/>
        <line x1="303.686" y1="9.277" x2="303.734" y2="9.196"/>
        <line x1="303.734" y1="9.196" x2="303.786" y2="9.118"/>
        <line x1="303.786" y1="9.118" x2="303.844" y2="9.044"/>
        <line x1="303.844" y1="9.044" x2="303.907" y2="8.973"/>
        <line x1="303.907" y1="8.973" x2="303.973" y2="8.907"/>
        <line x1="303.973" y1="8.907" x2="304.044" y2="8.844"/>
        <line x1="304.044" y1="8.844" x2="304.118" y2="8.786"/>
        <line x1="304.118" y1="8.786" x2="304.196" y2="8.734"/>
        <line x1="304.196" y1="8.734" x2="304.277" y2="8.686"/>
        <line x1="304.277" y1="8.686" x2="304.361" y2="8.643"/>
        <line x1="304.361" y1="8.643" x2="304.448" y2="8.605"/>
        <line x1="304.448" y1="8.605" x2="304.536" y2="8.573"/>
        <line x1="304.536" y1="8.573" x2="304.627" y2="8.547"/>
        <line x1="304.627" y1="8.547" x2="304.719" y2="8.527"/>
        <line x1="304.719" y1="8.527" x2="304.812" y2="8.512"/>
        <line x1="304.812" y1="8.512" x2="304.906" y2="8.503"/>
        <line x1="304.906" y1="8.503" x2="305" y2="8.5"/>
        <line x1="305" y1="8.5" x2="305.094" y2="8.503"/>
        <line x1="305.094" y1="8.503" x2="305.188" y2="8.512"/>
        <line x1="305.188" y1="8.512" x2="305.281" y2="8.527"/>
        <line x1="305.281" y1="8.527" x2="305.373" y2="8.547"/>
        <line x1="305.373" y1="8.547" x2="305.464" y2="8.573"/>
        <line x1="305.464" y1="8.573" x2="305.552" y2="8.605"/>
        <line x1="305.552" y1="8.605" x2="305.639" y2="8.643"/>
        <line x1="305.639" y1="8.643" x2="305.723" y2="8.686"/>
        <line x1="305.723" y1="8.686" x2="305.804" y2="8.734"/>
        <line x1="305.804" y1="8.734" x2="305.882" y2="8.786"/>
        <line x1="305.882" y1="8.786" x2="305.956" y2="8.844"/>
        <line x1="305.956" y1="8.844" x2="306.027" y2="8.907"/>
        <line x1="306.027" y1="8.907" x2="306.093" y2="8.973"/>
        <line x1="306.093" y1="8.973" x2="306.156" y2="9.044"/>
        <line x1="306.156" y1="9.044" x2="306.214" y2="9.118"/>
        <line x1="306.214" y1="9.118" x2="306.266" y2="9.196"/>
        <line x1="306.266" y1="9.196" x2="306.314" y2="9.277"/>
        <line x1="306.314" y1="9.277" x2="306.357" y2="9.361"/>
        <line x1="306.357" y1="9.361" x2="306.395" y2="9.448"/>
        <line x1="306.395" y1="9.448" x2="306.427" y2="9.536"/>
        <line x1="306.427" y1="9.536" x2="306.453" y2="9.627"/>
        <line x1="306.453" y1="9.627" x2="306.473" y2="9.719"/>
        <line x1="306.473" y1="9.719" x2="306.488" y2="9.812"/>
        <line x1="306.488" y1="9.812" x2="306.497" y2="9.906"/>
        <line x1="306.497" y1="9.906" x2="306.5" y2="10"/>
        <line x1="306.5" y1="10" x2="306.497" y2="10.094"/>
        <line x1="306.497" y1="10.094" x2="306.488" y2="10.188"/>
        <line x1="306.488" y1="10.188" x2="306.473" y2="10.281"/>
        <line x1="306.473" y1="10.281" x2="306.453" y2="10.373"/>
        <line x1="306.453" y1="10.373" x2="306.427" y2="10.464"/>
        <line x1="306.427" y1="10.464" x2="306.395" y2="10.552"/>
        <line x1="306.395" y1="10.552" x2="306.357" y2="10.639"/>
        <line x1="306.357" y1="10.639" x2="306.314" y2="10.723"/>
        <line x1="306.314" y1="10.723" x2="306.266" y2="10.804"/>
        <line x1="306.266" y1="10.804" x2="306.214" y2="10.882"/>
        <line x1="306.214" y1="10.882" x2="306.156" y2="10.956"/>
        <line x1="306.156" y1="10.956" x2="306.093" y2="11.027"/>
        <line x1="306.093" y1="11.027" x2="306.027" y2="11.093"/>
        <line x1="306.027" y1="11.093" x2="305.956" y2="11.156"/>
        <line x1="305.956" y1="11.156" x2="305.882" y2="11.214"/>
        <line x1="305.882" y1="11.214" x2="305.804" y2="11.266"/>
        <line x1="305.804" y1="11.266" x2="305.723" y2="11.314"/>
        <line x1="305.723" y1="11.314" x2="305.639" y2="11.357"/>
        <line x1="305.639" y1="11.357" x2="305.552" y2="11.395"/>
        <line x1="305.552" y1="11.395" x2="305.464" y2="11.427"/>
        <line x1="305.464" y1="11.427" x2="305.373" y2="11.453"/>
        <line x1="305.373" y1="11.453" x2="305.281" y2="11.473"/>
        <line x1="305.281" y1="11.473" x2="305.188" y2="11.488"/>
        <line x1="305.188" y1="11.488" x2="305.094" y2="11.497"/>
        <line x1="305.094" y1="11.497" x2="305" y2="11.5"/>
        <line x1="305" y1="11.5" x2="304.906" y2="11.497"/>
        <line x1="44.906" y1="11.497" x2="44.812" y2="11.488"/>
        <line x1="44.812" y1="11.488" x2="44.719" y2="11.473"/>
        <line x1="44.719" y1="11.473" x2="44.627" y2="11.453"/>
        <line x1="44.627" y1="11.453" x2="44.536" y2="11.427"/>
        <line x1="44.536" y1="11.427" x2="44.448" y2="11.395"/>
        <line x1="44.448" y1="11.395" x2="44.361" y2="11.357"/>
        <line x1="44.361" y1="11.357" x2="44.277" y2="11.314"/>
        <line x1="44.277" y1="11.314" x2="44.196" y2="11.266"/>
        <line x1="44.196" y1="11.266" x2="44.118" y2="11.214"/>
        <line x1="44.118" y1="11.214" x2="44.044" y2="11.156"/>
        <line x1="44.044" y1="11.156" x2="43.973" y2="11.093"/>
        <line x1="43.973" y1="11.093" x2="43.907" y2="11.027"/>
        <line x1="43.907" y1="11.027" x2="43.844" y2="10.956"/>
        <line x1="43.844" y1="10.956" x2="43.786" y2="10.882"/>
        <line x1="43.786" y1="10.882" x2="43.734" y2="10.804"/>
        <line x1="43.734" y1="10.804" x2="43.686" y2="10.723"/>
        <line x1="43.686" y1="10.723" x2="43.643" y2="10.639"/>
        <line x1="43.643" y1="10.639" x2="43.605" y2="10.552"/>
        <line x1="43.605" y1="10.552" x2="43.573" y2="10.464"/>
        <line x1="43.573" y1="10.464" x2="43.547" y2="10.373"/>
        <line x1="43.547" y1="10.373" x2="43.527" y2="10.281"/>
        <line x1="43.527" y1="10.281" x2="43.512" y2="10.188"/>
        <line x1="43.512" y1="10.188" x2="43.503" y2="10.094"/>
        <line x1="43.503" y1="10.094" x2="43.5" y2="10"/>
        <line x1="43.5" y1="10" x2="43.503" y2="9.906"/>
        <line x1="43.503" y1="9.906" x2="43.512" y2="9.812"/>
        <line x1="43.512" y1="9.812" x2="43.527" y2="9.719"/>
        <line x1="43.527" y1="9.719" x2="43.547" y2="9.627"/>
        <line x1="43.547" y1="9.627" x2="43.573" y2="9.536"/>
        <line x1="43.573" y1="9.536" x2="43.605" y2="9.448"/>
        <line x1="43.605" y1="9.448" x2="43.643" y2="9.361"/>
        <line x1="43.643" y1="9.361" x2="43.686" y2="9.277"/>
        <line x1="43.686" y1="9.277" x2="43.734" y2="9.196"/>
        <line x1="43.734" y1="9.196" x2="43.786" y2="9.118"/>
        <line x1="43.786" y1="9.118" x2="43.844" y2="9.044"/>
        <line x1="43.844" y1="9.044" x2="43.907" y2="8.973"/>
        <line x1="43.907" y1="8.973" x2="43.973" y2="8.907"/>
        <line x1="43.973" y1="8.907" x2="44.044" y2="8.844"/>
        <line x1="44.044" y1="8.844" x2="44.118" y2="8.786"/>
        <line x1="44.118" y1="8.786" x2="44.196" y2="8.734"/>
        <line x1="44.196" y1="8.734" x2="44.277" y2="8.686"/>
        <line x1="44.277" y1="8.686" x2="44.361" y2="8.643"/>
        <line x1="44.361" y1="8.643" x2="44.448" y2="8.605"/>
        <line x1="44.448" y1="8.605" x2="44.536" y2="8.573"/>
        <line x1="44.536" y1="8.573" x2="44.627" y2="8.547"/>
        <line x1="44.627" y1="8.547" x2="44.719" y2="8.527"/>
        <line x1="44.719" y1="8.527" x2="44.812" y2="8.512"/>
        <line x1="44.812" y1="8.512" x2="44.906" y2="8.503"/>
        <line x1="44.906" y1="8.503" x2="45" y2="8.5"/>
        <line x1="45" y1="8.5" x2="45.094" y2="8.503"/>
        <line x1="45.094" y1="8.503" x2="45.188" y2="8.512"/>
        <line x1="45.188" y1="8.512" x2="45.281" y2="8.527"/>
        <line x1="45.281" y1="8.527" x2="45.373" y2="8.547"/>
        <line x1="45.373" y1="8.547" x2="45.464" y2="8.573"/>
        <line x1="45.464" y1="8.573" x2="45.552" y2="8.605"/>
        <line x1="45.552" y1="8.605" x2="45.639" y2="8.643"/>
        <line x1="45.639" y1="8.643" x2="45.723" y2="8.686"/>
        <line x1="45.723" y1="8.686" x2="45.804" y2="8.734"/>
        <line x1="45.804" y1="8.734" x2="45.882" y2="8.786"/>
        <line x1="45.882" y1="8.786" x2="45.956" y2="8.844"/>
        <line x1="45.956" y1="8.844" x2="46.027" y2="8.907"/>
        <line x1="46.027" y1="8.907" x2="46.093" y2="8.973"/>
        <line x1="46.093" y1="8.973" x2="46.156" y2="9.044"/>
        <line x1="46.156" y1="9.044" x2="46.214" y2="9.118"/>
        <line x1="46.214" y1="9.118" x2="46.266" y2="9.196"/>
        <line x1="46.266" y1="9.196" x2="46.314" y2="9.277"/>
        <line x1="46.314" y1="9.277" x2="46.357" y2="9.361"/>
        <line x1="46.357" y1="9.361" x2="46.395" y2="9.448"/>
        <line x1="46.395" y1="9.448" x2="46.427" y2="9.536"/>
        <line x1="46.427" y1="9.536" x2="46.453" y2="9.627"/>
        <line x1="46.453" y1="9.627" x2="46.473" y2="9.719"/>
        <line x1="46.473" y1="9.719" x2="46.488" y2="9.812"/>
        <line x1="46.488" y1="9.812" x2="46.497" y2="9.906"/>
        <line x1="46.497" y1="9.906" x2="46.5" y2="10"/>
        <line x1="46.5" y1="10" x2="46.497" y2="10.094"/>
        <line x1="46.497" y1="10.094" x2="46.488" y2="10.188"/>
        <line x1="46.488" y1="10.188" x2="46.473" y2="10.281"/>
        <line x1="46.473" y1="10.281" x2="46.453" y2="10.373"/>
        <line x1="46.453" y1="10.373" x2="46.427" y2="10.464"/>
        <line x1="46.427" y1="10.464" x2="46.395" y2="10.552"/>
        <line x1="46.395" y1="10.552" x2="46.357" y2="10.639"/>
        <line x1="46.357" y1="10.639" x2="46.314" y2="10.723"/>
        <line x1="46.314" y1="10.723" x2="46.266" y2="10.804"/>
        <line x1="46.266" y1="10.804" x2="46.214" y2="10.882"/>
        <line x1="46.214" y1="10.882" x2="46.156" y2="10.956"/>
        <line x1="46.156" y1="10.956" x2="46.093" y2="11.027"/>
        <line x1="46.093" y1="11.027" x2="46.027" y2="11.093"/>
        <line x1="46.027" y1="11.093" x2="45.956" y2="11.156"/>
        <line x1="45.956" y1="11.156" x2="45.882" y2="11.214"/>
        <line x1="45.882" y1="11.214" x2="45.804" y2="11.266"/>
        <line x1="45.804" y1="11.266" x2="45.723" y2="11.314"/>
        <line x1="45.723" y1="11.314" x2="45.639" y2="11.357"/>
        <line x1="45.639" y1="11.357" x2="45.552" y2="11.395"/>
        <line x1="45.552" y1="11.395" x2="45.464" y2="11.427"/>
        <line x1="45.464" y1="11.427" x2="45.373" y2="11.453"/>
        <line x1="45.373" y1="11.453" x2="45.281" y2="11.473"/>
        <line x1="45.281" y1="11.473" x2="45.188" y2="11.488"/>
        <line x1="45.188" y1="11.488" x2="45.094" y2="11.497"/>
        <line x1="45.094" y1="11.497" x2="45" y2="11.5"/>
        <line x1="45" y1="11.5" x2="44.906" y2="11.497"/>
        <line x1="44.906" y1="21.497" x2="44.812" y2="21.488"/>
        <line x1="44.812" y1="21.488" x2="44.719" y2="21.473"/>
        <line x1="44.719" y1="21.473" x2="44.627" y2="21.453"/>
        <line x1="44.627" y1="21.453" x2="44.536" y2="21.427"/>
        <line x1="44.536" y1="21.427" x2="44.448" y2="21.395"/>
        <line x1="44.448" y1="21.395" x2="44.361" y2="21.357"/>
        <line x1="44.361" y1="21.357" x2="44.277" y2="21.314"/>
        <line x1="44.277" y1="21.314" x2="44.196" y2="21.266"/>
        <line x1="44.196" y1="21.266" x2="44.118" y2="21.214"/>
        <line x1="44.118" y1="21.214" x2="44.044" y2="21.156"/>
        <line x1="44.044" y1="21.156" x2="43.973" y2="21.093"/>
        <line x1="43.973" y1="21.093" x2="43.907" y2="21.027"/>
        <line x1="43.907" y1="21.027" x2="43.844" y2="20.956"/>
        <line x1="43.844" y1="20.956" x2="43.786" y2="20.882"/>
        <line x1="43.786" y1="20.882" x2="43.734" y2="20.804"/>
        <line x1="43.734" y1="20.804" x2="43.686" y2="20.723"/>
        <line x1="43.686" y1="20.723" x2="43.643" y2="20.639"/>
        <line x1="43.643" y1="20.639" x2="43.605" y2="20.552"/>
        <line x1="43.605" y1="20.552" x2="43.573" y2="20.464"/>
        <line x1="43.573" y1="20.464" x2="43.547" y2="20.373"/>
        <line x1="43.547" y1="20.373" x2="43.527" y2="20.281"/>
        <line x1="43.527" y1="20.281" x2="43.512" y2="20.188"/>
        <line x1="43.512" y1="20.188" x2="43.503" y2="20.094"/>
        <line x1="43.503" y1="20.094" x2="43.5" y2="20"/>
        <line x1="43.5" y1="20" x2="43.503" y2="19.906"/>
        <line x1="43.503" y1="19.906" x2="43.512" y2="19.812"/>
        <line x1="43.512" y1="19.812" x2="43.527" y2="19.719"/>
        <line x1="43.527" y1="19.719" x2="43.547" y2="19.627"/>
        <line x1="43.547" y1="19.627" x2="43.573" y2="19.536"/>
        <line x1="43.573" y1="19.536" x2="43.605" y2="19.448"/>
        <line x1="43.605" y1="19.448" x2="43.643" y2="19.361"/>
        <line x1="43.643" y1="19.361" x2="43.686" y2="19.277"/>
        <line x1="43.686" y1="19.277" x2="43.734" y2="19.196"/>
        <line x1="43.734" y1="19.196" x2="43.786" y2="19.118"/>
        <line x1="43.786" y1="19.118" x2="43.844" y2="19.044"/>
        <line x1="43.844" y1="19.044" x2="43.907" y2="18.973"/>
        <line x1="43.907" y1="18.973" x2="43.973" y2="18.907"/>
        <line x1="43.973" y1="18.907" x2="44.044" y2="18.844"/>
        <line x1="44.044" y1="18.844" x2="44.118" y2="18.786"/>
        <line x1="44.118" y1="18.786" x2="44.196" y2="18.734"/>
        <line x1="44.196" y1="18.734" x2="44.277" y2="18.686"/>
        <line x1="44.277" y1="18.686" x2="44.361" y2="18.643"/>
        <line x1="44.361" y1="18.643" x2="44.448" y2="18.605"/>
        <line x1="44.448" y1="18.605" x2="44.536" y2="18.573"/>
        <line x1="44.536" y1="18.573" x2="44.627" y2="18.547"/>
        <line x1="44.627" y1="18.547" x2="44.719" y2="18.527"/>
        <line x1="44.719" y1="18.527" x2="44.812" y2="18.512"/>
        <line x1="44.812" y1="18.512" x2="44.906" y2="18.503"/>
        <line x1="44.906" y1="18.503" x2="45" y2="18.5"/>
        <line x1="45" y1="18.5" x2="45.094" y2="18.503"/>
        <line x1="45.094" y1="18.503" x2="45.188" y2="18.512"/>
        <line x1="45.188" y1="18.512" x2="45.281" y2="18.527"/>
        <line x1="45.281" y1="18.527" x2="45.373" y2="18.547"/>
        <line x1="45.373" y1="18.547" x2="45.464" y2="18.573"/>
        <line x1="45.464" y1="18.573" x2="45.552" y2="18.605"/>
        <line x1="45.552" y1="18.605" x2="45.639" y2="18.643"/>
        <line x1="45.639" y1="18.643" x2="45.723" y2="18.686"/>
        <line x1="45.723" y1="18.686" x2="45.804" y2="18.734"/>
        <line x1="45.804" y1="18.734" x2="45.882" y2="18.786"/>
        <line x1="45.882" y1="18.786" x2="45.956" y2="18.844"/>
        <line x1="45.956" y1="18.844" x2="46.027" y2="18.907"/>
        <line x1="46.027" y1="18.907" x2="46.093" y2="18.973"/>
        <line x1="46.093" y1="18.973" x2="46.156" y2="19.044"/>
        <line x1="46.156" y1="19.044" x2="46.214" y2="19.118"/>
        <line x1="46.214" y1="19.118" x2="46.266" y2="19.196"/>
        <line x1="46.266" y1="19.196" x2="46.314" y2="19.277"/>
        <line x1="46.314" y1="19.277" x2="46.357" y2="19.361"/>
        <line x1="46.357" y1="19.361" x2="46.395" y2="19.448"/>
        <line x1="46.395" y1="19.448" x2="46.427" y2="19.536"/>
        <line x1="46.427" y1="19.536" x2="46.453" y2="19.627"/>
        <line x1="46.453" y1="19.627" x2="46.473" y2="19.719"/>
        <line x1="46.473" y1="19.719" x2="46.488" y2="19.812"/>
        <line x1="46.488" y1="19.812" x2="46.497" y2="19.906"/>
        <line x1="46.497" y1="19.906" x2="46.5" y2="20"/>
        <line x1="46.5" y1="20" x2="46.497" y2="20.094"/>
        <line x1="46.497" y1="20.094" x2="46.488" y2="20.188"/>
        <line x1="46.488" y1="20.188" x2="46.473" y2="20.281"/>
        <line x1="46.473" y1="20.281" x2="46.453" y2="20.373"/>
        <line x1="46.453" y1="20.373" x2="46.427" y2="20.464"/>
        <line x1="46.427" y1="20.464" x2="46.395" y2="20.552"/>
        <line x1="46.395" y1="20.552" x2="46.357" y2="20.639"/>
        <line x1="46.357" y1="20.639" x2="46.314" y2="20.723"/>
        <line x1="46.314" y1="20.723" x2="46.266" y2="20.804"/>
        <line x1="46.266" y1="20.804" x2="46.214" y2="20.882"/>
        <line x1="46.214" y1="20.882" x2="46.156" y2="20.956"/>
        <line x1="46.156" y1="20.956" x2="46.093" y2="21.027"/>
        <line x1="46.093" y1="21.027" x2="46.027" y2="21.093"/>
        <line x1="46.027" y1="21.093" x2="45.956" y2="21.156"/>
        <line x1="45.956" y1="21.156" x2="45.882" y2="21.214"/>
        <line x1="45.882" y1="21.214" x2="45.804" y2="21.266"/>
        <line x1="45.804" y1="21.266" x2="45.723" y2="21.314"/>
        <line x1="45.723" y1="21.314" x2="45.639" y2="21.357"/>
        <line x1="45.639" y1="21.357" x2="45.552" y2="21.395"/>
        <line x1="45.552" y1="21.395" x2="45.464" y2="21.427"/>
        <line x1="45.464" y1="21.427" x2="45.373" y2="21.453"/>
        <line x1="45.373" y1="21.453" x2="45.281" y2="21.473"/>
        <line x1="45.281" y1="21.473" x2="45.188" y2="21.488"/>
        <line x1="45.188" y1="21.488" x2="45.094" y2="21.497"/>
        <line x1="45.094" y1="21.497" x2="45" y2="21.5"/>
        <line x1="45" y1="21.5" x2="44.906" y2="21.497"/>
        <line x1="304.906" y1="21.497" x2="304.812" y2="21.488"/>
        <line x1="304.812" y1="21.488" x2="304.719" y2="21.473"/>
        <line x1="304.719" y1="21.473" x2="304.627" y2="21.453"/>
        <line x1="304.627" y1="21.453" x2="304.536" y2="21.427"/>
        <line x1="304.536" y1="21.427" x2="304.448" y2="21.395"/>
        <line x1="304.448" y1="21.395" x2="304.361" y2="21.357"/>
        <line x1="304.361" y1="21.357" x2="304.277" y2="21.314"/>
        <line x1="304.277" y1="21.314" x2="304.196" y2="21.266"/>
        <line x1="304.196" y1="21.266" x2="304.118" y2="21.214"/>
        <line x1="304.118" y1="21.214" x2="304.044" y2="21.156"/>
        <line x1="304.044" y1="21.156" x2="303.973" y2="21.093"/>
        <line x1="303.973" y1="21.093" x2="303.907" y2="21.027"/>
        <line x1="303.907" y1="21.027" x2="303.844" y2="20.956"/>
        <line x1="303.844" y1="20.956" x2="303.786" y2="20.882"/>
        <line x1="303.786" y1="20.882" x2="303.734" y2="20.804"/>
        <line x1="303.734" y1="20.804" x2="303.686" y2="20.723"/>
        <line x1="303.686" y1="20.723" x2="303.643" y2="20.639"/>
        <line x1="303.643" y1="20.639" x2="303.605" y2="20.552"/>
        <line x1="303.605" y1="20.552" x2="303.573" y2="20.464"/>
        <line x1="303.573" y1="20.464" x2="303.547" y2="20.373"/>
        <line x1="303.547" y1="20.373" x2="303.527" y2="20.281"/>
        <line x1="303.527" y1="20.281" x2="303.512" y2="20.188"/>
        <line x1="303.512" y1="20.188" x2="303.503" y2="20.094"/>
        <line x1="303.503" y1="20.094" x2="303.5" y2="20"/>
        <line x1="303.5" y1="20" x2="303.503" y2="19.906"/>
        <line x1="303.503" y1="19.906" x2="303.512" y2="19.812"/>
        <line x1="303.512" y1="19.812" x2="303.527" y2="19.719"/>
        <line x1="303.527" y1="19.719" x2="303.547" y2="19.627"/>
        <line x1="303.547" y1="19.627" x2="303.573" y2="19.536"/>
        <line x1="303.573" y1="19.536" x2="303.605" y2="19.448"/>
        <line x1="303.605" y1="19.448" x2="303.643" y2="19.361"/>
        <line x1="303.643" y1="19.361" x2="303.686" y2="19.277"/>
        <line x1="303.686" y1="19.277" x2="303.734" y2="19.196"/>
        <line x1="303.734" y1="19.196" x2="303.786" y2="19.118"/>
        <line x1="303.786" y1="19.118" x2="303.844" y2="19.044"/>
        <line x1="303.844" y1="19.044" x2="303.907" y2="18.973"/>
        <line x1="303.907" y1="18.973" x2="303.973" y2="18.907"/>
        <line x1="303.973" y1="18.907" x2="304.044" y2="18.844"/>
        <line x1="304.044" y1="18.844" x2="304.118" y2="18.786"/>
        <line x1="304.118" y1="18.786" x2="304.196" y2="18.734"/>
        <line x1="304.196" y1="18.734" x2="304.277" y2="18.686"/>
        <line x1="304.277" y1="18.686" x2="304.361" y2="18.643"/>
        <line x1="304.361" y1="18.643" x2="304.448" y2="18.605"/>
        <line x1="304.448" y1="18.605" x2="304.536" y2="18.573"/>
        <line x1="304.536" y1="18.573" x2="304.627" y2="18.547"/>
        <line x1="304.627" y1="18.547" x2="304.719" y2="18.527"/>
        <line x1="304.719" y1="18.527" x2="304.812" y2="18.512"/>
        <line x1="304.812" y1="18.512" x2="304.906" y2="18.503"/>
        <line x1="304.906" y1="18.503" x2="305" y2="18.5"/>
        <line x1="305" y1="18.5" x2="305.094" y2="18.503"/>
        <line x1="305.094" y1="18.503" x2="305.188" y2="18.512"/>
        <line x1="305.188" y1="18.512" x2="305.281" y2="18.527"/>
        <line x1="305.281" y1="18.527" x2="305.373" y2="18.547"/>
        <line x1="305.373" y1="18.547" x2="305.464" y2="18.573"/>
        <line x1="305.464" y1="18.573" x2="305.552" y2="18.605"/>
        <line x1="305.552" y1="18.605" x2="305.639" y2="18.643"/>
        <line x1="305.639" y1="18.643" x2="305.723" y2="18.686"/>
        <line x1="305.723" y1="18.686" x2="305.804" y2="18.734"/>
        <line x1="305.804" y1="18.734" x2="305.882" y2="18.786"/>
        <line x1="305.882" y1="18.786" x2="305.956" y2="18.844"/>
        <line x1="305.956" y1="18.844" x2="306.027" y2="18.907"/>
        <line x1="306.027" y1="18.907" x2="306.093" y2="18.973"/>
        <line x1="306.093" y1="18.973" x2="306.156" y2="19.044"/>
        <line x1="306.156" y1="19.044" x2="306.214" y2="19.118"/>
        <line x1="306.214" y1="19.118" x2="306.266" y2="19.196"/>
        <line x1="306.266" y1="19.196" x2="306.314" y2="19.277"/>
        <line x1="306.314" y1="19.277" x2="306.357" y2="19.361"/>
        <line x1="306.357" y1="19.361" x2="306.395" y2="19.448"/>
        <line x1="306.395" y1="19.448" x2="306.427" y2="19.536"/>
        <line x1="306.427" y1="19.536" x2="306.453" y2="19.627"/>
        <line x1="306.453" y1="19.627" x2="306.473" y2="19.719"/>
        <line x1="306.473" y1="19.719" x2="306.488" y2="19.812"/>
        <line x1="306.488" y1="19.812" x2="306.497" y2="19.906"/>
        <line x1="306.497" y1="19.906" x2="306.5" y2="20"/>
        <line x1="306.5" y1="20" x2="306.497" y2="20.094"/>
        <line x1="306.497" y1="20.094" x2="306.488" y2="20.188"/>
        <line x1="306.488" y1="20.188" x2="306.473" y2="20.281"/>
        <line x1="306.473" y1="20.281" x2="306.453" y2="20.373"/>
        <line x1="306.453" y1="20.373" x2="306.427" y2="20.464"/>
        <line x1="306.427" y1="20.464" x2="306.395" y2="20.552"/>
        <line x1="306.395" y1="20.552" x2="306.357" y2="20.639"/>
        <line x1="306.357" y1="20.639" x2="306.314" y2="20.723"/>
        <line x1="306.314" y1="20.723" x2="306.266" y2="20.804"/>
        <line x1="306.266" y1="20.804" x2="306.214" y2="20.882"/>
        <line x1="306.214" y1="20.882" x2="306.156" y2="20.956"/>
        <line x1="306.156" y1="20.956" x2="306.093" y2="21.027"/>
        <line x1="306.093" y1="21.027" x2="306.027" y2="21.093"/>
        <line x1="306.027" y1="21.093" x2="305.956" y2="21.156"/>
        <line x1="305.956" y1="21.156" x2="305.882" y2="21.214"/>
        <line x1="305.882" y1="21.214" x2="305.804" y2="21.266"/>
        <line x1="305.804" y1="21.266" x2="305.723" y2="21.314"/>
        <line x1="305.723" y1="21.314" x2="305.639" y2="21.357"/>
        <line x1="305.639" y1="21.357" x2="305.552" y2="21.395"/>
        <line x1="305.552" y1="21.395" x2="305.464" y2="21.427"/>
        <line x1="305.464" y1="21.427" x2="305.373" y2="21.453"/>
        <line x1="305.373" y1="21.453" x2="305.281" y2="21.473"/>
        <line x1="305.281" y1="21.473" x2="305.188" y2="21.488"/>
        <line x1="305.188" y1="21.488" x2="305.094" y2="21.497"/>
        <line x1="305.094" y1="21.497" x2="305" y2="21.5"/>
        <line x1="305" y1="21.5" x2="304.906" y2="21.497"/>
        <line x1="365" y1="95" x2="285" y2="95"/>
        <line x1="285" y1="95" x2="285" y2="395"/>
        <line x1="285" y1="395" x2="365" y2="395"/>
        <line x1="365" y1="395" x2="365" y2="95"/>
        <line x1="354.906" y1="116.497" x2="354.812" y2="116.488"/>
        <line x1="354.812" y1="116.488" x2="354.719" y2="116.473"/>
        <line x1="354.719" y1="116.473" x2="354.627" y2="116.453"/>
        <line x1="354.627" y1="116.453" x2="354.536" y2="116.427"/>
        <line x1="354.536" y1="116.427" x2="354.448" y2="116.395"/>
        <line x1="354.448" y1="116.395" x2="354.361" y2="116.357"/>
        <line x1="354.361" y1="116.357" x2="354.277" y2="116.314"/>
        <line x1="354.277" y1="116.314" x2="354.196" y2="116.266"/>
        <line x1="354.196" y1="116.266" x2="354.118" y2="116.214"/>
        <line x1="354.118" y1="116.214" x2="354.044" y2="116.156"/>
        <line x1="354.044" y1="116.156" x2="353.973" y2="116.093"/>
        <line x1="353.973" y1="116.093" x2="353.907" y2="116.027"/>
        <line x1="353.907" y1="116.027" x2="353.844" y2="115.956"/>
        <line x1="353.844" y1="115.956" x2="353.786" y2="115.882"/>
        <line x1="353.786" y1="115.882" x2="353.734" y2="115.804"/>
        <line x1="353.734" y1="115.804" x2="353.686" y2="115.723"/>
        <line x1="353.686" y1="115.723" x2="353.643" y2="115.639"/>
        <line x1="353.643" y1="115.639" x2="353.605" y2="115.552"/>
        <line x1="353.605" y1="115.552" x2="353.573" y2="115.464"/>
        <line x1="353.573" y1="115.464" x2="353.547" y2="115.373"/>
        <line x1="353.547" y1="115.373" x2="353.527" y2="115.281"/>
        <line x1="353.527" y1="115.281" x2="353.512" y2="115.188"/>
        <line x1="353.512" y1="115.188" x2="353.503" y2="115.094"/>
        <line x1="353.503" y1="115.094" x2="353.5" y2="115"/>
        <line x1="353.5" y1="115" x2="353.503" y2="114.906"/>
        <line x1="353.503" y1="114.906" x2="353.512" y2="114.812"/>
        <line x1="353.512" y1="114.812" x2="353.527" y2="114.719"/>
        <line x1="353.527" y1="114.719" x2="353.547" y2="114.627"/>
        <line x1="353.547" y1="114.627" x2="353.573" y2="114.536"/>
        <line x1="353.573" y1="114.536" x2="353.605" y2="114.448"/>
        <line x1="353.605" y1="114.448" x2="353.643" y2="114.361"/>
        <line x1="353.643" y1="114.361" x2="353.686" y2="114.277"/>
        <line x1="353.686" y1="114.277" x2="353.734" y2="114.196"/>
        <line x1="353.734" y1="114.196" x2="353.786" y2="114.118"/>
        <line x1="353.786" y1="114.118" x2="353.844" y2="114.044"/>
        <line x1="353.844" y1="114.044" x2="353.907" y2="113.973"/>
        <line x1="353.907" y1="113.973" x2="353.973" y2="113.907"/>
        <line x1="353.973" y1="113.907" x2="354.044" y2="113.844"/>
        <line x1="354.044" y1="113.844" x2="354.118" y2="113.786"/>
        <line x1="354.118" y1="113.786" x2="354.196" y2="113.734"/>
        <line x1="354.196" y1="113.734" x2="354.277" y2="113.686"/>
        <line x1="354.277" y1="113.686" x2="354.361" y2="113.643"/>
        <line x1="354.361" y1="113.643" x2="354.448" y2="113.605"/>
        <line x1="354.448" y1="113.605" x2="354.536" y2="113.573"/>
        <line x1="354.536" y1="113.573" x2="354.627" y2="113.547"/>
        <line x1="354.627" y1="113.547" x2="354.719" y2="113.527"/>
        <line x1="354.719" y1="113.527" x2="354.812" y2="113.512"/>
        <line x1="354.812" y1="113.512" x2="354.906" y2="113.503"/>
        <line x1="354.906" y1="113.503" x2="355" y2="113.5"/>
        <line x1="355" y1="113.5" x2="355.094" y2="113.503"/>
        <line x1="355.094" y1="113.503" x2="355.188" y2="113.512"/>
        <line x1="355.188" y1="113.512" x2="355.281" y2="113.527"/>
        <line x1="355.281" y1="113.527" x2="355.373" y2="113.547"/>
        <line x1="355.373" y1="113.547" x2="355.464" y2="113.573"/>
        <line x1="355.464" y1="113.573" x2="355.552" y2="113.605"/>
        <line x1="355.552" y1="113.605" x2="355.639" y2="113.643"/>
        <line x1="355.639" y1="113.643" x2="355.723" y2="113.686"/>
        <line x1="355.723" y1="113.686" x2="355.804" y2="113.734"/>
        <line x1="355.804" y1="113.734" x2="355.882" y2="113.786"/>
        <line x1="355.882" y1="113.786" x2="355.956" y2="113.844"/>
        <line x1="355.956" y1="113.844" x2="356.027" y2="113.907"/>
        <line x1="356.027" y1="113.907" x2="356.093" y2="113.973"/>
        <line x1="356.093" y1="113.973" x2="356.156" y2="114.044"/>
        <line x1="356.156" y1="114.044" x2="356.214" y2="114.118"/>
        <line x1="356.214" y1="114.118" x2="356.266" y2="114.196"/>
        <line x1="356.266" y1="114.196" x2="356.314" y2="114.277"/>
        <line x1="356.314" y1="114.277" x2="356.357" y2="114.361"/>
        <line x1="356.357" y1="114.361" x2="356.395" y2="114.448"/>
        <line x1="356.395" y1="114.448" x2="356.427" y2="114.536"/>
        <line x1="356.427" y1="114.536" x2="356.453" y2="114.627"/>
        <line x1="356.453" y1="114.627" x2="356.473" y2="114.719"/>
        <line x1="356.473" y1="114.719" x2="356.488" y2="114.812"/>
        <line x1="356.488" y1="114.812" x2="356.497" y2="114.906"/>
        <line x1="356.497" y1="114.906" x2="356.5" y2="115"/>
        <line x1="356.5" y1="115" x2="356.497" y2="115.094"/>
        <line x1="356.497" y1="115.094" x2="356.488" y2="115.188"/>
        <line x1="356.488" y1="115.188" x2="356.473" y2="115.281"/>
        <line x1="356.473" y1="115.281" x2="356.453" y2="115.373"/>
        <line x1="356.453" y1="115.373" x2="356.427" y2="115.464"/>
        <line x1="356.427" y1="115.464" x2="356.395" y2="115.552"/>
        <line x1="356.395" y1="115.552" x2="356.357" y2="115.639"/>
        <line x1="356.357" y1="115.639" x2="356.314" y2="115.723"/>
        <line x1="356.314" y1="115.723" x2="356.266" y2="115.804"/>
        <line x1="356.266" y1="115.804" x2="356.214" y2="115.882"/>
        <line x1="356.214" y1="115.882" x2="356.156" y2="115.956"/>
        <line x1="356.156" y1="115.956" x2="356.093" y2="116.027"/>
        <line x1="356.093" y1="116.027" x2="356.027" y2="116.093"/>
        <line x1="356.027" y1="116.093" x2="355.956" y2="116.156"/>
        <line x1="355.956" y1="116.156" x2="355.882" y2="116.214"/>
        <line x1="355.882" y1="116.214" x2="355.804" y2="116.266"/>
        <line x1="355.804" y1="116.266" x2="355.723" y2="116.314"/>
        <line x1="355.723" y1="116.314" x2="355.639" y2="116.357"/>
        <line x1="355.639" y1="116.357" x2="355.552" y2="116.395"/>
        <line x1="355.552" y1="116.395" x2="355.464" y2="116.427"/>
        <line x1="355.464" y1="116.427" x2="355.373" y2="116.453"/>
        <line x1="355.373" y1="116.453" x2="355.281" y2="116.473"/>
        <line x1="355.281" y1="116.473" x2="355.188" y2="116.488"/>
        <line x1="355.188" y1="116.488" x2="355.094" y2="116.497"/>
        <line x1="355.094" y1="116.497" x2="355" y2="116.5"/>
        <line x1="355" y1="116.5" x2="354.906" y2="116.497"/>
        <line x1="344.906" y1="116.497" x2="344.812" y2="116.488"/>
        <line x1="344.812" y1="116.488" x2="344.719" y2="116.473"/>
        <line x1="344.719" y1="116.473" x2="344.627" y2="116.453"/>
        <line x1="344.627" y1="116.453" x2="344.536" y2="116.427"/>
        <line x1="344.536" y1="116.427" x2="344.448" y2="116.395"/>
        <line x1="344.448" y1="116.395" x2="344.361" y2="116.357"/>
        <line x1="344.361" y1="116.357" x2="344.277" y2="116.314"/>
        <line x1="344.277" y1="116.314" x2="344.196" y2="116.266"/>
        <line x1="344.196" y1="116.266" x2="344.118" y2="116.214"/>
        <line x1="344.118" y1="116.214" x2="344.044" y2="116.156"/>
        <line x1="344.044" y1="116.156" x2="343.973" y2="116.093"/>
        <line x1="343.973" y1="116.093" x2="343.907" y2="116.027"/>
        <line x1="343.907" y1="116.027" x2="343.844" y2="115.956"/>
        <line x1="343.844" y1="115.956" x2="343.786" y2="115.882"/>
        <line x1="343.786" y1="115.882" x2="343.734" y2="115.804"/>
        <line x1="343.734" y1="115.804" x2="343.686" y2="115.723"/>
        <line x1="343.686" y1="115.723" x2="343.643" y2="115.639"/>
        <line x1="343.643" y1="115.639" x2="343.605" y2="115.552"/>
        <line x1="343.605" y1="115.552" x2="343.573" y2="115.464"/>
        <line x1="343.573" y1="115.464" x2="343.547" y2="115.373"/>
        <line x1="343.547" y1="115.373" x2="343.527" y2="115.281"/>
        <line x1="343.527" y1="115.281" x2="343.512" y2="115.188"/>
        <line x1="343.512" y1="115.188" x2="343.503" y2="115.094"/>
        <line x1="343.503" y1="115.094" x2="343.5" y2="115"/>
        <line x1="343.5" y1="115" x2="343.503" y2="114.906"/>
        <line x1="343.503" y1="114.906" x2="343.512" y2="114.812"/>
        <line x1="343.512" y1="114.812" x2="343.527" y2="114.719"/>
        <line x1="343.527" y1="114.719" x2="343.547" y2="114.627"/>
        <line x1="343.547" y1="114.627" x2="343.573" y2="114.536"/>
        <line x1="343.573" y1="114.536" x2="343.605" y2="114.448"/>
        <line x1="343.605" y1="114.448" x2="343.643" y2="114.361"/>
        <line x1="343.643" y1="114.361" x2="343.686" y2="114.277"/>
        <line x1="343.686" y1="114.277" x2="343.734" y2="114.196"/>
        <line x1="343.734" y1="114.196" x2="343.786" y2="114.118"/>
        <line x1="343.786" y1="114.118" x2="343.844" y2="114.044"/>
        <line x1="343.844" y1="114.044" x2="343.907" y2="113.973"/>
        <line x1="343.907" y1="113.973" x2="343.973" y2="113.907"/>
        <line x1="343.973" y1="113.907" x2="344.044" y2="113.844"/>
        <line x1="344.044" y1="113.844" x2="344.118" y2="113.786"/>
        <line x1="344.118" y1="113.786" x2="344.196" y2="113.734"/>
        <line x1="344.196" y1="113.734" x2="344.277" y2="113.686"/>
        <line x1="344.277" y1="113.686" x2="344.361" y2="113.643"/>
        <line x1="344.361" y1="113.643" x2="344.448" y2="113.605"/>
        <line x1="344.448" y1="113.605" x2="344.536" y2="113.573"/>
        <line x1="344.536" y1="113.573" x2="344.627" y2="113.547"/>
        <line x1="344.627" y1="113.547" x2="344.719" y2="113.527"/>
        <line x1="344.719" y1="113.527" x2="344.812" y2="113.512"/>
        <line x1="344.812" y1="113.512" x2="344.906" y2="113.503"/>
        <line x1="344.906" y1="113.503" x2="345" y2="113.5"/>
        <line x1="345" y1="113.5" x2="345.094" y2="113.503"/>
        <line x1="345.094" y1="113.503" x2="345.188" y2="113.512"/>
        <line x1="345.188" y1="113.512" x2="345.281" y2="113.527"/>
        <line x1="345.281" y1="113.527" x2="345.373" y2="113.547"/>
        <line x1="345.373" y1="113.547" x2="345.464" y2="113.573"/>
        <line x1="345.464" y1="113.573" x2="345.552" y2="113.605"/>
        <line x1="345.552" y1="113.605" x2="345.639" y2="113.643"/>
        <line x1="345.639" y1="113.643" x2="345.723" y2="113.686"/>
        <line x1="345.723" y1="113.686" x2="345.804" y2="113.734"/>
        <line x1="345.804" y1="113.734" x2="345.882" y2="113.786"/>
        <line x1="345.882" y1="113.786" x2="345.956" y2="113.844"/>
        <line x1="345.956" y1="113.844" x2="346.027" y2="113.907"/>
        <line x1="346.027" y1="113.907" x2="346.093" y2="113.973"/>
        <line x1="346.093" y1="113.973" x2="346.156" y2="114.044"/>
        <line x1="346.156" y1="114.044" x2="346.214" y2="114.118"/>
        <line x1="346.214" y1="114.118" x2="346.266" y2="114.196"/>
        <line x1="346.266" y1="114.196" x2="346.314" y2="114.277"/>
        <line x1="346.314" y1="114.277" x2="346.357" y2="114.361"/>
        <line x1="346.357" y1="114.361" x2="346.395" y2="114.448"/>
        <line x1="346.395" y1="114.448" x2="346.427" y2="114.536"/>
        <line x1="346.427" y1="114.536" x2="346.453" y2="114.627"/>
        <line x1="346.453" y1="114.627" x2="346.473" y2="114.719"/>
        <line x1="346.473" y1="114.719" x2="346.488" y2="114.812"/>
        <line x1="346.488" y1="114.812" x2="346.497" y2="114.906"/>
        <line x1="346.497" y1="114.906" x2="346.5" y2="115"/>
        <line x1="346.5" y1="115" x2="346.497" y2="115.094"/>
        <line x1="346.497" y1="115.094" x2="346.488" y2="115.188"/>
        <line x1="346.488" y1="115.188" x2="346.473" y2="115.281"/>
        <line x1="346.473" y1="115.281" x2="346.453" y2="115.373"/>
        <line x1="346.453" y1="115.373" x2="346.427" y2="115.464"/>
        <line x1="346.427" y1="115.464" x2="346.395" y2="115.552"/>
        <line x1="346.395" y1="115.552" x2="346.357" y2="115.639"/>
        <line x1="346.357" y1="115.639" x2="346.314" y2="115.723"/>
        <line x1="346.314" y1="115.723" x2="346.266" y2="115.804"/>
        <line x1="346.266" y1="115.804" x2="346.214" y2="115.882"/>
        <line x1="346.214" y1="115.882" x2="346.156" y2="115.956"/>
        <line x1="346.156" y1="115.956" x2="346.093" y2="116.027"/>
        <line x1="346.093" y1="116.027" x2="346.027" y2="116.093"/>
        <line x1="346.027" y1="116.093" x2="345.956" y2="116.156"/>
        <line x1="345.956" y1="116.156" x2="345.882" y2="116.214"/>
        <line x1="345.882" y1="116.214" x2="345.804" y2="116.266"/>
        <line x1="345.804" y1="116.266" x2="345.723" y2="116.314"/>
        <line x1="345.723" y1="116.314" x2="345.639" y2="116.357"/>
        <line x1="345.639" y1="116.357" x2="345.552" y2="116.395"/>
        <line x1="345.552" y1="116.395" x2="345.464" y2="116.427"/>
        <line x1="345.464" y1="116.427" x2="345.373" y2="116.453"/>
        <line x1="345.373" y1="116.453" x2="345.281" y2="116.473"/>
        <line x1="345.281" y1="116.473" x2="345.188" y2="116.488"/>
        <line x1="345.188" y1="116.488" x2="345.094" y2="116.497"/>
        <line x1="345.094" y1="116.497" x2="345" y2="116.5"/>
        <line x1="345" y1="116.5" x2="344.906" y2="116.497"/>
        <line x1="344.906" y1="376.497" x2="344.812" y2="376.4882"/>
        <line x1="344.812" y1="376.4882" x2="344.719" y2="376.4734"/>
        <line x1="344.719" y1="376.4734" x2="344.627" y2="376.4529"/>
        <line x1="344.627" y1="376.4529" x2="344.536" y2="376.4266"/>
        <line x1="344.536" y1="376.4266" x2="344.448" y2="376.3947"/>
        <line x1="344.448" y1="376.3947" x2="344.361" y2="376.3572"/>
        <line x1="344.361" y1="376.3572" x2="344.277" y2="376.3145"/>
        <line x1="344.277" y1="376.3145" x2="344.196" y2="376.2665"/>
        <line x1="344.196" y1="376.2665" x2="344.118" y2="376.2135"/>
        <line x1="344.118" y1="376.2135" x2="344.044" y2="376.1558"/>
        <line x1="344.044" y1="376.1558" x2="343.973" y2="376.0935"/>
        <line x1="343.973" y1="376.0935" x2="343.907" y2="376.0268"/>
        <line x1="343.907" y1="376.0268" x2="343.844" y2="375.9561"/>
        <line x1="343.844" y1="375.9561" x2="343.786" y2="375.8817"/>
        <line x1="343.786" y1="375.8817" x2="343.734" y2="375.8037"/>
        <line x1="343.734" y1="375.8037" x2="343.686" y2="375.7226"/>
        <line x1="343.686" y1="375.7226" x2="343.643" y2="375.6387"/>
        <line x1="343.643" y1="375.6387" x2="343.605" y2="375.5522"/>
        <line x1="343.605" y1="375.5522" x2="343.573" y2="375.4635"/>
        <line x1="343.573" y1="375.4635" x2="343.547" y2="375.373"/>
        <line x1="343.547" y1="375.373" x2="343.527" y2="375.2811"/>
        <line x1="343.527" y1="375.2811" x2="343.512" y2="375.188"/>
        <line x1="343.512" y1="375.188" x2="343.503" y2="375.0942"/>
        <line x1="343.503" y1="375.0942" x2="343.5" y2="375"/>
        <line x1="343.5" y1="375" x2="343.503" y2="374.9058"/>
        <line x1="343.503" y1="374.9058" x2="343.512" y2="374.812"/>
        <line x1="343.512" y1="374.812" x2="343.527" y2="374.7189"/>
        <line x1="343.527" y1="374.7189" x2="343.547" y2="374.627"/>
        <line x1="343.547" y1="374.627" x2="343.573" y2="374.5365"/>
        <line x1="343.573" y1="374.5365" x2="343.605" y2="374.4478"/>
        <line x1="343.605" y1="374.4478" x2="343.643" y2="374.3613"/>
        <line x1="343.643" y1="374.3613" x2="343.686" y2="374.2774"/>
        <line x1="343.686" y1="374.2774" x2="343.734" y2="374.1963"/>
        <line x1="343.734" y1="374.1963" x2="343.786" y2="374.1183"/>
        <line x1="343.786" y1="374.1183" x2="343.844" y2="374.0439"/>
        <line x1="343.844" y1="374.0439" x2="343.907" y2="373.9732"/>
        <line x1="343.907" y1="373.9732" x2="343.973" y2="373.9066"/>
        <line x1="343.973" y1="373.9066" x2="344.044" y2="373.8442"/>
        <line x1="344.044" y1="373.8442" x2="344.118" y2="373.7865"/>
        <line x1="344.118" y1="373.7865" x2="344.196" y2="373.7335"/>
        <line x1="344.196" y1="373.7335" x2="344.277" y2="373.6855"/>
        <line x1="344.277" y1="373.6855" x2="344.361" y2="373.6428"/>
        <line x1="344.361" y1="373.6428" x2="344.448" y2="373.6053"/>
        <line x1="344.448" y1="373.6053" x2="344.536" y2="373.5734"/>
        <line x1="344.536" y1="373.5734" x2="344.627" y2="373.5471"/>
        <line x1="344.627" y1="373.5471" x2="344.719" y2="373.5266"/>
        <line x1="344.719" y1="373.5266" x2="344.812" y2="373.5118"/>
        <line x1="344.812" y1="373.5118" x2="344.906" y2="373.503"/>
        <line x1="344.906" y1="373.503" x2="345" y2="373.5"/>
        <line x1="345" y1="373.5" x2="345.094" y2="373.503"/>
        <line x1="345.094" y1="373.503" x2="345.188" y2="373.5118"/>
        <line x1="345.188" y1="373.5118" x2="345.281" y2="373.5266"/>
        <line x1="345.281" y1="373.5266" x2="345.373" y2="373.5471"/>
        <line x1="345.373" y1="373.5471" x2="345.464" y2="373.5734"/>
        <line x1="345.464" y1="373.5734" x2="345.552" y2="373.6053"/>
        <line x1="345.552" y1="373.6053" x2="345.639" y2="373.6428"/>
        <line x1="345.639" y1="373.6428" x2="345.723" y2="373.6855"/>
        <line x1="345.723" y1="373.6855" x2="345.804" y2="373.7335"/>
        <line x1="345.804" y1="373.7335" x2="345.882" y2="373.7865"/>
        <line x1="345.882" y1="373.7865" x2="345.956" y2="373.8442"/>
        <line x1="345.956" y1="373.8442" x2="346.027" y2="373.9066"/>
        <line x1="346.027" y1="373.9066" x2="346.093" y2="373.9732"/>
        <line x1="346.093" y1="373.9732" x2="346.156" y2="374.0439"/>
        <line x1="346.156" y1="374.0439" x2="346.214" y2="374.1183"/>
        <line x1="346.214" y1="374.1183" x2="346.266" y2="374.1963"/>
        <line x1="346.266" y1="374.1963" x2="346.314" y2="374.2774"/>
        <line x1="346.314" y1="374.2774" x2="346.357" y2="374.3613"/>
        <line x1="346.357" y1="374.3613" x2="346.395" y2="374.4478"/>
        <line x1="346.395" y1="374.4478" x2="346.427" y2="374.5365"/>
        <line x1="346.427" y1="374.5365" x2="346.453" y2="374.627"/>
        <line x1="346.453" y1="374.627" x2="346.473" y2="374.7189"/>
        <line x1="346.473" y1="374.7189" x2="346.488" y2="374.812"/>
        <line x1="346.488" y1="374.812" x2="346.497" y2="374.9058"/>
        <line x1="346.497" y1="374.9058" x2="346.5" y2="375"/>
        <line x1="346.5" y1="375" x2="346.497" y2="375.0942"/>
        <line x1="346.497" y1="375.0942" x2="346.488" y2="375.188"/>
        <line x1="346.488" y1="375.188" x2="346.473" y2="375.2811"/>
        <line x1="346.473" y1="375.2811" x2="346.453" y2="375.373"/>
        <line x1="346.453" y1="375.373" x2="346.427" y2="375.4635"/>
        <line x1="346.427" y1="375.4635" x2="346.395" y2="375.5522"/>
        <line x1="346.395" y1="375.5522" x2="346.357" y2="375.6387"/>
        <line x1="346.357" y1="375.6387" x2="346.314" y2="375.7226"/>
        <line x1="346.314" y1="375.7226" x2="346.266" y2="375.8037"/>
        <line x1="346.266" y1="375.8037" x2="346.214" y2="375.8817"/>
        <line x1="346.214" y1="375.8817" x2="346.156" y2="375.9561"/>
        <line x1="346.156" y1="375.9561" x2="346.093" y2="376.0268"/>
        <line x1="346.093" y1="376.0268" x2="346.027" y2="376.0935"/>
        <line x1="346.027" y1="376.0935" x2="345.956" y2="376.1558"/>
        <line x1="345.956" y1="376.1558" x2="345.882" y2="376.2135"/>
        <line x1="345.882" y1="376.2135" x2="345.804" y2="376.2665"/>
        <line x1="345.804" y1="376.2665" x2="345.723" y2="376.3145"/>
        <line x1="345.723" y1="376.3145" x2="345.639" y2="376.3572"/>
        <line x1="345.639" y1="376.3572" x2="345.552" y2="376.3947"/>
        <line x1="345.552" y1="376.3947" x2="345.464" y2="376.4266"/>
        <line x1="345.464" y1="376.4266" x2="345.373" y2="376.4529"/>
        <line x1="345.373" y1="376.4529" x2="345.281" y2="376.4734"/>
        <line x1="345.281" y1="376.4734" x2="345.188" y2="376.4882"/>
        <line x1="345.188" y1="376.4882" x2="345.094" y2="376.497"/>
        <line x1="345.094" y1="376.497" x2="345" y2="376.5"/>
        <line x1="345" y1="376.5" x2="344.906" y2="376.497"/>
        <line x1="354.906" y1="376.497" x2="354.812" y2="376.4882"/>
        <line x1="354.812" y1="376.4882" x2="354.719" y2="376.4734"/>
        <line x1="354.719" y1="376.4734" x2="354.627" y2="376.4529"/>
        <line x1="354.627" y1="376.4529" x2="354.536" y2="376.4266"/>
        <line x1="354.536" y1="376.4266" x2="354.448" y2="376.3947"/>
        <line x1="354.448" y1="376.3947" x2="354.361" y2="376.3572"/>
        <line x1="354.361" y1="376.3572" x2="354.277" y2="376.3145"/>
        <line x1="354.277" y1="376.3145" x2="354.196" y2="376.2665"/>
        <line x1="354.196" y1="376.2665" x2="354.118" y2="376.2135"/>
        <line x1="354.118" y1="376.2135" x2="354.044" y2="376.1558"/>
        <line x1="354.044" y1="376.1558" x2="353.973" y2="376.0935"/>
        <line x1="353.973" y1="376.0935" x2="353.907" y2="376.0268"/>
        <line x1="353.907" y1="376.0268" x2="353.844" y2="375.9561"/>
        <line x1="353.844" y1="375.9561" x2="353.786" y2="375.8817"/>
        <line x1="353.786" y1="375.8817" x2="353.734" y2="375.8037"/>
        <line x1="353.734" y1="375.8037" x2="353.686" y2="375.7226"/>
        <line x1="353.686" y1="375.7226" x2="353.643" y2="375.6387"/>
        <line x1="353.643" y1="375.6387" x2="353.605" y2="375.5522"/>
        <line x1="353.605" y1="375.5522" x2="353.573" y2="375.4635"/>
        <line x1="353.573" y1="375.4635" x2="353.547" y2="375.373"/>
        <line x1="353.547" y1="375.373" x2="353.527" y2="375.2811"/>
        <line x1="353.527" y1="375.2811" x2="353.512" y2="375.188"/>
        <line x1="353.512" y1="375.188" x2="353.503" y2="375.0942"/>
        <line x1="353.503" y1="375.0942" x2="353.5" y2="375"/>
        <line x1="353.5" y1="375" x2="353.503" y2="374.9058"/>
        <line x1="353.503" y1="374.9058" x2="353.512" y2="374.812"/>
        <line x1="353.512" y1="374.812" x2="353.527" y2="374.7189"/>
        <line x1="353.527" y1="374.7189" x2="353.547" y2="374.627"/>
        <line x1="353.547" y1="374.627" x2="353.573" y2="374.5365"/>
        <line x1="353.573" y1="374.5365" x2="353.605" y2="374.4478"/>
        <line x1="353.605" y1="374.4478" x2="353.643" y2="374.3613"/>
        <line x1="353.643" y1="374.3613" x2="353.686" y2="374.2774"/>
        <line x1="353.686" y1="374.2774" x2="353.734" y2="374.1963"/>
        <line x1="353.734" y1="374.1963" x2="353.786" y2="374.1183"/>
        <line x1="353.786" y1="374.1183" x2="353.844" y2="374.0439"/>
        <line x1="353.844" y1="374.0439" x2="353.907" y2="373.9732"/>
        <line x1="353.907" y1="373.9732" x2="353.973" y2="373.9066"/>
        <line x1="353.973" y1="373.9066" x2="354.044" y2="373.8442"/>
        <line x1="354.044" y1="373.8442" x2="354.118" y2="373.7865"/>
        <line x1="354.118" y1="373.7865" x2="354.196" y2="373.7335"/>
        <line x1="354.196" y1="373.7335" x2="354.277" y2="373.6855"/>
        <line x1="354.277" y1="373.6855" x2="354.361" y2="373.6428"/>
        <line x1="354.361" y1="373.6428" x2="354.448" y2="373.6053"/>
        <line x1="354.448" y1="373.6053" x2="354.536" y2="373.5734"/>
        <line x1="354.536" y1="373.5734" x2="354.627" y2="373.5471"/>
        <line x1="354.627" y1="373.5471" x2="354.719" y2="373.5266"/>
        <line x1="354.719" y1="373.5266" x2="354.812" y2="373.5118"/>
        <line x1="354.812" y1="373.5118" x2="354.906" y2="373.503"/>
        <line x1="354.906" y1="373.503" x2="355" y2="373.5"/>
        <line x1="355" y1="373.5" x2="355.094" y2="373.503"/>
        <line x1="355.094" y1="373.503" x2="355.188" y2="373.5118"/>
        <line x1="355.188" y1="373.5118" x2="355.281" y2="373.5266"/>
        <line x1="355.281" y1="373.5266" x2="355.373" y2="373.5471"/>
        <line x1="355.373" y1="373.5471" x2="355.464" y2="373.5734"/>
        <line x1="355.464" y1="373.5734" x2="355.552" y2="373.6053"/>
        <line x1="355.552" y1="373.6053" x2="355.639" y2="373.6428"/>
        <line x1="355.639" y1="373.6428" x2="355.723" y2="373.6855"/>
        <line x1="355.723" y1="373.6855" x2="355.804" y2="373.7335"/>
        <line x1="355.804" y1="373.7335" x2="355.882" y2="373.7865"/>
        <line x1="355.882" y1="373.7865" x2="355.956" y2="373.8442"/>
        <line x1="355.956" y1="373.8442" x2="356.027" y2="373.9066"/>
        <line x1="356.027" y1="373.9066" x2="356.093" y2="373.9732"/>
        <line x1="356.093" y1="373.9732" x2="356.156" y2="374.0439"/>
        <line x1="356.156" y1="374.0439" x2="356.214" y2="374.1183"/>
        <line x1="356.214" y1="374.1183" x2="356.266" y2="374.1963"/>
        <line x1="356.266" y1="374.1963" x2="356.314" y2="374.2774"/>
        <line x1="356.314" y1="374.2774" x2="356.357" y2="374.3613"/>
        <line x1="356.357" y1="374.3613" x2="356.395" y2="374.4478"/>
        <line x1="356.395" y1="374.4478" x2="356.427" y2="374.5365"/>
        <line x1="356.427" y1="374.5365" x2="356.453" y2="374.627"/>
        <line x1="356.453" y1="374.627" x2="356.473" y2="374.7189"/>
        <line x1="356.473" y1="374.7189" x2="356.488" y2="374.812"/>
        <line x1="356.488" y1="374.812" x2="356.497" y2="374.9058"/>
        <line x1="356.497" y1="374.9058" x2="356.5" y2="375"/>
        <line x1="356.5" y1="375" x2="356.497" y2="375.0942"/>
        <line x1="356.497" y1="375.0942" x2="356.488" y2="375.188"/>
        <line x1="356.488" y1="375.188" x2="356.473" y2="375.2811"/>
        <line x1="356.473" y1="375.2811" x2="356.453" y2="375.373"/>
        <line x1="356.453" y1="375.373" x2="356.427" y2="375.4635"/>
        <line x1="356.427" y1="375.4635" x2="356.395" y2="375.5522"/>
        <line x1="356.395" y1="375.5522" x2="356.357" y2="375.6387"/>
        <line x1="356.357" y1="375.6387" x2="356.314" y2="375.7226"/>
        <line x1="356.314" y1="375.7226" x2="356.266" y2="375.8037"/>
        <line x1="356.266" y1="375.8037" x2="356.214" y2="375.8817"/>
        <line x1="356.214" y1="375.8817" x2="356.156" y2="375.9561"/>
        <line x1="356.156" y1="375.9561" x2="356.093" y2="376.0268"/>
        <line x1="356.093" y1="376.0268" x2="356.027" y2="376.0935"/>
        <line x1="356.027" y1="376.0935" x2="355.956" y2="376.1558"/>
        <line x1="355.956" y1="376.1558" x2="355.882" y2="376.2135"/>
        <line x1="355.882" y1="376.2135" x2="355.804" y2="376.2665"/>
        <line x1="355.804" y1="376.2665" x2="355.723" y2="376.3145"/>
        <line x1="355.723" y1="376.3145" x2="355.639" y2="376.3572"/>
        <line x1="355.639" y1="376.3572" x2="355.552" y2="376.3947"/>
        <line x1="355.552" y1="376.3947" x2="355.464" y2="376.4266"/>
        <line x1="355.464" y1="376.4266" x2="355.373" y2="376.4529"/>
        <line x1="355.373" y1="376.4529" x2="355.281" y2="376.4734"/>
        <line x1="355.281" y1="376.4734" x2="355.188" y2="376.4882"/>
        <line x1="355.188" y1="376.4882" x2="355.094" y2="376.497"/>
        <line x1="355.094" y1="376.497" x2="355" y2="376.5"/>
        <line x1="355" y1="376.5" x2="354.906" y2="376.497"/>
        <line x1="270" y1="95" x2="0" y2="95"/>
        <line x1="0" y1="95" x2="0" y2="395"/>
        <line x1="0" y1="395" x2="270" y2="395"/>
        <line x1="270" y1="395" x2="270" y2="95"/>
        <line x1="258.874" y1="116.996" x2="258.749" y2="116.984"/>
        <line x1="258.749" y1="116.984" x2="258.625" y2="116.965"/>
        <line x1="258.625" y1="116.965" x2="258.503" y2="116.937"/>
        <line x1="258.503" y1="116.937" x2="258.382" y2="116.902"/>
        <line x1="258.382" y1="116.902" x2="258.264" y2="116.86"/>
        <line x1="258.264" y1="116.86" x2="258.148" y2="116.81"/>
        <line x1="258.148" y1="116.81" x2="258.036" y2="116.753"/>
        <line x1="258.036" y1="116.753" x2="257.928" y2="116.689"/>
        <line x1="257.928" y1="116.689" x2="257.824" y2="116.618"/>
        <line x1="257.824" y1="116.618" x2="257.725" y2="116.541"/>
        <line x1="257.725" y1="116.541" x2="257.631" y2="116.458"/>
        <line x1="257.631" y1="116.458" x2="257.542" y2="116.369"/>
        <line x1="257.542" y1="116.369" x2="257.459" y2="116.275"/>
        <line x1="257.459" y1="116.275" x2="257.382" y2="116.176"/>
        <line x1="257.382" y1="116.176" x2="257.311" y2="116.072"/>
        <line x1="257.311" y1="116.072" x2="257.247" y2="115.964"/>
        <line x1="257.247" y1="115.964" x2="257.19" y2="115.852"/>
        <line x1="257.19" y1="115.852" x2="257.14" y2="115.736"/>
        <line x1="257.14" y1="115.736" x2="257.098" y2="115.618"/>
        <line x1="257.098" y1="115.618" x2="257.063" y2="115.497"/>
        <line x1="257.063" y1="115.497" x2="257.035" y2="115.375"/>
        <line x1="257.035" y1="115.375" x2="257.016" y2="115.251"/>
        <line x1="257.016" y1="115.251" x2="257.004" y2="115.126"/>
        <line x1="257.004" y1="115.126" x2="257" y2="115"/>
        <line x1="257" y1="115" x2="257.004" y2="114.874"/>
        <line x1="257.004" y1="114.874" x2="257.016" y2="114.749"/>
        <line x1="257.016" y1="114.749" x2="257.035" y2="114.625"/>
        <line x1="257.035" y1="114.625" x2="257.063" y2="114.503"/>
        <line x1="257.063" y1="114.503" x2="257.098" y2="114.382"/>
        <line x1="257.098" y1="114.382" x2="257.14" y2="114.264"/>
        <line x1="257.14" y1="114.264" x2="257.19" y2="114.148"/>
        <line x1="257.19" y1="114.148" x2="257.247" y2="114.036"/>
        <line x1="257.247" y1="114.036" x2="257.311" y2="113.928"/>
        <line x1="257.311" y1="113.928" x2="257.382" y2="113.824"/>
        <line x1="257.382" y1="113.824" x2="257.459" y2="113.725"/>
        <line x1="257.459" y1="113.725" x2="257.542" y2="113.631"/>
        <line x1="257.542" y1="113.631" x2="257.631" y2="113.542"/>
        <line x1="257.631" y1="113.542" x2="257.725" y2="113.459"/>
        <line x1="257.725" y1="113.459" x2="257.824" y2="113.382"/>
        <line x1="257.824" y1="113.382" x2="257.928" y2="113.311"/>
        <line x1="257.928" y1="113.311" x2="258.036" y2="113.247"/>
        <line x1="258.036" y1="113.247" x2="258.148" y2="113.19"/>
        <line x1="258.148" y1="113.19" x2="258.264" y2="113.14"/>
        <line x1="258.264" y1="113.14" x2="258.382" y2="113.098"/>
        <line x1="258.382" y1="113.098" x2="258.503" y2="113.063"/>
        <line x1="258.503" y1="113.063" x2="258.625" y2="113.035"/>
        <line x1="258.625" y1="113.035" x2="258.749" y2="113.016"/>
        <line x1="258.749" y1="113.016" x2="258.874" y2="113.004"/>
        <line x1="258.874" y1="113.004" x2="259" y2="113"/>
        <line x1="259" y1="113" x2="259.126" y2="113.004"/>
        <line x1="259.126" y1="113.004" x2="259.251" y2="113.016"/>
        <line x1="259.251" y1="113.016" x2="259.375" y2="113.035"/>
        <line x1="259.375" y1="113.035" x2="259.497" y2="113.063"/>
        <line x1="259.497" y1="113.063" x2="259.618" y2="113.098"/>
        <line x1="259.618" y1="113.098" x2="259.736" y2="113.14"/>
        <line x1="259.736" y1="113.14" x2="259.852" y2="113.19"/>
        <line x1="259.852" y1="113.19" x2="259.964" y2="113.247"/>
        <line x1="259.964" y1="113.247" x2="260.072" y2="113.311"/>
        <line x1="260.072" y1="113.311" x2="260.176" y2="113.382"/>
        <line x1="260.176" y1="113.382" x2="260.275" y2="113.459"/>
        <line x1="260.275" y1="113.459" x2="260.369" y2="113.542"/>
        <line x1="260.369" y1="113.542" x2="260.458" y2="113.631"/>
        <line x1="260.458" y1="113.631" x2="260.541" y2="113.725"/>
        <line x1="260.541" y1="113.725" x2="260.618" y2="113.824"/>
        <line x1="260.618" y1="113.824" x2="260.689" y2="113.928"/>
        <line x1="260.689" y1="113.928" x2="260.753" y2="114.036"/>
        <line x1="260.753" y1="114.036" x2="260.81" y2="114.148"/>
        <line x1="260.81" y1="114.148" x2="260.86" y2="114.264"/>
        <line x1="260.86" y1="114.264" x2="260.902" y2="114.382"/>
        <line x1="260.902" y1="114.382" x2="260.937" y2="114.503"/>
        <line x1="260.937" y1="114.503" x2="260.965" y2="114.625"/>
        <line x1="260.965" y1="114.625" x2="260.984" y2="114.749"/>
        <line x1="260.984" y1="114.749" x2="260.996" y2="114.874"/>
        <line x1="260.996" y1="114.874" x2="261" y2="115"/>
        <line x1="261" y1="115" x2="260.996" y2="115.126"/>
        <line x1="260.996" y1="115.126" x2="260.984" y2="115.251"/>
        <line x1="260.984" y1="115.251" x2="260.965" y2="115.375"/>
        <line x1="260.965" y1="115.375" x2="260.937" y2="115.497"/>
        <line x1="260.937" y1="115.497" x2="260.902" y2="115.618"/>
        <line x1="260.902" y1="115.618" x2="260.86" y2="115.736"/>
        <line x1="260.86" y1="115.736" x2="260.81" y2="115.852"/>
        <line x1="260.81" y1="115.852" x2="260.753" y2="115.964"/>
        <line x1="260.753" y1="115.964" x2="260.689" y2="116.072"/>
        <line x1="260.689" y1="116.072" x2="260.618" y2="116.176"/>
        <line x1="260.618" y1="116.176" x2="260.541" y2="116.275"/>
        <line x1="260.541" y1="116.275" x2="260.458" y2="116.369"/>
        <line x1="260.458" y1="116.369" x2="260.369" y2="116.458"/>
        <line x1="260.369" y1="116.458" x2="260.275" y2="116.541"/>
        <line x1="260.275" y1="116.541" x2="260.176" y2="116.618"/>
        <line x1="260.176" y1="116.618" x2="260.072" y2="116.689"/>
        <line x1="260.072" y1="116.689" x2="259.964" y2="116.753"/>
        <line x1="259.964" y1="116.753" x2="259.852" y2="116.81"/>
        <line x1="259.852" y1="116.81" x2="259.736" y2="116.86"/>
        <line x1="259.736" y1="116.86" x2="259.618" y2="116.902"/>
        <line x1="259.618" y1="116.902" x2="259.497" y2="116.937"/>
        <line x1="259.497" y1="116.937" x2="259.375" y2="116.965"/>
        <line x1="259.375" y1="116.965" x2="259.251" y2="116.984"/>
        <line x1="259.251" y1="116.984" x2="259.126" y2="116.996"/>
        <line x1="259.126" y1="116.996" x2="259" y2="117"/>
        <line x1="259" y1="117" x2="258.874" y2="116.996"/>
        <line x1="10.874" y1="116.996" x2="10.749" y2="116.984"/>
        <line x1="10.749" y1="116.984" x2="10.625" y2="116.965"/>
        <line x1="10.625" y1="116.965" x2="10.503" y2="116.937"/>
        <line x1="10.503" y1="116.937" x2="10.382" y2="116.902"/>
        <line x1="10.382" y1="116.902" x2="10.264" y2="116.86"/>
        <line x1="10.264" y1="116.86" x2="10.148" y2="116.81"/>
        <line x1="10.148" y1="116.81" x2="10.036" y2="116.753"/>
        <line x1="10.036" y1="116.753" x2="9.928" y2="116.689"/>
        <line x1="9.928" y1="116.689" x2="9.824" y2="116.618"/>
        <line x1="9.824" y1="116.618" x2="9.725" y2="116.541"/>
        <line x1="9.725" y1="116.541" x2="9.631" y2="116.458"/>
        <line x1="9.631" y1="116.458" x2="9.542" y2="116.369"/>
        <line x1="9.542" y1="116.369" x2="9.459" y2="116.275"/>
        <line x1="9.459" y1="116.275" x2="9.382" y2="116.176"/>
        <line x1="9.382" y1="116.176" x2="9.311" y2="116.072"/>
        <line x1="9.311" y1="116.072" x2="9.247" y2="115.964"/>
        <line x1="9.247" y1="115.964" x2="9.19" y2="115.852"/>
        <line x1="9.19" y1="115.852" x2="9.14" y2="115.736"/>
        <line x1="9.14" y1="115.736" x2="9.098" y2="115.618"/>
        <line x1="9.098" y1="115.618" x2="9.063" y2="115.497"/>
        <line x1="9.063" y1="115.497" x2="9.035" y2="115.375"/>
        <line x1="9.035" y1="115.375" x2="9.016" y2="115.251"/>
        <line x1="9.016" y1="115.251" x2="9.004" y2="115.126"/>
        <line x1="9.004" y1="115.126" x2="9" y2="115"/>
        <line x1="9" y1="115" x2="9.004" y2="114.874"/>
        <line x1="9.004" y1="114.874" x2="9.016" y2="114.749"/>
        <line x1="9.016" y1="114.749" x2="9.035" y2="114.625"/>
        <line x1="9.035" y1="114.625" x2="9.063" y2="114.503"/>
        <line x1="9.063" y1="114.503" x2="9.098" y2="114.382"/>
        <line x1="9.098" y1="114.382" x2="9.14" y2="114.264"/>
        <line x1="9.14" y1="114.264" x2="9.19" y2="114.148"/>
        <line x1="9.19" y1="114.148" x2="9.247" y2="114.036"/>
        <line x1="9.247" y1="114.036" x2="9.311" y2="113.928"/>
        <line x1="9.311" y1="113.928" x2="9.382" y2="113.824"/>
        <line x1="9.382" y1="113.824" x2="9.459" y2="113.725"/>
        <line x1="9.459" y1="113.725" x2="9.542" y2="113.631"/>
        <line x1="9.542" y1="113.631" x2="9.631" y2="113.542"/>
        <line x1="9.631" y1="113.542" x2="9.725" y2="113.459"/>
        <line x1="9.725" y1="113.459" x2="9.824" y2="113.382"/>
        <line x1="9.824" y1="113.382" x2="9.928" y2="113.311"/>
        <line x1="9.928" y1="113.311" x2="10.036" y2="113.247"/>
        <line x1="10.036" y1="113.247" x2="10.148" y2="113.19"/>
        <line x1="10.148" y1="113.19" x2="10.264" y2="113.14"/>
        <line x1="10.264" y1="113.14" x2="10.382" y2="113.098"/>
        <line x1="10.382" y1="113.098" x2="10.503" y2="113.063"/>
        <line x1="10.503" y1="113.063" x2="10.625" y2="113.035"/>
        <line x1="10.625" y1="113.035" x2="10.749" y2="113.016"/>
        <line x1="10.749" y1="113.016" x2="10.874" y2="113.004"/>
        <line x1="10.874" y1="113.004" x2="11" y2="113"/>
        <line x1="11" y1="113" x2="11.126" y2="113.004"/>
        <line x1="11.126" y1="113.004" x2="11.251" y2="113.016"/>
        <line x1="11.251" y1="113.016" x2="11.375" y2="113.035"/>
        <line x1="11.375" y1="113.035" x2="11.497" y2="113.063"/>
        <line x1="11.497" y1="113.063" x2="11.618" y2="113.098"/>
        <line x1="11.618" y1="113.098" x2="11.736" y2="113.14"/>
        <line x1="11.736" y1="113.14" x2="11.852" y2="113.19"/>
        <line x1="11.852" y1="113.19" x2="11.964" y2="113.247"/>
        <line x1="11.964" y1="113.247" x2="12.072" y2="113.311"/>
        <line x1="12.072" y1="113.311" x2="12.176" y2="113.382"/>
        <line x1="12.176" y1="113.382" x2="12.275" y2="113.459"/>
        <line x1="12.275" y1="113.459" x2="12.369" y2="113.542"/>
        <line x1="12.369" y1="113.542" x2="12.458" y2="113.631"/>
        <line x1="12.458" y1="113.631" x2="12.541" y2="113.725"/>
        <line x1="12.541" y1="113.725" x2="12.618" y2="113.824"/>
        <line x1="12.618" y1="113.824" x2="12.689" y2="113.928"/>
        <line x1="12.689" y1="113.928" x2="12.753" y2="114.036"/>
        <line x1="12.753" y1="114.036" x2="12.81" y2="114.148"/>
        <line x1="12.81" y1="114.148" x2="12.86" y2="114.264"/>
        <line x1="12.86" y1="114.264" x2="12.902" y2="114.382"/>
        <line x1="12.902" y1="114.382" x2="12.937" y2="114.503"/>
        <line x1="12.937" y1="114.503" x2="12.965" y2="114.625"/>
        <line x1="12.965" y1="114.625" x2="12.984" y2="114.749"/>
        <line x1="12.984" y1="114.749" x2="12.996" y2="114.874"/>
        <line x1="12.996" y1="114.874" x2="13" y2="115"/>
        <line x1="13" y1="115" x2="12.996" y2="115.126"/>
        <line x1="12.996" y1="115.126" x2="12.984" y2="115.251"/>
        <line x1="12.984" y1="115.251" x2="12.965" y2="115.375"/>
        <line x1="12.965" y1="115.375" x2="12.937" y2="115.497"/>
        <line x1="12.937" y1="115.497" x2="12.902" y2="115.618"/>
        <line x1="12.902" y1="115.618" x2="12.86" y2="115.736"/>
        <line x1="12.86" y1="115.736" x2="12.81" y2="115.852"/>
        <line x1="12.81" y1="115.852" x2="12.753" y2="115.964"/>
        <line x1="12.753" y1="115.964" x2="12.689" y2="116.072"/>
        <line x1="12.689" y1="116.072" x2="12.618" y2="116.176"/>
        <line x1="12.618" y1="116.176" x2="12.541" y2="116.275"/>
        <line x1="12.541" y1="116.275" x2="12.458" y2="116.369"/>
        <line x1="12.458" y1="116.369" x2="12.369" y2="116.458"/>
        <line x1="12.369" y1="116.458" x2="12.275" y2="116.541"/>
        <line x1="12.275" y1="116.541" x2="12.176" y2="116.618"/>
        <line x1="12.176" y1="116.618" x2="12.072" y2="116.689"/>
        <line x1="12.072" y1="116.689" x2="11.964" y2="116.753"/>
        <line x1="11.964" y1="116.753" x2="11.852" y2="116.81"/>
        <line x1="11.852" y1="116.81" x2="11.736" y2="116.86"/>
        <line x1="11.736" y1="116.86" x2="11.618" y2="116.902"/>
        <line x1="11.618" y1="116.902" x2="11.497" y2="116.937"/>
        <line x1="11.497" y1="116.937" x2="11.375" y2="116.965"/>
        <line x1="11.375" y1="116.965" x2="11.251" y2="116.984"/>
        <line x1="11.251" y1="116.984" x2="11.126" y2="116.996"/>
        <line x1="11.126" y1="116.996" x2="11" y2="117"/>
        <line x1="11" y1="117" x2="10.874" y2="116.996"/>
        <line x1="10.874" y1="376.9961" x2="10.749" y2="376.9842"/>
        <line x1="10.749" y1="376.9842" x2="10.625" y2="376.9646"/>
        <line x1="10.625" y1="376.9646" x2="10.503" y2="376.9372"/>
        <line x1="10.503" y1="376.9372" x2="10.382" y2="376.9021"/>
        <line x1="10.382" y1="376.9021" x2="10.264" y2="376.8596"/>
        <line x1="10.264" y1="376.8596" x2="10.148" y2="376.8097"/>
        <line x1="10.148" y1="376.8097" x2="10.036" y2="376.7526"/>
        <line x1="10.036" y1="376.7526" x2="9.928" y2="376.6887"/>
        <line x1="9.928" y1="376.6887" x2="9.824" y2="376.618"/>
        <line x1="9.824" y1="376.618" x2="9.725" y2="376.541"/>
        <line x1="9.725" y1="376.541" x2="9.631" y2="376.4579"/>
        <line x1="9.631" y1="376.4579" x2="9.542" y2="376.3691"/>
        <line x1="9.542" y1="376.3691" x2="9.459" y2="376.2749"/>
        <line x1="9.459" y1="376.2749" x2="9.382" y2="376.1756"/>
        <line x1="9.382" y1="376.1756" x2="9.311" y2="376.0717"/>
        <line x1="9.311" y1="376.0717" x2="9.247" y2="375.9635"/>
        <line x1="9.247" y1="375.9635" x2="9.19" y2="375.8516"/>
        <line x1="9.19" y1="375.8516" x2="9.14" y2="375.7363"/>
        <line x1="9.14" y1="375.7363" x2="9.098" y2="375.618"/>
        <line x1="9.098" y1="375.618" x2="9.063" y2="375.4974"/>
        <line x1="9.063" y1="375.4974" x2="9.035" y2="375.3748"/>
        <line x1="9.035" y1="375.3748" x2="9.016" y2="375.2507"/>
        <line x1="9.016" y1="375.2507" x2="9.004" y2="375.1256"/>
        <line x1="9.004" y1="375.1256" x2="9" y2="375"/>
        <line x1="9" y1="375" x2="9.004" y2="374.8744"/>
        <line x1="9.004" y1="374.8744" x2="9.016" y2="374.7493"/>
        <line x1="9.016" y1="374.7493" x2="9.035" y2="374.6252"/>
        <line x1="9.035" y1="374.6252" x2="9.063" y2="374.5026"/>
        <line x1="9.063" y1="374.5026" x2="9.098" y2="374.382"/>
        <line x1="9.098" y1="374.382" x2="9.14" y2="374.2638"/>
        <line x1="9.14" y1="374.2638" x2="9.19" y2="374.1485"/>
        <line x1="9.19" y1="374.1485" x2="9.247" y2="374.0365"/>
        <line x1="9.247" y1="374.0365" x2="9.311" y2="373.9283"/>
        <line x1="9.311" y1="373.9283" x2="9.382" y2="373.8244"/>
        <line x1="9.382" y1="373.8244" x2="9.459" y2="373.7252"/>
        <line x1="9.459" y1="373.7252" x2="9.542" y2="373.6309"/>
        <line x1="9.542" y1="373.6309" x2="9.631" y2="373.5421"/>
        <line x1="9.631" y1="373.5421" x2="9.725" y2="373.459"/>
        <line x1="9.725" y1="373.459" x2="9.824" y2="373.382"/>
        <line x1="9.824" y1="373.382" x2="9.928" y2="373.3114"/>
        <line x1="9.928" y1="373.3114" x2="10.036" y2="373.2474"/>
        <line x1="10.036" y1="373.2474" x2="10.148" y2="373.1904"/>
        <line x1="10.148" y1="373.1904" x2="10.264" y2="373.1405"/>
        <line x1="10.264" y1="373.1405" x2="10.382" y2="373.0979"/>
        <line x1="10.382" y1="373.0979" x2="10.503" y2="373.0628"/>
        <line x1="10.503" y1="373.0628" x2="10.625" y2="373.0354"/>
        <line x1="10.625" y1="373.0354" x2="10.749" y2="373.0158"/>
        <line x1="10.749" y1="373.0158" x2="10.874" y2="373.004"/>
        <line x1="10.874" y1="373.004" x2="11" y2="373"/>
        <line x1="11" y1="373" x2="11.126" y2="373.004"/>
        <line x1="11.126" y1="373.004" x2="11.251" y2="373.0158"/>
        <line x1="11.251" y1="373.0158" x2="11.375" y2="373.0354"/>
        <line x1="11.375" y1="373.0354" x2="11.497" y2="373.0628"/>
        <line x1="11.497" y1="373.0628" x2="11.618" y2="373.0979"/>
        <line x1="11.618" y1="373.0979" x2="11.736" y2="373.1405"/>
        <line x1="11.736" y1="373.1405" x2="11.852" y2="373.1904"/>
        <line x1="11.852" y1="373.1904" x2="11.964" y2="373.2474"/>
        <line x1="11.964" y1="373.2474" x2="12.072" y2="373.3114"/>
        <line x1="12.072" y1="373.3114" x2="12.176" y2="373.382"/>
        <line x1="12.176" y1="373.382" x2="12.275" y2="373.459"/>
        <line x1="12.275" y1="373.459" x2="12.369" y2="373.5421"/>
        <line x1="12.369" y1="373.5421" x2="12.458" y2="373.6309"/>
        <line x1="12.458" y1="373.6309" x2="12.541" y2="373.7252"/>
        <line x1="12.541" y1="373.7252" x2="12.618" y2="373.8244"/>
        <line x1="12.618" y1="373.8244" x2="12.689" y2="373.9283"/>
        <line x1="12.689" y1="373.9283" x2="12.753" y2="374.0365"/>
        <line x1="12.753" y1="374.0365" x2="12.81" y2="374.1485"/>
        <line x1="12.81" y1="374.1485" x2="12.86" y2="374.2638"/>
        <line x1="12.86" y1="374.2638" x2="12.902" y2="374.382"/>
        <line x1="12.902" y1="374.382" x2="12.937" y2="374.5026"/>
        <line x1="12.937" y1="374.5026" x2="12.965" y2="374.6252"/>
        <line x1="12.965" y1="374.6252" x2="12.984" y2="374.7493"/>
        <line x1="12.984" y1="374.7493" x2="12.996" y2="374.8744"/>
        <line x1="12.996" y1="374.8744" x2="13" y2="375"/>
        <line x1="13" y1="375" x2="12.996" y2="375.1256"/>
        <line x1="12.996" y1="375.1256" x2="12.984" y2="375.2507"/>
        <line x1="12.984" y1="375.2507" x2="12.965" y2="375.3748"/>
        <line x1="12.965" y1="375.3748" x2="12.937" y2="375.4974"/>
        <line x1="12.937" y1="375.4974" x2="12.902" y2="375.618"/>
        <line x1="12.902" y1="375.618" x2="12.86" y2="375.7363"/>
        <line x1="12.86" y1="375.7363" x2="12.81" y2="375.8516"/>
        <line x1="12.81" y1="375.8516" x2="12.753" y2="375.9635"/>
        <line x1="12.753" y1="375.9635" x2="12.689" y2="376.0717"/>
        <line x1="12.689" y1="376.0717" x2="12.618" y2="376.1756"/>
        <line x1="12.618" y1="376.1756" x2="12.541" y2="376.2749"/>
        <line x1="12.541" y1="376.2749" x2="12.458" y2="376.3691"/>
        <line x1="12.458" y1="376.3691" x2="12.369" y2="376.4579"/>
        <line x1="12.369" y1="376.4579" x2="12.275" y2="376.541"/>
        <line x1="12.275" y1="376.541" x2="12.176" y2="376.618"/>
        <line x1="12.176" y1="376.618" x2="12.072" y2="376.6887"/>
        <line x1="12.072" y1="376.6887" x2="11.964" y2="376.7526"/>
        <line x1="11.964" y1="376.7526" x2="11.852" y2="376.8097"/>
        <line x1="11.852" y1="376.8097" x2="11.736" y2="376.8596"/>
        <line x1="11.736" y1="376.8596" x2="11.618" y2="376.9021"/>
        <line x1="11.618" y1="376.9021" x2="11.497" y2="376.9372"/>
        <line x1="11.497" y1="376.9372" x2="11.375" y2="376.9646"/>
        <line x1="11.375" y1="376.9646" x2="11.251" y2="376.9842"/>
        <line x1="11.251" y1="376.9842" x2="11.126" y2="376.9961"/>
        <line x1="11.126" y1="376.9961" x2="11" y2="377"/>
        <line x1="11" y1="377" x2="10.874" y2="376.9961"/>
        <line x1="258.874" y1="376.9961" x2="258.749" y2="376.9842"/>
        <line x1="258.749" y1="376.9842" x2="258.625" y2="376.9646"/>
        <line x1="258.625" y1="376.9646" x2="258.503" y2="376.9372"/>
        <line x1="258.503" y1="376.9372" x2="258.382" y2="376.9021"/>
        <line x1="258.382" y1="376.9021" x2="258.264" y2="376.8596"/>
        <line x1="258.264" y1="376.8596" x2="258.148" y2="376.8097"/>
        <line x1="258.148" y1="376.8097" x2="258.036" y2="376.7526"/>
        <line x1="258.036" y1="376.7526" x2="257.928" y2="376.6887"/>
        <line x1="257.928" y1="376.6887" x2="257.824" y2="376.618"/>
        <line x1="257.824" y1="376.618" x2="257.725" y2="376.541"/>
        <line x1="257.725" y1="376.541" x2="257.631" y2="376.4579"/>
        <line x1="257.631" y1="376.4579" x2="257.542" y2="376.3691"/>
        <line x1="257.542" y1="376.3691" x2="257.459" y2="376.2749"/>
        <line x1="257.459" y1="376.2749" x2="257.382" y2="376.1756"/>
        <line x1="257.382" y1="376.1756" x2="257.311" y2="376.0717"/>
        <line x1="257.311" y1="376.0717" x2="257.247" y2="375.9635"/>
        <line x1="257.247" y1="375.9635" x2="257.19" y2="375.8516"/>
        <line x1="257.19" y1="375.8516" x2="257.14" y2="375.7363"/>
        <line x1="257.14" y1="375.7363" x2="257.098" y2="375.618"/>
        <line x1="257.098" y1="375.618" x2="257.063" y2="375.4974"/>
        <line x1="257.063" y1="375.4974" x2="257.035" y2="375.3748"/>
        <line x1="257.035" y1="375.3748" x2="257.016" y2="375.2507"/>
        <line x1="257.016" y1="375.2507" x2="257.004" y2="375.1256"/>
        <line x1="257.004" y1="375.1256" x2="257" y2="375"/>
        <line x1="257" y1="375" x2="257.004" y2="374.8744"/>
        <line x1="257.004" y1="374.8744" x2="257.016" y2="374.7493"/>
        <line x1="257.016" y1="374.7493" x2="257.035" y2="374.6252"/>
        <line x1="257.035" y1="374.6252" x2="257.063" y2="374.5026"/>
        <line x1="257.063" y1="374.5026" x2="257.098" y2="374.382"/>
        <line x1="257.098" y1="374.382" x2="257.14" y2="374.2638"/>
        <line x1="257.14" y1="374.2638" x2="257.19" y2="374.1485"/>
        <line x1="257.19" y1="374.1485" x2="257.247" y2="374.0365"/>
        <line x1="257.247" y1="374.0365" x2="257.311" y2="373.9283"/>
        <line x1="257.311" y1="373.9283" x2="257.382" y2="373.8244"/>
        <line x1="257.382" y1="373.8244" x2="257.459" y2="373.7252"/>
        <line x1="257.459" y1="373.7252" x2="257.542" y2="373.6309"/>
        <line x1="257.542" y1="373.6309" x2="257.631" y2="373.5421"/>
        <line x1="257.631" y1="373.5421" x2="257.725" y2="373.459"/>
        <line x1="257.725" y1="373.459" x2="257.824" y2="373.382"/>
        <line x1="257.824" y1="373.382" x2="257.928" y2="373.3114"/>
        <line x1="257.928" y1="373.3114" x2="258.036" y2="373.2474"/>
        <line x1="258.036" y1="373.2474" x2="258.148" y2="373.1904"/>
        <line x1="258.148" y1="373.1904" x2="258.264" y2="373.1405"/>
        <line x1="258.264" y1="373.1405" x2="258.382" y2="373.0979"/>
        <line x1="258.382" y1="373.0979" x2="258.503" y2="373.0628"/>
        <line x1="258.503" y1="373.0628" x2="258.625" y2="373.0354"/>
        <line x1="258.625" y1="373.0354" x2="258.749" y2="373.0158"/>
        <line x1="258.749" y1="373.0158" x2="258.874" y2="373.004"/>
        <line x1="258.874" y1="373.004" x2="259" y2="373"/>
        <line x1="259" y1="373" x2="259.126" y2="373.004"/>
        <line x1="259.126" y1="373.004" x2="259.251" y2="373.0158"/>
        <line x1="259.251" y1="373.0158" x2="259.375" y2="373.0354"/>
        <line x1="259.375" y1="373.0354" x2="259.497" y2="373.0628"/>
        <line x1="259.497" y1="373.0628" x2="259.618" y2="373.0979"/>
        <line x1="259.618" y1="373.0979" x2="259.736" y2="373.1405"/>
        <line x1="259.736" y1="373.1405" x2="259.852" y2="373.1904"/>
        <line x1="259.852" y1="373.1904" x2="259.964" y2="373.2474"/>
        <line x1="259.964" y1="373.2474" x2="260.072" y2="373.3114"/>
        <line x1="260.072" y1="373.3114" x2="260.176" y2="373.382"/>
        <line x1="260.176" y1="373.382" x2="260.275" y2="373.459"/>
        <line x1="260.275" y1="373.459" x2="260.369" y2="373.5421"/>
        <line x1="260.369" y1="373.5421" x2="260.458" y2="373.6309"/>
        <line x1="260.458" y1="373.6309" x2="260.541" y2="373.7252"/>
        <line x1="260.541" y1="373.7252" x2="260.618" y2="373.8244"/>
        <line x1="260.618" y1="373.8244" x2="260.689" y2="373.9283"/>
        <line x1="260.689" y1="373.9283" x2="260.753" y2="374.0365"/>
        <line x1="260.753" y1="374.0365" x2="260.81" y2="374.1485"/>
        <line x1="260.81" y1="374.1485" x2="260.86" y2="374.2638"/>
        <line x1="260.86" y1="374.2638" x2="260.902" y2="374.382"/>
        <line x1="260.902" y1="374.382" x2="260.937" y2="374.5026"/>
        <line x1="260.937" y1="374.5026" x2="260.965" y2="374.6252"/>
        <line x1="260.965" y1="374.6252" x2="260.984" y2="374.7493"/>
        <line x1="260.984" y1="374.7493" x2="260.996" y2="374.8744"/>
        <line x1="260.996" y1="374.8744" x2="261" y2="375"/>
        <line x1="261" y1="375" x2="260.996" y2="375.1256"/>
        <line x1="260.996" y1="375.1256" x2="260.984" y2="375.2507"/>
        <line x1="260.984" y1="375.2507" x2="260.965" y2="375.3748"/>
        <line x1="260.965" y1="375.3748" x2="260.937" y2="375.4974"/>
        <line x1="260.937" y1="375.4974" x2="260.902" y2="375.618"/>
        <line x1="260.902" y1="375.618" x2="260.86" y2="375.7363"/>
        <line x1="260.86" y1="375.7363" x2="260.81" y2="375.8516"/>
        <line x1="260.81" y1="375.8516" x2="260.753" y2="375.9635"/>
        <line x1="260.753" y1="375.9635" x2="260.689" y2="376.0717"/>
        <line x1="260.689" y1="376.0717" x2="260.618" y2="376.1756"/>
        <line x1="260.618" y1="376.1756" x2="260.541" y2="376.2749"/>
        <line x1="260.541" y1="376.2749" x2="260.458" y2="376.3691"/>
        <line x1="260.458" y1="376.3691" x2="260.369" y2="376.4579"/>
        <line x1="260.369" y1="376.4579" x2="260.275" y2="376.541"/>
        <line x1="260.275" y1="376.541" x2="260.176" y2="376.618"/>
        <line x1="260.176" y1="376.618" x2="260.072" y2="376.6887"/>
        <line x1="260.072" y1="376.6887" x2="259.964" y2="376.7526"/>
        <line x1="259.964" y1="376.7526" x2="259.852" y2="376.8097"/>
        <line x1="259.852" y1="376.8097" x2="259.736" y2="376.8596"/>
        <line x1="259.736" y1="376.8596" x2="259.618" y2="376.9021"/>
        <line x1="259.618" y1="376.9021" x2="259.497" y2="376.9372"/>
        <line x1="259.497" y1="376.9372" x2="259.375" y2="376.9646"/>
        <line x1="259.375" y1="376.9646" x2="259.251" y2="376.9842"/>
        <line x1="259.251" y1="376.9842" x2="259.126" y2="376.9961"/>
        <line x1="259.126" y1="376.9961" x2="259" y2="377"/>
        <line x1="259" y1="377" x2="258.874" y2="376.9961"/>
    </g>
</svg>
