<?xml version="1.0"?>
<svg xmlns="http://www.w3.org/2000/svg" xmlns:lc="http://www.librecad.org" xmlns:xlink="http://www.w3.org/1999/xlink" width="480mm" height="250mm" viewBox="0 0 480 250">
    <g lc:layername="0" lc:is_locked="false" lc:is_construction="false" fill="none" stroke="black" stroke-width="1">
        <line x1="480" y1="0" x2="400" y2="0"/>
        <line x1="400" y1="0" x2="400" y2="80"/>
        <line x1="400" y1="80" x2="480" y2="80"/>
        <line x1="480" y1="80" x2="480" y2="0"/>
        <line x1="390" y1="0" x2="310" y2="0"/>
        <line x1="310" y1="0" x2="310" y2="80"/>
        <line x1="310" y1="80" x2="390" y2="80"/>
        <line x1="390" y1="80" x2="390" y2="0"/>
        <line x1="440" y1="90" x2="310" y2="90"/>
        <line x1="310" y1="90" x2="310" y2="250"/>
        <line x1="310" y1="250" x2="440" y2="250"/>
        <line x1="440" y1="250" x2="440" y2="90"/>
        <line x1="130" y1="90" x2="0" y2="90"/>
        <line x1="0" y1="90" x2="0" y2="250"/>
        <line x1="0" y1="250" x2="130" y2="250"/>
        <line x1="130" y1="250" x2="130" y2="90"/>
        <line x1="300" y1="90" x2="140" y2="90"/>
        <line x1="140" y1="90" x2="140" y2="250"/>
        <line x1="140" y1="250" x2="300" y2="250"/>
        <line x1="300" y1="250" x2="300" y2="90"/>
    </g>
</svg>
