  0
SECTION
  2
BLOCKS
  0
ENDSEC
  0
SECTION
  2
ENTITIES
  0
LINE
  8
0
 10
0
 11
0
 20
0
 21
310
  0
LINE
  8
0
 10
0
 11
440
 20
310
 21
310
  0
LINE
  8
0
 10
440
 11
440
 20
310
 21
160
  0
LINE
  8
0
 10
440
 11
280
 20
160
 21
160
  0
LINE
  8
0
 10
280
 11
280
 20
160
 21
0
  0
LINE
  8
0
 10
280
 11
0
 20
0
 21
0
  0
LINE
  8
0
 10
68
 11
68.006
 20
295
 21
295.157
  0
LINE
  8
0
 10
68.006
 11
68.025
 20
295.157
 21
295.313
  0
LINE
  8
0
 10
68.025
 11
68.055
 20
295.313
 21
295.467
  0
LINE
  8
0
 10
68.055
 11
68.098
 20
295.467
 21
295.618
  0
LINE
  8
0
 10
68.098
 11
68.152
 20
295.618
 21
295.765
  0
LINE
  8
0
 10
68.152
 11
68.218
 20
295.765
 21
295.908
  0
LINE
  8
0
 10
68.218
 11
68.295
 20
295.908
 21
296.045
  0
LINE
  8
0
 10
68.295
 11
68.382
 20
296.045
 21
296.176
  0
LINE
  8
0
 10
68.382
 11
68.479
 20
296.176
 21
296.299
  0
LINE
  8
0
 10
68.479
 11
68.586
 20
296.299
 21
296.414
  0
LINE
  8
0
 10
68.586
 11
68.701
 20
296.414
 21
296.521
  0
LINE
  8
0
 10
68.701
 11
68.824
 20
296.521
 21
296.618
  0
LINE
  8
0
 10
68.824
 11
68.955
 20
296.618
 21
296.705
  0
LINE
  8
0
 10
68.955
 11
69.092
 20
296.705
 21
296.782
  0
LINE
  8
0
 10
69.092
 11
69.235
 20
296.782
 21
296.848
  0
LINE
  8
0
 10
69.235
 11
69.382
 20
296.848
 21
296.902
  0
LINE
  8
0
 10
69.382
 11
69.533
 20
296.902
 21
296.945
  0
LINE
  8
0
 10
69.533
 11
69.687
 20
296.945
 21
296.975
  0
LINE
  8
0
 10
69.687
 11
69.843
 20
296.975
 21
296.994
  0
LINE
  8
0
 10
69.843
 11
70
 20
296.994
 21
297
  0
LINE
  8
0
 10
70
 11
70.157
 20
297
 21
296.994
  0
LINE
  8
0
 10
70.157
 11
70.313
 20
296.994
 21
296.975
  0
LINE
  8
0
 10
70.313
 11
70.467
 20
296.975
 21
296.945
  0
LINE
  8
0
 10
70.467
 11
70.618
 20
296.945
 21
296.902
  0
LINE
  8
0
 10
70.618
 11
70.765
 20
296.902
 21
296.848
  0
LINE
  8
0
 10
70.765
 11
70.908
 20
296.848
 21
296.782
  0
LINE
  8
0
 10
70.908
 11
71.045
 20
296.782
 21
296.705
  0
LINE
  8
0
 10
71.045
 11
71.176
 20
296.705
 21
296.618
  0
LINE
  8
0
 10
71.176
 11
71.299
 20
296.618
 21
296.521
  0
LINE
  8
0
 10
71.299
 11
71.414
 20
296.521
 21
296.414
  0
LINE
  8
0
 10
71.414
 11
71.521
 20
296.414
 21
296.299
  0
LINE
  8
0
 10
71.521
 11
71.618
 20
296.299
 21
296.176
  0
LINE
  8
0
 10
71.618
 11
71.705
 20
296.176
 21
296.045
  0
LINE
  8
0
 10
71.705
 11
71.782
 20
296.045
 21
295.908
  0
LINE
  8
0
 10
71.782
 11
71.848
 20
295.908
 21
295.765
  0
LINE
  8
0
 10
71.848
 11
71.902
 20
295.765
 21
295.618
  0
LINE
  8
0
 10
71.902
 11
71.945
 20
295.618
 21
295.467
  0
LINE
  8
0
 10
71.945
 11
71.975
 20
295.467
 21
295.313
  0
LINE
  8
0
 10
71.975
 11
71.994
 20
295.313
 21
295.157
  0
LINE
  8
0
 10
71.994
 11
72
 20
295.157
 21
295
  0
LINE
  8
0
 10
72
 11
71.994
 20
295
 21
294.843
  0
LINE
  8
0
 10
71.994
 11
71.975
 20
294.843
 21
294.687
  0
LINE
  8
0
 10
71.975
 11
71.945
 20
294.687
 21
294.533
  0
LINE
  8
0
 10
71.945
 11
71.902
 20
294.533
 21
294.382
  0
LINE
  8
0
 10
71.902
 11
71.848
 20
294.382
 21
294.235
  0
LINE
  8
0
 10
71.848
 11
71.782
 20
294.235
 21
294.092
  0
LINE
  8
0
 10
71.782
 11
71.705
 20
294.092
 21
293.955
  0
LINE
  8
0
 10
71.705
 11
71.618
 20
293.955
 21
293.824
  0
LINE
  8
0
 10
71.618
 11
71.521
 20
293.824
 21
293.701
  0
LINE
  8
0
 10
71.521
 11
71.414
 20
293.701
 21
293.586
  0
LINE
  8
0
 10
71.414
 11
71.299
 20
293.586
 21
293.479
  0
LINE
  8
0
 10
71.299
 11
71.176
 20
293.479
 21
293.382
  0
LINE
  8
0
 10
71.176
 11
71.045
 20
293.382
 21
293.295
  0
LINE
  8
0
 10
71.045
 11
70.908
 20
293.295
 21
293.218
  0
LINE
  8
0
 10
70.908
 11
70.765
 20
293.218
 21
293.152
  0
LINE
  8
0
 10
70.765
 11
70.618
 20
293.152
 21
293.098
  0
LINE
  8
0
 10
70.618
 11
70.467
 20
293.098
 21
293.055
  0
LINE
  8
0
 10
70.467
 11
70.313
 20
293.055
 21
293.025
  0
LINE
  8
0
 10
70.313
 11
70.157
 20
293.025
 21
293.006
  0
LINE
  8
0
 10
70.157
 11
70
 20
293.006
 21
293
  0
LINE
  8
0
 10
70
 11
69.843
 20
293
 21
293.006
  0
LINE
  8
0
 10
69.843
 11
69.687
 20
293.006
 21
293.025
  0
LINE
  8
0
 10
69.687
 11
69.533
 20
293.025
 21
293.055
  0
LINE
  8
0
 10
69.533
 11
69.382
 20
293.055
 21
293.098
  0
LINE
  8
0
 10
69.382
 11
69.235
 20
293.098
 21
293.152
  0
LINE
  8
0
 10
69.235
 11
69.092
 20
293.152
 21
293.218
  0
LINE
  8
0
 10
69.092
 11
68.955
 20
293.218
 21
293.295
  0
LINE
  8
0
 10
68.955
 11
68.824
 20
293.295
 21
293.382
  0
LINE
  8
0
 10
68.824
 11
68.701
 20
293.382
 21
293.479
  0
LINE
  8
0
 10
68.701
 11
68.586
 20
293.479
 21
293.586
  0
LINE
  8
0
 10
68.586
 11
68.479
 20
293.586
 21
293.701
  0
LINE
  8
0
 10
68.479
 11
68.382
 20
293.701
 21
293.824
  0
LINE
  8
0
 10
68.382
 11
68.295
 20
293.824
 21
293.955
  0
LINE
  8
0
 10
68.295
 11
68.218
 20
293.955
 21
294.092
  0
LINE
  8
0
 10
68.218
 11
68.152
 20
294.092
 21
294.235
  0
LINE
  8
0
 10
68.152
 11
68.098
 20
294.235
 21
294.382
  0
LINE
  8
0
 10
68.098
 11
68.055
 20
294.382
 21
294.533
  0
LINE
  8
0
 10
68.055
 11
68.025
 20
294.533
 21
294.687
  0
LINE
  8
0
 10
68.025
 11
68.006
 20
294.687
 21
294.843
  0
LINE
  8
0
 10
68.006
 11
68
 20
294.843
 21
295
  0
LINE
  8
0
 10
143.5
 11
143.506
 20
202
 21
202.157
  0
LINE
  8
0
 10
143.506
 11
143.525
 20
202.157
 21
202.313
  0
LINE
  8
0
 10
143.525
 11
143.555
 20
202.313
 21
202.467
  0
LINE
  8
0
 10
143.555
 11
143.598
 20
202.467
 21
202.618
  0
LINE
  8
0
 10
143.598
 11
143.652
 20
202.618
 21
202.765
  0
LINE
  8
0
 10
143.652
 11
143.718
 20
202.765
 21
202.908
  0
LINE
  8
0
 10
143.718
 11
143.795
 20
202.908
 21
203.045
  0
LINE
  8
0
 10
143.795
 11
143.882
 20
203.045
 21
203.176
  0
LINE
  8
0
 10
143.882
 11
143.979
 20
203.176
 21
203.299
  0
LINE
  8
0
 10
143.979
 11
144.086
 20
203.299
 21
203.414
  0
LINE
  8
0
 10
144.086
 11
144.201
 20
203.414
 21
203.521
  0
LINE
  8
0
 10
144.201
 11
144.324
 20
203.521
 21
203.618
  0
LINE
  8
0
 10
144.324
 11
144.455
 20
203.618
 21
203.705
  0
LINE
  8
0
 10
144.455
 11
144.592
 20
203.705
 21
203.782
  0
LINE
  8
0
 10
144.592
 11
144.735
 20
203.782
 21
203.848
  0
LINE
  8
0
 10
144.735
 11
144.882
 20
203.848
 21
203.902
  0
LINE
  8
0
 10
144.882
 11
145.033
 20
203.902
 21
203.945
  0
LINE
  8
0
 10
145.033
 11
145.187
 20
203.945
 21
203.975
  0
LINE
  8
0
 10
145.187
 11
145.343
 20
203.975
 21
203.994
  0
LINE
  8
0
 10
145.343
 11
145.5
 20
203.994
 21
204
  0
LINE
  8
0
 10
145.5
 11
145.657
 20
204
 21
203.994
  0
LINE
  8
0
 10
145.657
 11
145.813
 20
203.994
 21
203.975
  0
LINE
  8
0
 10
145.813
 11
145.967
 20
203.975
 21
203.945
  0
LINE
  8
0
 10
145.967
 11
146.118
 20
203.945
 21
203.902
  0
LINE
  8
0
 10
146.118
 11
146.265
 20
203.902
 21
203.848
  0
LINE
  8
0
 10
146.265
 11
146.408
 20
203.848
 21
203.782
  0
LINE
  8
0
 10
146.408
 11
146.545
 20
203.782
 21
203.705
  0
LINE
  8
0
 10
146.545
 11
146.676
 20
203.705
 21
203.618
  0
LINE
  8
0
 10
146.676
 11
146.799
 20
203.618
 21
203.521
  0
LINE
  8
0
 10
146.799
 11
146.914
 20
203.521
 21
203.414
  0
LINE
  8
0
 10
146.914
 11
147.021
 20
203.414
 21
203.299
  0
LINE
  8
0
 10
147.021
 11
147.118
 20
203.299
 21
203.176
  0
LINE
  8
0
 10
147.118
 11
147.205
 20
203.176
 21
203.045
  0
LINE
  8
0
 10
147.205
 11
147.282
 20
203.045
 21
202.908
  0
LINE
  8
0
 10
147.282
 11
147.348
 20
202.908
 21
202.765
  0
LINE
  8
0
 10
147.348
 11
147.402
 20
202.765
 21
202.618
  0
LINE
  8
0
 10
147.402
 11
147.445
 20
202.618
 21
202.467
  0
LINE
  8
0
 10
147.445
 11
147.475
 20
202.467
 21
202.313
  0
LINE
  8
0
 10
147.475
 11
147.494
 20
202.313
 21
202.157
  0
LINE
  8
0
 10
147.494
 11
147.5
 20
202.157
 21
202
  0
LINE
  8
0
 10
147.5
 11
147.494
 20
202
 21
201.843
  0
LINE
  8
0
 10
147.494
 11
147.475
 20
201.843
 21
201.687
  0
LINE
  8
0
 10
147.475
 11
147.445
 20
201.687
 21
201.533
  0
LINE
  8
0
 10
147.445
 11
147.402
 20
201.533
 21
201.382
  0
LINE
  8
0
 10
147.402
 11
147.348
 20
201.382
 21
201.235
  0
LINE
  8
0
 10
147.348
 11
147.282
 20
201.235
 21
201.092
  0
LINE
  8
0
 10
147.282
 11
147.205
 20
201.092
 21
200.955
  0
LINE
  8
0
 10
147.205
 11
147.118
 20
200.955
 21
200.824
  0
LINE
  8
0
 10
147.118
 11
147.021
 20
200.824
 21
200.701
  0
LINE
  8
0
 10
147.021
 11
146.914
 20
200.701
 21
200.586
  0
LINE
  8
0
 10
146.914
 11
146.799
 20
200.586
 21
200.479
  0
LINE
  8
0
 10
146.799
 11
146.676
 20
200.479
 21
200.382
  0
LINE
  8
0
 10
146.676
 11
146.545
 20
200.382
 21
200.295
  0
LINE
  8
0
 10
146.545
 11
146.408
 20
200.295
 21
200.218
  0
LINE
  8
0
 10
146.408
 11
146.265
 20
200.218
 21
200.152
  0
LINE
  8
0
 10
146.265
 11
146.118
 20
200.152
 21
200.098
  0
LINE
  8
0
 10
146.118
 11
145.967
 20
200.098
 21
200.055
  0
LINE
  8
0
 10
145.967
 11
145.813
 20
200.055
 21
200.025
  0
LINE
  8
0
 10
145.813
 11
145.657
 20
200.025
 21
200.006
  0
LINE
  8
0
 10
145.657
 11
145.5
 20
200.006
 21
200
  0
LINE
  8
0
 10
145.5
 11
145.343
 20
200
 21
200.006
  0
LINE
  8
0
 10
145.343
 11
145.187
 20
200.006
 21
200.025
  0
LINE
  8
0
 10
145.187
 11
145.033
 20
200.025
 21
200.055
  0
LINE
  8
0
 10
145.033
 11
144.882
 20
200.055
 21
200.098
  0
LINE
  8
0
 10
144.882
 11
144.735
 20
200.098
 21
200.152
  0
LINE
  8
0
 10
144.735
 11
144.592
 20
200.152
 21
200.218
  0
LINE
  8
0
 10
144.592
 11
144.455
 20
200.218
 21
200.295
  0
LINE
  8
0
 10
144.455
 11
144.324
 20
200.295
 21
200.382
  0
LINE
  8
0
 10
144.324
 11
144.201
 20
200.382
 21
200.479
  0
LINE
  8
0
 10
144.201
 11
144.086
 20
200.479
 21
200.586
  0
LINE
  8
0
 10
144.086
 11
143.979
 20
200.586
 21
200.701
  0
LINE
  8
0
 10
143.979
 11
143.882
 20
200.701
 21
200.824
  0
LINE
  8
0
 10
143.882
 11
143.795
 20
200.824
 21
200.955
  0
LINE
  8
0
 10
143.795
 11
143.718
 20
200.955
 21
201.092
  0
LINE
  8
0
 10
143.718
 11
143.652
 20
201.092
 21
201.235
  0
LINE
  8
0
 10
143.652
 11
143.598
 20
201.235
 21
201.382
  0
LINE
  8
0
 10
143.598
 11
143.555
 20
201.382
 21
201.533
  0
LINE
  8
0
 10
143.555
 11
143.525
 20
201.533
 21
201.687
  0
LINE
  8
0
 10
143.525
 11
143.506
 20
201.687
 21
201.843
  0
LINE
  8
0
 10
143.506
 11
143.5
 20
201.843
 21
202
  0
LINE
  8
0
 10
152
 11
152
 20
170
 21
260
  0
LINE
  8
0
 10
152
 11
230
 20
260
 21
260
  0
LINE
  8
0
 10
230
 11
230
 20
260
 21
170
  0
LINE
  8
0
 10
230
 11
152
 20
170
 21
170
  0
LINE
  8
0
 10
272.5
 11
272.506
 20
202
 21
202.157
  0
LINE
  8
0
 10
272.506
 11
272.525
 20
202.157
 21
202.313
  0
LINE
  8
0
 10
272.525
 11
272.555
 20
202.313
 21
202.467
  0
LINE
  8
0
 10
272.555
 11
272.598
 20
202.467
 21
202.618
  0
LINE
  8
0
 10
272.598
 11
272.652
 20
202.618
 21
202.765
  0
LINE
  8
0
 10
272.652
 11
272.718
 20
202.765
 21
202.908
  0
LINE
  8
0
 10
272.718
 11
272.795
 20
202.908
 21
203.045
  0
LINE
  8
0
 10
272.795
 11
272.882
 20
203.045
 21
203.176
  0
LINE
  8
0
 10
272.882
 11
272.979
 20
203.176
 21
203.299
  0
LINE
  8
0
 10
272.979
 11
273.086
 20
203.299
 21
203.414
  0
LINE
  8
0
 10
273.086
 11
273.201
 20
203.414
 21
203.521
  0
LINE
  8
0
 10
273.201
 11
273.324
 20
203.521
 21
203.618
  0
LINE
  8
0
 10
273.324
 11
273.455
 20
203.618
 21
203.705
  0
LINE
  8
0
 10
273.455
 11
273.592
 20
203.705
 21
203.782
  0
LINE
  8
0
 10
273.592
 11
273.735
 20
203.782
 21
203.848
  0
LINE
  8
0
 10
273.735
 11
273.882
 20
203.848
 21
203.902
  0
LINE
  8
0
 10
273.882
 11
274.033
 20
203.902
 21
203.945
  0
LINE
  8
0
 10
274.033
 11
274.187
 20
203.945
 21
203.975
  0
LINE
  8
0
 10
274.187
 11
274.343
 20
203.975
 21
203.994
  0
LINE
  8
0
 10
274.343
 11
274.5
 20
203.994
 21
204
  0
LINE
  8
0
 10
274.5
 11
274.657
 20
204
 21
203.994
  0
LINE
  8
0
 10
274.657
 11
274.813
 20
203.994
 21
203.975
  0
LINE
  8
0
 10
274.813
 11
274.967
 20
203.975
 21
203.945
  0
LINE
  8
0
 10
274.967
 11
275.118
 20
203.945
 21
203.902
  0
LINE
  8
0
 10
275.118
 11
275.265
 20
203.902
 21
203.848
  0
LINE
  8
0
 10
275.265
 11
275.408
 20
203.848
 21
203.782
  0
LINE
  8
0
 10
275.408
 11
275.545
 20
203.782
 21
203.705
  0
LINE
  8
0
 10
275.545
 11
275.676
 20
203.705
 21
203.618
  0
LINE
  8
0
 10
275.676
 11
275.799
 20
203.618
 21
203.521
  0
LINE
  8
0
 10
275.799
 11
275.914
 20
203.521
 21
203.414
  0
LINE
  8
0
 10
275.914
 11
276.021
 20
203.414
 21
203.299
  0
LINE
  8
0
 10
276.021
 11
276.118
 20
203.299
 21
203.176
  0
LINE
  8
0
 10
276.118
 11
276.205
 20
203.176
 21
203.045
  0
LINE
  8
0
 10
276.205
 11
276.282
 20
203.045
 21
202.908
  0
LINE
  8
0
 10
276.282
 11
276.348
 20
202.908
 21
202.765
  0
LINE
  8
0
 10
276.348
 11
276.402
 20
202.765
 21
202.618
  0
LINE
  8
0
 10
276.402
 11
276.445
 20
202.618
 21
202.467
  0
LINE
  8
0
 10
276.445
 11
276.475
 20
202.467
 21
202.313
  0
LINE
  8
0
 10
276.475
 11
276.494
 20
202.313
 21
202.157
  0
LINE
  8
0
 10
276.494
 11
276.5
 20
202.157
 21
202
  0
LINE
  8
0
 10
276.5
 11
276.494
 20
202
 21
201.843
  0
LINE
  8
0
 10
276.494
 11
276.475
 20
201.843
 21
201.687
  0
LINE
  8
0
 10
276.475
 11
276.445
 20
201.687
 21
201.533
  0
LINE
  8
0
 10
276.445
 11
276.402
 20
201.533
 21
201.382
  0
LINE
  8
0
 10
276.402
 11
276.348
 20
201.382
 21
201.235
  0
LINE
  8
0
 10
276.348
 11
276.282
 20
201.235
 21
201.092
  0
LINE
  8
0
 10
276.282
 11
276.205
 20
201.092
 21
200.955
  0
LINE
  8
0
 10
276.205
 11
276.118
 20
200.955
 21
200.824
  0
LINE
  8
0
 10
276.118
 11
276.021
 20
200.824
 21
200.701
  0
LINE
  8
0
 10
276.021
 11
275.914
 20
200.701
 21
200.586
  0
LINE
  8
0
 10
275.914
 11
275.799
 20
200.586
 21
200.479
  0
LINE
  8
0
 10
275.799
 11
275.676
 20
200.479
 21
200.382
  0
LINE
  8
0
 10
275.676
 11
275.545
 20
200.382
 21
200.295
  0
LINE
  8
0
 10
275.545
 11
275.408
 20
200.295
 21
200.218
  0
LINE
  8
0
 10
275.408
 11
275.265
 20
200.218
 21
200.152
  0
LINE
  8
0
 10
275.265
 11
275.118
 20
200.152
 21
200.098
  0
LINE
  8
0
 10
275.118
 11
274.967
 20
200.098
 21
200.055
  0
LINE
  8
0
 10
274.967
 11
274.813
 20
200.055
 21
200.025
  0
LINE
  8
0
 10
274.813
 11
274.657
 20
200.025
 21
200.006
  0
LINE
  8
0
 10
274.657
 11
274.5
 20
200.006
 21
200
  0
LINE
  8
0
 10
274.5
 11
274.343
 20
200
 21
200.006
  0
LINE
  8
0
 10
274.343
 11
274.187
 20
200.006
 21
200.025
  0
LINE
  8
0
 10
274.187
 11
274.033
 20
200.025
 21
200.055
  0
LINE
  8
0
 10
274.033
 11
273.882
 20
200.055
 21
200.098
  0
LINE
  8
0
 10
273.882
 11
273.735
 20
200.098
 21
200.152
  0
LINE
  8
0
 10
273.735
 11
273.592
 20
200.152
 21
200.218
  0
LINE
  8
0
 10
273.592
 11
273.455
 20
200.218
 21
200.295
  0
LINE
  8
0
 10
273.455
 11
273.324
 20
200.295
 21
200.382
  0
LINE
  8
0
 10
273.324
 11
273.201
 20
200.382
 21
200.479
  0
LINE
  8
0
 10
273.201
 11
273.086
 20
200.479
 21
200.586
  0
LINE
  8
0
 10
273.086
 11
272.979
 20
200.586
 21
200.701
  0
LINE
  8
0
 10
272.979
 11
272.882
 20
200.701
 21
200.824
  0
LINE
  8
0
 10
272.882
 11
272.795
 20
200.824
 21
200.955
  0
LINE
  8
0
 10
272.795
 11
272.718
 20
200.955
 21
201.092
  0
LINE
  8
0
 10
272.718
 11
272.652
 20
201.092
 21
201.235
  0
LINE
  8
0
 10
272.652
 11
272.598
 20
201.235
 21
201.382
  0
LINE
  8
0
 10
272.598
 11
272.555
 20
201.382
 21
201.533
  0
LINE
  8
0
 10
272.555
 11
272.525
 20
201.533
 21
201.687
  0
LINE
  8
0
 10
272.525
 11
272.506
 20
201.687
 21
201.843
  0
LINE
  8
0
 10
272.506
 11
272.5
 20
201.843
 21
202
  0
LINE
  8
0
 10
348
 11
348.006
 20
295
 21
295.157
  0
LINE
  8
0
 10
348.006
 11
348.025
 20
295.157
 21
295.313
  0
LINE
  8
0
 10
348.025
 11
348.055
 20
295.313
 21
295.467
  0
LINE
  8
0
 10
348.055
 11
348.098
 20
295.467
 21
295.618
  0
LINE
  8
0
 10
348.098
 11
348.152
 20
295.618
 21
295.765
  0
LINE
  8
0
 10
348.152
 11
348.218
 20
295.765
 21
295.908
  0
LINE
  8
0
 10
348.218
 11
348.295
 20
295.908
 21
296.045
  0
LINE
  8
0
 10
348.295
 11
348.382
 20
296.045
 21
296.176
  0
LINE
  8
0
 10
348.382
 11
348.479
 20
296.176
 21
296.299
  0
LINE
  8
0
 10
348.479
 11
348.586
 20
296.299
 21
296.414
  0
LINE
  8
0
 10
348.586
 11
348.701
 20
296.414
 21
296.521
  0
LINE
  8
0
 10
348.701
 11
348.824
 20
296.521
 21
296.618
  0
LINE
  8
0
 10
348.824
 11
348.955
 20
296.618
 21
296.705
  0
LINE
  8
0
 10
348.955
 11
349.092
 20
296.705
 21
296.782
  0
LINE
  8
0
 10
349.092
 11
349.235
 20
296.782
 21
296.848
  0
LINE
  8
0
 10
349.235
 11
349.382
 20
296.848
 21
296.902
  0
LINE
  8
0
 10
349.382
 11
349.533
 20
296.902
 21
296.945
  0
LINE
  8
0
 10
349.533
 11
349.687
 20
296.945
 21
296.975
  0
LINE
  8
0
 10
349.687
 11
349.843
 20
296.975
 21
296.994
  0
LINE
  8
0
 10
349.843
 11
350
 20
296.994
 21
297
  0
LINE
  8
0
 10
350
 11
350.157
 20
297
 21
296.994
  0
LINE
  8
0
 10
350.157
 11
350.313
 20
296.994
 21
296.975
  0
LINE
  8
0
 10
350.313
 11
350.467
 20
296.975
 21
296.945
  0
LINE
  8
0
 10
350.467
 11
350.618
 20
296.945
 21
296.902
  0
LINE
  8
0
 10
350.618
 11
350.765
 20
296.902
 21
296.848
  0
LINE
  8
0
 10
350.765
 11
350.908
 20
296.848
 21
296.782
  0
LINE
  8
0
 10
350.908
 11
351.045
 20
296.782
 21
296.705
  0
LINE
  8
0
 10
351.045
 11
351.176
 20
296.705
 21
296.618
  0
LINE
  8
0
 10
351.176
 11
351.299
 20
296.618
 21
296.521
  0
LINE
  8
0
 10
351.299
 11
351.414
 20
296.521
 21
296.414
  0
LINE
  8
0
 10
351.414
 11
351.521
 20
296.414
 21
296.299
  0
LINE
  8
0
 10
351.521
 11
351.618
 20
296.299
 21
296.176
  0
LINE
  8
0
 10
351.618
 11
351.705
 20
296.176
 21
296.045
  0
LINE
  8
0
 10
351.705
 11
351.782
 20
296.045
 21
295.908
  0
LINE
  8
0
 10
351.782
 11
351.848
 20
295.908
 21
295.765
  0
LINE
  8
0
 10
351.848
 11
351.902
 20
295.765
 21
295.618
  0
LINE
  8
0
 10
351.902
 11
351.945
 20
295.618
 21
295.467
  0
LINE
  8
0
 10
351.945
 11
351.975
 20
295.467
 21
295.313
  0
LINE
  8
0
 10
351.975
 11
351.994
 20
295.313
 21
295.157
  0
LINE
  8
0
 10
351.994
 11
352
 20
295.157
 21
295
  0
LINE
  8
0
 10
352
 11
351.994
 20
295
 21
294.843
  0
LINE
  8
0
 10
351.994
 11
351.975
 20
294.843
 21
294.687
  0
LINE
  8
0
 10
351.975
 11
351.945
 20
294.687
 21
294.533
  0
LINE
  8
0
 10
351.945
 11
351.902
 20
294.533
 21
294.382
  0
LINE
  8
0
 10
351.902
 11
351.848
 20
294.382
 21
294.235
  0
LINE
  8
0
 10
351.848
 11
351.782
 20
294.235
 21
294.092
  0
LINE
  8
0
 10
351.782
 11
351.705
 20
294.092
 21
293.955
  0
LINE
  8
0
 10
351.705
 11
351.618
 20
293.955
 21
293.824
  0
LINE
  8
0
 10
351.618
 11
351.521
 20
293.824
 21
293.701
  0
LINE
  8
0
 10
351.521
 11
351.414
 20
293.701
 21
293.586
  0
LINE
  8
0
 10
351.414
 11
351.299
 20
293.586
 21
293.479
  0
LINE
  8
0
 10
351.299
 11
351.176
 20
293.479
 21
293.382
  0
LINE
  8
0
 10
351.176
 11
351.045
 20
293.382
 21
293.295
  0
LINE
  8
0
 10
351.045
 11
350.908
 20
293.295
 21
293.218
  0
LINE
  8
0
 10
350.908
 11
350.765
 20
293.218
 21
293.152
  0
LINE
  8
0
 10
350.765
 11
350.618
 20
293.152
 21
293.098
  0
LINE
  8
0
 10
350.618
 11
350.467
 20
293.098
 21
293.055
  0
LINE
  8
0
 10
350.467
 11
350.313
 20
293.055
 21
293.025
  0
LINE
  8
0
 10
350.313
 11
350.157
 20
293.025
 21
293.006
  0
LINE
  8
0
 10
350.157
 11
350
 20
293.006
 21
293
  0
LINE
  8
0
 10
350
 11
349.843
 20
293
 21
293.006
  0
LINE
  8
0
 10
349.843
 11
349.687
 20
293.006
 21
293.025
  0
LINE
  8
0
 10
349.687
 11
349.533
 20
293.025
 21
293.055
  0
LINE
  8
0
 10
349.533
 11
349.382
 20
293.055
 21
293.098
  0
LINE
  8
0
 10
349.382
 11
349.235
 20
293.098
 21
293.152
  0
LINE
  8
0
 10
349.235
 11
349.092
 20
293.152
 21
293.218
  0
LINE
  8
0
 10
349.092
 11
348.955
 20
293.218
 21
293.295
  0
LINE
  8
0
 10
348.955
 11
348.824
 20
293.295
 21
293.382
  0
LINE
  8
0
 10
348.824
 11
348.701
 20
293.382
 21
293.479
  0
LINE
  8
0
 10
348.701
 11
348.586
 20
293.479
 21
293.586
  0
LINE
  8
0
 10
348.586
 11
348.479
 20
293.586
 21
293.701
  0
LINE
  8
0
 10
348.479
 11
348.382
 20
293.701
 21
293.824
  0
LINE
  8
0
 10
348.382
 11
348.295
 20
293.824
 21
293.955
  0
LINE
  8
0
 10
348.295
 11
348.218
 20
293.955
 21
294.092
  0
LINE
  8
0
 10
348.218
 11
348.152
 20
294.092
 21
294.235
  0
LINE
  8
0
 10
348.152
 11
348.098
 20
294.235
 21
294.382
  0
LINE
  8
0
 10
348.098
 11
348.055
 20
294.382
 21
294.533
  0
LINE
  8
0
 10
348.055
 11
348.025
 20
294.533
 21
294.687
  0
LINE
  8
0
 10
348.025
 11
348.006
 20
294.687
 21
294.843
  0
LINE
  8
0
 10
348.006
 11
348
 20
294.843
 21
295
  0
ENDSEC
  0
SECTION
  2
OBJECTS
  0
DICTIONARY
  0
ENDSEC
  0
EOF
