  0
SECTION
  2
BLOCKS
  0
ENDSEC
  0
SECTION
  2
ENTITIES
  0
LINE
  8
0
 10
-168.995
 11
-168.995
 20
-70
 21
-50
  0
LINE
  8
0
 10
-168.995
 11
-93.994
 20
-50
 21
-50
  0
LINE
  8
0
 10
-93.994
 11
-93.994
 20
-50
 21
50
  0
LINE
  8
0
 10
-93.994
 11
-168.995
 20
50
 21
50
  0
LINE
  8
0
 10
-168.995
 11
-168.995
 20
50
 21
70
  0
LINE
  8
0
 10
-168.995
 11
-70
 20
70
 21
168.995
  0
LINE
  8
0
 10
-70
 11
70
 20
168.995
 21
168.995
  0
LINE
  8
0
 10
70
 11
168.994
 20
168.995
 21
70
  0
LINE
  8
0
 10
168.994
 11
164.599
 20
70
 21
69.862
  0
LINE
  8
0
 10
164.599
 11
160.221
 20
69.862
 21
69.448
  0
LINE
  8
0
 10
160.221
 11
155.877
 20
69.448
 21
68.76
  0
LINE
  8
0
 10
155.877
 11
151.586
 20
68.76
 21
67.801
  0
LINE
  8
0
 10
151.586
 11
147.363
 20
67.801
 21
66.574
  0
LINE
  8
0
 10
147.363
 11
143.225
 20
66.574
 21
65.084
  0
LINE
  8
0
 10
143.225
 11
139.189
 20
65.084
 21
63.338
  0
LINE
  8
0
 10
139.189
 11
135.271
 20
63.338
 21
61.341
  0
LINE
  8
0
 10
135.271
 11
131.486
 20
61.341
 21
59.103
  0
LINE
  8
0
 10
131.486
 11
127.849
 20
59.103
 21
56.631
  0
LINE
  8
0
 10
127.849
 11
124.374
 20
56.631
 21
53.936
  0
LINE
  8
0
 10
124.374
 11
121.076
 20
53.936
 21
51.028
  0
LINE
  8
0
 10
121.076
 11
117.966
 20
51.028
 21
47.918
  0
LINE
  8
0
 10
117.966
 11
115.058
 20
47.918
 21
44.62
  0
LINE
  8
0
 10
115.058
 11
112.363
 20
44.62
 21
41.145
  0
LINE
  8
0
 10
112.363
 11
109.891
 20
41.145
 21
37.508
  0
LINE
  8
0
 10
109.891
 11
107.653
 20
37.508
 21
33.723
  0
LINE
  8
0
 10
107.653
 11
105.656
 20
33.723
 21
29.805
  0
LINE
  8
0
 10
105.656
 11
103.91
 20
29.805
 21
25.769
  0
LINE
  8
0
 10
103.91
 11
102.42
 20
25.769
 21
21.631
  0
LINE
  8
0
 10
102.42
 11
101.193
 20
21.631
 21
17.408
  0
LINE
  8
0
 10
101.193
 11
100.234
 20
17.408
 21
13.117
  0
LINE
  8
0
 10
100.234
 11
99.546
 20
13.117
 21
8.773
  0
LINE
  8
0
 10
99.546
 11
99.132
 20
8.773
 21
4.395
  0
LINE
  8
0
 10
99.132
 11
98.994
 20
4.395
 21
0
  0
LINE
  8
0
 10
98.994
 11
99.132
 20
0
 21
-4.395
  0
LINE
  8
0
 10
99.132
 11
99.546
 20
-4.395
 21
-8.773
  0
LINE
  8
0
 10
99.546
 11
100.234
 20
-8.773
 21
-13.117
  0
LINE
  8
0
 10
100.234
 11
101.193
 20
-13.117
 21
-17.408
  0
LINE
  8
0
 10
101.193
 11
102.42
 20
-17.408
 21
-21.631
  0
LINE
  8
0
 10
102.42
 11
103.91
 20
-21.631
 21
-25.769
  0
LINE
  8
0
 10
103.91
 11
105.656
 20
-25.769
 21
-29.805
  0
LINE
  8
0
 10
105.656
 11
107.653
 20
-29.805
 21
-33.723
  0
LINE
  8
0
 10
107.653
 11
109.891
 20
-33.723
 21
-37.508
  0
LINE
  8
0
 10
109.891
 11
112.363
 20
-37.508
 21
-41.145
  0
LINE
  8
0
 10
112.363
 11
115.058
 20
-41.145
 21
-44.62
  0
LINE
  8
0
 10
115.058
 11
117.966
 20
-44.62
 21
-47.918
  0
LINE
  8
0
 10
117.966
 11
121.076
 20
-47.918
 21
-51.028
  0
LINE
  8
0
 10
121.076
 11
124.374
 20
-51.028
 21
-53.936
  0
LINE
  8
0
 10
124.374
 11
127.849
 20
-53.936
 21
-56.631
  0
LINE
  8
0
 10
127.849
 11
131.486
 20
-56.631
 21
-59.103
  0
LINE
  8
0
 10
131.486
 11
135.271
 20
-59.103
 21
-61.341
  0
LINE
  8
0
 10
135.271
 11
139.189
 20
-61.341
 21
-63.338
  0
LINE
  8
0
 10
139.189
 11
143.225
 20
-63.338
 21
-65.084
  0
LINE
  8
0
 10
143.225
 11
147.363
 20
-65.084
 21
-66.574
  0
LINE
  8
0
 10
147.363
 11
151.586
 20
-66.574
 21
-67.801
  0
LINE
  8
0
 10
151.586
 11
155.877
 20
-67.801
 21
-68.76
  0
LINE
  8
0
 10
155.877
 11
160.221
 20
-68.76
 21
-69.448
  0
LINE
  8
0
 10
160.221
 11
164.599
 20
-69.448
 21
-69.862
  0
LINE
  8
0
 10
164.599
 11
168.995
 20
-69.862
 21
-70
  0
LINE
  8
0
 10
168.995
 11
70
 20
-70
 21
-168.995
  0
LINE
  8
0
 10
70
 11
-70
 20
-168.995
 21
-168.995
  0
LINE
  8
0
 10
-70
 11
-168.995
 20
-168.995
 21
-70
  0
LINE
  8
0
 10
-61.5
 11
-61.496
 20
-158.494
 21
-158.368
  0
LINE
  8
0
 10
-61.496
 11
-61.484
 20
-158.368
 21
-158.243
  0
LINE
  8
0
 10
-61.484
 11
-61.465
 20
-158.243
 21
-158.119
  0
LINE
  8
0
 10
-61.465
 11
-61.437
 20
-158.119
 21
-157.997
  0
LINE
  8
0
 10
-61.437
 11
-61.402
 20
-157.997
 21
-157.876
  0
LINE
  8
0
 10
-61.402
 11
-61.36
 20
-157.876
 21
-157.758
  0
LINE
  8
0
 10
-61.36
 11
-61.31
 20
-157.758
 21
-157.642
  0
LINE
  8
0
 10
-61.31
 11
-61.253
 20
-157.642
 21
-157.53
  0
LINE
  8
0
 10
-61.253
 11
-61.189
 20
-157.53
 21
-157.422
  0
LINE
  8
0
 10
-61.189
 11
-61.118
 20
-157.422
 21
-157.318
  0
LINE
  8
0
 10
-61.118
 11
-61.041
 20
-157.318
 21
-157.219
  0
LINE
  8
0
 10
-61.041
 11
-60.958
 20
-157.219
 21
-157.125
  0
LINE
  8
0
 10
-60.958
 11
-60.869
 20
-157.125
 21
-157.036
  0
LINE
  8
0
 10
-60.869
 11
-60.775
 20
-157.036
 21
-156.953
  0
LINE
  8
0
 10
-60.775
 11
-60.676
 20
-156.953
 21
-156.876
  0
LINE
  8
0
 10
-60.676
 11
-60.572
 20
-156.876
 21
-156.805
  0
LINE
  8
0
 10
-60.572
 11
-60.464
 20
-156.805
 21
-156.741
  0
LINE
  8
0
 10
-60.464
 11
-60.352
 20
-156.741
 21
-156.684
  0
LINE
  8
0
 10
-60.352
 11
-60.236
 20
-156.684
 21
-156.634
  0
LINE
  8
0
 10
-60.236
 11
-60.118
 20
-156.634
 21
-156.592
  0
LINE
  8
0
 10
-60.118
 11
-59.997
 20
-156.592
 21
-156.557
  0
LINE
  8
0
 10
-59.997
 11
-59.875
 20
-156.557
 21
-156.529
  0
LINE
  8
0
 10
-59.875
 11
-59.751
 20
-156.529
 21
-156.51
  0
LINE
  8
0
 10
-59.751
 11
-59.626
 20
-156.51
 21
-156.498
  0
LINE
  8
0
 10
-59.626
 11
-59.5
 20
-156.498
 21
-156.494
  0
LINE
  8
0
 10
-59.5
 11
-59.374
 20
-156.494
 21
-156.498
  0
LINE
  8
0
 10
-59.374
 11
-59.249
 20
-156.498
 21
-156.51
  0
LINE
  8
0
 10
-59.249
 11
-59.125
 20
-156.51
 21
-156.529
  0
LINE
  8
0
 10
-59.125
 11
-59.003
 20
-156.529
 21
-156.557
  0
LINE
  8
0
 10
-59.003
 11
-58.882
 20
-156.557
 21
-156.592
  0
LINE
  8
0
 10
-58.882
 11
-58.764
 20
-156.592
 21
-156.634
  0
LINE
  8
0
 10
-58.764
 11
-58.648
 20
-156.634
 21
-156.684
  0
LINE
  8
0
 10
-58.648
 11
-58.536
 20
-156.684
 21
-156.741
  0
LINE
  8
0
 10
-58.536
 11
-58.428
 20
-156.741
 21
-156.805
  0
LINE
  8
0
 10
-58.428
 11
-58.324
 20
-156.805
 21
-156.876
  0
LINE
  8
0
 10
-58.324
 11
-58.225
 20
-156.876
 21
-156.953
  0
LINE
  8
0
 10
-58.225
 11
-58.131
 20
-156.953
 21
-157.036
  0
LINE
  8
0
 10
-58.131
 11
-58.042
 20
-157.036
 21
-157.125
  0
LINE
  8
0
 10
-58.042
 11
-57.959
 20
-157.125
 21
-157.219
  0
LINE
  8
0
 10
-57.959
 11
-57.882
 20
-157.219
 21
-157.318
  0
LINE
  8
0
 10
-57.882
 11
-57.811
 20
-157.318
 21
-157.422
  0
LINE
  8
0
 10
-57.811
 11
-57.747
 20
-157.422
 21
-157.53
  0
LINE
  8
0
 10
-57.747
 11
-57.69
 20
-157.53
 21
-157.642
  0
LINE
  8
0
 10
-57.69
 11
-57.64
 20
-157.642
 21
-157.758
  0
LINE
  8
0
 10
-57.64
 11
-57.598
 20
-157.758
 21
-157.876
  0
LINE
  8
0
 10
-57.598
 11
-57.563
 20
-157.876
 21
-157.997
  0
LINE
  8
0
 10
-57.563
 11
-57.535
 20
-157.997
 21
-158.119
  0
LINE
  8
0
 10
-57.535
 11
-57.516
 20
-158.119
 21
-158.243
  0
LINE
  8
0
 10
-57.516
 11
-57.504
 20
-158.243
 21
-158.368
  0
LINE
  8
0
 10
-57.504
 11
-57.5
 20
-158.368
 21
-158.494
  0
LINE
  8
0
 10
-57.5
 11
-57.504
 20
-158.494
 21
-158.62
  0
LINE
  8
0
 10
-57.504
 11
-57.516
 20
-158.62
 21
-158.745
  0
LINE
  8
0
 10
-57.516
 11
-57.535
 20
-158.745
 21
-158.869
  0
LINE
  8
0
 10
-57.535
 11
-57.563
 20
-158.869
 21
-158.991
  0
LINE
  8
0
 10
-57.563
 11
-57.598
 20
-158.991
 21
-159.112
  0
LINE
  8
0
 10
-57.598
 11
-57.64
 20
-159.112
 21
-159.23
  0
LINE
  8
0
 10
-57.64
 11
-57.69
 20
-159.23
 21
-159.346
  0
LINE
  8
0
 10
-57.69
 11
-57.747
 20
-159.346
 21
-159.458
  0
LINE
  8
0
 10
-57.747
 11
-57.811
 20
-159.458
 21
-159.566
  0
LINE
  8
0
 10
-57.811
 11
-57.882
 20
-159.566
 21
-159.67
  0
LINE
  8
0
 10
-57.882
 11
-57.959
 20
-159.67
 21
-159.769
  0
LINE
  8
0
 10
-57.959
 11
-58.042
 20
-159.769
 21
-159.863
  0
LINE
  8
0
 10
-58.042
 11
-58.131
 20
-159.863
 21
-159.952
  0
LINE
  8
0
 10
-58.131
 11
-58.225
 20
-159.952
 21
-160.035
  0
LINE
  8
0
 10
-58.225
 11
-58.324
 20
-160.035
 21
-160.112
  0
LINE
  8
0
 10
-58.324
 11
-58.428
 20
-160.112
 21
-160.183
  0
LINE
  8
0
 10
-58.428
 11
-58.536
 20
-160.183
 21
-160.247
  0
LINE
  8
0
 10
-58.536
 11
-58.648
 20
-160.247
 21
-160.304
  0
LINE
  8
0
 10
-58.648
 11
-58.764
 20
-160.304
 21
-160.354
  0
LINE
  8
0
 10
-58.764
 11
-58.882
 20
-160.354
 21
-160.396
  0
LINE
  8
0
 10
-58.882
 11
-59.003
 20
-160.396
 21
-160.431
  0
LINE
  8
0
 10
-59.003
 11
-59.125
 20
-160.431
 21
-160.459
  0
LINE
  8
0
 10
-59.125
 11
-59.249
 20
-160.459
 21
-160.478
  0
LINE
  8
0
 10
-59.249
 11
-59.374
 20
-160.478
 21
-160.49
  0
LINE
  8
0
 10
-59.374
 11
-59.5
 20
-160.49
 21
-160.494
  0
LINE
  8
0
 10
-59.5
 11
-59.626
 20
-160.494
 21
-160.49
  0
LINE
  8
0
 10
-59.626
 11
-59.751
 20
-160.49
 21
-160.478
  0
LINE
  8
0
 10
-59.751
 11
-59.875
 20
-160.478
 21
-160.459
  0
LINE
  8
0
 10
-59.875
 11
-59.997
 20
-160.459
 21
-160.431
  0
LINE
  8
0
 10
-59.997
 11
-60.118
 20
-160.431
 21
-160.396
  0
LINE
  8
0
 10
-60.118
 11
-60.236
 20
-160.396
 21
-160.354
  0
LINE
  8
0
 10
-60.236
 11
-60.352
 20
-160.354
 21
-160.304
  0
LINE
  8
0
 10
-60.352
 11
-60.464
 20
-160.304
 21
-160.247
  0
LINE
  8
0
 10
-60.464
 11
-60.572
 20
-160.247
 21
-160.183
  0
LINE
  8
0
 10
-60.572
 11
-60.676
 20
-160.183
 21
-160.112
  0
LINE
  8
0
 10
-60.676
 11
-60.775
 20
-160.112
 21
-160.035
  0
LINE
  8
0
 10
-60.775
 11
-60.869
 20
-160.035
 21
-159.952
  0
LINE
  8
0
 10
-60.869
 11
-60.958
 20
-159.952
 21
-159.863
  0
LINE
  8
0
 10
-60.958
 11
-61.041
 20
-159.863
 21
-159.769
  0
LINE
  8
0
 10
-61.041
 11
-61.118
 20
-159.769
 21
-159.67
  0
LINE
  8
0
 10
-61.118
 11
-61.189
 20
-159.67
 21
-159.566
  0
LINE
  8
0
 10
-61.189
 11
-61.253
 20
-159.566
 21
-159.458
  0
LINE
  8
0
 10
-61.253
 11
-61.31
 20
-159.458
 21
-159.346
  0
LINE
  8
0
 10
-61.31
 11
-61.36
 20
-159.346
 21
-159.23
  0
LINE
  8
0
 10
-61.36
 11
-61.402
 20
-159.23
 21
-159.112
  0
LINE
  8
0
 10
-61.402
 11
-61.437
 20
-159.112
 21
-158.991
  0
LINE
  8
0
 10
-61.437
 11
-61.465
 20
-158.991
 21
-158.869
  0
LINE
  8
0
 10
-61.465
 11
-61.484
 20
-158.869
 21
-158.745
  0
LINE
  8
0
 10
-61.484
 11
-61.496
 20
-158.745
 21
-158.62
  0
LINE
  8
0
 10
-61.496
 11
-61.5
 20
-158.62
 21
-158.494
  0
LINE
  8
0
 10
-61.5
 11
-61.496
 20
158.494
 21
158.62
  0
LINE
  8
0
 10
-61.496
 11
-61.484
 20
158.62
 21
158.745
  0
LINE
  8
0
 10
-61.484
 11
-61.465
 20
158.745
 21
158.869
  0
LINE
  8
0
 10
-61.465
 11
-61.437
 20
158.869
 21
158.991
  0
LINE
  8
0
 10
-61.437
 11
-61.402
 20
158.991
 21
159.112
  0
LINE
  8
0
 10
-61.402
 11
-61.36
 20
159.112
 21
159.23
  0
LINE
  8
0
 10
-61.36
 11
-61.31
 20
159.23
 21
159.346
  0
LINE
  8
0
 10
-61.31
 11
-61.253
 20
159.346
 21
159.458
  0
LINE
  8
0
 10
-61.253
 11
-61.189
 20
159.458
 21
159.566
  0
LINE
  8
0
 10
-61.189
 11
-61.118
 20
159.566
 21
159.67
  0
LINE
  8
0
 10
-61.118
 11
-61.041
 20
159.67
 21
159.769
  0
LINE
  8
0
 10
-61.041
 11
-60.958
 20
159.769
 21
159.863
  0
LINE
  8
0
 10
-60.958
 11
-60.869
 20
159.863
 21
159.952
  0
LINE
  8
0
 10
-60.869
 11
-60.775
 20
159.952
 21
160.035
  0
LINE
  8
0
 10
-60.775
 11
-60.676
 20
160.035
 21
160.112
  0
LINE
  8
0
 10
-60.676
 11
-60.572
 20
160.112
 21
160.183
  0
LINE
  8
0
 10
-60.572
 11
-60.464
 20
160.183
 21
160.247
  0
LINE
  8
0
 10
-60.464
 11
-60.352
 20
160.247
 21
160.304
  0
LINE
  8
0
 10
-60.352
 11
-60.236
 20
160.304
 21
160.354
  0
LINE
  8
0
 10
-60.236
 11
-60.118
 20
160.354
 21
160.396
  0
LINE
  8
0
 10
-60.118
 11
-59.997
 20
160.396
 21
160.431
  0
LINE
  8
0
 10
-59.997
 11
-59.875
 20
160.431
 21
160.459
  0
LINE
  8
0
 10
-59.875
 11
-59.751
 20
160.459
 21
160.478
  0
LINE
  8
0
 10
-59.751
 11
-59.626
 20
160.478
 21
160.49
  0
LINE
  8
0
 10
-59.626
 11
-59.5
 20
160.49
 21
160.494
  0
LINE
  8
0
 10
-59.5
 11
-59.374
 20
160.494
 21
160.49
  0
LINE
  8
0
 10
-59.374
 11
-59.249
 20
160.49
 21
160.478
  0
LINE
  8
0
 10
-59.249
 11
-59.125
 20
160.478
 21
160.459
  0
LINE
  8
0
 10
-59.125
 11
-59.003
 20
160.459
 21
160.431
  0
LINE
  8
0
 10
-59.003
 11
-58.882
 20
160.431
 21
160.396
  0
LINE
  8
0
 10
-58.882
 11
-58.764
 20
160.396
 21
160.354
  0
LINE
  8
0
 10
-58.764
 11
-58.648
 20
160.354
 21
160.304
  0
LINE
  8
0
 10
-58.648
 11
-58.536
 20
160.304
 21
160.247
  0
LINE
  8
0
 10
-58.536
 11
-58.428
 20
160.247
 21
160.183
  0
LINE
  8
0
 10
-58.428
 11
-58.324
 20
160.183
 21
160.112
  0
LINE
  8
0
 10
-58.324
 11
-58.225
 20
160.112
 21
160.035
  0
LINE
  8
0
 10
-58.225
 11
-58.131
 20
160.035
 21
159.952
  0
LINE
  8
0
 10
-58.131
 11
-58.042
 20
159.952
 21
159.863
  0
LINE
  8
0
 10
-58.042
 11
-57.959
 20
159.863
 21
159.769
  0
LINE
  8
0
 10
-57.959
 11
-57.882
 20
159.769
 21
159.67
  0
LINE
  8
0
 10
-57.882
 11
-57.811
 20
159.67
 21
159.566
  0
LINE
  8
0
 10
-57.811
 11
-57.747
 20
159.566
 21
159.458
  0
LINE
  8
0
 10
-57.747
 11
-57.69
 20
159.458
 21
159.346
  0
LINE
  8
0
 10
-57.69
 11
-57.64
 20
159.346
 21
159.23
  0
LINE
  8
0
 10
-57.64
 11
-57.598
 20
159.23
 21
159.112
  0
LINE
  8
0
 10
-57.598
 11
-57.563
 20
159.112
 21
158.991
  0
LINE
  8
0
 10
-57.563
 11
-57.535
 20
158.991
 21
158.869
  0
LINE
  8
0
 10
-57.535
 11
-57.516
 20
158.869
 21
158.745
  0
LINE
  8
0
 10
-57.516
 11
-57.504
 20
158.745
 21
158.62
  0
LINE
  8
0
 10
-57.504
 11
-57.5
 20
158.62
 21
158.494
  0
LINE
  8
0
 10
-57.5
 11
-57.504
 20
158.494
 21
158.368
  0
LINE
  8
0
 10
-57.504
 11
-57.516
 20
158.368
 21
158.243
  0
LINE
  8
0
 10
-57.516
 11
-57.535
 20
158.243
 21
158.119
  0
LINE
  8
0
 10
-57.535
 11
-57.563
 20
158.119
 21
157.997
  0
LINE
  8
0
 10
-57.563
 11
-57.598
 20
157.997
 21
157.876
  0
LINE
  8
0
 10
-57.598
 11
-57.64
 20
157.876
 21
157.758
  0
LINE
  8
0
 10
-57.64
 11
-57.69
 20
157.758
 21
157.642
  0
LINE
  8
0
 10
-57.69
 11
-57.747
 20
157.642
 21
157.53
  0
LINE
  8
0
 10
-57.747
 11
-57.811
 20
157.53
 21
157.422
  0
LINE
  8
0
 10
-57.811
 11
-57.882
 20
157.422
 21
157.318
  0
LINE
  8
0
 10
-57.882
 11
-57.959
 20
157.318
 21
157.219
  0
LINE
  8
0
 10
-57.959
 11
-58.042
 20
157.219
 21
157.125
  0
LINE
  8
0
 10
-58.042
 11
-58.131
 20
157.125
 21
157.036
  0
LINE
  8
0
 10
-58.131
 11
-58.225
 20
157.036
 21
156.953
  0
LINE
  8
0
 10
-58.225
 11
-58.324
 20
156.953
 21
156.876
  0
LINE
  8
0
 10
-58.324
 11
-58.428
 20
156.876
 21
156.805
  0
LINE
  8
0
 10
-58.428
 11
-58.536
 20
156.805
 21
156.741
  0
LINE
  8
0
 10
-58.536
 11
-58.648
 20
156.741
 21
156.684
  0
LINE
  8
0
 10
-58.648
 11
-58.764
 20
156.684
 21
156.634
  0
LINE
  8
0
 10
-58.764
 11
-58.882
 20
156.634
 21
156.592
  0
LINE
  8
0
 10
-58.882
 11
-59.003
 20
156.592
 21
156.557
  0
LINE
  8
0
 10
-59.003
 11
-59.125
 20
156.557
 21
156.529
  0
LINE
  8
0
 10
-59.125
 11
-59.249
 20
156.529
 21
156.51
  0
LINE
  8
0
 10
-59.249
 11
-59.374
 20
156.51
 21
156.498
  0
LINE
  8
0
 10
-59.374
 11
-59.5
 20
156.498
 21
156.494
  0
LINE
  8
0
 10
-59.5
 11
-59.626
 20
156.494
 21
156.498
  0
LINE
  8
0
 10
-59.626
 11
-59.751
 20
156.498
 21
156.51
  0
LINE
  8
0
 10
-59.751
 11
-59.875
 20
156.51
 21
156.529
  0
LINE
  8
0
 10
-59.875
 11
-59.997
 20
156.529
 21
156.557
  0
LINE
  8
0
 10
-59.997
 11
-60.118
 20
156.557
 21
156.592
  0
LINE
  8
0
 10
-60.118
 11
-60.236
 20
156.592
 21
156.634
  0
LINE
  8
0
 10
-60.236
 11
-60.352
 20
156.634
 21
156.684
  0
LINE
  8
0
 10
-60.352
 11
-60.464
 20
156.684
 21
156.741
  0
LINE
  8
0
 10
-60.464
 11
-60.572
 20
156.741
 21
156.805
  0
LINE
  8
0
 10
-60.572
 11
-60.676
 20
156.805
 21
156.876
  0
LINE
  8
0
 10
-60.676
 11
-60.775
 20
156.876
 21
156.953
  0
LINE
  8
0
 10
-60.775
 11
-60.869
 20
156.953
 21
157.036
  0
LINE
  8
0
 10
-60.869
 11
-60.958
 20
157.036
 21
157.125
  0
LINE
  8
0
 10
-60.958
 11
-61.041
 20
157.125
 21
157.219
  0
LINE
  8
0
 10
-61.041
 11
-61.118
 20
157.219
 21
157.318
  0
LINE
  8
0
 10
-61.118
 11
-61.189
 20
157.318
 21
157.422
  0
LINE
  8
0
 10
-61.189
 11
-61.253
 20
157.422
 21
157.53
  0
LINE
  8
0
 10
-61.253
 11
-61.31
 20
157.53
 21
157.642
  0
LINE
  8
0
 10
-61.31
 11
-61.36
 20
157.642
 21
157.758
  0
LINE
  8
0
 10
-61.36
 11
-61.402
 20
157.758
 21
157.876
  0
LINE
  8
0
 10
-61.402
 11
-61.437
 20
157.876
 21
157.997
  0
LINE
  8
0
 10
-61.437
 11
-61.465
 20
157.997
 21
158.119
  0
LINE
  8
0
 10
-61.465
 11
-61.484
 20
158.119
 21
158.243
  0
LINE
  8
0
 10
-61.484
 11
-61.496
 20
158.243
 21
158.368
  0
LINE
  8
0
 10
-61.496
 11
-61.5
 20
158.368
 21
158.494
  0
LINE
  8
0
 10
-29.525
 11
-29.52
 20
75
 21
75.159
  0
LINE
  8
0
 10
-29.52
 11
-29.505
 20
75.159
 21
75.316
  0
LINE
  8
0
 10
-29.505
 11
-29.48
 20
75.316
 21
75.473
  0
LINE
  8
0
 10
-29.48
 11
-29.446
 20
75.473
 21
75.628
  0
LINE
  8
0
 10
-29.446
 11
-29.401
 20
75.628
 21
75.78
  0
LINE
  8
0
 10
-29.401
 11
-29.348
 20
75.78
 21
75.93
  0
LINE
  8
0
 10
-29.348
 11
-29.285
 20
75.93
 21
76.075
  0
LINE
  8
0
 10
-29.285
 11
-29.213
 20
76.075
 21
76.216
  0
LINE
  8
0
 10
-29.213
 11
-29.132
 20
76.216
 21
76.353
  0
LINE
  8
0
 10
-29.132
 11
-29.043
 20
76.353
 21
76.484
  0
LINE
  8
0
 10
-29.043
 11
-28.946
 20
76.484
 21
76.609
  0
LINE
  8
0
 10
-28.946
 11
-28.841
 20
76.609
 21
76.728
  0
LINE
  8
0
 10
-28.841
 11
-28.728
 20
76.728
 21
76.841
  0
LINE
  8
0
 10
-28.728
 11
-28.609
 20
76.841
 21
76.946
  0
LINE
  8
0
 10
-28.609
 11
-28.484
 20
76.946
 21
77.043
  0
LINE
  8
0
 10
-28.484
 11
-28.353
 20
77.043
 21
77.132
  0
LINE
  8
0
 10
-28.353
 11
-28.216
 20
77.132
 21
77.213
  0
LINE
  8
0
 10
-28.216
 11
-28.075
 20
77.213
 21
77.285
  0
LINE
  8
0
 10
-28.075
 11
-27.93
 20
77.285
 21
77.348
  0
LINE
  8
0
 10
-27.93
 11
-27.78
 20
77.348
 21
77.401
  0
LINE
  8
0
 10
-27.78
 11
-27.628
 20
77.401
 21
77.446
  0
LINE
  8
0
 10
-27.628
 11
-27.473
 20
77.446
 21
77.48
  0
LINE
  8
0
 10
-27.473
 11
-27.316
 20
77.48
 21
77.505
  0
LINE
  8
0
 10
-27.316
 11
-27.159
 20
77.505
 21
77.52
  0
LINE
  8
0
 10
-27.159
 11
-27
 20
77.52
 21
77.525
  0
LINE
  8
0
 10
-27
 11
-26.841
 20
77.525
 21
77.52
  0
LINE
  8
0
 10
-26.841
 11
-26.684
 20
77.52
 21
77.505
  0
LINE
  8
0
 10
-26.684
 11
-26.527
 20
77.505
 21
77.48
  0
LINE
  8
0
 10
-26.527
 11
-26.372
 20
77.48
 21
77.446
  0
LINE
  8
0
 10
-26.372
 11
-26.22
 20
77.446
 21
77.401
  0
LINE
  8
0
 10
-26.22
 11
-26.07
 20
77.401
 21
77.348
  0
LINE
  8
0
 10
-26.07
 11
-25.925
 20
77.348
 21
77.285
  0
LINE
  8
0
 10
-25.925
 11
-25.784
 20
77.285
 21
77.213
  0
LINE
  8
0
 10
-25.784
 11
-25.647
 20
77.213
 21
77.132
  0
LINE
  8
0
 10
-25.647
 11
-25.516
 20
77.132
 21
77.043
  0
LINE
  8
0
 10
-25.516
 11
-25.391
 20
77.043
 21
76.946
  0
LINE
  8
0
 10
-25.391
 11
-25.272
 20
76.946
 21
76.841
  0
LINE
  8
0
 10
-25.272
 11
-25.159
 20
76.841
 21
76.728
  0
LINE
  8
0
 10
-25.159
 11
-25.054
 20
76.728
 21
76.609
  0
LINE
  8
0
 10
-25.054
 11
-24.957
 20
76.609
 21
76.484
  0
LINE
  8
0
 10
-24.957
 11
-24.868
 20
76.484
 21
76.353
  0
LINE
  8
0
 10
-24.868
 11
-24.787
 20
76.353
 21
76.216
  0
LINE
  8
0
 10
-24.787
 11
-24.715
 20
76.216
 21
76.075
  0
LINE
  8
0
 10
-24.715
 11
-24.652
 20
76.075
 21
75.93
  0
LINE
  8
0
 10
-24.652
 11
-24.599
 20
75.93
 21
75.78
  0
LINE
  8
0
 10
-24.599
 11
-24.554
 20
75.78
 21
75.628
  0
LINE
  8
0
 10
-24.554
 11
-24.52
 20
75.628
 21
75.473
  0
LINE
  8
0
 10
-24.52
 11
-24.495
 20
75.473
 21
75.316
  0
LINE
  8
0
 10
-24.495
 11
-24.48
 20
75.316
 21
75.159
  0
LINE
  8
0
 10
-24.48
 11
-24.475
 20
75.159
 21
75
  0
LINE
  8
0
 10
-24.475
 11
-24.48
 20
75
 21
74.841
  0
LINE
  8
0
 10
-24.48
 11
-24.495
 20
74.841
 21
74.684
  0
LINE
  8
0
 10
-24.495
 11
-24.52
 20
74.684
 21
74.527
  0
LINE
  8
0
 10
-24.52
 11
-24.554
 20
74.527
 21
74.372
  0
LINE
  8
0
 10
-24.554
 11
-24.599
 20
74.372
 21
74.22
  0
LINE
  8
0
 10
-24.599
 11
-24.652
 20
74.22
 21
74.07
  0
LINE
  8
0
 10
-24.652
 11
-24.715
 20
74.07
 21
73.925
  0
LINE
  8
0
 10
-24.715
 11
-24.787
 20
73.925
 21
73.784
  0
LINE
  8
0
 10
-24.787
 11
-24.868
 20
73.784
 21
73.647
  0
LINE
  8
0
 10
-24.868
 11
-24.957
 20
73.647
 21
73.516
  0
LINE
  8
0
 10
-24.957
 11
-25.054
 20
73.516
 21
73.391
  0
LINE
  8
0
 10
-25.054
 11
-25.159
 20
73.391
 21
73.272
  0
LINE
  8
0
 10
-25.159
 11
-25.272
 20
73.272
 21
73.159
  0
LINE
  8
0
 10
-25.272
 11
-25.391
 20
73.159
 21
73.054
  0
LINE
  8
0
 10
-25.391
 11
-25.516
 20
73.054
 21
72.957
  0
LINE
  8
0
 10
-25.516
 11
-25.647
 20
72.957
 21
72.868
  0
LINE
  8
0
 10
-25.647
 11
-25.784
 20
72.868
 21
72.787
  0
LINE
  8
0
 10
-25.784
 11
-25.925
 20
72.787
 21
72.715
  0
LINE
  8
0
 10
-25.925
 11
-26.07
 20
72.715
 21
72.652
  0
LINE
  8
0
 10
-26.07
 11
-26.22
 20
72.652
 21
72.599
  0
LINE
  8
0
 10
-26.22
 11
-26.372
 20
72.599
 21
72.554
  0
LINE
  8
0
 10
-26.372
 11
-26.527
 20
72.554
 21
72.52
  0
LINE
  8
0
 10
-26.527
 11
-26.684
 20
72.52
 21
72.495
  0
LINE
  8
0
 10
-26.684
 11
-26.841
 20
72.495
 21
72.48
  0
LINE
  8
0
 10
-26.841
 11
-27
 20
72.48
 21
72.475
  0
LINE
  8
0
 10
-27
 11
-27.159
 20
72.475
 21
72.48
  0
LINE
  8
0
 10
-27.159
 11
-27.316
 20
72.48
 21
72.495
  0
LINE
  8
0
 10
-27.316
 11
-27.473
 20
72.495
 21
72.52
  0
LINE
  8
0
 10
-27.473
 11
-27.628
 20
72.52
 21
72.554
  0
LINE
  8
0
 10
-27.628
 11
-27.78
 20
72.554
 21
72.599
  0
LINE
  8
0
 10
-27.78
 11
-27.93
 20
72.599
 21
72.652
  0
LINE
  8
0
 10
-27.93
 11
-28.075
 20
72.652
 21
72.715
  0
LINE
  8
0
 10
-28.075
 11
-28.216
 20
72.715
 21
72.787
  0
LINE
  8
0
 10
-28.216
 11
-28.353
 20
72.787
 21
72.868
  0
LINE
  8
0
 10
-28.353
 11
-28.484
 20
72.868
 21
72.957
  0
LINE
  8
0
 10
-28.484
 11
-28.609
 20
72.957
 21
73.054
  0
LINE
  8
0
 10
-28.609
 11
-28.728
 20
73.054
 21
73.159
  0
LINE
  8
0
 10
-28.728
 11
-28.841
 20
73.159
 21
73.272
  0
LINE
  8
0
 10
-28.841
 11
-28.946
 20
73.272
 21
73.391
  0
LINE
  8
0
 10
-28.946
 11
-29.043
 20
73.391
 21
73.516
  0
LINE
  8
0
 10
-29.043
 11
-29.132
 20
73.516
 21
73.647
  0
LINE
  8
0
 10
-29.132
 11
-29.213
 20
73.647
 21
73.784
  0
LINE
  8
0
 10
-29.213
 11
-29.285
 20
73.784
 21
73.925
  0
LINE
  8
0
 10
-29.285
 11
-29.348
 20
73.925
 21
74.07
  0
LINE
  8
0
 10
-29.348
 11
-29.401
 20
74.07
 21
74.22
  0
LINE
  8
0
 10
-29.401
 11
-29.446
 20
74.22
 21
74.372
  0
LINE
  8
0
 10
-29.446
 11
-29.48
 20
74.372
 21
74.527
  0
LINE
  8
0
 10
-29.48
 11
-29.505
 20
74.527
 21
74.684
  0
LINE
  8
0
 10
-29.505
 11
-29.52
 20
74.684
 21
74.841
  0
LINE
  8
0
 10
-29.52
 11
-29.525
 20
74.841
 21
75
  0
LINE
  8
0
 10
-23
 11
-22.996
 20
-21
 21
-20.874
  0
LINE
  8
0
 10
-22.996
 11
-22.984
 20
-20.874
 21
-20.749
  0
LINE
  8
0
 10
-22.984
 11
-22.965
 20
-20.749
 21
-20.625
  0
LINE
  8
0
 10
-22.965
 11
-22.937
 20
-20.625
 21
-20.503
  0
LINE
  8
0
 10
-22.937
 11
-22.902
 20
-20.503
 21
-20.382
  0
LINE
  8
0
 10
-22.902
 11
-22.86
 20
-20.382
 21
-20.264
  0
LINE
  8
0
 10
-22.86
 11
-22.81
 20
-20.264
 21
-20.148
  0
LINE
  8
0
 10
-22.81
 11
-22.753
 20
-20.148
 21
-20.036
  0
LINE
  8
0
 10
-22.753
 11
-22.689
 20
-20.036
 21
-19.928
  0
LINE
  8
0
 10
-22.689
 11
-22.618
 20
-19.928
 21
-19.824
  0
LINE
  8
0
 10
-22.618
 11
-22.541
 20
-19.824
 21
-19.725
  0
LINE
  8
0
 10
-22.541
 11
-22.458
 20
-19.725
 21
-19.631
  0
LINE
  8
0
 10
-22.458
 11
-22.369
 20
-19.631
 21
-19.542
  0
LINE
  8
0
 10
-22.369
 11
-22.275
 20
-19.542
 21
-19.459
  0
LINE
  8
0
 10
-22.275
 11
-22.176
 20
-19.459
 21
-19.382
  0
LINE
  8
0
 10
-22.176
 11
-22.072
 20
-19.382
 21
-19.311
  0
LINE
  8
0
 10
-22.072
 11
-21.964
 20
-19.311
 21
-19.247
  0
LINE
  8
0
 10
-21.964
 11
-21.852
 20
-19.247
 21
-19.19
  0
LINE
  8
0
 10
-21.852
 11
-21.736
 20
-19.19
 21
-19.14
  0
LINE
  8
0
 10
-21.736
 11
-21.618
 20
-19.14
 21
-19.098
  0
LINE
  8
0
 10
-21.618
 11
-21.497
 20
-19.098
 21
-19.063
  0
LINE
  8
0
 10
-21.497
 11
-21.375
 20
-19.063
 21
-19.035
  0
LINE
  8
0
 10
-21.375
 11
-21.251
 20
-19.035
 21
-19.016
  0
LINE
  8
0
 10
-21.251
 11
-21.126
 20
-19.016
 21
-19.004
  0
LINE
  8
0
 10
-21.126
 11
-21
 20
-19.004
 21
-19
  0
LINE
  8
0
 10
-21
 11
-20.874
 20
-19
 21
-19.004
  0
LINE
  8
0
 10
-20.874
 11
-20.749
 20
-19.004
 21
-19.016
  0
LINE
  8
0
 10
-20.749
 11
-20.625
 20
-19.016
 21
-19.035
  0
LINE
  8
0
 10
-20.625
 11
-20.503
 20
-19.035
 21
-19.063
  0
LINE
  8
0
 10
-20.503
 11
-20.382
 20
-19.063
 21
-19.098
  0
LINE
  8
0
 10
-20.382
 11
-20.264
 20
-19.098
 21
-19.14
  0
LINE
  8
0
 10
-20.264
 11
-20.148
 20
-19.14
 21
-19.19
  0
LINE
  8
0
 10
-20.148
 11
-20.036
 20
-19.19
 21
-19.247
  0
LINE
  8
0
 10
-20.036
 11
-19.928
 20
-19.247
 21
-19.311
  0
LINE
  8
0
 10
-19.928
 11
-19.824
 20
-19.311
 21
-19.382
  0
LINE
  8
0
 10
-19.824
 11
-19.725
 20
-19.382
 21
-19.459
  0
LINE
  8
0
 10
-19.725
 11
-19.631
 20
-19.459
 21
-19.542
  0
LINE
  8
0
 10
-19.631
 11
-19.542
 20
-19.542
 21
-19.631
  0
LINE
  8
0
 10
-19.542
 11
-19.459
 20
-19.631
 21
-19.725
  0
LINE
  8
0
 10
-19.459
 11
-19.382
 20
-19.725
 21
-19.824
  0
LINE
  8
0
 10
-19.382
 11
-19.311
 20
-19.824
 21
-19.928
  0
LINE
  8
0
 10
-19.311
 11
-19.247
 20
-19.928
 21
-20.036
  0
LINE
  8
0
 10
-19.247
 11
-19.19
 20
-20.036
 21
-20.148
  0
LINE
  8
0
 10
-19.19
 11
-19.14
 20
-20.148
 21
-20.264
  0
LINE
  8
0
 10
-19.14
 11
-19.098
 20
-20.264
 21
-20.382
  0
LINE
  8
0
 10
-19.098
 11
-19.063
 20
-20.382
 21
-20.503
  0
LINE
  8
0
 10
-19.063
 11
-19.035
 20
-20.503
 21
-20.625
  0
LINE
  8
0
 10
-19.035
 11
-19.016
 20
-20.625
 21
-20.749
  0
LINE
  8
0
 10
-19.016
 11
-19.004
 20
-20.749
 21
-20.874
  0
LINE
  8
0
 10
-19.004
 11
-19
 20
-20.874
 21
-21
  0
LINE
  8
0
 10
-19
 11
-19.004
 20
-21
 21
-21.126
  0
LINE
  8
0
 10
-19.004
 11
-19.016
 20
-21.126
 21
-21.251
  0
LINE
  8
0
 10
-19.016
 11
-19.035
 20
-21.251
 21
-21.375
  0
LINE
  8
0
 10
-19.035
 11
-19.063
 20
-21.375
 21
-21.497
  0
LINE
  8
0
 10
-19.063
 11
-19.098
 20
-21.497
 21
-21.618
  0
LINE
  8
0
 10
-19.098
 11
-19.14
 20
-21.618
 21
-21.736
  0
LINE
  8
0
 10
-19.14
 11
-19.19
 20
-21.736
 21
-21.852
  0
LINE
  8
0
 10
-19.19
 11
-19.247
 20
-21.852
 21
-21.964
  0
LINE
  8
0
 10
-19.247
 11
-19.311
 20
-21.964
 21
-22.072
  0
LINE
  8
0
 10
-19.311
 11
-19.382
 20
-22.072
 21
-22.176
  0
LINE
  8
0
 10
-19.382
 11
-19.459
 20
-22.176
 21
-22.275
  0
LINE
  8
0
 10
-19.459
 11
-19.542
 20
-22.275
 21
-22.369
  0
LINE
  8
0
 10
-19.542
 11
-19.631
 20
-22.369
 21
-22.458
  0
LINE
  8
0
 10
-19.631
 11
-19.725
 20
-22.458
 21
-22.541
  0
LINE
  8
0
 10
-19.725
 11
-19.824
 20
-22.541
 21
-22.618
  0
LINE
  8
0
 10
-19.824
 11
-19.928
 20
-22.618
 21
-22.689
  0
LINE
  8
0
 10
-19.928
 11
-20.036
 20
-22.689
 21
-22.753
  0
LINE
  8
0
 10
-20.036
 11
-20.148
 20
-22.753
 21
-22.81
  0
LINE
  8
0
 10
-20.148
 11
-20.264
 20
-22.81
 21
-22.86
  0
LINE
  8
0
 10
-20.264
 11
-20.382
 20
-22.86
 21
-22.902
  0
LINE
  8
0
 10
-20.382
 11
-20.503
 20
-22.902
 21
-22.937
  0
LINE
  8
0
 10
-20.503
 11
-20.625
 20
-22.937
 21
-22.965
  0
LINE
  8
0
 10
-20.625
 11
-20.749
 20
-22.965
 21
-22.984
  0
LINE
  8
0
 10
-20.749
 11
-20.874
 20
-22.984
 21
-22.996
  0
LINE
  8
0
 10
-20.874
 11
-21
 20
-22.996
 21
-23
  0
LINE
  8
0
 10
-21
 11
-21.126
 20
-23
 21
-22.996
  0
LINE
  8
0
 10
-21.126
 11
-21.251
 20
-22.996
 21
-22.984
  0
LINE
  8
0
 10
-21.251
 11
-21.375
 20
-22.984
 21
-22.965
  0
LINE
  8
0
 10
-21.375
 11
-21.497
 20
-22.965
 21
-22.937
  0
LINE
  8
0
 10
-21.497
 11
-21.618
 20
-22.937
 21
-22.902
  0
LINE
  8
0
 10
-21.618
 11
-21.736
 20
-22.902
 21
-22.86
  0
LINE
  8
0
 10
-21.736
 11
-21.852
 20
-22.86
 21
-22.81
  0
LINE
  8
0
 10
-21.852
 11
-21.964
 20
-22.81
 21
-22.753
  0
LINE
  8
0
 10
-21.964
 11
-22.072
 20
-22.753
 21
-22.689
  0
LINE
  8
0
 10
-22.072
 11
-22.176
 20
-22.689
 21
-22.618
  0
LINE
  8
0
 10
-22.176
 11
-22.275
 20
-22.618
 21
-22.541
  0
LINE
  8
0
 10
-22.275
 11
-22.369
 20
-22.541
 21
-22.458
  0
LINE
  8
0
 10
-22.369
 11
-22.458
 20
-22.458
 21
-22.369
  0
LINE
  8
0
 10
-22.458
 11
-22.541
 20
-22.369
 21
-22.275
  0
LINE
  8
0
 10
-22.541
 11
-22.618
 20
-22.275
 21
-22.176
  0
LINE
  8
0
 10
-22.618
 11
-22.689
 20
-22.176
 21
-22.072
  0
LINE
  8
0
 10
-22.689
 11
-22.753
 20
-22.072
 21
-21.964
  0
LINE
  8
0
 10
-22.753
 11
-22.81
 20
-21.964
 21
-21.852
  0
LINE
  8
0
 10
-22.81
 11
-22.86
 20
-21.852
 21
-21.736
  0
LINE
  8
0
 10
-22.86
 11
-22.902
 20
-21.736
 21
-21.618
  0
LINE
  8
0
 10
-22.902
 11
-22.937
 20
-21.618
 21
-21.497
  0
LINE
  8
0
 10
-22.937
 11
-22.965
 20
-21.497
 21
-21.375
  0
LINE
  8
0
 10
-22.965
 11
-22.984
 20
-21.375
 21
-21.251
  0
LINE
  8
0
 10
-22.984
 11
-22.996
 20
-21.251
 21
-21.126
  0
LINE
  8
0
 10
-22.996
 11
-23
 20
-21.126
 21
-21
  0
LINE
  8
0
 10
-23
 11
-22.996
 20
21
 21
21.126
  0
LINE
  8
0
 10
-22.996
 11
-22.984
 20
21.126
 21
21.251
  0
LINE
  8
0
 10
-22.984
 11
-22.965
 20
21.251
 21
21.375
  0
LINE
  8
0
 10
-22.965
 11
-22.937
 20
21.375
 21
21.497
  0
LINE
  8
0
 10
-22.937
 11
-22.902
 20
21.497
 21
21.618
  0
LINE
  8
0
 10
-22.902
 11
-22.86
 20
21.618
 21
21.736
  0
LINE
  8
0
 10
-22.86
 11
-22.81
 20
21.736
 21
21.852
  0
LINE
  8
0
 10
-22.81
 11
-22.753
 20
21.852
 21
21.964
  0
LINE
  8
0
 10
-22.753
 11
-22.689
 20
21.964
 21
22.072
  0
LINE
  8
0
 10
-22.689
 11
-22.618
 20
22.072
 21
22.176
  0
LINE
  8
0
 10
-22.618
 11
-22.541
 20
22.176
 21
22.275
  0
LINE
  8
0
 10
-22.541
 11
-22.458
 20
22.275
 21
22.369
  0
LINE
  8
0
 10
-22.458
 11
-22.369
 20
22.369
 21
22.458
  0
LINE
  8
0
 10
-22.369
 11
-22.275
 20
22.458
 21
22.541
  0
LINE
  8
0
 10
-22.275
 11
-22.176
 20
22.541
 21
22.618
  0
LINE
  8
0
 10
-22.176
 11
-22.072
 20
22.618
 21
22.689
  0
LINE
  8
0
 10
-22.072
 11
-21.964
 20
22.689
 21
22.753
  0
LINE
  8
0
 10
-21.964
 11
-21.852
 20
22.753
 21
22.81
  0
LINE
  8
0
 10
-21.852
 11
-21.736
 20
22.81
 21
22.86
  0
LINE
  8
0
 10
-21.736
 11
-21.618
 20
22.86
 21
22.902
  0
LINE
  8
0
 10
-21.618
 11
-21.497
 20
22.902
 21
22.937
  0
LINE
  8
0
 10
-21.497
 11
-21.375
 20
22.937
 21
22.965
  0
LINE
  8
0
 10
-21.375
 11
-21.251
 20
22.965
 21
22.984
  0
LINE
  8
0
 10
-21.251
 11
-21.126
 20
22.984
 21
22.996
  0
LINE
  8
0
 10
-21.126
 11
-21
 20
22.996
 21
23
  0
LINE
  8
0
 10
-21
 11
-20.874
 20
23
 21
22.996
  0
LINE
  8
0
 10
-20.874
 11
-20.749
 20
22.996
 21
22.984
  0
LINE
  8
0
 10
-20.749
 11
-20.625
 20
22.984
 21
22.965
  0
LINE
  8
0
 10
-20.625
 11
-20.503
 20
22.965
 21
22.937
  0
LINE
  8
0
 10
-20.503
 11
-20.382
 20
22.937
 21
22.902
  0
LINE
  8
0
 10
-20.382
 11
-20.264
 20
22.902
 21
22.86
  0
LINE
  8
0
 10
-20.264
 11
-20.148
 20
22.86
 21
22.81
  0
LINE
  8
0
 10
-20.148
 11
-20.036
 20
22.81
 21
22.753
  0
LINE
  8
0
 10
-20.036
 11
-19.928
 20
22.753
 21
22.689
  0
LINE
  8
0
 10
-19.928
 11
-19.824
 20
22.689
 21
22.618
  0
LINE
  8
0
 10
-19.824
 11
-19.725
 20
22.618
 21
22.541
  0
LINE
  8
0
 10
-19.725
 11
-19.631
 20
22.541
 21
22.458
  0
LINE
  8
0
 10
-19.631
 11
-19.542
 20
22.458
 21
22.369
  0
LINE
  8
0
 10
-19.542
 11
-19.459
 20
22.369
 21
22.275
  0
LINE
  8
0
 10
-19.459
 11
-19.382
 20
22.275
 21
22.176
  0
LINE
  8
0
 10
-19.382
 11
-19.311
 20
22.176
 21
22.072
  0
LINE
  8
0
 10
-19.311
 11
-19.247
 20
22.072
 21
21.964
  0
LINE
  8
0
 10
-19.247
 11
-19.19
 20
21.964
 21
21.852
  0
LINE
  8
0
 10
-19.19
 11
-19.14
 20
21.852
 21
21.736
  0
LINE
  8
0
 10
-19.14
 11
-19.098
 20
21.736
 21
21.618
  0
LINE
  8
0
 10
-19.098
 11
-19.063
 20
21.618
 21
21.497
  0
LINE
  8
0
 10
-19.063
 11
-19.035
 20
21.497
 21
21.375
  0
LINE
  8
0
 10
-19.035
 11
-19.016
 20
21.375
 21
21.251
  0
LINE
  8
0
 10
-19.016
 11
-19.004
 20
21.251
 21
21.126
  0
LINE
  8
0
 10
-19.004
 11
-19
 20
21.126
 21
21
  0
LINE
  8
0
 10
-19
 11
-19.004
 20
21
 21
20.874
  0
LINE
  8
0
 10
-19.004
 11
-19.016
 20
20.874
 21
20.749
  0
LINE
  8
0
 10
-19.016
 11
-19.035
 20
20.749
 21
20.625
  0
LINE
  8
0
 10
-19.035
 11
-19.063
 20
20.625
 21
20.503
  0
LINE
  8
0
 10
-19.063
 11
-19.098
 20
20.503
 21
20.382
  0
LINE
  8
0
 10
-19.098
 11
-19.14
 20
20.382
 21
20.264
  0
LINE
  8
0
 10
-19.14
 11
-19.19
 20
20.264
 21
20.148
  0
LINE
  8
0
 10
-19.19
 11
-19.247
 20
20.148
 21
20.036
  0
LINE
  8
0
 10
-19.247
 11
-19.311
 20
20.036
 21
19.928
  0
LINE
  8
0
 10
-19.311
 11
-19.382
 20
19.928
 21
19.824
  0
LINE
  8
0
 10
-19.382
 11
-19.459
 20
19.824
 21
19.725
  0
LINE
  8
0
 10
-19.459
 11
-19.542
 20
19.725
 21
19.631
  0
LINE
  8
0
 10
-19.542
 11
-19.631
 20
19.631
 21
19.542
  0
LINE
  8
0
 10
-19.631
 11
-19.725
 20
19.542
 21
19.459
  0
LINE
  8
0
 10
-19.725
 11
-19.824
 20
19.459
 21
19.382
  0
LINE
  8
0
 10
-19.824
 11
-19.928
 20
19.382
 21
19.311
  0
LINE
  8
0
 10
-19.928
 11
-20.036
 20
19.311
 21
19.247
  0
LINE
  8
0
 10
-20.036
 11
-20.148
 20
19.247
 21
19.19
  0
LINE
  8
0
 10
-20.148
 11
-20.264
 20
19.19
 21
19.14
  0
LINE
  8
0
 10
-20.264
 11
-20.382
 20
19.14
 21
19.098
  0
LINE
  8
0
 10
-20.382
 11
-20.503
 20
19.098
 21
19.063
  0
LINE
  8
0
 10
-20.503
 11
-20.625
 20
19.063
 21
19.035
  0
LINE
  8
0
 10
-20.625
 11
-20.749
 20
19.035
 21
19.016
  0
LINE
  8
0
 10
-20.749
 11
-20.874
 20
19.016
 21
19.004
  0
LINE
  8
0
 10
-20.874
 11
-21
 20
19.004
 21
19
  0
LINE
  8
0
 10
-21
 11
-21.126
 20
19
 21
19.004
  0
LINE
  8
0
 10
-21.126
 11
-21.251
 20
19.004
 21
19.016
  0
LINE
  8
0
 10
-21.251
 11
-21.375
 20
19.016
 21
19.035
  0
LINE
  8
0
 10
-21.375
 11
-21.497
 20
19.035
 21
19.063
  0
LINE
  8
0
 10
-21.497
 11
-21.618
 20
19.063
 21
19.098
  0
LINE
  8
0
 10
-21.618
 11
-21.736
 20
19.098
 21
19.14
  0
LINE
  8
0
 10
-21.736
 11
-21.852
 20
19.14
 21
19.19
  0
LINE
  8
0
 10
-21.852
 11
-21.964
 20
19.19
 21
19.247
  0
LINE
  8
0
 10
-21.964
 11
-22.072
 20
19.247
 21
19.311
  0
LINE
  8
0
 10
-22.072
 11
-22.176
 20
19.311
 21
19.382
  0
LINE
  8
0
 10
-22.176
 11
-22.275
 20
19.382
 21
19.459
  0
LINE
  8
0
 10
-22.275
 11
-22.369
 20
19.459
 21
19.542
  0
LINE
  8
0
 10
-22.369
 11
-22.458
 20
19.542
 21
19.631
  0
LINE
  8
0
 10
-22.458
 11
-22.541
 20
19.631
 21
19.725
  0
LINE
  8
0
 10
-22.541
 11
-22.618
 20
19.725
 21
19.824
  0
LINE
  8
0
 10
-22.618
 11
-22.689
 20
19.824
 21
19.928
  0
LINE
  8
0
 10
-22.689
 11
-22.753
 20
19.928
 21
20.036
  0
LINE
  8
0
 10
-22.753
 11
-22.81
 20
20.036
 21
20.148
  0
LINE
  8
0
 10
-22.81
 11
-22.86
 20
20.148
 21
20.264
  0
LINE
  8
0
 10
-22.86
 11
-22.902
 20
20.264
 21
20.382
  0
LINE
  8
0
 10
-22.902
 11
-22.937
 20
20.382
 21
20.503
  0
LINE
  8
0
 10
-22.937
 11
-22.965
 20
20.503
 21
20.625
  0
LINE
  8
0
 10
-22.965
 11
-22.984
 20
20.625
 21
20.749
  0
LINE
  8
0
 10
-22.984
 11
-22.996
 20
20.749
 21
20.874
  0
LINE
  8
0
 10
-22.996
 11
-23
 20
20.874
 21
21
  0
LINE
  8
0
 10
-15
 11
-15
 20
62.5
 21
87.5
  0
LINE
  8
0
 10
-15
 11
15
 20
87.5
 21
87.5
  0
LINE
  8
0
 10
15
 11
15
 20
87.5
 21
62.5
  0
LINE
  8
0
 10
15
 11
-15
 20
62.5
 21
62.5
  0
LINE
  8
0
 10
-11.25
 11
-11.228
 20
120
 21
120.706
  0
LINE
  8
0
 10
-11.228
 11
-11.161
 20
120.706
 21
121.41
  0
LINE
  8
0
 10
-11.161
 11
-11.051
 20
121.41
 21
122.108
  0
LINE
  8
0
 10
-11.051
 11
-10.897
 20
122.108
 21
122.798
  0
LINE
  8
0
 10
-10.897
 11
-10.699
 20
122.798
 21
123.476
  0
LINE
  8
0
 10
-10.699
 11
-10.46
 20
123.476
 21
124.141
  0
LINE
  8
0
 10
-10.46
 11
-10.179
 20
124.141
 21
124.79
  0
LINE
  8
0
 10
-10.179
 11
-9.858
 20
124.79
 21
125.42
  0
LINE
  8
0
 10
-9.858
 11
-9.499
 20
125.42
 21
126.028
  0
LINE
  8
0
 10
-9.499
 11
-9.101
 20
126.028
 21
126.613
  0
LINE
  8
0
 10
-9.101
 11
-8.668
 20
126.613
 21
127.171
  0
LINE
  8
0
 10
-8.668
 11
-8.201
 20
127.171
 21
127.701
  0
LINE
  8
0
 10
-8.201
 11
-7.701
 20
127.701
 21
128.201
  0
LINE
  8
0
 10
-7.701
 11
-7.171
 20
128.201
 21
128.668
  0
LINE
  8
0
 10
-7.171
 11
-6.613
 20
128.668
 21
129.101
  0
LINE
  8
0
 10
-6.613
 11
-6.028
 20
129.101
 21
129.499
  0
LINE
  8
0
 10
-6.028
 11
-5.42
 20
129.499
 21
129.858
  0
LINE
  8
0
 10
-5.42
 11
-4.79
 20
129.858
 21
130.179
  0
LINE
  8
0
 10
-4.79
 11
-4.141
 20
130.179
 21
130.46
  0
LINE
  8
0
 10
-4.141
 11
-3.476
 20
130.46
 21
130.699
  0
LINE
  8
0
 10
-3.476
 11
-2.798
 20
130.699
 21
130.897
  0
LINE
  8
0
 10
-2.798
 11
-2.108
 20
130.897
 21
131.051
  0
LINE
  8
0
 10
-2.108
 11
-1.41
 20
131.051
 21
131.161
  0
LINE
  8
0
 10
-1.41
 11
-0.706
 20
131.161
 21
131.228
  0
LINE
  8
0
 10
-0.706
 11
0
 20
131.228
 21
131.25
  0
LINE
  8
0
 10
0
 11
0.706
 20
131.25
 21
131.228
  0
LINE
  8
0
 10
0.706
 11
1.41
 20
131.228
 21
131.161
  0
LINE
  8
0
 10
1.41
 11
2.108
 20
131.161
 21
131.051
  0
LINE
  8
0
 10
2.108
 11
2.798
 20
131.051
 21
130.897
  0
LINE
  8
0
 10
2.798
 11
3.476
 20
130.897
 21
130.699
  0
LINE
  8
0
 10
3.476
 11
4.141
 20
130.699
 21
130.46
  0
LINE
  8
0
 10
4.141
 11
4.79
 20
130.46
 21
130.179
  0
LINE
  8
0
 10
4.79
 11
5.42
 20
130.179
 21
129.858
  0
LINE
  8
0
 10
5.42
 11
6.028
 20
129.858
 21
129.499
  0
LINE
  8
0
 10
6.028
 11
6.613
 20
129.499
 21
129.101
  0
LINE
  8
0
 10
6.613
 11
7.171
 20
129.101
 21
128.668
  0
LINE
  8
0
 10
7.171
 11
7.701
 20
128.668
 21
128.201
  0
LINE
  8
0
 10
7.701
 11
8.201
 20
128.201
 21
127.701
  0
LINE
  8
0
 10
8.201
 11
8.668
 20
127.701
 21
127.171
  0
LINE
  8
0
 10
8.668
 11
9.101
 20
127.171
 21
126.613
  0
LINE
  8
0
 10
9.101
 11
9.499
 20
126.613
 21
126.028
  0
LINE
  8
0
 10
9.499
 11
9.858
 20
126.028
 21
125.42
  0
LINE
  8
0
 10
9.858
 11
10.179
 20
125.42
 21
124.79
  0
LINE
  8
0
 10
10.179
 11
10.46
 20
124.79
 21
124.141
  0
LINE
  8
0
 10
10.46
 11
10.699
 20
124.141
 21
123.476
  0
LINE
  8
0
 10
10.699
 11
10.897
 20
123.476
 21
122.798
  0
LINE
  8
0
 10
10.897
 11
11.051
 20
122.798
 21
122.108
  0
LINE
  8
0
 10
11.051
 11
11.161
 20
122.108
 21
121.41
  0
LINE
  8
0
 10
11.161
 11
11.228
 20
121.41
 21
120.706
  0
LINE
  8
0
 10
11.228
 11
11.25
 20
120.706
 21
120
  0
LINE
  8
0
 10
11.25
 11
11.228
 20
120
 21
119.294
  0
LINE
  8
0
 10
11.228
 11
11.161
 20
119.294
 21
118.59
  0
LINE
  8
0
 10
11.161
 11
11.051
 20
118.59
 21
117.892
  0
LINE
  8
0
 10
11.051
 11
10.897
 20
117.892
 21
117.202
  0
LINE
  8
0
 10
10.897
 11
10.699
 20
117.202
 21
116.524
  0
LINE
  8
0
 10
10.699
 11
10.46
 20
116.524
 21
115.859
  0
LINE
  8
0
 10
10.46
 11
10.179
 20
115.859
 21
115.21
  0
LINE
  8
0
 10
10.179
 11
9.858
 20
115.21
 21
114.58
  0
LINE
  8
0
 10
9.858
 11
9.499
 20
114.58
 21
113.972
  0
LINE
  8
0
 10
9.499
 11
9.101
 20
113.972
 21
113.387
  0
LINE
  8
0
 10
9.101
 11
8.668
 20
113.387
 21
112.829
  0
LINE
  8
0
 10
8.668
 11
8.201
 20
112.829
 21
112.299
  0
LINE
  8
0
 10
8.201
 11
7.701
 20
112.299
 21
111.799
  0
LINE
  8
0
 10
7.701
 11
7.171
 20
111.799
 21
111.332
  0
LINE
  8
0
 10
7.171
 11
6.613
 20
111.332
 21
110.899
  0
LINE
  8
0
 10
6.613
 11
6.028
 20
110.899
 21
110.501
  0
LINE
  8
0
 10
6.028
 11
5.42
 20
110.501
 21
110.142
  0
LINE
  8
0
 10
5.42
 11
4.79
 20
110.142
 21
109.821
  0
LINE
  8
0
 10
4.79
 11
4.141
 20
109.821
 21
109.54
  0
LINE
  8
0
 10
4.141
 11
3.476
 20
109.54
 21
109.301
  0
LINE
  8
0
 10
3.476
 11
2.798
 20
109.301
 21
109.103
  0
LINE
  8
0
 10
2.798
 11
2.108
 20
109.103
 21
108.949
  0
LINE
  8
0
 10
2.108
 11
1.41
 20
108.949
 21
108.839
  0
LINE
  8
0
 10
1.41
 11
0.706
 20
108.839
 21
108.772
  0
LINE
  8
0
 10
0.706
 11
0
 20
108.772
 21
108.75
  0
LINE
  8
0
 10
0
 11
-0.706
 20
108.75
 21
108.772
  0
LINE
  8
0
 10
-0.706
 11
-1.41
 20
108.772
 21
108.839
  0
LINE
  8
0
 10
-1.41
 11
-2.108
 20
108.839
 21
108.949
  0
LINE
  8
0
 10
-2.108
 11
-2.798
 20
108.949
 21
109.103
  0
LINE
  8
0
 10
-2.798
 11
-3.476
 20
109.103
 21
109.301
  0
LINE
  8
0
 10
-3.476
 11
-4.141
 20
109.301
 21
109.54
  0
LINE
  8
0
 10
-4.141
 11
-4.79
 20
109.54
 21
109.821
  0
LINE
  8
0
 10
-4.79
 11
-5.42
 20
109.821
 21
110.142
  0
LINE
  8
0
 10
-5.42
 11
-6.028
 20
110.142
 21
110.501
  0
LINE
  8
0
 10
-6.028
 11
-6.613
 20
110.501
 21
110.899
  0
LINE
  8
0
 10
-6.613
 11
-7.171
 20
110.899
 21
111.332
  0
LINE
  8
0
 10
-7.171
 11
-7.701
 20
111.332
 21
111.799
  0
LINE
  8
0
 10
-7.701
 11
-8.201
 20
111.799
 21
112.299
  0
LINE
  8
0
 10
-8.201
 11
-8.668
 20
112.299
 21
112.829
  0
LINE
  8
0
 10
-8.668
 11
-9.101
 20
112.829
 21
113.387
  0
LINE
  8
0
 10
-9.101
 11
-9.499
 20
113.387
 21
113.972
  0
LINE
  8
0
 10
-9.499
 11
-9.858
 20
113.972
 21
114.58
  0
LINE
  8
0
 10
-9.858
 11
-10.179
 20
114.58
 21
115.21
  0
LINE
  8
0
 10
-10.179
 11
-10.46
 20
115.21
 21
115.859
  0
LINE
  8
0
 10
-10.46
 11
-10.699
 20
115.859
 21
116.524
  0
LINE
  8
0
 10
-10.699
 11
-10.897
 20
116.524
 21
117.202
  0
LINE
  8
0
 10
-10.897
 11
-11.051
 20
117.202
 21
117.892
  0
LINE
  8
0
 10
-11.051
 11
-11.161
 20
117.892
 21
118.59
  0
LINE
  8
0
 10
-11.161
 11
-11.228
 20
118.59
 21
119.294
  0
LINE
  8
0
 10
-11.228
 11
-11.25
 20
119.294
 21
120
  0
LINE
  8
0
 10
-10
 11
-9.996
 20
-130
 21
-129.874
  0
LINE
  8
0
 10
-9.996
 11
-9.984
 20
-129.874
 21
-129.749
  0
LINE
  8
0
 10
-9.984
 11
-9.965
 20
-129.749
 21
-129.625
  0
LINE
  8
0
 10
-9.965
 11
-9.937
 20
-129.625
 21
-129.503
  0
LINE
  8
0
 10
-9.937
 11
-9.902
 20
-129.503
 21
-129.382
  0
LINE
  8
0
 10
-9.902
 11
-9.86
 20
-129.382
 21
-129.264
  0
LINE
  8
0
 10
-9.86
 11
-9.81
 20
-129.264
 21
-129.148
  0
LINE
  8
0
 10
-9.81
 11
-9.753
 20
-129.148
 21
-129.036
  0
LINE
  8
0
 10
-9.753
 11
-9.689
 20
-129.036
 21
-128.928
  0
LINE
  8
0
 10
-9.689
 11
-9.618
 20
-128.928
 21
-128.824
  0
LINE
  8
0
 10
-9.618
 11
-9.541
 20
-128.824
 21
-128.725
  0
LINE
  8
0
 10
-9.541
 11
-9.458
 20
-128.725
 21
-128.631
  0
LINE
  8
0
 10
-9.458
 11
-9.369
 20
-128.631
 21
-128.542
  0
LINE
  8
0
 10
-9.369
 11
-9.275
 20
-128.542
 21
-128.459
  0
LINE
  8
0
 10
-9.275
 11
-9.176
 20
-128.459
 21
-128.382
  0
LINE
  8
0
 10
-9.176
 11
-9.072
 20
-128.382
 21
-128.311
  0
LINE
  8
0
 10
-9.072
 11
-8.964
 20
-128.311
 21
-128.247
  0
LINE
  8
0
 10
-8.964
 11
-8.852
 20
-128.247
 21
-128.19
  0
LINE
  8
0
 10
-8.852
 11
-8.736
 20
-128.19
 21
-128.14
  0
LINE
  8
0
 10
-8.736
 11
-8.618
 20
-128.14
 21
-128.098
  0
LINE
  8
0
 10
-8.618
 11
-8.497
 20
-128.098
 21
-128.063
  0
LINE
  8
0
 10
-8.497
 11
-8.375
 20
-128.063
 21
-128.035
  0
LINE
  8
0
 10
-8.375
 11
-8.251
 20
-128.035
 21
-128.016
  0
LINE
  8
0
 10
-8.251
 11
-8.126
 20
-128.016
 21
-128.004
  0
LINE
  8
0
 10
-8.126
 11
-8
 20
-128.004
 21
-128
  0
LINE
  8
0
 10
-8
 11
-7.874
 20
-128
 21
-128.004
  0
LINE
  8
0
 10
-7.874
 11
-7.749
 20
-128.004
 21
-128.016
  0
LINE
  8
0
 10
-7.749
 11
-7.625
 20
-128.016
 21
-128.035
  0
LINE
  8
0
 10
-7.625
 11
-7.503
 20
-128.035
 21
-128.063
  0
LINE
  8
0
 10
-7.503
 11
-7.382
 20
-128.063
 21
-128.098
  0
LINE
  8
0
 10
-7.382
 11
-7.264
 20
-128.098
 21
-128.14
  0
LINE
  8
0
 10
-7.264
 11
-7.148
 20
-128.14
 21
-128.19
  0
LINE
  8
0
 10
-7.148
 11
-7.036
 20
-128.19
 21
-128.247
  0
LINE
  8
0
 10
-7.036
 11
-6.928
 20
-128.247
 21
-128.311
  0
LINE
  8
0
 10
-6.928
 11
-6.824
 20
-128.311
 21
-128.382
  0
LINE
  8
0
 10
-6.824
 11
-6.725
 20
-128.382
 21
-128.459
  0
LINE
  8
0
 10
-6.725
 11
-6.631
 20
-128.459
 21
-128.542
  0
LINE
  8
0
 10
-6.631
 11
-6.542
 20
-128.542
 21
-128.631
  0
LINE
  8
0
 10
-6.542
 11
-6.459
 20
-128.631
 21
-128.725
  0
LINE
  8
0
 10
-6.459
 11
-6.382
 20
-128.725
 21
-128.824
  0
LINE
  8
0
 10
-6.382
 11
-6.311
 20
-128.824
 21
-128.928
  0
LINE
  8
0
 10
-6.311
 11
-6.247
 20
-128.928
 21
-129.036
  0
LINE
  8
0
 10
-6.247
 11
-6.19
 20
-129.036
 21
-129.148
  0
LINE
  8
0
 10
-6.19
 11
-6.14
 20
-129.148
 21
-129.264
  0
LINE
  8
0
 10
-6.14
 11
-6.098
 20
-129.264
 21
-129.382
  0
LINE
  8
0
 10
-6.098
 11
-6.063
 20
-129.382
 21
-129.503
  0
LINE
  8
0
 10
-6.063
 11
-6.035
 20
-129.503
 21
-129.625
  0
LINE
  8
0
 10
-6.035
 11
-6.016
 20
-129.625
 21
-129.749
  0
LINE
  8
0
 10
-6.016
 11
-6.004
 20
-129.749
 21
-129.874
  0
LINE
  8
0
 10
-6.004
 11
-6
 20
-129.874
 21
-130
  0
LINE
  8
0
 10
-6
 11
-6.004
 20
-130
 21
-130.126
  0
LINE
  8
0
 10
-6.004
 11
-6.016
 20
-130.126
 21
-130.251
  0
LINE
  8
0
 10
-6.016
 11
-6.035
 20
-130.251
 21
-130.375
  0
LINE
  8
0
 10
-6.035
 11
-6.063
 20
-130.375
 21
-130.497
  0
LINE
  8
0
 10
-6.063
 11
-6.098
 20
-130.497
 21
-130.618
  0
LINE
  8
0
 10
-6.098
 11
-6.14
 20
-130.618
 21
-130.736
  0
LINE
  8
0
 10
-6.14
 11
-6.19
 20
-130.736
 21
-130.852
  0
LINE
  8
0
 10
-6.19
 11
-6.247
 20
-130.852
 21
-130.964
  0
LINE
  8
0
 10
-6.247
 11
-6.311
 20
-130.964
 21
-131.072
  0
LINE
  8
0
 10
-6.311
 11
-6.382
 20
-131.072
 21
-131.176
  0
LINE
  8
0
 10
-6.382
 11
-6.459
 20
-131.176
 21
-131.275
  0
LINE
  8
0
 10
-6.459
 11
-6.542
 20
-131.275
 21
-131.369
  0
LINE
  8
0
 10
-6.542
 11
-6.631
 20
-131.369
 21
-131.458
  0
LINE
  8
0
 10
-6.631
 11
-6.725
 20
-131.458
 21
-131.541
  0
LINE
  8
0
 10
-6.725
 11
-6.824
 20
-131.541
 21
-131.618
  0
LINE
  8
0
 10
-6.824
 11
-6.928
 20
-131.618
 21
-131.689
  0
LINE
  8
0
 10
-6.928
 11
-7.036
 20
-131.689
 21
-131.753
  0
LINE
  8
0
 10
-7.036
 11
-7.148
 20
-131.753
 21
-131.81
  0
LINE
  8
0
 10
-7.148
 11
-7.264
 20
-131.81
 21
-131.86
  0
LINE
  8
0
 10
-7.264
 11
-7.382
 20
-131.86
 21
-131.902
  0
LINE
  8
0
 10
-7.382
 11
-7.503
 20
-131.902
 21
-131.937
  0
LINE
  8
0
 10
-7.503
 11
-7.625
 20
-131.937
 21
-131.965
  0
LINE
  8
0
 10
-7.625
 11
-7.749
 20
-131.965
 21
-131.984
  0
LINE
  8
0
 10
-7.749
 11
-7.874
 20
-131.984
 21
-131.996
  0
LINE
  8
0
 10
-7.874
 11
-8
 20
-131.996
 21
-132
  0
LINE
  8
0
 10
-8
 11
-8.126
 20
-132
 21
-131.996
  0
LINE
  8
0
 10
-8.126
 11
-8.251
 20
-131.996
 21
-131.984
  0
LINE
  8
0
 10
-8.251
 11
-8.375
 20
-131.984
 21
-131.965
  0
LINE
  8
0
 10
-8.375
 11
-8.497
 20
-131.965
 21
-131.937
  0
LINE
  8
0
 10
-8.497
 11
-8.618
 20
-131.937
 21
-131.902
  0
LINE
  8
0
 10
-8.618
 11
-8.736
 20
-131.902
 21
-131.86
  0
LINE
  8
0
 10
-8.736
 11
-8.852
 20
-131.86
 21
-131.81
  0
LINE
  8
0
 10
-8.852
 11
-8.964
 20
-131.81
 21
-131.753
  0
LINE
  8
0
 10
-8.964
 11
-9.072
 20
-131.753
 21
-131.689
  0
LINE
  8
0
 10
-9.072
 11
-9.176
 20
-131.689
 21
-131.618
  0
LINE
  8
0
 10
-9.176
 11
-9.275
 20
-131.618
 21
-131.541
  0
LINE
  8
0
 10
-9.275
 11
-9.369
 20
-131.541
 21
-131.458
  0
LINE
  8
0
 10
-9.369
 11
-9.458
 20
-131.458
 21
-131.369
  0
LINE
  8
0
 10
-9.458
 11
-9.541
 20
-131.369
 21
-131.275
  0
LINE
  8
0
 10
-9.541
 11
-9.618
 20
-131.275
 21
-131.176
  0
LINE
  8
0
 10
-9.618
 11
-9.689
 20
-131.176
 21
-131.072
  0
LINE
  8
0
 10
-9.689
 11
-9.753
 20
-131.072
 21
-130.964
  0
LINE
  8
0
 10
-9.753
 11
-9.81
 20
-130.964
 21
-130.852
  0
LINE
  8
0
 10
-9.81
 11
-9.86
 20
-130.852
 21
-130.736
  0
LINE
  8
0
 10
-9.86
 11
-9.902
 20
-130.736
 21
-130.618
  0
LINE
  8
0
 10
-9.902
 11
-9.937
 20
-130.618
 21
-130.497
  0
LINE
  8
0
 10
-9.937
 11
-9.965
 20
-130.497
 21
-130.375
  0
LINE
  8
0
 10
-9.965
 11
-9.984
 20
-130.375
 21
-130.251
  0
LINE
  8
0
 10
-9.984
 11
-9.996
 20
-130.251
 21
-130.126
  0
LINE
  8
0
 10
-9.996
 11
-10
 20
-130.126
 21
-130
  0
LINE
  8
0
 10
-2
 11
-1.996
 20
-98
 21
-97.874
  0
LINE
  8
0
 10
-1.996
 11
-1.984
 20
-97.874
 21
-97.749
  0
LINE
  8
0
 10
-1.984
 11
-1.965
 20
-97.749
 21
-97.625
  0
LINE
  8
0
 10
-1.965
 11
-1.937
 20
-97.625
 21
-97.503
  0
LINE
  8
0
 10
-1.937
 11
-1.902
 20
-97.503
 21
-97.382
  0
LINE
  8
0
 10
-1.902
 11
-1.86
 20
-97.382
 21
-97.264
  0
LINE
  8
0
 10
-1.86
 11
-1.81
 20
-97.264
 21
-97.148
  0
LINE
  8
0
 10
-1.81
 11
-1.753
 20
-97.148
 21
-97.036
  0
LINE
  8
0
 10
-1.753
 11
-1.689
 20
-97.036
 21
-96.928
  0
LINE
  8
0
 10
-1.689
 11
-1.618
 20
-96.928
 21
-96.824
  0
LINE
  8
0
 10
-1.618
 11
-1.541
 20
-96.824
 21
-96.725
  0
LINE
  8
0
 10
-1.541
 11
-1.458
 20
-96.725
 21
-96.631
  0
LINE
  8
0
 10
-1.458
 11
-1.369
 20
-96.631
 21
-96.542
  0
LINE
  8
0
 10
-1.369
 11
-1.275
 20
-96.542
 21
-96.459
  0
LINE
  8
0
 10
-1.275
 11
-1.176
 20
-96.459
 21
-96.382
  0
LINE
  8
0
 10
-1.176
 11
-1.072
 20
-96.382
 21
-96.311
  0
LINE
  8
0
 10
-1.072
 11
-0.964
 20
-96.311
 21
-96.247
  0
LINE
  8
0
 10
-0.964
 11
-0.852
 20
-96.247
 21
-96.19
  0
LINE
  8
0
 10
-0.852
 11
-0.736
 20
-96.19
 21
-96.14
  0
LINE
  8
0
 10
-0.736
 11
-0.618
 20
-96.14
 21
-96.098
  0
LINE
  8
0
 10
-0.618
 11
-0.497
 20
-96.098
 21
-96.063
  0
LINE
  8
0
 10
-0.497
 11
-0.375
 20
-96.063
 21
-96.035
  0
LINE
  8
0
 10
-0.375
 11
-0.251
 20
-96.035
 21
-96.016
  0
LINE
  8
0
 10
-0.251
 11
-0.126
 20
-96.016
 21
-96.004
  0
LINE
  8
0
 10
-0.126
 11
0
 20
-96.004
 21
-96
  0
LINE
  8
0
 10
0
 11
0.126
 20
-96
 21
-96.004
  0
LINE
  8
0
 10
0.126
 11
0.251
 20
-96.004
 21
-96.016
  0
LINE
  8
0
 10
0.251
 11
0.375
 20
-96.016
 21
-96.035
  0
LINE
  8
0
 10
0.375
 11
0.497
 20
-96.035
 21
-96.063
  0
LINE
  8
0
 10
0.497
 11
0.618
 20
-96.063
 21
-96.098
  0
LINE
  8
0
 10
0.618
 11
0.736
 20
-96.098
 21
-96.14
  0
LINE
  8
0
 10
0.736
 11
0.852
 20
-96.14
 21
-96.19
  0
LINE
  8
0
 10
0.852
 11
0.964
 20
-96.19
 21
-96.247
  0
LINE
  8
0
 10
0.964
 11
1.072
 20
-96.247
 21
-96.311
  0
LINE
  8
0
 10
1.072
 11
1.176
 20
-96.311
 21
-96.382
  0
LINE
  8
0
 10
1.176
 11
1.275
 20
-96.382
 21
-96.459
  0
LINE
  8
0
 10
1.275
 11
1.369
 20
-96.459
 21
-96.542
  0
LINE
  8
0
 10
1.369
 11
1.458
 20
-96.542
 21
-96.631
  0
LINE
  8
0
 10
1.458
 11
1.541
 20
-96.631
 21
-96.725
  0
LINE
  8
0
 10
1.541
 11
1.618
 20
-96.725
 21
-96.824
  0
LINE
  8
0
 10
1.618
 11
1.689
 20
-96.824
 21
-96.928
  0
LINE
  8
0
 10
1.689
 11
1.753
 20
-96.928
 21
-97.036
  0
LINE
  8
0
 10
1.753
 11
1.81
 20
-97.036
 21
-97.148
  0
LINE
  8
0
 10
1.81
 11
1.86
 20
-97.148
 21
-97.264
  0
LINE
  8
0
 10
1.86
 11
1.902
 20
-97.264
 21
-97.382
  0
LINE
  8
0
 10
1.902
 11
1.937
 20
-97.382
 21
-97.503
  0
LINE
  8
0
 10
1.937
 11
1.965
 20
-97.503
 21
-97.625
  0
LINE
  8
0
 10
1.965
 11
1.984
 20
-97.625
 21
-97.749
  0
LINE
  8
0
 10
1.984
 11
1.996
 20
-97.749
 21
-97.874
  0
LINE
  8
0
 10
1.996
 11
2
 20
-97.874
 21
-98
  0
LINE
  8
0
 10
2
 11
1.996
 20
-98
 21
-98.126
  0
LINE
  8
0
 10
1.996
 11
1.984
 20
-98.126
 21
-98.251
  0
LINE
  8
0
 10
1.984
 11
1.965
 20
-98.251
 21
-98.375
  0
LINE
  8
0
 10
1.965
 11
1.937
 20
-98.375
 21
-98.497
  0
LINE
  8
0
 10
1.937
 11
1.902
 20
-98.497
 21
-98.618
  0
LINE
  8
0
 10
1.902
 11
1.86
 20
-98.618
 21
-98.736
  0
LINE
  8
0
 10
1.86
 11
1.81
 20
-98.736
 21
-98.852
  0
LINE
  8
0
 10
1.81
 11
1.753
 20
-98.852
 21
-98.964
  0
LINE
  8
0
 10
1.753
 11
1.689
 20
-98.964
 21
-99.072
  0
LINE
  8
0
 10
1.689
 11
1.618
 20
-99.072
 21
-99.176
  0
LINE
  8
0
 10
1.618
 11
1.541
 20
-99.176
 21
-99.275
  0
LINE
  8
0
 10
1.541
 11
1.458
 20
-99.275
 21
-99.369
  0
LINE
  8
0
 10
1.458
 11
1.369
 20
-99.369
 21
-99.458
  0
LINE
  8
0
 10
1.369
 11
1.275
 20
-99.458
 21
-99.541
  0
LINE
  8
0
 10
1.275
 11
1.176
 20
-99.541
 21
-99.618
  0
LINE
  8
0
 10
1.176
 11
1.072
 20
-99.618
 21
-99.689
  0
LINE
  8
0
 10
1.072
 11
0.964
 20
-99.689
 21
-99.753
  0
LINE
  8
0
 10
0.964
 11
0.852
 20
-99.753
 21
-99.81
  0
LINE
  8
0
 10
0.852
 11
0.736
 20
-99.81
 21
-99.86
  0
LINE
  8
0
 10
0.736
 11
0.618
 20
-99.86
 21
-99.902
  0
LINE
  8
0
 10
0.618
 11
0.497
 20
-99.902
 21
-99.937
  0
LINE
  8
0
 10
0.497
 11
0.375
 20
-99.937
 21
-99.965
  0
LINE
  8
0
 10
0.375
 11
0.251
 20
-99.965
 21
-99.984
  0
LINE
  8
0
 10
0.251
 11
0.126
 20
-99.984
 21
-99.996
  0
LINE
  8
0
 10
0.126
 11
0
 20
-99.996
 21
-100
  0
LINE
  8
0
 10
0
 11
-0.126
 20
-100
 21
-99.996
  0
LINE
  8
0
 10
-0.126
 11
-0.251
 20
-99.996
 21
-99.984
  0
LINE
  8
0
 10
-0.251
 11
-0.375
 20
-99.984
 21
-99.965
  0
LINE
  8
0
 10
-0.375
 11
-0.497
 20
-99.965
 21
-99.937
  0
LINE
  8
0
 10
-0.497
 11
-0.618
 20
-99.937
 21
-99.902
  0
LINE
  8
0
 10
-0.618
 11
-0.736
 20
-99.902
 21
-99.86
  0
LINE
  8
0
 10
-0.736
 11
-0.852
 20
-99.86
 21
-99.81
  0
LINE
  8
0
 10
-0.852
 11
-0.964
 20
-99.81
 21
-99.753
  0
LINE
  8
0
 10
-0.964
 11
-1.072
 20
-99.753
 21
-99.689
  0
LINE
  8
0
 10
-1.072
 11
-1.176
 20
-99.689
 21
-99.618
  0
LINE
  8
0
 10
-1.176
 11
-1.275
 20
-99.618
 21
-99.541
  0
LINE
  8
0
 10
-1.275
 11
-1.369
 20
-99.541
 21
-99.458
  0
LINE
  8
0
 10
-1.369
 11
-1.458
 20
-99.458
 21
-99.369
  0
LINE
  8
0
 10
-1.458
 11
-1.541
 20
-99.369
 21
-99.275
  0
LINE
  8
0
 10
-1.541
 11
-1.618
 20
-99.275
 21
-99.176
  0
LINE
  8
0
 10
-1.618
 11
-1.689
 20
-99.176
 21
-99.072
  0
LINE
  8
0
 10
-1.689
 11
-1.753
 20
-99.072
 21
-98.964
  0
LINE
  8
0
 10
-1.753
 11
-1.81
 20
-98.964
 21
-98.852
  0
LINE
  8
0
 10
-1.81
 11
-1.86
 20
-98.852
 21
-98.736
  0
LINE
  8
0
 10
-1.86
 11
-1.902
 20
-98.736
 21
-98.618
  0
LINE
  8
0
 10
-1.902
 11
-1.937
 20
-98.618
 21
-98.497
  0
LINE
  8
0
 10
-1.937
 11
-1.965
 20
-98.497
 21
-98.375
  0
LINE
  8
0
 10
-1.965
 11
-1.984
 20
-98.375
 21
-98.251
  0
LINE
  8
0
 10
-1.984
 11
-1.996
 20
-98.251
 21
-98.126
  0
LINE
  8
0
 10
-1.996
 11
-2
 20
-98.126
 21
-98
  0
LINE
  8
0
 10
6
 11
6.004
 20
-130
 21
-129.874
  0
LINE
  8
0
 10
6.004
 11
6.016
 20
-129.874
 21
-129.749
  0
LINE
  8
0
 10
6.016
 11
6.035
 20
-129.749
 21
-129.625
  0
LINE
  8
0
 10
6.035
 11
6.063
 20
-129.625
 21
-129.503
  0
LINE
  8
0
 10
6.063
 11
6.098
 20
-129.503
 21
-129.382
  0
LINE
  8
0
 10
6.098
 11
6.14
 20
-129.382
 21
-129.264
  0
LINE
  8
0
 10
6.14
 11
6.19
 20
-129.264
 21
-129.148
  0
LINE
  8
0
 10
6.19
 11
6.247
 20
-129.148
 21
-129.036
  0
LINE
  8
0
 10
6.247
 11
6.311
 20
-129.036
 21
-128.928
  0
LINE
  8
0
 10
6.311
 11
6.382
 20
-128.928
 21
-128.824
  0
LINE
  8
0
 10
6.382
 11
6.459
 20
-128.824
 21
-128.725
  0
LINE
  8
0
 10
6.459
 11
6.542
 20
-128.725
 21
-128.631
  0
LINE
  8
0
 10
6.542
 11
6.631
 20
-128.631
 21
-128.542
  0
LINE
  8
0
 10
6.631
 11
6.725
 20
-128.542
 21
-128.459
  0
LINE
  8
0
 10
6.725
 11
6.824
 20
-128.459
 21
-128.382
  0
LINE
  8
0
 10
6.824
 11
6.928
 20
-128.382
 21
-128.311
  0
LINE
  8
0
 10
6.928
 11
7.036
 20
-128.311
 21
-128.247
  0
LINE
  8
0
 10
7.036
 11
7.148
 20
-128.247
 21
-128.19
  0
LINE
  8
0
 10
7.148
 11
7.264
 20
-128.19
 21
-128.14
  0
LINE
  8
0
 10
7.264
 11
7.382
 20
-128.14
 21
-128.098
  0
LINE
  8
0
 10
7.382
 11
7.503
 20
-128.098
 21
-128.063
  0
LINE
  8
0
 10
7.503
 11
7.625
 20
-128.063
 21
-128.035
  0
LINE
  8
0
 10
7.625
 11
7.749
 20
-128.035
 21
-128.016
  0
LINE
  8
0
 10
7.749
 11
7.874
 20
-128.016
 21
-128.004
  0
LINE
  8
0
 10
7.874
 11
8
 20
-128.004
 21
-128
  0
LINE
  8
0
 10
8
 11
8.126
 20
-128
 21
-128.004
  0
LINE
  8
0
 10
8.126
 11
8.251
 20
-128.004
 21
-128.016
  0
LINE
  8
0
 10
8.251
 11
8.375
 20
-128.016
 21
-128.035
  0
LINE
  8
0
 10
8.375
 11
8.497
 20
-128.035
 21
-128.063
  0
LINE
  8
0
 10
8.497
 11
8.618
 20
-128.063
 21
-128.098
  0
LINE
  8
0
 10
8.618
 11
8.736
 20
-128.098
 21
-128.14
  0
LINE
  8
0
 10
8.736
 11
8.852
 20
-128.14
 21
-128.19
  0
LINE
  8
0
 10
8.852
 11
8.964
 20
-128.19
 21
-128.247
  0
LINE
  8
0
 10
8.964
 11
9.072
 20
-128.247
 21
-128.311
  0
LINE
  8
0
 10
9.072
 11
9.176
 20
-128.311
 21
-128.382
  0
LINE
  8
0
 10
9.176
 11
9.275
 20
-128.382
 21
-128.459
  0
LINE
  8
0
 10
9.275
 11
9.369
 20
-128.459
 21
-128.542
  0
LINE
  8
0
 10
9.369
 11
9.458
 20
-128.542
 21
-128.631
  0
LINE
  8
0
 10
9.458
 11
9.541
 20
-128.631
 21
-128.725
  0
LINE
  8
0
 10
9.541
 11
9.618
 20
-128.725
 21
-128.824
  0
LINE
  8
0
 10
9.618
 11
9.689
 20
-128.824
 21
-128.928
  0
LINE
  8
0
 10
9.689
 11
9.753
 20
-128.928
 21
-129.036
  0
LINE
  8
0
 10
9.753
 11
9.81
 20
-129.036
 21
-129.148
  0
LINE
  8
0
 10
9.81
 11
9.86
 20
-129.148
 21
-129.264
  0
LINE
  8
0
 10
9.86
 11
9.902
 20
-129.264
 21
-129.382
  0
LINE
  8
0
 10
9.902
 11
9.937
 20
-129.382
 21
-129.503
  0
LINE
  8
0
 10
9.937
 11
9.965
 20
-129.503
 21
-129.625
  0
LINE
  8
0
 10
9.965
 11
9.984
 20
-129.625
 21
-129.749
  0
LINE
  8
0
 10
9.984
 11
9.996
 20
-129.749
 21
-129.874
  0
LINE
  8
0
 10
9.996
 11
10
 20
-129.874
 21
-130
  0
LINE
  8
0
 10
10
 11
9.996
 20
-130
 21
-130.126
  0
LINE
  8
0
 10
9.996
 11
9.984
 20
-130.126
 21
-130.251
  0
LINE
  8
0
 10
9.984
 11
9.965
 20
-130.251
 21
-130.375
  0
LINE
  8
0
 10
9.965
 11
9.937
 20
-130.375
 21
-130.497
  0
LINE
  8
0
 10
9.937
 11
9.902
 20
-130.497
 21
-130.618
  0
LINE
  8
0
 10
9.902
 11
9.86
 20
-130.618
 21
-130.736
  0
LINE
  8
0
 10
9.86
 11
9.81
 20
-130.736
 21
-130.852
  0
LINE
  8
0
 10
9.81
 11
9.753
 20
-130.852
 21
-130.964
  0
LINE
  8
0
 10
9.753
 11
9.689
 20
-130.964
 21
-131.072
  0
LINE
  8
0
 10
9.689
 11
9.618
 20
-131.072
 21
-131.176
  0
LINE
  8
0
 10
9.618
 11
9.541
 20
-131.176
 21
-131.275
  0
LINE
  8
0
 10
9.541
 11
9.458
 20
-131.275
 21
-131.369
  0
LINE
  8
0
 10
9.458
 11
9.369
 20
-131.369
 21
-131.458
  0
LINE
  8
0
 10
9.369
 11
9.275
 20
-131.458
 21
-131.541
  0
LINE
  8
0
 10
9.275
 11
9.176
 20
-131.541
 21
-131.618
  0
LINE
  8
0
 10
9.176
 11
9.072
 20
-131.618
 21
-131.689
  0
LINE
  8
0
 10
9.072
 11
8.964
 20
-131.689
 21
-131.753
  0
LINE
  8
0
 10
8.964
 11
8.852
 20
-131.753
 21
-131.81
  0
LINE
  8
0
 10
8.852
 11
8.736
 20
-131.81
 21
-131.86
  0
LINE
  8
0
 10
8.736
 11
8.618
 20
-131.86
 21
-131.902
  0
LINE
  8
0
 10
8.618
 11
8.497
 20
-131.902
 21
-131.937
  0
LINE
  8
0
 10
8.497
 11
8.375
 20
-131.937
 21
-131.965
  0
LINE
  8
0
 10
8.375
 11
8.251
 20
-131.965
 21
-131.984
  0
LINE
  8
0
 10
8.251
 11
8.126
 20
-131.984
 21
-131.996
  0
LINE
  8
0
 10
8.126
 11
8
 20
-131.996
 21
-132
  0
LINE
  8
0
 10
8
 11
7.874
 20
-132
 21
-131.996
  0
LINE
  8
0
 10
7.874
 11
7.749
 20
-131.996
 21
-131.984
  0
LINE
  8
0
 10
7.749
 11
7.625
 20
-131.984
 21
-131.965
  0
LINE
  8
0
 10
7.625
 11
7.503
 20
-131.965
 21
-131.937
  0
LINE
  8
0
 10
7.503
 11
7.382
 20
-131.937
 21
-131.902
  0
LINE
  8
0
 10
7.382
 11
7.264
 20
-131.902
 21
-131.86
  0
LINE
  8
0
 10
7.264
 11
7.148
 20
-131.86
 21
-131.81
  0
LINE
  8
0
 10
7.148
 11
7.036
 20
-131.81
 21
-131.753
  0
LINE
  8
0
 10
7.036
 11
6.928
 20
-131.753
 21
-131.689
  0
LINE
  8
0
 10
6.928
 11
6.824
 20
-131.689
 21
-131.618
  0
LINE
  8
0
 10
6.824
 11
6.725
 20
-131.618
 21
-131.541
  0
LINE
  8
0
 10
6.725
 11
6.631
 20
-131.541
 21
-131.458
  0
LINE
  8
0
 10
6.631
 11
6.542
 20
-131.458
 21
-131.369
  0
LINE
  8
0
 10
6.542
 11
6.459
 20
-131.369
 21
-131.275
  0
LINE
  8
0
 10
6.459
 11
6.382
 20
-131.275
 21
-131.176
  0
LINE
  8
0
 10
6.382
 11
6.311
 20
-131.176
 21
-131.072
  0
LINE
  8
0
 10
6.311
 11
6.247
 20
-131.072
 21
-130.964
  0
LINE
  8
0
 10
6.247
 11
6.19
 20
-130.964
 21
-130.852
  0
LINE
  8
0
 10
6.19
 11
6.14
 20
-130.852
 21
-130.736
  0
LINE
  8
0
 10
6.14
 11
6.098
 20
-130.736
 21
-130.618
  0
LINE
  8
0
 10
6.098
 11
6.063
 20
-130.618
 21
-130.497
  0
LINE
  8
0
 10
6.063
 11
6.035
 20
-130.497
 21
-130.375
  0
LINE
  8
0
 10
6.035
 11
6.016
 20
-130.375
 21
-130.251
  0
LINE
  8
0
 10
6.016
 11
6.004
 20
-130.251
 21
-130.126
  0
LINE
  8
0
 10
6.004
 11
6
 20
-130.126
 21
-130
  0
LINE
  8
0
 10
19
 11
19.004
 20
-21
 21
-20.874
  0
LINE
  8
0
 10
19.004
 11
19.016
 20
-20.874
 21
-20.749
  0
LINE
  8
0
 10
19.016
 11
19.035
 20
-20.749
 21
-20.625
  0
LINE
  8
0
 10
19.035
 11
19.063
 20
-20.625
 21
-20.503
  0
LINE
  8
0
 10
19.063
 11
19.098
 20
-20.503
 21
-20.382
  0
LINE
  8
0
 10
19.098
 11
19.14
 20
-20.382
 21
-20.264
  0
LINE
  8
0
 10
19.14
 11
19.19
 20
-20.264
 21
-20.148
  0
LINE
  8
0
 10
19.19
 11
19.247
 20
-20.148
 21
-20.036
  0
LINE
  8
0
 10
19.247
 11
19.311
 20
-20.036
 21
-19.928
  0
LINE
  8
0
 10
19.311
 11
19.382
 20
-19.928
 21
-19.824
  0
LINE
  8
0
 10
19.382
 11
19.459
 20
-19.824
 21
-19.725
  0
LINE
  8
0
 10
19.459
 11
19.542
 20
-19.725
 21
-19.631
  0
LINE
  8
0
 10
19.542
 11
19.631
 20
-19.631
 21
-19.542
  0
LINE
  8
0
 10
19.631
 11
19.725
 20
-19.542
 21
-19.459
  0
LINE
  8
0
 10
19.725
 11
19.824
 20
-19.459
 21
-19.382
  0
LINE
  8
0
 10
19.824
 11
19.928
 20
-19.382
 21
-19.311
  0
LINE
  8
0
 10
19.928
 11
20.036
 20
-19.311
 21
-19.247
  0
LINE
  8
0
 10
20.036
 11
20.148
 20
-19.247
 21
-19.19
  0
LINE
  8
0
 10
20.148
 11
20.264
 20
-19.19
 21
-19.14
  0
LINE
  8
0
 10
20.264
 11
20.382
 20
-19.14
 21
-19.098
  0
LINE
  8
0
 10
20.382
 11
20.503
 20
-19.098
 21
-19.063
  0
LINE
  8
0
 10
20.503
 11
20.625
 20
-19.063
 21
-19.035
  0
LINE
  8
0
 10
20.625
 11
20.749
 20
-19.035
 21
-19.016
  0
LINE
  8
0
 10
20.749
 11
20.874
 20
-19.016
 21
-19.004
  0
LINE
  8
0
 10
20.874
 11
21
 20
-19.004
 21
-19
  0
LINE
  8
0
 10
21
 11
21.126
 20
-19
 21
-19.004
  0
LINE
  8
0
 10
21.126
 11
21.251
 20
-19.004
 21
-19.016
  0
LINE
  8
0
 10
21.251
 11
21.375
 20
-19.016
 21
-19.035
  0
LINE
  8
0
 10
21.375
 11
21.497
 20
-19.035
 21
-19.063
  0
LINE
  8
0
 10
21.497
 11
21.618
 20
-19.063
 21
-19.098
  0
LINE
  8
0
 10
21.618
 11
21.736
 20
-19.098
 21
-19.14
  0
LINE
  8
0
 10
21.736
 11
21.852
 20
-19.14
 21
-19.19
  0
LINE
  8
0
 10
21.852
 11
21.964
 20
-19.19
 21
-19.247
  0
LINE
  8
0
 10
21.964
 11
22.072
 20
-19.247
 21
-19.311
  0
LINE
  8
0
 10
22.072
 11
22.176
 20
-19.311
 21
-19.382
  0
LINE
  8
0
 10
22.176
 11
22.275
 20
-19.382
 21
-19.459
  0
LINE
  8
0
 10
22.275
 11
22.369
 20
-19.459
 21
-19.542
  0
LINE
  8
0
 10
22.369
 11
22.458
 20
-19.542
 21
-19.631
  0
LINE
  8
0
 10
22.458
 11
22.541
 20
-19.631
 21
-19.725
  0
LINE
  8
0
 10
22.541
 11
22.618
 20
-19.725
 21
-19.824
  0
LINE
  8
0
 10
22.618
 11
22.689
 20
-19.824
 21
-19.928
  0
LINE
  8
0
 10
22.689
 11
22.753
 20
-19.928
 21
-20.036
  0
LINE
  8
0
 10
22.753
 11
22.81
 20
-20.036
 21
-20.148
  0
LINE
  8
0
 10
22.81
 11
22.86
 20
-20.148
 21
-20.264
  0
LINE
  8
0
 10
22.86
 11
22.902
 20
-20.264
 21
-20.382
  0
LINE
  8
0
 10
22.902
 11
22.937
 20
-20.382
 21
-20.503
  0
LINE
  8
0
 10
22.937
 11
22.965
 20
-20.503
 21
-20.625
  0
LINE
  8
0
 10
22.965
 11
22.984
 20
-20.625
 21
-20.749
  0
LINE
  8
0
 10
22.984
 11
22.996
 20
-20.749
 21
-20.874
  0
LINE
  8
0
 10
22.996
 11
23
 20
-20.874
 21
-21
  0
LINE
  8
0
 10
23
 11
22.996
 20
-21
 21
-21.126
  0
LINE
  8
0
 10
22.996
 11
22.984
 20
-21.126
 21
-21.251
  0
LINE
  8
0
 10
22.984
 11
22.965
 20
-21.251
 21
-21.375
  0
LINE
  8
0
 10
22.965
 11
22.937
 20
-21.375
 21
-21.497
  0
LINE
  8
0
 10
22.937
 11
22.902
 20
-21.497
 21
-21.618
  0
LINE
  8
0
 10
22.902
 11
22.86
 20
-21.618
 21
-21.736
  0
LINE
  8
0
 10
22.86
 11
22.81
 20
-21.736
 21
-21.852
  0
LINE
  8
0
 10
22.81
 11
22.753
 20
-21.852
 21
-21.964
  0
LINE
  8
0
 10
22.753
 11
22.689
 20
-21.964
 21
-22.072
  0
LINE
  8
0
 10
22.689
 11
22.618
 20
-22.072
 21
-22.176
  0
LINE
  8
0
 10
22.618
 11
22.541
 20
-22.176
 21
-22.275
  0
LINE
  8
0
 10
22.541
 11
22.458
 20
-22.275
 21
-22.369
  0
LINE
  8
0
 10
22.458
 11
22.369
 20
-22.369
 21
-22.458
  0
LINE
  8
0
 10
22.369
 11
22.275
 20
-22.458
 21
-22.541
  0
LINE
  8
0
 10
22.275
 11
22.176
 20
-22.541
 21
-22.618
  0
LINE
  8
0
 10
22.176
 11
22.072
 20
-22.618
 21
-22.689
  0
LINE
  8
0
 10
22.072
 11
21.964
 20
-22.689
 21
-22.753
  0
LINE
  8
0
 10
21.964
 11
21.852
 20
-22.753
 21
-22.81
  0
LINE
  8
0
 10
21.852
 11
21.736
 20
-22.81
 21
-22.86
  0
LINE
  8
0
 10
21.736
 11
21.618
 20
-22.86
 21
-22.902
  0
LINE
  8
0
 10
21.618
 11
21.497
 20
-22.902
 21
-22.937
  0
LINE
  8
0
 10
21.497
 11
21.375
 20
-22.937
 21
-22.965
  0
LINE
  8
0
 10
21.375
 11
21.251
 20
-22.965
 21
-22.984
  0
LINE
  8
0
 10
21.251
 11
21.126
 20
-22.984
 21
-22.996
  0
LINE
  8
0
 10
21.126
 11
21
 20
-22.996
 21
-23
  0
LINE
  8
0
 10
21
 11
20.874
 20
-23
 21
-22.996
  0
LINE
  8
0
 10
20.874
 11
20.749
 20
-22.996
 21
-22.984
  0
LINE
  8
0
 10
20.749
 11
20.625
 20
-22.984
 21
-22.965
  0
LINE
  8
0
 10
20.625
 11
20.503
 20
-22.965
 21
-22.937
  0
LINE
  8
0
 10
20.503
 11
20.382
 20
-22.937
 21
-22.902
  0
LINE
  8
0
 10
20.382
 11
20.264
 20
-22.902
 21
-22.86
  0
LINE
  8
0
 10
20.264
 11
20.148
 20
-22.86
 21
-22.81
  0
LINE
  8
0
 10
20.148
 11
20.036
 20
-22.81
 21
-22.753
  0
LINE
  8
0
 10
20.036
 11
19.928
 20
-22.753
 21
-22.689
  0
LINE
  8
0
 10
19.928
 11
19.824
 20
-22.689
 21
-22.618
  0
LINE
  8
0
 10
19.824
 11
19.725
 20
-22.618
 21
-22.541
  0
LINE
  8
0
 10
19.725
 11
19.631
 20
-22.541
 21
-22.458
  0
LINE
  8
0
 10
19.631
 11
19.542
 20
-22.458
 21
-22.369
  0
LINE
  8
0
 10
19.542
 11
19.459
 20
-22.369
 21
-22.275
  0
LINE
  8
0
 10
19.459
 11
19.382
 20
-22.275
 21
-22.176
  0
LINE
  8
0
 10
19.382
 11
19.311
 20
-22.176
 21
-22.072
  0
LINE
  8
0
 10
19.311
 11
19.247
 20
-22.072
 21
-21.964
  0
LINE
  8
0
 10
19.247
 11
19.19
 20
-21.964
 21
-21.852
  0
LINE
  8
0
 10
19.19
 11
19.14
 20
-21.852
 21
-21.736
  0
LINE
  8
0
 10
19.14
 11
19.098
 20
-21.736
 21
-21.618
  0
LINE
  8
0
 10
19.098
 11
19.063
 20
-21.618
 21
-21.497
  0
LINE
  8
0
 10
19.063
 11
19.035
 20
-21.497
 21
-21.375
  0
LINE
  8
0
 10
19.035
 11
19.016
 20
-21.375
 21
-21.251
  0
LINE
  8
0
 10
19.016
 11
19.004
 20
-21.251
 21
-21.126
  0
LINE
  8
0
 10
19.004
 11
19
 20
-21.126
 21
-21
  0
LINE
  8
0
 10
19
 11
19.004
 20
21
 21
21.126
  0
LINE
  8
0
 10
19.004
 11
19.016
 20
21.126
 21
21.251
  0
LINE
  8
0
 10
19.016
 11
19.035
 20
21.251
 21
21.375
  0
LINE
  8
0
 10
19.035
 11
19.063
 20
21.375
 21
21.497
  0
LINE
  8
0
 10
19.063
 11
19.098
 20
21.497
 21
21.618
  0
LINE
  8
0
 10
19.098
 11
19.14
 20
21.618
 21
21.736
  0
LINE
  8
0
 10
19.14
 11
19.19
 20
21.736
 21
21.852
  0
LINE
  8
0
 10
19.19
 11
19.247
 20
21.852
 21
21.964
  0
LINE
  8
0
 10
19.247
 11
19.311
 20
21.964
 21
22.072
  0
LINE
  8
0
 10
19.311
 11
19.382
 20
22.072
 21
22.176
  0
LINE
  8
0
 10
19.382
 11
19.459
 20
22.176
 21
22.275
  0
LINE
  8
0
 10
19.459
 11
19.542
 20
22.275
 21
22.369
  0
LINE
  8
0
 10
19.542
 11
19.631
 20
22.369
 21
22.458
  0
LINE
  8
0
 10
19.631
 11
19.725
 20
22.458
 21
22.541
  0
LINE
  8
0
 10
19.725
 11
19.824
 20
22.541
 21
22.618
  0
LINE
  8
0
 10
19.824
 11
19.928
 20
22.618
 21
22.689
  0
LINE
  8
0
 10
19.928
 11
20.036
 20
22.689
 21
22.753
  0
LINE
  8
0
 10
20.036
 11
20.148
 20
22.753
 21
22.81
  0
LINE
  8
0
 10
20.148
 11
20.264
 20
22.81
 21
22.86
  0
LINE
  8
0
 10
20.264
 11
20.382
 20
22.86
 21
22.902
  0
LINE
  8
0
 10
20.382
 11
20.503
 20
22.902
 21
22.937
  0
LINE
  8
0
 10
20.503
 11
20.625
 20
22.937
 21
22.965
  0
LINE
  8
0
 10
20.625
 11
20.749
 20
22.965
 21
22.984
  0
LINE
  8
0
 10
20.749
 11
20.874
 20
22.984
 21
22.996
  0
LINE
  8
0
 10
20.874
 11
21
 20
22.996
 21
23
  0
LINE
  8
0
 10
21
 11
21.126
 20
23
 21
22.996
  0
LINE
  8
0
 10
21.126
 11
21.251
 20
22.996
 21
22.984
  0
LINE
  8
0
 10
21.251
 11
21.375
 20
22.984
 21
22.965
  0
LINE
  8
0
 10
21.375
 11
21.497
 20
22.965
 21
22.937
  0
LINE
  8
0
 10
21.497
 11
21.618
 20
22.937
 21
22.902
  0
LINE
  8
0
 10
21.618
 11
21.736
 20
22.902
 21
22.86
  0
LINE
  8
0
 10
21.736
 11
21.852
 20
22.86
 21
22.81
  0
LINE
  8
0
 10
21.852
 11
21.964
 20
22.81
 21
22.753
  0
LINE
  8
0
 10
21.964
 11
22.072
 20
22.753
 21
22.689
  0
LINE
  8
0
 10
22.072
 11
22.176
 20
22.689
 21
22.618
  0
LINE
  8
0
 10
22.176
 11
22.275
 20
22.618
 21
22.541
  0
LINE
  8
0
 10
22.275
 11
22.369
 20
22.541
 21
22.458
  0
LINE
  8
0
 10
22.369
 11
22.458
 20
22.458
 21
22.369
  0
LINE
  8
0
 10
22.458
 11
22.541
 20
22.369
 21
22.275
  0
LINE
  8
0
 10
22.541
 11
22.618
 20
22.275
 21
22.176
  0
LINE
  8
0
 10
22.618
 11
22.689
 20
22.176
 21
22.072
  0
LINE
  8
0
 10
22.689
 11
22.753
 20
22.072
 21
21.964
  0
LINE
  8
0
 10
22.753
 11
22.81
 20
21.964
 21
21.852
  0
LINE
  8
0
 10
22.81
 11
22.86
 20
21.852
 21
21.736
  0
LINE
  8
0
 10
22.86
 11
22.902
 20
21.736
 21
21.618
  0
LINE
  8
0
 10
22.902
 11
22.937
 20
21.618
 21
21.497
  0
LINE
  8
0
 10
22.937
 11
22.965
 20
21.497
 21
21.375
  0
LINE
  8
0
 10
22.965
 11
22.984
 20
21.375
 21
21.251
  0
LINE
  8
0
 10
22.984
 11
22.996
 20
21.251
 21
21.126
  0
LINE
  8
0
 10
22.996
 11
23
 20
21.126
 21
21
  0
LINE
  8
0
 10
23
 11
22.996
 20
21
 21
20.874
  0
LINE
  8
0
 10
22.996
 11
22.984
 20
20.874
 21
20.749
  0
LINE
  8
0
 10
22.984
 11
22.965
 20
20.749
 21
20.625
  0
LINE
  8
0
 10
22.965
 11
22.937
 20
20.625
 21
20.503
  0
LINE
  8
0
 10
22.937
 11
22.902
 20
20.503
 21
20.382
  0
LINE
  8
0
 10
22.902
 11
22.86
 20
20.382
 21
20.264
  0
LINE
  8
0
 10
22.86
 11
22.81
 20
20.264
 21
20.148
  0
LINE
  8
0
 10
22.81
 11
22.753
 20
20.148
 21
20.036
  0
LINE
  8
0
 10
22.753
 11
22.689
 20
20.036
 21
19.928
  0
LINE
  8
0
 10
22.689
 11
22.618
 20
19.928
 21
19.824
  0
LINE
  8
0
 10
22.618
 11
22.541
 20
19.824
 21
19.725
  0
LINE
  8
0
 10
22.541
 11
22.458
 20
19.725
 21
19.631
  0
LINE
  8
0
 10
22.458
 11
22.369
 20
19.631
 21
19.542
  0
LINE
  8
0
 10
22.369
 11
22.275
 20
19.542
 21
19.459
  0
LINE
  8
0
 10
22.275
 11
22.176
 20
19.459
 21
19.382
  0
LINE
  8
0
 10
22.176
 11
22.072
 20
19.382
 21
19.311
  0
LINE
  8
0
 10
22.072
 11
21.964
 20
19.311
 21
19.247
  0
LINE
  8
0
 10
21.964
 11
21.852
 20
19.247
 21
19.19
  0
LINE
  8
0
 10
21.852
 11
21.736
 20
19.19
 21
19.14
  0
LINE
  8
0
 10
21.736
 11
21.618
 20
19.14
 21
19.098
  0
LINE
  8
0
 10
21.618
 11
21.497
 20
19.098
 21
19.063
  0
LINE
  8
0
 10
21.497
 11
21.375
 20
19.063
 21
19.035
  0
LINE
  8
0
 10
21.375
 11
21.251
 20
19.035
 21
19.016
  0
LINE
  8
0
 10
21.251
 11
21.126
 20
19.016
 21
19.004
  0
LINE
  8
0
 10
21.126
 11
21
 20
19.004
 21
19
  0
LINE
  8
0
 10
21
 11
20.874
 20
19
 21
19.004
  0
LINE
  8
0
 10
20.874
 11
20.749
 20
19.004
 21
19.016
  0
LINE
  8
0
 10
20.749
 11
20.625
 20
19.016
 21
19.035
  0
LINE
  8
0
 10
20.625
 11
20.503
 20
19.035
 21
19.063
  0
LINE
  8
0
 10
20.503
 11
20.382
 20
19.063
 21
19.098
  0
LINE
  8
0
 10
20.382
 11
20.264
 20
19.098
 21
19.14
  0
LINE
  8
0
 10
20.264
 11
20.148
 20
19.14
 21
19.19
  0
LINE
  8
0
 10
20.148
 11
20.036
 20
19.19
 21
19.247
  0
LINE
  8
0
 10
20.036
 11
19.928
 20
19.247
 21
19.311
  0
LINE
  8
0
 10
19.928
 11
19.824
 20
19.311
 21
19.382
  0
LINE
  8
0
 10
19.824
 11
19.725
 20
19.382
 21
19.459
  0
LINE
  8
0
 10
19.725
 11
19.631
 20
19.459
 21
19.542
  0
LINE
  8
0
 10
19.631
 11
19.542
 20
19.542
 21
19.631
  0
LINE
  8
0
 10
19.542
 11
19.459
 20
19.631
 21
19.725
  0
LINE
  8
0
 10
19.459
 11
19.382
 20
19.725
 21
19.824
  0
LINE
  8
0
 10
19.382
 11
19.311
 20
19.824
 21
19.928
  0
LINE
  8
0
 10
19.311
 11
19.247
 20
19.928
 21
20.036
  0
LINE
  8
0
 10
19.247
 11
19.19
 20
20.036
 21
20.148
  0
LINE
  8
0
 10
19.19
 11
19.14
 20
20.148
 21
20.264
  0
LINE
  8
0
 10
19.14
 11
19.098
 20
20.264
 21
20.382
  0
LINE
  8
0
 10
19.098
 11
19.063
 20
20.382
 21
20.503
  0
LINE
  8
0
 10
19.063
 11
19.035
 20
20.503
 21
20.625
  0
LINE
  8
0
 10
19.035
 11
19.016
 20
20.625
 21
20.749
  0
LINE
  8
0
 10
19.016
 11
19.004
 20
20.749
 21
20.874
  0
LINE
  8
0
 10
19.004
 11
19
 20
20.874
 21
21
  0
LINE
  8
0
 10
24.475
 11
24.48
 20
75
 21
75.159
  0
LINE
  8
0
 10
24.48
 11
24.495
 20
75.159
 21
75.316
  0
LINE
  8
0
 10
24.495
 11
24.52
 20
75.316
 21
75.473
  0
LINE
  8
0
 10
24.52
 11
24.554
 20
75.473
 21
75.628
  0
LINE
  8
0
 10
24.554
 11
24.599
 20
75.628
 21
75.78
  0
LINE
  8
0
 10
24.599
 11
24.652
 20
75.78
 21
75.93
  0
LINE
  8
0
 10
24.652
 11
24.715
 20
75.93
 21
76.075
  0
LINE
  8
0
 10
24.715
 11
24.787
 20
76.075
 21
76.216
  0
LINE
  8
0
 10
24.787
 11
24.868
 20
76.216
 21
76.353
  0
LINE
  8
0
 10
24.868
 11
24.957
 20
76.353
 21
76.484
  0
LINE
  8
0
 10
24.957
 11
25.054
 20
76.484
 21
76.609
  0
LINE
  8
0
 10
25.054
 11
25.159
 20
76.609
 21
76.728
  0
LINE
  8
0
 10
25.159
 11
25.272
 20
76.728
 21
76.841
  0
LINE
  8
0
 10
25.272
 11
25.391
 20
76.841
 21
76.946
  0
LINE
  8
0
 10
25.391
 11
25.516
 20
76.946
 21
77.043
  0
LINE
  8
0
 10
25.516
 11
25.647
 20
77.043
 21
77.132
  0
LINE
  8
0
 10
25.647
 11
25.784
 20
77.132
 21
77.213
  0
LINE
  8
0
 10
25.784
 11
25.925
 20
77.213
 21
77.285
  0
LINE
  8
0
 10
25.925
 11
26.07
 20
77.285
 21
77.348
  0
LINE
  8
0
 10
26.07
 11
26.22
 20
77.348
 21
77.401
  0
LINE
  8
0
 10
26.22
 11
26.372
 20
77.401
 21
77.446
  0
LINE
  8
0
 10
26.372
 11
26.527
 20
77.446
 21
77.48
  0
LINE
  8
0
 10
26.527
 11
26.684
 20
77.48
 21
77.505
  0
LINE
  8
0
 10
26.684
 11
26.841
 20
77.505
 21
77.52
  0
LINE
  8
0
 10
26.841
 11
27
 20
77.52
 21
77.525
  0
LINE
  8
0
 10
27
 11
27.159
 20
77.525
 21
77.52
  0
LINE
  8
0
 10
27.159
 11
27.316
 20
77.52
 21
77.505
  0
LINE
  8
0
 10
27.316
 11
27.473
 20
77.505
 21
77.48
  0
LINE
  8
0
 10
27.473
 11
27.628
 20
77.48
 21
77.446
  0
LINE
  8
0
 10
27.628
 11
27.78
 20
77.446
 21
77.401
  0
LINE
  8
0
 10
27.78
 11
27.93
 20
77.401
 21
77.348
  0
LINE
  8
0
 10
27.93
 11
28.075
 20
77.348
 21
77.285
  0
LINE
  8
0
 10
28.075
 11
28.216
 20
77.285
 21
77.213
  0
LINE
  8
0
 10
28.216
 11
28.353
 20
77.213
 21
77.132
  0
LINE
  8
0
 10
28.353
 11
28.484
 20
77.132
 21
77.043
  0
LINE
  8
0
 10
28.484
 11
28.609
 20
77.043
 21
76.946
  0
LINE
  8
0
 10
28.609
 11
28.728
 20
76.946
 21
76.841
  0
LINE
  8
0
 10
28.728
 11
28.841
 20
76.841
 21
76.728
  0
LINE
  8
0
 10
28.841
 11
28.946
 20
76.728
 21
76.609
  0
LINE
  8
0
 10
28.946
 11
29.043
 20
76.609
 21
76.484
  0
LINE
  8
0
 10
29.043
 11
29.132
 20
76.484
 21
76.353
  0
LINE
  8
0
 10
29.132
 11
29.213
 20
76.353
 21
76.216
  0
LINE
  8
0
 10
29.213
 11
29.285
 20
76.216
 21
76.075
  0
LINE
  8
0
 10
29.285
 11
29.348
 20
76.075
 21
75.93
  0
LINE
  8
0
 10
29.348
 11
29.401
 20
75.93
 21
75.78
  0
LINE
  8
0
 10
29.401
 11
29.446
 20
75.78
 21
75.628
  0
LINE
  8
0
 10
29.446
 11
29.48
 20
75.628
 21
75.473
  0
LINE
  8
0
 10
29.48
 11
29.505
 20
75.473
 21
75.316
  0
LINE
  8
0
 10
29.505
 11
29.52
 20
75.316
 21
75.159
  0
LINE
  8
0
 10
29.52
 11
29.525
 20
75.159
 21
75
  0
LINE
  8
0
 10
29.525
 11
29.52
 20
75
 21
74.841
  0
LINE
  8
0
 10
29.52
 11
29.505
 20
74.841
 21
74.684
  0
LINE
  8
0
 10
29.505
 11
29.48
 20
74.684
 21
74.527
  0
LINE
  8
0
 10
29.48
 11
29.446
 20
74.527
 21
74.372
  0
LINE
  8
0
 10
29.446
 11
29.401
 20
74.372
 21
74.22
  0
LINE
  8
0
 10
29.401
 11
29.348
 20
74.22
 21
74.07
  0
LINE
  8
0
 10
29.348
 11
29.285
 20
74.07
 21
73.925
  0
LINE
  8
0
 10
29.285
 11
29.213
 20
73.925
 21
73.784
  0
LINE
  8
0
 10
29.213
 11
29.132
 20
73.784
 21
73.647
  0
LINE
  8
0
 10
29.132
 11
29.043
 20
73.647
 21
73.516
  0
LINE
  8
0
 10
29.043
 11
28.946
 20
73.516
 21
73.391
  0
LINE
  8
0
 10
28.946
 11
28.841
 20
73.391
 21
73.272
  0
LINE
  8
0
 10
28.841
 11
28.728
 20
73.272
 21
73.159
  0
LINE
  8
0
 10
28.728
 11
28.609
 20
73.159
 21
73.054
  0
LINE
  8
0
 10
28.609
 11
28.484
 20
73.054
 21
72.957
  0
LINE
  8
0
 10
28.484
 11
28.353
 20
72.957
 21
72.868
  0
LINE
  8
0
 10
28.353
 11
28.216
 20
72.868
 21
72.787
  0
LINE
  8
0
 10
28.216
 11
28.075
 20
72.787
 21
72.715
  0
LINE
  8
0
 10
28.075
 11
27.93
 20
72.715
 21
72.652
  0
LINE
  8
0
 10
27.93
 11
27.78
 20
72.652
 21
72.599
  0
LINE
  8
0
 10
27.78
 11
27.628
 20
72.599
 21
72.554
  0
LINE
  8
0
 10
27.628
 11
27.473
 20
72.554
 21
72.52
  0
LINE
  8
0
 10
27.473
 11
27.316
 20
72.52
 21
72.495
  0
LINE
  8
0
 10
27.316
 11
27.159
 20
72.495
 21
72.48
  0
LINE
  8
0
 10
27.159
 11
27
 20
72.48
 21
72.475
  0
LINE
  8
0
 10
27
 11
26.841
 20
72.475
 21
72.48
  0
LINE
  8
0
 10
26.841
 11
26.684
 20
72.48
 21
72.495
  0
LINE
  8
0
 10
26.684
 11
26.527
 20
72.495
 21
72.52
  0
LINE
  8
0
 10
26.527
 11
26.372
 20
72.52
 21
72.554
  0
LINE
  8
0
 10
26.372
 11
26.22
 20
72.554
 21
72.599
  0
LINE
  8
0
 10
26.22
 11
26.07
 20
72.599
 21
72.652
  0
LINE
  8
0
 10
26.07
 11
25.925
 20
72.652
 21
72.715
  0
LINE
  8
0
 10
25.925
 11
25.784
 20
72.715
 21
72.787
  0
LINE
  8
0
 10
25.784
 11
25.647
 20
72.787
 21
72.868
  0
LINE
  8
0
 10
25.647
 11
25.516
 20
72.868
 21
72.957
  0
LINE
  8
0
 10
25.516
 11
25.391
 20
72.957
 21
73.054
  0
LINE
  8
0
 10
25.391
 11
25.272
 20
73.054
 21
73.159
  0
LINE
  8
0
 10
25.272
 11
25.159
 20
73.159
 21
73.272
  0
LINE
  8
0
 10
25.159
 11
25.054
 20
73.272
 21
73.391
  0
LINE
  8
0
 10
25.054
 11
24.957
 20
73.391
 21
73.516
  0
LINE
  8
0
 10
24.957
 11
24.868
 20
73.516
 21
73.647
  0
LINE
  8
0
 10
24.868
 11
24.787
 20
73.647
 21
73.784
  0
LINE
  8
0
 10
24.787
 11
24.715
 20
73.784
 21
73.925
  0
LINE
  8
0
 10
24.715
 11
24.652
 20
73.925
 21
74.07
  0
LINE
  8
0
 10
24.652
 11
24.599
 20
74.07
 21
74.22
  0
LINE
  8
0
 10
24.599
 11
24.554
 20
74.22
 21
74.372
  0
LINE
  8
0
 10
24.554
 11
24.52
 20
74.372
 21
74.527
  0
LINE
  8
0
 10
24.52
 11
24.495
 20
74.527
 21
74.684
  0
LINE
  8
0
 10
24.495
 11
24.48
 20
74.684
 21
74.841
  0
LINE
  8
0
 10
24.48
 11
24.475
 20
74.841
 21
75
  0
LINE
  8
0
 10
57.5
 11
57.504
 20
-158.494
 21
-158.368
  0
LINE
  8
0
 10
57.504
 11
57.516
 20
-158.368
 21
-158.243
  0
LINE
  8
0
 10
57.516
 11
57.535
 20
-158.243
 21
-158.119
  0
LINE
  8
0
 10
57.535
 11
57.563
 20
-158.119
 21
-157.997
  0
LINE
  8
0
 10
57.563
 11
57.598
 20
-157.997
 21
-157.876
  0
LINE
  8
0
 10
57.598
 11
57.64
 20
-157.876
 21
-157.758
  0
LINE
  8
0
 10
57.64
 11
57.69
 20
-157.758
 21
-157.642
  0
LINE
  8
0
 10
57.69
 11
57.747
 20
-157.642
 21
-157.53
  0
LINE
  8
0
 10
57.747
 11
57.811
 20
-157.53
 21
-157.422
  0
LINE
  8
0
 10
57.811
 11
57.882
 20
-157.422
 21
-157.318
  0
LINE
  8
0
 10
57.882
 11
57.959
 20
-157.318
 21
-157.219
  0
LINE
  8
0
 10
57.959
 11
58.042
 20
-157.219
 21
-157.125
  0
LINE
  8
0
 10
58.042
 11
58.131
 20
-157.125
 21
-157.036
  0
LINE
  8
0
 10
58.131
 11
58.225
 20
-157.036
 21
-156.953
  0
LINE
  8
0
 10
58.225
 11
58.324
 20
-156.953
 21
-156.876
  0
LINE
  8
0
 10
58.324
 11
58.428
 20
-156.876
 21
-156.805
  0
LINE
  8
0
 10
58.428
 11
58.536
 20
-156.805
 21
-156.741
  0
LINE
  8
0
 10
58.536
 11
58.648
 20
-156.741
 21
-156.684
  0
LINE
  8
0
 10
58.648
 11
58.764
 20
-156.684
 21
-156.634
  0
LINE
  8
0
 10
58.764
 11
58.882
 20
-156.634
 21
-156.592
  0
LINE
  8
0
 10
58.882
 11
59.003
 20
-156.592
 21
-156.557
  0
LINE
  8
0
 10
59.003
 11
59.125
 20
-156.557
 21
-156.529
  0
LINE
  8
0
 10
59.125
 11
59.249
 20
-156.529
 21
-156.51
  0
LINE
  8
0
 10
59.249
 11
59.374
 20
-156.51
 21
-156.498
  0
LINE
  8
0
 10
59.374
 11
59.5
 20
-156.498
 21
-156.494
  0
LINE
  8
0
 10
59.5
 11
59.626
 20
-156.494
 21
-156.498
  0
LINE
  8
0
 10
59.626
 11
59.751
 20
-156.498
 21
-156.51
  0
LINE
  8
0
 10
59.751
 11
59.875
 20
-156.51
 21
-156.529
  0
LINE
  8
0
 10
59.875
 11
59.997
 20
-156.529
 21
-156.557
  0
LINE
  8
0
 10
59.997
 11
60.118
 20
-156.557
 21
-156.592
  0
LINE
  8
0
 10
60.118
 11
60.236
 20
-156.592
 21
-156.634
  0
LINE
  8
0
 10
60.236
 11
60.352
 20
-156.634
 21
-156.684
  0
LINE
  8
0
 10
60.352
 11
60.464
 20
-156.684
 21
-156.741
  0
LINE
  8
0
 10
60.464
 11
60.572
 20
-156.741
 21
-156.805
  0
LINE
  8
0
 10
60.572
 11
60.676
 20
-156.805
 21
-156.876
  0
LINE
  8
0
 10
60.676
 11
60.775
 20
-156.876
 21
-156.953
  0
LINE
  8
0
 10
60.775
 11
60.869
 20
-156.953
 21
-157.036
  0
LINE
  8
0
 10
60.869
 11
60.958
 20
-157.036
 21
-157.125
  0
LINE
  8
0
 10
60.958
 11
61.041
 20
-157.125
 21
-157.219
  0
LINE
  8
0
 10
61.041
 11
61.118
 20
-157.219
 21
-157.318
  0
LINE
  8
0
 10
61.118
 11
61.189
 20
-157.318
 21
-157.422
  0
LINE
  8
0
 10
61.189
 11
61.253
 20
-157.422
 21
-157.53
  0
LINE
  8
0
 10
61.253
 11
61.31
 20
-157.53
 21
-157.642
  0
LINE
  8
0
 10
61.31
 11
61.36
 20
-157.642
 21
-157.758
  0
LINE
  8
0
 10
61.36
 11
61.402
 20
-157.758
 21
-157.876
  0
LINE
  8
0
 10
61.402
 11
61.437
 20
-157.876
 21
-157.997
  0
LINE
  8
0
 10
61.437
 11
61.465
 20
-157.997
 21
-158.119
  0
LINE
  8
0
 10
61.465
 11
61.484
 20
-158.119
 21
-158.243
  0
LINE
  8
0
 10
61.484
 11
61.496
 20
-158.243
 21
-158.368
  0
LINE
  8
0
 10
61.496
 11
61.5
 20
-158.368
 21
-158.494
  0
LINE
  8
0
 10
61.5
 11
61.496
 20
-158.494
 21
-158.62
  0
LINE
  8
0
 10
61.496
 11
61.484
 20
-158.62
 21
-158.745
  0
LINE
  8
0
 10
61.484
 11
61.465
 20
-158.745
 21
-158.869
  0
LINE
  8
0
 10
61.465
 11
61.437
 20
-158.869
 21
-158.991
  0
LINE
  8
0
 10
61.437
 11
61.402
 20
-158.991
 21
-159.112
  0
LINE
  8
0
 10
61.402
 11
61.36
 20
-159.112
 21
-159.23
  0
LINE
  8
0
 10
61.36
 11
61.31
 20
-159.23
 21
-159.346
  0
LINE
  8
0
 10
61.31
 11
61.253
 20
-159.346
 21
-159.458
  0
LINE
  8
0
 10
61.253
 11
61.189
 20
-159.458
 21
-159.566
  0
LINE
  8
0
 10
61.189
 11
61.118
 20
-159.566
 21
-159.67
  0
LINE
  8
0
 10
61.118
 11
61.041
 20
-159.67
 21
-159.769
  0
LINE
  8
0
 10
61.041
 11
60.958
 20
-159.769
 21
-159.863
  0
LINE
  8
0
 10
60.958
 11
60.869
 20
-159.863
 21
-159.952
  0
LINE
  8
0
 10
60.869
 11
60.775
 20
-159.952
 21
-160.035
  0
LINE
  8
0
 10
60.775
 11
60.676
 20
-160.035
 21
-160.112
  0
LINE
  8
0
 10
60.676
 11
60.572
 20
-160.112
 21
-160.183
  0
LINE
  8
0
 10
60.572
 11
60.464
 20
-160.183
 21
-160.247
  0
LINE
  8
0
 10
60.464
 11
60.352
 20
-160.247
 21
-160.304
  0
LINE
  8
0
 10
60.352
 11
60.236
 20
-160.304
 21
-160.354
  0
LINE
  8
0
 10
60.236
 11
60.118
 20
-160.354
 21
-160.396
  0
LINE
  8
0
 10
60.118
 11
59.997
 20
-160.396
 21
-160.431
  0
LINE
  8
0
 10
59.997
 11
59.875
 20
-160.431
 21
-160.459
  0
LINE
  8
0
 10
59.875
 11
59.751
 20
-160.459
 21
-160.478
  0
LINE
  8
0
 10
59.751
 11
59.626
 20
-160.478
 21
-160.49
  0
LINE
  8
0
 10
59.626
 11
59.5
 20
-160.49
 21
-160.494
  0
LINE
  8
0
 10
59.5
 11
59.374
 20
-160.494
 21
-160.49
  0
LINE
  8
0
 10
59.374
 11
59.249
 20
-160.49
 21
-160.478
  0
LINE
  8
0
 10
59.249
 11
59.125
 20
-160.478
 21
-160.459
  0
LINE
  8
0
 10
59.125
 11
59.003
 20
-160.459
 21
-160.431
  0
LINE
  8
0
 10
59.003
 11
58.882
 20
-160.431
 21
-160.396
  0
LINE
  8
0
 10
58.882
 11
58.764
 20
-160.396
 21
-160.354
  0
LINE
  8
0
 10
58.764
 11
58.648
 20
-160.354
 21
-160.304
  0
LINE
  8
0
 10
58.648
 11
58.536
 20
-160.304
 21
-160.247
  0
LINE
  8
0
 10
58.536
 11
58.428
 20
-160.247
 21
-160.183
  0
LINE
  8
0
 10
58.428
 11
58.324
 20
-160.183
 21
-160.112
  0
LINE
  8
0
 10
58.324
 11
58.225
 20
-160.112
 21
-160.035
  0
LINE
  8
0
 10
58.225
 11
58.131
 20
-160.035
 21
-159.952
  0
LINE
  8
0
 10
58.131
 11
58.042
 20
-159.952
 21
-159.863
  0
LINE
  8
0
 10
58.042
 11
57.959
 20
-159.863
 21
-159.769
  0
LINE
  8
0
 10
57.959
 11
57.882
 20
-159.769
 21
-159.67
  0
LINE
  8
0
 10
57.882
 11
57.811
 20
-159.67
 21
-159.566
  0
LINE
  8
0
 10
57.811
 11
57.747
 20
-159.566
 21
-159.458
  0
LINE
  8
0
 10
57.747
 11
57.69
 20
-159.458
 21
-159.346
  0
LINE
  8
0
 10
57.69
 11
57.64
 20
-159.346
 21
-159.23
  0
LINE
  8
0
 10
57.64
 11
57.598
 20
-159.23
 21
-159.112
  0
LINE
  8
0
 10
57.598
 11
57.563
 20
-159.112
 21
-158.991
  0
LINE
  8
0
 10
57.563
 11
57.535
 20
-158.991
 21
-158.869
  0
LINE
  8
0
 10
57.535
 11
57.516
 20
-158.869
 21
-158.745
  0
LINE
  8
0
 10
57.516
 11
57.504
 20
-158.745
 21
-158.62
  0
LINE
  8
0
 10
57.504
 11
57.5
 20
-158.62
 21
-158.494
  0
LINE
  8
0
 10
57.5
 11
57.504
 20
158.494
 21
158.62
  0
LINE
  8
0
 10
57.504
 11
57.516
 20
158.62
 21
158.745
  0
LINE
  8
0
 10
57.516
 11
57.535
 20
158.745
 21
158.869
  0
LINE
  8
0
 10
57.535
 11
57.563
 20
158.869
 21
158.991
  0
LINE
  8
0
 10
57.563
 11
57.598
 20
158.991
 21
159.112
  0
LINE
  8
0
 10
57.598
 11
57.64
 20
159.112
 21
159.23
  0
LINE
  8
0
 10
57.64
 11
57.69
 20
159.23
 21
159.346
  0
LINE
  8
0
 10
57.69
 11
57.747
 20
159.346
 21
159.458
  0
LINE
  8
0
 10
57.747
 11
57.811
 20
159.458
 21
159.566
  0
LINE
  8
0
 10
57.811
 11
57.882
 20
159.566
 21
159.67
  0
LINE
  8
0
 10
57.882
 11
57.959
 20
159.67
 21
159.769
  0
LINE
  8
0
 10
57.959
 11
58.042
 20
159.769
 21
159.863
  0
LINE
  8
0
 10
58.042
 11
58.131
 20
159.863
 21
159.952
  0
LINE
  8
0
 10
58.131
 11
58.225
 20
159.952
 21
160.035
  0
LINE
  8
0
 10
58.225
 11
58.324
 20
160.035
 21
160.112
  0
LINE
  8
0
 10
58.324
 11
58.428
 20
160.112
 21
160.183
  0
LINE
  8
0
 10
58.428
 11
58.536
 20
160.183
 21
160.247
  0
LINE
  8
0
 10
58.536
 11
58.648
 20
160.247
 21
160.304
  0
LINE
  8
0
 10
58.648
 11
58.764
 20
160.304
 21
160.354
  0
LINE
  8
0
 10
58.764
 11
58.882
 20
160.354
 21
160.396
  0
LINE
  8
0
 10
58.882
 11
59.003
 20
160.396
 21
160.431
  0
LINE
  8
0
 10
59.003
 11
59.125
 20
160.431
 21
160.459
  0
LINE
  8
0
 10
59.125
 11
59.249
 20
160.459
 21
160.478
  0
LINE
  8
0
 10
59.249
 11
59.374
 20
160.478
 21
160.49
  0
LINE
  8
0
 10
59.374
 11
59.5
 20
160.49
 21
160.494
  0
LINE
  8
0
 10
59.5
 11
59.626
 20
160.494
 21
160.49
  0
LINE
  8
0
 10
59.626
 11
59.751
 20
160.49
 21
160.478
  0
LINE
  8
0
 10
59.751
 11
59.875
 20
160.478
 21
160.459
  0
LINE
  8
0
 10
59.875
 11
59.997
 20
160.459
 21
160.431
  0
LINE
  8
0
 10
59.997
 11
60.118
 20
160.431
 21
160.396
  0
LINE
  8
0
 10
60.118
 11
60.236
 20
160.396
 21
160.354
  0
LINE
  8
0
 10
60.236
 11
60.352
 20
160.354
 21
160.304
  0
LINE
  8
0
 10
60.352
 11
60.464
 20
160.304
 21
160.247
  0
LINE
  8
0
 10
60.464
 11
60.572
 20
160.247
 21
160.183
  0
LINE
  8
0
 10
60.572
 11
60.676
 20
160.183
 21
160.112
  0
LINE
  8
0
 10
60.676
 11
60.775
 20
160.112
 21
160.035
  0
LINE
  8
0
 10
60.775
 11
60.869
 20
160.035
 21
159.952
  0
LINE
  8
0
 10
60.869
 11
60.958
 20
159.952
 21
159.863
  0
LINE
  8
0
 10
60.958
 11
61.041
 20
159.863
 21
159.769
  0
LINE
  8
0
 10
61.041
 11
61.118
 20
159.769
 21
159.67
  0
LINE
  8
0
 10
61.118
 11
61.189
 20
159.67
 21
159.566
  0
LINE
  8
0
 10
61.189
 11
61.253
 20
159.566
 21
159.458
  0
LINE
  8
0
 10
61.253
 11
61.31
 20
159.458
 21
159.346
  0
LINE
  8
0
 10
61.31
 11
61.36
 20
159.346
 21
159.23
  0
LINE
  8
0
 10
61.36
 11
61.402
 20
159.23
 21
159.112
  0
LINE
  8
0
 10
61.402
 11
61.437
 20
159.112
 21
158.991
  0
LINE
  8
0
 10
61.437
 11
61.465
 20
158.991
 21
158.869
  0
LINE
  8
0
 10
61.465
 11
61.484
 20
158.869
 21
158.745
  0
LINE
  8
0
 10
61.484
 11
61.496
 20
158.745
 21
158.62
  0
LINE
  8
0
 10
61.496
 11
61.5
 20
158.62
 21
158.494
  0
LINE
  8
0
 10
61.5
 11
61.496
 20
158.494
 21
158.368
  0
LINE
  8
0
 10
61.496
 11
61.484
 20
158.368
 21
158.243
  0
LINE
  8
0
 10
61.484
 11
61.465
 20
158.243
 21
158.119
  0
LINE
  8
0
 10
61.465
 11
61.437
 20
158.119
 21
157.997
  0
LINE
  8
0
 10
61.437
 11
61.402
 20
157.997
 21
157.876
  0
LINE
  8
0
 10
61.402
 11
61.36
 20
157.876
 21
157.758
  0
LINE
  8
0
 10
61.36
 11
61.31
 20
157.758
 21
157.642
  0
LINE
  8
0
 10
61.31
 11
61.253
 20
157.642
 21
157.53
  0
LINE
  8
0
 10
61.253
 11
61.189
 20
157.53
 21
157.422
  0
LINE
  8
0
 10
61.189
 11
61.118
 20
157.422
 21
157.318
  0
LINE
  8
0
 10
61.118
 11
61.041
 20
157.318
 21
157.219
  0
LINE
  8
0
 10
61.041
 11
60.958
 20
157.219
 21
157.125
  0
LINE
  8
0
 10
60.958
 11
60.869
 20
157.125
 21
157.036
  0
LINE
  8
0
 10
60.869
 11
60.775
 20
157.036
 21
156.953
  0
LINE
  8
0
 10
60.775
 11
60.676
 20
156.953
 21
156.876
  0
LINE
  8
0
 10
60.676
 11
60.572
 20
156.876
 21
156.805
  0
LINE
  8
0
 10
60.572
 11
60.464
 20
156.805
 21
156.741
  0
LINE
  8
0
 10
60.464
 11
60.352
 20
156.741
 21
156.684
  0
LINE
  8
0
 10
60.352
 11
60.236
 20
156.684
 21
156.634
  0
LINE
  8
0
 10
60.236
 11
60.118
 20
156.634
 21
156.592
  0
LINE
  8
0
 10
60.118
 11
59.997
 20
156.592
 21
156.557
  0
LINE
  8
0
 10
59.997
 11
59.875
 20
156.557
 21
156.529
  0
LINE
  8
0
 10
59.875
 11
59.751
 20
156.529
 21
156.51
  0
LINE
  8
0
 10
59.751
 11
59.626
 20
156.51
 21
156.498
  0
LINE
  8
0
 10
59.626
 11
59.5
 20
156.498
 21
156.494
  0
LINE
  8
0
 10
59.5
 11
59.374
 20
156.494
 21
156.498
  0
LINE
  8
0
 10
59.374
 11
59.249
 20
156.498
 21
156.51
  0
LINE
  8
0
 10
59.249
 11
59.125
 20
156.51
 21
156.529
  0
LINE
  8
0
 10
59.125
 11
59.003
 20
156.529
 21
156.557
  0
LINE
  8
0
 10
59.003
 11
58.882
 20
156.557
 21
156.592
  0
LINE
  8
0
 10
58.882
 11
58.764
 20
156.592
 21
156.634
  0
LINE
  8
0
 10
58.764
 11
58.648
 20
156.634
 21
156.684
  0
LINE
  8
0
 10
58.648
 11
58.536
 20
156.684
 21
156.741
  0
LINE
  8
0
 10
58.536
 11
58.428
 20
156.741
 21
156.805
  0
LINE
  8
0
 10
58.428
 11
58.324
 20
156.805
 21
156.876
  0
LINE
  8
0
 10
58.324
 11
58.225
 20
156.876
 21
156.953
  0
LINE
  8
0
 10
58.225
 11
58.131
 20
156.953
 21
157.036
  0
LINE
  8
0
 10
58.131
 11
58.042
 20
157.036
 21
157.125
  0
LINE
  8
0
 10
58.042
 11
57.959
 20
157.125
 21
157.219
  0
LINE
  8
0
 10
57.959
 11
57.882
 20
157.219
 21
157.318
  0
LINE
  8
0
 10
57.882
 11
57.811
 20
157.318
 21
157.422
  0
LINE
  8
0
 10
57.811
 11
57.747
 20
157.422
 21
157.53
  0
LINE
  8
0
 10
57.747
 11
57.69
 20
157.53
 21
157.642
  0
LINE
  8
0
 10
57.69
 11
57.64
 20
157.642
 21
157.758
  0
LINE
  8
0
 10
57.64
 11
57.598
 20
157.758
 21
157.876
  0
LINE
  8
0
 10
57.598
 11
57.563
 20
157.876
 21
157.997
  0
LINE
  8
0
 10
57.563
 11
57.535
 20
157.997
 21
158.119
  0
LINE
  8
0
 10
57.535
 11
57.516
 20
158.119
 21
158.243
  0
LINE
  8
0
 10
57.516
 11
57.504
 20
158.243
 21
158.368
  0
LINE
  8
0
 10
57.504
 11
57.5
 20
158.368
 21
158.494
  0
ENDSEC
  0
SECTION
  2
OBJECTS
  0
DICTIONARY
  0
ENDSEC
  0
EOF
