  0
SECTION
  2
BLOCKS
  0
ENDSEC
  0
SECTION
  2
ENTITIES
  0
LINE
  8
0
 10
-168.995
 11
-168.995
 20
-70
 21
-50
  0
LINE
  8
0
 10
-168.995
 11
-93.994
 20
-50
 21
-50
  0
LINE
  8
0
 10
-93.994
 11
-93.994
 20
-50
 21
50
  0
LINE
  8
0
 10
-93.994
 11
-168.995
 20
50
 21
50
  0
LINE
  8
0
 10
-168.995
 11
-168.995
 20
50
 21
70
  0
LINE
  8
0
 10
-168.995
 11
-70
 20
70
 21
168.995
  0
LINE
  8
0
 10
-70
 11
70
 20
168.995
 21
168.995
  0
LINE
  8
0
 10
70
 11
168.994
 20
168.995
 21
70
  0
LINE
  8
0
 10
168.994
 11
164.599
 20
70
 21
69.862
  0
LINE
  8
0
 10
164.599
 11
160.221
 20
69.862
 21
69.448
  0
LINE
  8
0
 10
160.221
 11
155.877
 20
69.448
 21
68.76
  0
LINE
  8
0
 10
155.877
 11
151.586
 20
68.76
 21
67.801
  0
LINE
  8
0
 10
151.586
 11
147.363
 20
67.801
 21
66.574
  0
LINE
  8
0
 10
147.363
 11
143.225
 20
66.574
 21
65.084
  0
LINE
  8
0
 10
143.225
 11
139.189
 20
65.084
 21
63.338
  0
LINE
  8
0
 10
139.189
 11
135.271
 20
63.338
 21
61.341
  0
LINE
  8
0
 10
135.271
 11
131.486
 20
61.341
 21
59.103
  0
LINE
  8
0
 10
131.486
 11
127.849
 20
59.103
 21
56.631
  0
LINE
  8
0
 10
127.849
 11
124.374
 20
56.631
 21
53.936
  0
LINE
  8
0
 10
124.374
 11
121.076
 20
53.936
 21
51.028
  0
LINE
  8
0
 10
121.076
 11
117.966
 20
51.028
 21
47.918
  0
LINE
  8
0
 10
117.966
 11
115.058
 20
47.918
 21
44.62
  0
LINE
  8
0
 10
115.058
 11
112.363
 20
44.62
 21
41.145
  0
LINE
  8
0
 10
112.363
 11
109.891
 20
41.145
 21
37.508
  0
LINE
  8
0
 10
109.891
 11
107.653
 20
37.508
 21
33.723
  0
LINE
  8
0
 10
107.653
 11
105.656
 20
33.723
 21
29.805
  0
LINE
  8
0
 10
105.656
 11
103.91
 20
29.805
 21
25.769
  0
LINE
  8
0
 10
103.91
 11
102.42
 20
25.769
 21
21.631
  0
LINE
  8
0
 10
102.42
 11
101.193
 20
21.631
 21
17.408
  0
LINE
  8
0
 10
101.193
 11
100.234
 20
17.408
 21
13.117
  0
LINE
  8
0
 10
100.234
 11
99.546
 20
13.117
 21
8.773
  0
LINE
  8
0
 10
99.546
 11
99.132
 20
8.773
 21
4.395
  0
LINE
  8
0
 10
99.132
 11
98.994
 20
4.395
 21
0
  0
LINE
  8
0
 10
98.994
 11
99.132
 20
0
 21
-4.395
  0
LINE
  8
0
 10
99.132
 11
99.546
 20
-4.395
 21
-8.773
  0
LINE
  8
0
 10
99.546
 11
100.234
 20
-8.773
 21
-13.117
  0
LINE
  8
0
 10
100.234
 11
101.193
 20
-13.117
 21
-17.408
  0
LINE
  8
0
 10
101.193
 11
102.42
 20
-17.408
 21
-21.631
  0
LINE
  8
0
 10
102.42
 11
103.91
 20
-21.631
 21
-25.769
  0
LINE
  8
0
 10
103.91
 11
105.656
 20
-25.769
 21
-29.805
  0
LINE
  8
0
 10
105.656
 11
107.653
 20
-29.805
 21
-33.723
  0
LINE
  8
0
 10
107.653
 11
109.891
 20
-33.723
 21
-37.508
  0
LINE
  8
0
 10
109.891
 11
112.363
 20
-37.508
 21
-41.145
  0
LINE
  8
0
 10
112.363
 11
115.058
 20
-41.145
 21
-44.62
  0
LINE
  8
0
 10
115.058
 11
117.966
 20
-44.62
 21
-47.918
  0
LINE
  8
0
 10
117.966
 11
121.076
 20
-47.918
 21
-51.028
  0
LINE
  8
0
 10
121.076
 11
124.374
 20
-51.028
 21
-53.936
  0
LINE
  8
0
 10
124.374
 11
127.849
 20
-53.936
 21
-56.631
  0
LINE
  8
0
 10
127.849
 11
131.486
 20
-56.631
 21
-59.103
  0
LINE
  8
0
 10
131.486
 11
135.271
 20
-59.103
 21
-61.341
  0
LINE
  8
0
 10
135.271
 11
139.189
 20
-61.341
 21
-63.338
  0
LINE
  8
0
 10
139.189
 11
143.225
 20
-63.338
 21
-65.084
  0
LINE
  8
0
 10
143.225
 11
147.363
 20
-65.084
 21
-66.574
  0
LINE
  8
0
 10
147.363
 11
151.586
 20
-66.574
 21
-67.801
  0
LINE
  8
0
 10
151.586
 11
155.877
 20
-67.801
 21
-68.76
  0
LINE
  8
0
 10
155.877
 11
160.221
 20
-68.76
 21
-69.448
  0
LINE
  8
0
 10
160.221
 11
164.599
 20
-69.448
 21
-69.862
  0
LINE
  8
0
 10
164.599
 11
168.995
 20
-69.862
 21
-70
  0
LINE
  8
0
 10
168.995
 11
70
 20
-70
 21
-168.995
  0
LINE
  8
0
 10
70
 11
-70
 20
-168.995
 21
-168.995
  0
LINE
  8
0
 10
-70
 11
-168.995
 20
-168.995
 21
-70
  0
LINE
  8
0
 10
-66.5
 11
-66.496
 20
-163.494
 21
-163.368
  0
LINE
  8
0
 10
-66.496
 11
-66.484
 20
-163.368
 21
-163.243
  0
LINE
  8
0
 10
-66.484
 11
-66.465
 20
-163.243
 21
-163.119
  0
LINE
  8
0
 10
-66.465
 11
-66.437
 20
-163.119
 21
-162.997
  0
LINE
  8
0
 10
-66.437
 11
-66.402
 20
-162.997
 21
-162.876
  0
LINE
  8
0
 10
-66.402
 11
-66.36
 20
-162.876
 21
-162.758
  0
LINE
  8
0
 10
-66.36
 11
-66.31
 20
-162.758
 21
-162.642
  0
LINE
  8
0
 10
-66.31
 11
-66.253
 20
-162.642
 21
-162.53
  0
LINE
  8
0
 10
-66.253
 11
-66.189
 20
-162.53
 21
-162.422
  0
LINE
  8
0
 10
-66.189
 11
-66.118
 20
-162.422
 21
-162.318
  0
LINE
  8
0
 10
-66.118
 11
-66.041
 20
-162.318
 21
-162.219
  0
LINE
  8
0
 10
-66.041
 11
-65.958
 20
-162.219
 21
-162.125
  0
LINE
  8
0
 10
-65.958
 11
-65.869
 20
-162.125
 21
-162.036
  0
LINE
  8
0
 10
-65.869
 11
-65.775
 20
-162.036
 21
-161.953
  0
LINE
  8
0
 10
-65.775
 11
-65.676
 20
-161.953
 21
-161.876
  0
LINE
  8
0
 10
-65.676
 11
-65.572
 20
-161.876
 21
-161.805
  0
LINE
  8
0
 10
-65.572
 11
-65.464
 20
-161.805
 21
-161.741
  0
LINE
  8
0
 10
-65.464
 11
-65.352
 20
-161.741
 21
-161.684
  0
LINE
  8
0
 10
-65.352
 11
-65.236
 20
-161.684
 21
-161.634
  0
LINE
  8
0
 10
-65.236
 11
-65.118
 20
-161.634
 21
-161.592
  0
LINE
  8
0
 10
-65.118
 11
-64.997
 20
-161.592
 21
-161.557
  0
LINE
  8
0
 10
-64.997
 11
-64.875
 20
-161.557
 21
-161.529
  0
LINE
  8
0
 10
-64.875
 11
-64.751
 20
-161.529
 21
-161.51
  0
LINE
  8
0
 10
-64.751
 11
-64.626
 20
-161.51
 21
-161.498
  0
LINE
  8
0
 10
-64.626
 11
-64.5
 20
-161.498
 21
-161.494
  0
LINE
  8
0
 10
-64.5
 11
-64.374
 20
-161.494
 21
-161.498
  0
LINE
  8
0
 10
-64.374
 11
-64.249
 20
-161.498
 21
-161.51
  0
LINE
  8
0
 10
-64.249
 11
-64.125
 20
-161.51
 21
-161.529
  0
LINE
  8
0
 10
-64.125
 11
-64.003
 20
-161.529
 21
-161.557
  0
LINE
  8
0
 10
-64.003
 11
-63.882
 20
-161.557
 21
-161.592
  0
LINE
  8
0
 10
-63.882
 11
-63.764
 20
-161.592
 21
-161.634
  0
LINE
  8
0
 10
-63.764
 11
-63.648
 20
-161.634
 21
-161.684
  0
LINE
  8
0
 10
-63.648
 11
-63.536
 20
-161.684
 21
-161.741
  0
LINE
  8
0
 10
-63.536
 11
-63.428
 20
-161.741
 21
-161.805
  0
LINE
  8
0
 10
-63.428
 11
-63.324
 20
-161.805
 21
-161.876
  0
LINE
  8
0
 10
-63.324
 11
-63.225
 20
-161.876
 21
-161.953
  0
LINE
  8
0
 10
-63.225
 11
-63.131
 20
-161.953
 21
-162.036
  0
LINE
  8
0
 10
-63.131
 11
-63.042
 20
-162.036
 21
-162.125
  0
LINE
  8
0
 10
-63.042
 11
-62.959
 20
-162.125
 21
-162.219
  0
LINE
  8
0
 10
-62.959
 11
-62.882
 20
-162.219
 21
-162.318
  0
LINE
  8
0
 10
-62.882
 11
-62.811
 20
-162.318
 21
-162.422
  0
LINE
  8
0
 10
-62.811
 11
-62.747
 20
-162.422
 21
-162.53
  0
LINE
  8
0
 10
-62.747
 11
-62.69
 20
-162.53
 21
-162.642
  0
LINE
  8
0
 10
-62.69
 11
-62.64
 20
-162.642
 21
-162.758
  0
LINE
  8
0
 10
-62.64
 11
-62.598
 20
-162.758
 21
-162.876
  0
LINE
  8
0
 10
-62.598
 11
-62.563
 20
-162.876
 21
-162.997
  0
LINE
  8
0
 10
-62.563
 11
-62.535
 20
-162.997
 21
-163.119
  0
LINE
  8
0
 10
-62.535
 11
-62.516
 20
-163.119
 21
-163.243
  0
LINE
  8
0
 10
-62.516
 11
-62.504
 20
-163.243
 21
-163.368
  0
LINE
  8
0
 10
-62.504
 11
-62.5
 20
-163.368
 21
-163.494
  0
LINE
  8
0
 10
-62.5
 11
-62.504
 20
-163.494
 21
-163.62
  0
LINE
  8
0
 10
-62.504
 11
-62.516
 20
-163.62
 21
-163.745
  0
LINE
  8
0
 10
-62.516
 11
-62.535
 20
-163.745
 21
-163.869
  0
LINE
  8
0
 10
-62.535
 11
-62.563
 20
-163.869
 21
-163.991
  0
LINE
  8
0
 10
-62.563
 11
-62.598
 20
-163.991
 21
-164.112
  0
LINE
  8
0
 10
-62.598
 11
-62.64
 20
-164.112
 21
-164.23
  0
LINE
  8
0
 10
-62.64
 11
-62.69
 20
-164.23
 21
-164.346
  0
LINE
  8
0
 10
-62.69
 11
-62.747
 20
-164.346
 21
-164.458
  0
LINE
  8
0
 10
-62.747
 11
-62.811
 20
-164.458
 21
-164.566
  0
LINE
  8
0
 10
-62.811
 11
-62.882
 20
-164.566
 21
-164.67
  0
LINE
  8
0
 10
-62.882
 11
-62.959
 20
-164.67
 21
-164.769
  0
LINE
  8
0
 10
-62.959
 11
-63.042
 20
-164.769
 21
-164.863
  0
LINE
  8
0
 10
-63.042
 11
-63.131
 20
-164.863
 21
-164.952
  0
LINE
  8
0
 10
-63.131
 11
-63.225
 20
-164.952
 21
-165.035
  0
LINE
  8
0
 10
-63.225
 11
-63.324
 20
-165.035
 21
-165.112
  0
LINE
  8
0
 10
-63.324
 11
-63.428
 20
-165.112
 21
-165.183
  0
LINE
  8
0
 10
-63.428
 11
-63.536
 20
-165.183
 21
-165.247
  0
LINE
  8
0
 10
-63.536
 11
-63.648
 20
-165.247
 21
-165.304
  0
LINE
  8
0
 10
-63.648
 11
-63.764
 20
-165.304
 21
-165.354
  0
LINE
  8
0
 10
-63.764
 11
-63.882
 20
-165.354
 21
-165.396
  0
LINE
  8
0
 10
-63.882
 11
-64.003
 20
-165.396
 21
-165.431
  0
LINE
  8
0
 10
-64.003
 11
-64.125
 20
-165.431
 21
-165.459
  0
LINE
  8
0
 10
-64.125
 11
-64.249
 20
-165.459
 21
-165.478
  0
LINE
  8
0
 10
-64.249
 11
-64.374
 20
-165.478
 21
-165.49
  0
LINE
  8
0
 10
-64.374
 11
-64.5
 20
-165.49
 21
-165.494
  0
LINE
  8
0
 10
-64.5
 11
-64.626
 20
-165.494
 21
-165.49
  0
LINE
  8
0
 10
-64.626
 11
-64.751
 20
-165.49
 21
-165.478
  0
LINE
  8
0
 10
-64.751
 11
-64.875
 20
-165.478
 21
-165.459
  0
LINE
  8
0
 10
-64.875
 11
-64.997
 20
-165.459
 21
-165.431
  0
LINE
  8
0
 10
-64.997
 11
-65.118
 20
-165.431
 21
-165.396
  0
LINE
  8
0
 10
-65.118
 11
-65.236
 20
-165.396
 21
-165.354
  0
LINE
  8
0
 10
-65.236
 11
-65.352
 20
-165.354
 21
-165.304
  0
LINE
  8
0
 10
-65.352
 11
-65.464
 20
-165.304
 21
-165.247
  0
LINE
  8
0
 10
-65.464
 11
-65.572
 20
-165.247
 21
-165.183
  0
LINE
  8
0
 10
-65.572
 11
-65.676
 20
-165.183
 21
-165.112
  0
LINE
  8
0
 10
-65.676
 11
-65.775
 20
-165.112
 21
-165.035
  0
LINE
  8
0
 10
-65.775
 11
-65.869
 20
-165.035
 21
-164.952
  0
LINE
  8
0
 10
-65.869
 11
-65.958
 20
-164.952
 21
-164.863
  0
LINE
  8
0
 10
-65.958
 11
-66.041
 20
-164.863
 21
-164.769
  0
LINE
  8
0
 10
-66.041
 11
-66.118
 20
-164.769
 21
-164.67
  0
LINE
  8
0
 10
-66.118
 11
-66.189
 20
-164.67
 21
-164.566
  0
LINE
  8
0
 10
-66.189
 11
-66.253
 20
-164.566
 21
-164.458
  0
LINE
  8
0
 10
-66.253
 11
-66.31
 20
-164.458
 21
-164.346
  0
LINE
  8
0
 10
-66.31
 11
-66.36
 20
-164.346
 21
-164.23
  0
LINE
  8
0
 10
-66.36
 11
-66.402
 20
-164.23
 21
-164.112
  0
LINE
  8
0
 10
-66.402
 11
-66.437
 20
-164.112
 21
-163.991
  0
LINE
  8
0
 10
-66.437
 11
-66.465
 20
-163.991
 21
-163.869
  0
LINE
  8
0
 10
-66.465
 11
-66.484
 20
-163.869
 21
-163.745
  0
LINE
  8
0
 10
-66.484
 11
-66.496
 20
-163.745
 21
-163.62
  0
LINE
  8
0
 10
-66.496
 11
-66.5
 20
-163.62
 21
-163.494
  0
LINE
  8
0
 10
-66.5
 11
-66.496
 20
163.494
 21
163.62
  0
LINE
  8
0
 10
-66.496
 11
-66.484
 20
163.62
 21
163.745
  0
LINE
  8
0
 10
-66.484
 11
-66.465
 20
163.745
 21
163.869
  0
LINE
  8
0
 10
-66.465
 11
-66.437
 20
163.869
 21
163.991
  0
LINE
  8
0
 10
-66.437
 11
-66.402
 20
163.991
 21
164.112
  0
LINE
  8
0
 10
-66.402
 11
-66.36
 20
164.112
 21
164.23
  0
LINE
  8
0
 10
-66.36
 11
-66.31
 20
164.23
 21
164.346
  0
LINE
  8
0
 10
-66.31
 11
-66.253
 20
164.346
 21
164.458
  0
LINE
  8
0
 10
-66.253
 11
-66.189
 20
164.458
 21
164.566
  0
LINE
  8
0
 10
-66.189
 11
-66.118
 20
164.566
 21
164.67
  0
LINE
  8
0
 10
-66.118
 11
-66.041
 20
164.67
 21
164.769
  0
LINE
  8
0
 10
-66.041
 11
-65.958
 20
164.769
 21
164.863
  0
LINE
  8
0
 10
-65.958
 11
-65.869
 20
164.863
 21
164.952
  0
LINE
  8
0
 10
-65.869
 11
-65.775
 20
164.952
 21
165.035
  0
LINE
  8
0
 10
-65.775
 11
-65.676
 20
165.035
 21
165.112
  0
LINE
  8
0
 10
-65.676
 11
-65.572
 20
165.112
 21
165.183
  0
LINE
  8
0
 10
-65.572
 11
-65.464
 20
165.183
 21
165.247
  0
LINE
  8
0
 10
-65.464
 11
-65.352
 20
165.247
 21
165.304
  0
LINE
  8
0
 10
-65.352
 11
-65.236
 20
165.304
 21
165.354
  0
LINE
  8
0
 10
-65.236
 11
-65.118
 20
165.354
 21
165.396
  0
LINE
  8
0
 10
-65.118
 11
-64.997
 20
165.396
 21
165.431
  0
LINE
  8
0
 10
-64.997
 11
-64.875
 20
165.431
 21
165.459
  0
LINE
  8
0
 10
-64.875
 11
-64.751
 20
165.459
 21
165.478
  0
LINE
  8
0
 10
-64.751
 11
-64.626
 20
165.478
 21
165.49
  0
LINE
  8
0
 10
-64.626
 11
-64.5
 20
165.49
 21
165.494
  0
LINE
  8
0
 10
-64.5
 11
-64.374
 20
165.494
 21
165.49
  0
LINE
  8
0
 10
-64.374
 11
-64.249
 20
165.49
 21
165.478
  0
LINE
  8
0
 10
-64.249
 11
-64.125
 20
165.478
 21
165.459
  0
LINE
  8
0
 10
-64.125
 11
-64.003
 20
165.459
 21
165.431
  0
LINE
  8
0
 10
-64.003
 11
-63.882
 20
165.431
 21
165.396
  0
LINE
  8
0
 10
-63.882
 11
-63.764
 20
165.396
 21
165.354
  0
LINE
  8
0
 10
-63.764
 11
-63.648
 20
165.354
 21
165.304
  0
LINE
  8
0
 10
-63.648
 11
-63.536
 20
165.304
 21
165.247
  0
LINE
  8
0
 10
-63.536
 11
-63.428
 20
165.247
 21
165.183
  0
LINE
  8
0
 10
-63.428
 11
-63.324
 20
165.183
 21
165.112
  0
LINE
  8
0
 10
-63.324
 11
-63.225
 20
165.112
 21
165.035
  0
LINE
  8
0
 10
-63.225
 11
-63.131
 20
165.035
 21
164.952
  0
LINE
  8
0
 10
-63.131
 11
-63.042
 20
164.952
 21
164.863
  0
LINE
  8
0
 10
-63.042
 11
-62.959
 20
164.863
 21
164.769
  0
LINE
  8
0
 10
-62.959
 11
-62.882
 20
164.769
 21
164.67
  0
LINE
  8
0
 10
-62.882
 11
-62.811
 20
164.67
 21
164.566
  0
LINE
  8
0
 10
-62.811
 11
-62.747
 20
164.566
 21
164.458
  0
LINE
  8
0
 10
-62.747
 11
-62.69
 20
164.458
 21
164.346
  0
LINE
  8
0
 10
-62.69
 11
-62.64
 20
164.346
 21
164.23
  0
LINE
  8
0
 10
-62.64
 11
-62.598
 20
164.23
 21
164.112
  0
LINE
  8
0
 10
-62.598
 11
-62.563
 20
164.112
 21
163.991
  0
LINE
  8
0
 10
-62.563
 11
-62.535
 20
163.991
 21
163.869
  0
LINE
  8
0
 10
-62.535
 11
-62.516
 20
163.869
 21
163.745
  0
LINE
  8
0
 10
-62.516
 11
-62.504
 20
163.745
 21
163.62
  0
LINE
  8
0
 10
-62.504
 11
-62.5
 20
163.62
 21
163.494
  0
LINE
  8
0
 10
-62.5
 11
-62.504
 20
163.494
 21
163.368
  0
LINE
  8
0
 10
-62.504
 11
-62.516
 20
163.368
 21
163.243
  0
LINE
  8
0
 10
-62.516
 11
-62.535
 20
163.243
 21
163.119
  0
LINE
  8
0
 10
-62.535
 11
-62.563
 20
163.119
 21
162.997
  0
LINE
  8
0
 10
-62.563
 11
-62.598
 20
162.997
 21
162.876
  0
LINE
  8
0
 10
-62.598
 11
-62.64
 20
162.876
 21
162.758
  0
LINE
  8
0
 10
-62.64
 11
-62.69
 20
162.758
 21
162.642
  0
LINE
  8
0
 10
-62.69
 11
-62.747
 20
162.642
 21
162.53
  0
LINE
  8
0
 10
-62.747
 11
-62.811
 20
162.53
 21
162.422
  0
LINE
  8
0
 10
-62.811
 11
-62.882
 20
162.422
 21
162.318
  0
LINE
  8
0
 10
-62.882
 11
-62.959
 20
162.318
 21
162.219
  0
LINE
  8
0
 10
-62.959
 11
-63.042
 20
162.219
 21
162.125
  0
LINE
  8
0
 10
-63.042
 11
-63.131
 20
162.125
 21
162.036
  0
LINE
  8
0
 10
-63.131
 11
-63.225
 20
162.036
 21
161.953
  0
LINE
  8
0
 10
-63.225
 11
-63.324
 20
161.953
 21
161.876
  0
LINE
  8
0
 10
-63.324
 11
-63.428
 20
161.876
 21
161.805
  0
LINE
  8
0
 10
-63.428
 11
-63.536
 20
161.805
 21
161.741
  0
LINE
  8
0
 10
-63.536
 11
-63.648
 20
161.741
 21
161.684
  0
LINE
  8
0
 10
-63.648
 11
-63.764
 20
161.684
 21
161.634
  0
LINE
  8
0
 10
-63.764
 11
-63.882
 20
161.634
 21
161.592
  0
LINE
  8
0
 10
-63.882
 11
-64.003
 20
161.592
 21
161.557
  0
LINE
  8
0
 10
-64.003
 11
-64.125
 20
161.557
 21
161.529
  0
LINE
  8
0
 10
-64.125
 11
-64.249
 20
161.529
 21
161.51
  0
LINE
  8
0
 10
-64.249
 11
-64.374
 20
161.51
 21
161.498
  0
LINE
  8
0
 10
-64.374
 11
-64.5
 20
161.498
 21
161.494
  0
LINE
  8
0
 10
-64.5
 11
-64.626
 20
161.494
 21
161.498
  0
LINE
  8
0
 10
-64.626
 11
-64.751
 20
161.498
 21
161.51
  0
LINE
  8
0
 10
-64.751
 11
-64.875
 20
161.51
 21
161.529
  0
LINE
  8
0
 10
-64.875
 11
-64.997
 20
161.529
 21
161.557
  0
LINE
  8
0
 10
-64.997
 11
-65.118
 20
161.557
 21
161.592
  0
LINE
  8
0
 10
-65.118
 11
-65.236
 20
161.592
 21
161.634
  0
LINE
  8
0
 10
-65.236
 11
-65.352
 20
161.634
 21
161.684
  0
LINE
  8
0
 10
-65.352
 11
-65.464
 20
161.684
 21
161.741
  0
LINE
  8
0
 10
-65.464
 11
-65.572
 20
161.741
 21
161.805
  0
LINE
  8
0
 10
-65.572
 11
-65.676
 20
161.805
 21
161.876
  0
LINE
  8
0
 10
-65.676
 11
-65.775
 20
161.876
 21
161.953
  0
LINE
  8
0
 10
-65.775
 11
-65.869
 20
161.953
 21
162.036
  0
LINE
  8
0
 10
-65.869
 11
-65.958
 20
162.036
 21
162.125
  0
LINE
  8
0
 10
-65.958
 11
-66.041
 20
162.125
 21
162.219
  0
LINE
  8
0
 10
-66.041
 11
-66.118
 20
162.219
 21
162.318
  0
LINE
  8
0
 10
-66.118
 11
-66.189
 20
162.318
 21
162.422
  0
LINE
  8
0
 10
-66.189
 11
-66.253
 20
162.422
 21
162.53
  0
LINE
  8
0
 10
-66.253
 11
-66.31
 20
162.53
 21
162.642
  0
LINE
  8
0
 10
-66.31
 11
-66.36
 20
162.642
 21
162.758
  0
LINE
  8
0
 10
-66.36
 11
-66.402
 20
162.758
 21
162.876
  0
LINE
  8
0
 10
-66.402
 11
-66.437
 20
162.876
 21
162.997
  0
LINE
  8
0
 10
-66.437
 11
-66.465
 20
162.997
 21
163.119
  0
LINE
  8
0
 10
-66.465
 11
-66.484
 20
163.119
 21
163.243
  0
LINE
  8
0
 10
-66.484
 11
-66.496
 20
163.243
 21
163.368
  0
LINE
  8
0
 10
-66.496
 11
-66.5
 20
163.368
 21
163.494
  0
LINE
  8
0
 10
-30.025
 11
-30.02
 20
75
 21
75.159
  0
LINE
  8
0
 10
-30.02
 11
-30.005
 20
75.159
 21
75.316
  0
LINE
  8
0
 10
-30.005
 11
-29.98
 20
75.316
 21
75.473
  0
LINE
  8
0
 10
-29.98
 11
-29.946
 20
75.473
 21
75.628
  0
LINE
  8
0
 10
-29.946
 11
-29.901
 20
75.628
 21
75.78
  0
LINE
  8
0
 10
-29.901
 11
-29.848
 20
75.78
 21
75.93
  0
LINE
  8
0
 10
-29.848
 11
-29.785
 20
75.93
 21
76.075
  0
LINE
  8
0
 10
-29.785
 11
-29.713
 20
76.075
 21
76.216
  0
LINE
  8
0
 10
-29.713
 11
-29.632
 20
76.216
 21
76.353
  0
LINE
  8
0
 10
-29.632
 11
-29.543
 20
76.353
 21
76.484
  0
LINE
  8
0
 10
-29.543
 11
-29.446
 20
76.484
 21
76.609
  0
LINE
  8
0
 10
-29.446
 11
-29.341
 20
76.609
 21
76.728
  0
LINE
  8
0
 10
-29.341
 11
-29.228
 20
76.728
 21
76.841
  0
LINE
  8
0
 10
-29.228
 11
-29.109
 20
76.841
 21
76.946
  0
LINE
  8
0
 10
-29.109
 11
-28.984
 20
76.946
 21
77.043
  0
LINE
  8
0
 10
-28.984
 11
-28.853
 20
77.043
 21
77.132
  0
LINE
  8
0
 10
-28.853
 11
-28.716
 20
77.132
 21
77.213
  0
LINE
  8
0
 10
-28.716
 11
-28.575
 20
77.213
 21
77.285
  0
LINE
  8
0
 10
-28.575
 11
-28.43
 20
77.285
 21
77.348
  0
LINE
  8
0
 10
-28.43
 11
-28.28
 20
77.348
 21
77.401
  0
LINE
  8
0
 10
-28.28
 11
-28.128
 20
77.401
 21
77.446
  0
LINE
  8
0
 10
-28.128
 11
-27.973
 20
77.446
 21
77.48
  0
LINE
  8
0
 10
-27.973
 11
-27.816
 20
77.48
 21
77.505
  0
LINE
  8
0
 10
-27.816
 11
-27.659
 20
77.505
 21
77.52
  0
LINE
  8
0
 10
-27.659
 11
-27.5
 20
77.52
 21
77.525
  0
LINE
  8
0
 10
-27.5
 11
-27.341
 20
77.525
 21
77.52
  0
LINE
  8
0
 10
-27.341
 11
-27.184
 20
77.52
 21
77.505
  0
LINE
  8
0
 10
-27.184
 11
-27.027
 20
77.505
 21
77.48
  0
LINE
  8
0
 10
-27.027
 11
-26.872
 20
77.48
 21
77.446
  0
LINE
  8
0
 10
-26.872
 11
-26.72
 20
77.446
 21
77.401
  0
LINE
  8
0
 10
-26.72
 11
-26.57
 20
77.401
 21
77.348
  0
LINE
  8
0
 10
-26.57
 11
-26.425
 20
77.348
 21
77.285
  0
LINE
  8
0
 10
-26.425
 11
-26.284
 20
77.285
 21
77.213
  0
LINE
  8
0
 10
-26.284
 11
-26.147
 20
77.213
 21
77.132
  0
LINE
  8
0
 10
-26.147
 11
-26.016
 20
77.132
 21
77.043
  0
LINE
  8
0
 10
-26.016
 11
-25.891
 20
77.043
 21
76.946
  0
LINE
  8
0
 10
-25.891
 11
-25.772
 20
76.946
 21
76.841
  0
LINE
  8
0
 10
-25.772
 11
-25.659
 20
76.841
 21
76.728
  0
LINE
  8
0
 10
-25.659
 11
-25.554
 20
76.728
 21
76.609
  0
LINE
  8
0
 10
-25.554
 11
-25.457
 20
76.609
 21
76.484
  0
LINE
  8
0
 10
-25.457
 11
-25.368
 20
76.484
 21
76.353
  0
LINE
  8
0
 10
-25.368
 11
-25.287
 20
76.353
 21
76.216
  0
LINE
  8
0
 10
-25.287
 11
-25.215
 20
76.216
 21
76.075
  0
LINE
  8
0
 10
-25.215
 11
-25.152
 20
76.075
 21
75.93
  0
LINE
  8
0
 10
-25.152
 11
-25.099
 20
75.93
 21
75.78
  0
LINE
  8
0
 10
-25.099
 11
-25.054
 20
75.78
 21
75.628
  0
LINE
  8
0
 10
-25.054
 11
-25.02
 20
75.628
 21
75.473
  0
LINE
  8
0
 10
-25.02
 11
-24.995
 20
75.473
 21
75.316
  0
LINE
  8
0
 10
-24.995
 11
-24.98
 20
75.316
 21
75.159
  0
LINE
  8
0
 10
-24.98
 11
-24.975
 20
75.159
 21
75
  0
LINE
  8
0
 10
-24.975
 11
-24.98
 20
75
 21
74.841
  0
LINE
  8
0
 10
-24.98
 11
-24.995
 20
74.841
 21
74.684
  0
LINE
  8
0
 10
-24.995
 11
-25.02
 20
74.684
 21
74.527
  0
LINE
  8
0
 10
-25.02
 11
-25.054
 20
74.527
 21
74.372
  0
LINE
  8
0
 10
-25.054
 11
-25.099
 20
74.372
 21
74.22
  0
LINE
  8
0
 10
-25.099
 11
-25.152
 20
74.22
 21
74.07
  0
LINE
  8
0
 10
-25.152
 11
-25.215
 20
74.07
 21
73.925
  0
LINE
  8
0
 10
-25.215
 11
-25.287
 20
73.925
 21
73.784
  0
LINE
  8
0
 10
-25.287
 11
-25.368
 20
73.784
 21
73.647
  0
LINE
  8
0
 10
-25.368
 11
-25.457
 20
73.647
 21
73.516
  0
LINE
  8
0
 10
-25.457
 11
-25.554
 20
73.516
 21
73.391
  0
LINE
  8
0
 10
-25.554
 11
-25.659
 20
73.391
 21
73.272
  0
LINE
  8
0
 10
-25.659
 11
-25.772
 20
73.272
 21
73.159
  0
LINE
  8
0
 10
-25.772
 11
-25.891
 20
73.159
 21
73.054
  0
LINE
  8
0
 10
-25.891
 11
-26.016
 20
73.054
 21
72.957
  0
LINE
  8
0
 10
-26.016
 11
-26.147
 20
72.957
 21
72.868
  0
LINE
  8
0
 10
-26.147
 11
-26.284
 20
72.868
 21
72.787
  0
LINE
  8
0
 10
-26.284
 11
-26.425
 20
72.787
 21
72.715
  0
LINE
  8
0
 10
-26.425
 11
-26.57
 20
72.715
 21
72.652
  0
LINE
  8
0
 10
-26.57
 11
-26.72
 20
72.652
 21
72.599
  0
LINE
  8
0
 10
-26.72
 11
-26.872
 20
72.599
 21
72.554
  0
LINE
  8
0
 10
-26.872
 11
-27.027
 20
72.554
 21
72.52
  0
LINE
  8
0
 10
-27.027
 11
-27.184
 20
72.52
 21
72.495
  0
LINE
  8
0
 10
-27.184
 11
-27.341
 20
72.495
 21
72.48
  0
LINE
  8
0
 10
-27.341
 11
-27.5
 20
72.48
 21
72.475
  0
LINE
  8
0
 10
-27.5
 11
-27.659
 20
72.475
 21
72.48
  0
LINE
  8
0
 10
-27.659
 11
-27.816
 20
72.48
 21
72.495
  0
LINE
  8
0
 10
-27.816
 11
-27.973
 20
72.495
 21
72.52
  0
LINE
  8
0
 10
-27.973
 11
-28.128
 20
72.52
 21
72.554
  0
LINE
  8
0
 10
-28.128
 11
-28.28
 20
72.554
 21
72.599
  0
LINE
  8
0
 10
-28.28
 11
-28.43
 20
72.599
 21
72.652
  0
LINE
  8
0
 10
-28.43
 11
-28.575
 20
72.652
 21
72.715
  0
LINE
  8
0
 10
-28.575
 11
-28.716
 20
72.715
 21
72.787
  0
LINE
  8
0
 10
-28.716
 11
-28.853
 20
72.787
 21
72.868
  0
LINE
  8
0
 10
-28.853
 11
-28.984
 20
72.868
 21
72.957
  0
LINE
  8
0
 10
-28.984
 11
-29.109
 20
72.957
 21
73.054
  0
LINE
  8
0
 10
-29.109
 11
-29.228
 20
73.054
 21
73.159
  0
LINE
  8
0
 10
-29.228
 11
-29.341
 20
73.159
 21
73.272
  0
LINE
  8
0
 10
-29.341
 11
-29.446
 20
73.272
 21
73.391
  0
LINE
  8
0
 10
-29.446
 11
-29.543
 20
73.391
 21
73.516
  0
LINE
  8
0
 10
-29.543
 11
-29.632
 20
73.516
 21
73.647
  0
LINE
  8
0
 10
-29.632
 11
-29.713
 20
73.647
 21
73.784
  0
LINE
  8
0
 10
-29.713
 11
-29.785
 20
73.784
 21
73.925
  0
LINE
  8
0
 10
-29.785
 11
-29.848
 20
73.925
 21
74.07
  0
LINE
  8
0
 10
-29.848
 11
-29.901
 20
74.07
 21
74.22
  0
LINE
  8
0
 10
-29.901
 11
-29.946
 20
74.22
 21
74.372
  0
LINE
  8
0
 10
-29.946
 11
-29.98
 20
74.372
 21
74.527
  0
LINE
  8
0
 10
-29.98
 11
-30.005
 20
74.527
 21
74.684
  0
LINE
  8
0
 10
-30.005
 11
-30.02
 20
74.684
 21
74.841
  0
LINE
  8
0
 10
-30.02
 11
-30.025
 20
74.841
 21
75
  0
LINE
  8
0
 10
-23
 11
-22.996
 20
-21
 21
-20.874
  0
LINE
  8
0
 10
-22.996
 11
-22.984
 20
-20.874
 21
-20.749
  0
LINE
  8
0
 10
-22.984
 11
-22.965
 20
-20.749
 21
-20.625
  0
LINE
  8
0
 10
-22.965
 11
-22.937
 20
-20.625
 21
-20.503
  0
LINE
  8
0
 10
-22.937
 11
-22.902
 20
-20.503
 21
-20.382
  0
LINE
  8
0
 10
-22.902
 11
-22.86
 20
-20.382
 21
-20.264
  0
LINE
  8
0
 10
-22.86
 11
-22.81
 20
-20.264
 21
-20.148
  0
LINE
  8
0
 10
-22.81
 11
-22.753
 20
-20.148
 21
-20.036
  0
LINE
  8
0
 10
-22.753
 11
-22.689
 20
-20.036
 21
-19.928
  0
LINE
  8
0
 10
-22.689
 11
-22.618
 20
-19.928
 21
-19.824
  0
LINE
  8
0
 10
-22.618
 11
-22.541
 20
-19.824
 21
-19.725
  0
LINE
  8
0
 10
-22.541
 11
-22.458
 20
-19.725
 21
-19.631
  0
LINE
  8
0
 10
-22.458
 11
-22.369
 20
-19.631
 21
-19.542
  0
LINE
  8
0
 10
-22.369
 11
-22.275
 20
-19.542
 21
-19.459
  0
LINE
  8
0
 10
-22.275
 11
-22.176
 20
-19.459
 21
-19.382
  0
LINE
  8
0
 10
-22.176
 11
-22.072
 20
-19.382
 21
-19.311
  0
LINE
  8
0
 10
-22.072
 11
-21.964
 20
-19.311
 21
-19.247
  0
LINE
  8
0
 10
-21.964
 11
-21.852
 20
-19.247
 21
-19.19
  0
LINE
  8
0
 10
-21.852
 11
-21.736
 20
-19.19
 21
-19.14
  0
LINE
  8
0
 10
-21.736
 11
-21.618
 20
-19.14
 21
-19.098
  0
LINE
  8
0
 10
-21.618
 11
-21.497
 20
-19.098
 21
-19.063
  0
LINE
  8
0
 10
-21.497
 11
-21.375
 20
-19.063
 21
-19.035
  0
LINE
  8
0
 10
-21.375
 11
-21.251
 20
-19.035
 21
-19.016
  0
LINE
  8
0
 10
-21.251
 11
-21.126
 20
-19.016
 21
-19.004
  0
LINE
  8
0
 10
-21.126
 11
-21
 20
-19.004
 21
-19
  0
LINE
  8
0
 10
-21
 11
-20.874
 20
-19
 21
-19.004
  0
LINE
  8
0
 10
-20.874
 11
-20.749
 20
-19.004
 21
-19.016
  0
LINE
  8
0
 10
-20.749
 11
-20.625
 20
-19.016
 21
-19.035
  0
LINE
  8
0
 10
-20.625
 11
-20.503
 20
-19.035
 21
-19.063
  0
LINE
  8
0
 10
-20.503
 11
-20.382
 20
-19.063
 21
-19.098
  0
LINE
  8
0
 10
-20.382
 11
-20.264
 20
-19.098
 21
-19.14
  0
LINE
  8
0
 10
-20.264
 11
-20.148
 20
-19.14
 21
-19.19
  0
LINE
  8
0
 10
-20.148
 11
-20.036
 20
-19.19
 21
-19.247
  0
LINE
  8
0
 10
-20.036
 11
-19.928
 20
-19.247
 21
-19.311
  0
LINE
  8
0
 10
-19.928
 11
-19.824
 20
-19.311
 21
-19.382
  0
LINE
  8
0
 10
-19.824
 11
-19.725
 20
-19.382
 21
-19.459
  0
LINE
  8
0
 10
-19.725
 11
-19.631
 20
-19.459
 21
-19.542
  0
LINE
  8
0
 10
-19.631
 11
-19.542
 20
-19.542
 21
-19.631
  0
LINE
  8
0
 10
-19.542
 11
-19.459
 20
-19.631
 21
-19.725
  0
LINE
  8
0
 10
-19.459
 11
-19.382
 20
-19.725
 21
-19.824
  0
LINE
  8
0
 10
-19.382
 11
-19.311
 20
-19.824
 21
-19.928
  0
LINE
  8
0
 10
-19.311
 11
-19.247
 20
-19.928
 21
-20.036
  0
LINE
  8
0
 10
-19.247
 11
-19.19
 20
-20.036
 21
-20.148
  0
LINE
  8
0
 10
-19.19
 11
-19.14
 20
-20.148
 21
-20.264
  0
LINE
  8
0
 10
-19.14
 11
-19.098
 20
-20.264
 21
-20.382
  0
LINE
  8
0
 10
-19.098
 11
-19.063
 20
-20.382
 21
-20.503
  0
LINE
  8
0
 10
-19.063
 11
-19.035
 20
-20.503
 21
-20.625
  0
LINE
  8
0
 10
-19.035
 11
-19.016
 20
-20.625
 21
-20.749
  0
LINE
  8
0
 10
-19.016
 11
-19.004
 20
-20.749
 21
-20.874
  0
LINE
  8
0
 10
-19.004
 11
-19
 20
-20.874
 21
-21
  0
LINE
  8
0
 10
-19
 11
-19.004
 20
-21
 21
-21.126
  0
LINE
  8
0
 10
-19.004
 11
-19.016
 20
-21.126
 21
-21.251
  0
LINE
  8
0
 10
-19.016
 11
-19.035
 20
-21.251
 21
-21.375
  0
LINE
  8
0
 10
-19.035
 11
-19.063
 20
-21.375
 21
-21.497
  0
LINE
  8
0
 10
-19.063
 11
-19.098
 20
-21.497
 21
-21.618
  0
LINE
  8
0
 10
-19.098
 11
-19.14
 20
-21.618
 21
-21.736
  0
LINE
  8
0
 10
-19.14
 11
-19.19
 20
-21.736
 21
-21.852
  0
LINE
  8
0
 10
-19.19
 11
-19.247
 20
-21.852
 21
-21.964
  0
LINE
  8
0
 10
-19.247
 11
-19.311
 20
-21.964
 21
-22.072
  0
LINE
  8
0
 10
-19.311
 11
-19.382
 20
-22.072
 21
-22.176
  0
LINE
  8
0
 10
-19.382
 11
-19.459
 20
-22.176
 21
-22.275
  0
LINE
  8
0
 10
-19.459
 11
-19.542
 20
-22.275
 21
-22.369
  0
LINE
  8
0
 10
-19.542
 11
-19.631
 20
-22.369
 21
-22.458
  0
LINE
  8
0
 10
-19.631
 11
-19.725
 20
-22.458
 21
-22.541
  0
LINE
  8
0
 10
-19.725
 11
-19.824
 20
-22.541
 21
-22.618
  0
LINE
  8
0
 10
-19.824
 11
-19.928
 20
-22.618
 21
-22.689
  0
LINE
  8
0
 10
-19.928
 11
-20.036
 20
-22.689
 21
-22.753
  0
LINE
  8
0
 10
-20.036
 11
-20.148
 20
-22.753
 21
-22.81
  0
LINE
  8
0
 10
-20.148
 11
-20.264
 20
-22.81
 21
-22.86
  0
LINE
  8
0
 10
-20.264
 11
-20.382
 20
-22.86
 21
-22.902
  0
LINE
  8
0
 10
-20.382
 11
-20.503
 20
-22.902
 21
-22.937
  0
LINE
  8
0
 10
-20.503
 11
-20.625
 20
-22.937
 21
-22.965
  0
LINE
  8
0
 10
-20.625
 11
-20.749
 20
-22.965
 21
-22.984
  0
LINE
  8
0
 10
-20.749
 11
-20.874
 20
-22.984
 21
-22.996
  0
LINE
  8
0
 10
-20.874
 11
-21
 20
-22.996
 21
-23
  0
LINE
  8
0
 10
-21
 11
-21.126
 20
-23
 21
-22.996
  0
LINE
  8
0
 10
-21.126
 11
-21.251
 20
-22.996
 21
-22.984
  0
LINE
  8
0
 10
-21.251
 11
-21.375
 20
-22.984
 21
-22.965
  0
LINE
  8
0
 10
-21.375
 11
-21.497
 20
-22.965
 21
-22.937
  0
LINE
  8
0
 10
-21.497
 11
-21.618
 20
-22.937
 21
-22.902
  0
LINE
  8
0
 10
-21.618
 11
-21.736
 20
-22.902
 21
-22.86
  0
LINE
  8
0
 10
-21.736
 11
-21.852
 20
-22.86
 21
-22.81
  0
LINE
  8
0
 10
-21.852
 11
-21.964
 20
-22.81
 21
-22.753
  0
LINE
  8
0
 10
-21.964
 11
-22.072
 20
-22.753
 21
-22.689
  0
LINE
  8
0
 10
-22.072
 11
-22.176
 20
-22.689
 21
-22.618
  0
LINE
  8
0
 10
-22.176
 11
-22.275
 20
-22.618
 21
-22.541
  0
LINE
  8
0
 10
-22.275
 11
-22.369
 20
-22.541
 21
-22.458
  0
LINE
  8
0
 10
-22.369
 11
-22.458
 20
-22.458
 21
-22.369
  0
LINE
  8
0
 10
-22.458
 11
-22.541
 20
-22.369
 21
-22.275
  0
LINE
  8
0
 10
-22.541
 11
-22.618
 20
-22.275
 21
-22.176
  0
LINE
  8
0
 10
-22.618
 11
-22.689
 20
-22.176
 21
-22.072
  0
LINE
  8
0
 10
-22.689
 11
-22.753
 20
-22.072
 21
-21.964
  0
LINE
  8
0
 10
-22.753
 11
-22.81
 20
-21.964
 21
-21.852
  0
LINE
  8
0
 10
-22.81
 11
-22.86
 20
-21.852
 21
-21.736
  0
LINE
  8
0
 10
-22.86
 11
-22.902
 20
-21.736
 21
-21.618
  0
LINE
  8
0
 10
-22.902
 11
-22.937
 20
-21.618
 21
-21.497
  0
LINE
  8
0
 10
-22.937
 11
-22.965
 20
-21.497
 21
-21.375
  0
LINE
  8
0
 10
-22.965
 11
-22.984
 20
-21.375
 21
-21.251
  0
LINE
  8
0
 10
-22.984
 11
-22.996
 20
-21.251
 21
-21.126
  0
LINE
  8
0
 10
-22.996
 11
-23
 20
-21.126
 21
-21
  0
LINE
  8
0
 10
-23
 11
-22.996
 20
21
 21
21.126
  0
LINE
  8
0
 10
-22.996
 11
-22.984
 20
21.126
 21
21.251
  0
LINE
  8
0
 10
-22.984
 11
-22.965
 20
21.251
 21
21.375
  0
LINE
  8
0
 10
-22.965
 11
-22.937
 20
21.375
 21
21.497
  0
LINE
  8
0
 10
-22.937
 11
-22.902
 20
21.497
 21
21.618
  0
LINE
  8
0
 10
-22.902
 11
-22.86
 20
21.618
 21
21.736
  0
LINE
  8
0
 10
-22.86
 11
-22.81
 20
21.736
 21
21.852
  0
LINE
  8
0
 10
-22.81
 11
-22.753
 20
21.852
 21
21.964
  0
LINE
  8
0
 10
-22.753
 11
-22.689
 20
21.964
 21
22.072
  0
LINE
  8
0
 10
-22.689
 11
-22.618
 20
22.072
 21
22.176
  0
LINE
  8
0
 10
-22.618
 11
-22.541
 20
22.176
 21
22.275
  0
LINE
  8
0
 10
-22.541
 11
-22.458
 20
22.275
 21
22.369
  0
LINE
  8
0
 10
-22.458
 11
-22.369
 20
22.369
 21
22.458
  0
LINE
  8
0
 10
-22.369
 11
-22.275
 20
22.458
 21
22.541
  0
LINE
  8
0
 10
-22.275
 11
-22.176
 20
22.541
 21
22.618
  0
LINE
  8
0
 10
-22.176
 11
-22.072
 20
22.618
 21
22.689
  0
LINE
  8
0
 10
-22.072
 11
-21.964
 20
22.689
 21
22.753
  0
LINE
  8
0
 10
-21.964
 11
-21.852
 20
22.753
 21
22.81
  0
LINE
  8
0
 10
-21.852
 11
-21.736
 20
22.81
 21
22.86
  0
LINE
  8
0
 10
-21.736
 11
-21.618
 20
22.86
 21
22.902
  0
LINE
  8
0
 10
-21.618
 11
-21.497
 20
22.902
 21
22.937
  0
LINE
  8
0
 10
-21.497
 11
-21.375
 20
22.937
 21
22.965
  0
LINE
  8
0
 10
-21.375
 11
-21.251
 20
22.965
 21
22.984
  0
LINE
  8
0
 10
-21.251
 11
-21.126
 20
22.984
 21
22.996
  0
LINE
  8
0
 10
-21.126
 11
-21
 20
22.996
 21
23
  0
LINE
  8
0
 10
-21
 11
-20.874
 20
23
 21
22.996
  0
LINE
  8
0
 10
-20.874
 11
-20.749
 20
22.996
 21
22.984
  0
LINE
  8
0
 10
-20.749
 11
-20.625
 20
22.984
 21
22.965
  0
LINE
  8
0
 10
-20.625
 11
-20.503
 20
22.965
 21
22.937
  0
LINE
  8
0
 10
-20.503
 11
-20.382
 20
22.937
 21
22.902
  0
LINE
  8
0
 10
-20.382
 11
-20.264
 20
22.902
 21
22.86
  0
LINE
  8
0
 10
-20.264
 11
-20.148
 20
22.86
 21
22.81
  0
LINE
  8
0
 10
-20.148
 11
-20.036
 20
22.81
 21
22.753
  0
LINE
  8
0
 10
-20.036
 11
-19.928
 20
22.753
 21
22.689
  0
LINE
  8
0
 10
-19.928
 11
-19.824
 20
22.689
 21
22.618
  0
LINE
  8
0
 10
-19.824
 11
-19.725
 20
22.618
 21
22.541
  0
LINE
  8
0
 10
-19.725
 11
-19.631
 20
22.541
 21
22.458
  0
LINE
  8
0
 10
-19.631
 11
-19.542
 20
22.458
 21
22.369
  0
LINE
  8
0
 10
-19.542
 11
-19.459
 20
22.369
 21
22.275
  0
LINE
  8
0
 10
-19.459
 11
-19.382
 20
22.275
 21
22.176
  0
LINE
  8
0
 10
-19.382
 11
-19.311
 20
22.176
 21
22.072
  0
LINE
  8
0
 10
-19.311
 11
-19.247
 20
22.072
 21
21.964
  0
LINE
  8
0
 10
-19.247
 11
-19.19
 20
21.964
 21
21.852
  0
LINE
  8
0
 10
-19.19
 11
-19.14
 20
21.852
 21
21.736
  0
LINE
  8
0
 10
-19.14
 11
-19.098
 20
21.736
 21
21.618
  0
LINE
  8
0
 10
-19.098
 11
-19.063
 20
21.618
 21
21.497
  0
LINE
  8
0
 10
-19.063
 11
-19.035
 20
21.497
 21
21.375
  0
LINE
  8
0
 10
-19.035
 11
-19.016
 20
21.375
 21
21.251
  0
LINE
  8
0
 10
-19.016
 11
-19.004
 20
21.251
 21
21.126
  0
LINE
  8
0
 10
-19.004
 11
-19
 20
21.126
 21
21
  0
LINE
  8
0
 10
-19
 11
-19.004
 20
21
 21
20.874
  0
LINE
  8
0
 10
-19.004
 11
-19.016
 20
20.874
 21
20.749
  0
LINE
  8
0
 10
-19.016
 11
-19.035
 20
20.749
 21
20.625
  0
LINE
  8
0
 10
-19.035
 11
-19.063
 20
20.625
 21
20.503
  0
LINE
  8
0
 10
-19.063
 11
-19.098
 20
20.503
 21
20.382
  0
LINE
  8
0
 10
-19.098
 11
-19.14
 20
20.382
 21
20.264
  0
LINE
  8
0
 10
-19.14
 11
-19.19
 20
20.264
 21
20.148
  0
LINE
  8
0
 10
-19.19
 11
-19.247
 20
20.148
 21
20.036
  0
LINE
  8
0
 10
-19.247
 11
-19.311
 20
20.036
 21
19.928
  0
LINE
  8
0
 10
-19.311
 11
-19.382
 20
19.928
 21
19.824
  0
LINE
  8
0
 10
-19.382
 11
-19.459
 20
19.824
 21
19.725
  0
LINE
  8
0
 10
-19.459
 11
-19.542
 20
19.725
 21
19.631
  0
LINE
  8
0
 10
-19.542
 11
-19.631
 20
19.631
 21
19.542
  0
LINE
  8
0
 10
-19.631
 11
-19.725
 20
19.542
 21
19.459
  0
LINE
  8
0
 10
-19.725
 11
-19.824
 20
19.459
 21
19.382
  0
LINE
  8
0
 10
-19.824
 11
-19.928
 20
19.382
 21
19.311
  0
LINE
  8
0
 10
-19.928
 11
-20.036
 20
19.311
 21
19.247
  0
LINE
  8
0
 10
-20.036
 11
-20.148
 20
19.247
 21
19.19
  0
LINE
  8
0
 10
-20.148
 11
-20.264
 20
19.19
 21
19.14
  0
LINE
  8
0
 10
-20.264
 11
-20.382
 20
19.14
 21
19.098
  0
LINE
  8
0
 10
-20.382
 11
-20.503
 20
19.098
 21
19.063
  0
LINE
  8
0
 10
-20.503
 11
-20.625
 20
19.063
 21
19.035
  0
LINE
  8
0
 10
-20.625
 11
-20.749
 20
19.035
 21
19.016
  0
LINE
  8
0
 10
-20.749
 11
-20.874
 20
19.016
 21
19.004
  0
LINE
  8
0
 10
-20.874
 11
-21
 20
19.004
 21
19
  0
LINE
  8
0
 10
-21
 11
-21.126
 20
19
 21
19.004
  0
LINE
  8
0
 10
-21.126
 11
-21.251
 20
19.004
 21
19.016
  0
LINE
  8
0
 10
-21.251
 11
-21.375
 20
19.016
 21
19.035
  0
LINE
  8
0
 10
-21.375
 11
-21.497
 20
19.035
 21
19.063
  0
LINE
  8
0
 10
-21.497
 11
-21.618
 20
19.063
 21
19.098
  0
LINE
  8
0
 10
-21.618
 11
-21.736
 20
19.098
 21
19.14
  0
LINE
  8
0
 10
-21.736
 11
-21.852
 20
19.14
 21
19.19
  0
LINE
  8
0
 10
-21.852
 11
-21.964
 20
19.19
 21
19.247
  0
LINE
  8
0
 10
-21.964
 11
-22.072
 20
19.247
 21
19.311
  0
LINE
  8
0
 10
-22.072
 11
-22.176
 20
19.311
 21
19.382
  0
LINE
  8
0
 10
-22.176
 11
-22.275
 20
19.382
 21
19.459
  0
LINE
  8
0
 10
-22.275
 11
-22.369
 20
19.459
 21
19.542
  0
LINE
  8
0
 10
-22.369
 11
-22.458
 20
19.542
 21
19.631
  0
LINE
  8
0
 10
-22.458
 11
-22.541
 20
19.631
 21
19.725
  0
LINE
  8
0
 10
-22.541
 11
-22.618
 20
19.725
 21
19.824
  0
LINE
  8
0
 10
-22.618
 11
-22.689
 20
19.824
 21
19.928
  0
LINE
  8
0
 10
-22.689
 11
-22.753
 20
19.928
 21
20.036
  0
LINE
  8
0
 10
-22.753
 11
-22.81
 20
20.036
 21
20.148
  0
LINE
  8
0
 10
-22.81
 11
-22.86
 20
20.148
 21
20.264
  0
LINE
  8
0
 10
-22.86
 11
-22.902
 20
20.264
 21
20.382
  0
LINE
  8
0
 10
-22.902
 11
-22.937
 20
20.382
 21
20.503
  0
LINE
  8
0
 10
-22.937
 11
-22.965
 20
20.503
 21
20.625
  0
LINE
  8
0
 10
-22.965
 11
-22.984
 20
20.625
 21
20.749
  0
LINE
  8
0
 10
-22.984
 11
-22.996
 20
20.749
 21
20.874
  0
LINE
  8
0
 10
-22.996
 11
-23
 20
20.874
 21
21
  0
LINE
  8
0
 10
-17.5
 11
-17.489
 20
-130
 21
-129.655
  0
LINE
  8
0
 10
-17.489
 11
-17.457
 20
-129.655
 21
-129.311
  0
LINE
  8
0
 10
-17.457
 11
-17.403
 20
-129.311
 21
-128.969
  0
LINE
  8
0
 10
-17.403
 11
-17.327
 20
-128.969
 21
-128.632
  0
LINE
  8
0
 10
-17.327
 11
-17.231
 20
-128.632
 21
-128.3
  0
LINE
  8
0
 10
-17.231
 11
-17.114
 20
-128.3
 21
-127.975
  0
LINE
  8
0
 10
-17.114
 11
-16.977
 20
-127.975
 21
-127.658
  0
LINE
  8
0
 10
-16.977
 11
-16.82
 20
-127.658
 21
-127.35
  0
LINE
  8
0
 10
-16.82
 11
-16.644
 20
-127.35
 21
-127.053
  0
LINE
  8
0
 10
-16.644
 11
-16.45
 20
-127.053
 21
-126.767
  0
LINE
  8
0
 10
-16.45
 11
-16.238
 20
-126.767
 21
-126.494
  0
LINE
  8
0
 10
-16.238
 11
-16.009
 20
-126.494
 21
-126.235
  0
LINE
  8
0
 10
-16.009
 11
-15.765
 20
-126.235
 21
-125.991
  0
LINE
  8
0
 10
-15.765
 11
-15.506
 20
-125.991
 21
-125.762
  0
LINE
  8
0
 10
-15.506
 11
-15.233
 20
-125.762
 21
-125.55
  0
LINE
  8
0
 10
-15.233
 11
-14.947
 20
-125.55
 21
-125.356
  0
LINE
  8
0
 10
-14.947
 11
-14.65
 20
-125.356
 21
-125.18
  0
LINE
  8
0
 10
-14.65
 11
-14.342
 20
-125.18
 21
-125.023
  0
LINE
  8
0
 10
-14.342
 11
-14.025
 20
-125.023
 21
-124.886
  0
LINE
  8
0
 10
-14.025
 11
-13.7
 20
-124.886
 21
-124.769
  0
LINE
  8
0
 10
-13.7
 11
-13.368
 20
-124.769
 21
-124.673
  0
LINE
  8
0
 10
-13.368
 11
-13.031
 20
-124.673
 21
-124.597
  0
LINE
  8
0
 10
-13.031
 11
-12.689
 20
-124.597
 21
-124.543
  0
LINE
  8
0
 10
-12.689
 11
-12.345
 20
-124.543
 21
-124.511
  0
LINE
  8
0
 10
-12.345
 11
-12
 20
-124.511
 21
-124.5
  0
LINE
  8
0
 10
-12
 11
-11.655
 20
-124.5
 21
-124.511
  0
LINE
  8
0
 10
-11.655
 11
-11.311
 20
-124.511
 21
-124.543
  0
LINE
  8
0
 10
-11.311
 11
-10.969
 20
-124.543
 21
-124.597
  0
LINE
  8
0
 10
-10.969
 11
-10.632
 20
-124.597
 21
-124.673
  0
LINE
  8
0
 10
-10.632
 11
-10.3
 20
-124.673
 21
-124.769
  0
LINE
  8
0
 10
-10.3
 11
-9.975
 20
-124.769
 21
-124.886
  0
LINE
  8
0
 10
-9.975
 11
-9.658
 20
-124.886
 21
-125.023
  0
LINE
  8
0
 10
-9.658
 11
-9.35
 20
-125.023
 21
-125.18
  0
LINE
  8
0
 10
-9.35
 11
-9.053
 20
-125.18
 21
-125.356
  0
LINE
  8
0
 10
-9.053
 11
-8.767
 20
-125.356
 21
-125.55
  0
LINE
  8
0
 10
-8.767
 11
-8.494
 20
-125.55
 21
-125.762
  0
LINE
  8
0
 10
-8.494
 11
-8.235
 20
-125.762
 21
-125.991
  0
LINE
  8
0
 10
-8.235
 11
-7.991
 20
-125.991
 21
-126.235
  0
LINE
  8
0
 10
-7.991
 11
-7.762
 20
-126.235
 21
-126.494
  0
LINE
  8
0
 10
-7.762
 11
-7.55
 20
-126.494
 21
-126.767
  0
LINE
  8
0
 10
-7.55
 11
-7.356
 20
-126.767
 21
-127.053
  0
LINE
  8
0
 10
-7.356
 11
-7.18
 20
-127.053
 21
-127.35
  0
LINE
  8
0
 10
-7.18
 11
-7.023
 20
-127.35
 21
-127.658
  0
LINE
  8
0
 10
-7.023
 11
-6.886
 20
-127.658
 21
-127.975
  0
LINE
  8
0
 10
-6.886
 11
-6.769
 20
-127.975
 21
-128.3
  0
LINE
  8
0
 10
-6.769
 11
-6.673
 20
-128.3
 21
-128.632
  0
LINE
  8
0
 10
-6.673
 11
-6.597
 20
-128.632
 21
-128.969
  0
LINE
  8
0
 10
-6.597
 11
-6.543
 20
-128.969
 21
-129.311
  0
LINE
  8
0
 10
-6.543
 11
-6.511
 20
-129.311
 21
-129.655
  0
LINE
  8
0
 10
-6.511
 11
-6.5
 20
-129.655
 21
-130
  0
LINE
  8
0
 10
-6.5
 11
-6.511
 20
-130
 21
-130.345
  0
LINE
  8
0
 10
-6.511
 11
-6.543
 20
-130.345
 21
-130.689
  0
LINE
  8
0
 10
-6.543
 11
-6.597
 20
-130.689
 21
-131.031
  0
LINE
  8
0
 10
-6.597
 11
-6.673
 20
-131.031
 21
-131.368
  0
LINE
  8
0
 10
-6.673
 11
-6.769
 20
-131.368
 21
-131.7
  0
LINE
  8
0
 10
-6.769
 11
-6.886
 20
-131.7
 21
-132.025
  0
LINE
  8
0
 10
-6.886
 11
-7.023
 20
-132.025
 21
-132.342
  0
LINE
  8
0
 10
-7.023
 11
-7.18
 20
-132.342
 21
-132.65
  0
LINE
  8
0
 10
-7.18
 11
-7.356
 20
-132.65
 21
-132.947
  0
LINE
  8
0
 10
-7.356
 11
-7.55
 20
-132.947
 21
-133.233
  0
LINE
  8
0
 10
-7.55
 11
-7.762
 20
-133.233
 21
-133.506
  0
LINE
  8
0
 10
-7.762
 11
-7.991
 20
-133.506
 21
-133.765
  0
LINE
  8
0
 10
-7.991
 11
-8.235
 20
-133.765
 21
-134.009
  0
LINE
  8
0
 10
-8.235
 11
-8.494
 20
-134.009
 21
-134.238
  0
LINE
  8
0
 10
-8.494
 11
-8.767
 20
-134.238
 21
-134.45
  0
LINE
  8
0
 10
-8.767
 11
-9.053
 20
-134.45
 21
-134.644
  0
LINE
  8
0
 10
-9.053
 11
-9.35
 20
-134.644
 21
-134.82
  0
LINE
  8
0
 10
-9.35
 11
-9.658
 20
-134.82
 21
-134.977
  0
LINE
  8
0
 10
-9.658
 11
-9.975
 20
-134.977
 21
-135.114
  0
LINE
  8
0
 10
-9.975
 11
-10.3
 20
-135.114
 21
-135.231
  0
LINE
  8
0
 10
-10.3
 11
-10.632
 20
-135.231
 21
-135.327
  0
LINE
  8
0
 10
-10.632
 11
-10.969
 20
-135.327
 21
-135.403
  0
LINE
  8
0
 10
-10.969
 11
-11.311
 20
-135.403
 21
-135.457
  0
LINE
  8
0
 10
-11.311
 11
-11.655
 20
-135.457
 21
-135.489
  0
LINE
  8
0
 10
-11.655
 11
-12
 20
-135.489
 21
-135.5
  0
LINE
  8
0
 10
-12
 11
-12.345
 20
-135.5
 21
-135.489
  0
LINE
  8
0
 10
-12.345
 11
-12.689
 20
-135.489
 21
-135.457
  0
LINE
  8
0
 10
-12.689
 11
-13.031
 20
-135.457
 21
-135.403
  0
LINE
  8
0
 10
-13.031
 11
-13.368
 20
-135.403
 21
-135.327
  0
LINE
  8
0
 10
-13.368
 11
-13.7
 20
-135.327
 21
-135.231
  0
LINE
  8
0
 10
-13.7
 11
-14.025
 20
-135.231
 21
-135.114
  0
LINE
  8
0
 10
-14.025
 11
-14.342
 20
-135.114
 21
-134.977
  0
LINE
  8
0
 10
-14.342
 11
-14.65
 20
-134.977
 21
-134.82
  0
LINE
  8
0
 10
-14.65
 11
-14.947
 20
-134.82
 21
-134.644
  0
LINE
  8
0
 10
-14.947
 11
-15.233
 20
-134.644
 21
-134.45
  0
LINE
  8
0
 10
-15.233
 11
-15.506
 20
-134.45
 21
-134.238
  0
LINE
  8
0
 10
-15.506
 11
-15.765
 20
-134.238
 21
-134.009
  0
LINE
  8
0
 10
-15.765
 11
-16.009
 20
-134.009
 21
-133.765
  0
LINE
  8
0
 10
-16.009
 11
-16.238
 20
-133.765
 21
-133.506
  0
LINE
  8
0
 10
-16.238
 11
-16.45
 20
-133.506
 21
-133.233
  0
LINE
  8
0
 10
-16.45
 11
-16.644
 20
-133.233
 21
-132.947
  0
LINE
  8
0
 10
-16.644
 11
-16.82
 20
-132.947
 21
-132.65
  0
LINE
  8
0
 10
-16.82
 11
-16.977
 20
-132.65
 21
-132.342
  0
LINE
  8
0
 10
-16.977
 11
-17.114
 20
-132.342
 21
-132.025
  0
LINE
  8
0
 10
-17.114
 11
-17.231
 20
-132.025
 21
-131.7
  0
LINE
  8
0
 10
-17.231
 11
-17.327
 20
-131.7
 21
-131.368
  0
LINE
  8
0
 10
-17.327
 11
-17.403
 20
-131.368
 21
-131.031
  0
LINE
  8
0
 10
-17.403
 11
-17.457
 20
-131.031
 21
-130.689
  0
LINE
  8
0
 10
-17.457
 11
-17.489
 20
-130.689
 21
-130.345
  0
LINE
  8
0
 10
-17.489
 11
-17.5
 20
-130.345
 21
-130
  0
LINE
  8
0
 10
-15.5
 11
-15.5
 20
64
 21
86
  0
LINE
  8
0
 10
-15.5
 11
15.5
 20
86
 21
86
  0
LINE
  8
0
 10
15.5
 11
15.5
 20
86
 21
64
  0
LINE
  8
0
 10
15.5
 11
-15.5
 20
64
 21
64
  0
LINE
  8
0
 10
-11.5
 11
-11.477
 20
120
 21
120.722
  0
LINE
  8
0
 10
-11.477
 11
-11.409
 20
120.722
 21
121.441
  0
LINE
  8
0
 10
-11.409
 11
-11.296
 20
121.441
 21
122.155
  0
LINE
  8
0
 10
-11.296
 11
-11.139
 20
122.155
 21
122.86
  0
LINE
  8
0
 10
-11.139
 11
-10.937
 20
122.86
 21
123.554
  0
LINE
  8
0
 10
-10.937
 11
-10.692
 20
123.554
 21
124.233
  0
LINE
  8
0
 10
-10.692
 11
-10.406
 20
124.233
 21
124.896
  0
LINE
  8
0
 10
-10.406
 11
-10.078
 20
124.896
 21
125.54
  0
LINE
  8
0
 10
-10.078
 11
-9.71
 20
125.54
 21
126.162
  0
LINE
  8
0
 10
-9.71
 11
-9.304
 20
126.162
 21
126.76
  0
LINE
  8
0
 10
-9.304
 11
-8.861
 20
126.76
 21
127.33
  0
LINE
  8
0
 10
-8.861
 11
-8.383
 20
127.33
 21
127.872
  0
LINE
  8
0
 10
-8.383
 11
-7.872
 20
127.872
 21
128.383
  0
LINE
  8
0
 10
-7.872
 11
-7.33
 20
128.383
 21
128.861
  0
LINE
  8
0
 10
-7.33
 11
-6.76
 20
128.861
 21
129.304
  0
LINE
  8
0
 10
-6.76
 11
-6.162
 20
129.304
 21
129.71
  0
LINE
  8
0
 10
-6.162
 11
-5.54
 20
129.71
 21
130.078
  0
LINE
  8
0
 10
-5.54
 11
-4.896
 20
130.078
 21
130.406
  0
LINE
  8
0
 10
-4.896
 11
-4.233
 20
130.406
 21
130.692
  0
LINE
  8
0
 10
-4.233
 11
-3.554
 20
130.692
 21
130.937
  0
LINE
  8
0
 10
-3.554
 11
-2.86
 20
130.937
 21
131.139
  0
LINE
  8
0
 10
-2.86
 11
-2.155
 20
131.139
 21
131.296
  0
LINE
  8
0
 10
-2.155
 11
-1.441
 20
131.296
 21
131.409
  0
LINE
  8
0
 10
-1.441
 11
-0.722
 20
131.409
 21
131.477
  0
LINE
  8
0
 10
-0.722
 11
0
 20
131.477
 21
131.5
  0
LINE
  8
0
 10
0
 11
0.722
 20
131.5
 21
131.477
  0
LINE
  8
0
 10
0.722
 11
1.441
 20
131.477
 21
131.409
  0
LINE
  8
0
 10
1.441
 11
2.155
 20
131.409
 21
131.296
  0
LINE
  8
0
 10
2.155
 11
2.86
 20
131.296
 21
131.139
  0
LINE
  8
0
 10
2.86
 11
3.554
 20
131.139
 21
130.937
  0
LINE
  8
0
 10
3.554
 11
4.233
 20
130.937
 21
130.692
  0
LINE
  8
0
 10
4.233
 11
4.896
 20
130.692
 21
130.406
  0
LINE
  8
0
 10
4.896
 11
5.54
 20
130.406
 21
130.078
  0
LINE
  8
0
 10
5.54
 11
6.162
 20
130.078
 21
129.71
  0
LINE
  8
0
 10
6.162
 11
6.76
 20
129.71
 21
129.304
  0
LINE
  8
0
 10
6.76
 11
7.33
 20
129.304
 21
128.861
  0
LINE
  8
0
 10
7.33
 11
7.872
 20
128.861
 21
128.383
  0
LINE
  8
0
 10
7.872
 11
8.383
 20
128.383
 21
127.872
  0
LINE
  8
0
 10
8.383
 11
8.861
 20
127.872
 21
127.33
  0
LINE
  8
0
 10
8.861
 11
9.304
 20
127.33
 21
126.76
  0
LINE
  8
0
 10
9.304
 11
9.71
 20
126.76
 21
126.162
  0
LINE
  8
0
 10
9.71
 11
10.078
 20
126.162
 21
125.54
  0
LINE
  8
0
 10
10.078
 11
10.406
 20
125.54
 21
124.896
  0
LINE
  8
0
 10
10.406
 11
10.692
 20
124.896
 21
124.233
  0
LINE
  8
0
 10
10.692
 11
10.937
 20
124.233
 21
123.554
  0
LINE
  8
0
 10
10.937
 11
11.139
 20
123.554
 21
122.86
  0
LINE
  8
0
 10
11.139
 11
11.296
 20
122.86
 21
122.155
  0
LINE
  8
0
 10
11.296
 11
11.409
 20
122.155
 21
121.441
  0
LINE
  8
0
 10
11.409
 11
11.477
 20
121.441
 21
120.722
  0
LINE
  8
0
 10
11.477
 11
11.5
 20
120.722
 21
120
  0
LINE
  8
0
 10
11.5
 11
11.477
 20
120
 21
119.278
  0
LINE
  8
0
 10
11.477
 11
11.409
 20
119.278
 21
118.559
  0
LINE
  8
0
 10
11.409
 11
11.296
 20
118.559
 21
117.845
  0
LINE
  8
0
 10
11.296
 11
11.139
 20
117.845
 21
117.14
  0
LINE
  8
0
 10
11.139
 11
10.937
 20
117.14
 21
116.446
  0
LINE
  8
0
 10
10.937
 11
10.692
 20
116.446
 21
115.767
  0
LINE
  8
0
 10
10.692
 11
10.406
 20
115.767
 21
115.104
  0
LINE
  8
0
 10
10.406
 11
10.078
 20
115.104
 21
114.46
  0
LINE
  8
0
 10
10.078
 11
9.71
 20
114.46
 21
113.838
  0
LINE
  8
0
 10
9.71
 11
9.304
 20
113.838
 21
113.24
  0
LINE
  8
0
 10
9.304
 11
8.861
 20
113.24
 21
112.67
  0
LINE
  8
0
 10
8.861
 11
8.383
 20
112.67
 21
112.128
  0
LINE
  8
0
 10
8.383
 11
7.872
 20
112.128
 21
111.617
  0
LINE
  8
0
 10
7.872
 11
7.33
 20
111.617
 21
111.139
  0
LINE
  8
0
 10
7.33
 11
6.76
 20
111.139
 21
110.696
  0
LINE
  8
0
 10
6.76
 11
6.162
 20
110.696
 21
110.29
  0
LINE
  8
0
 10
6.162
 11
5.54
 20
110.29
 21
109.922
  0
LINE
  8
0
 10
5.54
 11
4.896
 20
109.922
 21
109.594
  0
LINE
  8
0
 10
4.896
 11
4.233
 20
109.594
 21
109.308
  0
LINE
  8
0
 10
4.233
 11
3.554
 20
109.308
 21
109.063
  0
LINE
  8
0
 10
3.554
 11
2.86
 20
109.063
 21
108.861
  0
LINE
  8
0
 10
2.86
 11
2.155
 20
108.861
 21
108.704
  0
LINE
  8
0
 10
2.155
 11
1.441
 20
108.704
 21
108.591
  0
LINE
  8
0
 10
1.441
 11
0.722
 20
108.591
 21
108.523
  0
LINE
  8
0
 10
0.722
 11
0
 20
108.523
 21
108.5
  0
LINE
  8
0
 10
0
 11
-0.722
 20
108.5
 21
108.523
  0
LINE
  8
0
 10
-0.722
 11
-1.441
 20
108.523
 21
108.591
  0
LINE
  8
0
 10
-1.441
 11
-2.155
 20
108.591
 21
108.704
  0
LINE
  8
0
 10
-2.155
 11
-2.86
 20
108.704
 21
108.861
  0
LINE
  8
0
 10
-2.86
 11
-3.554
 20
108.861
 21
109.063
  0
LINE
  8
0
 10
-3.554
 11
-4.233
 20
109.063
 21
109.308
  0
LINE
  8
0
 10
-4.233
 11
-4.896
 20
109.308
 21
109.594
  0
LINE
  8
0
 10
-4.896
 11
-5.54
 20
109.594
 21
109.922
  0
LINE
  8
0
 10
-5.54
 11
-6.162
 20
109.922
 21
110.29
  0
LINE
  8
0
 10
-6.162
 11
-6.76
 20
110.29
 21
110.696
  0
LINE
  8
0
 10
-6.76
 11
-7.33
 20
110.696
 21
111.139
  0
LINE
  8
0
 10
-7.33
 11
-7.872
 20
111.139
 21
111.617
  0
LINE
  8
0
 10
-7.872
 11
-8.383
 20
111.617
 21
112.128
  0
LINE
  8
0
 10
-8.383
 11
-8.861
 20
112.128
 21
112.67
  0
LINE
  8
0
 10
-8.861
 11
-9.304
 20
112.67
 21
113.24
  0
LINE
  8
0
 10
-9.304
 11
-9.71
 20
113.24
 21
113.838
  0
LINE
  8
0
 10
-9.71
 11
-10.078
 20
113.838
 21
114.46
  0
LINE
  8
0
 10
-10.078
 11
-10.406
 20
114.46
 21
115.104
  0
LINE
  8
0
 10
-10.406
 11
-10.692
 20
115.104
 21
115.767
  0
LINE
  8
0
 10
-10.692
 11
-10.937
 20
115.767
 21
116.446
  0
LINE
  8
0
 10
-10.937
 11
-11.139
 20
116.446
 21
117.14
  0
LINE
  8
0
 10
-11.139
 11
-11.296
 20
117.14
 21
117.845
  0
LINE
  8
0
 10
-11.296
 11
-11.409
 20
117.845
 21
118.559
  0
LINE
  8
0
 10
-11.409
 11
-11.477
 20
118.559
 21
119.278
  0
LINE
  8
0
 10
-11.477
 11
-11.5
 20
119.278
 21
120
  0
LINE
  8
0
 10
-3
 11
-2.994
 20
-98
 21
-97.812
  0
LINE
  8
0
 10
-2.994
 11
-2.976
 20
-97.812
 21
-97.624
  0
LINE
  8
0
 10
-2.976
 11
-2.947
 20
-97.624
 21
-97.438
  0
LINE
  8
0
 10
-2.947
 11
-2.906
 20
-97.438
 21
-97.254
  0
LINE
  8
0
 10
-2.906
 11
-2.853
 20
-97.254
 21
-97.073
  0
LINE
  8
0
 10
-2.853
 11
-2.789
 20
-97.073
 21
-96.896
  0
LINE
  8
0
 10
-2.789
 11
-2.714
 20
-96.896
 21
-96.723
  0
LINE
  8
0
 10
-2.714
 11
-2.629
 20
-96.723
 21
-96.555
  0
LINE
  8
0
 10
-2.629
 11
-2.533
 20
-96.555
 21
-96.393
  0
LINE
  8
0
 10
-2.533
 11
-2.427
 20
-96.393
 21
-96.237
  0
LINE
  8
0
 10
-2.427
 11
-2.312
 20
-96.237
 21
-96.088
  0
LINE
  8
0
 10
-2.312
 11
-2.187
 20
-96.088
 21
-95.946
  0
LINE
  8
0
 10
-2.187
 11
-2.054
 20
-95.946
 21
-95.813
  0
LINE
  8
0
 10
-2.054
 11
-1.912
 20
-95.813
 21
-95.688
  0
LINE
  8
0
 10
-1.912
 11
-1.763
 20
-95.688
 21
-95.573
  0
LINE
  8
0
 10
-1.763
 11
-1.607
 20
-95.573
 21
-95.467
  0
LINE
  8
0
 10
-1.607
 11
-1.445
 20
-95.467
 21
-95.371
  0
LINE
  8
0
 10
-1.445
 11
-1.277
 20
-95.371
 21
-95.286
  0
LINE
  8
0
 10
-1.277
 11
-1.104
 20
-95.286
 21
-95.211
  0
LINE
  8
0
 10
-1.104
 11
-0.927
 20
-95.211
 21
-95.147
  0
LINE
  8
0
 10
-0.927
 11
-0.746
 20
-95.147
 21
-95.094
  0
LINE
  8
0
 10
-0.746
 11
-0.562
 20
-95.094
 21
-95.053
  0
LINE
  8
0
 10
-0.562
 11
-0.376
 20
-95.053
 21
-95.024
  0
LINE
  8
0
 10
-0.376
 11
-0.188
 20
-95.024
 21
-95.006
  0
LINE
  8
0
 10
-0.188
 11
0
 20
-95.006
 21
-95
  0
LINE
  8
0
 10
0
 11
0.188
 20
-95
 21
-95.006
  0
LINE
  8
0
 10
0.188
 11
0.376
 20
-95.006
 21
-95.024
  0
LINE
  8
0
 10
0.376
 11
0.562
 20
-95.024
 21
-95.053
  0
LINE
  8
0
 10
0.562
 11
0.746
 20
-95.053
 21
-95.094
  0
LINE
  8
0
 10
0.746
 11
0.927
 20
-95.094
 21
-95.147
  0
LINE
  8
0
 10
0.927
 11
1.104
 20
-95.147
 21
-95.211
  0
LINE
  8
0
 10
1.104
 11
1.277
 20
-95.211
 21
-95.286
  0
LINE
  8
0
 10
1.277
 11
1.445
 20
-95.286
 21
-95.371
  0
LINE
  8
0
 10
1.445
 11
1.607
 20
-95.371
 21
-95.467
  0
LINE
  8
0
 10
1.607
 11
1.763
 20
-95.467
 21
-95.573
  0
LINE
  8
0
 10
1.763
 11
1.912
 20
-95.573
 21
-95.688
  0
LINE
  8
0
 10
1.912
 11
2.054
 20
-95.688
 21
-95.813
  0
LINE
  8
0
 10
2.054
 11
2.187
 20
-95.813
 21
-95.946
  0
LINE
  8
0
 10
2.187
 11
2.312
 20
-95.946
 21
-96.088
  0
LINE
  8
0
 10
2.312
 11
2.427
 20
-96.088
 21
-96.237
  0
LINE
  8
0
 10
2.427
 11
2.533
 20
-96.237
 21
-96.393
  0
LINE
  8
0
 10
2.533
 11
2.629
 20
-96.393
 21
-96.555
  0
LINE
  8
0
 10
2.629
 11
2.714
 20
-96.555
 21
-96.723
  0
LINE
  8
0
 10
2.714
 11
2.789
 20
-96.723
 21
-96.896
  0
LINE
  8
0
 10
2.789
 11
2.853
 20
-96.896
 21
-97.073
  0
LINE
  8
0
 10
2.853
 11
2.906
 20
-97.073
 21
-97.254
  0
LINE
  8
0
 10
2.906
 11
2.947
 20
-97.254
 21
-97.438
  0
LINE
  8
0
 10
2.947
 11
2.976
 20
-97.438
 21
-97.624
  0
LINE
  8
0
 10
2.976
 11
2.994
 20
-97.624
 21
-97.812
  0
LINE
  8
0
 10
2.994
 11
3
 20
-97.812
 21
-98
  0
LINE
  8
0
 10
3
 11
2.994
 20
-98
 21
-98.188
  0
LINE
  8
0
 10
2.994
 11
2.976
 20
-98.188
 21
-98.376
  0
LINE
  8
0
 10
2.976
 11
2.947
 20
-98.376
 21
-98.562
  0
LINE
  8
0
 10
2.947
 11
2.906
 20
-98.562
 21
-98.746
  0
LINE
  8
0
 10
2.906
 11
2.853
 20
-98.746
 21
-98.927
  0
LINE
  8
0
 10
2.853
 11
2.789
 20
-98.927
 21
-99.104
  0
LINE
  8
0
 10
2.789
 11
2.714
 20
-99.104
 21
-99.277
  0
LINE
  8
0
 10
2.714
 11
2.629
 20
-99.277
 21
-99.445
  0
LINE
  8
0
 10
2.629
 11
2.533
 20
-99.445
 21
-99.607
  0
LINE
  8
0
 10
2.533
 11
2.427
 20
-99.607
 21
-99.763
  0
LINE
  8
0
 10
2.427
 11
2.312
 20
-99.763
 21
-99.912
  0
LINE
  8
0
 10
2.312
 11
2.187
 20
-99.912
 21
-100.054
  0
LINE
  8
0
 10
2.187
 11
2.054
 20
-100.054
 21
-100.187
  0
LINE
  8
0
 10
2.054
 11
1.912
 20
-100.187
 21
-100.312
  0
LINE
  8
0
 10
1.912
 11
1.763
 20
-100.312
 21
-100.427
  0
LINE
  8
0
 10
1.763
 11
1.607
 20
-100.427
 21
-100.533
  0
LINE
  8
0
 10
1.607
 11
1.445
 20
-100.533
 21
-100.629
  0
LINE
  8
0
 10
1.445
 11
1.277
 20
-100.629
 21
-100.714
  0
LINE
  8
0
 10
1.277
 11
1.104
 20
-100.714
 21
-100.789
  0
LINE
  8
0
 10
1.104
 11
0.927
 20
-100.789
 21
-100.853
  0
LINE
  8
0
 10
0.927
 11
0.746
 20
-100.853
 21
-100.906
  0
LINE
  8
0
 10
0.746
 11
0.562
 20
-100.906
 21
-100.947
  0
LINE
  8
0
 10
0.562
 11
0.376
 20
-100.947
 21
-100.976
  0
LINE
  8
0
 10
0.376
 11
0.188
 20
-100.976
 21
-100.994
  0
LINE
  8
0
 10
0.188
 11
0
 20
-100.994
 21
-101
  0
LINE
  8
0
 10
0
 11
-0.188
 20
-101
 21
-100.994
  0
LINE
  8
0
 10
-0.188
 11
-0.376
 20
-100.994
 21
-100.976
  0
LINE
  8
0
 10
-0.376
 11
-0.562
 20
-100.976
 21
-100.947
  0
LINE
  8
0
 10
-0.562
 11
-0.746
 20
-100.947
 21
-100.906
  0
LINE
  8
0
 10
-0.746
 11
-0.927
 20
-100.906
 21
-100.853
  0
LINE
  8
0
 10
-0.927
 11
-1.104
 20
-100.853
 21
-100.789
  0
LINE
  8
0
 10
-1.104
 11
-1.277
 20
-100.789
 21
-100.714
  0
LINE
  8
0
 10
-1.277
 11
-1.445
 20
-100.714
 21
-100.629
  0
LINE
  8
0
 10
-1.445
 11
-1.607
 20
-100.629
 21
-100.533
  0
LINE
  8
0
 10
-1.607
 11
-1.763
 20
-100.533
 21
-100.427
  0
LINE
  8
0
 10
-1.763
 11
-1.912
 20
-100.427
 21
-100.312
  0
LINE
  8
0
 10
-1.912
 11
-2.054
 20
-100.312
 21
-100.187
  0
LINE
  8
0
 10
-2.054
 11
-2.187
 20
-100.187
 21
-100.054
  0
LINE
  8
0
 10
-2.187
 11
-2.312
 20
-100.054
 21
-99.912
  0
LINE
  8
0
 10
-2.312
 11
-2.427
 20
-99.912
 21
-99.763
  0
LINE
  8
0
 10
-2.427
 11
-2.533
 20
-99.763
 21
-99.607
  0
LINE
  8
0
 10
-2.533
 11
-2.629
 20
-99.607
 21
-99.445
  0
LINE
  8
0
 10
-2.629
 11
-2.714
 20
-99.445
 21
-99.277
  0
LINE
  8
0
 10
-2.714
 11
-2.789
 20
-99.277
 21
-99.104
  0
LINE
  8
0
 10
-2.789
 11
-2.853
 20
-99.104
 21
-98.927
  0
LINE
  8
0
 10
-2.853
 11
-2.906
 20
-98.927
 21
-98.746
  0
LINE
  8
0
 10
-2.906
 11
-2.947
 20
-98.746
 21
-98.562
  0
LINE
  8
0
 10
-2.947
 11
-2.976
 20
-98.562
 21
-98.376
  0
LINE
  8
0
 10
-2.976
 11
-2.994
 20
-98.376
 21
-98.188
  0
LINE
  8
0
 10
-2.994
 11
-3
 20
-98.188
 21
-98
  0
LINE
  8
0
 10
6.5
 11
6.511
 20
-130
 21
-129.655
  0
LINE
  8
0
 10
6.511
 11
6.543
 20
-129.655
 21
-129.311
  0
LINE
  8
0
 10
6.543
 11
6.597
 20
-129.311
 21
-128.969
  0
LINE
  8
0
 10
6.597
 11
6.673
 20
-128.969
 21
-128.632
  0
LINE
  8
0
 10
6.673
 11
6.769
 20
-128.632
 21
-128.3
  0
LINE
  8
0
 10
6.769
 11
6.886
 20
-128.3
 21
-127.975
  0
LINE
  8
0
 10
6.886
 11
7.023
 20
-127.975
 21
-127.658
  0
LINE
  8
0
 10
7.023
 11
7.18
 20
-127.658
 21
-127.35
  0
LINE
  8
0
 10
7.18
 11
7.356
 20
-127.35
 21
-127.053
  0
LINE
  8
0
 10
7.356
 11
7.55
 20
-127.053
 21
-126.767
  0
LINE
  8
0
 10
7.55
 11
7.762
 20
-126.767
 21
-126.494
  0
LINE
  8
0
 10
7.762
 11
7.991
 20
-126.494
 21
-126.235
  0
LINE
  8
0
 10
7.991
 11
8.235
 20
-126.235
 21
-125.991
  0
LINE
  8
0
 10
8.235
 11
8.494
 20
-125.991
 21
-125.762
  0
LINE
  8
0
 10
8.494
 11
8.767
 20
-125.762
 21
-125.55
  0
LINE
  8
0
 10
8.767
 11
9.053
 20
-125.55
 21
-125.356
  0
LINE
  8
0
 10
9.053
 11
9.35
 20
-125.356
 21
-125.18
  0
LINE
  8
0
 10
9.35
 11
9.658
 20
-125.18
 21
-125.023
  0
LINE
  8
0
 10
9.658
 11
9.975
 20
-125.023
 21
-124.886
  0
LINE
  8
0
 10
9.975
 11
10.3
 20
-124.886
 21
-124.769
  0
LINE
  8
0
 10
10.3
 11
10.632
 20
-124.769
 21
-124.673
  0
LINE
  8
0
 10
10.632
 11
10.969
 20
-124.673
 21
-124.597
  0
LINE
  8
0
 10
10.969
 11
11.311
 20
-124.597
 21
-124.543
  0
LINE
  8
0
 10
11.311
 11
11.655
 20
-124.543
 21
-124.511
  0
LINE
  8
0
 10
11.655
 11
12
 20
-124.511
 21
-124.5
  0
LINE
  8
0
 10
12
 11
12.345
 20
-124.5
 21
-124.511
  0
LINE
  8
0
 10
12.345
 11
12.689
 20
-124.511
 21
-124.543
  0
LINE
  8
0
 10
12.689
 11
13.031
 20
-124.543
 21
-124.597
  0
LINE
  8
0
 10
13.031
 11
13.368
 20
-124.597
 21
-124.673
  0
LINE
  8
0
 10
13.368
 11
13.7
 20
-124.673
 21
-124.769
  0
LINE
  8
0
 10
13.7
 11
14.025
 20
-124.769
 21
-124.886
  0
LINE
  8
0
 10
14.025
 11
14.342
 20
-124.886
 21
-125.023
  0
LINE
  8
0
 10
14.342
 11
14.65
 20
-125.023
 21
-125.18
  0
LINE
  8
0
 10
14.65
 11
14.947
 20
-125.18
 21
-125.356
  0
LINE
  8
0
 10
14.947
 11
15.233
 20
-125.356
 21
-125.55
  0
LINE
  8
0
 10
15.233
 11
15.506
 20
-125.55
 21
-125.762
  0
LINE
  8
0
 10
15.506
 11
15.765
 20
-125.762
 21
-125.991
  0
LINE
  8
0
 10
15.765
 11
16.009
 20
-125.991
 21
-126.235
  0
LINE
  8
0
 10
16.009
 11
16.238
 20
-126.235
 21
-126.494
  0
LINE
  8
0
 10
16.238
 11
16.45
 20
-126.494
 21
-126.767
  0
LINE
  8
0
 10
16.45
 11
16.644
 20
-126.767
 21
-127.053
  0
LINE
  8
0
 10
16.644
 11
16.82
 20
-127.053
 21
-127.35
  0
LINE
  8
0
 10
16.82
 11
16.977
 20
-127.35
 21
-127.658
  0
LINE
  8
0
 10
16.977
 11
17.114
 20
-127.658
 21
-127.975
  0
LINE
  8
0
 10
17.114
 11
17.231
 20
-127.975
 21
-128.3
  0
LINE
  8
0
 10
17.231
 11
17.327
 20
-128.3
 21
-128.632
  0
LINE
  8
0
 10
17.327
 11
17.403
 20
-128.632
 21
-128.969
  0
LINE
  8
0
 10
17.403
 11
17.457
 20
-128.969
 21
-129.311
  0
LINE
  8
0
 10
17.457
 11
17.489
 20
-129.311
 21
-129.655
  0
LINE
  8
0
 10
17.489
 11
17.5
 20
-129.655
 21
-130
  0
LINE
  8
0
 10
17.5
 11
17.489
 20
-130
 21
-130.345
  0
LINE
  8
0
 10
17.489
 11
17.457
 20
-130.345
 21
-130.689
  0
LINE
  8
0
 10
17.457
 11
17.403
 20
-130.689
 21
-131.031
  0
LINE
  8
0
 10
17.403
 11
17.327
 20
-131.031
 21
-131.368
  0
LINE
  8
0
 10
17.327
 11
17.231
 20
-131.368
 21
-131.7
  0
LINE
  8
0
 10
17.231
 11
17.114
 20
-131.7
 21
-132.025
  0
LINE
  8
0
 10
17.114
 11
16.977
 20
-132.025
 21
-132.342
  0
LINE
  8
0
 10
16.977
 11
16.82
 20
-132.342
 21
-132.65
  0
LINE
  8
0
 10
16.82
 11
16.644
 20
-132.65
 21
-132.947
  0
LINE
  8
0
 10
16.644
 11
16.45
 20
-132.947
 21
-133.233
  0
LINE
  8
0
 10
16.45
 11
16.238
 20
-133.233
 21
-133.506
  0
LINE
  8
0
 10
16.238
 11
16.009
 20
-133.506
 21
-133.765
  0
LINE
  8
0
 10
16.009
 11
15.765
 20
-133.765
 21
-134.009
  0
LINE
  8
0
 10
15.765
 11
15.506
 20
-134.009
 21
-134.238
  0
LINE
  8
0
 10
15.506
 11
15.233
 20
-134.238
 21
-134.45
  0
LINE
  8
0
 10
15.233
 11
14.947
 20
-134.45
 21
-134.644
  0
LINE
  8
0
 10
14.947
 11
14.65
 20
-134.644
 21
-134.82
  0
LINE
  8
0
 10
14.65
 11
14.342
 20
-134.82
 21
-134.977
  0
LINE
  8
0
 10
14.342
 11
14.025
 20
-134.977
 21
-135.114
  0
LINE
  8
0
 10
14.025
 11
13.7
 20
-135.114
 21
-135.231
  0
LINE
  8
0
 10
13.7
 11
13.368
 20
-135.231
 21
-135.327
  0
LINE
  8
0
 10
13.368
 11
13.031
 20
-135.327
 21
-135.403
  0
LINE
  8
0
 10
13.031
 11
12.689
 20
-135.403
 21
-135.457
  0
LINE
  8
0
 10
12.689
 11
12.345
 20
-135.457
 21
-135.489
  0
LINE
  8
0
 10
12.345
 11
12
 20
-135.489
 21
-135.5
  0
LINE
  8
0
 10
12
 11
11.655
 20
-135.5
 21
-135.489
  0
LINE
  8
0
 10
11.655
 11
11.311
 20
-135.489
 21
-135.457
  0
LINE
  8
0
 10
11.311
 11
10.969
 20
-135.457
 21
-135.403
  0
LINE
  8
0
 10
10.969
 11
10.632
 20
-135.403
 21
-135.327
  0
LINE
  8
0
 10
10.632
 11
10.3
 20
-135.327
 21
-135.231
  0
LINE
  8
0
 10
10.3
 11
9.975
 20
-135.231
 21
-135.114
  0
LINE
  8
0
 10
9.975
 11
9.658
 20
-135.114
 21
-134.977
  0
LINE
  8
0
 10
9.658
 11
9.35
 20
-134.977
 21
-134.82
  0
LINE
  8
0
 10
9.35
 11
9.053
 20
-134.82
 21
-134.644
  0
LINE
  8
0
 10
9.053
 11
8.767
 20
-134.644
 21
-134.45
  0
LINE
  8
0
 10
8.767
 11
8.494
 20
-134.45
 21
-134.238
  0
LINE
  8
0
 10
8.494
 11
8.235
 20
-134.238
 21
-134.009
  0
LINE
  8
0
 10
8.235
 11
7.991
 20
-134.009
 21
-133.765
  0
LINE
  8
0
 10
7.991
 11
7.762
 20
-133.765
 21
-133.506
  0
LINE
  8
0
 10
7.762
 11
7.55
 20
-133.506
 21
-133.233
  0
LINE
  8
0
 10
7.55
 11
7.356
 20
-133.233
 21
-132.947
  0
LINE
  8
0
 10
7.356
 11
7.18
 20
-132.947
 21
-132.65
  0
LINE
  8
0
 10
7.18
 11
7.023
 20
-132.65
 21
-132.342
  0
LINE
  8
0
 10
7.023
 11
6.886
 20
-132.342
 21
-132.025
  0
LINE
  8
0
 10
6.886
 11
6.769
 20
-132.025
 21
-131.7
  0
LINE
  8
0
 10
6.769
 11
6.673
 20
-131.7
 21
-131.368
  0
LINE
  8
0
 10
6.673
 11
6.597
 20
-131.368
 21
-131.031
  0
LINE
  8
0
 10
6.597
 11
6.543
 20
-131.031
 21
-130.689
  0
LINE
  8
0
 10
6.543
 11
6.511
 20
-130.689
 21
-130.345
  0
LINE
  8
0
 10
6.511
 11
6.5
 20
-130.345
 21
-130
  0
LINE
  8
0
 10
19
 11
19.004
 20
-21
 21
-20.874
  0
LINE
  8
0
 10
19.004
 11
19.016
 20
-20.874
 21
-20.749
  0
LINE
  8
0
 10
19.016
 11
19.035
 20
-20.749
 21
-20.625
  0
LINE
  8
0
 10
19.035
 11
19.063
 20
-20.625
 21
-20.503
  0
LINE
  8
0
 10
19.063
 11
19.098
 20
-20.503
 21
-20.382
  0
LINE
  8
0
 10
19.098
 11
19.14
 20
-20.382
 21
-20.264
  0
LINE
  8
0
 10
19.14
 11
19.19
 20
-20.264
 21
-20.148
  0
LINE
  8
0
 10
19.19
 11
19.247
 20
-20.148
 21
-20.036
  0
LINE
  8
0
 10
19.247
 11
19.311
 20
-20.036
 21
-19.928
  0
LINE
  8
0
 10
19.311
 11
19.382
 20
-19.928
 21
-19.824
  0
LINE
  8
0
 10
19.382
 11
19.459
 20
-19.824
 21
-19.725
  0
LINE
  8
0
 10
19.459
 11
19.542
 20
-19.725
 21
-19.631
  0
LINE
  8
0
 10
19.542
 11
19.631
 20
-19.631
 21
-19.542
  0
LINE
  8
0
 10
19.631
 11
19.725
 20
-19.542
 21
-19.459
  0
LINE
  8
0
 10
19.725
 11
19.824
 20
-19.459
 21
-19.382
  0
LINE
  8
0
 10
19.824
 11
19.928
 20
-19.382
 21
-19.311
  0
LINE
  8
0
 10
19.928
 11
20.036
 20
-19.311
 21
-19.247
  0
LINE
  8
0
 10
20.036
 11
20.148
 20
-19.247
 21
-19.19
  0
LINE
  8
0
 10
20.148
 11
20.264
 20
-19.19
 21
-19.14
  0
LINE
  8
0
 10
20.264
 11
20.382
 20
-19.14
 21
-19.098
  0
LINE
  8
0
 10
20.382
 11
20.503
 20
-19.098
 21
-19.063
  0
LINE
  8
0
 10
20.503
 11
20.625
 20
-19.063
 21
-19.035
  0
LINE
  8
0
 10
20.625
 11
20.749
 20
-19.035
 21
-19.016
  0
LINE
  8
0
 10
20.749
 11
20.874
 20
-19.016
 21
-19.004
  0
LINE
  8
0
 10
20.874
 11
21
 20
-19.004
 21
-19
  0
LINE
  8
0
 10
21
 11
21.126
 20
-19
 21
-19.004
  0
LINE
  8
0
 10
21.126
 11
21.251
 20
-19.004
 21
-19.016
  0
LINE
  8
0
 10
21.251
 11
21.375
 20
-19.016
 21
-19.035
  0
LINE
  8
0
 10
21.375
 11
21.497
 20
-19.035
 21
-19.063
  0
LINE
  8
0
 10
21.497
 11
21.618
 20
-19.063
 21
-19.098
  0
LINE
  8
0
 10
21.618
 11
21.736
 20
-19.098
 21
-19.14
  0
LINE
  8
0
 10
21.736
 11
21.852
 20
-19.14
 21
-19.19
  0
LINE
  8
0
 10
21.852
 11
21.964
 20
-19.19
 21
-19.247
  0
LINE
  8
0
 10
21.964
 11
22.072
 20
-19.247
 21
-19.311
  0
LINE
  8
0
 10
22.072
 11
22.176
 20
-19.311
 21
-19.382
  0
LINE
  8
0
 10
22.176
 11
22.275
 20
-19.382
 21
-19.459
  0
LINE
  8
0
 10
22.275
 11
22.369
 20
-19.459
 21
-19.542
  0
LINE
  8
0
 10
22.369
 11
22.458
 20
-19.542
 21
-19.631
  0
LINE
  8
0
 10
22.458
 11
22.541
 20
-19.631
 21
-19.725
  0
LINE
  8
0
 10
22.541
 11
22.618
 20
-19.725
 21
-19.824
  0
LINE
  8
0
 10
22.618
 11
22.689
 20
-19.824
 21
-19.928
  0
LINE
  8
0
 10
22.689
 11
22.753
 20
-19.928
 21
-20.036
  0
LINE
  8
0
 10
22.753
 11
22.81
 20
-20.036
 21
-20.148
  0
LINE
  8
0
 10
22.81
 11
22.86
 20
-20.148
 21
-20.264
  0
LINE
  8
0
 10
22.86
 11
22.902
 20
-20.264
 21
-20.382
  0
LINE
  8
0
 10
22.902
 11
22.937
 20
-20.382
 21
-20.503
  0
LINE
  8
0
 10
22.937
 11
22.965
 20
-20.503
 21
-20.625
  0
LINE
  8
0
 10
22.965
 11
22.984
 20
-20.625
 21
-20.749
  0
LINE
  8
0
 10
22.984
 11
22.996
 20
-20.749
 21
-20.874
  0
LINE
  8
0
 10
22.996
 11
23
 20
-20.874
 21
-21
  0
LINE
  8
0
 10
23
 11
22.996
 20
-21
 21
-21.126
  0
LINE
  8
0
 10
22.996
 11
22.984
 20
-21.126
 21
-21.251
  0
LINE
  8
0
 10
22.984
 11
22.965
 20
-21.251
 21
-21.375
  0
LINE
  8
0
 10
22.965
 11
22.937
 20
-21.375
 21
-21.497
  0
LINE
  8
0
 10
22.937
 11
22.902
 20
-21.497
 21
-21.618
  0
LINE
  8
0
 10
22.902
 11
22.86
 20
-21.618
 21
-21.736
  0
LINE
  8
0
 10
22.86
 11
22.81
 20
-21.736
 21
-21.852
  0
LINE
  8
0
 10
22.81
 11
22.753
 20
-21.852
 21
-21.964
  0
LINE
  8
0
 10
22.753
 11
22.689
 20
-21.964
 21
-22.072
  0
LINE
  8
0
 10
22.689
 11
22.618
 20
-22.072
 21
-22.176
  0
LINE
  8
0
 10
22.618
 11
22.541
 20
-22.176
 21
-22.275
  0
LINE
  8
0
 10
22.541
 11
22.458
 20
-22.275
 21
-22.369
  0
LINE
  8
0
 10
22.458
 11
22.369
 20
-22.369
 21
-22.458
  0
LINE
  8
0
 10
22.369
 11
22.275
 20
-22.458
 21
-22.541
  0
LINE
  8
0
 10
22.275
 11
22.176
 20
-22.541
 21
-22.618
  0
LINE
  8
0
 10
22.176
 11
22.072
 20
-22.618
 21
-22.689
  0
LINE
  8
0
 10
22.072
 11
21.964
 20
-22.689
 21
-22.753
  0
LINE
  8
0
 10
21.964
 11
21.852
 20
-22.753
 21
-22.81
  0
LINE
  8
0
 10
21.852
 11
21.736
 20
-22.81
 21
-22.86
  0
LINE
  8
0
 10
21.736
 11
21.618
 20
-22.86
 21
-22.902
  0
LINE
  8
0
 10
21.618
 11
21.497
 20
-22.902
 21
-22.937
  0
LINE
  8
0
 10
21.497
 11
21.375
 20
-22.937
 21
-22.965
  0
LINE
  8
0
 10
21.375
 11
21.251
 20
-22.965
 21
-22.984
  0
LINE
  8
0
 10
21.251
 11
21.126
 20
-22.984
 21
-22.996
  0
LINE
  8
0
 10
21.126
 11
21
 20
-22.996
 21
-23
  0
LINE
  8
0
 10
21
 11
20.874
 20
-23
 21
-22.996
  0
LINE
  8
0
 10
20.874
 11
20.749
 20
-22.996
 21
-22.984
  0
LINE
  8
0
 10
20.749
 11
20.625
 20
-22.984
 21
-22.965
  0
LINE
  8
0
 10
20.625
 11
20.503
 20
-22.965
 21
-22.937
  0
LINE
  8
0
 10
20.503
 11
20.382
 20
-22.937
 21
-22.902
  0
LINE
  8
0
 10
20.382
 11
20.264
 20
-22.902
 21
-22.86
  0
LINE
  8
0
 10
20.264
 11
20.148
 20
-22.86
 21
-22.81
  0
LINE
  8
0
 10
20.148
 11
20.036
 20
-22.81
 21
-22.753
  0
LINE
  8
0
 10
20.036
 11
19.928
 20
-22.753
 21
-22.689
  0
LINE
  8
0
 10
19.928
 11
19.824
 20
-22.689
 21
-22.618
  0
LINE
  8
0
 10
19.824
 11
19.725
 20
-22.618
 21
-22.541
  0
LINE
  8
0
 10
19.725
 11
19.631
 20
-22.541
 21
-22.458
  0
LINE
  8
0
 10
19.631
 11
19.542
 20
-22.458
 21
-22.369
  0
LINE
  8
0
 10
19.542
 11
19.459
 20
-22.369
 21
-22.275
  0
LINE
  8
0
 10
19.459
 11
19.382
 20
-22.275
 21
-22.176
  0
LINE
  8
0
 10
19.382
 11
19.311
 20
-22.176
 21
-22.072
  0
LINE
  8
0
 10
19.311
 11
19.247
 20
-22.072
 21
-21.964
  0
LINE
  8
0
 10
19.247
 11
19.19
 20
-21.964
 21
-21.852
  0
LINE
  8
0
 10
19.19
 11
19.14
 20
-21.852
 21
-21.736
  0
LINE
  8
0
 10
19.14
 11
19.098
 20
-21.736
 21
-21.618
  0
LINE
  8
0
 10
19.098
 11
19.063
 20
-21.618
 21
-21.497
  0
LINE
  8
0
 10
19.063
 11
19.035
 20
-21.497
 21
-21.375
  0
LINE
  8
0
 10
19.035
 11
19.016
 20
-21.375
 21
-21.251
  0
LINE
  8
0
 10
19.016
 11
19.004
 20
-21.251
 21
-21.126
  0
LINE
  8
0
 10
19.004
 11
19
 20
-21.126
 21
-21
  0
LINE
  8
0
 10
19
 11
19.004
 20
21
 21
21.126
  0
LINE
  8
0
 10
19.004
 11
19.016
 20
21.126
 21
21.251
  0
LINE
  8
0
 10
19.016
 11
19.035
 20
21.251
 21
21.375
  0
LINE
  8
0
 10
19.035
 11
19.063
 20
21.375
 21
21.497
  0
LINE
  8
0
 10
19.063
 11
19.098
 20
21.497
 21
21.618
  0
LINE
  8
0
 10
19.098
 11
19.14
 20
21.618
 21
21.736
  0
LINE
  8
0
 10
19.14
 11
19.19
 20
21.736
 21
21.852
  0
LINE
  8
0
 10
19.19
 11
19.247
 20
21.852
 21
21.964
  0
LINE
  8
0
 10
19.247
 11
19.311
 20
21.964
 21
22.072
  0
LINE
  8
0
 10
19.311
 11
19.382
 20
22.072
 21
22.176
  0
LINE
  8
0
 10
19.382
 11
19.459
 20
22.176
 21
22.275
  0
LINE
  8
0
 10
19.459
 11
19.542
 20
22.275
 21
22.369
  0
LINE
  8
0
 10
19.542
 11
19.631
 20
22.369
 21
22.458
  0
LINE
  8
0
 10
19.631
 11
19.725
 20
22.458
 21
22.541
  0
LINE
  8
0
 10
19.725
 11
19.824
 20
22.541
 21
22.618
  0
LINE
  8
0
 10
19.824
 11
19.928
 20
22.618
 21
22.689
  0
LINE
  8
0
 10
19.928
 11
20.036
 20
22.689
 21
22.753
  0
LINE
  8
0
 10
20.036
 11
20.148
 20
22.753
 21
22.81
  0
LINE
  8
0
 10
20.148
 11
20.264
 20
22.81
 21
22.86
  0
LINE
  8
0
 10
20.264
 11
20.382
 20
22.86
 21
22.902
  0
LINE
  8
0
 10
20.382
 11
20.503
 20
22.902
 21
22.937
  0
LINE
  8
0
 10
20.503
 11
20.625
 20
22.937
 21
22.965
  0
LINE
  8
0
 10
20.625
 11
20.749
 20
22.965
 21
22.984
  0
LINE
  8
0
 10
20.749
 11
20.874
 20
22.984
 21
22.996
  0
LINE
  8
0
 10
20.874
 11
21
 20
22.996
 21
23
  0
LINE
  8
0
 10
21
 11
21.126
 20
23
 21
22.996
  0
LINE
  8
0
 10
21.126
 11
21.251
 20
22.996
 21
22.984
  0
LINE
  8
0
 10
21.251
 11
21.375
 20
22.984
 21
22.965
  0
LINE
  8
0
 10
21.375
 11
21.497
 20
22.965
 21
22.937
  0
LINE
  8
0
 10
21.497
 11
21.618
 20
22.937
 21
22.902
  0
LINE
  8
0
 10
21.618
 11
21.736
 20
22.902
 21
22.86
  0
LINE
  8
0
 10
21.736
 11
21.852
 20
22.86
 21
22.81
  0
LINE
  8
0
 10
21.852
 11
21.964
 20
22.81
 21
22.753
  0
LINE
  8
0
 10
21.964
 11
22.072
 20
22.753
 21
22.689
  0
LINE
  8
0
 10
22.072
 11
22.176
 20
22.689
 21
22.618
  0
LINE
  8
0
 10
22.176
 11
22.275
 20
22.618
 21
22.541
  0
LINE
  8
0
 10
22.275
 11
22.369
 20
22.541
 21
22.458
  0
LINE
  8
0
 10
22.369
 11
22.458
 20
22.458
 21
22.369
  0
LINE
  8
0
 10
22.458
 11
22.541
 20
22.369
 21
22.275
  0
LINE
  8
0
 10
22.541
 11
22.618
 20
22.275
 21
22.176
  0
LINE
  8
0
 10
22.618
 11
22.689
 20
22.176
 21
22.072
  0
LINE
  8
0
 10
22.689
 11
22.753
 20
22.072
 21
21.964
  0
LINE
  8
0
 10
22.753
 11
22.81
 20
21.964
 21
21.852
  0
LINE
  8
0
 10
22.81
 11
22.86
 20
21.852
 21
21.736
  0
LINE
  8
0
 10
22.86
 11
22.902
 20
21.736
 21
21.618
  0
LINE
  8
0
 10
22.902
 11
22.937
 20
21.618
 21
21.497
  0
LINE
  8
0
 10
22.937
 11
22.965
 20
21.497
 21
21.375
  0
LINE
  8
0
 10
22.965
 11
22.984
 20
21.375
 21
21.251
  0
LINE
  8
0
 10
22.984
 11
22.996
 20
21.251
 21
21.126
  0
LINE
  8
0
 10
22.996
 11
23
 20
21.126
 21
21
  0
LINE
  8
0
 10
23
 11
22.996
 20
21
 21
20.874
  0
LINE
  8
0
 10
22.996
 11
22.984
 20
20.874
 21
20.749
  0
LINE
  8
0
 10
22.984
 11
22.965
 20
20.749
 21
20.625
  0
LINE
  8
0
 10
22.965
 11
22.937
 20
20.625
 21
20.503
  0
LINE
  8
0
 10
22.937
 11
22.902
 20
20.503
 21
20.382
  0
LINE
  8
0
 10
22.902
 11
22.86
 20
20.382
 21
20.264
  0
LINE
  8
0
 10
22.86
 11
22.81
 20
20.264
 21
20.148
  0
LINE
  8
0
 10
22.81
 11
22.753
 20
20.148
 21
20.036
  0
LINE
  8
0
 10
22.753
 11
22.689
 20
20.036
 21
19.928
  0
LINE
  8
0
 10
22.689
 11
22.618
 20
19.928
 21
19.824
  0
LINE
  8
0
 10
22.618
 11
22.541
 20
19.824
 21
19.725
  0
LINE
  8
0
 10
22.541
 11
22.458
 20
19.725
 21
19.631
  0
LINE
  8
0
 10
22.458
 11
22.369
 20
19.631
 21
19.542
  0
LINE
  8
0
 10
22.369
 11
22.275
 20
19.542
 21
19.459
  0
LINE
  8
0
 10
22.275
 11
22.176
 20
19.459
 21
19.382
  0
LINE
  8
0
 10
22.176
 11
22.072
 20
19.382
 21
19.311
  0
LINE
  8
0
 10
22.072
 11
21.964
 20
19.311
 21
19.247
  0
LINE
  8
0
 10
21.964
 11
21.852
 20
19.247
 21
19.19
  0
LINE
  8
0
 10
21.852
 11
21.736
 20
19.19
 21
19.14
  0
LINE
  8
0
 10
21.736
 11
21.618
 20
19.14
 21
19.098
  0
LINE
  8
0
 10
21.618
 11
21.497
 20
19.098
 21
19.063
  0
LINE
  8
0
 10
21.497
 11
21.375
 20
19.063
 21
19.035
  0
LINE
  8
0
 10
21.375
 11
21.251
 20
19.035
 21
19.016
  0
LINE
  8
0
 10
21.251
 11
21.126
 20
19.016
 21
19.004
  0
LINE
  8
0
 10
21.126
 11
21
 20
19.004
 21
19
  0
LINE
  8
0
 10
21
 11
20.874
 20
19
 21
19.004
  0
LINE
  8
0
 10
20.874
 11
20.749
 20
19.004
 21
19.016
  0
LINE
  8
0
 10
20.749
 11
20.625
 20
19.016
 21
19.035
  0
LINE
  8
0
 10
20.625
 11
20.503
 20
19.035
 21
19.063
  0
LINE
  8
0
 10
20.503
 11
20.382
 20
19.063
 21
19.098
  0
LINE
  8
0
 10
20.382
 11
20.264
 20
19.098
 21
19.14
  0
LINE
  8
0
 10
20.264
 11
20.148
 20
19.14
 21
19.19
  0
LINE
  8
0
 10
20.148
 11
20.036
 20
19.19
 21
19.247
  0
LINE
  8
0
 10
20.036
 11
19.928
 20
19.247
 21
19.311
  0
LINE
  8
0
 10
19.928
 11
19.824
 20
19.311
 21
19.382
  0
LINE
  8
0
 10
19.824
 11
19.725
 20
19.382
 21
19.459
  0
LINE
  8
0
 10
19.725
 11
19.631
 20
19.459
 21
19.542
  0
LINE
  8
0
 10
19.631
 11
19.542
 20
19.542
 21
19.631
  0
LINE
  8
0
 10
19.542
 11
19.459
 20
19.631
 21
19.725
  0
LINE
  8
0
 10
19.459
 11
19.382
 20
19.725
 21
19.824
  0
LINE
  8
0
 10
19.382
 11
19.311
 20
19.824
 21
19.928
  0
LINE
  8
0
 10
19.311
 11
19.247
 20
19.928
 21
20.036
  0
LINE
  8
0
 10
19.247
 11
19.19
 20
20.036
 21
20.148
  0
LINE
  8
0
 10
19.19
 11
19.14
 20
20.148
 21
20.264
  0
LINE
  8
0
 10
19.14
 11
19.098
 20
20.264
 21
20.382
  0
LINE
  8
0
 10
19.098
 11
19.063
 20
20.382
 21
20.503
  0
LINE
  8
0
 10
19.063
 11
19.035
 20
20.503
 21
20.625
  0
LINE
  8
0
 10
19.035
 11
19.016
 20
20.625
 21
20.749
  0
LINE
  8
0
 10
19.016
 11
19.004
 20
20.749
 21
20.874
  0
LINE
  8
0
 10
19.004
 11
19
 20
20.874
 21
21
  0
LINE
  8
0
 10
24.975
 11
24.98
 20
75
 21
75.159
  0
LINE
  8
0
 10
24.98
 11
24.995
 20
75.159
 21
75.316
  0
LINE
  8
0
 10
24.995
 11
25.02
 20
75.316
 21
75.473
  0
LINE
  8
0
 10
25.02
 11
25.054
 20
75.473
 21
75.628
  0
LINE
  8
0
 10
25.054
 11
25.099
 20
75.628
 21
75.78
  0
LINE
  8
0
 10
25.099
 11
25.152
 20
75.78
 21
75.93
  0
LINE
  8
0
 10
25.152
 11
25.215
 20
75.93
 21
76.075
  0
LINE
  8
0
 10
25.215
 11
25.287
 20
76.075
 21
76.216
  0
LINE
  8
0
 10
25.287
 11
25.368
 20
76.216
 21
76.353
  0
LINE
  8
0
 10
25.368
 11
25.457
 20
76.353
 21
76.484
  0
LINE
  8
0
 10
25.457
 11
25.554
 20
76.484
 21
76.609
  0
LINE
  8
0
 10
25.554
 11
25.659
 20
76.609
 21
76.728
  0
LINE
  8
0
 10
25.659
 11
25.772
 20
76.728
 21
76.841
  0
LINE
  8
0
 10
25.772
 11
25.891
 20
76.841
 21
76.946
  0
LINE
  8
0
 10
25.891
 11
26.016
 20
76.946
 21
77.043
  0
LINE
  8
0
 10
26.016
 11
26.147
 20
77.043
 21
77.132
  0
LINE
  8
0
 10
26.147
 11
26.284
 20
77.132
 21
77.213
  0
LINE
  8
0
 10
26.284
 11
26.425
 20
77.213
 21
77.285
  0
LINE
  8
0
 10
26.425
 11
26.57
 20
77.285
 21
77.348
  0
LINE
  8
0
 10
26.57
 11
26.72
 20
77.348
 21
77.401
  0
LINE
  8
0
 10
26.72
 11
26.872
 20
77.401
 21
77.446
  0
LINE
  8
0
 10
26.872
 11
27.027
 20
77.446
 21
77.48
  0
LINE
  8
0
 10
27.027
 11
27.184
 20
77.48
 21
77.505
  0
LINE
  8
0
 10
27.184
 11
27.341
 20
77.505
 21
77.52
  0
LINE
  8
0
 10
27.341
 11
27.5
 20
77.52
 21
77.525
  0
LINE
  8
0
 10
27.5
 11
27.659
 20
77.525
 21
77.52
  0
LINE
  8
0
 10
27.659
 11
27.816
 20
77.52
 21
77.505
  0
LINE
  8
0
 10
27.816
 11
27.973
 20
77.505
 21
77.48
  0
LINE
  8
0
 10
27.973
 11
28.128
 20
77.48
 21
77.446
  0
LINE
  8
0
 10
28.128
 11
28.28
 20
77.446
 21
77.401
  0
LINE
  8
0
 10
28.28
 11
28.43
 20
77.401
 21
77.348
  0
LINE
  8
0
 10
28.43
 11
28.575
 20
77.348
 21
77.285
  0
LINE
  8
0
 10
28.575
 11
28.716
 20
77.285
 21
77.213
  0
LINE
  8
0
 10
28.716
 11
28.853
 20
77.213
 21
77.132
  0
LINE
  8
0
 10
28.853
 11
28.984
 20
77.132
 21
77.043
  0
LINE
  8
0
 10
28.984
 11
29.109
 20
77.043
 21
76.946
  0
LINE
  8
0
 10
29.109
 11
29.228
 20
76.946
 21
76.841
  0
LINE
  8
0
 10
29.228
 11
29.341
 20
76.841
 21
76.728
  0
LINE
  8
0
 10
29.341
 11
29.446
 20
76.728
 21
76.609
  0
LINE
  8
0
 10
29.446
 11
29.543
 20
76.609
 21
76.484
  0
LINE
  8
0
 10
29.543
 11
29.632
 20
76.484
 21
76.353
  0
LINE
  8
0
 10
29.632
 11
29.713
 20
76.353
 21
76.216
  0
LINE
  8
0
 10
29.713
 11
29.785
 20
76.216
 21
76.075
  0
LINE
  8
0
 10
29.785
 11
29.848
 20
76.075
 21
75.93
  0
LINE
  8
0
 10
29.848
 11
29.901
 20
75.93
 21
75.78
  0
LINE
  8
0
 10
29.901
 11
29.946
 20
75.78
 21
75.628
  0
LINE
  8
0
 10
29.946
 11
29.98
 20
75.628
 21
75.473
  0
LINE
  8
0
 10
29.98
 11
30.005
 20
75.473
 21
75.316
  0
LINE
  8
0
 10
30.005
 11
30.02
 20
75.316
 21
75.159
  0
LINE
  8
0
 10
30.02
 11
30.025
 20
75.159
 21
75
  0
LINE
  8
0
 10
30.025
 11
30.02
 20
75
 21
74.841
  0
LINE
  8
0
 10
30.02
 11
30.005
 20
74.841
 21
74.684
  0
LINE
  8
0
 10
30.005
 11
29.98
 20
74.684
 21
74.527
  0
LINE
  8
0
 10
29.98
 11
29.946
 20
74.527
 21
74.372
  0
LINE
  8
0
 10
29.946
 11
29.901
 20
74.372
 21
74.22
  0
LINE
  8
0
 10
29.901
 11
29.848
 20
74.22
 21
74.07
  0
LINE
  8
0
 10
29.848
 11
29.785
 20
74.07
 21
73.925
  0
LINE
  8
0
 10
29.785
 11
29.713
 20
73.925
 21
73.784
  0
LINE
  8
0
 10
29.713
 11
29.632
 20
73.784
 21
73.647
  0
LINE
  8
0
 10
29.632
 11
29.543
 20
73.647
 21
73.516
  0
LINE
  8
0
 10
29.543
 11
29.446
 20
73.516
 21
73.391
  0
LINE
  8
0
 10
29.446
 11
29.341
 20
73.391
 21
73.272
  0
LINE
  8
0
 10
29.341
 11
29.228
 20
73.272
 21
73.159
  0
LINE
  8
0
 10
29.228
 11
29.109
 20
73.159
 21
73.054
  0
LINE
  8
0
 10
29.109
 11
28.984
 20
73.054
 21
72.957
  0
LINE
  8
0
 10
28.984
 11
28.853
 20
72.957
 21
72.868
  0
LINE
  8
0
 10
28.853
 11
28.716
 20
72.868
 21
72.787
  0
LINE
  8
0
 10
28.716
 11
28.575
 20
72.787
 21
72.715
  0
LINE
  8
0
 10
28.575
 11
28.43
 20
72.715
 21
72.652
  0
LINE
  8
0
 10
28.43
 11
28.28
 20
72.652
 21
72.599
  0
LINE
  8
0
 10
28.28
 11
28.128
 20
72.599
 21
72.554
  0
LINE
  8
0
 10
28.128
 11
27.973
 20
72.554
 21
72.52
  0
LINE
  8
0
 10
27.973
 11
27.816
 20
72.52
 21
72.495
  0
LINE
  8
0
 10
27.816
 11
27.659
 20
72.495
 21
72.48
  0
LINE
  8
0
 10
27.659
 11
27.5
 20
72.48
 21
72.475
  0
LINE
  8
0
 10
27.5
 11
27.341
 20
72.475
 21
72.48
  0
LINE
  8
0
 10
27.341
 11
27.184
 20
72.48
 21
72.495
  0
LINE
  8
0
 10
27.184
 11
27.027
 20
72.495
 21
72.52
  0
LINE
  8
0
 10
27.027
 11
26.872
 20
72.52
 21
72.554
  0
LINE
  8
0
 10
26.872
 11
26.72
 20
72.554
 21
72.599
  0
LINE
  8
0
 10
26.72
 11
26.57
 20
72.599
 21
72.652
  0
LINE
  8
0
 10
26.57
 11
26.425
 20
72.652
 21
72.715
  0
LINE
  8
0
 10
26.425
 11
26.284
 20
72.715
 21
72.787
  0
LINE
  8
0
 10
26.284
 11
26.147
 20
72.787
 21
72.868
  0
LINE
  8
0
 10
26.147
 11
26.016
 20
72.868
 21
72.957
  0
LINE
  8
0
 10
26.016
 11
25.891
 20
72.957
 21
73.054
  0
LINE
  8
0
 10
25.891
 11
25.772
 20
73.054
 21
73.159
  0
LINE
  8
0
 10
25.772
 11
25.659
 20
73.159
 21
73.272
  0
LINE
  8
0
 10
25.659
 11
25.554
 20
73.272
 21
73.391
  0
LINE
  8
0
 10
25.554
 11
25.457
 20
73.391
 21
73.516
  0
LINE
  8
0
 10
25.457
 11
25.368
 20
73.516
 21
73.647
  0
LINE
  8
0
 10
25.368
 11
25.287
 20
73.647
 21
73.784
  0
LINE
  8
0
 10
25.287
 11
25.215
 20
73.784
 21
73.925
  0
LINE
  8
0
 10
25.215
 11
25.152
 20
73.925
 21
74.07
  0
LINE
  8
0
 10
25.152
 11
25.099
 20
74.07
 21
74.22
  0
LINE
  8
0
 10
25.099
 11
25.054
 20
74.22
 21
74.372
  0
LINE
  8
0
 10
25.054
 11
25.02
 20
74.372
 21
74.527
  0
LINE
  8
0
 10
25.02
 11
24.995
 20
74.527
 21
74.684
  0
LINE
  8
0
 10
24.995
 11
24.98
 20
74.684
 21
74.841
  0
LINE
  8
0
 10
24.98
 11
24.975
 20
74.841
 21
75
  0
LINE
  8
0
 10
62.5
 11
62.504
 20
-163.494
 21
-163.368
  0
LINE
  8
0
 10
62.504
 11
62.516
 20
-163.368
 21
-163.243
  0
LINE
  8
0
 10
62.516
 11
62.535
 20
-163.243
 21
-163.119
  0
LINE
  8
0
 10
62.535
 11
62.563
 20
-163.119
 21
-162.997
  0
LINE
  8
0
 10
62.563
 11
62.598
 20
-162.997
 21
-162.876
  0
LINE
  8
0
 10
62.598
 11
62.64
 20
-162.876
 21
-162.758
  0
LINE
  8
0
 10
62.64
 11
62.69
 20
-162.758
 21
-162.642
  0
LINE
  8
0
 10
62.69
 11
62.747
 20
-162.642
 21
-162.53
  0
LINE
  8
0
 10
62.747
 11
62.811
 20
-162.53
 21
-162.422
  0
LINE
  8
0
 10
62.811
 11
62.882
 20
-162.422
 21
-162.318
  0
LINE
  8
0
 10
62.882
 11
62.959
 20
-162.318
 21
-162.219
  0
LINE
  8
0
 10
62.959
 11
63.042
 20
-162.219
 21
-162.125
  0
LINE
  8
0
 10
63.042
 11
63.131
 20
-162.125
 21
-162.036
  0
LINE
  8
0
 10
63.131
 11
63.225
 20
-162.036
 21
-161.953
  0
LINE
  8
0
 10
63.225
 11
63.324
 20
-161.953
 21
-161.876
  0
LINE
  8
0
 10
63.324
 11
63.428
 20
-161.876
 21
-161.805
  0
LINE
  8
0
 10
63.428
 11
63.536
 20
-161.805
 21
-161.741
  0
LINE
  8
0
 10
63.536
 11
63.648
 20
-161.741
 21
-161.684
  0
LINE
  8
0
 10
63.648
 11
63.764
 20
-161.684
 21
-161.634
  0
LINE
  8
0
 10
63.764
 11
63.882
 20
-161.634
 21
-161.592
  0
LINE
  8
0
 10
63.882
 11
64.003
 20
-161.592
 21
-161.557
  0
LINE
  8
0
 10
64.003
 11
64.125
 20
-161.557
 21
-161.529
  0
LINE
  8
0
 10
64.125
 11
64.249
 20
-161.529
 21
-161.51
  0
LINE
  8
0
 10
64.249
 11
64.374
 20
-161.51
 21
-161.498
  0
LINE
  8
0
 10
64.374
 11
64.5
 20
-161.498
 21
-161.494
  0
LINE
  8
0
 10
64.5
 11
64.626
 20
-161.494
 21
-161.498
  0
LINE
  8
0
 10
64.626
 11
64.751
 20
-161.498
 21
-161.51
  0
LINE
  8
0
 10
64.751
 11
64.875
 20
-161.51
 21
-161.529
  0
LINE
  8
0
 10
64.875
 11
64.997
 20
-161.529
 21
-161.557
  0
LINE
  8
0
 10
64.997
 11
65.118
 20
-161.557
 21
-161.592
  0
LINE
  8
0
 10
65.118
 11
65.236
 20
-161.592
 21
-161.634
  0
LINE
  8
0
 10
65.236
 11
65.352
 20
-161.634
 21
-161.684
  0
LINE
  8
0
 10
65.352
 11
65.464
 20
-161.684
 21
-161.741
  0
LINE
  8
0
 10
65.464
 11
65.572
 20
-161.741
 21
-161.805
  0
LINE
  8
0
 10
65.572
 11
65.676
 20
-161.805
 21
-161.876
  0
LINE
  8
0
 10
65.676
 11
65.775
 20
-161.876
 21
-161.953
  0
LINE
  8
0
 10
65.775
 11
65.869
 20
-161.953
 21
-162.036
  0
LINE
  8
0
 10
65.869
 11
65.958
 20
-162.036
 21
-162.125
  0
LINE
  8
0
 10
65.958
 11
66.041
 20
-162.125
 21
-162.219
  0
LINE
  8
0
 10
66.041
 11
66.118
 20
-162.219
 21
-162.318
  0
LINE
  8
0
 10
66.118
 11
66.189
 20
-162.318
 21
-162.422
  0
LINE
  8
0
 10
66.189
 11
66.253
 20
-162.422
 21
-162.53
  0
LINE
  8
0
 10
66.253
 11
66.31
 20
-162.53
 21
-162.642
  0
LINE
  8
0
 10
66.31
 11
66.36
 20
-162.642
 21
-162.758
  0
LINE
  8
0
 10
66.36
 11
66.402
 20
-162.758
 21
-162.876
  0
LINE
  8
0
 10
66.402
 11
66.437
 20
-162.876
 21
-162.997
  0
LINE
  8
0
 10
66.437
 11
66.465
 20
-162.997
 21
-163.119
  0
LINE
  8
0
 10
66.465
 11
66.484
 20
-163.119
 21
-163.243
  0
LINE
  8
0
 10
66.484
 11
66.496
 20
-163.243
 21
-163.368
  0
LINE
  8
0
 10
66.496
 11
66.5
 20
-163.368
 21
-163.494
  0
LINE
  8
0
 10
66.5
 11
66.496
 20
-163.494
 21
-163.62
  0
LINE
  8
0
 10
66.496
 11
66.484
 20
-163.62
 21
-163.745
  0
LINE
  8
0
 10
66.484
 11
66.465
 20
-163.745
 21
-163.869
  0
LINE
  8
0
 10
66.465
 11
66.437
 20
-163.869
 21
-163.991
  0
LINE
  8
0
 10
66.437
 11
66.402
 20
-163.991
 21
-164.112
  0
LINE
  8
0
 10
66.402
 11
66.36
 20
-164.112
 21
-164.23
  0
LINE
  8
0
 10
66.36
 11
66.31
 20
-164.23
 21
-164.346
  0
LINE
  8
0
 10
66.31
 11
66.253
 20
-164.346
 21
-164.458
  0
LINE
  8
0
 10
66.253
 11
66.189
 20
-164.458
 21
-164.566
  0
LINE
  8
0
 10
66.189
 11
66.118
 20
-164.566
 21
-164.67
  0
LINE
  8
0
 10
66.118
 11
66.041
 20
-164.67
 21
-164.769
  0
LINE
  8
0
 10
66.041
 11
65.958
 20
-164.769
 21
-164.863
  0
LINE
  8
0
 10
65.958
 11
65.869
 20
-164.863
 21
-164.952
  0
LINE
  8
0
 10
65.869
 11
65.775
 20
-164.952
 21
-165.035
  0
LINE
  8
0
 10
65.775
 11
65.676
 20
-165.035
 21
-165.112
  0
LINE
  8
0
 10
65.676
 11
65.572
 20
-165.112
 21
-165.183
  0
LINE
  8
0
 10
65.572
 11
65.464
 20
-165.183
 21
-165.247
  0
LINE
  8
0
 10
65.464
 11
65.352
 20
-165.247
 21
-165.304
  0
LINE
  8
0
 10
65.352
 11
65.236
 20
-165.304
 21
-165.354
  0
LINE
  8
0
 10
65.236
 11
65.118
 20
-165.354
 21
-165.396
  0
LINE
  8
0
 10
65.118
 11
64.997
 20
-165.396
 21
-165.431
  0
LINE
  8
0
 10
64.997
 11
64.875
 20
-165.431
 21
-165.459
  0
LINE
  8
0
 10
64.875
 11
64.751
 20
-165.459
 21
-165.478
  0
LINE
  8
0
 10
64.751
 11
64.626
 20
-165.478
 21
-165.49
  0
LINE
  8
0
 10
64.626
 11
64.5
 20
-165.49
 21
-165.494
  0
LINE
  8
0
 10
64.5
 11
64.374
 20
-165.494
 21
-165.49
  0
LINE
  8
0
 10
64.374
 11
64.249
 20
-165.49
 21
-165.478
  0
LINE
  8
0
 10
64.249
 11
64.125
 20
-165.478
 21
-165.459
  0
LINE
  8
0
 10
64.125
 11
64.003
 20
-165.459
 21
-165.431
  0
LINE
  8
0
 10
64.003
 11
63.882
 20
-165.431
 21
-165.396
  0
LINE
  8
0
 10
63.882
 11
63.764
 20
-165.396
 21
-165.354
  0
LINE
  8
0
 10
63.764
 11
63.648
 20
-165.354
 21
-165.304
  0
LINE
  8
0
 10
63.648
 11
63.536
 20
-165.304
 21
-165.247
  0
LINE
  8
0
 10
63.536
 11
63.428
 20
-165.247
 21
-165.183
  0
LINE
  8
0
 10
63.428
 11
63.324
 20
-165.183
 21
-165.112
  0
LINE
  8
0
 10
63.324
 11
63.225
 20
-165.112
 21
-165.035
  0
LINE
  8
0
 10
63.225
 11
63.131
 20
-165.035
 21
-164.952
  0
LINE
  8
0
 10
63.131
 11
63.042
 20
-164.952
 21
-164.863
  0
LINE
  8
0
 10
63.042
 11
62.959
 20
-164.863
 21
-164.769
  0
LINE
  8
0
 10
62.959
 11
62.882
 20
-164.769
 21
-164.67
  0
LINE
  8
0
 10
62.882
 11
62.811
 20
-164.67
 21
-164.566
  0
LINE
  8
0
 10
62.811
 11
62.747
 20
-164.566
 21
-164.458
  0
LINE
  8
0
 10
62.747
 11
62.69
 20
-164.458
 21
-164.346
  0
LINE
  8
0
 10
62.69
 11
62.64
 20
-164.346
 21
-164.23
  0
LINE
  8
0
 10
62.64
 11
62.598
 20
-164.23
 21
-164.112
  0
LINE
  8
0
 10
62.598
 11
62.563
 20
-164.112
 21
-163.991
  0
LINE
  8
0
 10
62.563
 11
62.535
 20
-163.991
 21
-163.869
  0
LINE
  8
0
 10
62.535
 11
62.516
 20
-163.869
 21
-163.745
  0
LINE
  8
0
 10
62.516
 11
62.504
 20
-163.745
 21
-163.62
  0
LINE
  8
0
 10
62.504
 11
62.5
 20
-163.62
 21
-163.494
  0
LINE
  8
0
 10
62.5
 11
62.504
 20
163.494
 21
163.62
  0
LINE
  8
0
 10
62.504
 11
62.516
 20
163.62
 21
163.745
  0
LINE
  8
0
 10
62.516
 11
62.535
 20
163.745
 21
163.869
  0
LINE
  8
0
 10
62.535
 11
62.563
 20
163.869
 21
163.991
  0
LINE
  8
0
 10
62.563
 11
62.598
 20
163.991
 21
164.112
  0
LINE
  8
0
 10
62.598
 11
62.64
 20
164.112
 21
164.23
  0
LINE
  8
0
 10
62.64
 11
62.69
 20
164.23
 21
164.346
  0
LINE
  8
0
 10
62.69
 11
62.747
 20
164.346
 21
164.458
  0
LINE
  8
0
 10
62.747
 11
62.811
 20
164.458
 21
164.566
  0
LINE
  8
0
 10
62.811
 11
62.882
 20
164.566
 21
164.67
  0
LINE
  8
0
 10
62.882
 11
62.959
 20
164.67
 21
164.769
  0
LINE
  8
0
 10
62.959
 11
63.042
 20
164.769
 21
164.863
  0
LINE
  8
0
 10
63.042
 11
63.131
 20
164.863
 21
164.952
  0
LINE
  8
0
 10
63.131
 11
63.225
 20
164.952
 21
165.035
  0
LINE
  8
0
 10
63.225
 11
63.324
 20
165.035
 21
165.112
  0
LINE
  8
0
 10
63.324
 11
63.428
 20
165.112
 21
165.183
  0
LINE
  8
0
 10
63.428
 11
63.536
 20
165.183
 21
165.247
  0
LINE
  8
0
 10
63.536
 11
63.648
 20
165.247
 21
165.304
  0
LINE
  8
0
 10
63.648
 11
63.764
 20
165.304
 21
165.354
  0
LINE
  8
0
 10
63.764
 11
63.882
 20
165.354
 21
165.396
  0
LINE
  8
0
 10
63.882
 11
64.003
 20
165.396
 21
165.431
  0
LINE
  8
0
 10
64.003
 11
64.125
 20
165.431
 21
165.459
  0
LINE
  8
0
 10
64.125
 11
64.249
 20
165.459
 21
165.478
  0
LINE
  8
0
 10
64.249
 11
64.374
 20
165.478
 21
165.49
  0
LINE
  8
0
 10
64.374
 11
64.5
 20
165.49
 21
165.494
  0
LINE
  8
0
 10
64.5
 11
64.626
 20
165.494
 21
165.49
  0
LINE
  8
0
 10
64.626
 11
64.751
 20
165.49
 21
165.478
  0
LINE
  8
0
 10
64.751
 11
64.875
 20
165.478
 21
165.459
  0
LINE
  8
0
 10
64.875
 11
64.997
 20
165.459
 21
165.431
  0
LINE
  8
0
 10
64.997
 11
65.118
 20
165.431
 21
165.396
  0
LINE
  8
0
 10
65.118
 11
65.236
 20
165.396
 21
165.354
  0
LINE
  8
0
 10
65.236
 11
65.352
 20
165.354
 21
165.304
  0
LINE
  8
0
 10
65.352
 11
65.464
 20
165.304
 21
165.247
  0
LINE
  8
0
 10
65.464
 11
65.572
 20
165.247
 21
165.183
  0
LINE
  8
0
 10
65.572
 11
65.676
 20
165.183
 21
165.112
  0
LINE
  8
0
 10
65.676
 11
65.775
 20
165.112
 21
165.035
  0
LINE
  8
0
 10
65.775
 11
65.869
 20
165.035
 21
164.952
  0
LINE
  8
0
 10
65.869
 11
65.958
 20
164.952
 21
164.863
  0
LINE
  8
0
 10
65.958
 11
66.041
 20
164.863
 21
164.769
  0
LINE
  8
0
 10
66.041
 11
66.118
 20
164.769
 21
164.67
  0
LINE
  8
0
 10
66.118
 11
66.189
 20
164.67
 21
164.566
  0
LINE
  8
0
 10
66.189
 11
66.253
 20
164.566
 21
164.458
  0
LINE
  8
0
 10
66.253
 11
66.31
 20
164.458
 21
164.346
  0
LINE
  8
0
 10
66.31
 11
66.36
 20
164.346
 21
164.23
  0
LINE
  8
0
 10
66.36
 11
66.402
 20
164.23
 21
164.112
  0
LINE
  8
0
 10
66.402
 11
66.437
 20
164.112
 21
163.991
  0
LINE
  8
0
 10
66.437
 11
66.465
 20
163.991
 21
163.869
  0
LINE
  8
0
 10
66.465
 11
66.484
 20
163.869
 21
163.745
  0
LINE
  8
0
 10
66.484
 11
66.496
 20
163.745
 21
163.62
  0
LINE
  8
0
 10
66.496
 11
66.5
 20
163.62
 21
163.494
  0
LINE
  8
0
 10
66.5
 11
66.496
 20
163.494
 21
163.368
  0
LINE
  8
0
 10
66.496
 11
66.484
 20
163.368
 21
163.243
  0
LINE
  8
0
 10
66.484
 11
66.465
 20
163.243
 21
163.119
  0
LINE
  8
0
 10
66.465
 11
66.437
 20
163.119
 21
162.997
  0
LINE
  8
0
 10
66.437
 11
66.402
 20
162.997
 21
162.876
  0
LINE
  8
0
 10
66.402
 11
66.36
 20
162.876
 21
162.758
  0
LINE
  8
0
 10
66.36
 11
66.31
 20
162.758
 21
162.642
  0
LINE
  8
0
 10
66.31
 11
66.253
 20
162.642
 21
162.53
  0
LINE
  8
0
 10
66.253
 11
66.189
 20
162.53
 21
162.422
  0
LINE
  8
0
 10
66.189
 11
66.118
 20
162.422
 21
162.318
  0
LINE
  8
0
 10
66.118
 11
66.041
 20
162.318
 21
162.219
  0
LINE
  8
0
 10
66.041
 11
65.958
 20
162.219
 21
162.125
  0
LINE
  8
0
 10
65.958
 11
65.869
 20
162.125
 21
162.036
  0
LINE
  8
0
 10
65.869
 11
65.775
 20
162.036
 21
161.953
  0
LINE
  8
0
 10
65.775
 11
65.676
 20
161.953
 21
161.876
  0
LINE
  8
0
 10
65.676
 11
65.572
 20
161.876
 21
161.805
  0
LINE
  8
0
 10
65.572
 11
65.464
 20
161.805
 21
161.741
  0
LINE
  8
0
 10
65.464
 11
65.352
 20
161.741
 21
161.684
  0
LINE
  8
0
 10
65.352
 11
65.236
 20
161.684
 21
161.634
  0
LINE
  8
0
 10
65.236
 11
65.118
 20
161.634
 21
161.592
  0
LINE
  8
0
 10
65.118
 11
64.997
 20
161.592
 21
161.557
  0
LINE
  8
0
 10
64.997
 11
64.875
 20
161.557
 21
161.529
  0
LINE
  8
0
 10
64.875
 11
64.751
 20
161.529
 21
161.51
  0
LINE
  8
0
 10
64.751
 11
64.626
 20
161.51
 21
161.498
  0
LINE
  8
0
 10
64.626
 11
64.5
 20
161.498
 21
161.494
  0
LINE
  8
0
 10
64.5
 11
64.374
 20
161.494
 21
161.498
  0
LINE
  8
0
 10
64.374
 11
64.249
 20
161.498
 21
161.51
  0
LINE
  8
0
 10
64.249
 11
64.125
 20
161.51
 21
161.529
  0
LINE
  8
0
 10
64.125
 11
64.003
 20
161.529
 21
161.557
  0
LINE
  8
0
 10
64.003
 11
63.882
 20
161.557
 21
161.592
  0
LINE
  8
0
 10
63.882
 11
63.764
 20
161.592
 21
161.634
  0
LINE
  8
0
 10
63.764
 11
63.648
 20
161.634
 21
161.684
  0
LINE
  8
0
 10
63.648
 11
63.536
 20
161.684
 21
161.741
  0
LINE
  8
0
 10
63.536
 11
63.428
 20
161.741
 21
161.805
  0
LINE
  8
0
 10
63.428
 11
63.324
 20
161.805
 21
161.876
  0
LINE
  8
0
 10
63.324
 11
63.225
 20
161.876
 21
161.953
  0
LINE
  8
0
 10
63.225
 11
63.131
 20
161.953
 21
162.036
  0
LINE
  8
0
 10
63.131
 11
63.042
 20
162.036
 21
162.125
  0
LINE
  8
0
 10
63.042
 11
62.959
 20
162.125
 21
162.219
  0
LINE
  8
0
 10
62.959
 11
62.882
 20
162.219
 21
162.318
  0
LINE
  8
0
 10
62.882
 11
62.811
 20
162.318
 21
162.422
  0
LINE
  8
0
 10
62.811
 11
62.747
 20
162.422
 21
162.53
  0
LINE
  8
0
 10
62.747
 11
62.69
 20
162.53
 21
162.642
  0
LINE
  8
0
 10
62.69
 11
62.64
 20
162.642
 21
162.758
  0
LINE
  8
0
 10
62.64
 11
62.598
 20
162.758
 21
162.876
  0
LINE
  8
0
 10
62.598
 11
62.563
 20
162.876
 21
162.997
  0
LINE
  8
0
 10
62.563
 11
62.535
 20
162.997
 21
163.119
  0
LINE
  8
0
 10
62.535
 11
62.516
 20
163.119
 21
163.243
  0
LINE
  8
0
 10
62.516
 11
62.504
 20
163.243
 21
163.368
  0
LINE
  8
0
 10
62.504
 11
62.5
 20
163.368
 21
163.494
  0
ENDSEC
  0
SECTION
  2
OBJECTS
  0
DICTIONARY
  0
ENDSEC
  0
EOF
